<svg width="91" height="90" viewBox="0 0 91 90" fill="none" xmlns="http://www.w3.org/2000/svg">
<path d="M77.9928 46.1757V41.4107H71.4649C70.7943 37.8082 69.3826 34.4804 67.4026 31.5678L72.0079 26.9625L65.2756 20.2174L60.6575 24.8355C57.7576 22.8426 54.4107 21.431 50.8273 20.7603V14.2324H41.291V20.7603C37.6885 21.431 34.3607 22.8426 31.4608 24.8355L26.8428 20.2174L20.0977 26.9625L24.7158 31.5678C22.7229 34.4804 21.3113 37.8146 20.6406 41.4107H14.1191V46.1757" stroke="#050505" stroke-width="1.5" stroke-linecap="round" stroke-linejoin="round"/>
<path d="M27.9795 46.1784C27.9795 36.1885 36.0723 28.0957 46.0494 28.0957C56.0264 28.0957 64.132 36.1885 64.132 46.1784" stroke="#050505" stroke-width="1.5" stroke-linecap="round" stroke-linejoin="round"/>
<path d="M69.4619 18.1172C70.1814 17.7555 71.0602 17.7523 71.8095 18.1849C72.5589 18.6175 72.9836 19.3623 73.0415 20.1561" stroke="#050505" stroke-width="1.5" stroke-linecap="round" stroke-linejoin="round"/>
<path d="M67.7627 14.5762C69.6084 13.6769 71.8544 13.6804 73.7651 14.7836C75.6759 15.8867 76.7959 17.8211 76.949 19.8633" stroke="#050505" stroke-width="1.5" stroke-linecap="round" stroke-linejoin="round"/>
<path d="M66.1514 11.1719C69.0848 9.69617 72.6867 9.67763 75.7422 11.4417C78.7978 13.2059 80.5341 16.2454 80.7642 19.4809" stroke="#050505" stroke-width="1.5" stroke-linecap="round" stroke-linejoin="round"/>
<path d="M9.44531 46.168L74.8769 46.168" stroke="#050505" stroke-width="1.5" stroke-linecap="round" stroke-linejoin="round"/>
<path d="M20.3516 51.5522C20.3516 65.7415 31.8639 77.2509 46.0568 77.2509C52.6411 77.2509 58.6437 74.7771 63.1924 70.7054C63.9899 69.9916 64.7427 69.2286 65.4461 68.4213C66.4274 67.2888 67.3165 66.0773 68.0937 64.7868C68.7476 63.7711 69.5209 62.0634 69.8258 61.3366C71.0771 58.3144 71.7621 55.009 71.7621 51.5391" stroke="#050505" stroke-width="1.5" stroke-linecap="round" stroke-linejoin="round"/>
<path d="M28.334 51.5484C28.334 61.5925 36.3774 69.7396 46.2935 69.7396C51.7003 69.7396 56.5456 67.3206 59.8403 63.4894C60.5259 62.6878 61.1471 61.8302 61.6901 60.9166C62.1469 60.1977 62.6872 58.9889 62.9003 58.4744C63.7745 56.3351 64.2531 53.9953 64.2531 51.5391" stroke="#050505" stroke-width="1.5" stroke-linecap="round" stroke-linejoin="round"/>
<path d="M32.5176 51.4453H33.3733" stroke="#050505" stroke-width="1.5" stroke-linecap="round" stroke-linejoin="round"/>
<path d="M34.3545 58.2833L35.0952 57.8555" stroke="#050505" stroke-width="1.5" stroke-linecap="round" stroke-linejoin="round"/>
<path d="M39.3652 63.3071L39.7931 62.5664" stroke="#050505" stroke-width="1.5" stroke-linecap="round" stroke-linejoin="round"/>
<path d="M46.207 65.1377V64.2773" stroke="#050505" stroke-width="1.5" stroke-linecap="round" stroke-linejoin="round"/>
<path d="M53.0526 63.3071L52.6201 62.5664" stroke="#050505" stroke-width="1.5" stroke-linecap="round" stroke-linejoin="round"/>
<path d="M58.0666 58.2833L57.3213 57.8555" stroke="#050505" stroke-width="1.5" stroke-linecap="round" stroke-linejoin="round"/>
<path d="M59.8994 51.4453H59.0391" stroke="#050505" stroke-width="1.5" stroke-linecap="round" stroke-linejoin="round"/>
<path d="M46.2929 53.199C47.0759 53.199 47.7107 52.4584 47.7107 51.5448C47.7107 50.6312 47.0759 49.8906 46.2929 49.8906C45.5098 49.8906 44.875 50.6312 44.875 51.5448C44.875 52.4584 45.5098 53.199 46.2929 53.199Z" stroke="#050505" stroke-width="1.5" stroke-linecap="round" stroke-linejoin="round"/>
<path d="M48.1572 46.168L46.8355 49.8906" stroke="#050505" stroke-width="1.5" stroke-linecap="round" stroke-linejoin="round"/>
<path d="M45.3471 52.7266L38.2578 58.398" stroke="#050505" stroke-width="1.5" stroke-linecap="round" stroke-linejoin="round"/>
<path d="M78.8838 50.8414C78.8838 50.4112 78.535 50.0625 78.1048 50.0625H68.7574C68.3272 50.0625 67.9785 50.4112 67.9785 50.8414V68.3678C67.9785 68.798 67.6297 69.1467 67.1995 69.1467L62.4153 69.1467C61.7328 69.1467 61.3803 69.962 61.8478 70.4592L72.8633 82.1747C73.1709 82.5019 73.6907 82.5019 73.9983 82.1747L85.0139 70.4592C85.4814 69.962 85.1289 69.1467 84.4464 69.1467L79.6627 69.1467C79.2325 69.1467 78.8838 68.798 78.8838 68.3678V50.8414Z" fill="#80ABFF"/>
</svg>
