<svg width="90" height="90" viewBox="0 0 90 90" fill="none" xmlns="http://www.w3.org/2000/svg">
<path d="M75.8756 63.3034C77.9735 63.3034 79.6632 61.7184 79.6632 59.7702V20.2051H10.3369V59.7702C10.3369 61.7272 12.0361 63.3034 14.1246 63.3034C29.9736 63.3034 39.2989 63.3034 52.0106 63.3034" stroke="#050505" stroke-width="1.5" stroke-linecap="round" stroke-linejoin="round"/>
<path d="M79.6537 12.2277V20.2136H10.3369V12.2277C10.3369 10.3263 12.0264 8.7793 14.124 8.7793H75.8761C77.9642 8.7793 79.6632 10.3177 79.6632 12.2277H79.6537Z" stroke="#050505" stroke-width="1.5" stroke-linecap="round" stroke-linejoin="round"/>
<path d="M18.8839 14.4981C18.8839 15.2282 18.2454 15.8176 17.464 15.8176C16.6826 15.8176 16.0347 15.2282 16.0347 14.4981C16.0347 13.7681 16.6731 13.1787 17.464 13.1787C18.255 13.1787 18.8839 13.7681 18.8839 14.4981Z" stroke="#050505" stroke-width="1.5" stroke-linecap="round" stroke-linejoin="round"/>
<path d="M24.5836 14.4981C24.5836 15.2282 23.9473 15.8176 23.159 15.8176C22.3707 15.8176 21.7344 15.2282 21.7344 14.4981C21.7344 13.7681 22.3707 13.1787 23.159 13.1787C23.9473 13.1787 24.5836 13.7681 24.5836 14.4981Z" stroke="#050505" stroke-width="1.5" stroke-linecap="round" stroke-linejoin="round"/>
<path d="M31.2296 14.4981C31.2296 15.2282 30.5911 15.8176 29.8002 15.8176C29.0093 15.8176 28.3804 15.2282 28.3804 14.4981C28.3804 13.7681 29.0188 13.1787 29.8002 13.1787C30.5816 13.1787 31.2296 13.7681 31.2296 14.4981Z" stroke="#050505" stroke-width="1.5" stroke-linecap="round" stroke-linejoin="round"/>
<path d="M14.1357 35.6016H20.4449C20.4449 35.6016 21.939 26.4719 24.5749 26.3662C27.2109 26.4719 28.7049 35.6016 28.7049 35.6016C28.7049 35.6016 30.1989 44.7313 32.8349 44.8369C35.4709 44.7313 36.9649 35.6016 36.9649 35.6016C36.9649 35.6016 38.4589 26.4719 41.0949 26.3662C43.7308 26.4719 45.2249 35.6016 45.2249 35.6016C45.2249 35.6016 46.7189 44.7313 49.3549 44.8369C51.9908 44.7313 53.4849 35.6016 53.4849 35.6016C53.4849 35.6016 54.9789 26.4719 57.6149 26.3662C60.2508 26.4719 61.7448 35.6016 61.7448 35.6016H70.1666" stroke="#050505" stroke-width="1.5" stroke-linecap="round" stroke-linejoin="round"/>
<path d="M73.9663 35.1631H75.8658" stroke="#050505" stroke-width="1.5" stroke-linecap="round" stroke-linejoin="round"/>
<path fill-rule="evenodd" clip-rule="evenodd" d="M53.1369 71.1538C47.9632 65.8333 48.0056 57.1605 53.2315 51.7864C58.4574 46.4122 66.8909 46.3686 72.0646 51.6891C76.7608 56.5185 77.1593 64.1101 73.2844 69.4896L81.3068 77.7396C82.0486 78.5024 82.0486 79.7392 81.3068 80.5021C80.565 81.2649 79.3624 81.2649 78.6206 80.5021L70.6195 72.274C65.3793 76.4016 57.8852 76.0368 53.1369 71.1538ZM55.6698 68.5413C59.4575 72.4365 65.629 72.4046 69.4549 68.4701C73.2809 64.5355 73.3119 58.189 69.5242 54.2938C65.7364 50.3986 59.565 50.4305 55.739 54.365C51.913 58.2996 51.882 64.6461 55.6698 68.5413Z" fill="#80ABFF"/>
</svg>
