<svg width="74" height="74" viewBox="0 0 74 74" fill="none" xmlns="http://www.w3.org/2000/svg">
<g id="icon">
<g id="Group 427322478">
<g id="Group 427322848">
<path id="Vector" d="M61.0672 57.6425H11.0754C8.76659 57.6425 6.8661 55.817 6.77701 53.509L5.45558 18.4815C5.36649 16.0474 7.31152 14.0215 9.75395 14.0215H62.3886C64.8236 14.0215 66.776 16.0474 66.687 18.4815L65.3655 53.509C65.2764 55.817 63.3834 57.6425 61.0672 57.6425Z" stroke="#050505" stroke-width="1.5" stroke-linecap="round" stroke-linejoin="round"/>
<path id="Vector_2" d="M62.7055 29.2104L61.9158 50.8355C61.8365 52.8962 60.1509 54.5262 58.0885 54.5262H14.3542C12.2984 54.5262 10.6062 52.8962 10.5269 50.8355L9.35028 21.1189C9.27095 18.9456 11.0028 17.1367 13.1776 17.1367H35.8319" stroke="#050505" stroke-width="1.5" stroke-linecap="round" stroke-linejoin="round"/>
<path id="Vector_3" d="M43.6939 57.6426H29.2951C28.1693 63.8634 21.3911 66.0312 21.3911 66.0312H51.5903C51.5903 66.0312 44.8198 63.8634 43.6863 57.6426H43.6939Z" stroke="#050505" stroke-width="1.5" stroke-linecap="round" stroke-linejoin="round"/>
<path id="Vector_4" d="M51.5903 66.0312H21.3911V68.5478H51.5903V66.0312Z" stroke="#050505" stroke-width="1.5" stroke-linecap="round" stroke-linejoin="round"/>
</g>
<g id="Group 427322844">
<path id="Vector_5" d="M25.3882 46.4727H50.2397" stroke="#050505" stroke-width="1.5" stroke-linecap="round" stroke-linejoin="round"/>
<path id="Vector_6" d="M31.8457 49.0742H43.7823" stroke="#050505" stroke-width="1.5" stroke-linecap="round" stroke-linejoin="round"/>
<path id="Vector_7" d="M30.5089 30.3809H24.2773V41.4592H30.5089V30.3809Z" stroke="#050505" stroke-width="1.5" stroke-linecap="round" stroke-linejoin="round"/>
<path id="Vector_8" d="M40.8947 24.1484H34.6631V41.4584H40.8947V24.1484Z" stroke="#050505" stroke-width="1.5" stroke-linecap="round" stroke-linejoin="round"/>
<path id="Vector_9" d="M51.2809 35.918H45.0493V41.4571H51.2809V35.918Z" stroke="#050505" stroke-width="1.5" stroke-linecap="round" stroke-linejoin="round"/>
</g>
<path id="Union" d="M42.7943 8.98133C42.3904 8.98133 42.063 9.30374 42.063 9.70145L42.063 18.3429C42.063 18.7407 42.3904 19.0631 42.7943 19.0631L59.2489 19.0631C59.6528 19.0631 59.9802 19.3855 59.9802 19.7832L59.9802 24.2062C59.9802 24.8371 60.7457 25.163 61.2125 24.7308L72.2116 14.5471C72.5187 14.2627 72.5187 13.7822 72.2116 13.4978L61.2125 3.31412C60.7457 2.88193 59.9802 3.20783 59.9802 3.83876L59.9802 8.2612C59.9802 8.65892 59.6528 8.98133 59.2489 8.98133L42.7943 8.98133Z" fill="#80ABFF"/>
</g>
</g>
</svg>
