<?xml version="1.0" encoding="utf-8"?>
<!-- Generator: Adobe Illustrator 27.7.0, SVG Export Plug-In . SVG Version: 6.00 Build 0)  -->
<svg version="1.1" id="레이어_1" xmlns="http://www.w3.org/2000/svg" xmlns:xlink="http://www.w3.org/1999/xlink" x="0px"
	 y="0px" viewBox="0 0 120 120" style="enable-background:new 0 0 120 120;" xml:space="preserve">
<style type="text/css">
	.st0{fill:#80ABFF;}
	.st1{clip-path:url(#SVGID_00000001640211737958097870000009867524225573589683_);fill:#F4F4F4;}
	.st2{clip-path:url(#SVGID_00000001640211737958097870000009867524225573589683_);}
	.st3{clip-path:url(#SVGID_00000125593104670302809890000002079076079471224753_);fill:#F4F4F4;}
	.st4{clip-path:url(#SVGID_00000156546254785259223970000010581035264724996011_);fill:#050505;}
	.st5{clip-path:url(#SVGID_00000096052868332094679800000018033377503566967206_);fill:#F4F4F4;}
	.st6{clip-path:url(#SVGID_00000113345644122637758570000000761603764030380978_);fill:#050505;}
	.st7{clip-path:url(#SVGID_00000129179080312093215960000013425357645257006246_);fill:#80ABFF;}
	.st8{clip-path:url(#SVGID_00000049942126194546797840000012209423861838892208_);fill:#80ABFF;}
	.st9{clip-path:url(#SVGID_00000064320648662056301220000007358838619105549468_);fill:#F4F4F4;}
	.st10{clip-path:url(#SVGID_00000014605551964869047530000016625778945700444802_);}
	.st11{clip-path:url(#SVGID_00000096746886143461722240000011264233351221471124_);fill:#050505;}
	.st12{clip-path:url(#SVGID_00000035495814664795373220000008205597091416258991_);fill:#050505;}
	.st13{clip-path:url(#SVGID_00000098899202502646283440000013056242081523249064_);fill:#050505;}
	.st14{clip-path:url(#SVGID_00000101786952655140555750000017325539176953787782_);fill:#050505;}
	.st15{clip-path:url(#SVGID_00000086663667780629842190000000439303859315857579_);fill:#050505;}
	.st16{clip-path:url(#SVGID_00000101071176560786093240000004137236886545269662_);fill:#050505;}
	.st17{clip-path:url(#SVGID_00000139278420766081969710000001455412222037576885_);fill:#F4F4F4;}
	.st18{clip-path:url(#SVGID_00000139254961855723056860000003518419798805987509_);fill:#050505;}
	.st19{clip-path:url(#SVGID_00000020374602586451160040000015688884814120405383_);fill:#F4F4F4;}
	.st20{clip-path:url(#SVGID_00000082359091884568202800000007025373030886576022_);fill:#050505;}
	.st21{clip-path:url(#SVGID_00000088841795766631789490000016907320439012553857_);fill:#F4F4F4;}
	.st22{clip-path:url(#SVGID_00000019668347526405270240000015532684177303657147_);fill:#050505;}
	.st23{clip-path:url(#SVGID_00000047761724816433951090000011850797513325243321_);fill:#F4F4F4;}
	.st24{clip-path:url(#SVGID_00000134933010790016157120000012284139089878227096_);fill:#050505;}
	.st25{clip-path:url(#SVGID_00000088832803471558744260000008030178762857128068_);fill:#F4F4F4;}
	.st26{clip-path:url(#SVGID_00000134948821274824954970000010582051824162544295_);fill:#050505;}
	.st27{clip-path:url(#SVGID_00000106867206332434850890000014510065044360567173_);fill:#F4F4F4;}
	.st28{clip-path:url(#SVGID_00000170963091467851383330000007638177204271580850_);fill:#050505;}
	.st29{clip-path:url(#SVGID_00000119078606202869062420000018004681958440344194_);fill:#F4F4F4;}
	.st30{clip-path:url(#SVGID_00000127733103820422334750000006530246723788328578_);}
	.st31{clip-path:url(#SVGID_00000103982043961223645020000010691753127378423169_);fill:#050505;}
	.st32{clip-path:url(#SVGID_00000150788071437886257830000005261174921515398056_);fill:#050505;}
	.st33{clip-path:url(#SVGID_00000170239392268913295290000010103212076039559345_);fill:#050505;}
	.st34{clip-path:url(#SVGID_00000047755876135661878240000016933274974643140229_);fill:#050505;}
	.st35{clip-path:url(#SVGID_00000127763758591621229650000003180139178549867418_);}
	.st36{clip-path:url(#SVGID_00000069359029656198471670000009683725701342720399_);fill:#050505;}
	.st37{clip-path:url(#SVGID_00000106860911911960436130000011097385889923870889_);fill:#050505;}
	.st38{clip-path:url(#SVGID_00000004512464179527652900000005824169094900266881_);}
	.st39{clip-path:url(#SVGID_00000132776234888639961570000000771938150436854448_);fill:#050505;}
	.st40{clip-path:url(#SVGID_00000024722479718585272190000013264603303697043871_);fill:#050505;}
	.st41{clip-path:url(#SVGID_00000163072463757173269350000014757896526165896380_);fill:#050505;}
	.st42{clip-path:url(#SVGID_00000102534392930880712280000017457887917827108280_);fill:#050505;}
	.st43{clip-path:url(#SVGID_00000037662108780421508950000016344058475057838270_);fill:#050505;}
	.st44{clip-path:url(#SVGID_00000000942333724976842310000013886959104016754064_);fill:#F4F4F4;}
	.st45{clip-path:url(#SVGID_00000029748474038055124020000018245461174666177689_);fill:#050505;}
	.st46{clip-path:url(#SVGID_00000035514865271514321830000008697846627602796694_);fill:#F4F4F4;}
	.st47{clip-path:url(#SVGID_00000105402877133136205640000008690019006546164642_);fill:#050505;}
	.st48{clip-path:url(#SVGID_00000082353244310302909300000012006468455616495755_);fill:#80ABFF;}
	.st49{clip-path:url(#SVGID_00000115506617128490280800000000391279703759322770_);fill:#F4F4F4;}
	.st50{clip-path:url(#SVGID_00000018957668554999392270000001737885793820523176_);fill:#F4F4F4;}
	.st51{clip-path:url(#SVGID_00000013189900607218657620000007950742727389885356_);fill:#F4F4F4;}
	.st52{clip-path:url(#SVGID_00000121979501090577522150000007948567417068010643_);fill:#050505;}
	.st53{clip-path:url(#SVGID_00000080199676080111448520000010146428017023456405_);fill:#F4F4F4;}
	.st54{clip-path:url(#SVGID_00000139279454372191671000000008743401341451228315_);fill:#050505;}
	.st55{clip-path:url(#SVGID_00000131361384749539350840000005495464392896085685_);fill:#050505;}
	.st56{clip-path:url(#SVGID_00000006697316046704136470000008462794686650120582_);fill:#F4F4F4;}
	.st57{clip-path:url(#SVGID_00000101816708452595221600000006211839849872967089_);fill:#050505;}
	.st58{clip-path:url(#SVGID_00000070116900141783905110000012869924349116145595_);fill:#F4F4F4;}
	.st59{clip-path:url(#SVGID_00000080185746873219871530000016124205333935639454_);fill:#050505;}
	.st60{clip-path:url(#SVGID_00000061459832363455235030000001927827654434258817_);fill:#050505;}
	.st61{clip-path:url(#SVGID_00000101084948188548250200000005742967265264382593_);fill:#050505;}
	.st62{clip-path:url(#SVGID_00000121261426171983521730000006876349867720235926_);fill:#F4F4F4;}
	.st63{clip-path:url(#SVGID_00000127021210427247637190000011053948954125088185_);fill:#050505;}
	.st64{clip-path:url(#SVGID_00000037653569436572529630000011140645387796330379_);fill:#050505;}
	.st65{clip-path:url(#SVGID_00000001640211737958097870000009867524225573589683_);fill:#80ABFF;}
</style>
<path class="st0" d="M99.34,15.05c-4.72,1.37-8.32,3.73-8.32,3.73s0.64-5.94,3.41-8.53s5.19-2.98,6.77-1.26
	C102.78,10.72,102.97,13.99,99.34,15.05z"/>
<path class="st0" d="M100.2,23.54c-2.37-0.62-4.51-0.55-4.51-0.55s1.84-2.59,3.68-2.99c1.84-0.39,2.92,0.27,3.17,1.42
	S102.03,24.01,100.2,23.54L100.2,23.54z"/>
<g>
	<defs>
		<path id="SVGID_1_" d="M60,2.22c25.96,0,47,37.33,47,63.46S85.96,113,60,113S13,91.81,13,65.68S34.04,2.22,60,2.22z"/>
	</defs>
	<clipPath id="SVGID_00000065072462068408199330000007365624794020743358_">
		<use xlink:href="#SVGID_1_"  style="overflow:visible;"/>
	</clipPath>
	
		<ellipse style="clip-path:url(#SVGID_00000065072462068408199330000007365624794020743358_);fill:#F4F4F4;" cx="60" cy="65.68" rx="47" ry="47.32"/>
	<g style="clip-path:url(#SVGID_00000065072462068408199330000007365624794020743358_);">
		<g>
			<g>
				<defs>
					<rect id="SVGID_00000177456263995412634480000007309947821549234604_" y="0" width="120" height="120"/>
				</defs>
				<clipPath id="SVGID_00000158748052970252781110000003057930635941230769_">
					<use xlink:href="#SVGID_00000177456263995412634480000007309947821549234604_"  style="overflow:visible;"/>
				</clipPath>
				<path style="clip-path:url(#SVGID_00000158748052970252781110000003057930635941230769_);fill:#F4F4F4;" d="M62.51,101.76
					c-11.3-17.79-9.48-47.16-9.48-47.16h18.96C71.99,54.6,73.81,83.97,62.51,101.76z"/>
			</g>
			<g>
				<defs>
					<rect id="SVGID_00000016777571746633406440000018215019969036509115_" y="0" width="120" height="120"/>
				</defs>
				<clipPath id="SVGID_00000152266005273132501330000010225713480536384133_">
					<use xlink:href="#SVGID_00000016777571746633406440000018215019969036509115_"  style="overflow:visible;"/>
				</clipPath>
				<path style="clip-path:url(#SVGID_00000152266005273132501330000010225713480536384133_);fill:#050505;" d="M71.99,54.6
					c-0.5,0.03-0.5,0.03-0.5,0.03l0,0l0,0c0,0,0,0.01,0,0.02c0,0.01,0,0.03,0,0.06c0,0.05,0.01,0.14,0.01,0.25
					c0.01,0.22,0.02,0.54,0.04,0.96c0.03,0.83,0.05,2.04,0.05,3.55c-0.01,3.02-0.13,7.23-0.61,11.99
					c-0.95,9.54-3.32,21.24-8.9,30.03l0.84,0.54c5.71-8.99,8.09-20.88,9.05-30.47c0.48-4.8,0.61-9.05,0.61-12.09
					c0-1.52-0.02-2.74-0.05-3.59c-0.01-0.42-0.03-0.75-0.04-0.97c-0.01-0.11-0.01-0.2-0.01-0.25c0-0.03,0-0.05,0-0.07
					c0-0.01,0-0.01,0-0.02l0,0l0,0C72.49,54.57,72.49,54.57,71.99,54.6z M53.03,55.1h18.96v-1H53.03V55.1z M62.94,101.49
					c-5.59-8.79-7.95-20.49-8.9-30.03c-0.48-4.76-0.6-8.97-0.61-11.99c0-1.51,0.02-2.72,0.05-3.55c0.01-0.42,0.03-0.74,0.04-0.96
					c0.01-0.11,0.01-0.19,0.01-0.25c0-0.03,0-0.05,0-0.06c0-0.01,0-0.01,0-0.02l0,0l0,0c0,0,0,0-0.5-0.03s-0.5-0.03-0.5-0.03l0,0
					l0,0c0,0,0,0.01,0,0.02c0,0.01,0,0.04,0,0.07c0,0.06-0.01,0.14-0.01,0.25c-0.01,0.22-0.02,0.55-0.04,0.97
					c-0.03,0.84-0.06,2.07-0.05,3.59c0.01,3.04,0.13,7.29,0.61,12.09c0.96,9.59,3.34,21.47,9.05,30.47L62.94,101.49z M71.99,54.6
					l0.5-0.03c-0.02-0.26-0.23-0.47-0.5-0.47V54.6z M53.03,54.6v-0.5c-0.26,0-0.48,0.21-0.5,0.47L53.03,54.6z M62.51,101.76
					l-0.42,0.27c0.09,0.14,0.25,0.23,0.42,0.23s0.33-0.09,0.42-0.23L62.51,101.76z"/>
			</g>
			<g>
				<defs>
					<rect id="SVGID_00000121986574617616892070000010644956313134428329_" y="0" width="120" height="120"/>
				</defs>
				<clipPath id="SVGID_00000142872214737871293990000014575950529804457095_">
					<use xlink:href="#SVGID_00000121986574617616892070000010644956313134428329_"  style="overflow:visible;"/>
				</clipPath>
				<path style="clip-path:url(#SVGID_00000142872214737871293990000014575950529804457095_);fill:#F4F4F4;" d="M54.25,63.46
					c2.7-8.17,2.08-19.96,2.08-19.96h12.84c0,0-0.95,11.22,1.95,19.96H54.25z"/>
			</g>
			<g>
				<defs>
					<rect id="SVGID_00000046323905446410563620000002273967179874524597_" y="0" width="120" height="120"/>
				</defs>
				<clipPath id="SVGID_00000178192509395897348530000005755370813907661972_">
					<use xlink:href="#SVGID_00000046323905446410563620000002273967179874524597_"  style="overflow:visible;"/>
				</clipPath>
				<path style="clip-path:url(#SVGID_00000178192509395897348530000005755370813907661972_);fill:#050505;" d="M71.12,62.96H54.25
					v1h16.87V62.96z M69.17,43.51c-0.5-0.04-0.5-0.04-0.5-0.04l0,0l0,0c0,0,0,0,0,0.01s0,0.01,0,0.03s0,0.06-0.01,0.1
					c-0.01,0.09-0.02,0.21-0.03,0.38c-0.02,0.33-0.05,0.8-0.07,1.4c-0.04,1.2-0.07,2.88-0.01,4.85c0.13,3.92,0.62,8.96,2.09,13.4
					l0.95-0.31c-1.43-4.3-1.91-9.24-2.04-13.11c-0.06-1.93-0.03-3.6,0.01-4.78c0.02-0.59,0.05-1.06,0.07-1.38
					c0.01-0.16,0.02-0.28,0.02-0.37c0-0.04,0.01-0.07,0.01-0.09c0-0.01,0-0.02,0-0.02s0,0,0-0.01l0,0l0,0
					C69.67,43.55,69.67,43.55,69.17,43.51z M56.33,44.01h12.84v-1H56.33V44.01z M54.73,63.62c1.37-4.15,1.89-9.19,2.08-13.18
					c0.09-2,0.1-3.73,0.08-4.97c-0.01-0.62-0.02-1.12-0.03-1.46c-0.01-0.17-0.01-0.3-0.02-0.39c0-0.04,0-0.08,0-0.1
					c0-0.01,0-0.02,0-0.03v-0.01l0,0l0,0c0,0,0,0-0.5,0.03s-0.5,0.03-0.5,0.03l0,0l0,0c0,0,0,0,0,0.01s0,0.01,0,0.02
					c0,0.02,0,0.05,0,0.1c0,0.09,0.01,0.22,0.01,0.38c0.01,0.33,0.02,0.82,0.03,1.44c0.02,1.22,0.01,2.94-0.08,4.91
					c-0.18,3.95-0.7,8.89-2.03,12.91L54.73,63.62z M71.12,63.46v0.5c0.16,0,0.31-0.08,0.41-0.21c0.09-0.13,0.12-0.3,0.07-0.45
					L71.12,63.46z M69.17,43.51l0.5,0.04c0.01-0.14-0.04-0.28-0.13-0.38c-0.09-0.1-0.23-0.16-0.37-0.16V43.51z M56.33,43.51v-0.5
					c-0.14,0-0.27,0.06-0.36,0.16s-0.14,0.23-0.14,0.37L56.33,43.51z M54.25,63.46l-0.47-0.16c-0.05,0.15-0.02,0.32,0.07,0.45
					s0.24,0.21,0.41,0.21L54.25,63.46L54.25,63.46z"/>
			</g>
			<g>
				<defs>
					<rect id="SVGID_00000025407175718441385640000013572920475793934771_" y="0" width="120" height="120"/>
				</defs>
				<clipPath id="SVGID_00000065769154778076504370000015789612752849137083_">
					<use xlink:href="#SVGID_00000025407175718441385640000013572920475793934771_"  style="overflow:visible;"/>
				</clipPath>
				<polygon style="clip-path:url(#SVGID_00000065769154778076504370000015789612752849137083_);fill:#80ABFF;" points="60.65,68.8 
					64.32,68.8 65.9,74.47 67.35,117.05 62.43,124.01 57.69,117.05 59.14,74.47 				"/>
			</g>
			<g>
				<defs>
					<rect id="SVGID_00000178895904704892508480000018244629201888337803_" y="0" width="120" height="120"/>
				</defs>
				<clipPath id="SVGID_00000120536424323398270630000017276778067074163114_">
					<use xlink:href="#SVGID_00000178895904704892508480000018244629201888337803_"  style="overflow:visible;"/>
				</clipPath>
				<path style="clip-path:url(#SVGID_00000120536424323398270630000017276778067074163114_);fill:#80ABFF;" d="M58.2,63.62
					c-0.03-1.92,2.61-2.04,4.4-2.06c1.79-0.01,4.49,0.04,4.5,1.96c0.03,1.92-1.96,6.01-4.45,6.01c-2.5,0-4.45-3.97-4.46-5.89
					L58.2,63.62L58.2,63.62z"/>
			</g>
			<g>
				<defs>
					<rect id="SVGID_00000013913736050041368100000012130283990091136686_" y="0" width="120" height="120"/>
				</defs>
				<clipPath id="SVGID_00000139977541083345137030000003223960848474384025_">
					<use xlink:href="#SVGID_00000013913736050041368100000012130283990091136686_"  style="overflow:visible;"/>
				</clipPath>
				<path style="clip-path:url(#SVGID_00000139977541083345137030000003223960848474384025_);fill:#F4F4F4;" d="M37.53,102.8
					L36.2,62.2c0,0,16.77-8.13,16.84-6.92c0.32,5.4-2.85,6.28,9.74,31.02c12.49-22.84,9.14-25.64,9.45-31.05
					c0.07-1.21,17.28,6.96,17.28,6.96l-1.48,40.58l1.48,22.27l-1.48,5.91l-50.4,0.06l-1.43-7.41L37.53,102.8
					C37.53,102.8,37.53,102.8,37.53,102.8z"/>
			</g>
			<g>
				<defs>
					<rect id="SVGID_00000157273209089280023190000000702668919490541971_" y="0" width="120" height="120"/>
				</defs>
				<clipPath id="SVGID_00000131367378384046335810000015332422461528983466_">
					<use xlink:href="#SVGID_00000157273209089280023190000000702668919490541971_"  style="overflow:visible;"/>
				</clipPath>
				<g style="clip-path:url(#SVGID_00000131367378384046335810000015332422461528983466_);">
					<g>
						<defs>
							<path id="SVGID_00000018924359962973710090000017133371563350968721_" d="M37.53,102.8L36.2,62.2c0,0,16.77-8.13,16.84-6.92
								c0.32,5.4-2.85,6.28,9.74,31.02c12.49-22.84,9.14-25.64,9.45-31.05c0.07-1.21,17.28,6.96,17.28,6.96l-1.48,40.58l1.48,22.27
								l-1.48,5.91l-50.4,0.06l-1.43-7.41L37.53,102.8C37.53,102.8,37.53,102.8,37.53,102.8z"/>
						</defs>
						<clipPath id="SVGID_00000041280639914894981060000008979723559371623824_">
							<use xlink:href="#SVGID_00000018924359962973710090000017133371563350968721_"  style="overflow:visible;"/>
						</clipPath>
						<path style="clip-path:url(#SVGID_00000041280639914894981060000008979723559371623824_);fill:#050505;" d="M36.53,102.78
							v0.01h2v-0.01H36.53z M37.19,123.67l1.33-20.82l-2-0.13l-1.33,20.82L37.19,123.67z M38.61,130.82l-1.43-7.41l-1.96,0.38
							l1.43,7.41L38.61,130.82z M88.03,129.95l-50.4,0.06v2l50.4-0.06V129.95z M88.53,124.8l-1.48,5.91L89,131.2l1.48-5.91
							L88.53,124.8z M87.03,102.85l1.48,22.27l2-0.13l-1.48-22.27L87.03,102.85z M88.5,62.17l-1.48,40.58l2,0.07l1.48-40.58
							L88.5,62.17z M73.22,55.3c-0.02,0.33-0.22,0.59-0.44,0.72c-0.09,0.05-0.17,0.08-0.21,0.09c-0.05,0.01-0.08,0.01-0.09,0.01
							c-0.01,0,0.07,0,0.29,0.05c0.41,0.09,1.04,0.29,1.84,0.59c1.59,0.58,3.73,1.48,5.88,2.43c2.15,0.94,4.29,1.92,5.91,2.67
							c0.81,0.37,1.48,0.69,1.95,0.91c0.23,0.11,0.42,0.2,0.54,0.26c0.06,0.03,0.11,0.05,0.14,0.07c0.02,0.01,0.03,0.01,0.04,0.02
							h0.01l0,0l0,0c0,0,0,0,0.43-0.9s0.43-0.9,0.43-0.9l0,0l0,0h-0.01c-0.01,0-0.02-0.01-0.04-0.02c-0.03-0.02-0.08-0.04-0.14-0.07
							c-0.13-0.06-0.31-0.15-0.55-0.26c-0.47-0.22-1.15-0.54-1.96-0.91c-1.62-0.75-3.78-1.74-5.94-2.68
							c-2.16-0.95-4.34-1.87-5.99-2.47c-0.82-0.3-1.55-0.54-2.09-0.66c-0.26-0.06-0.56-0.11-0.83-0.1c-0.13,0.01-0.36,0.03-0.6,0.17
							c-0.29,0.17-0.53,0.49-0.55,0.89L73.22,55.3z M63.65,86.77c6.26-11.45,8.61-17.98,9.4-22.37c0.4-2.21,0.4-3.86,0.32-5.3
							c-0.08-1.46-0.22-2.53-0.15-3.8l-2-0.12c-0.08,1.43,0.08,2.74,0.15,4.03c0.07,1.32,0.07,2.81-0.29,4.83
							c-0.73,4.07-2.96,10.37-9.18,21.76L63.65,86.77z M52.04,55.33c0.07,1.28-0.06,2.22-0.12,3.54c-0.06,1.3-0.03,2.77,0.4,4.86
							c0.85,4.13,3.26,10.63,9.56,23.01l1.78-0.91c-6.29-12.36-8.59-18.66-9.38-22.51c-0.39-1.9-0.41-3.2-0.36-4.36
							c0.05-1.14,0.2-2.33,0.12-3.75L52.04,55.33z M36.2,62.19c0.44,0.9,0.44,0.9,0.44,0.9l0,0l0,0c0,0,0,0,0.01,0
							s0.02-0.01,0.04-0.02c0.03-0.02,0.08-0.04,0.14-0.07c0.12-0.06,0.3-0.15,0.53-0.25c0.46-0.22,1.11-0.53,1.89-0.9
							c1.57-0.74,3.66-1.72,5.75-2.65c2.1-0.94,4.18-1.83,5.73-2.41c0.78-0.29,1.39-0.49,1.79-0.58c0.21-0.05,0.28-0.05,0.26-0.05
							c0,0-0.14,0-0.31-0.1c-0.23-0.14-0.41-0.39-0.43-0.71l2-0.12c-0.02-0.4-0.25-0.71-0.54-0.89c-0.24-0.14-0.47-0.17-0.6-0.18
							c-0.27-0.02-0.57,0.04-0.82,0.09c-0.53,0.12-1.25,0.36-2.04,0.66c-1.61,0.6-3.74,1.52-5.84,2.46
							c-2.11,0.94-4.21,1.93-5.79,2.67c-0.79,0.37-1.45,0.69-1.91,0.91c-0.23,0.11-0.41,0.2-0.53,0.26
							c-0.06,0.03-0.11,0.05-0.14,0.07c-0.02,0.01-0.03,0.01-0.04,0.02h-0.01l0,0l0,0C35.76,61.29,35.76,61.29,36.2,62.19z
							 M38.53,102.76l-1.33-40.6l-2,0.07l1.33,40.6L38.53,102.76z M37.53,102.78h1l-2-0.06L37.53,102.78z M36.2,123.6l-1-0.06
							l-0.01,0.13l0.02,0.13L36.2,123.6z M37.63,131.01l-0.98,0.19l0.16,0.81h0.83L37.63,131.01z M88.03,130.95v1h0.78L89,131.2
							L88.03,130.95z M89.5,125.05l0.97,0.24l0.04-0.15l-0.01-0.16L89.5,125.05z M88.03,102.78l-1-0.04v0.05v0.05L88.03,102.78z
							 M89.5,62.21l1,0.04l0.02-0.66l-0.59-0.28L89.5,62.21z M72.22,55.25l-1-0.06l0,0L72.22,55.25z M62.77,86.29l-0.89,0.45
							l0.86,1.69l0.91-1.66L62.77,86.29z M53.03,55.27l1-0.06l0,0L53.03,55.27z M36.2,62.19l-0.44-0.9l-0.58,0.28l0.02,0.65
							L36.2,62.19z M37.53,102.8l-1,0.03l2-0.03H37.53z"/>
					</g>
				</g>
			</g>
			<g>
				<defs>
					<rect id="SVGID_00000065754474099580361110000000943441661809205676_" y="0" width="120" height="120"/>
				</defs>
				<clipPath id="SVGID_00000155858476061034794710000006041799536048939431_">
					<use xlink:href="#SVGID_00000065754474099580361110000000943441661809205676_"  style="overflow:visible;"/>
				</clipPath>
				<path style="clip-path:url(#SVGID_00000155858476061034794710000006041799536048939431_);fill:#050505;" d="M62.77,86.31
					c-0.5-0.01-0.5-0.01-0.5-0.01l0,0l0,0v0.01c0,0.01,0,0.03,0,0.05c0,0.05,0,0.12,0,0.21c0,0.18-0.01,0.45-0.01,0.8
					c-0.01,0.7-0.03,1.72-0.05,3.01c-0.04,2.57-0.08,6.21-0.11,10.45c-0.06,8.48-0.06,19.37,0.17,29.05l1-0.02
					c-0.23-9.66-0.23-20.55-0.17-29.02c0.03-4.24,0.07-7.87,0.11-10.44c0.02-1.29,0.03-2.31,0.05-3.01c0.01-0.35,0.01-0.62,0.01-0.8
					c0-0.09,0-0.16,0-0.21c0-0.02,0-0.04,0-0.05s0-0.01,0-0.01l0,0l0,0C63.27,86.32,63.27,86.32,62.77,86.31z M62.27,129.88
					c0.01,0.28,0.24,0.49,0.51,0.49c0.28-0.01,0.49-0.24,0.49-0.51L62.27,129.88z M63.27,86.32c0.01-0.28-0.21-0.5-0.49-0.51
					c-0.28-0.01-0.5,0.21-0.51,0.49L63.27,86.32z"/>
			</g>
			<g>
				<defs>
					<rect id="SVGID_00000064349303913848560260000003870153681841141166_" y="0" width="120" height="120"/>
				</defs>
				<clipPath id="SVGID_00000180355060492362482010000014744144344918430342_">
					<use xlink:href="#SVGID_00000064349303913848560260000003870153681841141166_"  style="overflow:visible;"/>
				</clipPath>
				<path style="clip-path:url(#SVGID_00000180355060492362482010000014744144344918430342_);fill:#050505;" d="M52.89,81.05v-1.03
					h-1v1.03H52.89z M46.82,83.02l5.69-1.49l-0.25-0.97l-5.69,1.49L46.82,83.02z M41.33,81.38l5.22,1.63l0.3-0.95l-5.22-1.63
					L41.33,81.38z M40.97,78.74v2.17h1v-2.17H40.97z M52.39,78.24H41.47v1h10.91L52.39,78.24L52.39,78.24z M52.89,80.03
					c0-0.28-0.22-0.5-0.5-0.5s-0.5,0.22-0.5,0.5H52.89z M52.39,81.05l0.13,0.48c0.22-0.06,0.37-0.26,0.37-0.48H52.39z M46.69,82.54
					l-0.15,0.48c0.09,0.03,0.18,0.03,0.28,0.01L46.69,82.54z M41.47,80.91h-0.5c0,0.22,0.14,0.41,0.35,0.48L41.47,80.91z
					 M41.47,78.74v-0.5c-0.28,0-0.5,0.22-0.5,0.5H41.47z M52.39,79.24c0.28,0,0.5-0.22,0.5-0.5s-0.22-0.5-0.5-0.5V79.24z"/>
			</g>
			<g>
				<defs>
					<rect id="SVGID_00000070811566778593135660000008953340508262079112_" y="0" width="120" height="120"/>
				</defs>
				<clipPath id="SVGID_00000155146588881378279940000006280575712111500690_">
					<use xlink:href="#SVGID_00000070811566778593135660000008953340508262079112_"  style="overflow:visible;"/>
				</clipPath>
				<path style="clip-path:url(#SVGID_00000155146588881378279940000006280575712111500690_);fill:#050505;" d="M42.73,89.68
					l-0.75-8.82l-1,0.08l0.75,8.82L42.73,89.68z M43.27,90.19c-0.28,0-0.51-0.21-0.53-0.51l-1,0.08c0.06,0.8,0.72,1.43,1.53,1.43
					V90.19z M50.98,90.19h-7.72v1h7.72V90.19z M51.53,89.69c-0.01,0.28-0.25,0.51-0.55,0.51v1c0.82,0,1.5-0.64,1.55-1.46
					L51.53,89.69z M51.89,81.33l-0.36,8.36l1,0.04l0.36-8.36L51.89,81.33z M41.99,80.86c-0.02-0.28-0.27-0.48-0.54-0.46
					c-0.28,0.02-0.48,0.27-0.46,0.54L41.99,80.86z M42.23,89.73l0.5-0.04l0,0L42.23,89.73z M52.03,89.71l0.5,0.03l0,0L52.03,89.71z
					 M52.89,81.37c0.01-0.28-0.2-0.51-0.48-0.52c-0.28-0.01-0.51,0.2-0.52,0.48L52.89,81.37z"/>
			</g>
			<g>
				<defs>
					<rect id="SVGID_00000063606318647848715180000013048878393223767983_" y="0" width="120" height="120"/>
				</defs>
				<clipPath id="SVGID_00000103246282043820593500000005049986477169584263_">
					<use xlink:href="#SVGID_00000063606318647848715180000013048878393223767983_"  style="overflow:visible;"/>
				</clipPath>
				<path style="clip-path:url(#SVGID_00000103246282043820593500000005049986477169584263_);fill:#050505;" d="M84.48,81.05v-1.03
					h-1v1.03H84.48z M78.65,83.02l5.46-1.49l-0.26-0.96l-5.46,1.49L78.65,83.02z M72.93,81.39l5.45,1.63l0.29-0.96l-5.45-1.63
					L72.93,81.39z M72.57,78.74v2.17h1v-2.17H72.57z M83.98,78.24H73.07v1h10.91C83.98,79.24,83.98,78.24,83.98,78.24z M84.48,80.03
					c0-0.28-0.22-0.5-0.5-0.5s-0.5,0.22-0.5,0.5H84.48z M83.98,81.05l0.13,0.48c0.22-0.06,0.37-0.26,0.37-0.48H83.98z M78.52,82.54
					l-0.14,0.48c0.09,0.03,0.18,0.03,0.27,0L78.52,82.54z M73.07,80.91h-0.5c0,0.22,0.14,0.42,0.36,0.48L73.07,80.91z M73.07,78.74
					v-0.5c-0.28,0-0.5,0.22-0.5,0.5H73.07z M83.98,79.24c0.28,0,0.5-0.22,0.5-0.5s-0.22-0.5-0.5-0.5V79.24z"/>
			</g>
			<g>
				<defs>
					<rect id="SVGID_00000009588089726988025990000006167939257336309129_" y="0" width="120" height="120"/>
				</defs>
				<clipPath id="SVGID_00000108269374179788993610000013931661547004538251_">
					<use xlink:href="#SVGID_00000009588089726988025990000006167939257336309129_"  style="overflow:visible;"/>
				</clipPath>
				<path style="clip-path:url(#SVGID_00000108269374179788993610000013931661547004538251_);fill:#050505;" d="M74.33,89.68
					l-0.75-8.82l-1,0.08l0.75,8.82L74.33,89.68z M74.86,90.19c-0.28,0-0.51-0.21-0.53-0.51l-1,0.08c0.06,0.8,0.72,1.43,1.53,1.43
					V90.19z M82.58,90.19h-7.72v1h7.72V90.19z M83.12,89.69c-0.01,0.28-0.25,0.51-0.55,0.51v1c0.82,0,1.5-0.64,1.55-1.46
					L83.12,89.69z M83.48,81.33l-0.36,8.36l1,0.04l0.36-8.36L83.48,81.33z M73.58,80.86c-0.02-0.28-0.27-0.48-0.54-0.46
					c-0.28,0.02-0.48,0.27-0.46,0.54L73.58,80.86z M73.83,89.73l0.5-0.04l0,0L73.83,89.73z M83.62,89.71l0.5,0.03l0,0L83.62,89.71z
					 M84.48,81.37c0.01-0.28-0.2-0.51-0.48-0.52c-0.28-0.01-0.51,0.2-0.52,0.48L84.48,81.37z"/>
			</g>
			<g>
				<defs>
					<rect id="SVGID_00000072985082666843420730000017622659099315504296_" y="0" width="120" height="120"/>
				</defs>
				<clipPath id="SVGID_00000038403041828838176910000016666429126837650616_">
					<use xlink:href="#SVGID_00000072985082666843420730000017622659099315504296_"  style="overflow:visible;"/>
				</clipPath>
				<path style="clip-path:url(#SVGID_00000038403041828838176910000016666429126837650616_);fill:#F4F4F4;" d="M71.81,57.23
					c0.06-0.17-2.47-4.42-2.44-4.14c0.24,2.28-0.95,4.36-6.35,8.03c-0.42,0.29,1.71,1.57,4.09,4.29c1.76,2.01,3.04,5.46,3.04,5.46
					C73.14,63.46,71.81,57.23,71.81,57.23z"/>
			</g>
			<g>
				<defs>
					<rect id="SVGID_00000003095054391642135430000006833117731952392615_" y="0" width="120" height="120"/>
				</defs>
				<clipPath id="SVGID_00000074443095033921016840000009181460780541993116_">
					<use xlink:href="#SVGID_00000003095054391642135430000006833117731952392615_"  style="overflow:visible;"/>
				</clipPath>
				<path style="clip-path:url(#SVGID_00000074443095033921016840000009181460780541993116_);fill:#050505;" d="M70.61,71.04
					c1.53-3.77,1.95-7.24,1.99-9.77c0.02-1.27-0.05-2.3-0.13-3.02c-0.04-0.36-0.08-0.64-0.11-0.83c-0.02-0.1-0.03-0.17-0.04-0.22
					c0-0.03-0.01-0.05-0.01-0.06c0-0.01,0-0.01,0-0.02l0,0l0,0l0,0c0,0,0,0-0.49,0.1s-0.49,0.1-0.49,0.1l0,0l0,0l0,0v0.01
					c0,0.01,0.01,0.03,0.01,0.05c0.01,0.04,0.02,0.11,0.04,0.2c0.03,0.18,0.07,0.44,0.11,0.78c0.08,0.68,0.15,1.67,0.13,2.89
					c-0.04,2.44-0.45,5.78-1.92,9.41L70.61,71.04z M66.73,65.73c0.84,0.95,1.57,2.27,2.11,3.37c0.26,0.55,0.48,1.03,0.62,1.38
					c0.07,0.17,0.13,0.31,0.16,0.41c0.02,0.05,0.03,0.08,0.04,0.11c0,0.01,0.01,0.02,0.01,0.03v0.01l0,0l0,0l0,0c0,0,0,0,0.47-0.17
					s0.47-0.17,0.47-0.17l0,0l0,0l0,0c0,0,0,0,0-0.01s-0.01-0.02-0.01-0.03c-0.01-0.03-0.03-0.07-0.05-0.12
					c-0.04-0.1-0.1-0.25-0.17-0.43c-0.15-0.36-0.37-0.86-0.64-1.43c-0.55-1.13-1.33-2.54-2.26-3.59L66.73,65.73z M62.73,60.7
					c-0.11,0.07-0.21,0.19-0.25,0.35c-0.04,0.15-0.01,0.28,0.02,0.37c0.06,0.17,0.17,0.32,0.27,0.42c0.2,0.23,0.53,0.53,0.91,0.87
					c0.78,0.7,1.88,1.68,3.05,3.01l0.75-0.66c-1.21-1.38-2.36-2.4-3.13-3.1c-0.4-0.36-0.67-0.61-0.82-0.78
					c-0.08-0.1-0.08-0.12-0.07-0.08c0.01,0.02,0.03,0.1,0,0.19c-0.03,0.11-0.09,0.18-0.15,0.22L62.73,60.7z M68.87,53.13
					c0.11,1.01-0.09,1.98-0.96,3.14c-0.89,1.19-2.48,2.59-5.18,4.42l0.56,0.83c2.72-1.84,4.42-3.32,5.42-4.65
					c1.01-1.36,1.29-2.57,1.15-3.85L68.87,53.13z M72.28,57.38c0.03-0.09,0.03-0.17,0.02-0.21c0-0.04-0.01-0.07-0.01-0.09
					c-0.01-0.04-0.02-0.08-0.04-0.11c-0.02-0.06-0.05-0.13-0.09-0.2c-0.07-0.14-0.17-0.33-0.28-0.54c-0.23-0.42-0.54-0.97-0.86-1.5
					c-0.31-0.53-0.63-1.04-0.86-1.41c-0.12-0.18-0.22-0.34-0.3-0.44c-0.03-0.04-0.08-0.11-0.13-0.16c-0.01-0.01-0.04-0.04-0.08-0.07
					c-0.02-0.01-0.13-0.09-0.28-0.08c-0.09,0-0.2,0.03-0.3,0.1c-0.1,0.07-0.14,0.16-0.17,0.23c-0.04,0.11-0.03,0.21-0.03,0.23
					l0.99-0.1c0,0.02,0.01,0.11-0.03,0.22c-0.02,0.06-0.07,0.15-0.16,0.22c-0.1,0.07-0.21,0.1-0.3,0.1c-0.15,0-0.25-0.07-0.27-0.08
					c-0.03-0.02-0.05-0.04-0.06-0.05c-0.02-0.02-0.02-0.02,0.02,0.03c0.06,0.08,0.14,0.21,0.26,0.39c0.23,0.36,0.54,0.86,0.84,1.38
					c0.31,0.52,0.61,1.05,0.84,1.47c0.11,0.21,0.2,0.38,0.26,0.5c0.03,0.06,0.05,0.1,0.05,0.12c0,0.01,0,0.01,0-0.01
					c0-0.01-0.01-0.03-0.01-0.06c0-0.02-0.01-0.1,0.02-0.18L72.28,57.38z M70.14,70.86l-0.47,0.17c0.07,0.19,0.25,0.32,0.46,0.33
					c0.21,0,0.39-0.12,0.47-0.31L70.14,70.86z M67.1,65.4l-0.38,0.33l0,0L67.1,65.4z M63.02,61.11l-0.28-0.41l0,0L63.02,61.11z
					 M69.37,53.08l-0.5,0.05l0,0L69.37,53.08z M71.81,57.23l-0.47-0.16c-0.03,0.08-0.03,0.17-0.01,0.26L71.81,57.23z"/>
			</g>
			<g>
				<defs>
					<rect id="SVGID_00000123400861943388337330000002577870842319329454_" y="0" width="120" height="120"/>
				</defs>
				<clipPath id="SVGID_00000065793866800581637110000003648917012513234077_">
					<use xlink:href="#SVGID_00000123400861943388337330000002577870842319329454_"  style="overflow:visible;"/>
				</clipPath>
				<path style="clip-path:url(#SVGID_00000065793866800581637110000003648917012513234077_);fill:#F4F4F4;" d="M53.16,56.16
					c-0.06-0.17,3.03-3.49,3-3.21c-0.24,2.28,1.12,4.71,6.54,8.37c0.39,0.26-2.84,1.55-4.63,4.19c-1.63,2.4-2.9,5.34-2.9,5.34
					C52.24,63.26,53.16,56.16,53.16,56.16z"/>
			</g>
			<g>
				<defs>
					<rect id="SVGID_00000087403959627956294460000005590152765568448157_" y="0" width="120" height="120"/>
				</defs>
				<clipPath id="SVGID_00000034806498718335278650000002082734225309183152_">
					<use xlink:href="#SVGID_00000087403959627956294460000005590152765568448157_"  style="overflow:visible;"/>
				</clipPath>
				<path style="clip-path:url(#SVGID_00000034806498718335278650000002082734225309183152_);fill:#050505;" d="M55.64,70.68
					c-1.44-3.73-1.93-7.35-2.07-10.04c-0.07-1.34-0.04-2.45,0-3.22c0.02-0.39,0.04-0.69,0.06-0.89c0.01-0.1,0.02-0.18,0.02-0.23
					c0-0.03,0.01-0.04,0.01-0.06c0-0.01,0-0.01,0-0.01l0,0l0,0l0,0c0,0,0,0-0.5-0.06s-0.5-0.06-0.5-0.06l0,0l0,0l0,0
					c0,0,0,0.01,0,0.02c0,0.02,0,0.04-0.01,0.07c-0.01,0.06-0.02,0.14-0.03,0.25c-0.02,0.22-0.04,0.53-0.07,0.93
					c-0.04,0.8-0.06,1.94,0,3.32c0.14,2.76,0.65,6.49,2.13,10.35L55.64,70.68z M57.65,65.23c-0.84,1.22-1.57,2.58-2.1,3.63
					c-0.26,0.52-0.47,0.97-0.62,1.29c-0.07,0.16-0.13,0.29-0.17,0.37c-0.02,0.04-0.03,0.08-0.04,0.1c-0.01,0.01-0.01,0.02-0.01,0.03
					v0.01l0,0l0,0l0,0c0,0,0,0,0.46,0.2s0.46,0.2,0.46,0.2l0,0l0,0l0,0c0,0,0,0,0-0.01s0.01-0.01,0.01-0.02
					c0.01-0.02,0.02-0.05,0.04-0.09c0.04-0.08,0.09-0.21,0.16-0.36c0.14-0.31,0.35-0.75,0.61-1.26c0.52-1.03,1.23-2.34,2.03-3.51
					L57.65,65.23z M62.42,61.74c-0.04-0.03-0.1-0.08-0.14-0.16c-0.04-0.09-0.05-0.18-0.05-0.25c0.01-0.07,0.03-0.12,0.04-0.14
					c0.01-0.02,0.02-0.04,0.02-0.04s-0.01,0.01-0.05,0.05c-0.04,0.03-0.09,0.07-0.15,0.11c-0.13,0.09-0.3,0.2-0.5,0.34
					c-0.2,0.13-0.43,0.29-0.68,0.46c-1,0.69-2.31,1.72-3.26,3.12l0.83,0.56c0.84-1.24,2.04-2.18,3.01-2.86
					c0.24-0.17,0.47-0.32,0.67-0.45c0.2-0.13,0.38-0.25,0.53-0.36c0.14-0.1,0.29-0.21,0.39-0.33c0.04-0.05,0.14-0.18,0.16-0.35
					c0.01-0.1,0-0.21-0.06-0.32c-0.05-0.1-0.13-0.17-0.19-0.21L62.42,61.74z M55.66,52.9c-0.28,2.59,1.33,5.17,6.76,8.84l0.56-0.83
					c-5.41-3.66-6.53-5.94-6.32-7.91L55.66,52.9z M53.64,56c0.03,0.1,0.03,0.18,0.02,0.22s-0.02,0.07-0.02,0.08
					c-0.01,0.03-0.02,0.04-0.02,0.04c0.01-0.01,0.02-0.04,0.06-0.08c0.07-0.09,0.18-0.23,0.31-0.39c0.27-0.32,0.65-0.74,1.02-1.14
					c0.38-0.4,0.75-0.79,1.03-1.06c0.14-0.14,0.24-0.23,0.3-0.27c0.04-0.03,0.02-0.01-0.03,0.01c-0.02,0.01-0.05,0.02-0.1,0.03
					s-0.15,0.01-0.26-0.04c-0.31-0.13-0.3-0.44-0.29-0.49l1,0.1c0.01-0.07,0.01-0.39-0.3-0.52c-0.12-0.05-0.22-0.05-0.28-0.04
					c-0.06,0.01-0.1,0.02-0.13,0.04c-0.09,0.04-0.17,0.1-0.21,0.13c-0.1,0.08-0.24,0.2-0.38,0.34c-0.29,0.28-0.68,0.68-1.06,1.09
					s-0.77,0.84-1.06,1.18c-0.14,0.17-0.27,0.32-0.36,0.44c-0.04,0.06-0.09,0.12-0.12,0.18c-0.02,0.03-0.04,0.07-0.06,0.12
					c-0.01,0.03-0.02,0.07-0.03,0.11s-0.01,0.13,0.02,0.24L53.64,56z M55.17,70.86l-0.47,0.18c0.07,0.19,0.25,0.32,0.46,0.32
					c0.2,0,0.39-0.12,0.47-0.3L55.17,70.86z M58.07,65.52l0.41,0.28l0,0L58.07,65.52z M62.7,61.33l-0.28,0.41l0,0L62.7,61.33z
					 M56.16,52.95l0.5,0.05l0,0L56.16,52.95z M53.16,56.16l0.5,0.06c0.01-0.07,0-0.15-0.02-0.22L53.16,56.16z"/>
			</g>
			<g>
				<defs>
					<rect id="SVGID_00000010997430841418038980000011510249634222167180_" y="0" width="120" height="120"/>
				</defs>
				<clipPath id="SVGID_00000064337389017360676710000012615113324484985771_">
					<use xlink:href="#SVGID_00000010997430841418038980000011510249634222167180_"  style="overflow:visible;"/>
				</clipPath>
				<path style="clip-path:url(#SVGID_00000064337389017360676710000012615113324484985771_);fill:#F4F4F4;" d="M55.96,53.01
					c0,0-2.48-1-4.62,2.12c0,0-6.34,8.07-6.02,15.72c0,0,12.59,5.36,14.21,9.97c0,0-9.97-19.8-3.57-27.8V53.01z"/>
			</g>
			<g>
				<defs>
					<rect id="SVGID_00000134952698620848119630000006477538092116844990_" y="0" width="120" height="120"/>
				</defs>
				<clipPath id="SVGID_00000019654359339838133750000011584842909463122607_">
					<use xlink:href="#SVGID_00000134952698620848119630000006477538092116844990_"  style="overflow:visible;"/>
				</clipPath>
				<path style="clip-path:url(#SVGID_00000019654359339838133750000011584842909463122607_);fill:#050505;" d="M56.46,53.02
					L56.46,53.02l-1-0.01v0.01H56.46z M59.53,80.82c0.45-0.22,0.45-0.22,0.45-0.22l0,0l0,0c0,0,0-0.01-0.01-0.01
					c0-0.01-0.01-0.02-0.02-0.04c-0.02-0.04-0.05-0.09-0.08-0.16c-0.07-0.14-0.17-0.36-0.3-0.63c-0.26-0.55-0.62-1.35-1.03-2.33
					c-0.83-1.97-1.87-4.67-2.71-7.62c-0.84-2.95-1.47-6.13-1.51-9.05c-0.03-2.93,0.53-5.53,2.03-7.4l-0.78-0.62
					c-1.7,2.13-2.29,5-2.25,8.04s0.69,6.31,1.55,9.31c0.85,3,1.91,5.74,2.75,7.74c0.42,1,0.79,1.81,1.05,2.37
					c0.13,0.28,0.24,0.5,0.31,0.65c0.04,0.07,0.06,0.13,0.08,0.17c0.01,0.02,0.02,0.03,0.02,0.04s0,0.01,0.01,0.01l0,0l0,0
					C59.08,81.05,59.08,81.05,59.53,80.82z M45.32,70.86c-0.2,0.46-0.2,0.46-0.2,0.46l0,0l0,0c0,0,0,0,0.01,0s0.01,0.01,0.03,0.01
					c0.02,0.01,0.06,0.03,0.1,0.04c0.09,0.04,0.23,0.1,0.4,0.18c0.34,0.15,0.84,0.38,1.44,0.67c1.2,0.57,2.81,1.38,4.47,2.33
					c1.66,0.95,3.36,2.04,4.74,3.16c1.39,1.14,2.39,2.26,2.75,3.28L60,80.66c-0.45-1.29-1.64-2.56-3.06-3.72
					c-1.44-1.17-3.19-2.29-4.88-3.26c-1.69-0.97-3.33-1.79-4.54-2.36c-0.61-0.29-1.11-0.52-1.46-0.68
					c-0.18-0.08-0.31-0.14-0.41-0.18c-0.05-0.02-0.08-0.04-0.11-0.05c-0.01-0.01-0.02-0.01-0.03-0.01H45.5l0,0l0,0
					C45.51,70.4,45.51,70.4,45.32,70.86z M51.34,55.13c-0.39-0.31-0.39-0.31-0.39-0.31l0,0l0,0c0,0,0,0,0,0.01
					c0,0-0.01,0.01-0.01,0.02c-0.01,0.02-0.03,0.04-0.06,0.07c-0.05,0.06-0.12,0.16-0.21,0.28c-0.18,0.24-0.43,0.59-0.73,1.04
					c-0.6,0.89-1.39,2.15-2.17,3.66c-1.56,3-3.11,7.03-2.95,10.98l1-0.04c-0.15-3.7,1.31-7.53,2.84-10.48
					c0.76-1.47,1.53-2.7,2.12-3.56c0.29-0.43,0.53-0.77,0.7-1c0.08-0.12,0.15-0.2,0.2-0.26c0.02-0.03,0.04-0.05,0.05-0.07
					c0.01-0.01,0.01-0.01,0.01-0.02l0,0l0,0l0,0C51.73,55.44,51.73,55.44,51.34,55.13z M55.96,53.01c0.19-0.46,0.19-0.46,0.19-0.46
					l0,0l0,0l0,0h-0.01c-0.01,0-0.02-0.01-0.03-0.01c-0.03-0.01-0.06-0.02-0.11-0.03c-0.09-0.03-0.21-0.06-0.37-0.08
					c-0.31-0.05-0.74-0.08-1.25,0c-1.03,0.16-2.3,0.78-3.44,2.44l0.82,0.57c1-1.45,2.03-1.9,2.78-2.02c0.38-0.06,0.7-0.04,0.93,0
					c0.11,0.02,0.2,0.04,0.25,0.06c0.03,0.01,0.05,0.01,0.06,0.02c0.01,0,0.01,0,0.01,0l0,0l0,0l0,0l0,0
					C55.77,53.47,55.77,53.47,55.96,53.01z M55.96,53.02l0.39,0.31c0.07-0.09,0.11-0.2,0.11-0.31H55.96z M59.53,80.82l-0.45,0.22
					c0.12,0.24,0.4,0.34,0.64,0.24s0.36-0.38,0.28-0.63L59.53,80.82z M45.32,70.86l-0.5,0.02c0.01,0.19,0.13,0.36,0.3,0.44
					L45.32,70.86z M51.34,55.13l0.39,0.31c0.01-0.01,0.01-0.02,0.02-0.03L51.34,55.13z M55.96,53.01h0.5c0-0.2-0.12-0.39-0.31-0.46
					L55.96,53.01z"/>
			</g>
			<g>
				<defs>
					<rect id="SVGID_00000036953598140338696520000011581053095788092574_" y="0" width="120" height="120"/>
				</defs>
				<clipPath id="SVGID_00000139983950448810311670000008836502252082734725_">
					<use xlink:href="#SVGID_00000036953598140338696520000011581053095788092574_"  style="overflow:visible;"/>
				</clipPath>
				<path style="clip-path:url(#SVGID_00000139983950448810311670000008836502252082734725_);fill:#F4F4F4;" d="M69.56,53.01
					c0,0,2.48-1,4.62,2.12c0,0,6.34,8.07,6.02,15.72c0,0-12.48,5.36-14.09,9.97c0,0,9.86-19.8,3.45-27.8V53.01z"/>
			</g>
			<g>
				<defs>
					<rect id="SVGID_00000080183231142177168910000005498065452377971072_" y="0" width="120" height="120"/>
				</defs>
				<clipPath id="SVGID_00000093883053227918421820000012476042359366305431_">
					<use xlink:href="#SVGID_00000080183231142177168910000005498065452377971072_"  style="overflow:visible;"/>
				</clipPath>
				<path style="clip-path:url(#SVGID_00000093883053227918421820000012476042359366305431_);fill:#050505;" d="M70.06,53.02
					L70.06,53.02l-1-0.01v0.01H70.06z M66.11,80.82c0.45,0.22,0.45,0.22,0.45,0.22l0,0l0,0c0,0,0-0.01,0.01-0.01
					c0-0.01,0.01-0.02,0.02-0.04c0.02-0.04,0.05-0.1,0.08-0.17c0.07-0.15,0.18-0.37,0.31-0.65c0.26-0.56,0.62-1.37,1.04-2.37
					c0.83-1.99,1.87-4.74,2.71-7.74s1.48-6.27,1.5-9.31s-0.57-5.91-2.28-8.03l-0.78,0.63c1.5,1.87,2.08,4.48,2.06,7.4
					c-0.02,2.92-0.64,6.1-1.47,9.05c-0.82,2.95-1.85,5.65-2.67,7.62c-0.41,0.98-0.77,1.78-1.02,2.33c-0.13,0.28-0.23,0.49-0.3,0.63
					c-0.03,0.07-0.06,0.13-0.08,0.16c-0.01,0.02-0.02,0.03-0.02,0.04v0.01l0,0l0,0C65.66,80.6,65.66,80.6,66.11,80.82z M80.2,70.86
					C80,70.4,80,70.4,80,70.4l0,0l0,0c0,0,0,0-0.01,0s-0.02,0.01-0.03,0.01c-0.02,0.01-0.06,0.03-0.11,0.05
					c-0.09,0.04-0.23,0.1-0.4,0.18c-0.35,0.16-0.84,0.39-1.45,0.68c-1.2,0.58-2.82,1.4-4.5,2.36c-1.67,0.96-3.41,2.08-4.84,3.26
					c-1.41,1.16-2.58,2.43-3.03,3.72l0.94,0.33c0.35-1.02,1.34-2.14,2.72-3.28c1.37-1.13,3.05-2.21,4.7-3.16
					c1.65-0.95,3.24-1.76,4.43-2.33c0.59-0.29,1.08-0.51,1.42-0.67c0.17-0.08,0.3-0.14,0.39-0.18c0.05-0.02,0.08-0.03,0.1-0.04
					c0.01,0,0.02-0.01,0.03-0.01c0,0,0,0,0.01,0l0,0l0,0C80.39,71.32,80.39,71.32,80.2,70.86z M74.17,55.13
					c-0.39,0.31-0.39,0.31-0.39,0.31l0,0l0,0l0,0c0,0,0.01,0.01,0.01,0.02c0.01,0.01,0.03,0.04,0.05,0.07
					c0.04,0.06,0.11,0.15,0.2,0.26c0.17,0.23,0.41,0.57,0.7,1c0.58,0.86,1.35,2.1,2.12,3.56c1.53,2.95,2.99,6.78,2.84,10.48l1,0.04
					c0.16-3.96-1.39-7.98-2.95-10.98c-0.78-1.51-1.58-2.77-2.17-3.66c-0.3-0.44-0.55-0.8-0.73-1.04c-0.09-0.12-0.16-0.21-0.21-0.28
					c-0.02-0.03-0.04-0.06-0.06-0.07c-0.01-0.01-0.01-0.01-0.01-0.02c0,0,0,0,0-0.01l0,0l0,0C74.57,54.82,74.57,54.82,74.17,55.13z
					 M69.56,53.01c0.19,0.46,0.19,0.46,0.19,0.46l0,0l0,0l0,0l0,0c0,0,0,0,0.01,0s0.03-0.01,0.06-0.02
					c0.06-0.02,0.14-0.04,0.25-0.06c0.22-0.04,0.54-0.06,0.93,0c0.74,0.12,1.78,0.57,2.78,2.02l0.82-0.57
					c-1.14-1.67-2.41-2.28-3.44-2.44c-0.51-0.08-0.94-0.05-1.25,0c-0.15,0.03-0.28,0.06-0.37,0.08c-0.04,0.01-0.08,0.02-0.11,0.03
					c-0.01,0-0.02,0.01-0.03,0.01h-0.01l0,0l0,0l0,0C69.37,52.54,69.37,52.54,69.56,53.01z M69.56,53.02h-0.5
					c0,0.11,0.04,0.22,0.11,0.31L69.56,53.02z M66.11,80.82l-0.47-0.16c-0.09,0.25,0.03,0.52,0.28,0.63c0.24,0.1,0.52,0,0.64-0.24
					L66.11,80.82z M80.2,70.86l0.2,0.46c0.18-0.08,0.29-0.25,0.3-0.44L80.2,70.86z M74.17,55.13l-0.41,0.28
					c0.01,0.01,0.01,0.02,0.02,0.03L74.17,55.13z M69.56,53.01l-0.19-0.46c-0.19,0.08-0.31,0.26-0.31,0.46H69.56z"/>
			</g>
			<g>
				<defs>
					<rect id="SVGID_00000031928391767533431920000016917711090510722229_" y="0" width="120" height="120"/>
				</defs>
				<clipPath id="SVGID_00000089571644735639833630000016043992492927215255_">
					<use xlink:href="#SVGID_00000031928391767533431920000016917711090510722229_"  style="overflow:visible;"/>
				</clipPath>
			</g>
			<g>
				<defs>
					<rect id="SVGID_00000143606479784938690600000013341895668955990433_" y="0" width="120" height="120"/>
				</defs>
				<clipPath id="SVGID_00000166656921299640273140000000267858210701018035_">
					<use xlink:href="#SVGID_00000143606479784938690600000013341895668955990433_"  style="overflow:visible;"/>
				</clipPath>
				<path style="clip-path:url(#SVGID_00000166656921299640273140000000267858210701018035_);fill:#F4F4F4;" d="M51.73,34.54
					c0.72,2.17,2.22,5.92,0.23,6.58c-1.98,0.66-4.13-0.16-6.04-4.36c-0.95-2.08-0.14-4.82,1.85-5.49S51.01,32.38,51.73,34.54z"/>
			</g>
			<g>
				<defs>
					<rect id="SVGID_00000018237635675725848320000015510745790082351518_" y="0" width="120" height="120"/>
				</defs>
				<clipPath id="SVGID_00000127751883559735017650000010273850151658274437_">
					<use xlink:href="#SVGID_00000018237635675725848320000015510745790082351518_"  style="overflow:visible;"/>
				</clipPath>
				<path style="clip-path:url(#SVGID_00000127751883559735017650000010273850151658274437_);fill:#050505;" d="M47.93,31.75
					c0.42-0.14,0.77-0.14,1.08-0.07c0.31,0.08,0.6,0.25,0.88,0.52c0.56,0.55,1.02,1.44,1.37,2.49l0.95-0.31
					c-0.37-1.11-0.89-2.18-1.63-2.9c-0.37-0.36-0.81-0.64-1.32-0.77c-0.51-0.13-1.06-0.11-1.64,0.08L47.93,31.75z M46.38,36.56
					c-0.42-0.92-0.45-2-0.16-2.91c0.3-0.92,0.9-1.62,1.71-1.89l-0.32-0.95c-1.18,0.39-1.98,1.39-2.35,2.53s-0.33,2.48,0.2,3.63
					L46.38,36.56z M51.8,40.65c-0.86,0.29-1.74,0.25-2.62-0.3c-0.91-0.57-1.87-1.73-2.8-3.79l-0.91,0.41
					c0.97,2.14,2.04,3.5,3.18,4.22c1.17,0.74,2.36,0.78,3.47,0.41L51.8,40.65z M51.25,34.7c0.37,1.12,0.9,2.54,1.11,3.78
					c0.1,0.62,0.11,1.14,0.01,1.51c-0.09,0.35-0.27,0.56-0.58,0.66l0.32,0.95c0.69-0.23,1.07-0.74,1.23-1.35
					c0.16-0.58,0.12-1.27,0.01-1.94c-0.23-1.34-0.8-2.88-1.15-3.93L51.25,34.7z M45.92,36.77l0.46-0.21l0,0L45.92,36.77z
					 M51.96,41.13l-0.16-0.47l0,0L51.96,41.13z"/>
			</g>
			<g>
				<defs>
					<rect id="SVGID_00000092416404740465390260000013214395377079795879_" y="0" width="120" height="120"/>
				</defs>
				<clipPath id="SVGID_00000181772275736438371200000001039021902223432078_">
					<use xlink:href="#SVGID_00000092416404740465390260000013214395377079795879_"  style="overflow:visible;"/>
				</clipPath>
				<path style="clip-path:url(#SVGID_00000181772275736438371200000001039021902223432078_);fill:#F4F4F4;" d="M74.23,34.54
					c-0.72,2.17-2.22,5.92-0.23,6.58c1.98,0.66,4.13-0.16,6.04-4.36c0.95-2.08,0.14-4.82-1.85-5.49
					C76.2,30.61,74.95,32.38,74.23,34.54z"/>
			</g>
			<g>
				<defs>
					<rect id="SVGID_00000114070360684004702260000017781366524713027472_" y="0" width="120" height="120"/>
				</defs>
				<clipPath id="SVGID_00000178179688499162012960000007858702646787526304_">
					<use xlink:href="#SVGID_00000114070360684004702260000017781366524713027472_"  style="overflow:visible;"/>
				</clipPath>
				<path style="clip-path:url(#SVGID_00000178179688499162012960000007858702646787526304_);fill:#050505;" d="M78.35,30.8
					c-0.58-0.19-1.13-0.22-1.64-0.08c-0.51,0.13-0.95,0.41-1.32,0.77c-0.74,0.71-1.26,1.78-1.63,2.9l0.95,0.31
					c0.35-1.05,0.81-1.95,1.37-2.49c0.28-0.27,0.57-0.44,0.88-0.52s0.66-0.07,1.08,0.07L78.35,30.8z M80.49,36.97
					c0.53-1.16,0.57-2.49,0.2-3.63s-1.16-2.14-2.35-2.53l-0.32,0.95c0.81,0.27,1.41,0.97,1.71,1.89c0.3,0.92,0.26,1.99-0.16,2.91
					L80.49,36.97z M73.84,41.6c1.12,0.37,2.31,0.33,3.47-0.41c1.14-0.72,2.21-2.08,3.18-4.22l-0.91-0.41
					c-0.93,2.06-1.9,3.22-2.8,3.79c-0.88,0.56-1.76,0.59-2.62,0.3L73.84,41.6z M73.76,34.39c-0.35,1.05-0.92,2.59-1.15,3.93
					c-0.11,0.67-0.15,1.35,0.01,1.94c0.16,0.61,0.55,1.12,1.23,1.35l0.32-0.95c-0.31-0.1-0.49-0.31-0.58-0.66
					c-0.1-0.38-0.09-0.89,0.01-1.51c0.21-1.24,0.74-2.67,1.11-3.78L73.76,34.39z M80.04,36.77l-0.46-0.21l0,0L80.04,36.77z
					 M74,41.13l0.16-0.47l0,0L74,41.13z"/>
			</g>
			<g>
				<defs>
					<rect id="SVGID_00000167392174570020451580000005763473906425435014_" y="0" width="120" height="120"/>
				</defs>
				<clipPath id="SVGID_00000132062096190332134360000014322659338444836487_">
					<use xlink:href="#SVGID_00000167392174570020451580000005763473906425435014_"  style="overflow:visible;"/>
				</clipPath>
				<path style="clip-path:url(#SVGID_00000132062096190332134360000014322659338444836487_);fill:#F4F4F4;" d="M77.18,27.51
					c-0.2,11.9-3.66,24.65-14.29,24.65c-11.32,0-14.29-14.4-14.29-24.65s7.28-17.47,14.66-17.47s14.11,7.22,13.93,17.47H77.18z"/>
			</g>
			<g>
				<defs>
					<rect id="SVGID_00000054981821463069318580000007289779643689339283_" y="0" width="120" height="120"/>
				</defs>
				<clipPath id="SVGID_00000166638995385773046860000014496929021930742453_">
					<use xlink:href="#SVGID_00000054981821463069318580000007289779643689339283_"  style="overflow:visible;"/>
				</clipPath>
				<g style="clip-path:url(#SVGID_00000166638995385773046860000014496929021930742453_);">
					<g>
						<defs>
							<path id="SVGID_00000065061409493785028020000016909624649528464795_" d="M77.18,27.51c-0.2,11.9-3.66,24.65-14.29,24.65
								c-11.32,0-14.29-14.4-14.29-24.65s7.28-17.47,14.66-17.47s14.11,7.22,13.93,17.47H77.18z"/>
						</defs>
						<clipPath id="SVGID_00000080912360446780446340000016242841811939368884_">
							<use xlink:href="#SVGID_00000065061409493785028020000016909624649528464795_"  style="overflow:visible;"/>
						</clipPath>
						<path style="clip-path:url(#SVGID_00000080912360446780446340000016242841811939368884_);fill:#050505;" d="M77.19,26.51
							h-0.01v2h0.01V26.51z M63.26,11.04c6.68,0,13.1,6.6,12.93,16.46l2,0.03c0.18-10.65-6.84-18.49-14.93-18.49
							C63.26,9.04,63.26,11.04,63.26,11.04z M49.59,27.51c0-9.81,6.94-16.47,13.66-16.47v-2c-8.05,0-15.66,7.78-15.66,18.47H49.59z
							 M62.89,51.16c-5.11,0-8.41-3.21-10.47-7.88c-2.08-4.7-2.82-10.71-2.82-15.76h-2c0,5.2,0.75,11.51,2.99,16.57
							c2.25,5.08,6.1,9.08,12.3,9.08V51.16z M76.18,27.49c-0.1,5.88-1.01,11.88-3.14,16.37c-2.12,4.45-5.35,7.29-10.15,7.29v2
							c5.82,0,9.64-3.54,11.96-8.43c2.31-4.86,3.23-11.18,3.33-17.2L76.18,27.49z M77.19,27.51v1h0.98l0.02-0.98L77.19,27.51z
							 M77.18,27.51v-1H76.2l-0.02,0.98L77.18,27.51z"/>
					</g>
				</g>
			</g>
			<g>
				<defs>
					<rect id="SVGID_00000100366101965001607720000009008217162122588048_" y="0" width="120" height="120"/>
				</defs>
				<clipPath id="SVGID_00000156559061472380262020000011755558330640376704_">
					<use xlink:href="#SVGID_00000100366101965001607720000009008217162122588048_"  style="overflow:visible;"/>
				</clipPath>
				<path style="clip-path:url(#SVGID_00000156559061472380262020000011755558330640376704_);fill:#050505;" d="M62.52,51.45
					c-5.41-0.37-8.39-4-10.04-7.64c-0.82-1.82-1.3-3.61-1.58-4.96c-0.14-0.67-0.22-1.23-0.27-1.62c-0.03-0.19-0.04-0.35-0.05-0.45
					c-0.01-0.05-0.01-0.09-0.01-0.11c0-0.01,0-0.02,0-0.03v-0.01l0,0l0,0c0,0,0,0-0.5,0.04s-0.5,0.04-0.5,0.04l0,0l0,0v0.01
					c0,0.01,0,0.02,0,0.03c0,0.03,0.01,0.07,0.01,0.13c0.01,0.11,0.03,0.27,0.06,0.48c0.05,0.41,0.14,0.99,0.28,1.69
					c0.28,1.4,0.78,3.27,1.65,5.18c1.73,3.81,4.95,7.82,10.89,8.22L62.52,51.45z M50.56,36.64c-0.02-0.28-0.26-0.48-0.54-0.46
					c-0.28,0.02-0.48,0.26-0.46,0.54L50.56,36.64z M62.45,52.45c0.28,0.02,0.51-0.19,0.53-0.46c0.02-0.28-0.19-0.51-0.46-0.53
					L62.45,52.45z"/>
			</g>
			<g>
				<defs>
					<rect id="SVGID_00000155842486043352233570000010864888772298333108_" y="0" width="120" height="120"/>
				</defs>
				<clipPath id="SVGID_00000108309862368719983930000015130794496203830455_">
					<use xlink:href="#SVGID_00000155842486043352233570000010864888772298333108_"  style="overflow:visible;"/>
				</clipPath>
				<path style="clip-path:url(#SVGID_00000108309862368719983930000015130794496203830455_);fill:#050505;" d="M75.94,36.53
					c-0.5-0.03-0.5-0.03-0.5-0.03l0,0l0,0c0,0,0,0,0,0.01s0,0.02,0,0.03c0,0.03,0,0.06-0.01,0.12c-0.01,0.1-0.02,0.26-0.05,0.45
					c-0.05,0.39-0.12,0.96-0.25,1.63c-0.26,1.36-0.71,3.18-1.51,5.01c-1.6,3.67-4.54,7.34-9.95,7.72l0.07,1
					c5.94-0.42,9.12-4.47,10.79-8.31c0.84-1.92,1.31-3.82,1.58-5.23c0.13-0.71,0.21-1.29,0.26-1.7c0.02-0.21,0.04-0.37,0.05-0.48
					c0-0.06,0.01-0.1,0.01-0.13c0-0.01,0-0.03,0-0.03v-0.01l0,0l0,0C76.44,36.56,76.44,36.56,75.94,36.53z M63.67,51.47
					c-0.28,0.02-0.48,0.26-0.46,0.53c0.02,0.28,0.26,0.48,0.53,0.46L63.67,51.47z M76.44,36.56c0.02-0.28-0.19-0.51-0.47-0.53
					s-0.51,0.19-0.53,0.47L76.44,36.56z"/>
			</g>
			<g>
				<defs>
					<rect id="SVGID_00000057140696465947740060000002496115705174164389_" y="0" width="120" height="120"/>
				</defs>
				<clipPath id="SVGID_00000054948588389078995610000015771035989298868640_">
					<use xlink:href="#SVGID_00000057140696465947740060000002496115705174164389_"  style="overflow:visible;"/>
				</clipPath>
				
					<ellipse style="clip-path:url(#SVGID_00000054948588389078995610000015771035989298868640_);fill:#050505;" cx="68.74" cy="33.94" rx="1.2" ry="1.33"/>
			</g>
			<g>
				<defs>
					<rect id="SVGID_00000024701487007396814740000008162847639176647348_" y="0" width="120" height="120"/>
				</defs>
				<clipPath id="SVGID_00000004547873040819191300000012026182474245069698_">
					<use xlink:href="#SVGID_00000024701487007396814740000008162847639176647348_"  style="overflow:visible;"/>
				</clipPath>
				<g style="clip-path:url(#SVGID_00000004547873040819191300000012026182474245069698_);">
					<g>
						<defs>
							<ellipse id="SVGID_00000018957524799285636710000008136996739474104457_" cx="68.74" cy="33.94" rx="1.2" ry="1.33"/>
						</defs>
						<clipPath id="SVGID_00000029737780899899454190000006649065669462634149_">
							<use xlink:href="#SVGID_00000018957524799285636710000008136996739474104457_"  style="overflow:visible;"/>
						</clipPath>
						<path style="clip-path:url(#SVGID_00000029737780899899454190000006649065669462634149_);fill:#050505;" d="M68.74,33.61
							c0.02,0,0.06,0.01,0.11,0.06c0.05,0.05,0.09,0.15,0.09,0.27h2c0-1.19-0.9-2.33-2.2-2.33V33.61z M68.53,33.94
							c0-0.12,0.04-0.21,0.09-0.27c0.05-0.05,0.09-0.06,0.11-0.06v-2c-1.31,0-2.2,1.14-2.2,2.33
							C66.53,33.94,68.53,33.94,68.53,33.94z M68.74,34.26c-0.02,0-0.06-0.01-0.11-0.06c-0.05-0.05-0.09-0.15-0.09-0.27h-2
							c0,1.19,0.9,2.33,2.2,2.33V34.26z M68.94,33.94c0,0.12-0.04,0.21-0.09,0.27c-0.05,0.05-0.09,0.06-0.11,0.06v2
							c1.31,0,2.2-1.14,2.2-2.33C70.94,33.94,68.94,33.94,68.94,33.94z"/>
					</g>
				</g>
			</g>
			<g>
				<defs>
					<rect id="SVGID_00000075843582028209738300000009234957655678444941_" y="0" width="120" height="120"/>
				</defs>
				<clipPath id="SVGID_00000075124942157082298140000009758443289933421460_">
					<use xlink:href="#SVGID_00000075843582028209738300000009234957655678444941_"  style="overflow:visible;"/>
				</clipPath>
				
					<ellipse style="clip-path:url(#SVGID_00000075124942157082298140000009758443289933421460_);fill:#050505;" cx="57.02" cy="33.94" rx="1.2" ry="1.33"/>
			</g>
			<g>
				<defs>
					<rect id="SVGID_00000183938018081780312320000008264220659579686027_" y="0" width="120" height="120"/>
				</defs>
				<clipPath id="SVGID_00000029767428546878645800000003884020503838411420_">
					<use xlink:href="#SVGID_00000183938018081780312320000008264220659579686027_"  style="overflow:visible;"/>
				</clipPath>
				<g style="clip-path:url(#SVGID_00000029767428546878645800000003884020503838411420_);">
					<g>
						<defs>
							<ellipse id="SVGID_00000008852819360785677350000015496060135178703232_" cx="57.02" cy="33.94" rx="1.2" ry="1.33"/>
						</defs>
						<clipPath id="SVGID_00000094596851939732012450000011740681075838119340_">
							<use xlink:href="#SVGID_00000008852819360785677350000015496060135178703232_"  style="overflow:visible;"/>
						</clipPath>
						<path style="clip-path:url(#SVGID_00000094596851939732012450000011740681075838119340_);fill:#050505;" d="M57.02,33.61
							c0.02,0,0.06,0.01,0.11,0.06c0.05,0.05,0.09,0.15,0.09,0.27h2c0-1.19-0.9-2.33-2.2-2.33V33.61z M56.82,33.94
							c0-0.12,0.04-0.21,0.09-0.27c0.05-0.05,0.09-0.06,0.11-0.06v-2c-1.31,0-2.2,1.14-2.2,2.33
							C54.82,33.94,56.82,33.94,56.82,33.94z M57.02,34.26c-0.02,0-0.06-0.01-0.11-0.06c-0.05-0.05-0.09-0.15-0.09-0.27h-2
							c0,1.19,0.9,2.33,2.2,2.33V34.26z M57.23,33.94c0,0.12-0.04,0.21-0.09,0.27c-0.05,0.05-0.09,0.06-0.11,0.06v2
							c1.31,0,2.2-1.14,2.2-2.33C59.23,33.94,57.23,33.94,57.23,33.94z"/>
					</g>
				</g>
			</g>
			<g>
				<defs>
					<rect id="SVGID_00000050637088772879834690000004363441286422130330_" y="0" width="120" height="120"/>
				</defs>
				<clipPath id="SVGID_00000051356724285896397030000007382413856785088412_">
					<use xlink:href="#SVGID_00000050637088772879834690000004363441286422130330_"  style="overflow:visible;"/>
				</clipPath>
				<path style="clip-path:url(#SVGID_00000051356724285896397030000007382413856785088412_);fill:#050505;" d="M59,29.14
					c-0.41-0.29-0.41-0.29-0.41-0.29l0,0l0,0l0,0l0,0c0,0-0.01,0.01-0.01,0.02c-0.01,0.02-0.03,0.04-0.06,0.08
					c-0.05,0.07-0.14,0.16-0.25,0.27c-0.22,0.22-0.54,0.5-0.93,0.74c-0.77,0.45-1.84,0.71-3.14-0.02l-0.5,0.86
					c1.67,0.95,3.13,0.6,4.14,0.02c0.5-0.29,0.88-0.63,1.15-0.9c0.13-0.14,0.23-0.25,0.31-0.34c0.04-0.04,0.06-0.08,0.08-0.1
					c0.01-0.01,0.02-0.02,0.02-0.03l0.01-0.01l0,0l0,0l0,0C59.41,29.43,59.41,29.43,59,29.14z M54.2,29.94
					c-0.24-0.14-0.55-0.05-0.68,0.19c-0.14,0.24-0.05,0.55,0.19,0.68L54.2,29.94z M59.41,29.43c0.16-0.22,0.11-0.54-0.12-0.7
					c-0.22-0.16-0.54-0.11-0.7,0.12L59.41,29.43z"/>
			</g>
			<g>
				<defs>
					<rect id="SVGID_00000140013163640438305920000016351386606021970072_" y="0" width="120" height="120"/>
				</defs>
				<clipPath id="SVGID_00000021822526698037118710000013333930840455521439_">
					<use xlink:href="#SVGID_00000140013163640438305920000016351386606021970072_"  style="overflow:visible;"/>
				</clipPath>
				<path style="clip-path:url(#SVGID_00000021822526698037118710000013333930840455521439_);fill:#050505;" d="M66.57,29.14
					c-0.41,0.29-0.41,0.29-0.41,0.29l0,0l0,0l0,0c0,0,0,0.01,0.01,0.01c0.01,0.01,0.01,0.02,0.02,0.03c0.02,0.03,0.05,0.06,0.08,0.1
					c0.07,0.09,0.17,0.2,0.31,0.34c0.26,0.27,0.65,0.61,1.15,0.9c1.01,0.59,2.46,0.93,4.14-0.02l-0.49-0.87
					c-1.3,0.74-2.36,0.47-3.14,0.02c-0.4-0.23-0.71-0.51-0.93-0.74c-0.11-0.11-0.19-0.21-0.25-0.27c-0.03-0.03-0.05-0.06-0.06-0.08
					c-0.01-0.01-0.01-0.01-0.01-0.02l0,0l0,0l0,0l0,0C66.98,28.85,66.98,28.85,66.57,29.14z M71.87,30.8
					c0.24-0.14,0.32-0.44,0.19-0.68c-0.14-0.24-0.44-0.32-0.68-0.19L71.87,30.8z M66.98,28.85c-0.16-0.22-0.47-0.28-0.7-0.12
					c-0.22,0.16-0.28,0.47-0.12,0.7L66.98,28.85z"/>
			</g>
			<g>
				<defs>
					<rect id="SVGID_00000102542360808913137320000016899387855320171179_" y="0" width="120" height="120"/>
				</defs>
				<clipPath id="SVGID_00000044899381781355622720000005187066121669140152_">
					<use xlink:href="#SVGID_00000102542360808913137320000016899387855320171179_"  style="overflow:visible;"/>
				</clipPath>
				<path style="clip-path:url(#SVGID_00000044899381781355622720000005187066121669140152_);fill:#050505;" d="M62.39,40v0.72h1V40
					H62.39z M62.39,40.72c0,0.28,0.22,0.5,0.5,0.5s0.5-0.22,0.5-0.5H62.39z M63.39,40c0-0.28-0.22-0.5-0.5-0.5s-0.5,0.22-0.5,0.5
					H63.39z"/>
			</g>
			<g>
				<defs>
					<rect id="SVGID_00000041979391250590083820000005713416875080758684_" y="0" width="120" height="120"/>
				</defs>
				<clipPath id="SVGID_00000043439268044010971980000000071188283403851660_">
					<use xlink:href="#SVGID_00000041979391250590083820000005713416875080758684_"  style="overflow:visible;"/>
				</clipPath>
				<path style="clip-path:url(#SVGID_00000043439268044010971980000000071188283403851660_);fill:#050505;" d="M60.58,45.93
					c0.31,0.39,0.31,0.39,0.31,0.39l0,0l0,0l0,0l0,0c0,0,0,0,0.01-0.01s0.02-0.02,0.04-0.03c0.04-0.03,0.11-0.07,0.2-0.12
					c0.18-0.1,0.44-0.21,0.78-0.29c0.67-0.15,1.65-0.17,2.86,0.49l0.48-0.88c-1.43-0.78-2.67-0.79-3.56-0.59
					c-0.44,0.1-0.79,0.25-1.03,0.38c-0.12,0.06-0.22,0.12-0.28,0.17c-0.03,0.02-0.06,0.04-0.08,0.06c-0.01,0.01-0.02,0.01-0.02,0.02
					c0,0-0.01,0-0.01,0.01l0,0l0,0l0,0C60.27,45.54,60.27,45.54,60.58,45.93z M64.78,46.37c0.24,0.13,0.55,0.04,0.68-0.2
					s0.04-0.55-0.2-0.68L64.78,46.37z M60.27,45.54c-0.22,0.17-0.25,0.49-0.08,0.7c0.17,0.22,0.49,0.25,0.7,0.08L60.27,45.54z"/>
			</g>
			<g>
				<defs>
					<rect id="SVGID_00000039844523505968682450000000844386837621891746_" y="0" width="120" height="120"/>
				</defs>
				<clipPath id="SVGID_00000047752712787479586440000004817343307846613923_">
					<use xlink:href="#SVGID_00000039844523505968682450000000844386837621891746_"  style="overflow:visible;"/>
				</clipPath>
				<path style="clip-path:url(#SVGID_00000047752712787479586440000004817343307846613923_);fill:#F4F4F4;" d="M76.93,27.9
					c0,1.44-0.69,7.25-0.69,7.25s2.65-3.49,2.98-6.27c0.17-1.44-0.33-3.61-1.02-3.61s-1.26,1.17-1.26,2.63
					C76.94,27.9,76.93,27.9,76.93,27.9z"/>
			</g>
			<g>
				<defs>
					<rect id="SVGID_00000163069600957104150800000015536709264164833191_" y="0" width="120" height="120"/>
				</defs>
				<clipPath id="SVGID_00000151522022843068366440000013477347206128914838_">
					<use xlink:href="#SVGID_00000163069600957104150800000015536709264164833191_"  style="overflow:visible;"/>
				</clipPath>
				<path style="clip-path:url(#SVGID_00000151522022843068366440000013477347206128914838_);fill:#050505;" d="M76.94,27.4h-0.01v1
					h0.01V27.4z M78.2,24.77c-0.65,0-1.09,0.53-1.34,1.05c-0.27,0.56-0.42,1.29-0.42,2.08h1c0-0.67,0.13-1.25,0.32-1.64
					c0.21-0.43,0.4-0.48,0.44-0.48C78.2,25.78,78.2,24.77,78.2,24.77z M79.72,28.94c0.09-0.79,0-1.76-0.2-2.53
					c-0.1-0.39-0.24-0.76-0.42-1.04c-0.16-0.26-0.45-0.6-0.9-0.6v1c-0.1,0-0.07-0.07,0.05,0.13c0.1,0.17,0.21,0.43,0.3,0.76
					c0.18,0.67,0.25,1.51,0.17,2.16L79.72,28.94z M76.24,35.15c0.4,0.3,0.4,0.3,0.4,0.3l0,0l0,0l0,0c0,0,0,0,0.01-0.01
					s0.01-0.02,0.02-0.03c0.02-0.03,0.05-0.07,0.09-0.12c0.08-0.1,0.18-0.26,0.31-0.44c0.26-0.38,0.61-0.91,0.97-1.54
					c0.71-1.23,1.5-2.87,1.68-4.36l-0.99-0.12c-0.15,1.28-0.85,2.77-1.55,3.98c-0.34,0.6-0.68,1.11-0.93,1.47
					c-0.12,0.18-0.23,0.32-0.3,0.42c-0.04,0.05-0.06,0.09-0.08,0.11c-0.01,0.01-0.02,0.02-0.02,0.03v0.01l0,0l0,0l0,0
					C75.84,34.84,75.84,34.84,76.24,35.15z M76.43,27.9c0,0.69-0.17,2.47-0.34,4.11c-0.09,0.81-0.17,1.58-0.24,2.15
					c-0.03,0.28-0.06,0.51-0.08,0.68c-0.01,0.08-0.02,0.14-0.02,0.19c0,0.02,0,0.04-0.01,0.05c0,0.01,0,0.01,0,0.01l0,0l0,0l0,0
					c0,0,0,0,0.5,0.06s0.5,0.06,0.5,0.06l0,0l0,0l0,0V35.2c0-0.01,0-0.03,0.01-0.05c0.01-0.04,0.01-0.11,0.02-0.19
					c0.02-0.16,0.05-0.39,0.08-0.68c0.06-0.57,0.15-1.34,0.24-2.16c0.17-1.62,0.35-3.46,0.35-4.22C77.44,27.9,76.43,27.9,76.43,27.9
					z M76.94,27.9v0.5c0.28,0,0.5-0.22,0.5-0.5H76.94z M79.22,28.88l-0.5-0.06l0,0L79.22,28.88z M76.24,35.15l-0.5-0.06
					c-0.03,0.22,0.1,0.44,0.31,0.52s0.45,0.02,0.59-0.16L76.24,35.15z M76.93,27.9v-0.5c-0.28,0-0.5,0.22-0.5,0.5H76.93z"/>
			</g>
			<g>
				<defs>
					<rect id="SVGID_00000176754838914224884230000008557122657363246496_" y="0" width="120" height="120"/>
				</defs>
				<clipPath id="SVGID_00000047778913986514393810000010773807889502435481_">
					<use xlink:href="#SVGID_00000176754838914224884230000008557122657363246496_"  style="overflow:visible;"/>
				</clipPath>
				<path style="clip-path:url(#SVGID_00000047778913986514393810000010773807889502435481_);fill:#F4F4F4;" d="M49.16,27.8
					c0,1.44,0.62,7.47,0.62,7.47s-2.58-3.7-2.91-6.47c-0.17-1.44,0.33-3.61,1.02-3.61s1.26,1.17,1.26,2.63L49.16,27.8z"/>
			</g>
			<g>
				<defs>
					<rect id="SVGID_00000016062585652194491000000001088393654605915047_" y="0" width="120" height="120"/>
				</defs>
				<clipPath id="SVGID_00000088852435432896124670000003261431990086271882_">
					<use xlink:href="#SVGID_00000016062585652194491000000001088393654605915047_"  style="overflow:visible;"/>
				</clipPath>
				<path style="clip-path:url(#SVGID_00000088852435432896124670000003261431990086271882_);fill:#050505;" d="M49.5,28.17
					l0.01-0.01l-0.71-0.7l-0.01,0.01L49.5,28.17z M47.88,25.69c0.04,0,0.23,0.05,0.44,0.48c0.19,0.39,0.32,0.97,0.32,1.64h1
					c0-0.79-0.15-1.52-0.42-2.08c-0.25-0.52-0.69-1.05-1.34-1.05V25.69z M47.36,28.74c-0.08-0.65,0-1.49,0.17-2.16
					c0.09-0.34,0.19-0.6,0.3-0.76c0.12-0.2,0.15-0.13,0.05-0.13v-1c-0.45,0-0.74,0.34-0.9,0.6c-0.18,0.29-0.32,0.65-0.42,1.04
					c-0.2,0.77-0.29,1.74-0.2,2.53L47.36,28.74z M49.78,35.26c0.41-0.29,0.41-0.29,0.41-0.29l0,0l0,0l0,0c0,0,0,0,0-0.01
					s-0.01-0.02-0.02-0.03c-0.02-0.03-0.04-0.07-0.08-0.12c-0.07-0.1-0.17-0.26-0.29-0.45c-0.24-0.38-0.57-0.92-0.91-1.54
					c-0.68-1.26-1.37-2.81-1.52-4.1l-0.99,0.12c0.18,1.49,0.94,3.17,1.64,4.45c0.35,0.65,0.69,1.21,0.94,1.6
					c0.13,0.2,0.23,0.36,0.3,0.47c0.04,0.05,0.07,0.1,0.09,0.13c0.01,0.01,0.02,0.03,0.02,0.03s0,0.01,0.01,0.01l0,0l0,0l0,0
					C49.37,35.55,49.37,35.55,49.78,35.26z M48.66,27.8c0,0.75,0.16,2.64,0.31,4.32c0.08,0.84,0.15,1.64,0.21,2.23
					c0.03,0.29,0.05,0.54,0.07,0.7c0.01,0.08,0.02,0.15,0.02,0.19c0,0.02,0,0.04,0.01,0.05c0,0.01,0,0.01,0,0.01l0,0l0,0l0,0
					c0,0,0,0,0.5-0.05s0.5-0.05,0.5-0.05l0,0l0,0l0,0v-0.01c0-0.01,0-0.03-0.01-0.05c0-0.04-0.01-0.11-0.02-0.19
					c-0.02-0.17-0.04-0.41-0.07-0.7c-0.06-0.59-0.13-1.38-0.21-2.22c-0.16-1.7-0.31-3.54-0.31-4.23H48.66z M49.15,27.81h-0.5
					c0,0.2,0.12,0.39,0.31,0.46c0.19,0.08,0.4,0.03,0.55-0.11L49.15,27.81z M46.87,28.8l0.5-0.06l0,0L46.87,28.8z M49.78,35.26
					l-0.41,0.29c0.13,0.19,0.37,0.26,0.58,0.18c0.21-0.08,0.35-0.29,0.32-0.52L49.78,35.26z M49.16,27.8h0.5
					c0-0.2-0.12-0.39-0.31-0.46s-0.4-0.03-0.55,0.11L49.16,27.8z"/>
			</g>
			<g>
				<defs>
					<rect id="SVGID_00000177460854765555277730000018442791946659528613_" y="0" width="120" height="120"/>
				</defs>
				<clipPath id="SVGID_00000139994593609003290750000000841701865868309913_">
					<use xlink:href="#SVGID_00000177460854765555277730000018442791946659528613_"  style="overflow:visible;"/>
				</clipPath>
				<path style="clip-path:url(#SVGID_00000139994593609003290750000000841701865868309913_);fill:#80ABFF;" d="M80.2,24.19
					c0-9.75-4.22-14.97-10.57-17.65c-1.42-2.24-4.06-2.38-6.58-2.38c-2.52,0-5.31,0.14-6.71,2.57c-6.01,2.86-10.33,6.45-10.33,17.44
					c-1.78,0.3-2.8,1.99-2.8,2.38c0,1.14,8.88,1.08,19.82,1.08s19.82,0.06,19.82-1.08c0-0.4-0.73-2.04-2.67-2.35L80.2,24.19z"/>
			</g>
			<g>
				<defs>
					<rect id="SVGID_00000038390213375573707360000010185120667710081189_" y="0" width="120" height="120"/>
				</defs>
				<clipPath id="SVGID_00000106857702219778152940000008149864033397606530_">
					<use xlink:href="#SVGID_00000038390213375573707360000010185120667710081189_"  style="overflow:visible;"/>
				</clipPath>
				<path style="clip-path:url(#SVGID_00000106857702219778152940000008149864033397606530_);fill:#F4F4F4;" d="M56.46,6.73
					C55.98,6.6,55.98,6.6,55.98,6.6l0,0l0,0c0,0,0,0,0,0.01c0,0,0,0.01-0.01,0.02c0,0.02-0.01,0.04-0.02,0.08
					c-0.02,0.07-0.04,0.17-0.07,0.3c-0.06,0.26-0.15,0.64-0.24,1.11c-0.2,0.95-0.45,2.31-0.67,3.9c-0.44,3.19-0.76,7.37-0.26,11.31
					l0.99-0.13c-0.49-3.81-0.18-7.9,0.26-11.05c0.22-1.57,0.47-2.9,0.66-3.84c0.1-0.47,0.18-0.84,0.24-1.09
					c0.03-0.13,0.05-0.22,0.07-0.29c0.01-0.03,0.01-0.06,0.02-0.07c0-0.01,0-0.01,0-0.02l0,0l0,0l0,0
					C56.95,6.85,56.95,6.85,56.46,6.73z M54.7,23.34c0.03,0.27,0.29,0.47,0.56,0.43s0.47-0.29,0.43-0.56L54.7,23.34z M56.95,6.85
					c0.07-0.27-0.09-0.54-0.36-0.61s-0.54,0.09-0.61,0.36L56.95,6.85z"/>
			</g>
			<g>
				<defs>
					<rect id="SVGID_00000073691687478114852080000009643744351329225400_" y="0" width="120" height="120"/>
				</defs>
				<clipPath id="SVGID_00000163795365161040555640000015324962274863108238_">
					<use xlink:href="#SVGID_00000073691687478114852080000009643744351329225400_"  style="overflow:visible;"/>
				</clipPath>
				<path style="clip-path:url(#SVGID_00000163795365161040555640000015324962274863108238_);fill:#F4F4F4;" d="M69.63,6.73
					c-0.48,0.12-0.48,0.12-0.48,0.12l0,0l0,0l0,0c0,0,0,0.01,0,0.02c0,0.02,0.01,0.04,0.02,0.07C69.19,7,69.21,7.1,69.24,7.23
					c0.06,0.25,0.14,0.62,0.24,1.09c0.19,0.94,0.44,2.27,0.66,3.84c0.44,3.15,0.75,7.24,0.26,11.05l0.99,0.13
					c0.5-3.94,0.18-8.13-0.26-11.31c-0.22-1.6-0.47-2.95-0.67-3.9c-0.1-0.48-0.18-0.86-0.24-1.11c-0.03-0.13-0.05-0.23-0.07-0.3
					c-0.01-0.03-0.01-0.06-0.02-0.08c0-0.01,0-0.02-0.01-0.02c0,0,0,0,0-0.01l0,0l0,0C70.11,6.6,70.11,6.6,69.63,6.73z M70.39,23.21
					c-0.03,0.27,0.16,0.52,0.43,0.56c0.27,0.03,0.52-0.16,0.56-0.43L70.39,23.21z M70.11,6.6c-0.07-0.27-0.34-0.43-0.61-0.36
					c-0.27,0.07-0.43,0.34-0.36,0.61L70.11,6.6z"/>
			</g>
			<g>
				<defs>
					<rect id="SVGID_00000048499417885663569500000000483056796292072358_" y="0" width="120" height="120"/>
				</defs>
				<clipPath id="SVGID_00000127755450272267436080000011667307710940921238_">
					<use xlink:href="#SVGID_00000048499417885663569500000000483056796292072358_"  style="overflow:visible;"/>
				</clipPath>
				<path style="clip-path:url(#SVGID_00000127755450272267436080000011667307710940921238_);fill:#F4F4F4;" d="M77.59,27.5H76.5
					c0.73,20.09-10.51,23.81-13.52,24.37c-3.01-0.55-14.18-4.25-13.45-24.35l-1.16-0.03c0,0-1.56,25.37,14.51,24.68l0.1-0.03
					l0.1,0.03C79.15,52.87,77.59,27.5,77.59,27.5z"/>
			</g>
			<g>
				<defs>
					<rect id="SVGID_00000103987363381430240840000011050652492582039739_" y="0" width="120" height="120"/>
				</defs>
				<clipPath id="SVGID_00000010990801537454271350000011063143248453608380_">
					<use xlink:href="#SVGID_00000103987363381430240840000011050652492582039739_"  style="overflow:visible;"/>
				</clipPath>
				<path style="clip-path:url(#SVGID_00000010990801537454271350000011063143248453608380_);fill:#050505;" d="M63.05,52.67
					c4.17,0.18,7.23-1.34,9.44-3.72c2.19-2.37,3.53-5.56,4.35-8.73c0.82-3.17,1.13-6.36,1.24-8.75c0.05-1.2,0.05-2.19,0.04-2.89
					c-0.01-0.35-0.01-0.63-0.02-0.82c0-0.09-0.01-0.17-0.01-0.22c0-0.02,0-0.04,0-0.06c0-0.01,0-0.01,0-0.02l0,0l0,0
					c0,0,0,0-0.5,0.03s-0.5,0.03-0.5,0.03l0,0l0,0v0.01c0,0.01,0,0.03,0,0.05c0,0.05,0.01,0.12,0.01,0.21
					c0.01,0.18,0.02,0.45,0.02,0.79c0.01,0.68,0.01,1.66-0.04,2.83c-0.1,2.35-0.41,5.46-1.21,8.54c-0.8,3.09-2.08,6.11-4.12,8.3
					c-2.02,2.18-4.79,3.57-8.66,3.4L63.05,52.67z M62.83,52.63l0.1,0.03l0.28-0.96l-0.1-0.03L62.83,52.63z M63.01,52.65l0.1-0.03
					l-0.28-0.96l-0.1,0.03L63.01,52.65z M48.36,27.5c-0.5-0.03-0.5-0.03-0.5-0.03l0,0l0,0c0,0,0,0.01,0,0.02s0,0.03,0,0.06
					c0,0.05-0.01,0.12-0.01,0.22c-0.01,0.19-0.02,0.47-0.02,0.82c-0.01,0.7-0.01,1.7,0.04,2.89c0.11,2.39,0.42,5.58,1.24,8.75
					c0.82,3.17,2.16,6.36,4.35,8.73c2.21,2.38,5.27,3.9,9.44,3.72l-0.04-1c-3.87,0.17-6.64-1.23-8.66-3.4
					c-2.04-2.2-3.32-5.21-4.12-8.3c-0.8-3.08-1.1-6.19-1.21-8.54c-0.05-1.17-0.05-2.15-0.04-2.83c0.01-0.34,0.01-0.61,0.02-0.79
					c0-0.09,0.01-0.16,0.01-0.21c0-0.02,0-0.04,0-0.05c0-0.01,0-0.01,0-0.01l0,0l0,0C48.86,27.53,48.86,27.53,48.36,27.5z
					 M49.53,27.03L48.37,27l-0.02,1l1.16,0.03L49.53,27.03z M63.06,51.38c-1.43-0.26-4.86-1.28-7.84-4.68
					c-2.98-3.39-5.56-9.2-5.2-19.16l-1-0.04c-0.37,10.15,2.27,16.23,5.45,19.85c3.17,3.61,6.83,4.71,8.42,5L63.06,51.38z M76,27.51
					c0.36,9.94-2.24,15.76-5.23,19.16c-3,3.41-6.45,4.44-7.88,4.71l0.18,0.98c1.58-0.3,5.26-1.41,8.45-5.03
					c3.2-3.63,5.85-9.72,5.48-19.86L76,27.51z M77.59,27H76.5v1h1.09V27z M63.07,52.17l-0.14,0.48c0.04,0.01,0.08,0.02,0.12,0.02
					L63.07,52.17z M62.97,52.14l0.14-0.48c-0.09-0.03-0.19-0.03-0.28,0L62.97,52.14z M62.87,52.17l0.02,0.5
					c0.04,0,0.08-0.01,0.12-0.02L62.87,52.17z M48.36,27.5l0.01-0.5c-0.27-0.01-0.49,0.2-0.51,0.47L48.36,27.5z M49.52,27.52
					l0.5,0.02c0-0.13-0.04-0.26-0.14-0.36c-0.09-0.1-0.22-0.15-0.35-0.16L49.52,27.52z M62.97,51.87l-0.09,0.49
					c0.06,0.01,0.12,0.01,0.18,0L62.97,51.87z M76.5,27.5V27c-0.14,0-0.27,0.06-0.36,0.15c-0.09,0.1-0.14,0.23-0.14,0.37L76.5,27.5z
					 M77.59,27.5l0.5-0.03C78.07,27.2,77.85,27,77.59,27V27.5z"/>
			</g>
			<g>
				<defs>
					<rect id="SVGID_00000181067955878876869740000001728879478460154809_" y="0" width="120" height="120"/>
				</defs>
				<clipPath id="SVGID_00000085947194776994651510000010285947105791761283_">
					<use xlink:href="#SVGID_00000181067955878876869740000001728879478460154809_"  style="overflow:visible;"/>
				</clipPath>
				<path style="clip-path:url(#SVGID_00000085947194776994651510000010285947105791761283_);fill:#F4F4F4;" d="M89.5,62.93
					c-0.88-0.3-5.75,15.81-7.05,31.48c-0.3,3.64-12.36-1.6-25.44-3.46l-4.83,8.71c0,0,18.98,12.36,36.49,11.35
					c0,0,3.95-0.27,5.14-5.86c2.01-6.6,3.14-11.88,3.68-20.04c0.12-1.72,0.24-4.06,0.45-5.91c0.24-2.07,0.31-4.2,0.15-5.5
					c-0.92-7.33-4.71-9.46-8.61-10.78L89.5,62.93z"/>
			</g>
			<g>
				<defs>
					<rect id="SVGID_00000163034180603444500920000005476627815936652683_" y="0" width="120" height="120"/>
				</defs>
				<clipPath id="SVGID_00000098935582033903783390000002103226599894480309_">
					<use xlink:href="#SVGID_00000163034180603444500920000005476627815936652683_"  style="overflow:visible;"/>
				</clipPath>
				<path style="clip-path:url(#SVGID_00000098935582033903783390000002103226599894480309_);fill:#050505;" d="M89.13,63.27
					l0.01,0.01l0.71-0.71l-0.01-0.01L89.13,63.27z M98.59,73.63c-0.47-3.75-1.68-6.22-3.32-7.93c-1.63-1.7-3.64-2.59-5.62-3.26
					l-0.32,0.95c1.93,0.65,3.76,1.48,5.22,3.01c1.46,1.52,2.6,3.78,3.05,7.36L98.59,73.63z M98.44,79.26
					c0.24-2.08,0.32-4.26,0.15-5.62l-0.99,0.12c0.16,1.25,0.09,3.33-0.15,5.38L98.44,79.26z M97.99,85.14
					c0.12-1.74,0.24-4.06,0.44-5.89l-0.99-0.11C97.23,81,97.11,83.37,97,85.08L97.99,85.14z M94.29,105.29
					c2.02-6.63,3.16-11.95,3.7-20.15l-1-0.07c-0.53,8.12-1.66,13.36-3.66,19.92L94.29,105.29z M88.68,111.01
					c0.03,0.5,0.03,0.5,0.03,0.5l0,0l0,0l0,0h0.01c0.01,0,0.03,0,0.04,0c0.04,0,0.09-0.01,0.15-0.02c0.13-0.02,0.31-0.06,0.52-0.12
					c0.43-0.12,1.01-0.35,1.63-0.77c1.25-0.84,2.6-2.42,3.23-5.34l-0.98-0.21c-0.57,2.68-1.78,4.03-2.81,4.72
					c-0.52,0.35-1,0.54-1.35,0.64c-0.17,0.05-0.31,0.08-0.41,0.09c-0.05,0.01-0.08,0.01-0.1,0.01c-0.01,0-0.02,0-0.02,0l0,0l0,0l0,0
					l0,0C88.64,110.51,88.64,110.51,88.68,111.01z M52.18,99.66c-0.27,0.42-0.27,0.42-0.27,0.42l0,0l0,0c0,0,0.01,0,0.01,0.01
					c0.01,0.01,0.02,0.02,0.04,0.03c0.04,0.02,0.09,0.06,0.17,0.11c0.15,0.09,0.36,0.23,0.64,0.39c0.56,0.34,1.37,0.82,2.41,1.4
					c2.06,1.15,5,2.67,8.49,4.16c6.96,2.98,16.17,5.85,25.04,5.34l-0.06-1c-8.64,0.5-17.68-2.31-24.59-5.26
					c-3.45-1.47-6.35-2.98-8.39-4.12c-1.02-0.57-1.82-1.04-2.37-1.38c-0.27-0.17-0.48-0.3-0.63-0.39c-0.07-0.04-0.12-0.08-0.16-0.1
					c-0.02-0.01-0.03-0.02-0.04-0.03c0,0-0.01,0-0.01-0.01l0,0l0,0C52.46,99.24,52.46,99.24,52.18,99.66z M56.57,90.7l-4.83,8.71
					l0.87,0.48l4.83-8.71L56.57,90.7z M81.95,94.37c-0.02,0.28-0.14,0.45-0.38,0.57c-0.28,0.14-0.72,0.23-1.38,0.23
					c-1.31-0.01-3.21-0.37-5.56-0.91c-4.66-1.08-10.99-2.87-17.56-3.8l-0.14,0.99c6.51,0.93,12.75,2.69,17.47,3.79
					c2.34,0.54,4.34,0.93,5.78,0.94c0.72,0,1.36-0.08,1.86-0.34c0.53-0.28,0.86-0.75,0.91-1.38L81.95,94.37z M89.66,62.46
					c-0.23-0.08-0.42,0-0.52,0.07c-0.1,0.06-0.18,0.15-0.24,0.22c-0.12,0.15-0.23,0.35-0.35,0.58c-0.23,0.47-0.51,1.16-0.81,2.02
					c-0.61,1.73-1.34,4.22-2.09,7.21c-1.49,5.97-3.04,13.94-3.69,21.81l1,0.08c0.65-7.8,2.18-15.72,3.67-21.65
					c0.74-2.96,1.47-5.42,2.06-7.12c0.3-0.85,0.56-1.49,0.76-1.91c0.11-0.21,0.18-0.34,0.23-0.4c0.03-0.03,0.03-0.02-0.01,0
					c-0.03,0.02-0.16,0.09-0.33,0.03L89.66,62.46z M89.48,62.91l0.16-0.47c-0.22-0.07-0.46,0.01-0.58,0.21s-0.09,0.45,0.07,0.62
					L89.48,62.91z M98.09,73.7l0.5-0.06l0,0L98.09,73.7z M97.94,79.2l-0.5-0.06l0,0L97.94,79.2z M97.5,85.11L97,85.08l0,0
					L97.5,85.11z M93.82,105.15L93.34,105c0,0.01-0.01,0.03-0.01,0.04L93.82,105.15z M88.68,111.01l0.03,0.5h0.01L88.68,111.01z
					 M52.18,99.66l-0.44-0.24c-0.13,0.23-0.06,0.52,0.16,0.66L52.18,99.66z M57.01,90.94l0.07-0.5c-0.21-0.03-0.41,0.07-0.51,0.25
					L57.01,90.94z M82.45,94.41l-0.5-0.04l0,0L82.45,94.41z M89.5,62.93l-0.16,0.47c0.22,0.08,0.46-0.01,0.59-0.21
					s0.09-0.45-0.07-0.62L89.5,62.93z"/>
			</g>
			<g>
				<defs>
					<rect id="SVGID_00000033356341513073601730000016115001202706188699_" y="0" width="120" height="120"/>
				</defs>
				<clipPath id="SVGID_00000164479808094206078070000002992505767782726281_">
					<use xlink:href="#SVGID_00000033356341513073601730000016115001202706188699_"  style="overflow:visible;"/>
				</clipPath>
				<path style="clip-path:url(#SVGID_00000164479808094206078070000002992505767782726281_);fill:#050505;" d="M81.84,96.64
					c-0.25,0.43-0.25,0.43-0.25,0.43l0,0l0,0l0,0c0,0,0,0,0.01,0s0.01,0.01,0.02,0.01c0.02,0.01,0.05,0.03,0.09,0.06
					c0.08,0.05,0.2,0.13,0.34,0.22c0.29,0.19,0.68,0.46,1.08,0.78s0.81,0.69,1.15,1.06c0.34,0.38,0.58,0.75,0.69,1.07l0.95-0.3
					c-0.16-0.52-0.51-1.01-0.89-1.44c-0.39-0.43-0.85-0.84-1.28-1.18c-0.43-0.34-0.84-0.63-1.15-0.83c-0.15-0.1-0.28-0.18-0.37-0.24
					c-0.04-0.03-0.08-0.05-0.1-0.06c-0.01-0.01-0.02-0.01-0.03-0.02h-0.01l0,0l0,0l0,0C82.09,96.21,82.09,96.21,81.84,96.64z
					 M87.9,98.71c0.32-0.39,0.32-0.39,0.32-0.39l0,0l0,0l0,0c0,0,0,0-0.01-0.01c-0.01,0-0.01-0.01-0.02-0.02
					c-0.02-0.01-0.05-0.04-0.08-0.06c-0.07-0.05-0.17-0.12-0.31-0.21c-0.27-0.17-0.66-0.4-1.19-0.64c-1.05-0.48-2.62-1.01-4.72-1.25
					l-0.11,0.99c1.98,0.22,3.45,0.72,4.41,1.16c0.48,0.22,0.84,0.43,1.07,0.57c0.12,0.07,0.2,0.13,0.25,0.17
					c0.03,0.02,0.05,0.03,0.06,0.04c0.01,0,0.01,0.01,0.01,0.01l0,0l0,0l0,0l0,0C87.59,99.1,87.59,99.1,87.9,98.71z M84.97,100.29
					c0.08,0.26,0.37,0.41,0.63,0.32c0.26-0.08,0.41-0.37,0.32-0.63L84.97,100.29z M81.84,96.64l0.05-0.5
					c-0.23-0.03-0.45,0.12-0.53,0.34c-0.07,0.22,0.02,0.47,0.22,0.59L81.84,96.64z M87.59,99.1c0.21,0.17,0.53,0.14,0.7-0.07
					s0.14-0.53-0.07-0.7L87.59,99.1z"/>
			</g>
			<g>
				<defs>
					<rect id="SVGID_00000155134643624609118520000016818058620241886616_" y="0" width="120" height="120"/>
				</defs>
				<clipPath id="SVGID_00000155843942459098232920000008238388784886595508_">
					<use xlink:href="#SVGID_00000155134643624609118520000016818058620241886616_"  style="overflow:visible;"/>
				</clipPath>
				<path style="clip-path:url(#SVGID_00000155843942459098232920000008238388784886595508_);fill:#F4F4F4;" d="M72.72,89.14
					c0,0,7.63-2.98,10.02-0.13l-0.19,5.79c0,0-1.06,3.01-7.22,1.02c0,0-2.95-3.82-2.61-6.66V89.14z"/>
			</g>
			<g>
				<defs>
					<rect id="SVGID_00000025443010789176546940000013613840717017926322_" y="0" width="120" height="120"/>
				</defs>
				<clipPath id="SVGID_00000142857825462369001520000004279431668449888146_">
					<use xlink:href="#SVGID_00000025443010789176546940000013613840717017926322_"  style="overflow:visible;"/>
				</clipPath>
				<path style="clip-path:url(#SVGID_00000142857825462369001520000004279431668449888146_);fill:#050505;" d="M73.22,89.16v-0.02
					h-1v0.02H73.22z M75.33,95.82c0.4-0.31,0.4-0.31,0.4-0.31l0,0l0,0l0,0c0,0,0,0-0.01-0.01c0-0.01-0.01-0.02-0.02-0.03
					c-0.02-0.03-0.05-0.07-0.09-0.12c-0.08-0.11-0.19-0.26-0.32-0.46c-0.26-0.39-0.61-0.94-0.95-1.58c-0.69-1.3-1.27-2.84-1.12-4.1
					l-0.99-0.12c-0.19,1.58,0.53,3.37,1.23,4.69c0.36,0.67,0.73,1.26,1,1.67c0.14,0.21,0.26,0.37,0.34,0.49
					c0.04,0.06,0.07,0.1,0.1,0.13c0.01,0.02,0.02,0.03,0.03,0.04l0.01,0.01l0,0l0,0l0,0C74.93,96.12,74.93,96.12,75.33,95.82z
					 M82.56,94.8c-0.47-0.17-0.47-0.17-0.47-0.17l0,0l0,0l0,0l0,0c0,0,0,0,0,0.01s-0.01,0.03-0.03,0.06
					c-0.03,0.05-0.08,0.14-0.16,0.24c-0.15,0.2-0.42,0.46-0.86,0.68c-0.88,0.43-2.54,0.71-5.55-0.26l-0.31,0.95
					c3.16,1.02,5.11,0.79,6.3,0.21c0.59-0.29,0.98-0.66,1.21-0.96c0.12-0.15,0.2-0.29,0.25-0.39c0.03-0.05,0.05-0.09,0.06-0.13
					c0.01-0.02,0.01-0.03,0.02-0.04c0-0.01,0-0.01,0.01-0.01c0,0,0,0,0-0.01l0,0l0,0C83.03,94.96,83.03,94.96,82.56,94.8z
					 M82.25,88.99l-0.19,5.79l1,0.03l0.19-5.79L82.25,88.99z M72.72,89.14c0.18,0.47,0.18,0.47,0.18,0.47l0,0l0,0l0,0
					c0,0,0.01,0,0.01-0.01c0.01-0.01,0.03-0.01,0.06-0.02c0.05-0.02,0.13-0.05,0.24-0.09c0.21-0.07,0.51-0.18,0.88-0.29
					c0.74-0.23,1.75-0.51,2.82-0.7c1.08-0.19,2.2-0.29,3.19-0.18c0.99,0.11,1.77,0.43,2.25,1.01l0.77-0.64
					c-0.72-0.85-1.79-1.23-2.9-1.36c-1.12-0.13-2.35-0.01-3.48,0.18c-1.13,0.2-2.18,0.49-2.95,0.73c-0.38,0.12-0.7,0.23-0.92,0.31
					c-0.11,0.04-0.19,0.07-0.25,0.09c-0.03,0.01-0.05,0.02-0.07,0.03c-0.01,0-0.01,0.01-0.02,0.01l0,0l0,0l0,0
					C72.54,88.68,72.54,88.68,72.72,89.14z M72.72,89.16l0.5,0.06c0-0.02,0-0.04,0-0.06H72.72z M75.33,95.82l-0.4,0.31
					c0.06,0.08,0.15,0.14,0.24,0.17L75.33,95.82z M82.56,94.8l0.47,0.17c0.02-0.05,0.03-0.1,0.03-0.15L82.56,94.8z M82.75,89.01
					l0.5,0.02c0-0.12-0.04-0.24-0.12-0.34L82.75,89.01z M72.72,89.14l-0.18-0.47c-0.19,0.08-0.32,0.26-0.32,0.47H72.72z"/>
			</g>
			<g>
				<defs>
					<rect id="SVGID_00000147931605144116048560000011412894161918009023_" y="0" width="120" height="120"/>
				</defs>
				<clipPath id="SVGID_00000075128478582501180710000007907043951823031737_">
					<use xlink:href="#SVGID_00000147931605144116048560000011412894161918009023_"  style="overflow:visible;"/>
				</clipPath>
				<path style="clip-path:url(#SVGID_00000075128478582501180710000007907043951823031737_);fill:#F4F4F4;" d="M73.11,90.66
					c-1.07-1.86-1.74-2.04-1.74-2.04s-5.85,1.5-12.56,2.53c-6.48,1-13.85,1.89-18.38,2.85c0.01-3.9-0.09-8.49-0.48-13.59
					c-0.55-7.21-3.62-17.58-3.62-17.58c-2.46,0.55-5.96,2.43-7.45,6c-0.66,1.56-1.27,3.72-1.37,5.91c-0.13,2.53-0.18,5.65-0.33,9.03
					c-0.51,10.96,1.22,18.36,4.07,22.35c1.06,3.1,4.42,3.75,7.84,3.84c3.83,0.1,9.55-2.04,15.57-3.66
					c5.24-1.41,10.34-3.93,14.79-6.16c2.09-1.05,4.29-1.41,5.84-2.71c0,0-0.15-3.27-2.16-6.78L73.11,90.66z"/>
			</g>
			<g>
				<defs>
					<rect id="SVGID_00000165927447324649715810000008064139563474215866_" y="0" width="120" height="120"/>
				</defs>
				<clipPath id="SVGID_00000157987922408080740900000017005185462005739154_">
					<use xlink:href="#SVGID_00000165927447324649715810000008064139563474215866_"  style="overflow:visible;"/>
				</clipPath>
				<path style="clip-path:url(#SVGID_00000157987922408080740900000017005185462005739154_);fill:#050505;" d="M72.77,90.29
					l-0.01,0.02l0.71,0.7L73.48,91L72.77,90.29z M75.29,97.42c0.5-0.02,0.5-0.02,0.5-0.02l0,0l0,0l0,0v-0.01c0-0.01,0-0.02,0-0.03
					c0-0.03,0-0.07-0.01-0.12c-0.01-0.1-0.02-0.25-0.05-0.44c-0.05-0.38-0.13-0.91-0.28-1.56c-0.3-1.29-0.85-3.03-1.89-4.84
					l-0.87,0.5c0.98,1.7,1.5,3.35,1.78,4.57c0.14,0.61,0.22,1.11,0.26,1.46c0.02,0.17,0.03,0.31,0.04,0.4c0,0.04,0.01,0.08,0.01,0.1
					c0,0.01,0,0.02,0,0.02l0,0l0,0l0,0l0,0C74.79,97.44,74.79,97.44,75.29,97.42z M69.67,100.58c1.01-0.51,2.04-0.85,3.07-1.24
					c1.01-0.39,2.02-0.83,2.86-1.54l-0.64-0.76c-0.71,0.59-1.58,0.99-2.57,1.37c-0.98,0.37-2.09,0.74-3.17,1.28L69.67,100.58z
					 M54.79,106.78c5.3-1.42,10.44-3.97,14.89-6.2l-0.45-0.89c-4.46,2.24-9.51,4.73-14.7,6.13L54.79,106.78z M39.08,110.46
					c2,0.05,4.45-0.47,7.11-1.2c1.34-0.36,2.74-0.78,4.18-1.21s2.92-0.86,4.42-1.27l-0.26-0.97c-1.51,0.41-3,0.85-4.44,1.27
					c-1.44,0.43-2.84,0.84-4.16,1.2c-2.66,0.73-4.98,1.22-6.82,1.17L39.08,110.46z M30.78,106.28c0.59,1.72,1.82,2.75,3.32,3.35
					c1.48,0.59,3.25,0.78,4.97,0.82l0.03-1c-1.69-0.04-3.31-0.23-4.63-0.75c-1.3-0.52-2.28-1.36-2.75-2.75L30.78,106.28z
					 M26.69,83.75c-0.51,11,1.22,18.53,4.16,22.66l0.81-0.58c-2.75-3.85-4.48-11.11-3.97-22.03L26.69,83.75z M27.02,74.72
					c-0.13,2.52-0.18,5.69-0.33,9.03l1,0.04c0.15-3.41,0.19-6.48,0.33-9.02L27.02,74.72z M28.43,68.64c-0.67,1.6-1.3,3.82-1.41,6.08
					l1,0.05c0.1-2.12,0.69-4.22,1.33-5.74L28.43,68.64z M36.22,62.35c-2.56,0.58-6.23,2.53-7.8,6.29l0.92,0.39
					c1.41-3.37,4.74-5.17,7.1-5.7L36.22,62.35z M40.45,80.38c-0.28-3.65-1.19-8.07-2.03-11.57c-0.42-1.75-0.82-3.28-1.12-4.37
					c-0.15-0.54-0.27-0.98-0.36-1.28c-0.04-0.15-0.08-0.27-0.1-0.34c-0.01-0.04-0.02-0.07-0.03-0.09c0-0.01-0.01-0.02-0.01-0.02
					s0,0,0-0.01l0,0l0,0c0,0,0,0-0.48,0.14s-0.48,0.14-0.48,0.14l0,0l0,0c0,0,0,0,0,0.01c0,0,0,0.01,0.01,0.02
					c0.01,0.02,0.01,0.05,0.03,0.09c0.02,0.08,0.06,0.19,0.1,0.34c0.08,0.3,0.21,0.73,0.35,1.27c0.3,1.08,0.69,2.6,1.11,4.34
					c0.83,3.49,1.73,7.85,2,11.42L40.45,80.38z M40.93,94c0.01-3.91-0.09-8.51-0.48-13.63l-1,0.08c0.39,5.08,0.49,9.66,0.48,13.55
					L40.93,94z M58.73,90.66c-6.45,1-13.86,1.89-18.41,2.85l0.21,0.98c4.51-0.96,11.84-1.83,18.35-2.84L58.73,90.66z M71.37,88.62
					c-0.12-0.48-0.12-0.48-0.12-0.48l0,0l0,0l0,0h-0.01c-0.01,0-0.03,0.01-0.05,0.01c-0.04,0.01-0.11,0.03-0.2,0.05
					c-0.17,0.04-0.43,0.11-0.75,0.18c-0.65,0.16-1.59,0.38-2.74,0.63c-2.29,0.5-5.42,1.13-8.76,1.65l0.15,0.99
					c3.36-0.52,6.51-1.16,8.82-1.66c1.15-0.25,2.1-0.47,2.76-0.63c0.33-0.08,0.58-0.14,0.76-0.19c0.09-0.02,0.15-0.04,0.2-0.05
					c0.02-0.01,0.04-0.01,0.05-0.01s0.01,0,0.01,0l0,0l0,0l0,0C71.49,89.1,71.49,89.1,71.37,88.62z M73.54,90.41
					c-0.55-0.96-1.02-1.51-1.37-1.84c-0.17-0.16-0.32-0.26-0.44-0.33c-0.06-0.03-0.11-0.06-0.15-0.07
					c-0.02-0.01-0.04-0.02-0.05-0.02s-0.02-0.01-0.02-0.01H71.5l0,0l0,0l0,0c0,0,0,0-0.13,0.48s-0.13,0.48-0.13,0.48l0,0l0,0l0,0
					c0,0,0,0-0.01,0h-0.01c-0.01,0-0.01,0-0.01,0s0.01,0,0.03,0.02c0.04,0.03,0.13,0.08,0.26,0.2c0.25,0.23,0.66,0.7,1.18,1.6
					L73.54,90.41z M73.13,90.64l0.43-0.25c-0.08-0.14-0.21-0.23-0.37-0.25c-0.15-0.02-0.31,0.03-0.42,0.14L73.13,90.64z
					 M75.29,97.42l0.32,0.38c0.12-0.1,0.18-0.25,0.18-0.41L75.29,97.42z M69.45,100.14l0.22,0.45l0,0L69.45,100.14z M54.66,106.3
					l-0.13-0.48l0,0L54.66,106.3z M39.09,109.96l0.01-0.5l0,0L39.09,109.96z M31.25,106.12l0.47-0.16
					c-0.02-0.05-0.04-0.09-0.07-0.13L31.25,106.12z M27.19,83.77l0.5,0.02l0,0L27.19,83.77z M27.52,74.75l0.5,0.03l0,0L27.52,74.75z
					 M28.89,68.84l0.46,0.19l0,0L28.89,68.84z M36.33,62.84l0.48-0.14c-0.07-0.25-0.33-0.4-0.59-0.35L36.33,62.84z M39.95,80.41
					l0.5-0.04l0,0L39.95,80.41z M40.43,94h-0.5c0,0.15,0.07,0.29,0.18,0.39c0.12,0.1,0.27,0.13,0.42,0.1L40.43,94z M58.81,91.15
					l-0.08-0.49l0,0L58.81,91.15z M71.37,88.62l0.13-0.48c-0.08-0.02-0.17-0.02-0.25,0L71.37,88.62z M73.11,90.66l-0.43,0.25
					c0.08,0.14,0.21,0.23,0.37,0.25s0.31-0.03,0.42-0.14L73.11,90.66z"/>
			</g>
			<g>
				<defs>
					<rect id="SVGID_00000089555041384008209540000000798462464192856470_" y="0" width="120" height="120"/>
				</defs>
				<clipPath id="SVGID_00000084495266568642688200000001349926120132123298_">
					<use xlink:href="#SVGID_00000089555041384008209540000000798462464192856470_"  style="overflow:visible;"/>
				</clipPath>
				<path style="clip-path:url(#SVGID_00000084495266568642688200000001349926120132123298_);fill:#050505;" d="M66.39,91.06
					c-0.38,0.33-0.38,0.33-0.38,0.33l0,0l0,0l0,0l0,0c0,0,0.01,0.01,0.01,0.02c0.01,0.02,0.04,0.04,0.06,0.08
					c0.06,0.07,0.14,0.18,0.24,0.32c0.2,0.28,0.47,0.7,0.75,1.24c0.56,1.07,1.15,2.6,1.27,4.44l1-0.07
					c-0.13-2.01-0.77-3.67-1.38-4.83c-0.3-0.58-0.6-1.04-0.82-1.35c-0.11-0.16-0.2-0.28-0.27-0.36c-0.03-0.04-0.06-0.07-0.08-0.1
					c-0.01-0.01-0.02-0.02-0.02-0.03c0,0,0-0.01-0.01-0.01l0,0l0,0l0,0C66.77,90.74,66.77,90.74,66.39,91.06z M68.35,97.49
					c0.02,0.28,0.26,0.48,0.53,0.47s0.48-0.26,0.47-0.53L68.35,97.49z M66.77,90.74c-0.18-0.21-0.5-0.23-0.71-0.05
					s-0.23,0.5-0.05,0.71L66.77,90.74z"/>
			</g>
			<g>
				<defs>
					<rect id="SVGID_00000093153421018538099050000016430496393762760107_" y="0" width="120" height="120"/>
				</defs>
				<clipPath id="SVGID_00000134944051809491273900000011211229991427813305_">
					<use xlink:href="#SVGID_00000093153421018538099050000016430496393762760107_"  style="overflow:visible;"/>
				</clipPath>
				<path style="clip-path:url(#SVGID_00000134944051809491273900000011211229991427813305_);fill:#050505;" d="M39.67,93.87
					c-0.15-0.48-0.15-0.48-0.15-0.48l0,0l0,0l0,0h-0.01c-0.01,0-0.03,0.01-0.05,0.02c-0.04,0.01-0.09,0.03-0.16,0.06
					c-0.14,0.05-0.33,0.13-0.57,0.24c-0.47,0.22-1.12,0.57-1.8,1.06c-1.36,0.99-2.9,2.59-3.51,5.03l0.97,0.24
					c0.54-2.14,1.89-3.56,3.13-4.46c0.62-0.45,1.21-0.76,1.64-0.96c0.21-0.1,0.39-0.17,0.51-0.22c0.06-0.02,0.11-0.04,0.14-0.05
					c0.01-0.01,0.03-0.01,0.03-0.01h0.01l0,0l0,0l0,0C39.82,94.34,39.82,94.34,39.67,93.87z M34.23,94.62
					c0.19,0.46,0.19,0.46,0.19,0.46l0,0l0,0l0,0c0,0,0,0,0.01,0s0.02-0.01,0.03-0.01c0.03-0.01,0.07-0.03,0.12-0.05
					c0.11-0.04,0.26-0.1,0.45-0.17c0.38-0.13,0.9-0.3,1.47-0.45c0.57-0.14,1.17-0.26,1.7-0.28c0.55-0.03,0.96,0.04,1.22,0.18
					l0.49-0.87c-0.5-0.28-1.15-0.34-1.76-0.31c-0.63,0.03-1.29,0.16-1.89,0.31c-0.6,0.15-1.16,0.33-1.56,0.47
					c-0.2,0.07-0.36,0.13-0.48,0.18c-0.06,0.02-0.1,0.04-0.13,0.05c-0.02,0.01-0.03,0.01-0.04,0.01h-0.01l0,0l0,0l0,0
					C34.04,94.16,34.04,94.16,34.23,94.62z M33.41,99.81c-0.07,0.27,0.1,0.54,0.36,0.61c0.27,0.07,0.54-0.1,0.61-0.36L33.41,99.81z
					 M39.67,93.87l0.15,0.48c0.19-0.06,0.32-0.23,0.34-0.43s-0.08-0.39-0.25-0.49L39.67,93.87z M34.04,94.16
					c-0.26,0.1-0.38,0.4-0.27,0.65c0.1,0.26,0.4,0.38,0.65,0.27L34.04,94.16z"/>
			</g>
			<g>
				<defs>
					<rect id="SVGID_00000125576134131398154720000013551828429993062801_" y="0" width="120" height="120"/>
				</defs>
				<clipPath id="SVGID_00000096025030316378088700000006688288761578801056_">
					<use xlink:href="#SVGID_00000125576134131398154720000013551828429993062801_"  style="overflow:visible;"/>
				</clipPath>
				<path style="clip-path:url(#SVGID_00000096025030316378088700000006688288761578801056_);fill:#F4F4F4;" d="M57.34,91.38
					c0,0-0.52-1.8-2.16-3.33c-0.74-0.69-3.41-3.1-4.39-3.4c-1.56-0.46-3.02,0.19-4.44-0.13c-2.79-0.64-7.49-2.02-9.24-1.77
					c0,0-1.44,0.12-0.63,1.5c0,0,5.79,1.95,8.48,3.27c-1.34-0.67-8.1-3.4-9.58-3.28c0,0-2.31,1.11,0.89,2.41c0,0,5.62,1.8,7.27,3.13
					c0.04-0.19-7.52-3.21-7.64-3.16c0,0-4.23,1.03,6.15,5.26c0,0-2.95-1.08-3.65-1.41c-3.5-1.38-5.09,1.59,2.64,3.67
					c0,0,5.76-1.08,8.88-1.72c3.4-0.7,7.4-1.06,7.4-1.06L57.34,91.38z"/>
			</g>
			<g>
				<defs>
					<rect id="SVGID_00000154423119839249597140000003549534578552285366_" y="0" width="120" height="120"/>
				</defs>
				<clipPath id="SVGID_00000027604739620467560620000014553366249970332824_">
					<use xlink:href="#SVGID_00000154423119839249597140000003549534578552285366_"  style="overflow:visible;"/>
				</clipPath>
				<path style="clip-path:url(#SVGID_00000027604739620467560620000014553366249970332824_);fill:#050505;" d="M56.87,91.57
					l0.01,0.03l0.9-0.44l-0.01-0.03L56.87,91.57z M50.02,92.9c1.68-0.35,3.52-0.61,4.94-0.79c0.71-0.09,1.31-0.16,1.74-0.2
					c0.21-0.02,0.38-0.04,0.5-0.05c0.06-0.01,0.1-0.01,0.13-0.01c0.01,0,0.03,0,0.03,0h0.01l0,0l0,0l0,0c0,0,0,0-0.04-0.5
					s-0.04-0.5-0.04-0.5l0,0l0,0l0,0h-0.01c-0.01,0-0.02,0-0.04,0c-0.03,0-0.08,0.01-0.13,0.01c-0.12,0.01-0.29,0.03-0.5,0.05
					c-0.43,0.05-1.04,0.11-1.76,0.2c-1.43,0.18-3.3,0.45-5.01,0.8L50.02,92.9z M41.04,94.14c0.09,0.49,0.09,0.49,0.09,0.49l0,0l0,0
					l0,0h0.01c0.01,0,0.03-0.01,0.05-0.01c0.04-0.01,0.11-0.02,0.19-0.04c0.16-0.03,0.4-0.08,0.7-0.13
					c0.59-0.11,1.41-0.27,2.32-0.44c1.83-0.35,4.05-0.78,5.61-1.11l-0.2-0.98c-1.55,0.32-3.77,0.75-5.6,1.1
					c-0.91,0.18-1.73,0.33-2.32,0.44c-0.29,0.06-0.53,0.1-0.7,0.13c-0.08,0.02-0.15,0.03-0.19,0.04c-0.02,0-0.04,0.01-0.05,0.01
					s-0.01,0-0.01,0l0,0l0,0l0,0C40.95,93.65,40.95,93.65,41.04,94.14z M38.59,90c-0.93-0.37-1.79-0.47-2.44-0.32
					c-0.33,0.07-0.63,0.22-0.85,0.46c-0.23,0.26-0.33,0.59-0.27,0.94c0.05,0.33,0.23,0.65,0.49,0.95c0.26,0.3,0.63,0.6,1.1,0.89
					c0.94,0.58,2.34,1.18,4.3,1.71l0.26-0.97c-1.9-0.51-3.2-1.07-4.03-1.59c-0.41-0.26-0.7-0.5-0.88-0.7
					c-0.18-0.21-0.24-0.36-0.26-0.44c-0.01-0.06,0-0.09,0.03-0.12c0.04-0.04,0.13-0.11,0.33-0.15c0.39-0.09,1.04-0.04,1.86,0.28
					L38.59,90z M42.05,91.87c0.17-0.47,0.17-0.47,0.17-0.47l0,0l0,0l0,0c0,0,0,0-0.01,0s-0.01-0.01-0.02-0.01
					c-0.02-0.01-0.05-0.02-0.09-0.03c-0.08-0.03-0.2-0.07-0.34-0.13c-0.29-0.11-0.68-0.25-1.09-0.41c-0.83-0.31-1.72-0.66-2.05-0.81
					l-0.43,0.9c0.37,0.18,1.31,0.54,2.12,0.84c0.41,0.16,0.81,0.3,1.09,0.41c0.14,0.05,0.26,0.1,0.34,0.13
					c0.04,0.02,0.07,0.03,0.1,0.03c0.01,0,0.02,0.01,0.02,0.01s0,0,0.01,0l0,0l0,0l0,0C41.88,92.34,41.88,92.34,42.05,91.87z
					 M35.9,86.61c-0.12-0.49-0.12-0.49-0.12-0.49l0,0l0,0c0,0,0,0-0.01,0c0,0-0.01,0-0.02,0c-0.01,0-0.03,0.01-0.05,0.01
					c-0.04,0.01-0.09,0.03-0.15,0.05c-0.12,0.05-0.28,0.12-0.44,0.23s-0.34,0.28-0.46,0.52c-0.12,0.25-0.15,0.55-0.05,0.86
					c0.18,0.58,0.76,1.19,1.83,1.88c1.1,0.72,2.82,1.59,5.43,2.65l0.38-0.93c-2.58-1.05-4.23-1.9-5.26-2.56
					c-1.05-0.68-1.36-1.13-1.42-1.34c-0.02-0.08-0.01-0.11,0-0.13c0.02-0.03,0.05-0.08,0.13-0.13c0.07-0.05,0.16-0.09,0.23-0.12
					c0.03-0.01,0.06-0.02,0.08-0.03c0.01,0,0.02,0,0.02-0.01l0,0l0,0l0,0l0,0C36.02,87.09,36.02,87.1,35.9,86.61z M44.03,89.89
					c0.05-0.21-0.05-0.36-0.08-0.4c-0.04-0.06-0.08-0.09-0.1-0.11c-0.04-0.04-0.09-0.07-0.13-0.09c-0.07-0.05-0.17-0.1-0.27-0.15
					c-0.21-0.11-0.52-0.24-0.87-0.4c-0.71-0.31-1.66-0.71-2.61-1.09c-0.95-0.39-1.91-0.77-2.64-1.05c-0.36-0.14-0.67-0.26-0.9-0.34
					c-0.11-0.04-0.21-0.07-0.28-0.1c-0.03-0.01-0.07-0.02-0.1-0.03c-0.02,0-0.04-0.01-0.07-0.01c-0.01,0-0.04-0.01-0.07-0.01
					c-0.02,0-0.1,0-0.19,0.03l0.35,0.94c-0.09,0.03-0.16,0.03-0.18,0.03c-0.03,0-0.05,0-0.06,0c-0.01,0-0.02,0-0.02,0H35.8
					c0,0,0,0,0.01,0s0.02,0.01,0.03,0.01c0.05,0.02,0.13,0.04,0.24,0.08c0.21,0.08,0.51,0.19,0.88,0.33
					c0.72,0.28,1.67,0.66,2.62,1.04c0.95,0.39,1.89,0.78,2.59,1.08c0.35,0.15,0.63,0.28,0.83,0.38c0.1,0.05,0.16,0.08,0.19,0.1
					c0.02,0.01,0.01,0.01-0.01-0.01c-0.01-0.01-0.04-0.03-0.07-0.08c-0.02-0.03-0.12-0.18-0.07-0.38L44.03,89.89z M36.27,86.64
					c-0.15,0.48-0.15,0.48-0.15,0.48l0,0l0,0l0,0h0.01c0.01,0,0.03,0.01,0.05,0.01c0.04,0.01,0.1,0.03,0.18,0.06
					c0.16,0.05,0.38,0.13,0.65,0.22c0.55,0.19,1.3,0.45,2.09,0.76c0.8,0.31,1.64,0.65,2.39,1s1.37,0.7,1.73,0.99l0.63-0.78
					c-0.46-0.37-1.17-0.76-1.93-1.12c-0.77-0.36-1.64-0.72-2.45-1.03s-1.57-0.58-2.13-0.77c-0.28-0.1-0.51-0.17-0.66-0.22
					c-0.08-0.03-0.14-0.05-0.18-0.06c-0.02-0.01-0.04-0.01-0.05-0.02c-0.01,0-0.01,0-0.01,0l0,0l0,0l0,0
					C36.43,86.16,36.43,86.16,36.27,86.64z M35.38,84.22c-0.22-0.45-0.22-0.45-0.22-0.45l0,0l0,0l0,0h-0.01
					c-0.01,0-0.02,0.01-0.03,0.01c-0.02,0.01-0.05,0.03-0.09,0.05c-0.07,0.04-0.16,0.1-0.27,0.18c-0.19,0.14-0.47,0.39-0.61,0.74
					c-0.07,0.18-0.11,0.4-0.07,0.63c0.04,0.23,0.14,0.45,0.3,0.64c0.31,0.38,0.86,0.74,1.69,1.08l0.38-0.93
					c-0.77-0.32-1.14-0.59-1.29-0.78c-0.07-0.09-0.09-0.15-0.09-0.17c0-0.03,0-0.05,0.01-0.09c0.04-0.09,0.14-0.2,0.28-0.31
					c0.06-0.05,0.12-0.09,0.17-0.11c0.02-0.01,0.04-0.02,0.05-0.03c0.01,0,0.01,0,0.01-0.01l0,0l0,0l0,0l0,0
					C35.6,84.68,35.6,84.68,35.38,84.22z M45.18,87.06c-0.7-0.35-2.74-1.21-4.79-1.96c-1.03-0.38-2.06-0.73-2.94-0.99
					c-0.44-0.13-0.84-0.23-1.19-0.3c-0.34-0.07-0.66-0.11-0.92-0.09l0.08,1c0.11-0.01,0.32,0.01,0.64,0.07
					c0.31,0.06,0.68,0.16,1.11,0.28c0.85,0.24,1.86,0.59,2.88,0.97c2.04,0.75,4.04,1.59,4.69,1.92L45.18,87.06z M36.48,84.24
					c-0.16,0.47-0.16,0.47-0.16,0.47l0,0l0,0l0,0h0.01c0.01,0,0.03,0.01,0.05,0.02c0.04,0.01,0.11,0.04,0.19,0.06
					c0.16,0.06,0.4,0.14,0.69,0.24c0.58,0.2,1.39,0.49,2.28,0.81c1.78,0.65,3.88,1.46,5.19,2.11l0.44-0.9
					c-1.37-0.67-3.51-1.5-5.29-2.15c-0.9-0.33-1.71-0.61-2.29-0.82c-0.29-0.1-0.53-0.18-0.7-0.24c-0.08-0.03-0.15-0.05-0.19-0.06
					c-0.02-0.01-0.04-0.01-0.05-0.02c-0.01,0-0.01,0-0.01,0l0,0l0,0l0,0C36.64,83.77,36.64,83.77,36.48,84.24z M37.11,82.74
					c-0.04-0.5-0.04-0.5-0.04-0.5l0,0l0,0l0,0c0,0,0,0-0.01,0s-0.01,0-0.02,0c-0.02,0-0.04,0-0.06,0.01
					c-0.05,0.01-0.12,0.02-0.2,0.04c-0.16,0.04-0.38,0.12-0.59,0.28c-0.21,0.17-0.41,0.43-0.44,0.8c-0.03,0.35,0.08,0.72,0.32,1.12
					l0.86-0.51c-0.17-0.29-0.19-0.45-0.18-0.51c0-0.04,0.02-0.07,0.06-0.11c0.06-0.04,0.14-0.08,0.23-0.1
					c0.04-0.01,0.08-0.02,0.1-0.02c0.01,0,0.02,0,0.02,0l0,0l0,0l0,0l0,0l0,0C37.15,83.24,37.15,83.24,37.11,82.74z M46.46,84.02
					c-0.69-0.16-1.5-0.37-2.36-0.58c-0.86-0.22-1.77-0.44-2.65-0.64s-1.73-0.37-2.48-0.48c-0.74-0.1-1.42-0.15-1.93-0.08l0.14,0.99
					c0.36-0.05,0.92-0.02,1.64,0.08c0.71,0.1,1.53,0.27,2.4,0.46c0.86,0.2,1.76,0.42,2.62,0.64s1.68,0.42,2.38,0.59L46.46,84.02z
					 M50.93,84.17c-0.88-0.26-1.72-0.2-2.46-0.14c-0.76,0.07-1.39,0.14-2.01-0.01L46.23,85c0.8,0.19,1.61,0.09,2.32,0.03
					c0.74-0.07,1.41-0.1,2.09,0.1L50.93,84.17z M55.52,87.68c-0.38-0.35-1.24-1.13-2.13-1.87c-0.45-0.37-0.91-0.73-1.32-1.02
					c-0.4-0.28-0.81-0.53-1.14-0.63l-0.29,0.96c0.16,0.05,0.46,0.21,0.86,0.49c0.38,0.27,0.82,0.61,1.26,0.97
					c0.87,0.72,1.72,1.49,2.09,1.83L55.52,87.68z M57.34,91.38c0.48-0.14,0.48-0.14,0.48-0.14l0,0l0,0l0,0c0,0,0,0,0-0.01
					s0-0.01-0.01-0.02c-0.01-0.02-0.01-0.04-0.02-0.07c-0.02-0.06-0.05-0.14-0.09-0.25c-0.08-0.21-0.2-0.5-0.38-0.84
					c-0.35-0.68-0.93-1.56-1.8-2.37l-0.68,0.73c0.77,0.72,1.28,1.5,1.59,2.1c0.16,0.3,0.27,0.56,0.34,0.73
					c0.03,0.09,0.06,0.16,0.07,0.2c0.01,0.02,0.01,0.04,0.02,0.05c0,0.01,0,0.01,0,0.01l0,0l0,0l0,0l0,0
					C56.86,91.52,56.86,91.52,57.34,91.38z M57.32,91.35l0.45-0.22c-0.09-0.18-0.29-0.29-0.49-0.28L57.32,91.35z M49.92,92.41
					l0.1,0.49l0,0L49.92,92.41z M41.04,94.14l-0.13,0.48c0.07,0.02,0.15,0.02,0.22,0.01L41.04,94.14z M38.4,90.46l0.21-0.45
					c-0.01,0-0.02-0.01-0.03-0.01L38.4,90.46z M42.05,91.87l-0.17,0.47c0.26,0.09,0.54-0.03,0.64-0.29c0.1-0.25-0.03-0.54-0.28-0.64
					L42.05,91.87z M35.9,86.61l0.12,0.49c0.02,0,0.04-0.01,0.06-0.02L35.9,86.61z M43.54,89.77l-0.31,0.39
					c0.13,0.11,0.31,0.14,0.48,0.08s0.29-0.19,0.32-0.36L43.54,89.77z M36.27,86.64l-0.19,0.46c0.01,0,0.02,0.01,0.04,0.01
					L36.27,86.64z M35.38,84.22l-0.04-0.5c-0.06,0-0.12,0.02-0.18,0.05L35.38,84.22z M44.96,87.51l-0.22,0.45
					c0.25,0.12,0.55,0.02,0.67-0.23s0.02-0.55-0.22-0.67L44.96,87.51z M36.48,84.24l-0.43,0.26c0.06,0.1,0.16,0.18,0.27,0.22
					L36.48,84.24z M37.11,82.74l0.04,0.5c0.01,0,0.02,0,0.03,0L37.11,82.74z M46.34,84.51l0.11-0.49l0,0L46.34,84.51z M50.78,84.64
					l0.15-0.48l0,0L50.78,84.64z M55.18,88.05l0.34-0.37l0,0L55.18,88.05z M57.34,91.38l-0.45,0.22c0.12,0.23,0.39,0.34,0.63,0.24
					s0.37-0.36,0.3-0.61L57.34,91.38z"/>
			</g>
			<g>
				<defs>
					<rect id="SVGID_00000054227491991327816690000009307955376189463221_" y="0" width="120" height="120"/>
				</defs>
				<clipPath id="SVGID_00000168796735435155308270000013558317160776157361_">
					<use xlink:href="#SVGID_00000054227491991327816690000009307955376189463221_"  style="overflow:visible;"/>
				</clipPath>
				<path style="clip-path:url(#SVGID_00000168796735435155308270000013558317160776157361_);fill:#050505;" d="M46.6,84.55
					c-0.12,0.48-0.12,0.48-0.12,0.48l0,0l0,0l0,0l0,0c0,0,0.01,0,0.02,0c0.02,0,0.04,0.01,0.08,0.02c0.07,0.02,0.16,0.04,0.28,0.08
					c0.23,0.06,0.55,0.16,0.89,0.26c0.34,0.11,0.68,0.23,0.98,0.35c0.31,0.13,0.51,0.24,0.59,0.31l0.66-0.75
					c-0.22-0.19-0.55-0.35-0.86-0.49c-0.33-0.14-0.71-0.27-1.06-0.38c-0.35-0.11-0.68-0.21-0.92-0.27
					c-0.12-0.03-0.22-0.06-0.29-0.08c-0.03-0.01-0.06-0.02-0.08-0.02c-0.01,0-0.02,0-0.02-0.01c0,0,0,0-0.01,0l0,0l0,0l0,0
					C46.72,84.07,46.72,84.07,46.6,84.55z M49.3,86.07c0.21,0.18,0.52,0.16,0.71-0.04c0.18-0.21,0.16-0.52-0.04-0.71L49.3,86.07z
					 M46.72,84.07c-0.27-0.07-0.54,0.1-0.61,0.36c-0.07,0.27,0.1,0.54,0.36,0.61L46.72,84.07z"/>
			</g>
		</g>
	</g>
	<path style="clip-path:url(#SVGID_00000065072462068408199330000007365624794020743358_);fill:#80ABFF;" d="M99.34,15.05
		c-4.72,1.37-8.32,3.73-8.32,3.73s0.64-5.94,3.41-8.53s5.19-2.98,6.77-1.26C102.78,10.72,102.97,13.99,99.34,15.05z"/>
	<path style="clip-path:url(#SVGID_00000065072462068408199330000007365624794020743358_);fill:#80ABFF;" d="M100.2,23.54
		c-2.37-0.62-4.51-0.55-4.51-0.55s1.84-2.59,3.68-2.99c1.84-0.39,2.92,0.27,3.17,1.42S102.03,24.01,100.2,23.54L100.2,23.54z"/>
</g>
</svg>
