<svg width="74" height="74" viewBox="0 0 74 74" fill="none" xmlns="http://www.w3.org/2000/svg">
<path d="M52.1378 45.3073L24.5049 26.2275" stroke="#80ABFF" stroke-width="1.5" stroke-linecap="round" stroke-linejoin="round"/>
<path d="M63.7564 53.343L63.7418 53.333" stroke="#80ABFF" stroke-width="1.5" stroke-linecap="round" stroke-linejoin="round"/>
<path d="M61.7496 56.2551L61.7351 56.2451" stroke="#80ABFF" stroke-width="1.5" stroke-linecap="round" stroke-linejoin="round"/>
<path d="M50.1294 48.2259L22.9996 29.5156" stroke="#80ABFF" stroke-width="1.5" stroke-linecap="round" stroke-linejoin="round"/>
<path d="M19.4292 22.5875L17.1871 25.1729L37.7203 39.3329L38.9111 36.9407L19.4292 22.5875Z" fill="#80ABFF"/>
<path d="M3.50833 18.0163L1.99282 16.9694C0.496337 15.9479 0.122659 13.9135 1.15588 12.4129L1.29213 12.215C2.314 10.7309 4.34538 10.3578 5.84187 11.3793L7.35738 12.4262" fill="#80ABFF"/>
<path d="M70.4974 55.9691L72.0129 57.0159C73.5094 58.0375 73.8831 60.0719 72.8499 61.5725L72.7136 61.7704C71.6917 63.2545 69.6604 63.6276 68.1639 62.606L66.6484 61.5592" fill="#80ABFF"/>
<path d="M18.7045 22.2257L16.7039 25.1296L12.8502 30.7231C12.8502 30.7231 12.8207 30.7659 12.8017 30.7843L10.7185 33.8081C9.61621 35.4171 10.0203 37.6174 11.6211 38.7225C13.2291 39.8263 15.4273 39.4225 16.5309 37.8207L22.5091 29.1435L24.517 26.2383" stroke="white" stroke-width="1.5" stroke-linecap="round" stroke-linejoin="round"/>
<path d="M29.2009 19.4377L24.5163 26.2454" stroke="white" stroke-width="1.5" stroke-linecap="round" stroke-linejoin="round"/>
<path d="M22.5778 16.6161L24.6847 13.5584C25.7883 11.9568 27.9864 11.553 29.5872 12.6579C31.1951 13.7615 31.5992 15.9615 30.4884 17.5645L29.0556 19.653" stroke="white" stroke-width="1.5" stroke-linecap="round" stroke-linejoin="round"/>
<path d="M22.5743 16.6133C22.5743 16.6133 22.5697 16.6291 22.5638 16.6377L18.7102 22.2316L16.7096 25.1356L12.856 30.7295C12.856 30.7295 12.8265 30.7723 12.8075 30.7908C11.6887 32.3506 9.52272 32.726 7.94628 31.6313C6.34549 30.5261 5.94132 28.3257 7.04488 26.7237L9.60017 23.0145C9.60017 23.0145 9.64871 22.9532 9.67232 22.9189L10.9057 21.1285L12.9063 18.2245L14.141 16.4414C14.1764 16.39 14.2118 16.3386 14.24 16.2885L16.7526 12.632C17.8621 11.0215 20.053 10.619 21.6624 11.7301C23.2717 12.8413 23.6634 15.0141 22.5815 16.612L22.5743 16.6133Z" stroke="white" stroke-width="1.5" stroke-linecap="round" stroke-linejoin="round"/>
<path d="M10.8997 21.1228L9.66606 22.9119L10.8924 21.1241L10.8997 21.1228Z" stroke="white" stroke-width="1.5" stroke-linecap="round" stroke-linejoin="round"/>
<path d="M14.2355 16.288C14.2073 16.338 14.1719 16.3894 14.1365 16.4408L12.9018 18.2238L10.9012 21.1277L10.8939 21.129L9.66774 22.9179C9.66774 22.9179 9.62053 22.9865 9.59559 23.0135C8.47148 24.5443 6.33305 24.9071 4.76518 23.8184C3.15718 22.7147 2.75304 20.5144 3.86385 18.9113L5.09727 17.121L7.09788 14.2172L8.32406 12.4282C9.43488 10.8251 11.6258 10.4227 13.2339 11.5264C14.7846 12.6033 15.2135 14.6943 14.2355 16.288Z" stroke="white" stroke-width="1.5" stroke-linecap="round" stroke-linejoin="round"/>
<path d="M10.8997 21.1228L9.66606 22.9119L10.8924 21.1241L10.8997 21.1228Z" stroke="white" stroke-width="1.5" stroke-linecap="round" stroke-linejoin="round"/>
<path d="M63.9264 40.6663L61.8138 43.7333L61.802 43.7504L57.9485 49.3446L55.9493 52.2561L52.0945 57.843C52.0945 57.843 52.065 57.8859 52.0546 57.9102L49.9715 60.9344C48.8607 62.5377 46.6626 62.9415 45.0618 61.8362C43.4596 60.7236 43.0554 58.523 44.159 56.921L50.1368 48.2427L52.1446 45.3372L58.1225 36.6589C59.2246 35.0496 61.4228 34.6459 63.0249 35.7584C64.6329 36.8624 65.0371 39.063 63.9264 40.6663Z" stroke="white" stroke-width="1.5" stroke-linecap="round" stroke-linejoin="round"/>
<path d="M67.6072 47.7662L65.1476 51.3457C65.1476 51.3457 65.1096 51.3826 65.0945 51.4228C65.0564 51.4597 65.0138 51.5124 64.9784 51.5638L63.7522 53.3529L61.7444 56.2582L60.5183 58.0473C60.5183 58.0473 60.4711 58.1158 60.4547 58.1487L57.8994 61.858C56.7959 63.4599 54.5977 63.8637 52.9969 62.7585C51.4145 61.6724 50.9953 59.5121 52.0542 57.9109C52.0646 57.8865 52.0764 57.8694 52.0942 57.8437L55.9491 52.257L57.9483 49.3458L61.8019 43.7519L61.8137 43.7348C62.9199 42.1473 65.1122 41.7521 66.7044 42.8514C68.2967 43.9507 68.7166 46.1557 67.6072 47.7662Z" stroke="white" stroke-width="1.5" stroke-linecap="round" stroke-linejoin="round"/>
<path d="M65.0932 51.4268L63.7595 53.3625L61.7516 56.2673L60.4532 58.1516C60.4532 58.1516 60.4932 58.0844 60.5168 58.0501L61.743 56.2614L63.7509 53.3566L64.9771 51.5678C65.0125 51.5164 65.0551 51.4637 65.0932 51.4268Z" stroke="white" stroke-width="1.5" stroke-linecap="round" stroke-linejoin="round"/>
<path d="M70.7876 55.5606L69.5528 57.3436L67.5535 60.2547L66.3188 62.0377C65.2165 63.6467 63.0183 64.0505 61.4162 62.9382C59.8497 61.8567 59.4286 59.7269 60.4513 58.1325L61.7496 56.248L63.7575 53.3428L65.0912 51.4069C65.0912 51.4069 65.1253 51.3483 65.1443 51.3298C66.2956 49.9063 68.3539 49.5956 69.8849 50.6462C71.487 51.7585 71.8911 53.9588 70.7876 55.5606Z" stroke="white" stroke-width="1.5" stroke-linecap="round" stroke-linejoin="round"/>
<path d="M65.0932 51.4268L63.7595 53.3625L61.7516 56.2673L60.4532 58.1516C60.4532 58.1516 60.4932 58.0844 60.5168 58.0501L61.743 56.2614L63.7509 53.3566L64.9771 51.5678C65.0125 51.5164 65.0551 51.4637 65.0932 51.4268Z" stroke="white" stroke-width="1.5" stroke-linecap="round" stroke-linejoin="round"/>
</svg>
