<svg width="90" height="90" viewBox="0 0 90 90" fill="none" xmlns="http://www.w3.org/2000/svg">
<path d="M44.7583 41.8285V31.5156" stroke="#80ABFF" stroke-width="1.75715" stroke-linecap="round" stroke-linejoin="round"/>
<path d="M44.7571 27.4766C46.9927 27.4766 48.8003 29.2842 48.8003 31.5198C48.8003 33.7554 46.9927 35.563 44.7571 35.563C42.5215 35.563 40.7139 33.7554 40.7139 31.5198C40.7139 29.2842 42.5215 27.4766 44.7571 27.4766Z" fill="#80ABFF"/>
<path d="M32.5306 41.8328V31.5199L26.4243 25.4136V17.0078" stroke="#80ABFF" stroke-width="1.75715" stroke-linecap="round" stroke-linejoin="round"/>
<path d="M26.4237 14.207C27.9694 14.207 29.2277 15.459 29.2277 17.0111C29.2277 18.5632 27.9758 19.8151 26.4237 19.8151C24.8716 19.8151 23.6196 18.5632 23.6196 17.0111C23.6196 15.459 24.8716 14.207 26.4237 14.207Z" fill="#80ABFF"/>
<path d="M56.9834 41.8328V31.5199L63.0897 25.4136V17.0078" stroke="#80ABFF" stroke-width="1.75715" stroke-linecap="round" stroke-linejoin="round"/>
<path d="M63.0902 14.207C61.5444 14.207 60.2861 15.459 60.2861 17.0111C60.2861 18.5632 61.5381 19.8151 63.0902 19.8151C64.6423 19.8151 65.8942 18.5632 65.8942 17.0111C65.8942 15.459 64.6423 14.207 63.0902 14.207Z" fill="#80ABFF"/>
<path d="M76.5475 76.2733V71.5084H70.0196C69.3489 67.9059 67.9373 64.5781 65.9572 61.6654L70.5625 57.0601L63.8303 50.315L59.2122 54.9331C56.3123 52.9403 52.9653 51.5287 49.382 50.858V44.3301H39.8457V50.858C36.2432 51.5287 32.9154 52.9403 30.0155 54.9331L25.3975 50.315L18.6524 57.0601L23.2705 61.6654C21.2776 64.5781 19.866 67.9123 19.1953 71.5084H12.6738V76.2733" stroke="#050505" stroke-width="1.5" stroke-linecap="round" stroke-linejoin="round"/>
<path d="M26.5342 76.276C26.5342 66.2862 34.627 58.1934 44.604 58.1934C54.5811 58.1934 62.6867 66.2862 62.6867 76.276" stroke="#050505" stroke-width="1.5" stroke-linecap="round" stroke-linejoin="round"/>
<path d="M36.3779 76.2699C36.3779 71.7285 40.0634 68.043 44.6049 68.043C49.1463 68.043 52.8318 71.7285 52.8318 76.2699" stroke="#050505" stroke-width="1.5" stroke-linecap="round" stroke-linejoin="round"/>
</svg>
