<svg width="91" height="90" viewBox="0 0 91 90" fill="none" xmlns="http://www.w3.org/2000/svg">
<path d="M57.3154 58.1899C54.1598 61.0863 49.9297 62.8585 45.2758 62.8585C35.5292 62.8585 27.6289 55.085 27.6289 45.4947C27.6289 35.9044 35.5292 28.1309 45.2758 28.1309C55.0225 28.1309 62.9228 35.9044 62.9228 45.4947C62.9228 49.0836 61.8179 52.4119 59.9261 55.1817" stroke="#050505" stroke-width="1.5" stroke-linecap="round" stroke-linejoin="round"/>
<path d="M73.3183 60.2621L65.1724 52.2852" stroke="#050505" stroke-width="1.5" stroke-linecap="round" stroke-linejoin="round"/>
<path d="M72.1719 63.1872C72.1719 60.9683 73.9956 59.1738 76.2506 59.1738C78.5057 59.1738 80.3294 60.9683 80.3294 63.1872C80.3294 65.406 78.5057 67.2005 76.2506 67.2005C73.9956 67.2005 72.1719 65.406 72.1719 63.1872Z" stroke="#050505" stroke-width="1.5" stroke-linecap="round" stroke-linejoin="round"/>
<path d="M73.3188 28.1797L65.1729 36.1573" stroke="#050505" stroke-width="1.5" stroke-linecap="round" stroke-linejoin="round"/>
<path d="M72.1724 25.2555C72.1724 27.4744 73.9961 29.2688 76.2511 29.2688C78.5062 29.2688 80.3299 27.4744 80.3299 25.2555C80.3299 23.0366 78.5062 21.2422 76.2511 21.2422C73.9961 21.2422 72.1724 23.0366 72.1724 25.2555Z" stroke="#050505" stroke-width="1.5" stroke-linecap="round" stroke-linejoin="round"/>
<path d="M65.4316 44.6543H71.5657" stroke="#050505" stroke-width="1.5" stroke-linecap="round" stroke-linejoin="round"/>
<path d="M72.1719 44.2204C72.1719 42.0015 73.9956 40.207 76.2506 40.207C78.5057 40.207 80.3294 42.0015 80.3294 44.2204C80.3294 46.4392 78.5057 48.2337 76.2506 48.2337C73.9956 48.2337 72.1719 46.4392 72.1719 44.2204Z" stroke="#050505" stroke-width="1.5" stroke-linecap="round" stroke-linejoin="round"/>
<path d="M17.2359 60.2621L25.3818 52.2852" stroke="#050505" stroke-width="1.5" stroke-linecap="round" stroke-linejoin="round"/>
<path d="M18.3823 63.1872C18.3823 60.9683 16.5586 59.1738 14.3036 59.1738C12.0485 59.1738 10.2248 60.9683 10.2248 63.1872C10.2248 65.406 12.0485 67.2005 14.3036 67.2005C16.5586 67.2005 18.3823 65.406 18.3823 63.1872Z" stroke="#050505" stroke-width="1.5" stroke-linecap="round" stroke-linejoin="round"/>
<path d="M17.2354 28.1797L25.3813 36.1573" stroke="#050505" stroke-width="1.5" stroke-linecap="round" stroke-linejoin="round"/>
<path d="M18.3818 25.2555C18.3818 27.4744 16.5581 29.2688 14.3031 29.2688C12.048 29.2688 10.2243 27.4744 10.2243 25.2555C10.2243 23.0366 12.048 21.2422 14.3031 21.2422C16.5581 21.2422 18.3818 23.0366 18.3818 25.2555Z" stroke="#050505" stroke-width="1.5" stroke-linecap="round" stroke-linejoin="round"/>
<path d="M25.1226 44.6543H18.9885" stroke="#050505" stroke-width="1.5" stroke-linecap="round" stroke-linejoin="round"/>
<path d="M18.3823 44.2204C18.3823 42.0015 16.5586 40.207 14.3036 40.207C12.0485 40.207 10.2248 42.0015 10.2248 44.2204C10.2248 46.4392 12.0485 48.2337 14.3036 48.2337C16.5586 48.2337 18.3823 46.4392 18.3823 44.2204Z" stroke="#050505" stroke-width="1.5" stroke-linecap="round" stroke-linejoin="round"/>
<path fill-rule="evenodd" clip-rule="evenodd" d="M37.6637 50.6582C37.0262 49.7191 36.5698 48.6576 36.3434 47.5144H34.4385V44.1146H36.3434C36.566 42.9715 37.0262 41.9025 37.6637 40.9709L36.3208 39.6422L38.7539 37.237L40.1043 38.5658C41.0549 37.9422 42.1413 37.4931 43.3031 37.2593V35.3887H46.7622V37.263C47.9241 37.4894 49.0067 37.9422 49.9611 38.5695L51.3115 37.2408L53.7446 39.6422L52.4017 40.9709C53.0392 41.9099 53.4956 42.9715 53.7219 44.1146H55.6269V47.5144H53.7219C53.4994 48.6576 53.0392 49.7266 52.4017 50.6582L53.7446 51.9869L51.3115 54.392L49.9611 53.0633C49.0105 53.6868 47.9241 54.1359 46.7622 54.3698V56.2404H43.3031V54.366C42.1413 54.1396 41.0587 53.6868 40.1043 53.0596L38.7539 54.3883L36.3208 51.9869L37.6637 50.6582ZM44.9969 50.9774C47.9135 50.9774 50.278 48.651 50.278 45.7812C50.278 42.9114 47.9135 40.585 44.9969 40.585C42.0802 40.585 39.7158 42.9114 39.7158 45.7812C39.7158 48.651 42.0802 50.9774 44.9969 50.9774Z" fill="#80ABFF"/>
</svg>
