<svg width="91" height="90" viewBox="0 0 91 90" fill="none" xmlns="http://www.w3.org/2000/svg">
<path d="M74.2711 62.8545C73.2231 64.5948 72.0242 66.2285 70.7009 67.7557C64.342 75.0541 54.9901 79.6622 44.5548 79.6622C25.4159 79.6622 9.8916 64.142 9.8916 45.008C9.8916 25.874 25.407 10.3359 44.5548 10.3359C63.7025 10.3359 79.2179 25.8562 79.2179 44.9902C79.2179 49.6694 78.2943 54.1266 76.6069 58.202" stroke="#050505" stroke-width="1.5" stroke-linecap="round" stroke-linejoin="round"/>
<path d="M70.3195 60.4472C69.4246 61.9528 68.4008 63.3663 67.2708 64.6875C61.8407 71.0019 53.8548 74.9887 44.9438 74.9887C28.6004 74.9887 15.3438 61.561 15.3438 45.0069C15.3438 28.4528 28.5928 15.0098 44.9438 15.0098C61.2947 15.0098 74.5438 28.4374 74.5438 44.9916C74.5438 49.0398 73.755 52.8961 72.3141 56.422" stroke="#050505" stroke-width="1.5" stroke-linecap="round" stroke-linejoin="round"/>
<path d="M44.8018 22.2676V23.6855" stroke="#050505" stroke-width="1.5" stroke-linecap="round" stroke-linejoin="round"/>
<path d="M33.5244 25.3008L34.2296 26.5216" stroke="#050505" stroke-width="1.5" stroke-linecap="round" stroke-linejoin="round"/>
<path d="M25.2676 33.5547L26.4884 34.2599" stroke="#050505" stroke-width="1.5" stroke-linecap="round" stroke-linejoin="round"/>
<path d="M22.2393 44.834H23.6496" stroke="#050505" stroke-width="1.5" stroke-linecap="round" stroke-linejoin="round"/>
<path d="M25.2676 56.1036L26.4884 55.3984" stroke="#050505" stroke-width="1.5" stroke-linecap="round" stroke-linejoin="round"/>
<path d="M33.5244 64.381L34.2296 63.1602" stroke="#050505" stroke-width="1.5" stroke-linecap="round" stroke-linejoin="round"/>
<path d="M44.8008 67.3965V65.9785" stroke="#050505" stroke-width="1.5" stroke-linecap="round" stroke-linejoin="round"/>
<path d="M56.0839 64.381L55.3711 63.1602" stroke="#050505" stroke-width="1.5" stroke-linecap="round" stroke-linejoin="round"/>
<path d="M64.3475 56.1036L63.1191 55.3984" stroke="#050505" stroke-width="1.5" stroke-linecap="round" stroke-linejoin="round"/>
<path d="M67.3682 44.834H65.9502" stroke="#050505" stroke-width="1.5" stroke-linecap="round" stroke-linejoin="round"/>
<path d="M64.3475 33.5547L63.1191 34.2599" stroke="#050505" stroke-width="1.5" stroke-linecap="round" stroke-linejoin="round"/>
<path d="M56.0839 25.3008L55.3711 26.5216" stroke="#050505" stroke-width="1.5" stroke-linecap="round" stroke-linejoin="round"/>
<path d="M44.9443 47.7261C46.2349 47.7261 47.2811 46.5055 47.2811 44.9998C47.2811 43.494 46.2349 42.2734 44.9443 42.2734C43.6537 42.2734 42.6074 43.494 42.6074 44.9998C42.6074 46.5055 43.6537 47.7261 44.9443 47.7261Z" stroke="#050505" stroke-width="1.5" stroke-linecap="round" stroke-linejoin="round"/>
<path d="M44.9443 32.9258V42.2731" stroke="#050505" stroke-width="1.5" stroke-linecap="round" stroke-linejoin="round"/>
<path d="M43.3864 46.9473L31.7021 56.2946" stroke="#050505" stroke-width="1.5" stroke-linecap="round" stroke-linejoin="round"/>
<path d="M75.4355 48.5055C75.4355 48.0753 75.0868 47.7266 74.6566 47.7266H65.3092C64.879 47.7266 64.5302 48.0753 64.5302 48.5055V66.0318C64.5302 66.462 64.1815 66.8108 63.7513 66.8108L58.967 66.8108C58.2846 66.8108 57.932 67.6261 58.3995 68.1233L69.4151 79.8388C69.7227 80.166 70.2425 80.166 70.5501 79.8388L81.5656 68.1233C82.0331 67.6261 81.6806 66.8108 80.9982 66.8108L76.2145 66.8108C75.7843 66.8108 75.4355 66.462 75.4355 66.0318V48.5055Z" fill="#80ABFF"/>
</svg>
