<svg width="74" height="74" viewBox="0 0 74 74" fill="none" xmlns="http://www.w3.org/2000/svg">
<path d="M57.3914 70C61.3575 70 64.6001 67.1463 64.804 63.552V3.05752H13.8695V57.254" stroke="white" stroke-width="1.5" stroke-linecap="round" stroke-linejoin="round"/>
<path d="M5.14386 57.9631V62.6517C5.14386 66.362 8.1567 69.3804 11.8735 69.3804L58.2551 70C54.5323 70 51.3507 66.368 51.3507 62.6517V57.9631H5.13789H5.14386Z" stroke="white" stroke-width="1.5" stroke-linecap="round" stroke-linejoin="round"/>
<path d="M47.6827 35.5605L43.1985 47.7066L47.6827 46.0321L50.1085 50.1601L55.0122 37.7803" fill="#80ABFF"/>
<path d="M47.6827 35.5605L43.1985 47.7066L47.6827 46.0321L50.1085 50.1601L55.0122 37.7803" stroke="#80ABFF" stroke-width="1.54167" stroke-linecap="round" stroke-linejoin="round"/>
<path d="M63.8421 35.5605L68.322 47.7066L63.8421 46.0321L61.4119 50.1601L56.5083 37.7803" fill="#80ABFF"/>
<path d="M63.8421 35.5605L68.322 47.7066L63.8421 46.0321L61.4119 50.1601L56.5083 37.7803" stroke="#80ABFF" stroke-width="1.54167" stroke-linecap="round" stroke-linejoin="round"/>
<ellipse cx="55.7594" cy="27.1972" rx="15.0741" ry="15.0996" fill="#80ABFF"/>
<path d="M63.0932 27.0501C63.0932 31.1831 59.7482 34.5316 55.6244 34.5316C51.5005 34.5316 48.1555 31.1831 48.1555 27.0501C48.1555 22.9171 51.5005 19.5687 55.6244 19.5687C59.7482 19.5687 63.0932 22.9171 63.0932 27.0501Z" stroke="white" stroke-width="1.54167"/>
</svg>
