<svg width="75" height="74" viewBox="0 0 75 74" fill="none" xmlns="http://www.w3.org/2000/svg">
<path d="M26.0198 18.3877C26.0198 18.6975 25.7687 18.9486 25.4589 18.9486H21.4765C21.1667 18.9486 20.9155 19.1998 20.9155 19.5096V24.3786C20.9155 24.6884 21.1667 24.9396 21.4765 24.9396H25.4589C25.7687 24.9396 26.0198 25.1907 26.0198 25.5005V29.4601C26.0198 29.7699 26.271 30.021 26.5808 30.021H31.4768C31.7866 30.021 32.0378 29.7699 32.0378 29.4601V25.5005C32.0378 25.1907 32.2889 24.9396 32.5987 24.9396H36.5811C36.8909 24.9396 37.1421 24.6884 37.1421 24.3786V19.5096C37.1421 19.1998 36.8909 18.9486 36.5811 18.9486H32.5987C32.2889 18.9486 32.0378 18.6975 32.0378 18.3877V14.4281C32.0378 14.1183 31.7866 13.8672 31.4768 13.8672H26.5808C26.271 13.8672 26.0198 14.1183 26.0198 14.4281V18.3877Z" fill="#80ABFF"/>
<path d="M37.1913 59.2989V42.1523H21.5325V59.2989" stroke="white" stroke-width="1.5" stroke-linecap="round" stroke-linejoin="round"/>
<path d="M29.3652 42.9961L29.3652 59.5753" stroke="white" stroke-width="1.5" stroke-linecap="round" stroke-linejoin="round"/>
<path d="M54.8622 3.05469H2C1.44772 3.05469 1 3.5024 1 4.05469V7.0821C1 7.63438 1.44772 8.0821 2 8.0821H54.8622C55.4145 8.0821 55.8622 7.63438 55.8622 7.0821V4.05469C55.8622 3.5024 55.4145 3.05469 54.8622 3.05469Z" stroke="white" stroke-width="1.5" stroke-linecap="round" stroke-linejoin="round"/>
<path d="M67.512 8.59427L67.5255 8.56562C68.1853 7.22406 69.8747 6.7972 71.2443 7.43733C72.6944 8.11511 73.382 9.66692 72.7429 11.0391C72.2253 12.1535 71.2256 12.5321 70.2071 13.0698C70.0388 13.1589 69.865 13.2595 69.7028 13.3655C68.8718 13.8929 68.1187 14.5826 67.5241 15.3534L67.5187 15.3648L67.5157 15.3564C67.7738 14.2117 67.7995 12.9792 67.56 11.8326C67.3297 10.7113 66.9829 9.70324 67.512 8.59427Z" fill="#80ABFF"/>
<path d="M60.772 73.1775L60.772 71.0571L62.4943 71.0526L71.1326 71.057L72.8593 71.057L72.8593 73.1774L60.772 73.1775Z" stroke="white" stroke-width="1.5" stroke-linecap="round" stroke-linejoin="round"/>
<path d="M71.1308 65.3709L71.1308 65.4004M71.1308 65.4004L71.1352 71.0387L62.4969 71.0343L62.497 65.4004L71.1308 65.4004Z" stroke="white" stroke-width="1.5" stroke-linecap="round" stroke-linejoin="round"/>
<path d="M71.1235 65.3785L73.5247 65.3784L73.5202 58.243L73.5203 52.2931L73.5203 46.3342L73.5204 39.2033L60.1523 39.2078L60.1521 65.3785L62.4903 65.3785" stroke="white" stroke-width="1.5" stroke-linecap="round" stroke-linejoin="round"/>
<path d="M73.5286 52.293L69.5879 52.293" stroke="white" stroke-width="1.5" stroke-linecap="round" stroke-linejoin="round"/>
<path d="M72.8794 58.0195L69.8248 58.024" stroke="white" stroke-width="1.5" stroke-linecap="round" stroke-linejoin="round"/>
<path d="M60.1669 39.2118L65.4221 34.652L65.4221 31.9403L68.2722 31.9403L68.2722 34.652L73.5318 39.2072L60.1669 39.2118Z" stroke="white" stroke-width="1.5" stroke-linecap="round" stroke-linejoin="round"/>
<path d="M66.8128 31.9377L66.8129 19.3046" stroke="white" stroke-width="1.5" stroke-linecap="round" stroke-linejoin="round"/>
<path d="M5.26733 8.10156H51.8376V59.0407C51.8376 59.731 51.278 60.2907 50.5876 60.2907H6.51733C5.82698 60.2907 5.26733 59.7311 5.26733 59.0407V8.10156Z" stroke="white" stroke-width="1.5"/>
</svg>
