<svg width="90" height="90" viewBox="0 0 90 90" fill="none" xmlns="http://www.w3.org/2000/svg">
<path d="M36.2568 45.3042L43.1222 52.7043L55.9083 39.4437" stroke="#80ABFF" stroke-width="4" stroke-linecap="round" stroke-linejoin="round"/>
<path d="M45.0566 10.5547C44.778 10.4174 44.4514 10.4174 44.1727 10.5546L17.1606 23.8606C16.8014 24.0376 16.5823 24.4117 16.6039 24.8115L16.9559 31.3385L17.3434 38.5246L18.1125 52.786C18.1164 52.8596 18.1251 52.9212 18.1465 52.9917C18.5824 54.4276 24.2179 71.7784 44.242 79.5209C44.4782 79.6122 44.7484 79.6088 44.9818 79.5105C63.3036 71.7923 70.4033 54.6781 71.0528 53.0256C71.0896 52.932 71.1053 52.8457 71.1107 52.7452L72.617 24.8115C72.6386 24.4117 72.4196 24.0376 72.0605 23.8606L45.0566 10.5547Z" stroke="#050505" stroke-width="1.5"/>
<path d="M45.0636 17.5756C44.78 17.4323 44.4452 17.4322 44.1616 17.5755L23.3807 28.075C23.0271 28.2536 22.8123 28.6243 22.8331 29.02L23.1002 34.1017L23.4016 39.8344L23.9988 51.1918C24.0025 51.2637 24.0111 51.3247 24.0316 51.3936C24.4083 52.6558 28.8086 66.3399 44.2323 72.5033C44.473 72.5995 44.7494 72.596 44.9871 72.4925C59.0757 66.3587 64.5968 52.9016 65.1647 51.431C65.2001 51.3394 65.2169 51.25 65.2221 51.1519L66.3857 29.0199C66.4065 28.6243 66.1917 28.2536 65.8381 28.0749L45.0636 17.5756Z" stroke="#050505" stroke-width="1.5"/>
</svg>
