<svg width="120" height="120" viewBox="0 0 120 120" fill="none" xmlns="http://www.w3.org/2000/svg">
<g clip-path="url(#clip0_2189_51029)">
<g clip-path="url(#clip1_2189_51029)">
<circle cx="60" cy="66" r="50" fill="#F4F4F4"/>
<mask id="mask0_2189_51029" style="mask-type:alpha" maskUnits="userSpaceOnUse" x="10" y="-4" width="100" height="120">
<path d="M110 66C110 93.6142 87.6142 116 60 116C32.3858 116 10 93.6142 10 66C10 38.3858 32.3858 -4 60 -4C87.6142 -4 110 38.3858 110 66Z" fill="#F4F4F4"/>
</mask>
<g mask="url(#mask0_2189_51029)">
<path d="M62.4313 108.089C73.1792 88.6793 75.629 69.0197 75.8792 60.3887H46.2729C46.5231 69.0197 48.973 88.6793 59.7209 108.089H62.4313Z" fill="#F4F4F4"/>
<path d="M66 122L64.8746 85.4535L62.6452 70H59.3869L57.1254 85.4535L56 122H66Z" fill="#80ABFF"/>
<path d="M55.9992 66.4532C55.9783 64.3995 59.0849 63.8262 61.0865 63.8053C63.088 63.7845 65.9027 64.2848 65.9235 66.3385C65.934 67.2872 65.0687 68.7258 64.2973 69.9976C63.8595 70.7273 62.3478 72.437 62.3478 72.437H59.6583C59.6583 72.437 58.2613 70.7795 57.8235 70.081C57.0416 68.83 55.9992 67.4018 55.9888 66.4532H55.9992Z" fill="#80ABFF"/>
<path d="M89.5 65C89.5 65 69.0834 56.6971 69 58.0001M51.5479 59.4737C51.4645 58.1707 32.5 65.0005 32.5 65.0005" stroke="#050505" stroke-linecap="round" stroke-linejoin="round"/>
<path d="M69 66.9623L61.5 66L53 66.9623V50H69V66.9623Z" fill="#F4F4F4" stroke="#050505" stroke-linecap="round" stroke-linejoin="round"/>
<path d="M70.5001 59.6929C70.573 59.5053 68.9781 56.7117 69.0093 57.0244C69.2908 59.547 67.039 62.0696 60.7842 66.1349C60.3359 66.4268 64.2244 67.8549 66.2885 70.7736C68.1753 73.4317 70.7398 75.9543 70.7398 75.9543C74.1175 67.5317 70.4897 59.7034 70.4897 59.7034L70.5001 59.6929Z" fill="#F4F4F4" stroke="#050505" stroke-linecap="round" stroke-linejoin="round"/>
<path d="M50.6787 59.6924C50.6057 59.5048 53.0312 56.6861 52.9999 56.9988C52.7184 59.5214 54.1397 62.0691 60.3945 66.1344C60.8428 66.4263 56.9544 67.8543 54.8903 70.7731C53.0034 73.4312 50.4389 75.9538 50.4389 75.9538C47.0613 67.5312 50.6891 59.7028 50.6891 59.7028L50.6787 59.6924Z" fill="#F4F4F4" stroke="#050505" stroke-linecap="round" stroke-linejoin="round"/>
<path d="M48.0661 35.6305C48.8896 38.1324 50.6201 42.4899 48.3058 43.2509C45.9915 44.0119 43.5104 43.0424 41.3004 38.1845C40.2058 35.7868 41.1649 32.6073 43.4792 31.8463C45.7935 31.0853 47.2425 33.1389 48.0661 35.6409V35.6305Z" fill="#F4F4F4" stroke="#050505" stroke-linecap="round" stroke-linejoin="round"/>
<path d="M73.4187 35.7359C72.5743 38.2378 70.8021 42.5745 73.1164 43.3459C75.4203 44.1278 77.9118 43.1791 80.1635 38.3316C81.279 35.9443 80.3512 32.7544 78.0473 31.9725C75.7434 31.1907 74.2735 33.2235 73.4291 35.7254L73.4187 35.7359Z" fill="#F4F4F4" stroke="#050505" stroke-linecap="round" stroke-linejoin="round"/>
<path d="M75.7027 27.6147C75.5623 34.4739 74.7733 41.3865 72.4963 46.5686C71.3604 49.1538 69.8646 51.2838 67.9174 52.767C65.977 54.245 63.5597 55.1028 60.5343 55.1028C54.5619 55.1028 50.8299 51.2467 48.5711 45.7991C46.3079 40.3407 45.5797 33.3886 45.6056 27.4916C45.6568 15.8527 52.9028 8.80012 61.1579 8.83017C65.3001 8.84525 68.9802 10.6359 71.6046 13.8604C74.2328 17.0896 75.8207 21.783 75.7027 27.6147Z" fill="#F4F4F4" stroke="#050505"/>
<path d="M57.1157 45.377C57.1157 45.377 56.0003 45.5333 56.0003 46.9094" stroke="#050505" stroke-linecap="round" stroke-linejoin="round"/>
<path d="M56.4578 29.4805C56.4578 29.4805 54.2061 31.4507 51.0474 31.1067" stroke="#050505" stroke-linecap="round" stroke-linejoin="round"/>
<path d="M64.8081 29.4805C64.8081 29.4805 67.0599 31.4507 70.2185 31.1067" stroke="#050505" stroke-linecap="round" stroke-linejoin="round"/>
<path d="M60.6279 41.416V42.2604" stroke="#050505" stroke-linecap="round" stroke-linejoin="round"/>
<path d="M55.6028 34.7774C55.6133 35.6426 55.0086 36.3411 54.2476 36.3515C53.4866 36.3515 52.8611 35.6739 52.8507 34.8086C52.8403 33.9434 53.4449 33.2449 54.2059 33.2345C54.9669 33.2241 55.5924 33.9121 55.6028 34.7774Z" fill="#050505"/>
<path d="M68.4984 34.6093C68.5088 35.4745 67.9041 36.173 67.1431 36.1834C66.3821 36.1938 65.7567 35.5058 65.7462 34.6405C65.7358 33.7753 66.3405 33.0768 67.1015 33.0664C67.8625 33.0664 68.4879 33.744 68.4984 34.6093Z" fill="#050505"/>
<path d="M58.8765 47.3985C58.8765 47.3985 60.8259 46.6688 62.4626 47.3985" stroke="#050505" stroke-linecap="round" stroke-linejoin="round"/>
<path d="M63.6626 7.64917C74.5991 7.2535 77.6288 17.7683 77.6288 17.7683C78.7002 22.0264 77.1115 28.9976 77.1115 28.9976C77.1115 28.9976 75.024 31.9368 74.2111 30.6933C73.583 29.7324 71.3108 26.9628 71.3108 26.9628C67.6345 22.8742 62.5357 15.5 62.5357 15.5L55.5 23.0001C55.5 23.0001 50.3616 26.9816 47.1287 29.1107C47.1287 29.1107 46.6114 29.5628 45.2259 30.731L43.8958 29.1107C41.0508 26.228 42.2516 22.1583 42.2516 22.1583C44.0436 4.10845 62.5357 7.46076 62.5357 7.46076L63.6626 7.66801V7.64917Z" fill="#80ABFF"/>
<path d="M89.3789 65.0959C88.4439 64.779 83.2621 81.798 81.8835 98.3575C81.5666 102.208 68.731 96.662 54.8178 94.697L49.6836 103.904C49.6836 103.904 69.8719 116.961 88.5073 115.9C88.5073 115.9 92.7066 115.614 93.9743 109.704C96.1136 102.731 97.3179 97.1532 97.8884 88.5327C98.0151 86.7104 98.1419 84.2384 98.3638 82.2893C98.6173 80.1025 98.6965 77.8523 98.5222 76.4736C97.5397 68.7247 93.5148 66.4746 89.363 65.0801L89.3789 65.0959Z" fill="#F4F4F4" stroke="#050505" stroke-linecap="round" stroke-linejoin="round"/>
<path d="M87.6834 102.904C87.6834 102.904 85.5758 101.192 81.2339 100.717C81.2339 100.717 84.4982 102.634 85.0687 104.409" stroke="#050505" stroke-linecap="round" stroke-linejoin="round"/>
<path d="M71.5358 92.7963C71.5358 92.7963 79.6492 89.6429 82.2004 92.6537L81.9944 98.7704C81.9944 98.7704 80.8693 101.956 74.3089 99.848C74.3089 99.848 71.1713 95.8072 71.5358 92.8122V92.7963Z" fill="#F4F4F4" stroke="#050505" stroke-linecap="round" stroke-linejoin="round"/>
<path d="M71.9479 94.3951C70.807 92.4301 70.0939 92.24 70.0939 92.24C70.0939 92.24 63.8662 93.8246 56.7353 94.918C49.8421 95.9797 41.9982 96.9147 37.1809 97.9288C37.1967 93.8088 37.0858 88.9598 36.6738 83.572C36.0875 75.9499 32.8231 65 32.8231 65C30.2084 65.5863 26.4845 67.5671 24.8999 71.3386C24.2026 72.9866 23.5529 75.2685 23.442 77.5821C23.2994 80.2601 23.2519 83.5561 23.0934 87.1216C22.5546 98.7053 24.3928 106.518 27.4195 110.733C28.5446 114.013 32.1259 114.694 35.7547 114.789C39.8272 114.9 45.9123 112.634 52.3142 110.923C57.8921 109.433 63.3116 106.771 68.0497 104.41C70.2682 103.301 72.6134 102.92 74.2615 101.542C74.2615 101.542 74.103 98.0873 71.9637 94.3792L71.9479 94.3951Z" fill="#F4F4F4" stroke="#050505" stroke-linecap="round" stroke-linejoin="round"/>
<path d="M64.8013 94.8242C64.8013 94.8242 67.1466 97.5181 67.4159 101.575" stroke="#050505" stroke-linecap="round" stroke-linejoin="round"/>
<path d="M30.5891 98.5788C30.5891 98.5788 34.7567 96.8832 36.373 97.7865C36.373 97.7865 31.4448 99.3553 30.2246 104.188" stroke="#050505" stroke-linecap="round" stroke-linejoin="round"/>
<path d="M55.1666 95.1565C55.1666 95.1565 54.612 93.2549 52.8689 91.6385C52.0766 90.9096 49.2401 88.3583 48.1942 88.0414C46.5303 87.5502 44.9774 88.2474 43.472 87.8988C40.5087 87.2174 35.5012 85.7595 33.6472 86.0289C33.6472 86.0289 32.1101 86.1557 32.9817 87.6135C32.9817 87.6135 39.1459 89.6736 41.9983 91.0681C40.5721 90.355 33.3778 87.4709 31.809 87.5977C31.809 87.5977 29.3528 88.7703 32.7598 90.149C32.7598 90.149 38.7339 92.0505 40.4929 93.4609C40.5404 93.2549 32.4904 90.0697 32.3636 90.1173C32.3636 90.1173 27.8633 91.2107 38.9082 95.6794C38.9082 95.6794 35.7706 94.5384 35.0258 94.1898C31.3019 92.732 29.6064 95.8695 37.8307 98.0722C37.8307 98.0722 43.9632 96.9313 47.2751 96.2499C50.8881 95.5051 55.1508 95.1248 55.1508 95.1248L55.1666 95.1565Z" fill="#F4F4F4" stroke="#050505" stroke-linecap="round" stroke-linejoin="round"/>
<path d="M43.7412 87.9453C43.7412 87.9453 46.34 88.595 46.9739 89.1496" stroke="#050505" stroke-linecap="round" stroke-linejoin="round"/>
</g>
<path d="M35.5589 49C35.5589 49 34.2089 50.89 28.8589 53.49" stroke="#70747D" stroke-linecap="round" stroke-linejoin="round"/>
<path d="M39.5692 49.8496C39.5692 49.8496 35.1392 53.8996 29.6392 55.5596" stroke="#70747D" stroke-linecap="round" stroke-linejoin="round"/>
<path d="M28.919 52.1299C28.109 51.4199 26.899 50.8699 25.799 51.0999C24.489 51.3799 23.969 52.8799 24.739 53.9399C25.039 54.3499 25.489 54.6399 25.979 54.7399C24.659 54.4599 23.569 56.2199 24.169 57.4399C25.129 59.3699 26.879 59.1699 28.019 58.2899C27.879 58.3999 28.379 59.0199 28.479 59.1199C29.319 59.9399 30.749 59.6099 31.269 58.5999C31.609 57.9299 31.529 57.0799 31.119 56.4599" stroke="#70747D" stroke-linecap="round" stroke-linejoin="round"/>
</g>
</g>
<defs>
<clipPath id="clip0_2189_51029">
<rect width="120" height="120" fill="white"/>
</clipPath>
<clipPath id="clip1_2189_51029">
<rect width="100" height="112" fill="white" transform="translate(10 4)"/>
</clipPath>
</defs>
</svg>
