<svg width="90" height="90" viewBox="0 0 90 90" fill="none" xmlns="http://www.w3.org/2000/svg">
<path d="M24.5503 81.2193V72.7969H39.491V81.2193" stroke="#050505" stroke-width="1.5" stroke-linecap="round" stroke-linejoin="round"/>
<path d="M28.312 72.7841H38.2725C37.4175 69.851 38.1727 67.0292 39.0152 64.2505C40.3195 59.9775 38.5908 57.2236 38.2725 51.9997L38.2788 52.0059V40.9777C38.2788 40.0083 37.4986 39.2179 36.5313 39.2179C35.564 39.2179 34.7839 40.0021 34.7839 40.9777V37.9459C34.7839 36.8344 33.8852 35.9329 32.7805 35.9329C31.6759 35.9329 30.7772 36.8344 30.7772 37.9459V34.9388C30.7772 33.8273 29.8785 32.9258 28.7739 32.9258C27.6692 32.9258 26.7705 33.8273 26.7705 34.9388V36.8221C26.7705 35.7106 25.8719 34.8091 24.7672 34.8091C23.6626 34.8091 22.7639 35.7106 22.7639 36.8221V53.6669C22.7639 54.5993 22.4227 55.4847 21.8242 56.1693" stroke="#050505" stroke-width="1.5" stroke-linecap="round" stroke-linejoin="round"/>
<path d="M28.6064 59.1155C25.3175 57.6521 22.353 58.4671 22.353 58.4671C21.8725 56.6826 21.2359 54.8734 20.331 53.2556C19.7693 52.2553 19.0266 50.9648 17.9282 50.4523C15.669 49.4087 14.0963 51.3106 15.6066 53.2556C15.6066 53.2556 18.465 58.7944 18.6834 62.3758C18.9018 65.9572 23.2392 66.4882 24.5561 68.2789C25.8729 70.0696 25.9353 72.7988 25.9353 72.7988H36.6696" stroke="#050505" stroke-width="1.5" stroke-linecap="round" stroke-linejoin="round"/>
<path d="M26.771 36.8301V51.3161" stroke="#050505" stroke-width="1.5" stroke-linecap="round" stroke-linejoin="round"/>
<path d="M30.7788 37.9492V51.3176" stroke="#050505" stroke-width="1.5" stroke-linecap="round" stroke-linejoin="round"/>
<path d="M34.7842 40.9766V52.8569" stroke="#050505" stroke-width="1.5" stroke-linecap="round" stroke-linejoin="round"/>
<path d="M64.6704 81.2193V72.7969H49.7297V81.2193" stroke="#050505" stroke-width="1.5" stroke-linecap="round" stroke-linejoin="round"/>
<path d="M60.9091 72.7841H50.9487C51.8037 69.851 51.0485 67.0292 50.206 64.2505C48.9017 59.9775 50.6304 57.2236 50.9487 51.9997L50.9424 52.0059V40.9777C50.9424 40.0083 51.7225 39.2179 52.6899 39.2179C53.6572 39.2179 54.4373 40.0021 54.4373 40.9777V37.9459C54.4373 36.8344 55.336 35.9329 56.4407 35.9329C57.5453 35.9329 58.444 36.8344 58.444 37.9459V34.9388C58.444 33.8273 59.3427 32.9258 60.4473 32.9258C61.552 32.9258 62.4506 33.8273 62.4506 34.9388V36.8221C62.4506 35.7106 63.3493 34.8091 64.454 34.8091C65.5586 34.8091 66.4573 35.7106 66.4573 36.8221V53.6669C66.4573 54.5993 66.7985 55.4847 67.397 56.1693" stroke="#050505" stroke-width="1.5" stroke-linecap="round" stroke-linejoin="round"/>
<path d="M60.6143 59.1155C63.9032 57.6521 66.8677 58.4671 66.8677 58.4671C67.3482 56.6826 67.9848 54.8734 68.8897 53.2556C69.4514 52.2553 70.1941 50.9648 71.2925 50.4523C73.5517 49.4087 75.1244 51.3106 73.6141 53.2556C73.6141 53.2556 70.7557 58.7944 70.5373 62.3758C70.3189 65.9572 65.9815 66.4882 64.6646 68.2789C63.3478 70.0696 63.2854 72.7988 63.2854 72.7988H52.5511" stroke="#050505" stroke-width="1.5" stroke-linecap="round" stroke-linejoin="round"/>
<path d="M62.4497 36.8301V51.3161" stroke="#050505" stroke-width="1.5" stroke-linecap="round" stroke-linejoin="round"/>
<path d="M58.4419 37.9492V51.3176" stroke="#050505" stroke-width="1.5" stroke-linecap="round" stroke-linejoin="round"/>
<path d="M54.4365 40.9766V52.8569" stroke="#050505" stroke-width="1.5" stroke-linecap="round" stroke-linejoin="round"/>
<path d="M62.5669 25.9294C62.5724 25.9294 62.5766 25.9243 62.5755 25.9189C62.1688 23.8441 61.397 21.9023 60.3403 20.152C60.094 19.7441 60.1437 19.2177 60.4805 18.8807L61.9138 17.4467C62.3041 17.0562 62.3041 16.4233 61.9138 16.0329L58.394 12.5113C58.0029 12.12 57.3683 12.1206 56.978 12.5127L55.546 13.951C55.2091 14.2895 54.6813 14.3398 54.2725 14.0928C52.7488 13.1723 51.0798 12.4679 49.3044 12.0328C48.8398 11.919 48.5003 11.5107 48.5003 11.0324V9C48.5003 8.44772 48.0525 8 47.5003 8H42.5205C41.9682 8 41.5205 8.44772 41.5205 9V11.0324C41.5205 11.5107 41.1809 11.919 40.7164 12.0328C38.9403 12.468 37.2709 13.1727 35.7468 14.0937C35.3387 14.3403 34.8118 14.2906 34.4747 13.9533L33.032 12.5099C32.6415 12.1191 32.008 12.1191 31.6175 12.5099L28.0962 16.0329C27.7059 16.4233 27.7059 17.0562 28.0962 17.4467L29.5295 18.8807C29.8664 19.2177 29.916 19.7441 29.6697 20.152C28.749 21.6772 28.0444 23.3478 27.6094 25.1251C27.4956 25.5898 27.0873 25.9294 26.6089 25.9294H24.5786C24.0263 25.9294 23.5786 26.3771 23.5786 26.9294V31.9127C23.5786 32.465 24.0263 32.9127 24.5786 32.9127H26.6089C27.0873 32.9127 27.4956 33.2523 27.6094 33.717C28.0444 35.4943 28.749 37.1649 29.6697 38.6901C29.916 39.098 29.8664 39.6244 29.5295 39.9614L28.0962 41.3954C27.7059 41.7859 27.7059 42.4188 28.0962 42.8092L31.6161 46.3308C32.0072 46.7221 32.6417 46.7215 33.032 46.3294L34.464 44.8911C34.801 44.5526 35.3287 44.5023 35.7375 44.7493C37.2612 45.6698 38.9302 46.3742 40.7057 46.8093C41.1702 46.9231 41.5098 47.3314 41.5098 47.8097V49.8421C41.5098 50.3944 41.9575 50.8421 42.5098 50.8421H47.4895C48.0418 50.8421 48.4895 50.3944 48.4895 49.8421V47.8097C48.4895 47.3314 48.8291 46.9231 49.2937 46.8093C51.0691 46.3742 52.7381 45.6698 54.2618 44.7493C54.6706 44.5023 55.1984 44.5526 55.5353 44.8911L56.9673 46.3294C57.3576 46.7215 57.9922 46.7221 58.3833 46.3308L61.9031 42.8092C62.2934 42.4188 62.2934 41.7859 61.9031 41.3954L60.4698 39.9614C60.133 39.6244 60.0833 39.098 60.3296 38.6901C61.2504 37.1649 61.9549 35.4943 62.3899 33.717C62.5037 33.2523 62.912 32.9127 63.3904 32.9127H65.4207C65.973 32.9127 66.4207 32.465 66.4207 31.9127V26.9294C66.4207 26.3771 65.973 25.9294 65.4207 25.9294H62.5669ZM54.407 24.1908C54.4514 24.243 54.4904 24.2995 54.5226 24.36C55.3271 25.8701 55.7798 27.5941 55.7798 29.4211C55.7798 35.3761 50.9517 40.1958 45.0104 40.1958C39.069 40.1958 34.241 35.3654 34.241 29.4211C34.241 23.4767 39.069 18.6463 45.0104 18.6463C47.4565 18.6463 49.7157 19.467 51.5323 20.8426" fill="#80ABFF"/>
</svg>
