<svg width="91" height="90" viewBox="0 0 91 90" fill="none" xmlns="http://www.w3.org/2000/svg">
<path d="M61.4406 36.3914C61.3276 36.3575 61.2146 36.3462 61.1016 36.3236C62.0282 25.1078 55.841 16.1407 45.2917 15.926C34.7424 16.1351 28.5552 25.1078 29.4819 36.3236C29.3689 36.3406 29.2559 36.3519 29.1429 36.3914C27.5834 36.9 26.8375 38.8832 27.4703 40.8269C28.0467 42.5898 29.561 43.6973 30.9962 43.5108C31.0527 43.686 31.1092 43.8555 31.1657 44.0307C32.7365 48.4605 35.104 51.6134 37.6637 53.6362C42.4383 57.405 48.0209 57.4445 52.8181 53.7096C55.4173 51.6868 57.8243 48.5057 59.4121 44.0307C59.4743 43.8555 59.5251 43.686 59.5816 43.5108C61.0225 43.6973 62.5368 42.5898 63.1075 40.8269C63.7403 38.8832 62.9945 36.9 61.4349 36.3914H61.4406Z" stroke="#050505" stroke-width="1.5" stroke-linecap="round" stroke-linejoin="round"/>
<path d="M29.7383 33.3802C29.7383 33.3802 42.6315 32.2651 47.742 29.2256L46.2401 33.3802L54.6665 31.2939" stroke="#050505" stroke-width="1.5" stroke-linecap="round" stroke-linejoin="round"/>
<path d="M41.9946 81.2202L43.6817 70.132L42.9149 68.8526L45.4529 64.8623L48.0151 68.8526L47.3181 70.132L49.0052 81.2202H45.4999H41.9946Z" fill="#80ABFF"/>
<path d="M42.6436 49.0195H48.0443" stroke="black" stroke-width="1.5" stroke-linecap="round"/>
<ellipse cx="39.8187" cy="39.5501" rx="1.3294" ry="1.3294" fill="#050505"/>
<ellipse cx="50.6204" cy="39.5501" rx="1.3294" ry="1.3294" fill="#050505"/>
<path d="M38.2318 59.456L33.8584 63.3886L41.0062 71.1239L45.5208 64.53L38.2318 59.456ZM38.2318 59.456L38.5967 57.8857C38.707 57.4108 38.7627 56.9248 38.7627 56.4372V54.834" stroke="#050505" stroke-width="1.5" stroke-linecap="round" stroke-linejoin="round"/>
<path d="M52.8135 59.4593L56.9805 63.6412L50.0392 71.1272L45.5245 64.5333L52.8135 59.4593ZM52.8135 59.4593L52.0773 56.9649L51.7566 54.834" stroke="#050505" stroke-width="1.5" stroke-linecap="round" stroke-linejoin="round"/>
<path d="M38.1174 59.6738L33.6894 63.6557L22.4102 68.2789C19.3158 69.5473 16.7138 71.5881 15.6582 74.7614C14.9453 76.9048 14.2783 79.435 13.9526 81.5517H45.4976M38.1174 59.6738L45.4976 64.8114M38.1174 59.6738L38.4905 58.2151C38.5999 57.7876 38.6653 57.35 38.6857 56.9092L38.7718 55.0498" stroke="#050505" stroke-width="1.5" stroke-linecap="round" stroke-linejoin="round"/>
<path d="M52.8826 59.6771L57.3106 63.659L68.5898 68.2822C71.6842 69.5506 74.2862 71.5914 75.3418 74.7647C76.0547 76.9081 76.7217 79.4383 77.0474 81.555H45.5024M52.8826 59.6771L45.5024 64.8147M52.8826 59.6771L52.3682 58.2256C52.2146 57.7923 52.1076 57.3439 52.0489 56.8879L51.8124 55.0498" stroke="#050505" stroke-width="1.5" stroke-linecap="round" stroke-linejoin="round"/>
</svg>
