<svg width="90" height="90" viewBox="0 0 90 90" fill="none" xmlns="http://www.w3.org/2000/svg">
<path d="M73.0036 64.1415H20.4393C18.1192 64.1415 16.2094 62.2809 16.1199 59.9288L15.792 24.2301C15.7025 21.7493 17.657 19.6846 20.1114 19.6846H73.0036C75.4505 19.6846 77.4125 21.7493 77.323 24.2301V59.9288C77.2334 62.2809 75.3311 64.1415 73.0036 64.1415Z" stroke="#050505" stroke-width="1.5" stroke-linecap="round" stroke-linejoin="round"/>
<path d="M67.5978 64.1484H25.5303V70.1386H67.5978V64.1484Z" stroke="#050505" stroke-width="1.5" stroke-linecap="round" stroke-linejoin="round"/>
<path d="M53.5725 70.1455H39.5475C38.4508 76.1356 31.8486 78.2231 31.8486 78.2231H61.2638C61.2638 78.2231 54.6691 76.1356 53.565 70.1455H53.5725Z" stroke="#050505" stroke-width="1.5" stroke-linecap="round" stroke-linejoin="round"/>
<path d="M61.2638 78.2275H31.8486V81.2226H61.2638V78.2275Z" stroke="#050505" stroke-width="1.5" stroke-linecap="round" stroke-linejoin="round"/>
<path d="M45.3779 67.1396H47.5039" stroke="#050505" stroke-width="1.5" stroke-linecap="round" stroke-linejoin="round"/>
<path d="M53.5898 26.7168L70.2927 26.7168" stroke="#050505" stroke-width="1.5" stroke-linecap="round" stroke-linejoin="round"/>
<path d="M66.5041 58.6629V53.7412C66.5041 53.0096 66.0809 52.3417 65.4148 52.0396L62.5856 50.7515C61.7917 50.3883 61.1834 49.7358 60.8629 48.9463M50.8379 58.6629V53.7412C50.8379 53.0096 51.2689 52.3417 51.9272 52.0396L54.7564 50.7515C55.5491 50.3888 56.1568 49.7342 56.4777 48.9463" stroke="#050505" stroke-width="1.5" stroke-linecap="round" stroke-linejoin="round"/>
<path d="M63.9797 43.8406C63.9797 46.8142 61.6053 49.2232 58.6744 49.2232C55.7436 49.2232 53.3691 46.8142 53.3691 43.8406C53.3691 40.8671 55.7436 38.458 58.6744 38.458C61.6053 38.458 63.9797 40.8671 63.9797 43.8406Z" stroke="#050505" stroke-width="1.5" stroke-linecap="round" stroke-linejoin="round"/>
<path d="M48.5053 9C48.5053 8.44771 48.0575 8 47.5053 8H9C8.44772 8 8 8.44772 8 9V31.2193C8 31.7716 8.44772 32.2193 9 32.2193H27.7687C28.037 32.2193 28.2942 32.3272 28.4822 32.5187L33.2877 37.4128C33.915 38.0516 35.0012 37.6075 35.0012 36.7122V33.2193C35.0012 32.6671 35.449 32.2193 36.0012 32.2193H47.5053C48.0575 32.2193 48.5053 31.7716 48.5053 31.2193V9Z" fill="#80ABFF"/>
<path d="M15.7617 13.8604H40.7428" stroke="white" stroke-width="1.5" stroke-linecap="round" stroke-linejoin="round"/>
<path d="M15.7617 17.6973H28.2556" stroke="white" stroke-width="1.5" stroke-linecap="round" stroke-linejoin="round"/>
<path d="M15.7617 21.5342H40.7428" stroke="white" stroke-width="1.5" stroke-linecap="round" stroke-linejoin="round"/>
<path d="M24.71 25.377H40.7426" stroke="white" stroke-width="1.5" stroke-linecap="round" stroke-linejoin="round"/>
<path d="M15.7617 25.377H20.3444" stroke="white" stroke-width="1.5" stroke-linecap="round" stroke-linejoin="round"/>
<path d="M30.9531 17.6973H40.7422" stroke="white" stroke-width="1.5" stroke-linecap="round" stroke-linejoin="round"/>
</svg>
