<svg width="90" height="90" viewBox="0 0 90 90" fill="none" xmlns="http://www.w3.org/2000/svg">
<path d="M61.7316 55.7953L60.0364 64.0851H54.9183V52.9556L63.0138 44.8187L52.5711 34.3336H28.8602L18.4175 44.8187L26.513 52.9556V64.0851H21.3949L19.6997 55.7953L8.77881 44.8187L26.0349 27.4746H55.3964L60.6341 32.739L63.7854 35.9064L72.6525 44.8187L67.192 50.307L65.87 51.7364" stroke="#050505" stroke-width="1.5" stroke-linecap="round" stroke-linejoin="round"/>
<path d="M34.4844 20.4629V27.4734H45.3896V20.4629" stroke="#050505" stroke-width="1.5" stroke-linecap="round" stroke-linejoin="round"/>
<path d="M52.7443 56.5466C54.0701 58.6982 54.8307 61.2192 54.8307 63.9249C54.8307 71.7161 48.5172 78.0295 40.7259 78.0295C32.9346 78.0295 26.6211 71.7161 26.6211 63.9249C26.6211 56.1337 32.9346 49.8203 40.7259 49.8203C44.627 49.8203 48.1478 51.3959 50.7014 53.9495" stroke="#050505" stroke-width="1.5" stroke-linecap="round" stroke-linejoin="round"/>
<path d="M36.7363 68.2188C38.2685 71.1306 45.2992 70.8047 44.6037 66.752C44.419 65.6981 43.6909 65.0136 42.7999 64.5681C41.1156 63.7315 39.8876 64.2095 38.2142 63.1556C37.5187 62.7102 36.9863 62.0908 36.8341 61.2108C36.1387 57.1581 43.1693 56.8321 44.7015 59.744" stroke="#050505" stroke-width="1.5" stroke-linecap="round" stroke-linejoin="round"/>
<path d="M40.7222 57.8412V55.418" stroke="#050505" stroke-width="1.5" stroke-linecap="round" stroke-linejoin="round"/>
<path d="M40.7222 72.6049V70.1816" stroke="#050505" stroke-width="1.5" stroke-linecap="round" stroke-linejoin="round"/>
<path d="M40.6099 22.7526C44.4692 22.7526 47.5978 19.6246 47.5978 15.7659C47.5978 11.9073 44.4692 8.7793 40.6099 8.7793C36.7506 8.7793 33.6221 11.9073 33.6221 15.7659C33.6221 19.6246 36.7506 22.7526 40.6099 22.7526Z" stroke="#050505" stroke-width="1.5" stroke-linecap="round" stroke-linejoin="round"/>
<path d="M40.6121 18.6224C42.1831 18.6224 43.4566 17.3489 43.4566 15.778C43.4566 14.2071 42.1831 12.9336 40.6121 12.9336C39.0411 12.9336 37.7676 14.2071 37.7676 15.778C37.7676 17.3489 39.0411 18.6224 40.6121 18.6224Z" stroke="#050505" stroke-width="1.5" stroke-linecap="round" stroke-linejoin="round"/>
<path d="M75.1015 50.0641C75.1015 49.6339 74.7528 49.2852 74.3226 49.2852H64.9752C64.545 49.2852 64.1963 49.6339 64.1963 50.0641V67.5904C64.1963 68.0206 63.8475 68.3694 63.4173 68.3694L58.633 68.3694C57.9506 68.3694 57.598 69.1847 58.0655 69.6819L69.0811 81.3974C69.3887 81.7245 69.9085 81.7245 70.2161 81.3974L81.2317 69.6819C81.6992 69.1847 81.3466 68.3694 80.6642 68.3694L75.8805 68.3694C75.4503 68.3694 75.1015 68.0206 75.1015 67.5904V50.0641Z" fill="#80ABFF"/>
</svg>
