<?xml version="1.0" encoding="utf-8"?>
<!-- Generator: Adobe Illustrator 27.7.0, SVG Export Plug-In . SVG Version: 6.00 Build 0)  -->
<svg version="1.1" id="레이어_1" xmlns="http://www.w3.org/2000/svg" xmlns:xlink="http://www.w3.org/1999/xlink" x="0px"
	 y="0px" viewBox="0 0 120 120" style="enable-background:new 0 0 120 120;" xml:space="preserve">
<style type="text/css">
	.st0{clip-path:url(#SVGID_00000058584546974618843460000013547384210963183021_);fill:#F4F4F4;}
	.st1{clip-path:url(#SVGID_00000058584546974618843460000013547384210963183021_);}
	.st2{clip-path:url(#SVGID_00000020372413978593968230000005358755935448082353_);fill:#F4F4F4;}
	.st3{clip-path:url(#SVGID_00000119094970374070791520000009578573159852585643_);fill:#050505;}
	.st4{clip-path:url(#SVGID_00000170998008568522244540000003803236361818927542_);fill:#050505;}
	.st5{clip-path:url(#SVGID_00000138549816197011355240000005238518631409062059_);fill:#F4F4F4;}
	.st6{clip-path:url(#SVGID_00000163055705854993217740000014461017284938684291_);fill:#F4F4F4;}
	.st7{clip-path:url(#SVGID_00000111874621325175822850000000588100641090499228_);fill:#050505;}
	.st8{clip-path:url(#SVGID_00000091717596572729242410000015721879552984679817_);fill:#050505;}
	.st9{clip-path:url(#SVGID_00000146483362007995254530000009454402603346760633_);fill:#050505;}
	.st10{clip-path:url(#SVGID_00000073701991484592662800000006762911875328879761_);fill:#F4F4F4;}
	.st11{clip-path:url(#SVGID_00000166668377962405848660000014822539120945657742_);fill:#050505;}
	.st12{clip-path:url(#SVGID_00000001642865294779727790000011375250236276676534_);fill:#F4F4F4;}
	.st13{clip-path:url(#SVGID_00000140724610646313476430000014299916305042081179_);fill:#050505;}
	.st14{clip-path:url(#SVGID_00000010295520836326950150000007477470682792682130_);fill:#F4F4F4;}
	.st15{clip-path:url(#SVGID_00000126289814308154613370000008235239810778434204_);fill:#050505;}
	.st16{clip-path:url(#SVGID_00000154387576716681409860000010198033354529659054_);fill:#F4F4F4;}
	.st17{clip-path:url(#SVGID_00000155123124071742622970000009158639888978642620_);fill:#050505;}
	.st18{clip-path:url(#SVGID_00000168082935788955324930000014385347108620406150_);fill:#F4F4F4;}
	.st19{clip-path:url(#SVGID_00000145037348374846131770000009433003970324178608_);fill:#050505;}
	.st20{clip-path:url(#SVGID_00000110437052640575444510000012334531984419606447_);fill:#80ABFF;}
	.st21{clip-path:url(#SVGID_00000109020835407472551430000002913328698572321450_);fill:#F4F4F4;}
	.st22{clip-path:url(#SVGID_00000041273664486633016290000012459529103524524207_);fill:#050505;}
	.st23{clip-path:url(#SVGID_00000017475129155037703650000004740527670442778534_);fill:#F4F4F4;}
	.st24{clip-path:url(#SVGID_00000155851459643827699250000015271689984541681069_);fill:#050505;}
	.st25{clip-path:url(#SVGID_00000175316462584940555080000003318483717190130078_);fill:#F4F4F4;}
	.st26{clip-path:url(#SVGID_00000144301568952642240370000013766972035635722413_);}
	.st27{clip-path:url(#SVGID_00000023981148247272045110000014022893154316161442_);fill:#050505;}
	.st28{clip-path:url(#SVGID_00000158030588821756057550000015524599652130928565_);fill:#80ABFF;}
	.st29{clip-path:url(#SVGID_00000015353814804541002620000010357183060805071769_);fill:#050505;}
	.st30{clip-path:url(#SVGID_00000168082482252077589580000014755186268975890099_);fill:#050505;}
	.st31{clip-path:url(#SVGID_00000136371232802058722780000003973846681512341137_);fill:#050505;}
	.st32{clip-path:url(#SVGID_00000161601549002985579130000007200242297432400789_);fill:#050505;}
	.st33{clip-path:url(#SVGID_00000136407928288057760320000011453739557819676592_);fill:#050505;}
	.st34{clip-path:url(#SVGID_00000111890107392875780840000003288138479471331760_);}
	.st35{clip-path:url(#SVGID_00000013880299323558040740000010200007986241390239_);fill:#050505;}
	.st36{clip-path:url(#SVGID_00000057139148025797798540000005069790478071675269_);fill:#050505;}
	.st37{clip-path:url(#SVGID_00000137854000132675853350000011332826329166091396_);fill:#F4F4F4;}
	.st38{clip-path:url(#SVGID_00000021830402358260177760000012223242711754281366_);fill:#050505;}
	.st39{clip-path:url(#SVGID_00000078765131097170700850000010666866590792980380_);fill:#F4F4F4;}
	.st40{clip-path:url(#SVGID_00000056404902178699341410000002298961416956859035_);fill:#050505;}
	.st41{clip-path:url(#SVGID_00000018944920944004413090000010418559384847652015_);fill:#F4F4F4;}
	.st42{clip-path:url(#SVGID_00000180359388979301880950000005238793646384580542_);fill:#050505;}
	.st43{clip-path:url(#SVGID_00000022531557247553663090000017290586173005967541_);fill:#050505;}
	.st44{clip-path:url(#SVGID_00000052822570216855339330000012307245953456929925_);fill:#F4F4F4;}
	.st45{clip-path:url(#SVGID_00000162337113220003254760000004316064123809896333_);fill:#050505;}
	.st46{clip-path:url(#SVGID_00000134958746469181243600000008547231715744119944_);fill:#050505;}
	.st47{clip-path:url(#SVGID_00000161622520522057928540000010935485762507183548_);fill:#050505;}
	.st48{clip-path:url(#SVGID_00000107556875560427324030000000652907151676273061_);fill:#F4F4F4;}
	.st49{clip-path:url(#SVGID_00000051346210515460314860000005194505955258283453_);fill:#050505;}
	.st50{clip-path:url(#SVGID_00000109725578077977415890000005974609142717146520_);fill:#050505;}
	.st51{clip-path:url(#SVGID_00000058584546974618843460000013547384210963183021_);fill:#80ABFF;}
	.st52{fill:#80ABFF;}
</style>
<g>
	<defs>
		<path id="SVGID_1_" d="M61.57,7.13C89.18,7.13,110,38.39,110,66s-22.39,50-50,50c-25.67,0-46.83-19.35-49.67-44.26
			c-0.21-1.88-5.37-10.21-5.37-12.15c0-3.65,5.47-0.94,6.26-4.64C16.39,30.67,37.6,7.13,61.57,7.13z"/>
	</defs>
	<clipPath id="SVGID_00000154396629967809973230000006833612927965396916_">
		<use xlink:href="#SVGID_1_"  style="overflow:visible;"/>
	</clipPath>
	
		<circle style="clip-path:url(#SVGID_00000154396629967809973230000006833612927965396916_);fill:#F4F4F4;" cx="60" cy="66" r="50"/>
	<g style="clip-path:url(#SVGID_00000154396629967809973230000006833612927965396916_);">
		<g>
			<g>
				<defs>
					<rect id="SVGID_00000053519640352063246840000013591678534561079170_" y="0" width="120" height="120"/>
				</defs>
				<clipPath id="SVGID_00000098200811525946799840000015560973054579193254_">
					<use xlink:href="#SVGID_00000053519640352063246840000013591678534561079170_"  style="overflow:visible;"/>
				</clipPath>
				<path style="clip-path:url(#SVGID_00000098200811525946799840000015560973054579193254_);fill:#F4F4F4;" d="M96.56,109.25
					c-0.03-1.21-0.07-2.43-0.1-3.7c-0.58-22.3-1.01-31.38-1.01-31.38C94.94,62.2,88.8,61.12,88.8,61.12l-2.61,25.39L84.7,99.98
					l0.53,9.27L96.56,109.25L96.56,109.25z"/>
			</g>
			<g>
				<defs>
					<rect id="SVGID_00000096760009290577880750000011447983648653908139_" y="0" width="120" height="120"/>
				</defs>
				<clipPath id="SVGID_00000167366029682273300580000010715661765931997597_">
					<use xlink:href="#SVGID_00000096760009290577880750000011447983648653908139_"  style="overflow:visible;"/>
				</clipPath>
				<path style="clip-path:url(#SVGID_00000167366029682273300580000010715661765931997597_);fill:#050505;" d="M88.3,61.08
					l-2.61,25.39l0.99,0.1l2.61-25.39L88.3,61.08z M95.95,74.15C95.69,68.08,94,64.7,92.3,62.82c-0.85-0.93-1.68-1.48-2.32-1.79
					c-0.32-0.16-0.58-0.25-0.77-0.31c-0.1-0.03-0.17-0.05-0.23-0.06c-0.03-0.01-0.05-0.01-0.07-0.01c-0.01,0-0.02,0-0.02,0h-0.01
					l0,0l0,0c0,0,0,0-0.09,0.49s-0.09,0.49-0.09,0.49l0,0l0,0l0,0c0,0,0,0,0.01,0s0.02,0,0.04,0.01c0.03,0.01,0.09,0.02,0.16,0.05
					c0.15,0.05,0.36,0.12,0.63,0.26c0.53,0.26,1.26,0.73,2.02,1.57c1.5,1.66,3.14,4.8,3.39,10.7L95.95,74.15z M97.06,108.81
					C96.77,97.67,96.49,89,96.28,83.12c-0.1-2.94-0.19-5.18-0.25-6.69c-0.03-0.75-0.05-1.32-0.07-1.71
					c-0.01-0.19-0.01-0.33-0.02-0.43c0-0.05,0-0.08,0-0.11c0-0.01,0-0.02,0-0.03v-0.01l0,0l0,0c0,0,0,0-0.5,0.02s-0.5,0.02-0.5,0.02
					l0,0l0,0c0,0,0,0,0,0.01s0,0.01,0,0.03s0,0.06,0,0.11c0,0.1,0.01,0.24,0.02,0.43c0.02,0.38,0.04,0.95,0.07,1.7
					c0.06,1.51,0.14,3.75,0.25,6.68c0.21,5.88,0.48,14.54,0.77,25.68L97.06,108.81z M85.69,86.46c-0.03,0.27,0.17,0.52,0.45,0.55
					s0.52-0.17,0.55-0.45L85.69,86.46z M88.79,61.13l0.09-0.49c-0.14-0.02-0.28,0.01-0.39,0.09s-0.18,0.21-0.2,0.35L88.79,61.13z
					 M95.45,74.17l-0.5,0.02l0,0L95.45,74.17z M96.06,108.84c0.01,0.28,0.24,0.49,0.51,0.49c0.28-0.01,0.49-0.24,0.49-0.51
					L96.06,108.84z"/>
			</g>
			<g>
				<defs>
					<rect id="SVGID_00000093177687533878884880000010823530411328126614_" y="0" width="120" height="120"/>
				</defs>
				<clipPath id="SVGID_00000137816150304917819050000005842422022362813573_">
					<use xlink:href="#SVGID_00000093177687533878884880000010823530411328126614_"  style="overflow:visible;"/>
				</clipPath>
				<path style="clip-path:url(#SVGID_00000137816150304917819050000005842422022362813573_);fill:#050505;" d="M91.1,74.56
					c-0.47-0.16-0.47-0.16-0.47-0.16l0,0l0,0c0,0,0,0,0,0.01s0,0.01-0.01,0.02c-0.01,0.02-0.02,0.05-0.03,0.09
					c-0.03,0.08-0.07,0.2-0.12,0.35c-0.1,0.3-0.25,0.74-0.44,1.29c-0.37,1.09-0.87,2.6-1.41,4.28c-1.09,3.36-2.35,7.44-3.03,10.25
					l0.97,0.24c0.67-2.76,1.92-6.81,3.01-10.17c0.54-1.68,1.04-3.19,1.41-4.27c0.18-0.54,0.33-0.98,0.43-1.28
					c0.05-0.15,0.09-0.27,0.12-0.35c0.01-0.04,0.02-0.07,0.03-0.09c0-0.01,0.01-0.02,0.01-0.02s0,0,0-0.01l0,0l0,0
					C91.57,74.72,91.57,74.72,91.1,74.56z M85.58,90.69c-0.06,0.27,0.1,0.54,0.37,0.6c0.27,0.06,0.54-0.1,0.6-0.37L85.58,90.69z
					 M91.57,74.72c0.09-0.26-0.05-0.55-0.31-0.64C91,74,90.71,74.13,90.62,74.4L91.57,74.72z"/>
			</g>
			<g>
				<defs>
					<rect id="SVGID_00000001665374855561757230000003422177130387771557_" y="0" width="120" height="120"/>
				</defs>
				<clipPath id="SVGID_00000109721135824709858800000001279436194651453856_">
					<use xlink:href="#SVGID_00000001665374855561757230000003422177130387771557_"  style="overflow:visible;"/>
				</clipPath>
				<path style="clip-path:url(#SVGID_00000109721135824709858800000001279436194651453856_);fill:#F4F4F4;" d="M63.68,122
					c-9.2-16.63-11.98-58.54-12.19-65.93h25.37C76.63,63.46,75.21,105.37,66,122H63.68z"/>
			</g>
			<g>
				<defs>
					<rect id="SVGID_00000142156370003882556220000004668839664359852678_" y="0" width="120" height="120"/>
				</defs>
				<clipPath id="SVGID_00000065774729449073590150000005597573188268618387_">
					<use xlink:href="#SVGID_00000142156370003882556220000004668839664359852678_"  style="overflow:visible;"/>
				</clipPath>
				<path style="clip-path:url(#SVGID_00000065774729449073590150000005597573188268618387_);fill:#F4F4F4;" d="M71.24,53.87
					c-0.96-7.2-0.67-14.22-0.67-14.22H57.8c0,0,0.31,6.95-0.68,14.32c-4.62,1.22-7.55,3.55-7.55,6.36c0,4.03,6.49,6.35,14.55,6.35
					s14.64-2.31,14.64-6.35C78.77,57.56,75.77,55.11,71.24,53.87z"/>
			</g>
			<g>
				<defs>
					<rect id="SVGID_00000003086027426379140880000001070147541406339990_" y="0" width="120" height="120"/>
				</defs>
				<clipPath id="SVGID_00000054242717806292559050000002700515886966927540_">
					<use xlink:href="#SVGID_00000003086027426379140880000001070147541406339990_"  style="overflow:visible;"/>
				</clipPath>
				<path style="clip-path:url(#SVGID_00000054242717806292559050000002700515886966927540_);fill:#050505;" d="M79.27,60.33
					c0-1.58-0.86-3.01-2.24-4.18c-1.39-1.17-3.34-2.12-5.65-2.76l-0.26,0.96c2.21,0.61,4.02,1.5,5.27,2.55s1.89,2.23,1.89,3.42h0.99
					V60.33z M64.13,67.18c4.07,0,7.8-0.58,10.53-1.7c2.7-1.1,4.61-2.81,4.61-5.15h-1c0,1.7-1.38,3.16-3.99,4.22
					c-2.57,1.05-6.16,1.62-10.15,1.62V67.18z M49.08,60.33c0,2.33,1.88,4.04,4.56,5.15c2.71,1.12,6.42,1.7,10.49,1.7v-1
					c-3.99,0-7.56-0.57-10.11-1.62c-2.58-1.06-3.94-2.52-3.94-4.22L49.08,60.33L49.08,60.33z M56.99,53.49
					c-2.36,0.62-4.32,1.54-5.7,2.68c-1.39,1.15-2.22,2.56-2.22,4.16h1c0-1.21,0.63-2.37,1.86-3.39c1.24-1.03,3.05-1.89,5.32-2.49
					L56.99,53.49z M57.8,39.66c-0.5,0.02-0.5,0.02-0.5,0.02l0,0l0,0l0,0v0.01c0,0.01,0,0.03,0,0.06c0,0.05,0,0.13,0.01,0.23
					c0.01,0.2,0.01,0.5,0.02,0.88c0.01,0.76,0.02,1.85,0,3.18c-0.05,2.65-0.22,6.2-0.7,9.86l0.99,0.13c0.5-3.71,0.67-7.31,0.71-9.98
					c0.02-1.34,0.02-2.44,0-3.21c-0.01-0.39-0.01-0.69-0.02-0.89c0-0.1-0.01-0.18-0.01-0.24c0-0.03,0-0.05,0-0.06
					c0-0.01,0-0.01,0-0.02l0,0l0,0l0,0C58.3,39.63,58.3,39.63,57.8,39.66z M70.57,39.16H57.8v1h12.77V39.16z M71.74,53.81
					c-0.48-3.58-0.65-7.11-0.69-9.75c-0.02-1.32-0.02-2.42,0-3.18c0.01-0.38,0.01-0.68,0.02-0.89c0-0.1,0.01-0.18,0.01-0.23
					c0-0.03,0-0.05,0-0.06c0-0.01,0-0.01,0-0.01l0,0l0,0l0,0c0,0,0,0-0.5-0.02s-0.5-0.02-0.5-0.02l0,0l0,0l0,0c0,0,0,0.01,0,0.02
					c0,0.01,0,0.03,0,0.06c0,0.05,0,0.13-0.01,0.24c-0.01,0.21-0.01,0.51-0.02,0.9c-0.01,0.78-0.02,1.88,0,3.22
					c0.05,2.67,0.21,6.24,0.7,9.87L71.74,53.81z M57.12,53.97l0.13,0.48c0.2-0.05,0.34-0.22,0.37-0.42L57.12,53.97z M57.8,39.66
					v-0.5c-0.14,0-0.27,0.06-0.36,0.15c-0.09,0.1-0.14,0.23-0.14,0.37L57.8,39.66z M70.57,39.66l0.5,0.02
					c0.01-0.14-0.04-0.27-0.14-0.37c-0.09-0.1-0.22-0.15-0.36-0.15V39.66z M71.24,53.87l-0.5,0.07c0.03,0.2,0.17,0.36,0.36,0.42
					L71.24,53.87z"/>
			</g>
			<g>
				<defs>
					<rect id="SVGID_00000096744016370020050700000012487194069057374620_" y="0" width="120" height="120"/>
				</defs>
				<clipPath id="SVGID_00000165235145561007673170000003133370971794627759_">
					<use xlink:href="#SVGID_00000096744016370020050700000012487194069057374620_"  style="overflow:visible;"/>
				</clipPath>
				<path style="clip-path:url(#SVGID_00000165235145561007673170000003133370971794627759_);fill:#050505;" d="M59.85,58.66
					l1.04,0.41l0.37-0.93l-1.04-0.41L59.85,58.66z M53.77,58.47l6.25,0.23l0.04-1l-6.25-0.23L53.77,58.47z M60.89,59.07
					c0.26,0.1,0.55-0.02,0.65-0.28c0.1-0.26-0.02-0.55-0.28-0.65L60.89,59.07z M60.03,58.19l0.18-0.46
					c-0.05-0.02-0.11-0.03-0.17-0.03L60.03,58.19z M53.8,57.47c-0.28-0.01-0.51,0.21-0.52,0.48c-0.01,0.28,0.21,0.51,0.48,0.52
					L53.8,57.47z"/>
			</g>
			<g>
				<defs>
					<rect id="SVGID_00000173121551084598390070000005320758833108569781_" y="0" width="120" height="120"/>
				</defs>
				<clipPath id="SVGID_00000152962836807745134860000003248837437333521037_">
					<use xlink:href="#SVGID_00000173121551084598390070000005320758833108569781_"  style="overflow:visible;"/>
				</clipPath>
				<path style="clip-path:url(#SVGID_00000152962836807745134860000003248837437333521037_);fill:#050505;" d="M68.1,57.73
					l-1.03,0.41l0.37,0.93l1.03-0.41L68.1,57.73z M74.52,57.47l-6.25,0.23l0.04,1l6.25-0.23L74.52,57.47z M67.07,58.14
					c-0.26,0.1-0.38,0.39-0.28,0.65c0.1,0.26,0.39,0.38,0.65,0.28L67.07,58.14z M68.29,58.19l-0.02-0.5c-0.06,0-0.11,0.01-0.17,0.04
					L68.29,58.19z M74.56,58.47c0.28-0.01,0.49-0.24,0.48-0.52s-0.24-0.49-0.52-0.48L74.56,58.47z"/>
			</g>
			<g>
				<defs>
					<rect id="SVGID_00000070085883020991105820000009525266657529777811_" y="0" width="120" height="120"/>
				</defs>
				<clipPath id="SVGID_00000057849075667116851920000009088548333433436344_">
					<use xlink:href="#SVGID_00000070085883020991105820000009525266657529777811_"  style="overflow:visible;"/>
				</clipPath>
				<path style="clip-path:url(#SVGID_00000057849075667116851920000009088548333433436344_);fill:#F4F4F4;" d="M42.8,116h42.65
					l-0.59-15.9l5.07-38.67c0,0-16.63-6.88-16.5-5.77C77,61.43,76.47,99.02,65,121.5C53.49,99.66,52,58,56,54
					c0.31-1.07-17.71,7.43-17.71,7.43l5.12,38.67L42.8,116L42.8,116z"/>
			</g>
			<g>
				<defs>
					<rect id="SVGID_00000166656619877612889740000000089449333944227235_" y="0" width="120" height="120"/>
				</defs>
				<clipPath id="SVGID_00000016054637548460995910000002268386810171302554_">
					<use xlink:href="#SVGID_00000166656619877612889740000000089449333944227235_"  style="overflow:visible;"/>
				</clipPath>
				<path style="clip-path:url(#SVGID_00000016054637548460995910000002268386810171302554_);fill:#050505;" d="M42.9,100.08
					l-0.6,14.96l1,0.04l0.6-14.96L42.9,100.08z M37.78,61.5l5.12,38.67l0.99-0.13l-5.12-38.67L37.78,61.5z M56.48,54.14
					c0.02-0.08,0.04-0.2,0-0.34c-0.05-0.14-0.14-0.24-0.24-0.3c-0.16-0.1-0.33-0.1-0.4-0.09c-0.18,0.01-0.41,0.06-0.64,0.12
					c-0.49,0.14-1.19,0.39-2.01,0.71c-1.66,0.65-3.89,1.62-6.13,2.61c-2.24,1-4.48,2.03-6.17,2.81c-0.84,0.39-1.55,0.72-2.04,0.95
					c-0.25,0.12-0.44,0.21-0.57,0.27c-0.07,0.03-0.12,0.05-0.15,0.07c-0.02,0.01-0.03,0.01-0.04,0.02h-0.01l0,0l0,0
					c0,0,0,0,0.21,0.45s0.21,0.45,0.21,0.45l0,0l0,0h0.01c0.01,0,0.02-0.01,0.04-0.02c0.03-0.02,0.08-0.04,0.15-0.07
					c0.13-0.06,0.33-0.15,0.57-0.27c0.49-0.23,1.19-0.56,2.04-0.95c1.68-0.78,3.93-1.81,6.16-2.8c2.23-1,4.45-1.95,6.09-2.6
					c0.82-0.32,1.48-0.56,1.92-0.68c0.23-0.06,0.35-0.08,0.4-0.09c0.04,0-0.05,0.01-0.15-0.05c-0.07-0.04-0.15-0.12-0.19-0.24
					c-0.04-0.11-0.02-0.2-0.01-0.25L56.48,54.14z M65.44,123.27c-5.71-10.84-9.08-27.01-10.45-41.07c-0.68-7.02-0.87-13.5-0.6-18.49
					c0.13-2.5,0.38-4.61,0.72-6.23c0.17-0.81,0.37-1.48,0.59-2.02s0.44-0.9,0.66-1.12l-0.71-0.71c-0.35,0.35-0.64,0.85-0.88,1.45
					c-0.24,0.6-0.46,1.34-0.64,2.18c-0.36,1.69-0.61,3.86-0.74,6.38c-0.27,5.07-0.08,11.6,0.61,18.66
					c1.38,14.1,4.76,30.43,10.56,41.44L65.44,123.27z M73.1,56.05c0.78,0.63,1.45,1.77,1.98,3.41c0.53,1.63,0.9,3.7,1.12,6.11
					c0.44,4.83,0.24,10.98-0.53,17.68c-1.55,13.39-5.41,28.85-11.12,40.02l0.89,0.45c5.77-11.31,9.66-26.89,11.22-40.36
					c0.78-6.73,0.98-12.96,0.54-17.88c-0.22-2.46-0.61-4.61-1.17-6.33s-1.31-3.07-2.3-3.88L73.1,56.05z M89.92,61.43
					c0.19-0.46,0.19-0.46,0.19-0.46l0,0l0,0H90.1c-0.01,0-0.02-0.01-0.04-0.01c-0.03-0.01-0.08-0.03-0.14-0.06
					c-0.12-0.05-0.3-0.12-0.53-0.22c-0.46-0.19-1.1-0.45-1.88-0.76c-1.56-0.63-3.64-1.45-5.71-2.25c-2.07-0.79-4.15-1.55-5.71-2.04
					c-0.77-0.25-1.44-0.43-1.91-0.52c-0.23-0.04-0.46-0.07-0.65-0.05c-0.09,0.01-0.24,0.03-0.37,0.13c-0.07,0.05-0.15,0.13-0.2,0.24
					c-0.05,0.11-0.06,0.22-0.05,0.31l0.99-0.11c0.01,0.06,0,0.13-0.03,0.22c-0.04,0.08-0.09,0.14-0.14,0.17
					c-0.08,0.06-0.14,0.05-0.11,0.05c0.04,0,0.16,0,0.37,0.04c0.41,0.08,1.02,0.25,1.79,0.49c1.53,0.48,3.58,1.24,5.65,2.02
					c2.07,0.79,4.14,1.61,5.69,2.24c0.78,0.31,1.43,0.58,1.88,0.76c0.23,0.09,0.41,0.17,0.53,0.22c0.06,0.02,0.11,0.04,0.14,0.06
					c0.02,0.01,0.03,0.01,0.04,0.01h0.01l0,0l0,0C89.73,61.89,89.73,61.89,89.92,61.43z M85.35,100.16l5.07-38.67l-0.99-0.13
					l-5.07,38.67L85.35,100.16z M85.94,115.04l-0.59-14.96l-1,0.04l0.59,14.96L85.94,115.04z M42.3,115.04
					c-0.01,0.28,0.2,0.51,0.48,0.52c0.28,0.01,0.51-0.2,0.52-0.48L42.3,115.04z M43.4,100.1l0.5,0.02c0-0.03,0-0.06,0-0.09
					L43.4,100.1z M38.28,61.43l-0.21-0.45c-0.2,0.09-0.31,0.3-0.28,0.52L38.28,61.43z M56,54l0.35,0.35
					c0.06-0.06,0.1-0.13,0.13-0.21L56,54z M65,123.5l-0.44,0.23C64.64,123.9,64.82,124,65,124c0.19,0,0.36-0.11,0.44-0.27L65,123.5z
					 M73.42,55.67l-0.5,0.06c0.01,0.13,0.08,0.25,0.18,0.33L73.42,55.67z M89.92,61.43l0.5,0.06c0.03-0.22-0.1-0.44-0.3-0.53
					L89.92,61.43z M84.85,100.1l-0.5-0.06c0,0.03,0,0.06,0,0.08L84.85,100.1z M84.94,115.08c0.01,0.28,0.24,0.49,0.52,0.48
					c0.28-0.01,0.49-0.24,0.48-0.52L84.94,115.08z"/>
			</g>
			<g>
				<defs>
					<rect id="SVGID_00000007429904303545125740000003038375659417707931_" y="0" width="120" height="120"/>
				</defs>
				<clipPath id="SVGID_00000065754474811554904950000014532180052028019637_">
					<use xlink:href="#SVGID_00000007429904303545125740000003038375659417707931_"  style="overflow:visible;"/>
				</clipPath>
				<path style="clip-path:url(#SVGID_00000065754474811554904950000014532180052028019637_);fill:#F4F4F4;" d="M48.35,58.28
					l1.76,3.12l-3.1,1.91c0,0,6.23,47.56,9.99,53.69c3.76,6.13,6.5,2.5,6.5,2.5s-11-51.62-8.13-62.59l1.1-3.75L48.35,58.28
					L48.35,58.28z"/>
			</g>
			<g>
				<defs>
					<rect id="SVGID_00000054983383548349550970000011501970967094159489_" y="0" width="120" height="120"/>
				</defs>
				<clipPath id="SVGID_00000034085330404456227670000004085693443409137075_">
					<use xlink:href="#SVGID_00000054983383548349550970000011501970967094159489_"  style="overflow:visible;"/>
				</clipPath>
				<path style="clip-path:url(#SVGID_00000034085330404456227670000004085693443409137075_);fill:#050505;" d="M48,57.92L48,57.92
					l0.7,0.72l0.01-0.01L48,57.92z M56.21,52.73l-8.12,5.12l0.53,0.85l8.12-5.12L56.21,52.73z M55.85,57.05l1.1-3.75l-0.96-0.28
					l-1.1,3.75L55.85,57.05z M63.5,119.5c0.49-0.1,0.49-0.1,0.49-0.1l0,0c0,0,0,0,0-0.01s0-0.02-0.01-0.03
					c-0.01-0.02-0.01-0.06-0.02-0.11c-0.02-0.1-0.05-0.24-0.09-0.43c-0.08-0.38-0.2-0.94-0.34-1.66c-0.29-1.43-0.71-3.49-1.21-5.99
					c-0.99-5.01-2.27-11.8-3.47-18.93c-1.19-7.13-2.3-14.6-2.92-20.97c-0.31-3.18-0.51-6.08-0.53-8.53
					c-0.03-2.45,0.12-4.4,0.46-5.71l-0.97-0.25c-0.38,1.44-0.52,3.5-0.49,5.97c0.03,2.48,0.22,5.41,0.54,8.61
					c0.63,6.4,1.74,13.89,2.93,21.04c1.2,7.14,2.48,13.95,3.47,18.96c0.49,2.51,0.91,4.57,1.21,6c0.15,0.72,0.26,1.28,0.34,1.66
					c0.04,0.19,0.07,0.34,0.09,0.43c0.01,0.05,0.02,0.09,0.02,0.11c0,0.01,0,0.02,0.01,0.03v0.01l0,0
					C63.01,119.6,63.01,119.6,63.5,119.5z M56.57,117.26c1.92,3.13,3.7,3.96,5.15,3.78c0.69-0.08,1.24-0.4,1.6-0.68
					c0.18-0.14,0.32-0.28,0.42-0.38c0.05-0.05,0.09-0.09,0.11-0.13c0.01-0.02,0.02-0.03,0.03-0.04l0.01-0.01l0,0l0,0l0,0
					c0,0,0,0-0.4-0.3s-0.4-0.3-0.4-0.3l0,0l0,0l0,0l0,0c0,0-0.01,0.01-0.02,0.02c-0.02,0.02-0.04,0.05-0.07,0.08
					c-0.07,0.07-0.17,0.17-0.3,0.28c-0.27,0.21-0.65,0.42-1.11,0.48c-0.87,0.11-2.33-0.31-4.17-3.31L56.57,117.26z M47.01,63.31
					c-0.5,0.06-0.5,0.07-0.5,0.07l0,0c0,0,0,0,0,0.01s0,0.01,0,0.03s0.01,0.06,0.01,0.1c0.01,0.09,0.03,0.22,0.05,0.4
					c0.05,0.35,0.12,0.86,0.2,1.52c0.18,1.31,0.44,3.2,0.76,5.47c0.64,4.56,1.54,10.7,2.56,17.03c1.01,6.33,2.15,12.86,3.26,18.19
					c0.56,2.67,1.11,5.04,1.65,6.94c0.53,1.88,1.05,3.36,1.56,4.19l0.85-0.52c-0.43-0.7-0.92-2.05-1.45-3.94
					c-0.53-1.87-1.08-4.22-1.63-6.88c-1.11-5.31-2.24-11.82-3.25-18.15c-1.01-6.32-1.91-12.46-2.55-17.01
					c-0.32-2.28-0.58-4.16-0.76-5.47c-0.09-0.66-0.16-1.17-0.2-1.52c-0.02-0.17-0.04-0.31-0.05-0.4c-0.01-0.05-0.01-0.08-0.01-0.1
					c0-0.01,0-0.02,0-0.03v-0.01l0,0C47.5,63.25,47.5,63.25,47.01,63.31z M49.84,60.98l-3.1,1.91l0.52,0.85l3.1-1.91L49.84,60.98z
					 M47.91,58.53l1.76,3.12l0.87-0.49l-1.76-3.12L47.91,58.53z M48.36,58.27l-0.27-0.42c-0.03,0.02-0.06,0.04-0.09,0.07
					L48.36,58.27z M56.47,53.16l0.48,0.14c0.06-0.2-0.01-0.41-0.18-0.54s-0.39-0.13-0.57-0.02L56.47,53.16z M55.37,56.91l-0.48-0.14
					v0.01L55.37,56.91z M63.5,119.5l0.4,0.3c0.09-0.12,0.12-0.26,0.09-0.41L63.5,119.5z M47.01,63.31l-0.26-0.43
					c-0.17,0.1-0.26,0.3-0.23,0.49L47.01,63.31z M50.11,61.4l0.26,0.43c0.23-0.14,0.31-0.44,0.17-0.67L50.11,61.4z M48.35,58.28
					L48,57.93c-0.16,0.16-0.19,0.4-0.08,0.6L48.35,58.28z"/>
			</g>
			<g>
				<defs>
					<rect id="SVGID_00000088834070731418773930000016587209090439061641_" y="0" width="120" height="120"/>
				</defs>
				<clipPath id="SVGID_00000130621511090761799440000000685912172649852812_">
					<use xlink:href="#SVGID_00000088834070731418773930000016587209090439061641_"  style="overflow:visible;"/>
				</clipPath>
				<path style="clip-path:url(#SVGID_00000130621511090761799440000000685912172649852812_);fill:#F4F4F4;" d="M81.15,59.13
					l-1.76,3.12l3.1,1.91c0,0-6.23,47.56-9.99,53.69c-3.76,6.13-6.5,2.5-6.5,2.5s11-51.62,8.13-62.59L73.03,54l8.47,3.75
					L81.15,59.13z"/>
			</g>
			<g>
				<defs>
					<rect id="SVGID_00000002372255103719306320000014594097941813252011_" y="0" width="120" height="120"/>
				</defs>
				<clipPath id="SVGID_00000092436229585061577390000010749201351227015604_">
					<use xlink:href="#SVGID_00000002372255103719306320000014594097941813252011_"  style="overflow:visible;"/>
				</clipPath>
				<path style="clip-path:url(#SVGID_00000092436229585061577390000010749201351227015604_);fill:#050505;" d="M81.98,57.87
					l-0.35,1.38L80.67,59l0.35-1.38L81.98,57.87z M73.23,53.54l8.47,3.75l-0.4,0.91l-8.47-3.75L73.23,53.54z M73.65,57.89l-1.1-3.75
					l0.96-0.28l1.1,3.75L73.65,57.89z M66,120.34c-0.49-0.1-0.49-0.1-0.49-0.1l0,0c0,0,0,0,0-0.01s0-0.02,0.01-0.03
					c0.01-0.02,0.01-0.06,0.02-0.11c0.02-0.1,0.05-0.24,0.09-0.43c0.08-0.38,0.2-0.94,0.34-1.66c0.29-1.43,0.71-3.49,1.21-5.99
					c0.99-5.01,2.27-11.8,3.47-18.93c1.19-7.13,2.3-14.6,2.92-20.97c0.31-3.18,0.51-6.08,0.53-8.53c0.03-2.45-0.12-4.4-0.46-5.71
					l0.97-0.25c0.38,1.44,0.52,3.5,0.49,5.97c-0.03,2.48-0.22,5.41-0.54,8.61c-0.63,6.4-1.74,13.89-2.93,21.04
					c-1.2,7.14-2.48,13.95-3.47,18.96c-0.49,2.51-0.91,4.57-1.21,6c-0.15,0.72-0.26,1.28-0.34,1.66c-0.04,0.19-0.07,0.34-0.09,0.43
					c-0.01,0.05-0.02,0.09-0.02,0.11c0,0.01,0,0.02-0.01,0.03v0.01l0,0C66.49,120.45,66.49,120.45,66,120.34z M72.93,118.11
					c-1.92,3.13-3.7,3.96-5.15,3.78c-0.69-0.08-1.24-0.4-1.6-0.68c-0.18-0.14-0.32-0.28-0.42-0.38c-0.05-0.05-0.09-0.09-0.11-0.13
					c-0.01-0.02-0.02-0.03-0.03-0.04l-0.01-0.01l0,0l0,0l0,0c0,0,0,0,0.4-0.3s0.4-0.3,0.4-0.3l0,0l0,0l0,0l0,0
					c0,0,0.01,0.01,0.02,0.02c0.02,0.02,0.04,0.05,0.07,0.08c0.07,0.07,0.17,0.17,0.3,0.28c0.27,0.21,0.65,0.42,1.11,0.48
					c0.87,0.11,2.33-0.31,4.17-3.31L72.93,118.11z M82.49,64.15c0.5,0.06,0.5,0.07,0.5,0.07l0,0c0,0,0,0,0,0.01s0,0.01,0,0.03
					s-0.01,0.06-0.01,0.1c-0.01,0.09-0.03,0.22-0.05,0.4c-0.05,0.35-0.12,0.86-0.2,1.52c-0.18,1.31-0.44,3.2-0.76,5.47
					c-0.64,4.56-1.54,10.7-2.56,17.03c-1.01,6.33-2.15,12.86-3.26,18.19c-0.56,2.67-1.11,5.04-1.65,6.94
					c-0.53,1.88-1.05,3.36-1.56,4.19l-0.85-0.52c0.43-0.7,0.92-2.05,1.45-3.94c0.53-1.87,1.08-4.22,1.63-6.88
					c1.11-5.31,2.24-11.82,3.25-18.15c1.01-6.32,1.91-12.46,2.55-17.01c0.32-2.28,0.58-4.16,0.76-5.47c0.09-0.66,0.16-1.17,0.2-1.52
					c0.02-0.17,0.04-0.31,0.05-0.4c0.01-0.05,0.01-0.08,0.01-0.1c0-0.01,0-0.02,0-0.03v-0.01l0,0C81.99,64.07,82,64.09,82.49,64.15z
					 M79.65,61.82l3.1,1.91l-0.52,0.85l-3.1-1.91L79.65,61.82z M81.59,59.37l-1.76,3.12L78.96,62l1.76-3.12L81.59,59.37z
					 M81.5,57.75l0.2-0.46c0.22,0.1,0.34,0.34,0.28,0.58L81.5,57.75z M73.03,54l-0.48,0.14c-0.05-0.19,0-0.39,0.15-0.52
					s0.35-0.16,0.53-0.08L73.03,54z M74.13,57.75l0.48-0.14v0.01L74.13,57.75z M66,120.34l-0.4,0.3c-0.09-0.12-0.12-0.26-0.09-0.41
					L66,120.34z M82.49,64.15l0.26-0.43c0.17,0.1,0.26,0.3,0.23,0.49L82.49,64.15z M79.39,62.25l-0.26,0.43
					c-0.23-0.14-0.31-0.44-0.17-0.67L79.39,62.25z M81.15,59.13l0.48,0.12c-0.01,0.04-0.03,0.09-0.05,0.12L81.15,59.13z"/>
			</g>
			<g>
				<defs>
					<rect id="SVGID_00000093873975609497338970000003493905666401267875_" y="0" width="120" height="120"/>
				</defs>
				<clipPath id="SVGID_00000127737958460307790930000012684409852101102260_">
					<use xlink:href="#SVGID_00000093873975609497338970000003493905666401267875_"  style="overflow:visible;"/>
				</clipPath>
				<path style="clip-path:url(#SVGID_00000127737958460307790930000012684409852101102260_);fill:#F4F4F4;" d="M48.35,58.28
					l1.76,3.12l-3.1,1.91c0,0,6.23,47.56,9.99,53.69c3.76,6.13,6.5,2.5,6.5,2.5s-11-51.62-8.13-62.59l1.1-3.75L48.35,58.28
					L48.35,58.28z"/>
			</g>
			<g>
				<defs>
					<rect id="SVGID_00000071551094139347333010000006479560617022436249_" y="0" width="120" height="120"/>
				</defs>
				<clipPath id="SVGID_00000103255644234734359680000007126919511357804686_">
					<use xlink:href="#SVGID_00000071551094139347333010000006479560617022436249_"  style="overflow:visible;"/>
				</clipPath>
				<path style="clip-path:url(#SVGID_00000103255644234734359680000007126919511357804686_);fill:#050505;" d="M48,57.92L48,57.92
					l0.7,0.72l0.01-0.01L48,57.92z M56.21,52.73l-8.12,5.12l0.53,0.85l8.12-5.12L56.21,52.73z M55.85,57.05l1.1-3.75l-0.96-0.28
					l-1.1,3.75L55.85,57.05z M63.5,119.5c0.49-0.1,0.49-0.1,0.49-0.1l0,0c0,0,0,0,0-0.01s0-0.02-0.01-0.03
					c-0.01-0.02-0.01-0.06-0.02-0.11c-0.02-0.1-0.05-0.24-0.09-0.43c-0.08-0.38-0.2-0.94-0.34-1.66c-0.29-1.43-0.71-3.49-1.21-5.99
					c-0.99-5.01-2.27-11.8-3.47-18.93c-1.19-7.13-2.3-14.6-2.92-20.97c-0.31-3.18-0.51-6.08-0.53-8.53
					c-0.03-2.45,0.12-4.4,0.46-5.71l-0.97-0.25c-0.38,1.44-0.52,3.5-0.49,5.97c0.03,2.48,0.22,5.41,0.54,8.61
					c0.63,6.4,1.74,13.89,2.93,21.04c1.2,7.14,2.48,13.95,3.47,18.96c0.49,2.51,0.91,4.57,1.21,6c0.15,0.72,0.26,1.28,0.34,1.66
					c0.04,0.19,0.07,0.34,0.09,0.43c0.01,0.05,0.02,0.09,0.02,0.11c0,0.01,0,0.02,0.01,0.03v0.01l0,0
					C63.01,119.6,63.01,119.6,63.5,119.5z M56.57,117.26c1.92,3.13,3.7,3.96,5.15,3.78c0.69-0.08,1.24-0.4,1.6-0.68
					c0.18-0.14,0.32-0.28,0.42-0.38c0.05-0.05,0.09-0.09,0.11-0.13c0.01-0.02,0.02-0.03,0.03-0.04l0.01-0.01l0,0l0,0l0,0
					c0,0,0,0-0.4-0.3s-0.4-0.3-0.4-0.3l0,0l0,0l0,0l0,0c0,0-0.01,0.01-0.02,0.02c-0.02,0.02-0.04,0.05-0.07,0.08
					c-0.07,0.07-0.17,0.17-0.3,0.28c-0.27,0.21-0.65,0.42-1.11,0.48c-0.87,0.11-2.33-0.31-4.17-3.31L56.57,117.26z M47.01,63.31
					c-0.5,0.06-0.5,0.07-0.5,0.07l0,0c0,0,0,0,0,0.01s0,0.01,0,0.03s0.01,0.06,0.01,0.1c0.01,0.09,0.03,0.22,0.05,0.4
					c0.05,0.35,0.12,0.86,0.2,1.52c0.18,1.31,0.44,3.2,0.76,5.47c0.64,4.56,1.54,10.7,2.56,17.03c1.01,6.33,2.15,12.86,3.26,18.19
					c0.56,2.67,1.11,5.04,1.65,6.94c0.53,1.88,1.05,3.36,1.56,4.19l0.85-0.52c-0.43-0.7-0.92-2.05-1.45-3.94
					c-0.53-1.87-1.08-4.22-1.63-6.88c-1.11-5.31-2.24-11.82-3.25-18.15c-1.01-6.32-1.91-12.46-2.55-17.01
					c-0.32-2.28-0.58-4.16-0.76-5.47c-0.09-0.66-0.16-1.17-0.2-1.52c-0.02-0.17-0.04-0.31-0.05-0.4c-0.01-0.05-0.01-0.08-0.01-0.1
					c0-0.01,0-0.02,0-0.03v-0.01l0,0C47.5,63.25,47.5,63.25,47.01,63.31z M49.84,60.98l-3.1,1.91l0.52,0.85l3.1-1.91L49.84,60.98z
					 M47.91,58.53l1.76,3.12l0.87-0.49l-1.76-3.12L47.91,58.53z M48.36,58.27l-0.27-0.42c-0.03,0.02-0.06,0.04-0.09,0.07
					L48.36,58.27z M56.47,53.16l0.48,0.14c0.06-0.2-0.01-0.41-0.18-0.54s-0.39-0.13-0.57-0.02L56.47,53.16z M55.37,56.91l-0.48-0.14
					v0.01L55.37,56.91z M63.5,119.5l0.4,0.3c0.09-0.12,0.12-0.26,0.09-0.41L63.5,119.5z M47.01,63.31l-0.26-0.43
					c-0.17,0.1-0.26,0.3-0.23,0.49L47.01,63.31z M50.11,61.4l0.26,0.43c0.23-0.14,0.31-0.44,0.17-0.67L50.11,61.4z M48.35,58.28
					L48,57.93c-0.16,0.16-0.19,0.4-0.08,0.6L48.35,58.28z"/>
			</g>
			<g>
				<defs>
					<rect id="SVGID_00000134229611090217195750000008215298466119235984_" y="0" width="120" height="120"/>
				</defs>
				<clipPath id="SVGID_00000061453627678678811840000004341062503878466954_">
					<use xlink:href="#SVGID_00000134229611090217195750000008215298466119235984_"  style="overflow:visible;"/>
				</clipPath>
				<path style="clip-path:url(#SVGID_00000061453627678678811840000004341062503878466954_);fill:#F4F4F4;" d="M48.35,58.28
					l1.76,3.12l-3.1,1.91c0,0,6.23,47.56,9.99,53.69c3.76,6.13,6.5,2.5,6.5,2.5s-11-51.62-8.13-62.59l1.1-3.75L47.5,57L48.35,58.28z
					"/>
			</g>
			<g>
				<defs>
					<rect id="SVGID_00000181084212418384981890000011467450131548378250_" y="0" width="120" height="120"/>
				</defs>
				<clipPath id="SVGID_00000031890591250178728910000001017178421501430963_">
					<use xlink:href="#SVGID_00000181084212418384981890000011467450131548378250_"  style="overflow:visible;"/>
				</clipPath>
				<path style="clip-path:url(#SVGID_00000031890591250178728910000001017178421501430963_);fill:#050505;" d="M47.08,57.28
					l0.85,1.28l0.83-0.55l-0.85-1.28L47.08,57.28z M56.28,52.7l-8.97,3.84l0.39,0.92l8.97-3.84L56.28,52.7z M55.85,57.05l1.1-3.75
					l-0.96-0.28l-1.1,3.75L55.85,57.05z M63.5,119.5c0.49-0.1,0.49-0.1,0.49-0.1l0,0c0,0,0,0,0-0.01s0-0.02-0.01-0.03
					c-0.01-0.02-0.01-0.06-0.02-0.11c-0.02-0.1-0.05-0.24-0.09-0.43c-0.08-0.38-0.2-0.94-0.34-1.66c-0.29-1.43-0.71-3.49-1.21-5.99
					c-0.99-5.01-2.27-11.8-3.47-18.93c-1.19-7.13-2.3-14.6-2.92-20.97c-0.31-3.18-0.51-6.08-0.53-8.53
					c-0.03-2.45,0.12-4.4,0.46-5.71l-0.97-0.25c-0.38,1.44-0.52,3.5-0.49,5.97c0.03,2.48,0.22,5.41,0.54,8.61
					c0.63,6.4,1.74,13.89,2.93,21.04c1.2,7.14,2.48,13.95,3.47,18.96c0.49,2.51,0.91,4.57,1.21,6c0.15,0.72,0.26,1.28,0.34,1.66
					c0.04,0.19,0.07,0.34,0.09,0.43c0.01,0.05,0.02,0.09,0.02,0.11c0,0.01,0,0.02,0.01,0.03v0.01l0,0
					C63.01,119.6,63.01,119.6,63.5,119.5z M56.57,117.26c1.92,3.13,3.7,3.96,5.15,3.78c0.69-0.08,1.24-0.4,1.6-0.68
					c0.18-0.14,0.32-0.28,0.42-0.38c0.05-0.05,0.09-0.09,0.11-0.13c0.01-0.02,0.02-0.03,0.03-0.04l0.01-0.01l0,0l0,0l0,0
					c0,0,0,0-0.4-0.3s-0.4-0.3-0.4-0.3l0,0l0,0l0,0l0,0c0,0-0.01,0.01-0.02,0.02c-0.02,0.02-0.04,0.05-0.07,0.08
					c-0.07,0.07-0.17,0.17-0.3,0.28c-0.27,0.21-0.65,0.42-1.11,0.48c-0.87,0.11-2.33-0.31-4.17-3.31L56.57,117.26z M47.01,63.31
					c-0.5,0.06-0.5,0.07-0.5,0.07l0,0c0,0,0,0,0,0.01s0,0.01,0,0.03s0.01,0.06,0.01,0.1c0.01,0.09,0.03,0.22,0.05,0.4
					c0.05,0.35,0.12,0.86,0.2,1.52c0.18,1.31,0.44,3.2,0.76,5.47c0.64,4.56,1.54,10.7,2.56,17.03c1.01,6.33,2.15,12.86,3.26,18.19
					c0.56,2.67,1.11,5.04,1.65,6.94c0.53,1.88,1.05,3.36,1.56,4.19l0.85-0.52c-0.43-0.7-0.92-2.05-1.45-3.94
					c-0.53-1.87-1.08-4.22-1.63-6.88c-1.11-5.31-2.24-11.82-3.25-18.15c-1.01-6.32-1.91-12.46-2.55-17.01
					c-0.32-2.28-0.58-4.16-0.76-5.47c-0.09-0.66-0.16-1.17-0.2-1.52c-0.02-0.17-0.04-0.31-0.05-0.4c-0.01-0.05-0.01-0.08-0.01-0.1
					c0-0.01,0-0.02,0-0.03v-0.01l0,0C47.5,63.25,47.5,63.25,47.01,63.31z M49.84,60.98l-3.1,1.91l0.52,0.85l3.1-1.91L49.84,60.98z
					 M47.91,58.53l1.76,3.12l0.87-0.49l-1.76-3.12L47.91,58.53z M47.5,57l-0.2-0.46c-0.14,0.06-0.24,0.17-0.28,0.32
					s-0.02,0.3,0.06,0.42L47.5,57z M56.47,53.16l0.48,0.14c0.05-0.19,0-0.39-0.15-0.51c-0.14-0.13-0.35-0.16-0.53-0.09L56.47,53.16z
					 M55.37,56.91l-0.48-0.14v0.01L55.37,56.91z M63.5,119.5l0.4,0.3c0.09-0.12,0.12-0.26,0.09-0.41L63.5,119.5z M47.01,63.31
					l-0.26-0.43c-0.17,0.1-0.26,0.3-0.23,0.49L47.01,63.31z M50.11,61.4l0.26,0.43c0.23-0.14,0.31-0.44,0.17-0.67L50.11,61.4z
					 M48.35,58.28l0.44-0.25c-0.01-0.01-0.01-0.02-0.02-0.03L48.35,58.28z"/>
			</g>
			<g>
				<defs>
					<rect id="SVGID_00000072250478521220619400000011188179931770148743_" y="0" width="120" height="120"/>
				</defs>
				<clipPath id="SVGID_00000050650765619703699900000008902310313503934858_">
					<use xlink:href="#SVGID_00000072250478521220619400000011188179931770148743_"  style="overflow:visible;"/>
				</clipPath>
				<path style="clip-path:url(#SVGID_00000050650765619703699900000008902310313503934858_);fill:#80ABFF;" d="M75.63,12.05
					c-2.67-2.01-7.06-4.62-11.03-3.94l-2.76,1.3l-3.21-0.26c-1.02-0.09-2.01,0.21-2.83,0.83c-3.33,2.52-10.62,9.84-10.77,20.51
					c0,0-0.77,13.76,7.11,19.57l0.14-4.84c2.32,7.85,6.29,5.46,6.29,5.46c-10.7-8.96,0.25-30.33,0.25-30.33s-0.12,8.39,6.92,10.33
					c0,0,2.85,0.36,4.96,0.49c2.1,0.13,4.06-0.19,4.06-0.19l0.8,4.53c0,0,1.19,9.28-2.05,12.9c0,0-2.96,1.75,0.57,1.97
					c0,0,2.58,0.98,5.58-3.32c11-15.75-2.14-33.54-4.06-34.96L75.63,12.05z"/>
			</g>
			<g>
				<defs>
					<rect id="SVGID_00000147900280679778454710000009667643513825308347_" y="0" width="120" height="120"/>
				</defs>
				<clipPath id="SVGID_00000116217381089555827680000002435567899104539820_">
					<use xlink:href="#SVGID_00000147900280679778454710000009667643513825308347_"  style="overflow:visible;"/>
				</clipPath>
				<path style="clip-path:url(#SVGID_00000116217381089555827680000002435567899104539820_);fill:#F4F4F4;" d="M53.1,33.14
					c0.75,2.34,2.34,6.42,0.18,7.1c-2.16,0.69-4.48-0.23-6.5-4.77c-1-2.24-0.1-5.2,2.07-5.9C51,28.86,52.34,30.78,53.1,33.14
					L53.1,33.14z"/>
			</g>
			<g>
				<defs>
					<rect id="SVGID_00000095308062409475400180000015601076395655737508_" y="0" width="120" height="120"/>
				</defs>
				<clipPath id="SVGID_00000088123636862666751910000005795940792122097541_">
					<use xlink:href="#SVGID_00000095308062409475400180000015601076395655737508_"  style="overflow:visible;"/>
				</clipPath>
				<path style="clip-path:url(#SVGID_00000088123636862666751910000005795940792122097541_);fill:#050505;" d="M52.6,33.13
					L52.6,33.13l1,0.01v-0.01H52.6z M48.99,30.04c0.46-0.15,0.85-0.15,1.19-0.06s0.66,0.29,0.97,0.58c0.61,0.6,1.11,1.58,1.48,2.72
					l0.95-0.31c-0.39-1.2-0.94-2.36-1.73-3.12c-0.4-0.39-0.86-0.69-1.41-0.83c-0.54-0.15-1.13-0.13-1.76,0.07L48.99,30.04z
					 M47.23,35.26c-0.45-1-0.47-2.17-0.14-3.17s1.01-1.77,1.9-2.06l-0.31-0.95c-1.27,0.41-2.13,1.47-2.54,2.69s-0.38,2.65,0.17,3.89
					L47.23,35.26z M53.12,39.76c-0.96,0.3-1.92,0.25-2.88-0.37c-0.99-0.64-2.02-1.9-3.01-4.13l-0.91,0.41
					c1.03,2.32,2.17,3.78,3.39,4.57c1.24,0.8,2.52,0.86,3.73,0.48L53.12,39.76z M52.62,33.29c0.38,1.2,0.95,2.75,1.16,4.1
					c0.11,0.67,0.11,1.24,0,1.65c-0.11,0.38-0.31,0.62-0.66,0.73l0.3,0.95c0.73-0.23,1.14-0.77,1.32-1.41
					c0.17-0.62,0.14-1.35,0.03-2.07c-0.23-1.45-0.83-3.11-1.2-4.25L52.62,33.29z M53.1,33.13h0.5c0-0.05-0.01-0.1-0.02-0.15
					L53.1,33.13z M46.77,35.47l0.46-0.2l0,0L46.77,35.47z M53.1,33.14h-0.5c0,0.05,0.01,0.1,0.02,0.15L53.1,33.14z"/>
			</g>
			<g>
				<defs>
					<rect id="SVGID_00000029030832802465729350000015119475310649234339_" y="0" width="120" height="120"/>
				</defs>
				<clipPath id="SVGID_00000157986348134403746040000014833123210826403771_">
					<use xlink:href="#SVGID_00000029030832802465729350000015119475310649234339_"  style="overflow:visible;"/>
				</clipPath>
				<path style="clip-path:url(#SVGID_00000157986348134403746040000014833123210826403771_);fill:#F4F4F4;" d="M75.24,33.16
					c-0.75,2.34-2.34,6.42-0.18,7.1c2.16,0.7,4.48-0.23,6.5-4.77c1-2.24,0.1-5.2-2.07-5.9S75.99,30.81,75.24,33.16L75.24,33.16z"/>
			</g>
			<g>
				<defs>
					<rect id="SVGID_00000109000920046783740770000009459141335350654110_" y="0" width="120" height="120"/>
				</defs>
				<clipPath id="SVGID_00000055686016408170567930000015985224216446095263_">
					<use xlink:href="#SVGID_00000109000920046783740770000009459141335350654110_"  style="overflow:visible;"/>
				</clipPath>
				<path style="clip-path:url(#SVGID_00000055686016408170567930000015985224216446095263_);fill:#050505;" d="M74.74,33.15
					L74.74,33.15l1,0.01v-0.01H74.74z M79.65,29.12c-0.62-0.2-1.21-0.22-1.76-0.07c-0.54,0.14-1.01,0.44-1.41,0.83
					c-0.79,0.77-1.34,1.92-1.73,3.12l0.95,0.31c0.37-1.14,0.86-2.12,1.48-2.72c0.3-0.3,0.62-0.49,0.96-0.58s0.73-0.09,1.19,0.06
					L79.65,29.12z M82.02,35.7c0.56-1.24,0.58-2.67,0.17-3.89c-0.41-1.22-1.27-2.28-2.54-2.69l-0.31,0.95
					c0.9,0.29,1.57,1.06,1.9,2.06s0.31,2.17-0.14,3.17L82.02,35.7z M74.91,40.74c1.21,0.39,2.49,0.33,3.73-0.48
					c1.22-0.79,2.35-2.25,3.39-4.57l-0.91-0.41c-0.99,2.23-2.03,3.5-3.01,4.14c-0.96,0.62-1.92,0.67-2.88,0.36L74.91,40.74z
					 M74.76,33.01c-0.36,1.14-0.97,2.8-1.2,4.25c-0.11,0.72-0.15,1.45,0.03,2.07c0.18,0.65,0.59,1.18,1.32,1.41l0.3-0.95
					c-0.35-0.11-0.55-0.35-0.66-0.73c-0.11-0.41-0.11-0.98,0-1.65c0.21-1.35,0.78-2.89,1.16-4.1L74.76,33.01z M75.24,33.15L74.76,33
					c-0.02,0.05-0.02,0.1-0.02,0.15H75.24z M81.56,35.49l-0.46-0.2l0,0L81.56,35.49z M75.06,40.27l0.15-0.48l0,0L75.06,40.27z
					 M75.24,33.16l0.48,0.15c0.02-0.05,0.02-0.1,0.02-0.15H75.24z"/>
			</g>
			<g>
				<defs>
					<rect id="SVGID_00000062156854851188105190000006702516691143173823_" y="0" width="120" height="120"/>
				</defs>
				<clipPath id="SVGID_00000169551285005933050530000005272121787221354659_">
					<use xlink:href="#SVGID_00000062156854851188105190000006702516691143173823_"  style="overflow:visible;"/>
				</clipPath>
				<path style="clip-path:url(#SVGID_00000169551285005933050530000005272121787221354659_);fill:#F4F4F4;" d="M78.35,24.1
					C77.78,13.21,71.46,8.76,64.1,8.68c-7.36,0.08-13.69,4.53-14.25,15.42c-0.46,9.05,1.83,18.8,7.29,23.84
					c2.27,2.1,4.75,2.73,6.96,2.7c2.19,0.03,4.68-0.6,6.96-2.7C76.52,42.9,78.81,33.16,78.35,24.1z"/>
			</g>
			<g>
				<defs>
					<rect id="SVGID_00000142153518683883124120000002636213167360380842_" y="0" width="120" height="120"/>
				</defs>
				<clipPath id="SVGID_00000077298185404720812810000015025268823917601712_">
					<use xlink:href="#SVGID_00000142153518683883124120000002636213167360380842_"  style="overflow:visible;"/>
				</clipPath>
				<g style="clip-path:url(#SVGID_00000077298185404720812810000015025268823917601712_);">
					<g>
						<defs>
							<path id="SVGID_00000060020651505599604110000004108680314205765823_" d="M78.35,24.1C77.78,13.21,71.46,8.76,64.1,8.68
								c-7.36,0.08-13.69,4.53-14.25,15.42c-0.46,9.05,1.83,18.8,7.29,23.84c2.27,2.1,4.75,2.73,6.96,2.7
								c2.19,0.03,4.68-0.6,6.96-2.7C76.52,42.9,78.81,33.16,78.35,24.1z"/>
						</defs>
						<clipPath id="SVGID_00000055699595847357671910000006485292312284407433_">
							<use xlink:href="#SVGID_00000060020651505599604110000004108680314205765823_"  style="overflow:visible;"/>
						</clipPath>
						<path style="clip-path:url(#SVGID_00000055699595847357671910000006485292312284407433_);fill:#050505;" d="M71.73,48.68
							c2.91-2.68,4.92-6.56,6.15-10.87c1.23-4.32,1.7-9.13,1.46-13.75l-2,0.1c0.23,4.44-0.22,9.02-1.39,13.1
							c-1.17,4.09-3.03,7.6-5.58,9.95L71.73,48.68z M64.08,51.64c2.41,0.03,5.16-0.67,7.65-2.96l-1.36-1.47
							c-2.06,1.9-4.29,2.46-6.27,2.43L64.08,51.64z M56.46,48.68c2.49,2.29,5.23,2.99,7.65,2.96l-0.03-2
							c-1.99,0.03-4.21-0.53-6.27-2.43L56.46,48.68z M48.85,24.05c-0.24,4.62,0.23,9.43,1.46,13.75c1.23,4.31,3.24,8.19,6.15,10.88
							l1.36-1.47c-2.55-2.35-4.42-5.86-5.58-9.95c-1.16-4.08-1.61-8.67-1.39-13.1L48.85,24.05z M64.09,7.68
							c-3.88,0.04-7.56,1.24-10.36,3.93c-2.8,2.7-4.59,6.8-4.88,12.43l2,0.1c0.27-5.26,1.92-8.83,4.27-11.1
							c2.35-2.27,5.51-3.34,8.99-3.37L64.09,7.68z M79.34,24.05c-0.29-5.63-2.08-9.73-4.88-12.43c-2.79-2.7-6.48-3.89-10.36-3.93
							l-0.02,2c3.48,0.04,6.64,1.1,8.99,3.37s4,5.84,4.27,11.1L79.34,24.05z M71.05,47.94l0.68,0.74l0,0L71.05,47.94z M64.1,50.64
							l0.01-1H64.1h-0.01L64.1,50.64z M57.14,47.94l-0.68,0.74l0,0L57.14,47.94z M49.85,24.1l-1-0.05l0,0L49.85,24.1z M64.1,8.68
							l0.01-1H64.1h-0.01L64.1,8.68z M78.35,24.1l1-0.05l0,0L78.35,24.1z"/>
					</g>
				</g>
			</g>
			<g>
				<defs>
					<rect id="SVGID_00000181085823336053679560000009104752876866038173_" y="0" width="120" height="120"/>
				</defs>
				<clipPath id="SVGID_00000083048112015349107230000011555998561963331001_">
					<use xlink:href="#SVGID_00000181085823336053679560000009104752876866038173_"  style="overflow:visible;"/>
				</clipPath>
				<path style="clip-path:url(#SVGID_00000083048112015349107230000011555998561963331001_);fill:#80ABFF;" d="M71.23,9.47
					c9.98,3.84,9.28,14.53,8.13,19.28C79.02,30.17,78.49,31,78.49,31c-3.89-3.86-5.54-7.13-9.16-14.87
					c-1.43,5.03-7.37,12.01-20.86,14.68c0,0-6.3-11.43,7.27-20.63c4.33-2.93,10.52-2.64,15.5-0.72v0.01H71.23z"/>
			</g>
			<g>
				<defs>
					<rect id="SVGID_00000182512751835358782570000016373550050286815111_" y="0" width="120" height="120"/>
				</defs>
				<clipPath id="SVGID_00000024702196777254341840000010541622352695383186_">
					<use xlink:href="#SVGID_00000182512751835358782570000016373550050286815111_"  style="overflow:visible;"/>
				</clipPath>
				<path style="clip-path:url(#SVGID_00000024702196777254341840000010541622352695383186_);fill:#050505;" d="M69.12,41.38
					c-0.07,0.5-0.07,0.5-0.07,0.5l0,0l0,0l0,0l0,0l0,0h0.01c0.02,0,0.04,0.01,0.07,0.02c0.07,0.02,0.16,0.06,0.25,0.13
					c0.16,0.12,0.36,0.36,0.36,0.88h1c0-0.85-0.35-1.38-0.76-1.68c-0.19-0.14-0.38-0.23-0.52-0.28c-0.07-0.02-0.13-0.04-0.18-0.05
					c-0.02-0.01-0.04-0.01-0.06-0.01c-0.01,0-0.01,0-0.02,0h-0.01l0,0l0,0l0,0C69.19,40.88,69.19,40.88,69.12,41.38z M69.74,42.91
					c0,0.28,0.22,0.5,0.5,0.5s0.5-0.22,0.5-0.5H69.74z M69.19,40.88c-0.27-0.04-0.53,0.15-0.56,0.43s0.15,0.53,0.43,0.56
					L69.19,40.88z"/>
			</g>
			<g>
				<defs>
					<rect id="SVGID_00000034802107403031823360000009205749169312867480_" y="0" width="120" height="120"/>
				</defs>
				<clipPath id="SVGID_00000142170274199303376970000011880552367742203021_">
					<use xlink:href="#SVGID_00000034802107403031823360000009205749169312867480_"  style="overflow:visible;"/>
				</clipPath>
				
					<ellipse style="clip-path:url(#SVGID_00000142170274199303376970000011880552367742203021_);fill:#050505;" cx="58.01" cy="33.02" rx="1.34" ry="1.59"/>
			</g>
			<g>
				<defs>
					<rect id="SVGID_00000088847204473124785730000010475527226650821268_" y="0" width="120" height="120"/>
				</defs>
				<clipPath id="SVGID_00000026845704324148805830000008828584140678636204_">
					<use xlink:href="#SVGID_00000088847204473124785730000010475527226650821268_"  style="overflow:visible;"/>
				</clipPath>
				<path style="clip-path:url(#SVGID_00000026845704324148805830000008828584140678636204_);fill:#050505;" d="M71.54,33.02
					c0,0.88-0.6,1.59-1.34,1.59s-1.34-0.71-1.34-1.59c0-0.89,0.6-1.58,1.34-1.58C70.94,31.43,71.54,32.14,71.54,33.02z"/>
			</g>
			<g>
				<defs>
					<rect id="SVGID_00000096774391400530478280000010988318178412126082_" y="0" width="120" height="120"/>
				</defs>
				<clipPath id="SVGID_00000125599216389051923590000016671888323541813683_">
					<use xlink:href="#SVGID_00000096774391400530478280000010988318178412126082_"  style="overflow:visible;"/>
				</clipPath>
				<path style="clip-path:url(#SVGID_00000125599216389051923590000016671888323541813683_);fill:#050505;" d="M60.06,28.02
					c-0.33-0.38-0.33-0.38-0.33-0.38l0,0l0,0l0,0l0,0l-0.01,0.01c-0.01,0.01-0.04,0.03-0.07,0.05c-0.06,0.05-0.15,0.11-0.27,0.19
					c-0.24,0.16-0.58,0.37-1,0.55c-0.85,0.37-1.98,0.64-3.2,0.29l-0.27,0.96c1.52,0.43,2.89,0.09,3.87-0.34
					c0.49-0.21,0.89-0.45,1.16-0.64c0.14-0.09,0.25-0.17,0.32-0.23c0.04-0.03,0.07-0.05,0.09-0.07c0.01-0.01,0.02-0.02,0.02-0.02
					s0.01,0,0.01-0.01l0,0l0,0l0,0C60.39,28.4,60.39,28.4,60.06,28.02z M55.18,28.75c-0.27-0.07-0.54,0.08-0.62,0.35
					c-0.07,0.27,0.08,0.54,0.35,0.62L55.18,28.75z M60.39,28.4c0.21-0.18,0.23-0.5,0.05-0.71s-0.5-0.23-0.71-0.05L60.39,28.4z"/>
			</g>
			<g>
				<defs>
					<rect id="SVGID_00000132771504231350921470000005198113088512052642_" y="0" width="120" height="120"/>
				</defs>
				<clipPath id="SVGID_00000083791729383132107070000006470095595895912595_">
					<use xlink:href="#SVGID_00000132771504231350921470000005198113088512052642_"  style="overflow:visible;"/>
				</clipPath>
				<path style="clip-path:url(#SVGID_00000083791729383132107070000006470095595895912595_);fill:#050505;" d="M68.03,28.02
					C67.7,28.4,67.7,28.4,67.7,28.4l0,0l0,0l0,0c0,0,0,0,0.01,0.01s0.01,0.01,0.02,0.02c0.02,0.02,0.05,0.04,0.09,0.07
					c0.08,0.06,0.18,0.14,0.32,0.23c0.28,0.19,0.67,0.43,1.16,0.64c0.98,0.43,2.35,0.77,3.87,0.34l-0.27-0.96
					c-1.22,0.34-2.35,0.08-3.2-0.29c-0.42-0.18-0.77-0.39-1-0.55c-0.12-0.08-0.21-0.15-0.27-0.19c-0.03-0.02-0.05-0.04-0.07-0.05
					c-0.01-0.01-0.01-0.01-0.01-0.01l0,0l0,0l0,0l0,0C68.36,27.64,68.36,27.64,68.03,28.02z M73.19,29.71
					c0.27-0.07,0.42-0.35,0.35-0.62s-0.35-0.42-0.62-0.35L73.19,29.71z M68.36,27.64c-0.21-0.18-0.52-0.16-0.71,0.05
					c-0.18,0.21-0.16,0.52,0.05,0.71L68.36,27.64z"/>
			</g>
			<g>
				<defs>
					<rect id="SVGID_00000157303505369527392700000003483107897080978070_" y="0" width="120" height="120"/>
				</defs>
				<clipPath id="SVGID_00000133517799732184536230000002847735778925754753_">
					<use xlink:href="#SVGID_00000157303505369527392700000003483107897080978070_"  style="overflow:visible;"/>
				</clipPath>
				<g style="clip-path:url(#SVGID_00000133517799732184536230000002847735778925754753_);">
					<g>
						<defs>
							<path id="SVGID_00000080921329345076942550000008556788384546676366_" d="M66.21,44.2c0,0.56-0.94,0.65-2.12,0.65
								c-1.17,0-2.12-0.09-2.12-0.65s0.94-1.01,2.12-1.01C65.27,43.18,66.21,43.63,66.21,44.2z"/>
						</defs>
						<clipPath id="SVGID_00000174568988734993932110000016354076304363294620_">
							<use xlink:href="#SVGID_00000080921329345076942550000008556788384546676366_"  style="overflow:visible;"/>
						</clipPath>
						<path style="clip-path:url(#SVGID_00000174568988734993932110000016354076304363294620_);fill:#050505;" d="M64.1,44.18
							c0.47,0,0.85,0.09,1.06,0.2c0.11,0.05,0.14,0.09,0.13,0.08s-0.08-0.11-0.08-0.27h2c0-0.88-0.71-1.39-1.19-1.62
							c-0.55-0.26-1.23-0.39-1.93-0.39v2H64.1z M62.98,44.2c0,0.16-0.07,0.25-0.08,0.27c-0.01,0.01,0.02-0.03,0.13-0.08
							c0.22-0.11,0.59-0.2,1.06-0.2v-2c-0.7,0-1.38,0.13-1.93,0.39c-0.47,0.23-1.19,0.73-1.19,1.62
							C60.97,44.2,62.98,44.2,62.98,44.2z M64.1,43.84c-0.59,0-1.01-0.03-1.26-0.09c-0.13-0.03-0.12-0.05-0.06,0
							c0.1,0.08,0.2,0.25,0.2,0.44h-2c0,0.47,0.22,0.86,0.53,1.11c0.27,0.22,0.6,0.33,0.85,0.39c0.51,0.12,1.15,0.14,1.73,0.14
							v-1.99H64.1z M65.21,44.2c0-0.19,0.1-0.35,0.2-0.44c0.06-0.05,0.07-0.03-0.06,0c-0.25,0.06-0.67,0.09-1.26,0.09v2
							c0.58,0,1.22-0.02,1.73-0.14c0.25-0.06,0.58-0.17,0.85-0.39c0.31-0.26,0.53-0.64,0.53-1.11h-1.99V44.2z"/>
					</g>
				</g>
			</g>
			<g>
				<defs>
					<rect id="SVGID_00000020384535910362835770000006454809591183094421_" y="0" width="120" height="120"/>
				</defs>
				<clipPath id="SVGID_00000058559470563695375740000005712307631126402188_">
					<use xlink:href="#SVGID_00000020384535910362835770000006454809591183094421_"  style="overflow:visible;"/>
				</clipPath>
				<path style="clip-path:url(#SVGID_00000058559470563695375740000005712307631126402188_);fill:#050505;" d="M63.55,37.98v0.81h1
					v-0.81H63.55z M63.55,38.79c0,0.28,0.22,0.5,0.5,0.5c0.28,0,0.5-0.22,0.5-0.5H63.55z M64.55,37.98c0-0.28-0.22-0.5-0.5-0.5
					s-0.5,0.22-0.5,0.5H64.55z"/>
			</g>
			<g>
				<defs>
					<rect id="SVGID_00000160871424004408118870000006202825424575335359_" y="0" width="120" height="120"/>
				</defs>
				<clipPath id="SVGID_00000101784369706746744520000017629361874200587421_">
					<use xlink:href="#SVGID_00000160871424004408118870000006202825424575335359_"  style="overflow:visible;"/>
				</clipPath>
				<path style="clip-path:url(#SVGID_00000101784369706746744520000017629361874200587421_);fill:#F4F4F4;" d="M41.26,60.62
					c-4.88,0.58-7.23,4.56-7.82,12.44c-0.09,1.14-0.95,10.23-1.14,11.47c-2.18,15.17-5.97,20.09,1.68,22.25
					c1.23,0.34,5.81,0.58,7.38-5.27c0.88-3.26,1.88-15.82,1.78-26.07C43.06,67.25,41.25,60.62,41.26,60.62L41.26,60.62z"/>
			</g>
			<g>
				<defs>
					<rect id="SVGID_00000058549126032894638740000015190185058466141852_" y="0" width="120" height="120"/>
				</defs>
				<clipPath id="SVGID_00000123399394264718447100000016611719607942689156_">
					<use xlink:href="#SVGID_00000058549126032894638740000015190185058466141852_"  style="overflow:visible;"/>
				</clipPath>
				<path style="clip-path:url(#SVGID_00000123399394264718447100000016611719607942689156_);fill:#050505;" d="M41.25,61.12
					L41.25,61.12l0.01-1h-0.01V61.12z M43.64,75.42c-0.04-4.12-0.52-7.85-0.98-10.55c-0.23-1.35-0.46-2.44-0.64-3.2
					c-0.09-0.38-0.16-0.67-0.21-0.87c-0.03-0.1-0.05-0.18-0.06-0.23c-0.01-0.03-0.01-0.05-0.02-0.06c0-0.01,0-0.01,0-0.02l0,0l0,0
					l0,0c0,0,0,0-0.48,0.13s-0.48,0.13-0.48,0.13l0,0l0,0l0,0v0.01c0,0.01,0.01,0.03,0.01,0.05c0.01,0.05,0.03,0.12,0.06,0.22
					c0.05,0.19,0.12,0.48,0.2,0.85c0.17,0.74,0.4,1.82,0.63,3.15c0.46,2.66,0.93,6.34,0.97,10.39L43.64,75.42z M41.84,101.63
					c0.45-1.68,0.92-5.69,1.27-10.51c0.35-4.84,0.58-10.56,0.53-15.7l-1,0.01c0.05,5.11-0.18,10.8-0.52,15.62
					c-0.35,4.84-0.82,8.75-1.24,10.32L41.84,101.63z M33.85,107.25c0.7,0.2,2.27,0.35,3.89-0.33c1.65-0.69,3.28-2.23,4.11-5.29
					l-0.97-0.26c-0.75,2.79-2.19,4.07-3.53,4.63c-1.37,0.58-2.7,0.44-3.23,0.29L33.85,107.25z M31.8,84.45
					c-0.54,3.78-1.19,6.92-1.73,9.54c-0.54,2.62-0.99,4.76-1.12,6.49c-0.13,1.74,0.03,3.17,0.82,4.31c0.78,1.14,2.12,1.9,4.08,2.45
					l0.27-0.96c-1.87-0.53-2.93-1.19-3.52-2.05s-0.77-2.01-0.65-3.67c0.13-1.66,0.56-3.73,1.1-6.37c0.54-2.63,1.19-5.79,1.74-9.6
					L31.8,84.45z M32.94,73.01c-0.09,1.14-0.95,10.22-1.14,11.44l0.99,0.15c0.19-1.26,1.06-10.37,1.15-11.51L32.94,73.01z
					 M41.2,60.12c-2.59,0.31-4.53,1.53-5.89,3.71c-1.33,2.15-2.08,5.21-2.38,9.18l1,0.07c0.29-3.91,1.02-6.78,2.23-8.73
					c1.19-1.92,2.86-2.97,5.15-3.25L41.2,60.12z M41.25,60.62v-0.5c-0.16,0-0.3,0.07-0.4,0.2c-0.09,0.12-0.13,0.28-0.08,0.44
					L41.25,60.62z M43.14,75.42h0.5l0,0H43.14z M41.36,101.5l0.48,0.13l0,0L41.36,101.5z M33.98,106.77l-0.14,0.48l0,0L33.98,106.77
					z M32.3,84.52l-0.49-0.07l0,0L32.3,84.52z M33.44,73.05l0.5,0.04l0,0L33.44,73.05z M41.26,60.62l0.06,0.5
					c0.26-0.03,0.46-0.26,0.44-0.53c-0.02-0.26-0.23-0.47-0.5-0.47V60.62z"/>
			</g>
			<g>
				<defs>
					<rect id="SVGID_00000075852964514682711540000014639889467200015550_" y="0" width="120" height="120"/>
				</defs>
				<clipPath id="SVGID_00000104678422444423261510000007736342526659890090_">
					<use xlink:href="#SVGID_00000075852964514682711540000014639889467200015550_"  style="overflow:visible;"/>
				</clipPath>
				<path style="clip-path:url(#SVGID_00000104678422444423261510000007736342526659890090_);fill:#F4F4F4;" d="M28.2,70.76
					c4.31-0.84,6.79,0.22,7.02,1.67c0.35,2.23-2.71,7.47-7.07,7.89c-4.37,0.41-6.02-1.91-6.33-4.07
					C21.69,75.38,24.75,71.43,28.2,70.76z"/>
			</g>
			<g>
				<defs>
					<rect id="SVGID_00000098206641656730980340000008397834801159783596_" y="0" width="120" height="120"/>
				</defs>
				<clipPath id="SVGID_00000018204503651563125490000003844941337328315323_">
					<use xlink:href="#SVGID_00000098206641656730980340000008397834801159783596_"  style="overflow:visible;"/>
				</clipPath>
				<path style="clip-path:url(#SVGID_00000018204503651563125490000003844941337328315323_);fill:#050505;" d="M22.31,76.18
					c0,0.03-0.01-0.02,0.06-0.2c0.06-0.15,0.17-0.36,0.32-0.59c0.3-0.47,0.76-1.04,1.32-1.61c1.15-1.15,2.69-2.23,4.28-2.53
					l-0.19-0.98c-1.87,0.36-3.58,1.59-4.79,2.81c-0.61,0.61-1.11,1.24-1.46,1.77c-0.17,0.27-0.31,0.52-0.4,0.75
					c-0.08,0.21-0.16,0.47-0.13,0.72L22.31,76.18z M28.1,79.83c-2.09,0.2-3.46-0.26-4.33-0.96c-0.88-0.7-1.32-1.7-1.46-2.68
					l-0.99,0.14c0.17,1.18,0.7,2.43,1.82,3.32c1.12,0.9,2.77,1.39,5.05,1.18L28.1,79.83z M34.73,72.51
					c0.07,0.44-0.02,1.09-0.32,1.86c-0.29,0.76-0.75,1.6-1.35,2.38c-1.22,1.58-2.96,2.88-4.96,3.07l0.1,1
					c2.37-0.23,4.34-1.75,5.66-3.46c0.66-0.86,1.17-1.78,1.5-2.64c0.32-0.85,0.48-1.69,0.37-2.37L34.73,72.51z M28.3,71.25
					c2.11-0.41,3.72-0.35,4.81-0.03c1.11,0.32,1.55,0.85,1.62,1.29l0.99-0.15c-0.16-1.01-1.07-1.74-2.33-2.1
					c-1.29-0.37-3.07-0.41-5.27,0.01L28.3,71.25z M21.82,76.25l0.5-0.07l0,0L21.82,76.25z M28.15,80.32l0.05,0.5l0,0L28.15,80.32z
					 M35.22,72.43l-0.49,0.08l0,0L35.22,72.43z M28.2,70.76l0.1,0.49l0,0L28.2,70.76z"/>
			</g>
			<g>
				<defs>
					<rect id="SVGID_00000143579640593362600450000002894518653017657528_" y="0" width="120" height="120"/>
				</defs>
				<clipPath id="SVGID_00000128474430937444255170000018082996502169797281_">
					<use xlink:href="#SVGID_00000143579640593362600450000002894518653017657528_"  style="overflow:visible;"/>
				</clipPath>
				<path style="clip-path:url(#SVGID_00000128474430937444255170000018082996502169797281_);fill:#F4F4F4;" d="M32.8,69.8
					c-0.08-1.12-0.12-3.72-3.26-6.29c0,0-4.58-1.3-7.16-4.8c0,0-3.82-2.33-3.03,1.19c0,0,3.15,3.03,3.9,3.6l-0.45,0.14l-5.71-1.69
					c0,0-6.03-3.6-8.02-2.84c0,0-0.6,0.13-0.3,0.79c0,0-1.69,0.3-1.24,1.64l1.27,0.39c0,0,2.78,1.63,3.66,2.72l1.96,3.31
					c0,0,3.75,2.2,5.77,2.86c0,0,2.03,1.53,4.22,2.25l2.4,2.29l1.02,4.33c0,0,1.7,0.1,3.68-1.23c2.12-1.42,2.77-3.62,2.77-3.62
					l-1.51-5.04C32.77,69.8,32.8,69.8,32.8,69.8z"/>
			</g>
			<g>
				<defs>
					<rect id="SVGID_00000094579989330299700830000002262533504054469004_" y="0" width="120" height="120"/>
				</defs>
				<clipPath id="SVGID_00000103261430165387645130000011878364853370615471_">
					<use xlink:href="#SVGID_00000094579989330299700830000002262533504054469004_"  style="overflow:visible;"/>
				</clipPath>
				<path style="clip-path:url(#SVGID_00000103261430165387645130000011878364853370615471_);fill:#050505;" d="M32.78,70.3h0.02v-1
					h-0.02V70.3z M34.76,74.7l-1.51-5.04l-0.96,0.29l1.51,5.04L34.76,74.7z M31.79,78.88c1.14-0.76,1.88-1.73,2.33-2.5
					c0.23-0.39,0.39-0.73,0.49-0.97c0.05-0.12,0.09-0.22,0.11-0.29c0.01-0.04,0.02-0.06,0.03-0.08c0-0.01,0.01-0.02,0.01-0.02v-0.01
					l0,0l0,0l0,0c0,0,0,0-0.48-0.14s-0.48-0.14-0.48-0.14l0,0l0,0l0,0l0,0v0.01c0,0.01-0.01,0.03-0.02,0.06
					c-0.02,0.06-0.05,0.14-0.09,0.24c-0.09,0.21-0.23,0.51-0.43,0.85c-0.4,0.68-1.05,1.52-2.03,2.18L31.79,78.88z M27.83,79.69
					c-0.03,0.5-0.03,0.5-0.03,0.5l0,0l0,0l0,0c0,0,0,0,0.01,0s0.01,0,0.02,0c0.02,0,0.04,0,0.07,0c0.06,0,0.14,0,0.25-0.01
					c0.21-0.01,0.51-0.04,0.87-0.12c0.73-0.15,1.71-0.48,2.76-1.19l-0.56-0.83c-0.93,0.62-1.79,0.91-2.41,1.04
					c-0.31,0.07-0.56,0.09-0.73,0.1c-0.08,0.01-0.15,0.01-0.19,0.01c-0.02,0-0.03,0-0.04,0h-0.01l0,0l0,0l0,0l0,0
					C27.86,79.19,27.86,79.19,27.83,79.69z M26.32,75.48l1.02,4.33l0.97-0.23l-1.02-4.33L26.32,75.48z M24.06,73.43l2.4,2.29
					L27.15,75l-2.4-2.29L24.06,73.43z M20.19,70.82c-0.3,0.4-0.3,0.4-0.3,0.4l0,0l0,0l0,0c0,0,0,0,0.01,0c0,0,0.01,0.01,0.02,0.01
					c0.02,0.01,0.04,0.03,0.07,0.05c0.06,0.05,0.15,0.11,0.27,0.19c0.23,0.16,0.56,0.38,0.96,0.62c0.8,0.48,1.89,1.07,3.03,1.45
					l0.31-0.95c-1.05-0.35-2.07-0.89-2.83-1.35c-0.38-0.23-0.69-0.44-0.91-0.59c-0.11-0.07-0.19-0.14-0.25-0.18
					c-0.03-0.02-0.05-0.04-0.06-0.05s-0.01-0.01-0.02-0.01l0,0l0,0l0,0l0,0C20.49,70.42,20.49,70.42,20.19,70.82z M14.42,67.95
					c-0.25,0.43-0.25,0.43-0.25,0.43l0,0l0,0l0,0c0,0,0,0,0.01,0s0.02,0.01,0.03,0.02c0.03,0.02,0.07,0.04,0.12,0.07
					c0.11,0.06,0.26,0.15,0.46,0.26c0.39,0.22,0.92,0.52,1.52,0.84c1.19,0.63,2.66,1.37,3.72,1.71l0.31-0.95
					c-0.96-0.31-2.37-1.01-3.56-1.64c-0.59-0.31-1.12-0.61-1.5-0.82c-0.19-0.11-0.34-0.2-0.45-0.26c-0.05-0.03-0.09-0.05-0.12-0.07
					c-0.01-0.01-0.02-0.01-0.03-0.02h-0.01l0,0l0,0l0,0C14.67,67.52,14.67,67.52,14.42,67.95z M12.03,64.9l1.96,3.31l0.86-0.51
					l-1.96-3.31L12.03,64.9z M8.8,61.93c-0.25,0.43-0.25,0.43-0.25,0.43l0,0l0,0l0,0c0,0,0,0,0.01,0c0,0,0.01,0.01,0.02,0.01
					c0.02,0.01,0.05,0.03,0.09,0.05c0.08,0.05,0.19,0.11,0.32,0.2c0.27,0.17,0.64,0.4,1.04,0.67c0.81,0.55,1.67,1.19,2.05,1.66
					l0.78-0.63c-0.49-0.61-1.47-1.33-2.27-1.86c-0.41-0.28-0.79-0.52-1.07-0.69c-0.14-0.09-0.25-0.16-0.33-0.2
					c-0.04-0.02-0.07-0.04-0.09-0.06C9.09,61.5,9.08,61.5,9.08,61.5H9.07l0,0l0,0l0,0C9.05,61.5,9.05,61.5,8.8,61.93z M7.38,62.02
					l1.27,0.39l0.3-0.96l-1.27-0.39L7.38,62.02z M8.77,59.9c-0.08-0.5-0.08-0.5-0.08-0.5l0,0l0,0l0,0c0,0,0,0-0.01,0s-0.01,0-0.02,0
					c-0.02,0-0.04,0.01-0.07,0.02c-0.06,0.01-0.13,0.03-0.22,0.06c-0.18,0.06-0.42,0.15-0.65,0.31c-0.23,0.15-0.48,0.38-0.63,0.72
					c-0.15,0.35-0.17,0.75-0.02,1.18l0.95-0.32C7.93,61.15,7.95,61,7.99,60.91c0.04-0.1,0.13-0.2,0.27-0.28
					c0.13-0.09,0.28-0.15,0.41-0.19c0.06-0.02,0.11-0.03,0.15-0.04c0.02,0,0.03-0.01,0.04-0.01h0.01l0,0l0,0l0,0l0,0
					C8.86,60.39,8.86,60.39,8.77,59.9z M9.07,59.11c-0.1-0.49-0.1-0.49-0.1-0.49l0,0l0,0l0,0c0,0,0,0-0.01,0H8.95
					c-0.01,0-0.02,0.01-0.04,0.01c-0.03,0.01-0.07,0.02-0.12,0.04c-0.09,0.04-0.22,0.11-0.33,0.23c-0.12,0.12-0.23,0.3-0.25,0.53
					c-0.03,0.22,0.02,0.45,0.12,0.67l0.91-0.42c-0.05-0.1-0.04-0.14-0.04-0.13c0,0.02-0.01,0.04-0.02,0.05c0,0,0,0,0.01-0.01
					c0.01,0,0.01,0,0.01,0l0,0l0,0l0,0l0,0l0,0l0,0C9.17,59.6,9.17,59.6,9.07,59.11z M17.09,61.95c0.26-0.43,0.26-0.43,0.26-0.43
					l0,0l0,0l0,0c0,0-0.01,0-0.01-0.01c-0.01-0.01-0.03-0.02-0.05-0.03c-0.05-0.03-0.11-0.07-0.2-0.12c-0.17-0.1-0.42-0.24-0.72-0.4
					c-0.6-0.33-1.43-0.76-2.32-1.17c-0.89-0.41-1.86-0.8-2.74-1.04c-0.44-0.12-0.87-0.21-1.27-0.24c-0.39-0.03-0.79,0-1.13,0.13
					l0.36,0.93c0.15-0.06,0.38-0.09,0.7-0.06c0.31,0.02,0.68,0.09,1.08,0.2c0.81,0.22,1.72,0.59,2.59,0.99
					c0.86,0.4,1.67,0.82,2.26,1.14c0.29,0.16,0.53,0.3,0.7,0.39c0.08,0.05,0.15,0.09,0.19,0.11c0.02,0.01,0.04,0.02,0.05,0.03
					c0.01,0,0.01,0.01,0.01,0.01l0,0l0,0l0,0C16.83,62.38,16.83,62.38,17.09,61.95z M22.93,63.17l-5.71-1.69l-0.28,0.96l5.71,1.69
					L22.93,63.17z M23.1,63.03l-0.45,0.14l0.29,0.96l0.45-0.14L23.1,63.03z M19.35,59.91C19,60.27,19,60.27,19,60.27l0,0l0,0l0,0
					c0,0,0,0,0.01,0.01s0.01,0.01,0.03,0.03s0.06,0.06,0.1,0.1c0.09,0.08,0.21,0.21,0.37,0.35c0.31,0.29,0.73,0.69,1.17,1.11
					c0.87,0.82,1.87,1.74,2.27,2.05l0.61-0.79c-0.35-0.27-1.3-1.14-2.19-1.98c-0.44-0.41-0.86-0.81-1.16-1.1
					c-0.15-0.15-0.28-0.27-0.37-0.35c-0.04-0.04-0.08-0.07-0.1-0.1c-0.01-0.01-0.02-0.02-0.03-0.03l-0.01-0.01l0,0l0,0l0,0
					C19.7,59.55,19.7,59.55,19.35,59.91z M22.38,58.72c0.26-0.43,0.26-0.43,0.26-0.43l0,0l0,0l0,0c0,0-0.01,0-0.01-0.01
					c-0.01-0.01-0.02-0.01-0.04-0.02c-0.03-0.02-0.07-0.04-0.13-0.07c-0.11-0.06-0.27-0.14-0.45-0.23
					c-0.36-0.17-0.86-0.37-1.36-0.46c-0.47-0.08-1.11-0.07-1.53,0.4s-0.46,1.2-0.26,2.11l0.98-0.22c-0.19-0.85-0.05-1.14,0.03-1.23
					c0.07-0.08,0.24-0.15,0.62-0.08c0.36,0.06,0.76,0.22,1.09,0.38c0.16,0.08,0.3,0.15,0.39,0.2c0.05,0.03,0.08,0.05,0.11,0.06
					c0.01,0.01,0.02,0.01,0.03,0.02c0,0,0,0,0.01,0l0,0l0,0l0,0C22.12,59.14,22.12,59.14,22.38,58.72z M29.54,63.52
					c0.14-0.48,0.14-0.48,0.14-0.48l0,0l0,0l0,0c0,0,0,0-0.01,0s-0.02-0.01-0.03-0.01c-0.03-0.01-0.08-0.02-0.14-0.04
					c-0.12-0.04-0.31-0.1-0.53-0.19c-0.45-0.17-1.09-0.43-1.8-0.81c-1.43-0.74-3.15-1.9-4.38-3.57l-0.8,0.59
					c1.36,1.84,3.22,3.08,4.72,3.86c0.75,0.39,1.43,0.67,1.91,0.85c0.24,0.09,0.44,0.16,0.57,0.2c0.07,0.02,0.12,0.04,0.16,0.05
					c0.02,0.01,0.03,0.01,0.04,0.01s0.01,0,0.01,0l0,0l0,0l0,0C29.41,64,29.41,64,29.54,63.52z M33.3,69.77
					c-0.04-0.55-0.07-1.55-0.51-2.74c-0.44-1.2-1.29-2.56-2.93-3.9l-0.63,0.77c1.5,1.23,2.24,2.45,2.62,3.47
					c0.38,1.03,0.41,1.89,0.45,2.46L33.3,69.77z M32.78,69.8v-0.5c-0.16,0-0.31,0.07-0.4,0.2s-0.12,0.29-0.08,0.44L32.78,69.8z
					 M34.29,74.84l0.48,0.14c0.03-0.09,0.03-0.19,0-0.29L34.29,74.84z M31.51,78.46l-0.28-0.42l0,0L31.51,78.46z M27.83,79.69
					l-0.49,0.12c0.05,0.22,0.24,0.37,0.46,0.38L27.83,79.69z M26.81,75.36l0.49-0.12c-0.02-0.09-0.07-0.18-0.14-0.25L26.81,75.36z
					 M24.41,73.07l0.35-0.36c-0.05-0.05-0.12-0.09-0.19-0.11L24.41,73.07z M20.19,70.82l0.3-0.4c-0.04-0.03-0.09-0.06-0.15-0.08
					L20.19,70.82z M14.42,67.95l-0.43,0.25c0.04,0.07,0.1,0.13,0.18,0.18L14.42,67.95z M12.46,64.65l0.43-0.25
					c-0.01-0.02-0.03-0.04-0.04-0.06L12.46,64.65z M8.8,61.93l0.25-0.43c-0.03-0.02-0.07-0.03-0.1-0.05L8.8,61.93z M7.53,61.54
					L7.06,61.7c0.05,0.15,0.17,0.27,0.33,0.32L7.53,61.54z M8.77,59.9l0.09,0.49c0.15-0.03,0.28-0.12,0.36-0.26
					c0.07-0.14,0.08-0.3,0.01-0.44L8.77,59.9z M9.07,59.11l0.1,0.49c0.03-0.01,0.05-0.01,0.07-0.02L9.07,59.11z M17.09,61.95
					l-0.26,0.43c0.04,0.02,0.07,0.04,0.11,0.05L17.09,61.95z M22.79,63.65l-0.14,0.48c0.09,0.03,0.19,0.03,0.29,0L22.79,63.65z
					 M23.25,63.51l0.15,0.48c0.18-0.05,0.31-0.21,0.35-0.39c0.03-0.18-0.04-0.37-0.19-0.49L23.25,63.51z M19.35,59.91l-0.49,0.11
					c0.02,0.1,0.07,0.18,0.14,0.25L19.35,59.91z M22.38,58.72l0.4-0.3c-0.04-0.05-0.09-0.1-0.14-0.13L22.38,58.72z M29.54,63.52
					l0.32-0.39c-0.05-0.04-0.11-0.08-0.18-0.09L29.54,63.52z M32.8,69.8v0.5c0.14,0,0.27-0.06,0.37-0.16
					c0.09-0.1,0.14-0.24,0.13-0.38L32.8,69.8z"/>
			</g>
			<g>
				<defs>
					<rect id="SVGID_00000018946281327722190490000015365085272299279750_" y="0" width="120" height="120"/>
				</defs>
				<clipPath id="SVGID_00000060744592482457084450000015310829377572366520_">
					<use xlink:href="#SVGID_00000018946281327722190490000015365085272299279750_"  style="overflow:visible;"/>
				</clipPath>
				<path style="clip-path:url(#SVGID_00000060744592482457084450000015310829377572366520_);fill:#050505;" d="M18.66,67.91l1,0.28
					l0.26-0.96l-1-0.28L18.66,67.91z M17.75,65.68C17.37,66,17.37,66,17.37,66l0,0l0,0l0,0l0,0c0,0,0,0.01,0.01,0.01
					c0.01,0.01,0.02,0.02,0.03,0.04c0.03,0.03,0.07,0.08,0.12,0.14c0.1,0.12,0.22,0.29,0.35,0.47c0.13,0.18,0.24,0.36,0.32,0.52
					c0.04,0.08,0.07,0.14,0.08,0.18c0.02,0.05,0.01,0.05,0.01,0.01l0.99,0.1c0.02-0.16-0.02-0.3-0.05-0.41
					c-0.04-0.12-0.09-0.23-0.14-0.34c-0.11-0.22-0.26-0.44-0.39-0.64c-0.14-0.2-0.28-0.38-0.38-0.52c-0.05-0.07-0.1-0.12-0.13-0.16
					c-0.02-0.02-0.03-0.03-0.04-0.04c0-0.01-0.01-0.01-0.01-0.01l0,0l0,0l0,0l0,0C18.14,65.36,18.14,65.36,17.75,65.68z
					 M17.85,63.01c-0.48,0.12-0.48,0.12-0.48,0.12l0,0l0,0l0,0l0,0v0.01c0,0.01,0.01,0.03,0.01,0.05c0.01,0.04,0.02,0.11,0.04,0.19
					c0.03,0.17,0.07,0.4,0.09,0.65c0.04,0.54,0,1.07-0.18,1.37l0.85,0.52c0.36-0.6,0.37-1.41,0.33-1.97
					c-0.02-0.3-0.07-0.57-0.1-0.76c-0.02-0.1-0.03-0.17-0.05-0.23c-0.01-0.03-0.01-0.05-0.02-0.06c0-0.01,0-0.01,0-0.02
					c0,0,0,0,0-0.01l0,0l0,0l0,0C18.34,62.89,18.34,62.89,17.85,63.01z M16.2,62.03c0.13,0.48,0.13,0.48,0.13,0.48l0,0l0,0l0,0l0,0
					l0,0c0,0,0.01,0,0.02,0c0.02,0,0.06-0.01,0.1-0.01c0.09-0.01,0.21-0.01,0.33,0.02s0.23,0.07,0.32,0.16
					c0.09,0.08,0.19,0.22,0.26,0.47l0.97-0.26c-0.11-0.41-0.3-0.73-0.56-0.96c-0.25-0.22-0.53-0.34-0.78-0.39s-0.48-0.05-0.64-0.04
					c-0.08,0.01-0.15,0.02-0.2,0.03c-0.02,0-0.05,0.01-0.06,0.01s-0.01,0-0.02,0c0,0,0,0-0.01,0l0,0l0,0l0,0
					C16.07,61.55,16.07,61.55,16.2,62.03z M15.6,66.23c0.48,0.13,0.48,0.13,0.48,0.13l0,0l0,0l0,0c0,0,0,0,0-0.01s0-0.02,0.01-0.03
					c0.01-0.03,0.02-0.06,0.03-0.11c0.02-0.1,0.06-0.23,0.1-0.4c0.08-0.33,0.18-0.78,0.28-1.27c0.09-0.48,0.18-1,0.23-1.45
					c0.02-0.23,0.04-0.45,0.03-0.65c0-0.19-0.02-0.4-0.08-0.57l-0.95,0.32c0.01,0.03,0.03,0.12,0.03,0.27s-0.01,0.33-0.03,0.53
					c-0.04,0.41-0.12,0.89-0.21,1.36c-0.09,0.46-0.19,0.9-0.27,1.23c-0.04,0.16-0.07,0.29-0.09,0.39c-0.01,0.05-0.02,0.08-0.03,0.11
					c0,0.01-0.01,0.02-0.01,0.03v0.01l0,0l0,0l0,0C15.12,66.1,15.12,66.1,15.6,66.23z M17.09,68.02L16.04,66l-0.89,0.46l1.04,2.02
					L17.09,68.02z M19.66,68.19c0.27,0.07,0.54-0.08,0.61-0.35s-0.08-0.54-0.35-0.61L19.66,68.19z M18.79,67.43l-0.5-0.05
					c-0.03,0.24,0.13,0.47,0.36,0.53L18.79,67.43z M17.75,65.68l-0.43-0.26c-0.11,0.18-0.09,0.42,0.05,0.58L17.75,65.68z
					 M17.85,63.01l0.48-0.12l0,0L17.85,63.01z M16.2,62.03l-0.13-0.48c-0.13,0.04-0.25,0.12-0.31,0.25
					c-0.07,0.12-0.08,0.27-0.03,0.4L16.2,62.03z M15.6,66.23l-0.48-0.13c-0.03,0.12-0.02,0.25,0.04,0.36L15.6,66.23z M16.2,68.48
					c0.13,0.25,0.43,0.34,0.67,0.21c0.25-0.13,0.34-0.43,0.21-0.67L16.2,68.48z"/>
			</g>
			<g>
				<defs>
					<rect id="SVGID_00000007405108802087352350000010546042334140664216_" y="0" width="120" height="120"/>
				</defs>
				<clipPath id="SVGID_00000016048445289734017730000007414149560366812291_">
					<use xlink:href="#SVGID_00000007405108802087352350000010546042334140664216_"  style="overflow:visible;"/>
				</clipPath>
				<path style="clip-path:url(#SVGID_00000016048445289734017730000007414149560366812291_);fill:#F4F4F4;" d="M14.16,62.25
					c-0.28-0.63-1.15-2.95-1.15-2.95c-0.93-1.41-1.87-0.17-1.87-0.17c0.64,0.77,1.2,4.77,1.2,4.77l3.36,1.13
					C15.7,65.03,14.4,62.78,14.16,62.25L14.16,62.25z"/>
			</g>
			<g>
				<defs>
					<rect id="SVGID_00000005254635338119410760000013209774226716840585_" y="0" width="120" height="120"/>
				</defs>
				<clipPath id="SVGID_00000065067103362796163850000016158886869177993897_">
					<use xlink:href="#SVGID_00000005254635338119410760000013209774226716840585_"  style="overflow:visible;"/>
				</clipPath>
				<path style="clip-path:url(#SVGID_00000065067103362796163850000016158886869177993897_);fill:#050505;" d="M13.96,62.93
					c0.3,0.34,0.6,0.91,0.84,1.44c0.12,0.26,0.21,0.49,0.28,0.66c0.03,0.08,0.06,0.15,0.08,0.2c0.01,0.02,0.02,0.04,0.02,0.05
					s0,0.01,0,0.01l0,0l0,0l0,0l0,0c0,0,0,0,0.47-0.17s0.47-0.17,0.47-0.17l0,0l0,0l0,0l0,0c0,0,0-0.01-0.01-0.02
					c-0.01-0.01-0.01-0.03-0.02-0.06c-0.02-0.05-0.05-0.13-0.08-0.22c-0.07-0.18-0.17-0.43-0.3-0.71c-0.24-0.54-0.6-1.24-1.01-1.69
					L13.96,62.93z M12.95,59.4c-0.47,0.16-0.47,0.16-0.47,0.16l0,0l0,0l0,0c0,0,0,0,0,0.01s0,0.01,0.01,0.02
					c0.01,0.02,0.02,0.05,0.03,0.09c0.03,0.08,0.06,0.18,0.11,0.32c0.09,0.26,0.23,0.62,0.37,0.99c0.15,0.37,0.31,0.77,0.46,1.1
					c0.15,0.31,0.32,0.65,0.49,0.84l0.74-0.67c-0.06-0.06-0.17-0.26-0.32-0.59c-0.14-0.31-0.3-0.68-0.44-1.05
					c-0.14-0.36-0.27-0.71-0.36-0.97c-0.05-0.13-0.08-0.23-0.11-0.31c-0.01-0.04-0.02-0.07-0.03-0.08c0-0.01-0.01-0.02-0.01-0.02
					s0,0,0-0.01l0,0l0,0l0,0C13.43,59.24,13.43,59.24,12.95,59.4z M11.08,59.24c0.4,0.3,0.4,0.3,0.4,0.3l0,0l0,0l0,0l0,0l0,0
					c0,0,0.01-0.01,0.02-0.02c0.02-0.02,0.05-0.05,0.08-0.08c0.08-0.07,0.17-0.14,0.26-0.17c0.08-0.03,0.16-0.04,0.24-0.01
					c0.09,0.03,0.25,0.14,0.45,0.43l0.83-0.55c-0.27-0.41-0.58-0.68-0.93-0.81c-0.36-0.13-0.69-0.09-0.95,0.01s-0.45,0.26-0.58,0.38
					c-0.07,0.06-0.12,0.12-0.15,0.16c-0.02,0.02-0.03,0.04-0.04,0.05s-0.01,0.01-0.01,0.02c0,0,0,0,0,0.01l0,0l0,0l0,0
					C10.68,58.94,10.68,58.94,11.08,59.24z M12.33,64.32c0.5-0.07,0.5-0.07,0.5-0.07l0,0l0,0l0,0v-0.01c0-0.01,0-0.02-0.01-0.04
					c0-0.03-0.01-0.08-0.02-0.14c-0.02-0.12-0.04-0.29-0.08-0.51c-0.07-0.42-0.17-0.99-0.28-1.59c-0.12-0.59-0.26-1.22-0.41-1.75
					c-0.08-0.27-0.16-0.52-0.25-0.73c-0.08-0.2-0.19-0.41-0.32-0.57l-0.77,0.64c0.03,0.04,0.09,0.13,0.16,0.31
					c0.07,0.17,0.14,0.38,0.21,0.63c0.14,0.49,0.27,1.09,0.39,1.67c0.11,0.58,0.21,1.14,0.28,1.55c0.03,0.21,0.06,0.38,0.08,0.49
					c0.01,0.06,0.02,0.11,0.02,0.14c0,0.02,0,0.03,0.01,0.04v0.01l0,0l0,0l0,0C11.84,64.39,11.84,64.39,12.33,64.32z M15.18,65.31
					c0.09,0.26,0.38,0.4,0.64,0.31c0.26-0.09,0.4-0.38,0.31-0.64L15.18,65.31z M14.33,62.6l0.37-0.33l0,0L14.33,62.6z M12.95,59.4
					l0.47-0.16c-0.01-0.04-0.03-0.08-0.06-0.12L12.95,59.4z M11.08,59.24l-0.4-0.3c-0.14,0.19-0.13,0.44,0.02,0.62L11.08,59.24z
					 M11.84,64.39c0.04,0.27,0.29,0.46,0.57,0.43c0.27-0.04,0.46-0.29,0.43-0.57L11.84,64.39z"/>
			</g>
			<g>
				<defs>
					<rect id="SVGID_00000067942445859552098450000009801750885914369710_" y="0" width="120" height="120"/>
				</defs>
				<clipPath id="SVGID_00000021798601639719808560000015893835099317881252_">
					<use xlink:href="#SVGID_00000067942445859552098450000009801750885914369710_"  style="overflow:visible;"/>
				</clipPath>
				<path style="clip-path:url(#SVGID_00000021798601639719808560000015893835099317881252_);fill:#050505;" d="M29.21,68.32
					c0.17-0.47,0.17-0.47,0.17-0.47l0,0l0,0l0,0c0,0,0,0-0.01,0s-0.02-0.01-0.03-0.01c-0.03-0.01-0.07-0.03-0.12-0.05
					c-0.1-0.04-0.25-0.1-0.44-0.18c-0.37-0.16-0.86-0.38-1.39-0.65c-0.52-0.28-1.06-0.6-1.52-0.94c-0.46-0.35-0.8-0.7-0.97-1.02
					l-0.88,0.47c0.27,0.51,0.75,0.96,1.25,1.35c0.52,0.39,1.11,0.74,1.66,1.03s1.08,0.53,1.46,0.69c0.19,0.08,0.35,0.15,0.46,0.19
					c0.06,0.02,0.1,0.04,0.13,0.05c0.02,0.01,0.03,0.01,0.03,0.01h0.01l0,0l0,0l0,0C29.03,68.79,29.03,68.79,29.21,68.32z
					 M24.91,64.99c-0.13-0.24-0.43-0.34-0.68-0.21c-0.24,0.13-0.34,0.43-0.21,0.68L24.91,64.99z M29.03,68.79
					c0.26,0.1,0.55-0.04,0.64-0.3c0.1-0.26-0.04-0.55-0.3-0.64L29.03,68.79z"/>
			</g>
			<g>
				<defs>
					<rect id="SVGID_00000106864181371792455370000005913807446661999515_" y="0" width="120" height="120"/>
				</defs>
				<clipPath id="SVGID_00000106828443073520917000000005159278637615946666_">
					<use xlink:href="#SVGID_00000106864181371792455370000005913807446661999515_"  style="overflow:visible;"/>
				</clipPath>
				<path style="clip-path:url(#SVGID_00000106828443073520917000000005159278637615946666_);fill:#050505;" d="M8.91,59.92
					c-0.05,0.5-0.05,0.5-0.05,0.5l0,0l0,0l0,0l0,0h0.01c0.01,0,0.03,0,0.05,0.01c0.04,0.01,0.11,0.02,0.2,0.04
					c0.17,0.04,0.41,0.1,0.68,0.21c0.54,0.21,1.15,0.58,1.56,1.2l0.83-0.55c-0.56-0.85-1.38-1.32-2.03-1.57
					c-0.33-0.13-0.62-0.21-0.83-0.25c-0.11-0.02-0.19-0.04-0.26-0.05c-0.03,0-0.06-0.01-0.07-0.01c-0.01,0-0.02,0-0.02,0H8.97l0,0
					l0,0l0,0C8.96,59.42,8.96,59.42,8.91,59.92z M11.36,61.87c0.15,0.23,0.46,0.29,0.69,0.14s0.29-0.46,0.14-0.69L11.36,61.87z
					 M8.96,59.42c-0.27-0.03-0.52,0.17-0.55,0.44c-0.03,0.27,0.17,0.52,0.44,0.55L8.96,59.42z"/>
			</g>
			<g>
				<defs>
					<rect id="SVGID_00000170983129858410609630000016641985501055516565_" y="0" width="120" height="120"/>
				</defs>
				<clipPath id="SVGID_00000005975155721486926230000000618585754434427561_">
					<use xlink:href="#SVGID_00000170983129858410609630000016641985501055516565_"  style="overflow:visible;"/>
				</clipPath>
				<path style="clip-path:url(#SVGID_00000005975155721486926230000000618585754434427561_);fill:#F4F4F4;" d="M40.31,98.59
					c-0.05-8.48-1.45-15.55-5.08-26.27c0,0-2.92,6.93-7,6.92c-3.9,0-6.55-2.78-6.55-2.78s1.03,4.94,2.23,10.77
					c1.14,5.53,2.44,12.05,4.21,15.15c0,0,1.67,5.96,8.07,4.06C38.78,105.67,40.32,102.06,40.31,98.59L40.31,98.59z"/>
			</g>
			<g>
				<defs>
					<rect id="SVGID_00000175281727322818171730000004271956373081435309_" y="0" width="120" height="120"/>
				</defs>
				<clipPath id="SVGID_00000023254119900439478050000009951647178375604386_">
					<use xlink:href="#SVGID_00000175281727322818171730000004271956373081435309_"  style="overflow:visible;"/>
				</clipPath>
				<path style="clip-path:url(#SVGID_00000023254119900439478050000009951647178375604386_);fill:#050505;" d="M28.41,102.92
					c-0.47,0.18-0.47,0.18-0.47,0.18l0,0l0,0l0,0c0,0,0,0.01,0.01,0.01c0,0.01,0.01,0.03,0.02,0.05c0.02,0.04,0.04,0.1,0.08,0.16
					c0.07,0.14,0.17,0.33,0.31,0.56c0.28,0.45,0.73,1.05,1.38,1.62c1.31,1.16,3.44,2.21,6.67,1.9l-0.09-1
					c-2.95,0.28-4.8-0.67-5.92-1.65c-0.56-0.5-0.95-1.01-1.19-1.4c-0.12-0.19-0.21-0.36-0.26-0.47c-0.03-0.06-0.05-0.1-0.06-0.12
					c-0.01-0.01-0.01-0.02-0.01-0.03c0,0,0,0,0-0.01l0,0l0,0l0,0C28.88,102.74,28.88,102.74,28.41,102.92z M23.63,88.05
					c0.62,2.99,1.28,6.04,2,8.71c0.71,2.65,1.49,4.96,2.35,6.41l0.86-0.51c-0.78-1.33-1.53-3.52-2.24-6.16
					c-0.71-2.63-1.37-5.66-1.99-8.65L23.63,88.05z M21.91,76.25c-0.49,0.08-0.49,0.08-0.49,0.08l0,0l0,0l0,0v0.01
					c0,0.01,0,0.03,0.01,0.05c0.01,0.04,0.02,0.11,0.03,0.19c0.03,0.17,0.07,0.42,0.13,0.74c0.11,0.64,0.27,1.54,0.47,2.64
					c0.4,2.19,0.95,5.12,1.57,8.08l0.98-0.2c-0.61-2.95-1.17-5.87-1.57-8.06c-0.2-1.09-0.36-2-0.47-2.63
					c-0.06-0.32-0.1-0.57-0.13-0.73c-0.01-0.08-0.03-0.15-0.03-0.19c0-0.02-0.01-0.04-0.01-0.05s0-0.01,0-0.01l0,0l0,0l0,0
					C22.4,76.17,22.4,76.17,21.91,76.25z M27.89,78.71c-1.06,0.19-2.33-0.07-3.41-0.61c-1.09-0.54-1.87-1.3-2.1-2.01l-0.95,0.31
					c0.35,1.07,1.41,2,2.61,2.6c1.21,0.6,2.7,0.93,4.02,0.69L27.89,78.71z M35.26,72.23c-0.45-0.21-0.45-0.21-0.45-0.21l0,0l0,0l0,0
					c0,0,0,0.01-0.01,0.01c0,0.01-0.01,0.03-0.02,0.05c-0.02,0.04-0.05,0.11-0.09,0.19c-0.08,0.16-0.21,0.4-0.37,0.69
					c-0.33,0.58-0.81,1.36-1.43,2.16c-1.25,1.62-2.97,3.24-4.99,3.59l0.17,0.98c2.4-0.42,4.32-2.3,5.61-3.97
					c0.65-0.85,1.16-1.67,1.51-2.27c0.17-0.3,0.31-0.56,0.4-0.73c0.05-0.09,0.08-0.16,0.1-0.21c0.01-0.02,0.02-0.04,0.03-0.06
					c0-0.01,0.01-0.01,0.01-0.02l0,0l0,0l0,0C35.71,72.44,35.71,72.44,35.26,72.23z M41.14,96.3c-0.96-6.41-2.35-11.12-5.39-24.19
					l-0.97,0.23c3.06,13.12,4.42,17.75,5.37,24.11L41.14,96.3z M36.41,107.41c0.27-0.03,0.48-0.27,0.45-0.55
					c-0.03-0.27-0.27-0.48-0.55-0.45L36.41,107.41z M28.41,102.92l0.47-0.18c-0.01-0.03-0.02-0.05-0.04-0.07L28.41,102.92z
					 M24.12,87.95l0.49-0.1l0,0L24.12,87.95z M21.91,76.25l0.48-0.15c-0.08-0.25-0.34-0.39-0.6-0.33s-0.42,0.31-0.37,0.57
					L21.91,76.25z M27.98,79.2l-0.09-0.49l0,0L27.98,79.2z M35.26,72.23l0.49-0.11c-0.05-0.21-0.22-0.36-0.44-0.38
					s-0.42,0.09-0.5,0.29L35.26,72.23z M40.15,96.45c0.04,0.27,0.3,0.46,0.57,0.42s0.46-0.3,0.42-0.57L40.15,96.45z"/>
			</g>
			<g>
				<defs>
					<rect id="SVGID_00000137832218693107919750000007330728784818359976_" y="0" width="120" height="120"/>
				</defs>
				<clipPath id="SVGID_00000178918972563091636900000010532489585975859852_">
					<use xlink:href="#SVGID_00000137832218693107919750000007330728784818359976_"  style="overflow:visible;"/>
				</clipPath>
				<path style="clip-path:url(#SVGID_00000178918972563091636900000010532489585975859852_);fill:#050505;" d="M39.83,74.96
					c-0.47,0.17-0.47,0.17-0.47,0.17l0,0l0,0l0,0c0,0,0,0,0,0.01s0.01,0.02,0.01,0.04c0.01,0.03,0.03,0.08,0.05,0.15
					c0.04,0.14,0.11,0.35,0.19,0.62c0.17,0.56,0.4,1.4,0.67,2.54c0.54,2.27,1.21,5.71,1.76,10.36l0.99-0.12
					c-0.55-4.68-1.24-8.16-1.78-10.47c-0.27-1.16-0.51-2.02-0.68-2.6c-0.09-0.29-0.15-0.51-0.2-0.65c-0.02-0.07-0.04-0.13-0.06-0.17
					c-0.01-0.02-0.01-0.03-0.01-0.04v-0.01l0,0l0,0l0,0C40.31,74.79,40.31,74.79,39.83,74.96z M42.05,88.85
					c0.03,0.27,0.28,0.47,0.56,0.44c0.27-0.03,0.47-0.28,0.44-0.56L42.05,88.85z M40.31,74.79c-0.09-0.26-0.38-0.4-0.64-0.3
					s-0.4,0.38-0.3,0.64L40.31,74.79z"/>
			</g>
		</g>
	</g>
	<path style="clip-path:url(#SVGID_00000154396629967809973230000006833612927965396916_);fill:#80ABFF;" d="M87,48.06
		c0,0,19.74,9.64,15.53,12.88C102.53,60.94,99.04,64.07,87,48.06z"/>
</g>
<path class="st52" d="M89.12,44c0,0,13.28,1.81,11.54,4.43C100.66,48.43,99.31,50.85,89.12,44z"/>
</svg>
