<svg width="75" height="74" viewBox="0 0 75 74" fill="none" xmlns="http://www.w3.org/2000/svg">
<path d="M71.0542 18.1355C71.8328 17.357 73.094 17.357 73.8725 18.1355L73.8747 18.1366C74.6532 18.9151 74.6532 20.1762 73.8747 20.9547L64.0298 30.7989C62.4484 32.3802 60.724 33.8749 58.6259 34.649C55.3462 35.8591 51.9889 35.9008 49.2748 34.6763L42.4573 41.8462L37.4534 37.1462L44.7803 30.1821C43.7264 27.8465 43.6104 25.0347 44.3698 22.2058C45.1982 19.1201 47.419 16.6669 49.6782 14.4079L58.5028 5.58389C59.2803 4.80537 60.5425 4.80537 61.3211 5.58389C62.0997 6.3624 62.0997 7.62346 61.3211 8.40305L50.0115 19.7119C49.634 20.0893 49.634 20.7006 50.0115 21.077C50.389 21.4533 50.9992 21.4533 51.3767 21.077L62.6863 9.76813C63.4648 8.98962 64.727 8.99069 65.5056 9.76813C66.2842 10.5456 66.2842 11.8077 65.5056 12.5862L54.196 23.895C53.8185 24.2725 53.8185 24.8827 54.196 25.2601C54.5735 25.6365 55.1848 25.6365 55.5612 25.2601L66.8708 13.9513C67.6483 13.1728 68.9105 13.1728 69.6891 13.9513C70.4676 14.7287 70.4676 15.9909 69.6891 16.7694L58.3795 28.0782C58.002 28.4557 58.002 29.0658 58.3795 29.4433C58.757 29.8208 59.3672 29.8208 59.7447 29.4433L71.0542 18.1355Z" fill="#80ABFF"/>
<path d="M11.8039 60.1335L31.0216 42L36.2935 47.6126L18.3241 66.6533C16.5235 68.4537 13.6044 68.4537 11.8039 66.6533C10.0033 64.8528 10.0033 61.9339 11.8039 60.1335Z" fill="#80ABFF"/>
<path d="M24.2888 13.2469C18.4763 7.43484 9.01881 7.46915 5.70508 10.7827C2.39135 14.0962 2.35703 23.5541 8.16839 29.3662C12.962 34.1595 19.4619 35.7487 24.0904 33.662L55.499 67.0952C57.2995 68.8956 60.2186 68.8956 62.0192 67.0952C63.8198 65.2947 63.8198 62.3758 62.0192 60.5754L28.5848 29.1678C30.6728 24.5396 29.0824 18.0402 24.2888 13.2469Z" stroke="white" stroke-width="1.5" stroke-miterlimit="10"/>
</svg>
