<svg width="90" height="90" viewBox="0 0 90 90" fill="none" xmlns="http://www.w3.org/2000/svg">
<path d="M59.7334 52.0858L58.2269 59.4153H53.6784V49.5751L60.873 42.3808L51.5924 33.1103H30.5204L21.2398 42.3808L28.4344 49.5751V59.4153H23.8859L22.3793 52.0858L12.6738 42.3808L28.0095 27.0459H54.1033L58.758 31.7004L61.5586 34.5009L69.4389 42.3808L64.5862 47.2333L63.4113 48.497" stroke="#050505" stroke-width="1.5" stroke-linecap="round" stroke-linejoin="round"/>
<path d="M36.0195 20.6504V26.9356H45.8976V20.6504" stroke="#050505" stroke-width="1.5" stroke-linecap="round" stroke-linejoin="round"/>
<path d="M51.7472 52.9074C52.9254 54.8195 53.6014 57.0599 53.6014 59.4645C53.6014 66.3886 47.9905 71.9994 41.0663 71.9994C34.1421 71.9994 28.5312 66.3886 28.5312 59.4645C28.5312 52.5404 34.1421 46.9297 41.0663 46.9297C44.5332 46.9297 47.6622 48.33 49.9316 50.5994" stroke="#050505" stroke-width="1.5" stroke-linecap="round" stroke-linejoin="round"/>
<path d="M37.5195 63.2795C38.8812 65.8673 45.1294 65.5776 44.5114 61.976C44.3472 61.0393 43.7001 60.431 42.9083 60.0351C41.4114 59.2916 40.3201 59.7165 38.8329 58.7798C38.2149 58.3839 37.7416 57.8336 37.6064 57.0514C36.9884 53.4498 43.2366 53.1601 44.5983 55.7479" stroke="#050505" stroke-width="1.5" stroke-linecap="round" stroke-linejoin="round"/>
<path d="M41.0625 54.0579V51.9043" stroke="#050505" stroke-width="1.5" stroke-linecap="round" stroke-linejoin="round"/>
<path d="M41.0625 67.1799V65.0264" stroke="#050505" stroke-width="1.5" stroke-linecap="round" stroke-linejoin="round"/>
<path d="M40.9641 22.8733C44.3938 22.8733 47.1742 20.0934 47.1742 16.6642C47.1742 13.235 44.3938 10.4551 40.9641 10.4551C37.5343 10.4551 34.7539 13.235 34.7539 16.6642C34.7539 20.0934 37.5343 22.8733 40.9641 22.8733Z" stroke="#050505" stroke-width="1.5" stroke-linecap="round" stroke-linejoin="round"/>
<path d="M40.9654 19.2012C42.3616 19.2012 43.4934 18.0694 43.4934 16.6733C43.4934 15.2773 42.3616 14.1455 40.9654 14.1455C39.5693 14.1455 38.4375 15.2773 38.4375 16.6733C38.4375 18.0694 39.5693 19.2012 40.9654 19.2012Z" stroke="#050505" stroke-width="1.5" stroke-linecap="round" stroke-linejoin="round"/>
<path d="M70.4287 47.7262C70.4287 47.296 70.0799 46.9473 69.6497 46.9473H60.3024C59.8722 46.9473 59.5234 47.296 59.5234 47.7262V65.2525C59.5234 65.6827 59.1747 66.0315 58.7445 66.0315L53.9602 66.0315C53.2777 66.0315 52.9252 66.8468 53.3927 67.344L64.4083 79.0595C64.7159 79.3867 65.2356 79.3867 65.5432 79.0595L76.5588 67.344C77.0263 66.8468 76.6738 66.0315 75.9913 66.0315L71.2076 66.0315C70.7774 66.0315 70.4287 65.6827 70.4287 65.2525V47.7262Z" fill="#80ABFF"/>
</svg>
