<svg width="34" height="43" viewBox="0 0 34 43" fill="none" xmlns="http://www.w3.org/2000/svg">
<path d="M6.51374 41.5772C6.51374 41.9914 6.84952 42.3272 7.26374 42.3272C7.67795 42.3272 8.01374 41.9914 8.01374 41.5772H6.51374ZM17.1387 24.5685C17.1387 24.9827 17.4745 25.3185 17.8887 25.3185C18.3029 25.3185 18.6387 24.9827 18.6387 24.5685H17.1387ZM17.8887 14.1595V13.4095C17.4745 13.4095 17.1387 13.7453 17.1387 14.1595H17.8887ZM24.1537 14.1595V14.9095C24.4479 14.9095 24.715 14.7375 24.8366 14.4695C24.9582 14.2016 24.9119 13.8873 24.7182 13.6658L24.1537 14.1595ZM12.5768 0.921875L13.1414 0.428144C12.999 0.265294 12.7932 0.171875 12.5768 0.171875C12.3605 0.171875 12.1547 0.265294 12.0123 0.428144L12.5768 0.921875ZM1 14.1595L0.435438 13.6658C0.241733 13.8873 0.195443 14.2016 0.317066 14.4695C0.438689 14.7375 0.705753 14.9095 1 14.9095V14.1595ZM7.26496 14.1595H8.01496C8.01496 13.7453 7.67918 13.4095 7.26496 13.4095V14.1595ZM6.51374 36.4825V41.5772H8.01374V36.4825H6.51374ZM18.6387 24.5685V14.1595H17.1387V24.5685H18.6387ZM17.8887 14.9095H24.1537V13.4095H17.8887V14.9095ZM24.7182 13.6658L13.1414 0.428144L12.0123 1.41561L23.5891 14.6533L24.7182 13.6658ZM12.0123 0.428144L0.435438 13.6658L1.56456 14.6533L13.1414 1.41561L12.0123 0.428144ZM1 14.9095H7.26496V13.4095H1V14.9095ZM6.51496 14.1595V38.0593H8.01496V14.1595H6.51496Z" fill="white"/>
<path d="M27.5129 41.6385V30.6876H32.901L22.938 19.3047L12.9878 30.6876H18.3759V41.6385" stroke="white" stroke-width="1.5" stroke-linecap="round" stroke-linejoin="round"/>
</svg>
