<svg width="120" height="120" viewBox="0 0 120 120" fill="none" xmlns="http://www.w3.org/2000/svg">
<g clip-path="url(#clip0_3368_41941)">
<circle cx="60" cy="66" r="50" fill="#F4F4F4"/>
<mask id="mask0_3368_41941" style="mask-type:alpha" maskUnits="userSpaceOnUse" x="4" y="-4" width="106" height="120">
<path d="M110 66C110 93.6142 87.6142 116 60 116C35.4584 116 15.0464 98.3188 10.8078 75C10.2772 72.0805 4 67.5726 4 64.5C4 60.7271 5.70801 56.1786 6.5 52C11.5047 25.5949 36.1586 -4 60 -4C87.6142 -4 110 38.3858 110 66Z" fill="#F4F4F4"/>
</mask>
<g mask="url(#mask0_3368_41941)">
<path d="M62.4132 103.25C51.112 85.46 52.9334 56.0898 52.9334 56.0898H71.8929C71.8929 56.0898 73.7143 85.46 62.4132 103.25Z" fill="#F4F4F4" stroke="#050505" stroke-linecap="round" stroke-linejoin="round"/>
<path d="M54.1523 64.9555C56.8486 56.7827 56.2319 45 56.2319 45H69.0675C69.0675 45 68.121 56.2196 71.018 64.9555H54.1523Z" fill="#F4F4F4" stroke="#050505" stroke-linecap="round" stroke-linejoin="round"/>
<path d="M60.5491 70.2969H64.2205L65.7981 75.9572L67.2466 118.54L62.3274 125.5L57.5947 118.54L59.0432 75.9572L60.5491 70.2969Z" fill="#80ABFF"/>
<path d="M58.0964 65.1132C58.0677 63.1927 60.7066 63.0772 62.4993 63.0483C64.292 63.0339 66.9882 63.0916 67.0025 65.0121C67.0312 66.9326 65.0377 71.019 62.5566 71.019C60.0612 71.019 58.1108 67.0481 58.0964 65.1276V65.1132Z" fill="#80ABFF"/>
<path d="M52.3009 57.2033C52.3569 57.1905 52.4069 57.1802 52.4512 57.172C52.4747 57.9441 52.4292 58.6203 52.3811 59.3348C52.3583 59.6733 52.335 60.0204 52.3181 60.3904C52.2605 61.6527 52.2889 63.0844 52.7092 65.1254C53.5447 69.1824 55.9271 75.6368 62.226 88.01L62.6557 88.8543L63.1102 88.0231C69.3644 76.5859 71.6789 70.1185 72.4552 65.8081C72.8447 63.6448 72.8452 62.0341 72.7687 60.6276C72.7473 60.2353 72.7207 59.8655 72.695 59.5081C72.6365 58.6951 72.5827 57.9461 72.6055 57.142C72.6552 57.1508 72.7118 57.1622 72.776 57.1766C73.2201 57.2765 73.8729 57.4868 74.6809 57.7832C76.2892 58.3733 78.4355 59.276 80.5894 60.221C82.7409 61.165 84.8911 62.1472 86.504 62.8936C87.3103 63.2668 87.982 63.5809 88.452 63.8017C88.6284 63.8846 88.7765 63.9543 88.8925 64.0091L87.4273 104.255L87.4264 104.281L87.4281 104.306L88.9001 126.494L87.5365 131.945L37.9432 132.002L36.5998 125.063L37.9294 104.305L37.7118 104.291L37.9304 104.288V104.273L37.8997 104.272L37.9302 104.271L36.6071 63.9923C36.7197 63.938 36.8629 63.8691 37.0334 63.7874C37.4913 63.5678 38.1455 63.2554 38.931 62.8843C40.5021 62.1419 42.5967 61.1652 44.6926 60.2267C46.7909 59.2872 48.8814 58.39 50.4478 57.8042C51.2349 57.5099 51.8698 57.3017 52.3009 57.2033ZM52.7143 57.1448C52.7142 57.1449 52.7125 57.1448 52.7094 57.1442C52.7128 57.1445 52.7143 57.1448 52.7143 57.1448ZM72.348 57.1161C72.3449 57.1166 72.3432 57.1168 72.3431 57.1167C72.343 57.1166 72.3446 57.1164 72.348 57.1161Z" fill="#F4F4F4" stroke="#050505"/>
<path d="M62.6717 87.8008C62.6717 87.8008 62.2128 112.03 62.6717 131.365" stroke="#050505" stroke-linecap="round" stroke-linejoin="round"/>
<path d="M52.2884 80.2324H41.3745V82.3984L46.5948 84.03L52.2884 82.5428V81.5175" stroke="#050505" stroke-linecap="round" stroke-linejoin="round"/>
<path d="M52.2882 82.8441L51.9297 91.2047C51.901 91.7534 51.4421 92.1865 50.8828 92.1865H43.167C42.622 92.1865 42.1775 91.7678 42.1344 91.2191L41.3887 82.3965" stroke="#050505" stroke-linecap="round" stroke-linejoin="round"/>
<path d="M83.8827 80.2324H72.9688V82.3984L78.4185 84.03L83.8827 82.5428V81.5175" stroke="#050505" stroke-linecap="round" stroke-linejoin="round"/>
<path d="M83.883 82.8441L83.5244 91.2047C83.4957 91.7534 83.0368 92.1865 82.4775 92.1865H74.7618C74.2168 92.1865 73.7722 91.7678 73.7292 91.2191L72.9834 82.3965" stroke="#050505" stroke-linecap="round" stroke-linejoin="round"/>
<path d="M71.7071 58.7175C71.7644 58.5442 69.2403 54.2989 69.269 54.5733C69.5128 56.8547 68.3225 58.9341 62.9157 62.6017C62.4998 62.8905 64.6224 64.1757 67.0031 66.8903C68.7671 68.8974 70.0435 72.3485 70.0435 72.3485C73.0408 64.9554 71.7071 58.7175 71.7071 58.7175Z" fill="#F4F4F4" stroke="#050505" stroke-linecap="round" stroke-linejoin="round"/>
<path d="M53.0627 57.6511C53.0053 57.4778 56.0888 54.1567 56.0601 54.4455C55.8163 56.727 57.1787 59.1528 62.5998 62.8205C62.987 63.0804 59.7602 64.3655 57.9675 67.008C56.3326 69.405 55.0705 72.3507 55.0705 72.3507C52.1448 64.7554 53.0627 57.6511 53.0627 57.6511Z" fill="#F4F4F4" stroke="#050505" stroke-linecap="round" stroke-linejoin="round"/>
<path d="M55.8594 54.501C55.8594 54.501 53.3783 53.5047 51.2414 56.6236C51.2414 56.6236 44.9024 64.6954 45.2179 72.3484C45.2179 72.3484 57.8094 77.7074 59.43 82.3136C59.43 82.3136 49.463 62.515 55.8594 54.5155V54.501Z" fill="#F4F4F4" stroke="#050505" stroke-linecap="round" stroke-linejoin="round"/>
<path d="M69.4549 54.501C69.4549 54.501 71.936 53.5047 74.0729 56.6236C74.0729 56.6236 80.4119 64.6954 80.0963 72.3484C80.0963 72.3484 67.616 77.7074 66.0098 82.3136C66.0098 82.3136 75.8656 62.515 69.4549 54.5155V54.501Z" fill="#F4F4F4" stroke="#050505" stroke-linecap="round" stroke-linejoin="round"/>
<path d="M89.3961 64.4212C88.5172 64.1213 83.6463 80.2286 82.3504 95.901C82.0525 99.5454 69.987 94.2962 56.9087 92.4366L52.0825 101.15C52.0825 101.15 71.0595 113.508 88.5768 112.503C88.5768 112.503 92.5241 112.233 93.7158 106.639C95.7267 100.04 96.8588 94.7612 97.395 86.6025C97.5142 84.8778 97.6334 82.5382 97.8419 80.6935C98.0802 78.6239 98.1547 76.4942 97.9908 75.1894C97.0673 67.8557 93.2838 65.726 89.3812 64.4062L89.3961 64.4212Z" fill="#F4F4F4" stroke="#050505" stroke-linecap="round" stroke-linejoin="round"/>
<path d="M87.8023 100.202C87.8023 100.202 85.8211 98.5827 81.7397 98.1328C81.7397 98.1328 84.8082 99.9475 85.3445 101.627" stroke="#050505" stroke-linecap="round" stroke-linejoin="round"/>
<path d="M72.6239 90.6369C72.6239 90.6369 80.2504 87.6524 82.6486 90.5019L82.455 96.291C82.455 96.291 81.3974 99.3054 75.2306 97.3108C75.2306 97.3108 72.2813 93.4864 72.6239 90.6519V90.6369Z" fill="#F4F4F4" stroke="#050505" stroke-linecap="round" stroke-linejoin="round"/>
<path d="M73.011 92.1504C71.9385 90.2907 71.2682 90.1108 71.2682 90.1108C71.2682 90.1108 65.4143 91.6105 58.7112 92.6453C52.2316 93.6502 44.8583 94.535 40.33 95.4949C40.3449 91.5955 40.2406 87.0063 39.8533 81.9071C39.3022 74.6934 36.2337 64.3301 36.2337 64.3301C33.7759 64.885 30.2755 66.7597 28.7859 70.3291C28.1305 71.8888 27.5198 74.0485 27.4155 76.2381C27.2814 78.7727 27.2368 81.8921 27.0878 85.2666C26.5813 96.2297 28.3092 103.624 31.1543 107.613C32.2119 110.717 35.5783 111.362 38.9894 111.452C42.8176 111.557 48.5375 109.413 54.5553 107.793C59.7986 106.383 64.8929 103.863 69.3467 101.629C71.4321 100.579 73.6366 100.219 75.1858 98.9143C75.1858 98.9143 75.0368 95.6448 73.0259 92.1354L73.011 92.1504Z" fill="#F4F4F4" stroke="#050505" stroke-linecap="round" stroke-linejoin="round"/>
<path d="M66.293 92.5566C66.293 92.5566 68.4975 95.1062 68.7508 98.9456" stroke="#050505" stroke-linecap="round" stroke-linejoin="round"/>
<path d="M34.1336 96.11C34.1336 96.11 38.0512 94.5053 39.5705 95.3602C39.5705 95.3602 34.938 96.8449 33.791 101.419" stroke="#050505" stroke-linecap="round" stroke-linejoin="round"/>
<path d="M57.2367 92.8708C57.2367 92.8708 56.7154 91.0711 55.0769 89.5414C54.3321 88.8515 51.6658 86.4369 50.6827 86.1369C49.1186 85.672 47.6588 86.3319 46.2438 86.0019C43.4583 85.3571 38.7513 83.9773 37.0085 84.2322C37.0085 84.2322 35.5636 84.3522 36.3829 85.732C36.3829 85.732 42.1773 87.6817 44.8585 89.0014C43.5179 88.3266 36.7552 85.597 35.2806 85.717C35.2806 85.717 32.9718 86.8268 36.1743 88.1316C36.1743 88.1316 41.79 89.9313 43.4434 91.2661C43.4881 91.0711 35.9211 88.0566 35.8019 88.1016C35.8019 88.1016 31.5716 89.1364 41.9538 93.3657C41.9538 93.3657 39.0045 92.2859 38.3044 91.956C34.8039 90.5762 33.2101 93.5457 40.9409 95.6303C40.9409 95.6303 46.7055 94.5505 49.8187 93.9056C53.2149 93.2007 57.2218 92.8408 57.2218 92.8408L57.2367 92.8708Z" fill="#F4F4F4" stroke="#050505" stroke-linecap="round" stroke-linejoin="round"/>
<path d="M46.4971 86.0469C46.4971 86.0469 48.9399 86.6618 49.5358 87.1867" stroke="#050505" stroke-linecap="round" stroke-linejoin="round"/>
<path d="M48.8053 41.8941C48.8053 41.8941 48.1028 47.5162 49.2093 49.7826L50.5266 47.8149L52.7044 53.3491L54.654 51.2936L56.3577 52.8923L51.6331 41.1562L48.8053 41.9117V41.8941Z" fill="#70747D"/>
<path d="M77.5215 41.8941C77.5215 41.8941 78.2241 47.5162 77.1176 49.7826L75.8003 47.8149L73.6224 53.3491L71.6729 51.2936L69.9692 52.8923L74.6938 41.1562L77.5215 41.9117V41.8941Z" fill="#70747D"/>
<path d="M51.704 36.3792C52.4241 38.5402 53.9346 42.3 51.9323 42.9676C49.9476 43.6352 47.7874 42.8095 45.8729 38.6105C44.9245 36.5373 45.7324 33.779 47.7171 33.1114C49.7018 32.4438 50.9664 34.2182 51.6865 36.3792H51.704Z" fill="#F4F4F4" stroke="#050505" stroke-linecap="round" stroke-linejoin="round"/>
<path d="M74.2725 36.3792C73.5524 38.5402 72.042 42.3 74.0442 42.9676C76.0289 43.6352 78.1892 42.8095 80.1036 38.6105C81.052 36.5373 80.2441 33.779 78.2595 33.1114C76.2748 32.4438 75.0102 34.2182 74.2901 36.3792H74.2725Z" fill="#F4F4F4" stroke="#050505" stroke-linecap="round" stroke-linejoin="round"/>
<path d="M76.2932 29.3503C76.1 41.2445 73.5533 53.9996 62.8922 53.9996C51.5462 53.9996 49.4912 39.6106 49.4912 29.3503C49.4912 19.09 55.8492 11.8691 63.261 11.8691C70.6728 11.8691 76.4688 19.09 76.3107 29.3503H76.2932Z" fill="#F4F4F4"/>
<path d="M62.4882 53.7889C51.107 52.9983 50.0181 38.5039 50.0181 38.5039" stroke="#050505" stroke-linecap="round" stroke-linejoin="round"/>
<path d="M75.9766 38.3652C75.9766 38.3652 75.0809 53.0178 63.6997 53.7908" stroke="#050505" stroke-linecap="round" stroke-linejoin="round"/>
<path d="M69.5145 36.272C69.5145 36.7858 69.1426 37.126 68.7741 37.126C68.4055 37.126 68.0337 36.7858 68.0337 36.272C68.0337 35.7582 68.4055 35.418 68.7741 35.418C69.1426 35.418 69.5145 35.7582 69.5145 36.272Z" fill="#050505" stroke="#050505"/>
<path d="M57.45 36.272C57.45 36.7858 57.0782 37.126 56.7096 37.126C56.3411 37.126 55.9692 36.7858 55.9692 36.272C55.9692 35.7582 56.3411 35.418 56.7096 35.418C57.0782 35.418 57.45 35.7582 57.45 36.272Z" fill="#050505" stroke="#050505"/>
<path d="M58.7472 31.3887C58.7472 31.3887 56.606 34.3616 53.5493 32.6396" stroke="#050505" stroke-linecap="round" stroke-linejoin="round"/>
<path d="M66.5439 31.3887C66.5439 31.3887 68.6851 34.3616 71.7418 32.6396" stroke="#050505" stroke-linecap="round" stroke-linejoin="round"/>
<path d="M62.749 42.4531V43.189" stroke="#050505" stroke-linecap="round" stroke-linejoin="round"/>
<path d="M64.3951 47.8575C64.3563 47.8804 64.2821 47.9131 64.1536 47.9439C63.8265 48.0223 63.342 48.046 62.7492 48.046C62.1485 48.046 61.6646 48.0223 61.3398 47.944C61.2136 47.9136 61.1411 47.8815 61.1033 47.8592C61.1097 47.8479 61.1204 47.8323 61.1376 47.8129C61.1901 47.7539 61.2872 47.6789 61.4427 47.6051C61.7533 47.4576 62.2159 47.3535 62.7492 47.3535C63.2906 47.3535 63.7526 47.4578 64.0604 47.6047C64.2143 47.6781 64.3098 47.7526 64.3611 47.8109C64.3782 47.8304 64.3887 47.8461 64.3951 47.8575Z" fill="#F4F4F4" stroke="#050505"/>
<path d="M76.9774 29.7389C76.9774 31.1971 76.2749 36.9948 76.2749 36.9948C76.2749 36.9948 78.9445 33.4986 79.2783 30.7227C79.4539 29.2821 78.9446 27.1035 78.242 27.1035C77.5395 27.1035 76.9774 28.2806 76.9774 29.7213V29.7389Z" fill="#70747D"/>
<path d="M49.1218 29.6314C49.1218 31.0897 49.7541 37.0983 49.7541 37.0983C49.7541 37.0983 47.1547 33.3912 46.821 30.6329C46.6454 29.1922 47.1547 27.0137 47.8573 27.0137C48.5598 27.0137 49.1218 28.1908 49.1218 29.6314Z" fill="#70747D"/>
<path d="M77.6621 29.774H76.5556C77.2933 49.8554 65.9999 53.1408 62.979 53.6854C59.958 53.1408 48.7349 49.8905 49.4726 29.8091L48.208 29.6159C48.2607 28.5617 47.1191 54.0017 62.8736 54.0017H62.979H63.0843C78.8915 54.0017 77.6621 29.774 77.6621 29.774Z" fill="#F4F4F4" stroke="#050505" stroke-linecap="round" stroke-linejoin="round"/>
<path d="M80.2615 26.0287C80.2615 16.2779 76.0287 11.0599 69.6531 8.38939C68.2305 6.15812 65.5784 6 63.0492 6C60.5201 6 57.7274 6.14056 56.3223 8.56509C50.298 11.4288 45.9599 15.0129 45.9599 25.9935C44.1859 26.3098 44.4669 27.9788 44.4669 28.3654C44.4669 29.5074 51.8964 30.3155 62.8736 30.3155C73.8508 30.3155 81.5261 29.5074 81.5261 28.3654C81.5261 27.9613 82.1935 26.3273 80.2439 26.0111L80.2615 26.0287Z" fill="#80ABFF"/>
<path d="M56.4447 8.56445C56.4447 8.56445 54.1966 17.3665 55.1801 25.1145" stroke="#F4F4F4" stroke-linecap="round" stroke-linejoin="round"/>
<path d="M69.6533 8.56445C69.6533 8.56445 71.9014 17.3665 70.9178 25.1145" stroke="#F4F4F4" stroke-linecap="round" stroke-linejoin="round"/>
</g>
<path d="M103.909 18.9863C101.811 16.9549 99.4203 15.232 96.8231 13.8949C95.8771 13.4063 94.8451 12.9863 93.7701 12.892C93.0133 12.8234 91.7405 12.7806 91.2933 13.5434C91.1213 13.8349 91.1557 14.1949 91.2417 14.5206C91.3965 15.1291 91.7233 15.6777 92.0931 16.1834C93.5465 18.2234 95.5933 19.7234 97.7347 21.0006C98.5087 21.4634 99.7815 22.432 100.727 22.3206C100.831 22.312 100.934 22.2777 101.003 22.2091C101.364 21.832 100.555 20.992 100.297 20.7606C98.8699 19.492 97.2703 18.3863 95.5159 17.6149C94.0625 16.9806 91.4911 15.9949 89.9689 16.8691C87.0019 18.5749 92.3167 23.2034 93.5551 24.1377C94.5613 24.9006 95.9115 26.1006 97.2789 25.9549C98.3883 25.8349 97.0983 24.5491 96.8059 24.2663C95.7137 23.1949 94.4151 22.3377 93.0391 21.6777C91.7405 21.052 90.1667 20.332 88.6961 20.4263C86.5289 20.5634 87.8963 22.9977 88.5499 23.9749C89.2723 25.0377 90.1409 26.0063 91.1299 26.8291C91.9727 27.532 93.0477 28.4491 94.1743 28.5863C94.3205 28.6034 94.4667 28.612 94.6129 28.5606C95.1633 28.3634 94.8967 27.7034 94.6129 27.3949C94.0109 26.7349 93.2455 26.1777 92.3769 25.9977C90.6827 25.6463 89.0487 26.992 89.6851 28.7406C89.9947 29.6149 90.6225 30.3863 91.2331 31.0377" stroke="#70747D" stroke-width="1.03" stroke-linecap="round" stroke-linejoin="round"/>
</g>
<defs>
<clipPath id="clip0_3368_41941">
<rect width="120" height="120" fill="white"/>
</clipPath>
</defs>
</svg>
