<svg width="74" height="74" viewBox="0 0 74 74" fill="none" xmlns="http://www.w3.org/2000/svg">
<path d="M9.75518 35.0576H64.2448C66.3166 35.0576 68 36.7814 68 38.9031V65.0771C68 69.4493 64.5326 73.0001 60.263 73.0001H13.737C9.46743 73.0001 6 69.4493 6 65.0771V38.9031C6 36.7814 7.68336 35.0576 9.75518 35.0576Z" stroke="white" stroke-width="1.5" stroke-miterlimit="10"/>
<path d="M29.3328 9.36328H23.4339C23.1713 9.36328 22.9088 9.37065 22.6498 9.39275C16.5206 9.80164 11.6684 15.0288 11.6684 21.4126V35.0385H62.3273V21.4126C62.3273 15.0288 57.4787 9.80164 51.3495 9.39275C51.0906 9.37065 50.828 9.36328 50.5654 9.36328H44.6629" stroke="white" stroke-width="1.5" stroke-miterlimit="10"/>
<path d="M44.6636 8.84901V9.37572H29.3336V8.84901C29.3336 4.51382 32.765 1 36.9986 1C39.1136 1 41.0307 1.87661 42.4191 3.29835C43.8039 4.72009 44.6636 6.67958 44.6636 8.84901Z" stroke="white" stroke-width="1.5" stroke-miterlimit="10"/>
<path d="M62.3287 26.3999V4.14683C62.3287 2.8465 61.3 1.79297 60.0303 1.79297H53.6494C52.3797 1.79297 51.351 2.8465 51.351 4.14683V9.39606" stroke="white" stroke-width="1.5" stroke-miterlimit="10"/>
<path d="M22.6498 9.39606V4.14683C22.6498 2.8465 21.6211 1.79297 20.3513 1.79297H13.9668C12.6971 1.79297 11.6684 2.8465 11.6684 4.14683V26.3999" stroke="white" stroke-width="1.5" stroke-miterlimit="10"/>
<path d="M53.9264 44.5098H20.059C18.9899 44.5098 18.1232 45.3973 18.1232 46.4921V59.1185C18.1232 60.2133 18.9899 61.1008 20.059 61.1008H53.9264C54.9956 61.1008 55.8623 60.2133 55.8623 59.1185V46.4921C55.8623 45.3973 54.9956 44.5098 53.9264 44.5098Z" fill="#80ABFF"/>
<path d="M18.1304 50.6953H55.8696" stroke="white" stroke-width="1.5"/>
<path d="M46.0763 19.4473H27.9262C27.3561 19.4473 26.8939 19.9205 26.8939 20.5044V27.1674C26.8939 27.7512 27.3561 28.2245 27.9262 28.2245H46.0763C46.6464 28.2245 47.1086 27.7512 47.1086 27.1674V20.5044C47.1086 19.9205 46.6464 19.4473 46.0763 19.4473Z" fill="#80ABFF"/>
</svg>
