<svg width="74" height="74" viewBox="0 0 74 74" fill="none" xmlns="http://www.w3.org/2000/svg">
<path d="M62.5588 42.7788C64.2545 34.9328 64.2059 26.3457 63.6659 18.2252C63.6139 17.4283 63.383 14.5352 63.244 12.8065C63.1792 12.0016 62.6363 11.3151 61.8681 11.0659L37.6173 3.20014C37.2162 3.07005 36.7842 3.07005 36.3832 3.20014L12.1323 11.0659C11.3642 11.3151 10.8212 12.0016 10.7565 12.8065C10.6174 14.5352 10.3866 17.4283 10.3346 18.2252C9.49757 30.804 9.83777 44.5028 16.0317 54.8414C20.4597 62.2262 27.1721 67.6288 35.4396 70.4674L36.3543 70.7796C36.773 70.9225 37.2274 70.9225 37.6462 70.7796L38.5608 70.4674C46.8338 67.6288 53.5407 62.2262 57.9688 54.8414C59.7238 51.915 61.009 48.714 61.9324 45.3538" stroke="white" stroke-width="1.5" stroke-miterlimit="10"/>
<path d="M21.8352 13.1289L16.7195 14.7878C15.9521 15.0367 15.4086 15.7211 15.3464 16.5255C14.4545 28.0613 14.1732 42.222 20.1936 52.2707C23.9356 58.5124 29.615 63.0832 36.3521 65.5484C36.7696 65.7011 37.2277 65.701 37.6451 65.548C44.3823 63.0781 50.0618 58.5124 53.8037 52.2707C59.8241 42.2274 59.5428 28.0618 58.651 16.5257C58.5888 15.7212 58.0452 15.0368 57.2776 14.7879L37.6154 8.41475C37.2145 8.28481 36.7828 8.28482 36.382 8.41478L24.5677 12.2449" stroke="white" stroke-width="1.5" stroke-miterlimit="10"/>
<path d="M45.7456 25.4798C42.6902 24.5488 39.2149 25.9717 37.5701 28.6768C37.3381 29.0583 36.6646 29.0564 36.4391 28.671C34.8468 25.949 31.5748 24.453 28.5154 25.3886C24.0549 26.7558 22.9533 32.5319 25.3077 36.2875C26.6686 38.4562 28.9582 39.7685 31.0534 41.0533C33.1331 42.328 35.1098 43.812 36.576 45.8079C36.7803 46.086 37.2067 46.086 37.4111 45.8079C38.8773 43.8129 40.854 42.333 42.9336 41.0533C45.0289 39.7685 47.3185 38.4562 48.6793 36.2875C51.0391 32.5319 49.9375 26.7613 45.4717 25.3886L45.7456 25.4798Z" fill="#80ABFF"/>
</svg>
