<svg width="74" height="74" viewBox="0 0 74 74" fill="none" xmlns="http://www.w3.org/2000/svg">
<path d="M28.3788 12.0816C27.2504 11.9388 26.1221 11.4472 25.1316 10.5433C23.9171 9.44904 23.2022 7.91869 23.0816 6.35662C22.9524 4.77076 23.4434 3.11354 24.6234 1.94794C25.924 0.655464 27.905 0.100414 29.8258 0.0131917C32.4442 -0.105748 35.0971 0.5841 37.2934 1.90036C39.4898 0.5841 42.1427 -0.105748 44.7611 0.0131917C46.6818 0.100414 48.6629 0.655464 49.9635 1.94794C51.1435 3.11354 51.6344 4.77076 51.5052 6.35662C51.3846 7.91869 50.6697 9.44904 49.4553 10.5433C48.4648 11.4472 47.3364 11.9388 46.2081 12.0816" fill="#80ABFF"/>
<path d="M40.0966 11.0039H34.4894" stroke="white" stroke-width="1.5" stroke-linecap="round" stroke-linejoin="round"/>
<path d="M24.0149 21.0735V35.0027C24.0149 35.555 24.4626 36.0027 25.0149 36.0027H34.5777H40.2953H49.8666C50.4189 36.0027 50.8666 35.555 50.8666 35.0027V20.957" stroke="white" stroke-width="1.5" stroke-linecap="square" stroke-linejoin="round"/>
<path d="M25.1272 11.4805H28.7872H46.326H49.986C50.5383 11.4805 50.986 11.9282 50.986 12.4805V19.6997C50.986 20.252 50.5383 20.6997 49.986 20.6997H25.1272C24.5749 20.6997 24.1272 20.252 24.1272 19.6997V12.4805C24.1272 11.9282 24.5749 11.4805 25.1272 11.4805Z" stroke="white" stroke-width="1.5" stroke-linecap="round" stroke-linejoin="round"/>
<path d="M40.0966 11.0039H34.4894" stroke="white" stroke-width="1.5" stroke-linecap="round" stroke-linejoin="round"/>
<path d="M38.791 20.7227H35.2275C34.6753 20.7227 34.2275 21.1704 34.2275 21.7227V34.3629C34.2275 34.9151 34.6753 35.3629 35.2275 35.3629H38.791C39.3433 35.3629 39.791 34.9151 39.791 34.3629V21.7227C39.791 21.1704 39.3433 20.7227 38.791 20.7227Z" stroke="white" stroke-width="1.5" stroke-linecap="round" stroke-linejoin="round"/>
<path d="M18.2468 7.18648L14.0005 3.27734" stroke="white" stroke-width="1.5" stroke-linecap="round" stroke-linejoin="round"/>
<path d="M18.2463 28L14 31.9171" stroke="white" stroke-width="1.5" stroke-linecap="round" stroke-linejoin="round"/>
<path d="M18.2463 17.5977H14" stroke="white" stroke-width="1.5" stroke-linecap="round" stroke-linejoin="round"/>
<path d="M55.7532 28.0312L59.9995 31.9483" stroke="white" stroke-width="1.5" stroke-linecap="round" stroke-linejoin="round"/>
<path d="M55.7537 7.21773L60 3.30859" stroke="white" stroke-width="1.5" stroke-linecap="round" stroke-linejoin="round"/>
<path d="M55.7532 17.6367H59.9995" stroke="white" stroke-width="1.5" stroke-linecap="round" stroke-linejoin="round"/>
<path d="M34.4894 11.0019C34.8167 9.86004 35.9536 9.01953 37.2973 9.01953C38.641 9.01953 39.7693 9.86004 40.0966 11.0019" fill="white"/>
<path d="M34.4894 11.0019C34.8167 9.86004 35.9536 9.01953 37.2973 9.01953C38.641 9.01953 39.7693 9.86004 40.0966 11.0019" stroke="white" stroke-width="1.5" stroke-linecap="round" stroke-linejoin="round"/>
<path d="M71.6185 56.9712C70.397 58.8281 67.8074 60.918 64.5478 62.9701C58.5101 66.7722 53.5682 69.8692 46.1066 70.2092C39.1615 70.5302 32.719 67.3324 25.8577 66.9484C24.5873 66.8792 23.303 66.8603 22.0117 66.8981C22.5561 64.6634 22.8842 61.8559 22.8842 58.803C22.8842 56.3857 22.6818 54.1196 22.3188 52.1682C22.1443 51.1925 21.9279 50.2987 21.6766 49.5055C24.4966 48.5991 27.5398 47.9192 29.592 48.2969C34.4151 49.1908 38.9103 52.9865 42.7423 54.3148C43.887 54.7176 45.1364 54.9128 46.3788 55.0135H46.3858C49.3104 55.259 52.2141 54.9757 53.7288 55.4982C54.7479 55.8507 55.739 56.392 56.3184 57.1222L61.316 56.6061C61.316 56.6061 65.2388 54.812 67.968 53.5657C69.0848 53.0621 70.2365 53.3013 71.0252 53.9182C71.9466 54.6232 72.3584 55.8444 71.6185 56.9712Z" stroke="white" stroke-width="1.5" stroke-linecap="round" stroke-linejoin="round"/>
<path d="M56.316 57.1113C56.9582 57.9292 57.0978 58.9925 56.2183 60.32C56.2183 60.32 54.4803 59.9929 52.3234 60.0495C51.4998 60.0684 50.6064 60.1502 49.7269 60.32C45.6017 61.1442 41.5254 61.7985 35.6412 59.7727" stroke="white" stroke-width="1.5" stroke-linecap="round" stroke-linejoin="round"/>
<path d="M2 45.998H18.2155C19.6937 45.998 21.0294 47.5311 22 49.998" stroke="white" stroke-width="1.5" stroke-linecap="round" stroke-linejoin="round"/>
<path d="M2 71.998H17.8762C19.5501 71.998 21.041 70.0399 22 66.998" stroke="white" stroke-width="1.5" stroke-linecap="round" stroke-linejoin="round"/>
</svg>
