<svg width="46" height="46" viewBox="0 0 46 46" fill="none" xmlns="http://www.w3.org/2000/svg">
<path d="M25.6134 32.2969C26.6698 33.3534 26.6698 35.0801 25.6134 36.1366C24.557 37.1931 22.8304 37.1931 21.7739 36.1366L20.9106 35.2959" stroke="white" stroke-width="1.5" stroke-linejoin="round"/>
<path d="M23.9987 22.9883L30.3256 29.3394H30.337C31.3934 30.4188 31.3934 32.123 30.337 33.191C29.8031 33.725 29.1102 33.975 28.4173 33.975C27.7244 33.975 27.0201 33.7137 26.4976 33.191L25.6003 32.3162L20.1479 26.8512" stroke="white" stroke-width="1.5" stroke-linecap="round" stroke-linejoin="round"/>
<path d="M28.362 18.6207C28.0683 18.3285 27.5935 18.3297 27.3013 18.6234C27.0092 18.917 27.0104 19.3919 27.304 19.684L28.362 18.6207ZM34.2395 25.5262L33.7105 26.0579L33.712 26.0594L34.2395 25.5262ZM34.2395 29.2983L34.7699 29.8286L34.7699 29.8286L34.2395 29.2983ZM34.1941 29.3437L33.6637 28.8135L33.6637 28.8135L34.1941 29.3437ZM30.3434 29.3551L30.8737 28.8248C30.7331 28.6841 30.5423 28.6051 30.3434 28.6051V29.3551ZM27.304 19.684L33.7105 26.0579L34.7685 24.9945L28.362 18.6207L27.304 19.684ZM33.712 26.0594C34.4587 26.7982 34.4629 28.014 33.7091 28.768L34.7699 29.8286C36.1061 28.492 36.1103 26.3221 34.767 24.9931L33.712 26.0594ZM33.7091 28.768L33.6637 28.8135L34.7244 29.874L34.7699 29.8286L33.7091 28.768ZM33.6637 28.8135C32.8754 29.6019 31.6465 29.5978 30.8737 28.8248L29.813 29.8854C31.1757 31.2484 33.3545 31.2443 34.7244 29.874L33.6637 28.8135ZM30.3434 28.6051H30.332V30.1051H30.3434V28.6051Z" fill="white"/>
<path d="M28.8042 15.1417C29.0504 14.8086 28.9799 14.339 28.6468 14.0928C28.3137 13.8466 27.844 13.9171 27.5979 14.2502L28.8042 15.1417ZM20.7837 16.8659L21.0773 16.1758C20.7958 16.056 20.4697 16.1192 20.2533 16.3356L20.7837 16.8659ZM16.7172 20.9331L16.1868 20.4028L16.1818 20.4079L16.7172 20.9331ZM12.4009 20.9331L12.9462 20.4182C12.9413 20.413 12.9363 20.4079 12.9312 20.4028L12.4009 20.9331ZM12.4009 16.6159L12.9312 17.1462L12.4009 16.6159ZM17.8872 11.1286L17.3568 10.5983L17.8872 11.1286ZM20.3407 9.74257L20.5205 10.4707C20.5275 10.469 20.5345 10.4671 20.5415 10.4652L20.3407 9.74257ZM24.6911 8.95867L24.2482 8.35347C24.2201 8.37402 24.1935 8.39651 24.1685 8.42076L24.6911 8.95867ZM30.5425 5.6052C30.8767 5.36055 30.9493 4.89126 30.7047 4.55702C30.46 4.22278 29.9908 4.15015 29.6565 4.3948L30.5425 5.6052ZM42.6733 17.7144C42.9878 17.4449 43.0244 16.9714 42.7549 16.6569C42.4854 16.3423 42.0119 16.3058 41.6974 16.5753L42.6733 17.7144ZM27.5979 14.2502C26.697 15.4693 25.7258 16.2119 24.69 16.5294C23.662 16.8445 22.4746 16.7702 21.0773 16.1758L20.4901 17.556C22.137 18.2567 23.6927 18.404 25.1296 17.9636C26.5587 17.5255 27.7741 16.5356 28.8042 15.1417L27.5979 14.2502ZM20.2533 16.3356L16.1868 20.4028L17.2476 21.4634L21.3141 17.3962L20.2533 16.3356ZM16.1818 20.4079C15.7434 20.8549 15.1465 21.0806 14.5477 21.0806V22.5806C15.5163 22.5806 16.5098 22.2156 17.2526 21.4583L16.1818 20.4079ZM14.5477 21.0806C13.9437 21.0806 13.3665 20.8633 12.9462 20.4182L11.8556 21.448C12.5938 22.2299 13.5842 22.5806 14.5477 22.5806V21.0806ZM12.9312 20.4028C12.0314 19.5028 12.0314 18.0462 12.9312 17.1462L11.8705 16.0857C10.385 17.5714 10.385 19.9776 11.8705 21.4634L12.9312 20.4028ZM12.9312 17.1462L18.4176 11.6589L17.3568 10.5983L11.8705 16.0857L12.9312 17.1462ZM18.4176 11.6589C19.0021 11.0743 19.7326 10.6653 20.5205 10.4707L20.1609 9.01445C19.1086 9.27431 18.1354 9.81963 17.3568 10.5983L18.4176 11.6589ZM20.5415 10.4652C20.8703 10.3738 21.232 10.3335 21.6129 10.3335V8.83352C21.1306 8.83352 20.6289 8.88409 20.1399 9.01994L20.5415 10.4652ZM21.6129 10.3335H23.1918V8.83352H21.6129V10.3335ZM23.1918 10.3335C23.9585 10.3335 24.6873 10.0081 25.2138 9.49658L24.1685 8.42076C23.8998 8.6818 23.5383 8.83352 23.1918 8.83352V10.3335ZM25.1341 9.56387L30.5425 5.6052L29.6565 4.3948L24.2482 8.35347L25.1341 9.56387ZM41.6974 16.5753C40.122 17.925 38.9558 19.4955 37.8123 20.9693C36.6557 22.4601 35.5064 23.8757 33.9179 25.0714L34.8199 26.2698C36.5823 24.9434 37.8361 23.3856 38.9975 21.8888C40.172 20.375 41.2386 18.9436 42.6733 17.7144L41.6974 16.5753Z" fill="white"/>
<path d="M3.83745 29.3102C2.76968 28.2423 2.76968 26.5156 3.83745 25.4591L5.50726 23.7892C6.57504 22.7213 8.30164 22.7213 9.35806 23.7892C10.4258 24.857 10.4258 26.5838 9.35806 27.6403L7.68824 29.3102C6.62047 30.378 4.89386 30.378 3.83745 29.3102Z" stroke="white" stroke-width="1.5" stroke-linejoin="round"/>
<path d="M9.34027 27.6212C10.408 26.5533 12.1347 26.5533 13.1911 27.6212C14.2588 28.6891 14.2588 30.4158 13.1911 31.4723L11.5213 33.1422C10.4535 34.2101 8.72687 34.2101 7.67046 33.1422C6.60269 32.0744 6.60269 30.3476 7.67046 29.2911" stroke="white" stroke-width="1.5" stroke-linejoin="round"/>
<path d="M13.2026 31.4532C14.2703 30.3854 15.997 30.3854 17.0534 31.4532C18.1211 32.5211 18.1211 34.2478 17.0534 35.3043L15.3836 36.9743C14.3158 38.0421 12.5892 38.0421 11.5328 36.9743C10.465 35.9064 10.465 34.1797 11.5328 33.1232" stroke="white" stroke-width="1.5" stroke-linejoin="round"/>
<path d="M17.0574 35.2853C18.1251 34.2174 19.8517 34.2174 20.9081 35.2853C21.9759 36.3531 21.9759 38.0799 20.9081 39.1363L20.2039 39.8407C19.1361 40.9085 17.4095 40.9085 16.3531 39.8407C15.2853 38.7728 15.2853 37.0461 16.3531 35.9896" stroke="white" stroke-width="1.5" stroke-linejoin="round"/>
<path d="M13.7725 4.91862C13.514 4.59499 13.0421 4.54221 12.7184 4.80073C12.3948 5.05925 12.342 5.53119 12.6005 5.85482L13.7725 4.91862ZM12.6005 5.85482C13.6184 7.12906 15.0541 7.60407 16.2636 8.05896C17.5164 8.53008 18.6506 9.00798 19.5671 10.1609L20.7413 9.22754C19.5485 7.72696 18.0632 7.13318 16.7917 6.65496C15.4769 6.16051 14.4834 5.80853 13.7725 4.91862L12.6005 5.85482Z" fill="white"/>
<path d="M1.32814 16.563C1.01989 16.2863 0.545706 16.3119 0.269017 16.6201C-0.00767112 16.9284 0.0179125 17.4025 0.32616 17.6792L1.32814 16.563ZM5.83996 24.1496C5.53423 23.7989 5.24467 23.3106 4.941 22.6993C4.63581 22.0849 4.34878 21.4156 4.01431 20.6841C3.36769 19.2698 2.57148 17.679 1.32814 16.563L0.32616 17.6792C1.31179 18.5639 1.99994 19.8857 2.65013 21.3078C2.96406 21.9944 3.27855 22.7243 3.59762 23.3666C3.91819 24.0119 4.27564 24.6378 4.70927 25.1353L5.83996 24.1496Z" fill="white"/>
</svg>
