<svg width="91" height="90" viewBox="0 0 91 90" fill="none" xmlns="http://www.w3.org/2000/svg">
<path d="M38.717 13.9347C37.5398 13.3957 36.2847 12.9986 34.9799 12.7504V11.4456L35.5188 9.11968C34.3204 8.89276 33.0723 8.7793 31.7959 8.7793C30.5195 8.7793 29.2714 8.89985 28.073 9.11968L28.6119 11.4456V12.7504C26.3569 13.1901 24.2579 14.0623 22.4212 15.3104L21.5064 14.3814L20.2442 12.3533C18.1948 13.7645 16.4149 15.5515 14.9825 17.6009L17.0248 18.8561L17.9395 19.785C16.6986 21.6217 15.8192 23.7207 15.3938 25.9828H14.0748L11.7488 25.4439C11.5219 26.6423 11.4014 27.8833 11.4014 29.1597C11.4014 30.4362 11.5219 31.663 11.7488 32.8614L14.0748 32.3154H15.3938C15.8263 34.5917 16.6986 36.6907 17.9395 38.5132L17.0248 39.4421L14.9825 40.7044C16.4078 42.768 18.1948 44.5479 20.2442 45.952L21.5064 43.9238L22.4212 42.9949C24.2579 44.25 26.3569 45.1294 28.6119 45.5619V46.8667L28.073 49.1927C29.2714 49.4196 30.5195 49.5331 31.7959 49.5331C33.0723 49.5331 34.3204 49.4125 35.5188 49.1927L34.9799 46.8667V45.5619C37.2349 45.1223 39.3339 44.2501 41.1706 43.002L42.0854 43.9309L43.3476 45.9591C45.397 44.5479 47.1769 42.7609 48.6093 40.7115L46.567 39.4563L45.6523 38.5274C46.8932 36.6907 47.7726 34.5917 48.198 32.3296H49.517L51.843 32.8685C52.0699 31.6701 52.1904 30.4291 52.1904 29.1526C52.1904 27.8762 52.0699 26.6494 51.843 25.451L49.517 25.997H48.198C47.7655 23.7207 46.8932 21.6217 45.6523 19.7992L46.567 18.8702L48.6093 17.608C47.184 15.5444 45.4041 13.7645 43.3476 12.3604L42.0854 14.3885L41.1706 15.3175" stroke="#050505" stroke-width="1.5" stroke-linecap="round" stroke-linejoin="round"/>
<path d="M31.8026 38.0192C36.6981 38.0192 40.6667 34.0502 40.6667 29.1542C40.6667 24.2581 36.6981 20.2891 31.8026 20.2891C26.9071 20.2891 22.9385 24.2581 22.9385 29.1542C22.9385 34.0502 26.9071 38.0192 31.8026 38.0192Z" stroke="#050505" stroke-width="1.5" stroke-linecap="round" stroke-linejoin="round"/>
<path d="M56.7291 80.4342C56.7291 80.4342 56.7291 80.4525 56.7472 80.4342C57.6874 79.195 58.2419 77.1622 58.1816 75.5995C58.0068 70.6915 57.3378 64.4467 57.3378 64.4467V61.0526C57.3378 60.0148 56.5242 59.1785 55.5117 59.1785C54.4992 59.1785 53.6855 60.0209 53.6855 61.0526V59.5692C53.6855 58.3788 52.7514 57.4204 51.5942 57.4204C50.437 57.4204 49.5028 58.3849 49.5028 59.5692V58.916C49.5028 57.7257 48.5626 56.755 47.4055 56.755C46.2483 56.755 45.3141 57.7257 45.3141 58.916V49.8753C45.3141 48.685 44.3799 47.7266 43.2228 47.7266C42.0656 47.7266 41.1314 48.6911 41.1314 49.8753V62.1087C41.1314 62.1087 41.1555 64.4772 39.9984 66.4367C39.6066 65.3074 39.1546 64.1903 38.5881 63.1525C37.9974 62.0842 37.1175 60.8817 36.0748 60.1552C34.3029 58.916 32.4346 61.0526 33.646 63.1525C33.646 63.1525 36.6293 69.0799 36.8523 72.9135C37.0813 76.7471 39.1184 78.5174 40.4986 80.4342" stroke="#050505" stroke-width="1.5" stroke-linecap="round" stroke-linejoin="round"/>
<path d="M45.3086 58.9199V63.2907" stroke="#050505" stroke-width="1.5" stroke-linecap="round" stroke-linejoin="round"/>
<path d="M49.4966 59.5664V63.2901" stroke="#050505" stroke-width="1.5" stroke-linecap="round" stroke-linejoin="round"/>
<path d="M53.6797 61.0508V63.2911" stroke="#050505" stroke-width="1.5" stroke-linecap="round" stroke-linejoin="round"/>
<path d="M74.6488 48.2512L76.5351 43.5993L74.585 42.8051C74.7339 41.7768 74.7198 40.7557 74.5638 39.7558L76.4997 38.9403L74.5496 34.3168L72.6136 35.1323C72.0109 34.3239 71.2805 33.6006 70.4437 32.9907L71.2379 31.0406L66.5861 29.1543L65.7918 31.1044C64.7636 30.9555 63.7425 30.9697 62.7426 31.1257L61.9271 29.1898L57.3036 31.1399L58.1191 33.0758C57.3107 33.6786 56.5873 34.409 55.9775 35.2457L54.0274 34.4515L52.1411 39.1034L54.0912 39.8976C53.9423 40.9259 53.9565 41.947 54.1125 42.9469L52.1766 43.7624L54.1267 48.3859L56.0626 47.5704C56.6654 48.3789 57.3958 49.1022 58.2325 49.712L57.4383 51.6621L62.0902 53.5484L62.8844 51.5983C63.9126 51.7472 64.9338 51.733 65.9337 51.577L66.7492 53.513L71.3727 51.5629L70.5572 49.6269C71.3656 49.0242 72.0889 48.2938 72.6987 47.457L74.6488 48.2512ZM62.0405 47.0244C58.9133 45.7551 57.4028 42.1881 58.6793 39.0538C59.9557 35.9194 63.5155 34.4161 66.6499 35.6925C69.7771 36.9618 71.2876 40.5288 70.0111 43.6631C68.7347 46.7975 65.1749 48.3008 62.0405 47.0244Z" fill="#80ABFF"/>
<path d="M56.1606 22.5581C58.6639 21.466 61.4295 20.8633 64.3369 20.8633C71.0807 20.8633 77.0658 24.1253 80.8029 29.153" stroke="#050505" stroke-width="1.5" stroke-linecap="round" stroke-linejoin="round"/>
<path d="M15.4932 53.7067C13.4297 52.3309 11.5434 50.707 9.89111 48.8633" stroke="#050505" stroke-width="1.5" stroke-linecap="round" stroke-linejoin="round"/>
<path d="M55.2261 11.2539C56.1479 12.4594 56.9776 13.7359 57.708 15.0832" stroke="#050505" stroke-width="1.5" stroke-linecap="round" stroke-linejoin="round"/>
</svg>
