<svg width="74" height="74" viewBox="0 0 74 74" fill="none" xmlns="http://www.w3.org/2000/svg">
<rect x="29.2495" y="0.751953" width="39" height="72" rx="1.77" stroke="white" stroke-width="1.5"/>
<path d="M30 16.499H8.52C7.12824 16.499 6 17.6273 6 19.019V69.479C6 70.8708 7.12824 71.999 8.52 71.999H30" stroke="white" stroke-width="1.5"/>
<line x1="53.2506" y1="17.248" x2="60.7506" y2="17.248" stroke="white" stroke-width="1.5" stroke-linecap="round"/>
<line x1="36.7491" y1="17.248" x2="44.2491" y2="17.248" stroke="white" stroke-width="1.5" stroke-linecap="round"/>
<line x1="14.2509" y1="26.251" x2="21.7509" y2="26.251" stroke="white" stroke-width="1.5" stroke-linecap="round"/>
<line x1="53.2498" y1="30.7529" x2="60.7498" y2="30.7529" stroke="white" stroke-width="1.5" stroke-linecap="round"/>
<line x1="36.7485" y1="30.7529" x2="44.2485" y2="30.7529" stroke="white" stroke-width="1.5" stroke-linecap="round"/>
<line x1="14.2509" y1="39.751" x2="21.7509" y2="39.751" stroke="white" stroke-width="1.5" stroke-linecap="round"/>
<line x1="53.2506" y1="44.252" x2="60.7506" y2="44.252" stroke="white" stroke-width="1.5" stroke-linecap="round"/>
<line x1="36.7491" y1="44.252" x2="44.2491" y2="44.252" stroke="white" stroke-width="1.5" stroke-linecap="round"/>
<line x1="14.2509" y1="53.2559" x2="21.7509" y2="53.2559" stroke="white" stroke-width="1.5" stroke-linecap="round"/>
<path d="M54.0289 55.5039H43.5292C41.8614 55.5039 40.5137 56.8642 40.5293 58.532L40.6499 71.4016H57.1499L57.0288 58.4758C57.0134 56.83 55.6748 55.5039 54.0289 55.5039Z" fill="#80ABFF"/>
</svg>
