<svg width="517" height="181" viewBox="0 0 517 181" fill="none" xmlns="http://www.w3.org/2000/svg">
<rect x="219.5" y="101.5" width="79" height="79" rx="9.5" fill="white"/>
<path d="M259.005 133.971C261.963 133.971 264.362 131.672 264.362 128.837C264.362 126.002 261.963 123.703 259.005 123.703C256.046 123.703 253.647 126.002 253.647 128.837C253.647 131.672 256.046 133.971 259.005 133.971Z" stroke="#050505" stroke-width="1.49998" stroke-linecap="round" stroke-linejoin="round"/>
<path d="M263.242 119.668C262.637 119.396 261.998 119.183 261.335 119.034C261.114 118.984 260.951 118.79 260.951 118.563V118.223C260.951 118.187 260.956 118.151 260.964 118.115L261.168 117.249C261.23 116.986 261.06 116.725 260.794 116.687C260.211 116.604 259.611 116.562 259 116.562C258.39 116.562 257.792 116.606 257.209 116.688C256.942 116.726 256.77 116.988 256.832 117.251L257.036 118.115C257.044 118.151 257.049 118.187 257.049 118.223V118.565C257.049 118.791 256.888 118.984 256.667 119.035C255.559 119.289 254.519 119.713 253.58 120.288C253.388 120.406 253.14 120.383 252.98 120.224L252.731 119.974C252.706 119.95 252.684 119.922 252.665 119.893L252.18 119.126C252.038 118.901 251.737 118.838 251.523 118.996C250.569 119.697 249.72 120.532 248.997 121.469C248.83 121.686 248.895 121.998 249.13 122.14L249.898 122.604C249.93 122.623 249.96 122.647 249.987 122.673L250.229 122.915C250.39 123.076 250.413 123.328 250.291 123.521C249.712 124.44 249.281 125.459 249.028 126.545C248.977 126.766 248.783 126.927 248.557 126.927H248.192C248.156 126.927 248.121 126.923 248.087 126.915L247.189 126.711C246.929 126.651 246.67 126.819 246.631 127.083C246.545 127.655 246.5 128.241 246.5 128.841C246.5 129.44 246.545 130.02 246.63 130.589C246.67 130.853 246.929 131.021 247.19 130.961L248.086 130.754C248.121 130.746 248.157 130.742 248.192 130.742H248.558C248.784 130.742 248.977 130.903 249.028 131.123C249.283 132.215 249.711 133.234 250.29 134.148C250.412 134.341 250.39 134.594 250.228 134.755L249.987 134.996C249.96 135.023 249.93 135.046 249.898 135.065L249.126 135.535C248.893 135.676 248.827 135.986 248.993 136.203C249.714 137.146 250.567 137.98 251.523 138.679C251.737 138.836 252.037 138.773 252.179 138.548L252.665 137.781C252.684 137.751 252.706 137.724 252.731 137.699L252.98 137.45C253.139 137.291 253.388 137.268 253.58 137.386C254.518 137.965 255.559 138.392 256.666 138.643C256.887 138.694 257.049 138.887 257.049 139.114V139.454C257.049 139.491 257.044 139.527 257.036 139.563L256.832 140.429C256.77 140.691 256.94 140.953 257.206 140.991C257.789 141.074 258.389 141.116 259 141.116C259.61 141.116 260.208 141.072 260.791 140.989C261.058 140.952 261.23 140.69 261.168 140.426L260.964 139.563C260.956 139.527 260.951 139.491 260.951 139.454V139.113C260.951 138.887 261.112 138.693 261.333 138.643C262.441 138.389 263.481 137.965 264.42 137.389C264.612 137.272 264.86 137.295 265.02 137.454L265.269 137.703C265.294 137.728 265.316 137.755 265.335 137.785L265.82 138.551C265.962 138.776 266.263 138.84 266.477 138.682C267.431 137.98 268.28 137.145 269.003 136.209C269.17 135.992 269.105 135.68 268.87 135.538L268.102 135.074C268.07 135.054 268.04 135.031 268.013 135.004L267.771 134.762C267.61 134.602 267.587 134.349 267.709 134.157C268.288 133.238 268.719 132.219 268.972 131.132C269.023 130.912 269.217 130.751 269.443 130.751H269.808C269.844 130.751 269.879 130.755 269.913 130.763L270.811 130.967C271.071 131.026 271.33 130.858 271.369 130.595C271.455 130.023 271.5 129.436 271.5 128.837C271.5 128.238 271.455 127.657 271.37 127.089C271.33 126.824 271.071 126.656 270.81 126.716L269.914 126.923C269.879 126.931 269.843 126.935 269.808 126.935H269.442C269.216 126.935 269.023 126.775 268.972 126.555C268.717 125.462 268.289 124.444 267.71 123.53C267.588 123.337 267.61 123.084 267.772 122.923L268.013 122.682C268.04 122.655 268.07 122.632 268.102 122.612L268.874 122.143C269.107 122.001 269.173 121.691 269.007 121.475C268.286 120.532 267.435 119.697 266.477 118.997C266.263 118.841 265.963 118.905 265.821 119.129L265.335 119.897C265.316 119.927 265.294 119.954 265.269 119.979L265.055 120.192" stroke="#050505" stroke-width="1.49998" stroke-linecap="round" stroke-linejoin="round"/>
<path d="M244.648 160.051V161.104H239.795V163.482H238.482V161.104H233.438V160.051H244.648ZM234.668 156.688C234.661 155.156 236.397 154.206 239.029 154.199C241.661 154.206 243.384 155.156 243.377 156.688C243.384 158.212 241.661 159.162 239.029 159.162C236.397 159.162 234.661 158.212 234.668 156.688ZM234.846 165.902V162.307H236.145V164.836H243.404V165.902H234.846ZM236.062 156.688C236.049 157.569 237.238 158.109 239.029 158.109C240.827 158.109 242.003 157.569 242.01 156.688C242.003 155.778 240.827 155.245 239.029 155.238C237.238 155.245 236.049 155.778 236.062 156.688ZM255.764 153.926V162.895H254.465V158.287H252.127V157.234H254.465V153.926H255.764ZM245.564 160.338C247.444 159.702 248.62 158.089 248.613 156.4V155.922H245.961V154.855H252.564V155.922H249.939V156.4C249.933 157.925 251.04 159.463 252.893 160.078L252.223 161.117C250.849 160.639 249.83 159.654 249.297 158.438C248.764 159.791 247.69 160.871 246.234 161.391L245.564 160.338ZM247.807 165.902V162.088H249.105V164.85H256.092V165.902H247.807ZM271.582 153.912V166.162H270.338V153.912H271.582ZM260.891 162.785C262.627 161.739 263.509 159.511 263.516 157.33V156.346H261.26V155.293H266.865V156.346H264.76V157.33C264.76 159.422 265.607 161.521 267.33 162.512L266.551 163.469C265.382 162.771 264.582 161.521 264.151 160.044C263.714 161.644 262.88 163.011 261.684 163.756L260.891 162.785ZM265.963 159.312V158.246H267.863V154.172H269.094V165.547H267.863V159.312H265.963ZM276.49 154.828C278.158 154.835 279.368 156.243 279.566 158.506H282.096V153.912H283.381V166.189H282.096V159.559H279.58C279.437 161.951 278.199 163.435 276.49 163.428C274.665 163.435 273.373 161.767 273.387 159.121C273.373 156.503 274.665 154.835 276.49 154.828ZM274.617 159.121C274.624 161.069 275.383 162.266 276.49 162.266C277.598 162.266 278.356 161.069 278.363 159.121C278.356 157.2 277.598 155.997 276.49 155.99C275.383 155.997 274.624 157.2 274.617 159.121Z" fill="#484C51"/>
<rect x="219.5" y="101.5" width="79" height="79" rx="9.5" stroke="#C9CDD6"/>
<rect x="259.25" y="80.25" width="0.5" height="14.5" stroke="#70747D" stroke-width="0.5"/>
<path d="M259.5 101L264.263 93.5H254.737L259.5 101Z" fill="#70747D"/>
<path d="M27.7192 28.8114V34.6994C27.7192 35.2764 28.2169 35.7424 28.8291 35.7424H51.8562C52.4684 35.7424 52.9661 35.2764 52.9661 34.6994V19.3655C52.9661 18.7884 52.4684 18.3193 51.8562 18.3193H49.4693H31.216H28.8291C28.2169 18.3193 27.7192 18.7884 27.7192 19.3655V29.0023M45.1755 35.7465H54.5861C54.5861 35.7465 54.8443 38.9435 52.2745 38.9435H28.0552C25.4854 38.9435 25.7436 35.7465 25.7436 35.7465H35.1542" stroke="#050505" stroke-width="1.5" stroke-linecap="round" stroke-linejoin="round"/>
<path d="M44.2348 30.9062C44.2575 31.008 44.3107 31.1004 44.3873 31.171C44.464 31.2416 44.5604 31.2872 44.6636 31.3014C44.7669 31.3157 44.8721 31.2981 44.965 31.2509C45.0579 31.2037 45.1342 31.1292 45.1836 31.0374L46.0737 29.7202L48.1633 31.8099C48.2055 31.8521 48.2556 31.8856 48.3108 31.9084C48.3659 31.9313 48.425 31.943 48.4846 31.943C48.5443 31.943 48.6034 31.9313 48.6585 31.9084C48.7137 31.8856 48.7638 31.8521 48.806 31.8099L49.2518 31.364C49.294 31.3218 49.3275 31.2718 49.3503 31.2166C49.3732 31.1615 49.3849 31.1024 49.3849 31.0427C49.3849 30.9831 49.3732 30.924 49.3503 30.8688C49.3275 30.8137 49.294 30.7636 49.2518 30.7214L47.1621 28.6318L48.4878 27.7417C48.5796 27.6923 48.6541 27.616 48.7013 27.523C48.7484 27.43 48.766 27.3249 48.7517 27.2216C48.7374 27.1183 48.6918 27.0219 48.6211 26.9453C48.5504 26.8687 48.458 26.8155 48.3562 26.7929L43.4409 25.38C43.0631 25.2715 42.7135 25.6212 42.8223 25.9989L44.2348 30.9062Z" fill="#80ABFF"/>
<path d="M19.8418 55.5195C19.8354 57.0112 20.8892 58.4014 22.584 58.96L21.9365 59.9121C20.6924 59.4741 19.7593 58.5854 19.2642 57.4619C18.769 58.7378 17.8042 59.7407 16.4775 60.2295L15.8301 59.2646C17.6074 58.6362 18.6357 57.1191 18.6484 55.418V54.3008H19.8418V55.5195ZM17.3662 62.9463C17.3662 61.6133 18.8198 60.8325 21.1875 60.8389C23.5234 60.8325 24.958 61.6133 24.958 62.9463C24.958 64.292 23.5234 65.0601 21.1875 65.0537C18.8198 65.0601 17.3662 64.292 17.3662 62.9463ZM18.5723 62.9463C18.5659 63.6953 19.5435 64.1016 21.1875 64.1143C22.8188 64.1016 23.7837 63.6953 23.7773 62.9463C23.7837 62.2227 22.8188 61.791 21.1875 61.791C19.5435 61.791 18.5659 62.2227 18.5723 62.9463ZM23.6504 60.5723V53.7041H24.8564V56.5605H26.5068V57.5762H24.8564V60.5723H23.6504ZM32.1436 54.9736V55.9385H28.7412V57.9697H31.9531V58.9219H28.7412V61.3213C30.2837 61.3086 31.2993 61.2578 32.499 61.0547L32.6006 62.0449C31.2676 62.2861 30.1631 62.3369 28.3477 62.3369H27.5859V54.9736H32.1436ZM33.2607 64.5205V53.9199H34.416V58.2236H35.7871V53.7041H36.9424V65.0791H35.7871V59.2012H34.416V64.5205H33.2607ZM51.0469 53.7041V60.4707H49.8408V57.5889H47.7207V56.5986H49.8408V53.7041H51.0469ZM41.5635 59.4424C43.3281 58.8267 44.4136 57.2905 44.4072 55.7227V55.4688H41.9443V54.4912H48.0762V55.4688H45.6387V55.71C45.6323 57.1509 46.6606 58.5537 48.3809 59.1377L47.7588 60.0898C46.4829 59.6519 45.5435 58.7378 45.0483 57.6143C44.5532 58.8838 43.5566 59.9058 42.1982 60.4072L41.5635 59.4424ZM43.3916 62.9336C43.3853 61.5815 44.8452 60.7944 47.2383 60.7881C49.6187 60.7944 51.0786 61.5815 51.085 62.9336C51.0786 64.2856 49.6187 65.0728 47.2383 65.0791C44.8452 65.0728 43.3853 64.2856 43.3916 62.9336ZM44.585 62.9336C44.5786 63.7017 45.5688 64.1396 47.2383 64.127C48.895 64.1396 49.8853 63.7017 49.8916 62.9336C49.8853 62.1592 48.895 61.7212 47.2383 61.7275C45.5688 61.7212 44.5786 62.1592 44.585 62.9336ZM63.209 62.667V63.6699H52.7988V62.667H57.3818V60.3311H53.9922V54.4785H55.1982V56.4336H60.7842V54.4785H61.9775V60.3311H58.5752V62.667H63.209ZM55.1982 59.3535H60.7842V57.4111H55.1982V59.3535Z" fill="#484C51"/>
<path d="M137.111 35.8109C136.721 36.4591 136.274 37.0675 135.781 37.6363C133.413 40.3544 129.93 42.0706 126.044 42.0706C118.916 42.0706 113.134 36.2904 113.134 29.1643C113.134 22.0383 118.912 16.2515 126.044 16.2515C133.175 16.2515 138.953 22.0317 138.953 29.1577C138.953 30.9004 138.609 32.5604 137.981 34.0782" stroke="#050505" stroke-width="1.5" stroke-linecap="round" stroke-linejoin="round"/>
<path d="M126.59 30.6904C127.371 30.6904 128.004 30.0575 128.004 29.2768C128.004 28.4962 127.371 27.8633 126.59 27.8633C125.81 27.8633 125.177 28.4962 125.177 29.2768C125.177 30.0575 125.81 30.6904 126.59 30.6904Z" fill="#80ABFF"/>
<path d="M126.594 24.6089V29.0133" stroke="#80ABFF" stroke-width="1.5" stroke-linecap="round" stroke-linejoin="round"/>
<path d="M126.65 29.4106L121.145 33.815" stroke="#80ABFF" stroke-width="1.5" stroke-linecap="round" stroke-linejoin="round"/>
<path d="M97.2266 64H95.7412L99.042 54.8086H100.654L103.968 64H102.482L101.645 61.5752H98.0645L97.2266 64ZM98.4644 60.4072H101.238L99.8799 56.4844H99.8164L98.4644 60.4072ZM106.38 54.8086V64H105.021V54.8086H106.38ZM107.713 62.0576C107.707 60.4834 109.046 60.0771 110.29 59.9883C110.747 59.9629 111.782 59.9058 112.099 59.8931L112.093 59.3408C112.099 58.5601 111.617 58.1094 110.696 58.1094C109.896 58.1094 109.414 58.4775 109.274 58.9854H107.929C108.049 57.8428 109.116 57.0176 110.747 57.0176C111.845 57.0176 113.445 57.4175 113.451 59.417V64H112.131V63.0605H112.08C111.813 63.5747 111.179 64.1523 110.036 64.1523C108.729 64.1523 107.707 63.4033 107.713 62.0576ZM109.033 62.0703C109.033 62.7305 109.579 63.0669 110.341 63.0732C111.445 63.0669 112.105 62.3306 112.105 61.5117L112.099 60.8833C111.788 60.9023 110.804 60.9722 110.48 60.9912C109.592 61.0547 109.033 61.3911 109.033 62.0703ZM115.089 64V57.1064H116.396V58.1982H116.473C116.727 57.4619 117.418 56.9985 118.225 57.0049C118.39 56.9985 118.656 57.0176 118.796 57.0303V58.3252C118.682 58.2998 118.364 58.2427 118.085 58.249C117.146 58.2427 116.447 58.8965 116.447 59.7979V64H115.089ZM119.812 64V57.1064H121.119V58.2363H121.195C121.487 57.4683 122.167 57.0176 123.074 57.0176C123.995 57.0176 124.636 57.4683 124.928 58.2363H125.004C125.328 57.4937 126.077 57.0176 127.073 57.0176C128.317 57.0176 129.2 57.7983 129.206 59.3789V64H127.848V59.5059C127.848 58.5728 127.264 58.1855 126.553 58.1855C125.683 58.1855 125.182 58.7822 125.182 59.6074V64H123.836V59.4297C123.836 58.6743 123.322 58.1855 122.579 58.1855C121.817 58.1855 121.17 58.8203 121.17 59.7471V64H119.812ZM143.095 53.7041V60.4707H141.889V57.5889H139.769V56.5986H141.889V53.7041H143.095ZM133.611 59.4424C135.376 58.8267 136.461 57.2905 136.455 55.7227V55.4688H133.992V54.4912H140.124V55.4688H137.687V55.71C137.68 57.1509 138.708 58.5537 140.429 59.1377L139.807 60.0898C138.531 59.6519 137.591 58.7378 137.096 57.6143C136.601 58.8838 135.604 59.9058 134.246 60.4072L133.611 59.4424ZM135.439 62.9336C135.433 61.5815 136.893 60.7944 139.286 60.7881C141.667 60.7944 143.126 61.5815 143.133 62.9336C143.126 64.2856 141.667 65.0728 139.286 65.0791C136.893 65.0728 135.433 64.2856 135.439 62.9336ZM136.633 62.9336C136.626 63.7017 137.617 64.1396 139.286 64.127C140.943 64.1396 141.933 63.7017 141.939 62.9336C141.933 62.1592 140.943 61.7212 139.286 61.7275C137.617 61.7212 136.626 62.1592 136.633 62.9336ZM155.257 62.667V63.6699H144.847V62.667H149.43V60.3311H146.04V54.4785H147.246V56.4336H152.832V54.4785H154.025V60.3311H150.623V62.667H155.257ZM147.246 59.3535H152.832V57.4111H147.246V59.3535Z" fill="#484C51"/>
<path d="M216.373 18.4991C220.48 22.6067 220.48 29.2664 216.373 33.3739C212.265 37.4815 205.606 37.4815 201.498 33.3739C197.391 29.2664 197.391 22.6067 201.498 18.4991C205.606 14.3915 212.265 14.3915 216.373 18.4991Z" stroke="#050505" stroke-width="1.5"/>
<path d="M222.5 40.5669C222.793 40.8598 223.268 40.8598 223.561 40.5669C223.853 40.274 223.853 39.7991 223.561 39.5062L222.5 40.5669ZM216.064 34.1314L222.5 40.5669L223.561 39.5062L217.125 33.0707L216.064 34.1314Z" fill="black"/>
<path d="M214.374 29.5579L215.38 27.0762L214.34 26.6525C214.419 26.104 214.411 25.5592 214.328 25.0258L215.361 24.5908L214.321 22.1242L213.288 22.5592C212.966 22.128 212.577 21.7421 212.13 21.4168L212.554 20.3764L210.072 19.3701L209.649 20.4105C209.1 20.331 208.555 20.3386 208.022 20.4218L207.587 19.389L205.12 20.4294L205.555 21.4622C205.124 21.7837 204.738 22.1734 204.413 22.6198L203.373 22.1961L202.366 24.6778L203.407 25.1015C203.327 25.65 203.335 26.1948 203.418 26.7282L202.385 27.1632L203.425 29.6298L204.458 29.1948C204.78 29.626 205.169 30.0119 205.616 30.3372L205.192 31.3776L207.674 32.3839L208.098 31.3435C208.646 31.423 209.191 31.4154 209.724 31.3322L210.159 32.365L212.626 31.3246L212.191 30.2918C212.622 29.9703 213.008 29.5806 213.333 29.1342L214.374 29.5579ZM207.647 28.9035C205.979 28.2263 205.173 26.3234 205.854 24.6513C206.535 22.9792 208.434 22.1772 210.106 22.8581C211.775 23.5353 212.58 25.4382 211.899 27.1103C211.219 28.7824 209.319 29.5844 207.647 28.9035Z" fill="#80ABFF"/>
<path d="M191.397 55.8877C191.397 57.1318 192.191 58.3887 193.67 58.9473L193.035 59.874C191.975 59.4678 191.232 58.6934 190.826 57.7603C190.407 58.814 189.633 59.728 188.528 60.2041L187.868 59.2646C189.404 58.5981 190.229 57.1509 190.229 55.8877V54.415H191.397V55.8877ZM189.963 62.9971C189.95 61.7021 191.429 60.9341 193.81 60.9277C196.184 60.9341 197.675 61.7021 197.682 62.9971C197.675 64.292 196.184 65.0601 193.81 65.0537C191.429 65.0601 189.95 64.292 189.963 62.9971ZM191.156 62.9971C191.144 63.7207 192.153 64.1396 193.81 64.127C195.46 64.1396 196.469 63.7207 196.476 62.9971C196.469 62.2671 195.46 61.8481 193.81 61.8545C192.153 61.8481 191.144 62.2671 191.156 62.9971ZM194.025 60.3564V53.9199H195.143V56.6748H196.476V53.7168H197.618V60.7119H196.476V57.665H195.143V60.3564H194.025ZM203.103 55.7861C203.103 57.3096 204.163 58.7441 205.896 59.3281L205.273 60.2803C203.998 59.8359 203.045 58.9282 202.544 57.7793C202.049 59.0615 201.071 60.0518 199.738 60.5469L199.065 59.5947C200.868 58.979 201.903 57.4429 201.909 55.748V54.4023H203.103V55.7861ZM200.894 64.8379V61.2705H202.125V63.8604H208.587V64.8379H200.894ZM206.886 62.083V53.6914H208.092V57.1191H209.742V58.1475H208.092V62.083H206.886ZM223.047 53.7041V60.4707H221.841V57.5889H219.721V56.5986H221.841V53.7041H223.047ZM213.563 59.4424C215.328 58.8267 216.414 57.2905 216.407 55.7227V55.4688H213.944V54.4912H220.076V55.4688H217.639V55.71C217.632 57.1509 218.661 58.5537 220.381 59.1377L219.759 60.0898C218.483 59.6519 217.543 58.7378 217.048 57.6143C216.553 58.8838 215.557 59.9058 214.198 60.4072L213.563 59.4424ZM215.392 62.9336C215.385 61.5815 216.845 60.7944 219.238 60.7881C221.619 60.7944 223.079 61.5815 223.085 62.9336C223.079 64.2856 221.619 65.0728 219.238 65.0791C216.845 65.0728 215.385 64.2856 215.392 62.9336ZM216.585 62.9336C216.579 63.7017 217.569 64.1396 219.238 64.127C220.895 64.1396 221.885 63.7017 221.892 62.9336C221.885 62.1592 220.895 61.7212 219.238 61.7275C217.569 61.7212 216.579 62.1592 216.585 62.9336ZM235.209 62.667V63.6699H224.799V62.667H229.382V60.3311H225.992V54.4785H227.198V56.4336H232.784V54.4785H233.978V60.3311H230.575V62.667H235.209ZM227.198 59.3535H232.784V57.4111H227.198V59.3535Z" fill="#484C51"/>
<path d="M309.174 36.8782H286.965C285.985 36.8782 285.178 36.0921 285.14 35.0983L285.001 20.0153C284.963 18.9671 285.789 18.0947 286.826 18.0947H309.174C310.208 18.0947 311.037 18.9671 310.999 20.0153V35.0983C310.961 36.0921 310.157 36.8782 309.174 36.8782Z" stroke="#050505" stroke-width="1.5" stroke-linecap="round" stroke-linejoin="round"/>
<path d="M300.962 37.1113H300.959C301.425 39.6422 304.211 40.5242 304.211 40.5242H291.783C291.783 40.5242 294.573 39.6422 295.036 37.1113" stroke="#050505" stroke-width="1.5" stroke-linecap="round" stroke-linejoin="round"/>
<path d="M294.22 26.3267H292.044C291.744 26.3267 291.5 26.5702 291.5 26.8706V30.9736C291.5 31.274 291.744 31.5176 292.044 31.5176H294.22C294.521 31.5176 294.764 31.274 294.764 30.9736V26.8706C294.764 26.5702 294.521 26.3267 294.22 26.3267Z" fill="#80ABFF"/>
<path d="M299.088 23.4082H296.912C296.612 23.4082 296.368 23.6518 296.368 23.9522V30.975C296.368 31.2755 296.612 31.519 296.912 31.519H299.088C299.389 31.519 299.632 31.2755 299.632 30.975V23.9522C299.632 23.6518 299.389 23.4082 299.088 23.4082Z" fill="#80ABFF"/>
<path d="M303.956 28.9253H301.779C301.479 28.9253 301.235 29.1688 301.235 29.4693V30.9768C301.235 31.2772 301.479 31.5207 301.779 31.5207H303.956C304.256 31.5207 304.5 31.2772 304.5 30.9768V29.4693C304.5 29.1688 304.256 28.9253 303.956 28.9253Z" fill="#80ABFF"/>
<path d="M279.048 60.8516C281.511 60.8516 283.066 61.6323 283.072 62.959C283.066 64.2793 281.511 65.0601 279.048 65.0537C276.61 65.0601 275.049 64.2793 275.049 62.959C275.049 61.6323 276.61 60.8516 279.048 60.8516ZM273.932 59.9121V58.9346H278.083V56.8018H279.264V58.9346H284.278V59.9121H273.932ZM275.138 55.2275V54.2627H282.983V55.2148C282.99 56.1226 282.99 57.062 282.666 58.2363L281.485 58.1094C281.79 56.9478 281.79 56.1099 281.79 55.2275H275.138ZM276.255 62.959C276.242 63.6953 277.328 64.1206 279.048 64.127C280.787 64.1206 281.866 63.6953 281.879 62.959C281.866 62.21 280.787 61.772 279.048 61.7656C277.328 61.772 276.242 62.21 276.255 62.959ZM294.638 53.7041V60.4707H293.432V57.5889H291.312V56.5986H293.432V53.7041H294.638ZM285.154 59.4424C286.919 58.8267 288.004 57.2905 287.998 55.7227V55.4688H285.535V54.4912H291.667V55.4688H289.229V55.71C289.223 57.1509 290.251 58.5537 291.972 59.1377L291.35 60.0898C290.074 59.6519 289.134 58.7378 288.639 57.6143C288.144 58.8838 287.147 59.9058 285.789 60.4072L285.154 59.4424ZM286.982 62.9336C286.976 61.5815 288.436 60.7944 290.829 60.7881C293.209 60.7944 294.669 61.5815 294.676 62.9336C294.669 64.2856 293.209 65.0728 290.829 65.0791C288.436 65.0728 286.976 64.2856 286.982 62.9336ZM288.176 62.9336C288.169 63.7017 289.16 64.1396 290.829 64.127C292.486 64.1396 293.476 63.7017 293.482 62.9336C293.476 62.1592 292.486 61.7212 290.829 61.7275C289.16 61.7212 288.169 62.1592 288.176 62.9336ZM309.047 53.7041V60.4707H307.841V57.5889H305.721V56.5986H307.841V53.7041H309.047ZM299.563 59.4424C301.328 58.8267 302.414 57.2905 302.407 55.7227V55.4688H299.944V54.4912H306.076V55.4688H303.639V55.71C303.632 57.1509 304.661 58.5537 306.381 59.1377L305.759 60.0898C304.483 59.6519 303.543 58.7378 303.048 57.6143C302.553 58.8838 301.557 59.9058 300.198 60.4072L299.563 59.4424ZM301.392 62.9336C301.385 61.5815 302.845 60.7944 305.238 60.7881C307.619 60.7944 309.079 61.5815 309.085 62.9336C309.079 64.2856 307.619 65.0728 305.238 65.0791C302.845 65.0728 301.385 64.2856 301.392 62.9336ZM302.585 62.9336C302.579 63.7017 303.569 64.1396 305.238 64.127C306.895 64.1396 307.885 63.7017 307.892 62.9336C307.885 62.1592 306.895 61.7212 305.238 61.7275C303.569 61.7212 302.579 62.1592 302.585 62.9336ZM321.209 62.667V63.6699H310.799V62.667H315.382V60.3311H311.992V54.4785H313.198V56.4336H318.784V54.4785H319.978V60.3311H316.575V62.667H321.209ZM313.198 59.3535H318.784V57.4111H313.198V59.3535Z" fill="#484C51"/>
<path d="M393 25.2798C393 20.3083 388.971 16.2798 384 16.2798C379.029 16.2798 375 20.3083 375 25.2798C375 28.9161 377.157 32.0437 380.261 33.4675V37.664H387.739V33.4675C390.843 32.0484 393 28.9161 393 25.2798Z" stroke="#050505" stroke-width="1.5" stroke-linecap="round" stroke-linejoin="round"/>
<path d="M380 40H387.478" stroke="#050505" stroke-width="1.5" stroke-linecap="round" stroke-linejoin="round"/>
<path d="M381 42H386.228" stroke="#050505" stroke-width="1.5" stroke-linecap="round" stroke-linejoin="round"/>
<path d="M384 28V37" stroke="black" stroke-width="1.5"/>
<ellipse cx="384.001" cy="25.8008" rx="2.80083" ry="2.80082" fill="#80ABFF"/>
<path d="M367.939 64V54.8086H373.703V56.0146H369.336V58.7949H373.398V59.9883H369.336V62.7939H373.754V64H367.939ZM381.219 57.1064L378.718 64H377.258L374.757 57.1064H376.217L377.956 62.4004H378.02L379.759 57.1064H381.219ZM385.053 64.1396C383.021 64.1396 381.771 62.7368 381.777 60.5977C381.771 58.4775 383.041 57.0176 384.964 57.0176C386.532 57.0176 388.023 57.9888 388.023 60.4834V60.9658H383.123C383.161 62.2798 383.936 63.0225 385.065 63.0225C385.833 63.0225 386.335 62.6924 386.563 62.2734H387.935C387.63 63.3906 386.57 64.1396 385.053 64.1396ZM383.129 59.9502H386.69C386.69 58.9028 386.011 58.1284 384.977 58.1348C383.891 58.1284 383.187 58.979 383.129 59.9502ZM390.728 59.9121V64H389.369V57.1064H390.677V58.2363H390.753C391.077 57.4937 391.756 57.0176 392.784 57.0176C394.2 57.0176 395.139 57.9126 395.133 59.6201V64H393.787V59.7852C393.781 58.7822 393.241 58.1855 392.327 58.1855C391.394 58.1855 390.728 58.814 390.728 59.9121ZM400.008 57.1064V58.1855H398.599V61.9688C398.605 62.7495 398.986 62.8892 399.424 62.8955C399.621 62.8955 399.919 62.8765 400.109 62.8574V64.0381C399.925 64.0635 399.633 64.0889 399.259 64.0889C398.199 64.0889 397.24 63.5049 397.253 62.248V58.1855H396.237V57.1064H397.253V55.4561H398.599V57.1064H400.008Z" fill="#484C51"/>
<path d="M476.644 20.5966V28.2721V30.2359V37.7896V39.9099H459.612V29.7233V18.7724C459.612 17.42 460.721 16.3213 462.092 16.3213H479.124" stroke="#050505" stroke-width="1.5" stroke-linecap="round" stroke-linejoin="round"/>
<path d="M476.652 22.4869V18.7729C476.652 17.4205 477.764 16.3218 479.132 16.3218C480.501 16.3218 481.612 17.4205 481.612 18.7729V22.4869H476.634" stroke="#050505" stroke-width="1.5" stroke-linecap="round" stroke-linejoin="round"/>
<path d="M463.01 22H473" stroke="#80ABFF" stroke-width="1.5" stroke-linecap="round" stroke-linejoin="round"/>
<path d="M463.01 25H470" stroke="#80ABFF" stroke-width="1.5" stroke-linecap="round" stroke-linejoin="round"/>
<path d="M437.939 64V54.8086H441.215C443.354 54.8086 444.401 55.9956 444.401 57.6904C444.401 58.9282 443.843 59.8613 442.726 60.2866L444.757 64H443.17L441.304 60.5342H441.215H439.336V64H437.939ZM439.336 59.3281H441.075C442.427 59.3218 442.992 58.7251 442.992 57.6904C442.992 56.6558 442.427 56.0083 441.075 56.002H439.336V59.3281ZM448.718 64.1396C446.687 64.1396 445.436 62.7368 445.442 60.5977C445.436 58.4775 446.706 57.0176 448.629 57.0176C450.197 57.0176 451.688 57.9888 451.688 60.4834V60.9658H446.788C446.826 62.2798 447.601 63.0225 448.73 63.0225C449.499 63.0225 450 62.6924 450.229 62.2734H451.6C451.295 63.3906 450.235 64.1396 448.718 64.1396ZM446.794 59.9502H450.355C450.355 58.9028 449.676 58.1284 448.642 58.1348C447.556 58.1284 446.852 58.979 446.794 59.9502ZM455.954 64.1396C453.942 64.1396 452.723 62.6606 452.729 60.585C452.723 58.4839 453.986 57.0176 455.929 57.0176C457.503 57.0176 458.639 57.9443 458.785 59.3408H457.465C457.325 58.6934 456.811 58.1538 455.954 58.1475C454.837 58.1538 454.088 59.0806 454.088 60.5469C454.088 62.0576 454.818 62.9907 455.954 62.9844C456.722 62.9907 457.293 62.5591 457.465 61.8164H458.785C458.639 63.1558 457.579 64.1396 455.954 64.1396ZM460.067 64V57.1064H461.426V64H460.067ZM459.89 55.2402C459.896 54.7959 460.283 54.4404 460.753 54.4404C461.216 54.4404 461.604 54.7959 461.604 55.2402C461.604 55.6846 461.216 56.0464 460.753 56.04C460.283 56.0464 459.896 55.6846 459.89 55.2402ZM463.076 66.5898V57.1064H464.396V58.2236H464.511C464.752 57.792 465.215 57.0176 466.491 57.0176C468.161 57.0176 469.386 58.3252 469.386 60.5723C469.386 62.7939 468.173 64.1333 466.504 64.1396C465.253 64.1333 464.758 63.3716 464.511 62.9209H464.435V66.5898H463.076ZM464.409 60.5469C464.409 61.9941 465.044 62.978 466.199 62.9844C467.393 62.978 468.015 61.9307 468.015 60.5469C468.015 59.1885 467.412 58.1665 466.199 58.1729C465.031 58.1665 464.409 59.1123 464.409 60.5469ZM473.702 64.1396C471.671 64.1396 470.42 62.7368 470.427 60.5977C470.42 58.4775 471.69 57.0176 473.613 57.0176C475.181 57.0176 476.673 57.9888 476.673 60.4834V60.9658H471.772C471.811 62.2798 472.585 63.0225 473.715 63.0225C474.483 63.0225 474.984 62.6924 475.213 62.2734H476.584C476.279 63.3906 475.219 64.1396 473.702 64.1396ZM471.779 59.9502H475.34C475.34 58.9028 474.661 58.1284 473.626 58.1348C472.541 58.1284 471.836 58.979 471.779 59.9502ZM490.27 53.7041V60.4707H489.063V57.5889H486.943V56.5986H489.063V53.7041H490.27ZM480.786 59.4424C482.551 58.8267 483.636 57.2905 483.63 55.7227V55.4688H481.167V54.4912H487.299V55.4688H484.861V55.71C484.855 57.1509 485.883 58.5537 487.604 59.1377L486.981 60.0898C485.706 59.6519 484.766 58.7378 484.271 57.6143C483.776 58.8838 482.779 59.9058 481.421 60.4072L480.786 59.4424ZM482.614 62.9336C482.608 61.5815 484.068 60.7944 486.461 60.7881C488.841 60.7944 490.301 61.5815 490.308 62.9336C490.301 64.2856 488.841 65.0728 486.461 65.0791C484.068 65.0728 482.608 64.2856 482.614 62.9336ZM483.808 62.9336C483.801 63.7017 484.792 64.1396 486.461 64.127C488.118 64.1396 489.108 63.7017 489.114 62.9336C489.108 62.1592 488.118 61.7212 486.461 61.7275C484.792 61.7212 483.801 62.1592 483.808 62.9336ZM502.432 62.667V63.6699H492.021V62.667H496.604V60.3311H493.215V54.4785H494.421V56.4336H500.007V54.4785H501.2V60.3311H497.798V62.667H502.432ZM494.421 59.3535H500.007V57.4111H494.421V59.3535Z" fill="#484C51"/>
<rect x="0.5" y="0.5" width="509" height="79" rx="9.5" stroke="#C9CDD6"/>
</svg>
