<svg width="90" height="90" viewBox="0 0 90 90" fill="none" xmlns="http://www.w3.org/2000/svg">
<path d="M15.592 20.2304C15.9186 16.4478 18.7986 13 22.7586 13C26.7186 13 29.592 16.3943 29.932 20.2304C30.352 25.0708 25.9253 28.8868 26.832 33.7874C27.3186 36.4118 28.6053 38.7617 29.8586 41.0915H15.6586C16.472 39.5784 17.3053 38.052 17.9186 36.452C18.252 35.5883 18.5186 34.7046 18.692 33.7874C19.6053 28.8935 15.172 25.0708 15.592 20.2304Z" stroke="white" stroke-width="1.5" stroke-linecap="round" stroke-linejoin="round"/>
<path d="M31.5586 65.0191C30.512 67.7773 29.0453 70.3816 27.1853 72.6913H18.3253C16.472 70.3749 14.9986 67.7773 13.952 65.0191C12.332 60.7946 11.692 56.1953 12.1386 51.6696C12.3186 49.8352 12.672 48.1347 13.212 46.4878C13.6586 45.1221 14.232 43.7898 14.932 42.4442C15.172 41.9889 15.412 41.547 15.6586 41.0918H29.8586C30.112 41.547 30.352 41.9889 30.592 42.4442C31.1098 43.437 31.5566 44.4239 31.9341 45.4231M31.5586 65.0191C31.6463 64.7905 31.7311 64.5608 31.813 64.3301L31.5586 65.0191Z" stroke="white" stroke-width="1.5" stroke-linecap="round" stroke-linejoin="round"/>
<path d="M17.912 36.4443H27.5987" stroke="white" stroke-width="1.5" stroke-linecap="round" stroke-linejoin="round"/>
<path d="M33.9306 20.5605C34.2573 16.7779 37.1373 13.3301 41.0973 13.3301C45.0573 13.3301 47.9306 16.7244 48.2706 20.5605C48.6906 25.4008 44.2639 29.2169 45.1706 34.1175C45.6573 36.7419 46.9439 39.0917 48.1973 41.4215H33.9973C34.8106 39.9085 35.6439 38.3821 36.2573 36.782C36.5906 35.9184 36.8573 35.0347 37.0306 34.1175C37.9439 29.2236 33.5106 25.4008 33.9306 20.5605Z" stroke="white" stroke-width="1.5" stroke-linecap="round" stroke-linejoin="round"/>
<path d="M49.8973 44.8167C49.6081 44.1347 49.2861 43.4559 48.9306 42.7742C48.6906 42.319 48.4506 41.8771 48.1973 41.4219H33.9973C33.7506 41.8771 33.5106 42.319 33.2706 42.7742C32.5706 44.1199 31.9973 45.4522 31.5506 46.8179C31.0106 48.4648 30.6573 50.1653 30.4773 51.9997C30.0306 56.5254 30.6706 61.1247 32.2906 65.3492C33.3373 68.1074 34.8106 70.705 36.664 73.0214H45.524C46.1779 72.2094 46.7831 71.361 47.3387 70.4823" stroke="white" stroke-width="1.5" stroke-linecap="round" stroke-linejoin="round"/>
<path d="M36.2506 36.7744H45.9373" stroke="white" stroke-width="1.5" stroke-linecap="round" stroke-linejoin="round"/>
<path d="M70.8253 44.0436C75.5587 47.2438 78.672 52.68 78.672 58.8392C78.672 68.6806 70.7253 76.6608 60.9253 76.6608C51.1253 76.6608 43.1786 68.6806 43.1786 58.8392C43.1786 48.9978 51.1253 41.0176 60.9253 41.0176C63.3786 41.0176 65.712 41.513 67.832 42.4168L70.8253 44.0436Z" stroke="#80ABFF" stroke-width="1.5" stroke-linecap="round" stroke-linejoin="round"/>
<path d="M57.2387 54.3871C58.126 54.3871 58.8453 53.6647 58.8453 52.7736C58.8453 51.8825 58.126 51.1602 57.2387 51.1602C56.3513 51.1602 55.632 51.8825 55.632 52.7736C55.632 53.6647 56.3513 54.3871 57.2387 54.3871Z" fill="#80ABFF"/>
<path d="M63.0653 54.3871C63.9527 54.3871 64.672 53.6647 64.672 52.7736C64.672 51.8825 63.9527 51.1602 63.0653 51.1602C62.178 51.1602 61.4586 51.8825 61.4586 52.7736C61.4586 53.6647 62.178 54.3871 63.0653 54.3871Z" fill="#80ABFF"/>
<path d="M61.7587 57.5002C61.7587 58.3906 61.0387 59.1136 60.152 59.1136C59.2653 59.1136 58.5453 58.3906 58.5453 57.5002C58.5453 56.6098 59.2653 55.8867 60.152 55.8867C61.0387 55.8867 61.7587 56.6098 61.7587 57.5002Z" fill="#80ABFF"/>
</svg>
