<svg width="74" height="74" viewBox="0 0 74 74" fill="none" xmlns="http://www.w3.org/2000/svg">
<g id="icon">
<path id="Vector" d="M53.7316 47.7953L52.0364 56.0851H46.9183V44.9556L55.0138 36.8187L44.5711 26.3336H20.8602L10.4175 36.8187L18.513 44.9556V56.0851H13.3949L11.6997 47.7953L0.778809 36.8187L18.0349 19.4746H47.3964L52.6341 24.739L55.7854 27.9064L64.6525 36.8187L59.192 42.307L57.87 43.7364" stroke="#050505" stroke-width="1.5" stroke-linecap="round" stroke-linejoin="round"/>
<path id="Vector_2" d="M26.4844 12.4629V19.4734H37.3896V12.4629" stroke="#050505" stroke-width="1.5" stroke-linecap="round" stroke-linejoin="round"/>
<g id="Group">
<path id="Vector_3" d="M44.7443 48.5466C46.0701 50.6982 46.8307 53.2192 46.8307 55.9249C46.8307 63.7161 40.5172 70.0295 32.7259 70.0295C24.9346 70.0295 18.6211 63.7161 18.6211 55.9249C18.6211 48.1337 24.9346 41.8203 32.7259 41.8203C36.627 41.8203 40.1478 43.3959 42.7014 45.9495" stroke="#050505" stroke-width="1.5" stroke-linecap="round" stroke-linejoin="round"/>
<g id="Group_2">
<path id="Vector_4" d="M28.7363 60.2188C30.2685 63.1306 37.2992 62.8047 36.6037 58.752C36.419 57.6981 35.6909 57.0136 34.7999 56.5681C33.1156 55.7315 31.8876 56.2095 30.2142 55.1556C29.5187 54.7102 28.9863 54.0908 28.8341 53.2108C28.1387 49.1581 35.1693 48.8321 36.7015 51.744" stroke="#050505" stroke-width="1.5" stroke-linecap="round" stroke-linejoin="round"/>
<g id="Group_3">
<path id="Vector_5" d="M32.7222 49.8412V47.418" stroke="#050505" stroke-width="1.5" stroke-linecap="round" stroke-linejoin="round"/>
<path id="Vector_6" d="M32.7222 64.6049V62.1816" stroke="#050505" stroke-width="1.5" stroke-linecap="round" stroke-linejoin="round"/>
</g>
</g>
<path id="Vector_7" d="M32.6099 14.7526C36.4692 14.7526 39.5978 11.6246 39.5978 7.76595C39.5978 3.90733 36.4692 0.779297 32.6099 0.779297C28.7506 0.779297 25.6221 3.90733 25.6221 7.76595C25.6221 11.6246 28.7506 14.7526 32.6099 14.7526Z" stroke="#050505" stroke-width="1.5" stroke-linecap="round" stroke-linejoin="round"/>
<path id="Vector_8" d="M32.6121 10.6224C34.1831 10.6224 35.4566 9.34891 35.4566 7.77799C35.4566 6.20707 34.1831 4.93359 32.6121 4.93359C31.0411 4.93359 29.7676 6.20707 29.7676 7.77799C29.7676 9.34891 31.0411 10.6224 32.6121 10.6224Z" stroke="#050505" stroke-width="1.5" stroke-linecap="round" stroke-linejoin="round"/>
</g>
<path id="Union" d="M67.1015 42.0641C67.1015 41.6339 66.7528 41.2852 66.3226 41.2852H56.9752C56.545 41.2852 56.1963 41.6339 56.1963 42.0641V59.5904C56.1963 60.0206 55.8475 60.3694 55.4173 60.3694L50.633 60.3694C49.9506 60.3694 49.598 61.1847 50.0655 61.6819L61.0811 73.3974C61.3887 73.7245 61.9085 73.7245 62.2161 73.3974L73.2317 61.6819C73.6992 61.1847 73.3466 60.3694 72.6642 60.3694L67.8805 60.3694C67.4503 60.3694 67.1015 60.0206 67.1015 59.5904V42.0641Z" fill="#80ABFF"/>
</g>
</svg>
