<svg width="70" height="77" viewBox="0 0 70 77" fill="none" xmlns="http://www.w3.org/2000/svg">
<g id="Frame 427322852" clip-path="url(#clip0_1586_6094)">
<g id="Group">
<g id="Group_2">
<path id="Vector" d="M10.83 55.663C14.6398 55.663 17.7283 52.4304 17.7283 48.4428C17.7283 44.4552 14.6398 41.2227 10.83 41.2227C7.02013 41.2227 3.93164 44.4552 3.93164 48.4428C3.93164 52.4304 7.02013 55.663 10.83 55.663Z" stroke="#050505" stroke-width="1.5" stroke-linecap="round" stroke-linejoin="round"/>
<path id="Vector_2" d="M4.01567 58.375H17.6465C19.3126 58.375 20.6621 59.7875 20.6621 61.5314V75.806H1V61.5314C1 59.7875 2.34951 58.375 4.01567 58.375Z" stroke="#050505" stroke-width="1.5" stroke-linecap="round" stroke-linejoin="round"/>
<path id="Vector_3" d="M6.19434 58.375L10.8309 66.2107L15.4675 58.375H6.19434Z" stroke="#050505" stroke-width="1.5" stroke-linecap="round" stroke-linejoin="round"/>
<path id="Vector_4" d="M10.833 66.2148V75.8102" stroke="#050505" stroke-width="1.5" stroke-linecap="round" stroke-linejoin="round"/>
</g>
<g id="Group_3">
<path id="Vector_5" d="M34.8449 55.663C38.6547 55.663 41.7432 52.4304 41.7432 48.4428C41.7432 44.4552 38.6547 41.2227 34.8449 41.2227C31.035 41.2227 27.9465 44.4552 27.9465 48.4428C27.9465 52.4304 31.035 55.663 34.8449 55.663Z" stroke="#050505" stroke-width="1.5" stroke-linecap="round" stroke-linejoin="round"/>
<path id="Vector_6" d="M28.0306 58.375H41.6614C43.3275 58.375 44.677 59.7875 44.677 61.5314V75.806H25.0149V61.5314C25.0149 59.7875 26.3644 58.375 28.0306 58.375Z" stroke="#050505" stroke-width="1.5" stroke-linecap="round" stroke-linejoin="round"/>
<path id="Vector_7" d="M30.2092 58.375L34.8458 66.2107L39.4824 58.375H30.2092Z" stroke="#050505" stroke-width="1.5" stroke-linecap="round" stroke-linejoin="round"/>
<path id="Vector_8" d="M34.8479 66.2148V75.8102" stroke="#050505" stroke-width="1.5" stroke-linecap="round" stroke-linejoin="round"/>
</g>
<g id="Group_4">
<path id="Vector_9" d="M58.8588 55.663C62.6686 55.663 65.7571 52.4304 65.7571 48.4428C65.7571 44.4552 62.6686 41.2227 58.8588 41.2227C55.0489 41.2227 51.9604 44.4552 51.9604 48.4428C51.9604 52.4304 55.0489 55.663 58.8588 55.663Z" stroke="#050505" stroke-width="1.5" stroke-linecap="round" stroke-linejoin="round"/>
<path id="Vector_10" d="M52.0433 58.375H65.6741C67.3402 58.375 68.6897 59.7875 68.6897 61.5314V75.806H49.0276V61.5314C49.0276 59.7875 50.3771 58.375 52.0433 58.375Z" stroke="#050505" stroke-width="1.5" stroke-linecap="round" stroke-linejoin="round"/>
<path id="Vector_11" d="M54.2219 58.375L58.8585 66.2107L63.4951 58.375H54.2219Z" stroke="#050505" stroke-width="1.5" stroke-linecap="round" stroke-linejoin="round"/>
<path id="Vector_12" d="M58.8606 66.2148V75.8102" stroke="#050505" stroke-width="1.5" stroke-linecap="round" stroke-linejoin="round"/>
</g>
</g>
<g id="Group_5">
<path id="Vector_13" d="M7.58203 36.5981V22.8777L19.5952 18.9277V9.76562" stroke="#80ABFF" stroke-width="1.5" stroke-linecap="round" stroke-linejoin="round"/>
<path id="Vector_14" d="M16.7052 9.76139C16.0579 9.76139 15.6266 9.09293 15.8934 8.50311L18.9284 1.79319C19.2442 1.09502 20.2355 1.09467 20.5518 1.79261L23.5926 8.50253C23.86 9.0924 23.4287 9.76139 22.781 9.76139H16.7052Z" fill="#80ABFF"/>
<path id="Vector_15" d="M61.3579 36.5981V22.8777L49.3447 18.9277V9.76562" stroke="#80ABFF" stroke-width="1.5" stroke-linecap="round" stroke-linejoin="round"/>
<path id="Vector_16" d="M52.2351 9.76139C52.8825 9.76139 53.3138 9.09293 53.047 8.50311L50.012 1.79319C49.6962 1.09502 48.7048 1.09467 48.3885 1.79261L45.3477 8.50253C45.0804 9.0924 45.5117 9.76139 46.1593 9.76139H52.2351Z" fill="#80ABFF"/>
<path id="Vector_17" d="M37.799 9.76139C38.4463 9.76139 38.8776 9.09293 38.6108 8.50311L35.5758 1.79319C35.26 1.09502 34.2687 1.09467 33.9524 1.79261L30.9116 8.50253C30.6442 9.0924 31.0755 9.76139 31.7232 9.76139H37.799Z" fill="#80ABFF"/>
</g>
<path id="Vector_18" d="M34.4668 35.47V11.3867" stroke="#80ABFF" stroke-width="1.5" stroke-linecap="round" stroke-linejoin="round"/>
</g>
<defs>
<clipPath id="clip0_1586_6094">
<rect width="70" height="77" fill="white"/>
</clipPath>
</defs>
</svg>
