<svg width="74" height="74" viewBox="0 0 74 74" fill="none" xmlns="http://www.w3.org/2000/svg">
<g id="icon">
<path id="Vector" d="M41.5537 57.8486H24.6023L22.457 51.0532L18.5732 63.3851L13.4275 47.0547L10.9317 54.9874H7.69287" stroke="#050505" stroke-width="1.5" stroke-linecap="round" stroke-linejoin="round"/>
<g id="Group">
<g id="Group_2">
<path id="Vector_2" d="M16.7696 27.041H11.3504V36.2899H16.7696V27.041Z" fill="#80ABFF"/>
<path id="Vector_3" d="M27.3345 29.3945H21.9154V36.2901H27.3345V29.3945Z" fill="#80ABFF"/>
<path id="Vector_4" d="M37.8991 16.8398H32.4799V36.289H37.8991V16.8398Z" fill="#80ABFF"/>
</g>
<g id="Group_3">
<path id="Vector_5" d="M62.7237 33.4335C60.985 35.2003 58.5874 36.2947 55.9445 36.2947C50.6515 36.2947 46.3611 31.917 46.3611 26.5165C46.3611 21.1159 50.6515 16.7383 55.9445 16.7383V26.5165L62.7237 33.4335Z" fill="#80ABFF"/>
</g>
<path id="Vector_6" d="M7.69135 39.6055H41.5522" stroke="#80ABFF" stroke-width="1.5" stroke-linecap="round" stroke-linejoin="round"/>
</g>
<g id="Group_4">
<path id="Vector_7" d="M68.859 7.00977H4.3621C2.81338 7.00977 1.55789 8.29077 1.55789 9.87098V64.9064C1.55789 66.4867 2.81338 67.7677 4.3621 67.7677H68.859C70.4077 67.7677 71.6632 66.4867 71.6632 64.9064V9.87098C71.6632 8.29077 70.4077 7.00977 68.859 7.00977Z" stroke="#050505" stroke-width="1.5" stroke-linecap="round" stroke-linejoin="round"/>
<path id="Vector_8" d="M9.47281 10.3301H28.1699" stroke="#050505" stroke-width="1.5" stroke-linecap="round" stroke-linejoin="round"/>
</g>
</g>
</svg>
