<svg width="90" height="90" viewBox="0 0 90 90" fill="none" xmlns="http://www.w3.org/2000/svg">
<path d="M19.5571 17.6134V14.8945H69.6406V75.8135C69.6406 75.8135 68.1672 75.8135 66.9627 75.8135" stroke="#050505" stroke-width="1.5" stroke-linecap="square" stroke-linejoin="round"/>
<path d="M22.8086 14.3458V11.627H72.892V72.5459C72.892 72.5459 71.4187 72.5459 70.2142 72.5459" stroke="#050505" stroke-width="1.5" stroke-linecap="square" stroke-linejoin="round"/>
<path d="M66.6518 17.9648H16.5684V78.8838H66.6518V17.9648Z" stroke="#050505" stroke-width="1.5" stroke-linecap="round" stroke-linejoin="round"/>
<path d="M30.7812 38.4484L36.7544 32.4906L42.0016 37.7195L51.0555 28.6973" stroke="#80ABFF" stroke-width="1.5" stroke-linecap="round" stroke-linejoin="round"/>
<path d="M45.6196 29.8126L51.0553 28.6973L49.9416 34.1194" stroke="#80ABFF" stroke-width="1.5" stroke-linecap="round" stroke-linejoin="round"/>
<path d="M55.2613 34.3473C58.7577 37.9363 60.9075 42.8285 60.9075 48.223C60.9075 59.2275 51.9589 68.1449 40.9158 68.1449C29.8728 68.1449 20.9297 59.222 20.9297 48.223C20.9297 42.8285 23.0851 37.9308 26.5814 34.3418" stroke="#80ABFF" stroke-width="1.5" stroke-linecap="round" stroke-linejoin="round"/>
<path d="M34.874 48.3223H30.7793V56.1684H34.874V48.3223Z" fill="#80ABFF"/>
<path d="M40.2652 45.2314H36.1704V56.1697H40.2652V45.2314Z" fill="#80ABFF"/>
<path d="M45.6612 43.1885H41.5664V56.1642H45.6612V43.1885Z" fill="#80ABFF"/>
<path d="M51.0591 46.2422H46.9644V56.1645H51.0591V46.2422Z" fill="#80ABFF"/>
<path d="M27.6772 57.5205H54.1574" stroke="#80ABFF" stroke-width="1.5" stroke-linecap="round" stroke-linejoin="round"/>
</svg>
