<svg width="1362" height="232" viewBox="0 0 1362 232" fill="none" xmlns="http://www.w3.org/2000/svg">
<g opacity="0.05" clip-path="url(#clip0_2342_142175)">
<path d="M1251.38 149.97L1191.17 0H1140.36V232H1183.19V94.8098L1237.66 232H1264.73L1319.2 94.8098V232H1362.03V0H1312.05L1251.38 149.97Z" fill="white"/>
<path d="M111.018 149.97L50.8135 0H0V232H42.8837V94.8098L97.2969 232H124.373L178.838 94.8098V232H221.67V0H171.691L111.018 149.97Z" fill="white"/>
<path d="M305.441 0H261.148V232H305.441V0Z" fill="white"/>
<path d="M1104.31 69.9605C1098.83 55.7062 1091.05 43.3089 1081.25 32.9868C1071.39 22.7194 1059.65 14.5273 1046.29 8.73823C1032.94 2.94915 1018.07 0 1002.21 0C986.349 0 971.481 2.94915 958.126 8.73823C944.77 14.5273 933.032 22.7194 923.172 32.9868C913.312 43.3089 905.538 55.7608 900.113 69.9605C894.687 84.1055 891.922 99.6158 891.922 116C891.922 132.384 894.687 147.895 900.113 162.04C905.538 176.239 913.312 188.691 923.172 199.013C932.98 209.281 944.77 217.473 958.126 223.262C971.533 229.051 986.349 232 1002.21 232C1018.07 232 1032.88 229.051 1046.29 223.262C1059.65 217.473 1071.39 209.281 1081.25 199.013C1091.11 188.691 1098.88 176.239 1104.31 162.04C1109.73 147.895 1112.5 132.384 1112.5 116C1112.5 99.6158 1109.73 84.1055 1104.31 69.9605ZM1063.77 145C1060.48 153.902 1055.89 161.766 1050.05 168.375C1044.26 174.928 1037.22 180.171 1029.13 183.94C1013.06 191.422 991.358 191.422 975.289 183.94C967.203 180.171 960.16 174.928 954.369 168.375C948.526 161.766 943.935 153.902 940.649 145C937.362 136.043 935.692 126.322 935.692 116.055C935.692 105.787 937.362 96.0113 940.649 87.1092C943.935 78.2072 948.526 70.3428 954.369 63.7345C960.16 57.1808 967.151 51.9379 975.289 48.1695C983.324 44.4011 992.401 42.4896 1002.21 42.4896C1012.02 42.4896 1021.09 44.4011 1029.13 48.1695C1037.22 51.9379 1044.26 57.1808 1050.05 63.7345C1055.89 70.3428 1060.48 78.2072 1063.77 87.1092C1067.06 96.0659 1068.73 105.787 1068.73 116.055C1068.73 126.322 1067.06 136.098 1063.77 145Z" fill="white"/>
<path d="M452.729 131.811C464.102 127.988 473.597 122.035 481.109 114.006C491.96 102.428 498.012 86.5903 498.012 68.24C498.012 53.0573 494.465 41.2061 488.622 31.8125C482.883 22.5828 475.318 15.4283 466.084 10.6223C457.424 6.08934 447.616 3.14019 436.869 1.77484C426.852 0.518722 416.731 -0.0820312 406.663 -0.0820312H344.789V231.918H389.081V137.818H404.054L458.885 231.918H513.715L452.624 131.756L452.729 131.811ZM448.033 82.1119C445.268 85.4434 441.825 87.7918 437.495 89.3756C432.435 91.2325 426.748 92.3248 420.592 92.707C413.653 93.0893 406.923 93.3078 400.402 93.3078H389.133V44.5922H412.714C418.192 44.5922 423.618 44.9745 428.991 45.6844C433.634 46.3398 437.808 47.5959 441.408 49.5074C444.486 51.1458 446.938 53.4396 448.816 56.498C450.59 59.3379 451.477 63.4886 451.477 68.95C451.477 75.0121 450.329 79.4905 448.138 82.1666L448.033 82.1119Z" fill="white"/>
<path d="M631.649 0H595.756L518.18 184.267L547.291 232L568.002 180.991H655.595L676.15 232H726.285L631.649 0ZM585.531 138.282L612.712 70.1243L639.84 138.282H585.531Z" fill="white"/>
<path d="M873.935 176.512L872.996 174.382L870.336 176.239C870.336 176.239 869.866 176.621 869.658 176.731C865.432 179.571 861.415 181.81 857.345 183.557C850.668 186.725 842.373 188.363 832.565 188.363C813.262 188.363 797.454 181.591 784.203 167.719C770.9 153.793 764.431 137.136 764.431 116.819C764.431 96.5028 770.9 79.2448 784.255 64.9906C797.402 50.791 813.158 43.855 832.408 43.855C845.346 43.855 858.285 47.8964 870.805 55.8701L872.527 57.0169L893.708 20.4802L895.117 18.678L891.099 16.275C873.101 5.51601 854.059 0 834.547 0C799.02 0 769.596 13.8173 747.163 41.0151C728.955 63.1883 719.773 88.8023 719.773 117.092C719.773 148.714 730.833 176.13 752.64 198.576C774.5 220.804 801.263 232.055 832.2 232.055C852.702 232.055 872.527 226.593 891.152 215.725L895.325 213.158L873.988 176.512H873.935Z" fill="white"/>
</g>
<defs>
<clipPath id="clip0_2342_142175">
<rect width="1362" height="232" fill="white"/>
</clipPath>
</defs>
</svg>
