<svg width="90" height="90" viewBox="0 0 90 90" fill="none" xmlns="http://www.w3.org/2000/svg">
<path d="M79.0791 68.9514L70.1862 52.751C69.2948 51.1296 67.5751 50.1179 65.7081 50.1179H60.539M10.301 68.9514L19.194 52.751C20.0854 51.1296 21.805 50.1179 23.672 50.1179H28.6839" stroke="#050505" stroke-width="1.5" stroke-linecap="round" stroke-linejoin="round"/>
<path d="M62.7265 65.8076H15.5595C12.2095 65.8076 9.5 68.4462 9.5 71.6931C9.5 74.94 12.2166 77.5785 15.5595 77.5785H73.8181C77.168 77.5785 79.8776 74.94 79.8776 71.6931C79.8776 68.4462 77.161 65.8076 73.8181 65.8076H65.3094" stroke="#050505" stroke-width="1.5" stroke-linecap="round" stroke-linejoin="round"/>
<path d="M18.9056 71.8684C18.9056 72.7359 18.1912 73.4368 17.3072 73.4368C16.4231 73.4368 15.7087 72.7359 15.7087 71.8684C15.7087 71.001 16.4231 70.3 17.3072 70.3C18.1912 70.3 18.9056 71.001 18.9056 71.8684Z" stroke="#050505" stroke-width="1.5" stroke-linecap="round" stroke-linejoin="round"/>
<path d="M29.9249 71.8684C29.9249 72.7359 29.2105 73.4368 28.3264 73.4368C27.4424 73.4368 26.728 72.7359 26.728 71.8684C26.728 71.001 27.4424 70.3 28.3264 70.3C29.2105 70.3 29.9249 71.001 29.9249 71.8684Z" stroke="#050505" stroke-width="1.5" stroke-linecap="round" stroke-linejoin="round"/>
<path d="M40.9432 71.8684C40.9432 72.7359 40.2288 73.4368 39.3448 73.4368C38.4607 73.4368 37.7463 72.7359 37.7463 71.8684C37.7463 71.001 38.4607 70.3 39.3448 70.3C40.2288 70.3 40.9432 71.001 40.9432 71.8684Z" stroke="#050505" stroke-width="1.5" stroke-linecap="round" stroke-linejoin="round"/>
<path d="M51.9717 71.8684C51.9717 72.7359 51.2574 73.4368 50.3733 73.4368C49.4892 73.4368 48.7749 72.7359 48.7749 71.8684C48.7749 71.001 49.4892 70.3 50.3733 70.3C51.2574 70.3 51.9717 71.001 51.9717 71.8684Z" stroke="#050505" stroke-width="1.5" stroke-linecap="round" stroke-linejoin="round"/>
<path d="M62.9888 71.8684C62.9888 72.7359 62.2745 73.4368 61.3904 73.4368C60.5063 73.4368 59.792 72.7359 59.792 71.8684C59.792 71.001 60.5063 70.3 61.3904 70.3C62.2745 70.3 62.9888 71.001 62.9888 71.8684Z" stroke="#050505" stroke-width="1.5" stroke-linecap="round" stroke-linejoin="round"/>
<path d="M74.0162 71.8684C74.0162 72.7359 73.3018 73.4368 72.4178 73.4368C71.5337 73.4368 70.8193 72.7359 70.8193 71.8684C70.8193 71.001 71.5337 70.3 72.4178 70.3C73.3018 70.3 74.0162 71.001 74.0162 71.8684Z" stroke="#050505" stroke-width="1.5" stroke-linecap="round" stroke-linejoin="round"/>
<path d="M59.9238 36.7804H29.0039V61.1243H59.9238V36.7804Z" stroke="#050505" stroke-width="1.5" stroke-linecap="round" stroke-linejoin="round"/>
<path d="M48.9897 36.7804H39.9453V43.7531H48.9897V36.7804Z" stroke="#050505" stroke-width="1.5" stroke-linecap="round" stroke-linejoin="round"/>
<path d="M36.5348 28.4971H32.0608L29.0024 36.7713H59.9292L56.8709 28.4971H39.112" stroke="#050505" stroke-width="1.5" stroke-linecap="round" stroke-linejoin="round"/>
<path d="M51.3354 56.7948V53.5917" stroke="#050505" stroke-width="1.5" stroke-linecap="round" stroke-linejoin="round"/>
<path d="M55.5317 56.7948V53.5917" stroke="#050505" stroke-width="1.5" stroke-linecap="round" stroke-linejoin="round"/>
<path d="M24.141 54.1123L20.8027 61.3851" stroke="#050505" stroke-width="1.5" stroke-linecap="round" stroke-linejoin="round"/>
<path d="M65.584 54.1123L68.9223 61.3851" stroke="#050505" stroke-width="1.5" stroke-linecap="round" stroke-linejoin="round"/>
<path fill-rule="evenodd" clip-rule="evenodd" d="M49.867 34.3085C45.04 29.3549 45.0795 21.2801 49.9553 16.2765C54.831 11.2729 62.6994 11.2323 67.5264 16.1859C71.9093 20.6837 72.28 27.7548 68.6612 32.7636L76.4338 40.74C76.9691 41.2894 76.9691 42.1802 76.4338 42.7296L75.8662 43.312C75.3308 43.8614 74.4629 43.8614 73.9275 43.312L66.1738 35.355C61.2849 39.1943 54.2958 38.8535 49.867 34.3085ZM52.2302 31.8762C55.7641 35.5028 61.522 35.4731 65.0916 31.8099C68.6612 28.1466 68.6902 22.2377 65.1562 18.6111C61.6223 14.9844 55.8644 15.0141 52.2948 18.6774C48.7252 22.3406 48.6963 28.2495 52.2302 31.8762Z" fill="#80ABFF"/>
</svg>
