<svg width="472" height="444" viewBox="0 0 472 444" fill="none" xmlns="http://www.w3.org/2000/svg">
<g clip-path="url(#clip0_3438_10365)">
<rect x="336.95" y="39.2852" width="1" height="120" fill="#DAE1F2"/>
<rect x="315.95" y="39.2852" width="44" height="44" rx="22" fill="#0D7C68"/>
<path d="M337.61 55.9844V57.0508H327.931V55.9844H332.103V53.9219H328.997V48.4375H330.298V50.1719H335.208V48.4375H336.509V53.9219H333.392V55.9844H337.61ZM330.298 52.8672H335.208V51.2148H330.298V52.8672ZM347.173 47.7461V55.4805H345.872V51.6016H343.997V50.5469H345.872V47.7461H347.173ZM338.278 53.1953C339.966 52.6387 340.868 51.2559 340.868 49.8438V49.5625H338.665V48.5078H344.384V49.5625H342.192V49.8555C342.192 51.127 343.048 52.4453 344.688 52.9844L344.032 54.0273C342.849 53.623 342.011 52.8145 341.548 51.8125C341.085 52.9258 340.2 53.8164 338.946 54.25L338.278 53.1953ZM340.224 58.1172V54.8008H341.524V57.0625H347.442V58.1172H340.224ZM336.743 63.7344V74.3398H335.431V63.7344H336.743ZM328.271 68.2461C328.265 65.9609 329.431 64.5078 331.036 64.5078C332.624 64.5078 333.796 65.9609 333.802 68.2461C333.796 70.5488 332.624 71.9961 331.036 71.9961C329.431 71.9961 328.265 70.5488 328.271 68.2461ZM329.524 68.2461C329.524 69.875 330.14 70.8184 331.036 70.8242C331.927 70.8184 332.536 69.875 332.536 68.2461C332.536 66.6289 331.927 65.6797 331.036 65.6797C330.14 65.6797 329.524 66.6289 329.524 68.2461ZM343.364 64.3672V67.5547H340.024V68.8555C341.729 68.8555 342.696 68.8086 343.821 68.5977L343.95 69.6523C342.685 69.8691 341.589 69.8984 339.509 69.8984H338.735V66.582H342.063V65.3984H338.712V64.3672H343.364ZM339.931 71.8086V70.7656H347.173V74.3281H345.872V71.8086H339.931ZM343.997 68.5156V67.4727H345.872V66.2891H343.997V65.2461H345.872V63.7461H347.173V70.2617H345.872V68.5156H343.997Z" fill="white"/>
<rect x="337.767" y="173.988" width="1" height="99.4611" transform="rotate(-54.5074 337.767 173.988)" fill="#DAE1F2"/>
<rect x="399.95" y="203.285" width="60" height="60" rx="30" fill="#0D7C68"/>
<path d="M428.427 220.25V221.07C428.433 221.896 428.433 222.834 428.169 224.082H429.61V225.137H419.931V224.082H426.851C427.103 222.934 427.126 222.066 427.126 221.293H421.126V220.25H428.427ZM421.091 230.199V226.367H428.415V230.199H421.091ZM422.368 229.145H427.126V227.387H422.368V229.145ZM436.243 220.789V221.82H430.325V220.789H432.692V219.641H433.993V220.789H436.243ZM430.876 224.223C430.87 223.039 431.878 222.242 433.325 222.242C434.767 222.242 435.804 223.039 435.81 224.223C435.804 225.4 434.767 226.18 433.325 226.18C431.878 226.18 430.87 225.4 430.876 224.223ZM431.989 228.477C431.989 227.311 433.366 226.631 435.61 226.637C437.849 226.631 439.226 227.311 439.231 228.477C439.226 229.625 437.849 230.316 435.61 230.316C433.366 230.316 431.989 229.625 431.989 228.477ZM432.095 224.223C432.089 224.844 432.575 225.207 433.325 225.207C434.075 225.207 434.591 224.844 434.591 224.223C434.591 223.59 434.075 223.215 433.325 223.215C432.575 223.215 432.089 223.59 432.095 224.223ZM433.36 228.477C433.354 229.027 434.181 229.326 435.61 229.32C437.028 229.326 437.837 229.027 437.837 228.477C437.837 227.914 437.028 227.633 435.61 227.633C434.181 227.633 433.354 227.914 433.36 228.477ZM436.302 225.277V224.234H437.872V223.191H436.313V222.137H437.872V219.734H439.173V226.52H437.872V225.277H436.302ZM428.743 235.734V246.34H427.431V235.734H428.743ZM420.271 240.246C420.265 237.961 421.431 236.508 423.036 236.508C424.624 236.508 425.796 237.961 425.802 240.246C425.796 242.549 424.624 243.996 423.036 243.996C421.431 243.996 420.265 242.549 420.271 240.246ZM421.524 240.246C421.524 241.875 422.14 242.818 423.036 242.824C423.927 242.818 424.536 241.875 424.536 240.246C424.536 238.629 423.927 237.68 423.036 237.68C422.14 237.68 421.524 238.629 421.524 240.246ZM435.364 236.367V239.555H432.024V240.855C433.729 240.855 434.696 240.809 435.821 240.598L435.95 241.652C434.685 241.869 433.589 241.898 431.509 241.898H430.735V238.582H434.063V237.398H430.712V236.367H435.364ZM431.931 243.809V242.766H439.173V246.328H437.872V243.809H431.931ZM435.997 240.516V239.473H437.872V238.289H435.997V237.246H437.872V235.746H439.173V242.262H437.872V240.516H435.997Z" fill="white"/>
<rect x="366.95" y="177.285" width="1" height="60.9995" transform="rotate(-90 366.95 177.285)" fill="#DAE1F2"/>
<rect x="427.95" y="156.285" width="44" height="44" rx="22" fill="#0D7C68"/>
<path d="M444.413 170.898V171.93H440.194V175.328H438.905V171.93H434.733V170.898H444.413ZM435.905 169.797V165.156H437.194V166.457H441.928V165.156H443.241V169.797H435.905ZM437.194 168.742H441.928V167.488H437.194V168.742ZM448.913 167.746C448.907 169.381 449.891 171.244 451.561 172.023L450.834 173.055C449.639 172.492 448.754 171.355 448.28 170.031C447.799 171.484 446.874 172.727 445.655 173.312L444.893 172.293C446.581 171.49 447.606 169.51 447.612 167.746V166.855H445.303V165.777H451.127V166.855H448.913V167.746ZM452.112 175.328V164.734H453.413V168.859H455.042V169.949H453.413V175.328H452.112ZM464.674 164.734V175.328H463.432V169.961H462.342V174.812H461.112V164.922H462.342V168.883H463.432V164.734H464.674ZM455.311 172.246C456.881 171.355 457.514 169.51 457.514 167.441V166.938H455.627V165.895H460.514V166.938H458.78V167.441C458.78 169.322 459.413 171.062 460.983 171.871L460.221 172.867C459.213 172.322 458.551 171.391 458.176 170.242C457.819 171.561 457.157 172.621 456.108 173.242L455.311 172.246ZM448.743 180.734V191.34H447.43V180.734H448.743ZM440.27 185.246C440.264 182.961 441.43 181.508 443.036 181.508C444.624 181.508 445.795 182.961 445.801 185.246C445.795 187.549 444.624 188.996 443.036 188.996C441.43 188.996 440.264 187.549 440.27 185.246ZM441.524 185.246C441.524 186.875 442.139 187.818 443.036 187.824C443.926 187.818 444.536 186.875 444.536 185.246C444.536 183.629 443.926 182.68 443.036 182.68C442.139 182.68 441.524 183.629 441.524 185.246ZM455.364 181.367V184.555H452.024V185.855C453.729 185.855 454.696 185.809 455.821 185.598L455.95 186.652C454.684 186.869 453.588 186.898 451.508 186.898H450.735V183.582H454.063V182.398H450.711V181.367H455.364ZM451.93 188.809V187.766H459.172V191.328H457.872V188.809H451.93ZM455.997 185.516V184.473H457.872V183.289H455.997V182.246H457.872V180.746H459.172V187.262H457.872V185.516H455.997Z" fill="white"/>
<rect x="315.515" y="190.395" width="1" height="119.497" transform="rotate(-120 315.515 190.395)" fill="#DAE1F2"/>
<rect x="398.232" y="109.289" width="44" height="44" rx="22" fill="#0D7C68"/>
<path d="M415.251 118.047H416.763V124.012C416.763 125.652 415.667 126.648 414.033 126.648C412.544 126.648 411.402 125.84 411.408 124.281H412.931C412.937 124.973 413.406 125.389 414.091 125.395C414.83 125.389 415.246 124.914 415.251 124.012V118.047ZM419.857 118.047V126.531H418.333V118.047H419.857ZM427.123 120.754C426.847 119.852 426.15 119.301 425.119 119.301C423.753 119.301 422.757 120.367 422.763 122.277C422.757 124.205 423.736 125.277 425.154 125.277C426.437 125.277 427.251 124.504 427.275 123.297H425.306V122.09H428.751V123.109C428.751 125.295 427.251 126.648 425.154 126.648C422.81 126.648 421.222 124.979 421.228 122.289C421.222 119.564 422.886 117.93 425.107 117.93C426.976 117.93 428.423 119.09 428.681 120.754H427.123Z" fill="white"/>
<path d="M420.237 132.045C419.817 132.045 419.47 131.703 419.475 131.283C419.47 130.873 419.817 130.536 420.237 130.531C420.642 130.536 420.989 130.873 420.989 131.283C420.989 131.703 420.642 132.045 420.237 132.045Z" fill="white"/>
<path d="M404.863 136.84V135.562H411.625V136.84H409.011V144.047H407.488V136.84H404.863ZM420.015 139.805C420.021 142.547 418.345 144.164 416.125 144.164C413.892 144.164 412.228 142.541 412.234 139.805C412.228 137.062 413.892 135.445 416.125 135.445C418.345 135.445 420.021 137.062 420.015 139.805ZM413.769 139.805C413.763 141.744 414.742 142.793 416.125 142.793C417.513 142.793 418.486 141.744 418.48 139.805C418.486 137.865 417.513 136.816 416.125 136.816C414.742 136.816 413.763 137.865 413.769 139.805ZM428.945 139.805C428.951 142.547 427.275 144.164 425.054 144.164C422.822 144.164 421.158 142.541 421.164 139.805C421.158 137.062 422.822 135.445 425.054 135.445C427.275 135.445 428.951 137.062 428.945 139.805ZM422.699 139.805C422.693 141.744 423.671 142.793 425.054 142.793C426.443 142.793 427.416 141.744 427.41 139.805C427.416 137.865 426.443 136.816 425.054 136.816C423.671 136.816 422.693 137.865 422.699 139.805ZM430.304 144.047V135.562H431.828V142.758H435.578V144.047H430.304Z" fill="white"/>
<rect x="328.558" y="215.211" width="1" height="98.8849" transform="rotate(-158 328.558 215.211)" fill="#DAE1F2"/>
<rect x="352.426" y="84.3125" width="44" height="44" rx="22" fill="#0D7C68"/>
<path d="M374.075 98L374.075 99.043L369.985 99.043L369.985 100.988L368.661 100.988L368.661 99.043L364.395 99.043L364.395 98L374.075 98ZM365.426 95.1641C365.42 93.834 366.944 92.9961 369.223 92.9961C371.514 92.9961 373.02 93.834 373.02 95.1641C373.02 96.5 371.514 97.3262 369.223 97.3203C366.944 97.3262 365.42 96.5 365.426 95.1641ZM365.579 103.145L365.579 100.004L366.891 100.004L366.891 102.078L373.008 102.078L373.008 103.145L365.579 103.145ZM366.833 95.1641C366.821 95.8672 367.77 96.2773 369.223 96.2773C370.688 96.2773 371.631 95.8672 371.625 95.1641C371.631 94.4375 370.688 94.0273 369.223 94.0273C367.77 94.0273 366.821 94.4375 366.833 95.1641ZM383.649 92.7734L383.649 100.508L382.348 100.508L382.348 96.6289L380.473 96.6289L380.473 95.5742L382.348 95.5742L382.348 92.7734L383.649 92.7734ZM374.754 98.2227C376.442 97.666 377.344 96.2832 377.344 94.8711L377.344 94.5898L375.141 94.5898L375.141 93.5352L380.86 93.5352L380.86 94.5898L378.668 94.5898L378.668 94.8828C378.668 96.1543 379.524 97.4727 381.165 98.0117L380.508 99.0547C379.325 98.6504 378.487 97.8418 378.024 96.8398C377.561 97.9531 376.676 98.8437 375.422 99.2773L374.754 98.2227ZM376.7 103.145L376.7 99.8281L378 99.8281L378 102.09L383.918 102.09L383.918 103.145L376.7 103.145ZM374.086 117.012L374.086 118.078L364.407 118.078L364.407 117.012L368.59 117.012L368.59 114.574L369.891 114.574L369.891 117.012L374.086 117.012ZM364.829 113.988C366.938 113.637 368.508 112.207 368.543 110.684L365.215 110.684L365.215 109.617L373.254 109.617L373.254 110.684L369.915 110.684C369.956 112.207 371.526 113.602 373.7 113.93L373.184 114.961C371.397 114.639 369.926 113.689 369.241 112.365C368.561 113.707 367.108 114.686 365.344 115.02L364.829 113.988ZM383.649 108.773L383.649 116.543L382.348 116.543L382.348 112.98L380.309 112.98L380.309 111.902L382.348 111.902L382.348 108.773L383.649 108.773ZM374.918 114.387C377.198 113.666 378.704 112.312 378.956 110.637L375.469 110.637L375.469 109.57L380.379 109.57C380.379 112.365 378.534 114.451 375.469 115.43L374.918 114.387ZM376.747 119.145L376.747 115.758L378.071 115.758L378.071 118.09L383.918 118.09L383.918 119.145L376.747 119.145Z" fill="white"/>
<rect x="297.95" y="136.285" width="80" height="80" rx="40" fill="#0D7C68"/>
<path d="M322.59 169.051V176.285H320.856V172.707H318.043V171.316H320.856V169.051H322.59ZM310.684 174.973C312.958 174.285 314.137 172.543 314.137 170.645V169.52H315.887V170.645C315.879 172.387 317.02 174.035 319.215 174.707L318.293 176.051C316.762 175.543 315.653 174.543 315.028 173.262C314.418 174.691 313.254 175.816 311.59 176.363L310.684 174.973ZM313.293 178.254V176.895H322.59V180.551H315.012V181.629H323.043V183.004H313.309V179.254H320.872V178.254H313.293ZM336.34 169.051V183.191H334.59V169.051H336.34ZM325.34 179.863V170.207H327.075V173.738H330.497V170.207H332.215V179.863H325.34ZM327.075 178.441H330.497V175.098H327.075V178.441ZM346.309 170.098V170.941C346.293 171.902 346.293 173.309 345.965 175.098L344.247 174.941C344.528 173.488 344.583 172.402 344.598 171.535H339.106V170.098H346.309ZM338.262 176.223C339.098 176.215 340.036 176.207 341.028 176.191V173.316H342.747V176.137C344.208 176.074 345.708 175.965 347.075 175.77L347.168 177.02C344.231 177.551 340.895 177.605 338.418 177.613L338.262 176.223ZM340.372 182.895V178.691H342.122V181.488H350.137V182.895H340.372ZM347.903 179.629V169.051H349.684V173.457H351.512V174.91H349.684V179.629H347.903ZM364.012 169.051V183.191H362.293V169.051H364.012ZM353.012 171.691V170.285H359.668V175.582H354.809V178.426C357.036 178.41 358.95 178.293 361.153 177.926L361.309 179.348C358.911 179.762 356.801 179.855 354.262 179.848H353.028V174.207H357.903V171.691H353.012Z" fill="white"/>
<rect x="242.42" y="81.2852" width="1" height="219" fill="#DAE1F2"/>
<rect x="113.45" y="156.898" width="1" height="219" transform="rotate(-60 113.45 156.898)" fill="#DAE1F2"/>
<rect x="114.45" y="306.398" width="1" height="219" transform="rotate(-120 114.45 306.398)" fill="#DAE1F2"/>
<rect x="211.84" y="47.1055" width="1" height="92.2875" transform="rotate(-27.0875 211.84 47.1055)" fill="#DAE1F2"/>
<rect x="172.95" y="0.28125" width="60" height="60" rx="30" fill="#003CAF"/>
<path d="M196.235 18.6992C196.241 19.8418 196.909 20.9961 198.298 21.5234L197.606 22.5195C196.663 22.1621 196.007 21.4824 195.626 20.6621C195.239 21.6055 194.548 22.4141 193.54 22.8359L192.837 21.8398C194.296 21.1953 194.976 19.8711 194.981 18.6992L194.981 17.3867L196.235 17.3867L196.235 18.6992ZM194.782 25.3555C194.776 24.1367 196.183 23.4102 198.415 23.4102C200.63 23.4102 202.042 24.1367 202.048 25.3555C202.042 26.5801 200.63 27.3125 198.415 27.3125C196.183 27.3125 194.776 26.5801 194.782 25.3555ZM196.083 25.3555C196.077 25.9824 196.944 26.3223 198.415 26.3164C199.862 26.3223 200.729 25.9824 200.735 25.3555C200.729 24.7344 199.862 24.3945 198.415 24.3945C196.944 24.3945 196.077 24.7344 196.083 25.3555ZM198.474 22.9062L198.474 16.9414L199.692 16.9414L199.692 19.4141L200.747 19.4141L200.747 16.7422L201.989 16.7422L201.989 23.2344L200.747 23.2344L200.747 20.4805L199.692 20.4805L199.692 22.9062L198.474 22.9062ZM207.099 18.6055C207.087 19.9941 207.966 21.3242 209.63 21.8633L208.95 22.8945C207.778 22.4961 206.94 21.6992 206.478 20.6797C206.009 21.8047 205.136 22.6836 203.899 23.1172L203.173 22.0859C204.913 21.5176 205.786 20.0996 205.786 18.5937L205.786 17.3867L207.099 17.3867L207.099 18.6055ZM204.872 27.1133L204.872 23.75L206.208 23.75L206.208 26.0586L212.079 26.0586L212.079 27.1133L204.872 27.1133ZM210.356 24.5117L210.356 16.7305L211.657 16.7305L211.657 19.8594L213.134 19.8594L213.134 20.9609L211.657 20.9609L211.657 24.5117L210.356 24.5117ZM202.071 32.7305L202.071 43.3242L200.829 43.3242L200.829 32.7305L202.071 32.7305ZM192.825 40.1602C195.017 38.8652 196.024 37.207 196.224 35.0742L193.388 35.0742L193.388 34.0195L197.513 34.0195C197.513 34.5527 197.478 35.0742 197.401 35.5781L198.638 35.5781L198.638 32.9883L199.88 32.9883L199.88 42.8203L198.638 42.8203L198.638 39.2812L196.985 39.2812L196.985 38.2148L198.638 38.2148L198.638 36.6445L197.179 36.6445C196.675 38.4023 195.573 39.9141 193.587 41.0859L192.825 40.1602ZM209.946 33.5742L209.946 34.5352L203.677 34.5352L203.677 33.5742L206.149 33.5742L206.149 32.6719L207.45 32.6719L207.45 33.5742L209.946 33.5742ZM203.349 38.6133C204.192 38.6133 205.153 38.6133 206.149 38.584L206.149 37.9629C204.948 37.8164 204.198 37.2539 204.204 36.4336C204.198 35.4492 205.235 34.834 206.817 34.8398C208.358 34.834 209.419 35.4492 209.419 36.4336C209.419 37.2598 208.64 37.8223 207.45 37.9687L207.45 38.5371C208.347 38.4902 209.243 38.4199 210.087 38.3086L210.181 39.1992C207.907 39.5859 205.405 39.6152 203.524 39.6211L203.349 38.6133ZM204.849 41.332L204.849 40.3125L212.138 40.3125L212.138 43.3242L210.825 43.3242L210.825 41.332L204.849 41.332ZM205.458 36.4336C205.452 36.8672 205.979 37.125 206.817 37.1133C207.62 37.125 208.171 36.8672 208.177 36.4336C208.171 35.9648 207.62 35.7129 206.817 35.7187C205.979 35.7129 205.452 35.9648 205.458 36.4336ZM210.825 39.8789L210.825 32.7539L212.138 32.7539L212.138 39.8789L210.825 39.8789Z" fill="white"/>
<rect x="253.021" y="6.41016" width="44" height="44" rx="22" fill="#003CAF"/>
<path d="M268.798 16.6992C268.798 18.0059 269.636 19.2891 271.306 19.8398L270.65 20.8477C269.46 20.4492 268.623 19.6582 268.16 18.668C267.691 19.752 266.812 20.6133 265.576 21.0352L264.884 20.0273C266.589 19.459 267.486 18.0879 267.486 16.6992V16.5703H265.248V15.5273H271.001V16.5703H268.798V16.6992ZM266.302 22.7812V21.7383H273.357V25.4531H272.056V22.7812H266.302ZM272.056 21.2461V14.8594H273.357V17.5078H274.833V18.5977H273.357V21.2461H272.056ZM278.314 15.3281C279.685 15.3223 280.763 16.1133 281.027 17.2734H282.943V14.8594H284.244V20.543H282.943V18.3281H281.039C280.787 19.5176 279.697 20.3203 278.314 20.3203C276.691 20.3203 275.513 19.2773 275.513 17.8125C275.513 16.3652 276.691 15.3223 278.314 15.3281ZM276.755 17.8125C276.755 18.6621 277.4 19.2246 278.314 19.2188C279.205 19.2246 279.843 18.6621 279.849 17.8125C279.843 16.9629 279.205 16.4121 278.314 16.418C277.4 16.4121 276.755 16.9629 276.755 17.8125ZM277.259 25.3242V21.0352H278.548V22.1602H282.943V21.0352H284.244V25.3242H277.259ZM278.548 24.2695H282.943V23.168H278.548V24.2695ZM268.998 33.8711C268.998 35.6055 270.017 37.4336 271.728 38.1484L271.013 39.1797C269.759 38.6348 268.845 37.5273 268.359 36.1797C267.873 37.6328 266.941 38.8516 265.705 39.4375L264.955 38.418C266.625 37.6445 267.667 35.6699 267.673 33.8711V32.9805H265.341V31.9023H271.318V32.9805H268.998V33.8711ZM272.501 41.4531V30.8594H273.814V41.4531H272.501ZM279.38 33.4023C279.369 35.3477 280.394 37.293 282.111 38.0312L281.337 39.0742C280.119 38.5117 279.228 37.3926 278.736 36.0098C278.25 37.498 277.335 38.7168 276.052 39.3203L275.255 38.2305C277.019 37.4688 278.05 35.4473 278.056 33.4023V31.7148H279.38V33.4023ZM282.873 41.4648V30.8594H284.185V41.4648H282.873Z" fill="white"/>
<rect x="236.189" y="129.785" width="1" height="85.5132" transform="rotate(-160 236.189 129.785)" fill="#DAE1F2"/>
<rect x="202.95" y="81.2852" width="80" height="80" rx="40" fill="#003CAF"/>
<path d="M225.083 114.051V128.176H223.427V114.051H225.083ZM212.755 123.957C215.677 122.23 217.021 120.02 217.286 117.176H213.505V115.77H219.005C219.005 116.48 218.958 117.176 218.856 117.848H220.505V114.395H222.161V127.504H220.505V122.785H218.302V121.363H220.505V119.27H218.56C217.888 121.613 216.419 123.629 213.771 125.191L212.755 123.957ZM235.583 115.176V116.457H227.224V115.176H230.521V113.973H232.255V115.176H235.583ZM226.786 121.895C227.911 121.895 229.192 121.895 230.521 121.855V121.027C228.919 120.832 227.919 120.082 227.927 118.988C227.919 117.676 229.302 116.855 231.411 116.863C233.466 116.855 234.88 117.676 234.88 118.988C234.88 120.09 233.841 120.84 232.255 121.035V121.793C233.45 121.73 234.646 121.637 235.771 121.488L235.896 122.676C232.864 123.191 229.528 123.23 227.021 123.238L226.786 121.895ZM228.786 125.52V124.16H238.505V128.176H236.755V125.52H228.786ZM229.599 118.988C229.591 119.566 230.294 119.91 231.411 119.895C232.481 119.91 233.216 119.566 233.224 118.988C233.216 118.363 232.481 118.027 231.411 118.035C230.294 118.027 229.591 118.363 229.599 118.988ZM236.755 123.582V114.082H238.505V123.582H236.755ZM245.646 114.941L242.005 128.488H240.255L243.911 114.941H245.646ZM251.614 118.066C251.614 120.379 252.974 122.816 255.255 123.77L254.302 125.145C252.63 124.418 251.411 122.941 250.763 121.145C250.114 123.082 248.872 124.707 247.224 125.488L246.224 124.129C248.45 123.098 249.841 120.465 249.849 118.066V116.879H246.739V115.441H254.708V116.879H251.614V118.066ZM256.286 128.176V114.051H258.036V128.176H256.286ZM265.458 117.441C265.442 120.035 266.81 122.629 269.099 123.613L268.067 125.004C266.442 124.254 265.255 122.762 264.599 120.918C263.95 122.902 262.731 124.527 261.021 125.332L259.958 123.879C262.31 122.863 263.685 120.168 263.692 117.441V115.191H265.458V117.441ZM270.114 128.191V114.051H271.864V128.191H270.114Z" fill="white"/>
<rect x="340.919" y="280.617" width="1" height="109.426" transform="rotate(-5.31451 340.919 280.617)" fill="#DAE1F2"/>
<rect x="329.009" y="345.48" width="44" height="44" rx="22" fill="#D40745"/>
<path d="M344.997 356.473C344.985 358.418 346.011 360.363 347.728 361.102L346.954 362.145C345.735 361.582 344.845 360.463 344.353 359.08C343.866 360.568 342.952 361.787 341.669 362.391L340.872 361.301C342.636 360.539 343.667 358.518 343.673 356.473L343.673 354.785L344.997 354.785L344.997 356.473ZM348.489 364.535L348.489 353.93L349.802 353.93L349.802 364.535L348.489 364.535ZM355.157 355.77C355.157 357.076 355.995 358.359 357.665 358.91L357.009 359.918C355.819 359.52 354.981 358.729 354.519 357.738C354.05 358.822 353.171 359.684 351.935 360.105L351.243 359.098C352.948 358.529 353.845 357.158 353.845 355.77L353.845 355.641L351.606 355.641L351.606 354.598L357.36 354.598L357.36 355.641L355.157 355.641L355.157 355.77ZM352.661 361.852L352.661 360.809L359.716 360.809L359.716 364.523L358.415 364.523L358.415 361.852L352.661 361.852ZM358.415 360.316L358.415 353.93L359.716 353.93L359.716 356.578L361.192 356.578L361.192 357.668L359.716 357.668L359.716 360.316L358.415 360.316ZM346.45 373.715L346.45 375.062L350.646 375.062L350.646 376.117L340.989 376.117L340.989 375.062L345.161 375.062L345.161 373.715L346.45 373.715ZM341.446 373.27C343.403 373.076 344.675 372.309 344.892 371.441L341.868 371.441L341.868 370.398L349.778 370.398L349.778 371.441L346.726 371.441C346.942 372.303 348.214 373.076 350.188 373.27L349.72 374.289C347.798 374.09 346.38 373.34 345.806 372.273C345.231 373.34 343.825 374.09 341.903 374.289L341.446 373.27ZM342.114 378.648C342.114 377.459 343.491 376.797 345.806 376.797C348.103 376.797 349.468 377.459 349.474 378.648C349.468 379.85 348.103 380.512 345.806 380.512C343.491 380.512 342.114 379.85 342.114 378.648ZM343.438 378.648C343.433 379.229 344.247 379.527 345.806 379.527C347.335 379.527 348.161 379.229 348.173 378.648C348.161 378.086 347.335 377.799 345.806 377.793C344.247 377.799 343.433 378.086 343.438 378.648ZM361.04 378.215L361.04 379.293L351.36 379.293L351.36 378.215L353.927 378.215L353.927 376.469L352.509 376.469L352.509 373.012L358.603 373.012L358.603 371.711L352.485 371.711L352.485 370.656L359.892 370.656L359.892 374.055L353.81 374.055L353.81 375.414L360.138 375.414L360.138 376.469L358.591 376.469L358.591 378.215L361.04 378.215ZM355.192 378.215L357.313 378.215L357.313 376.469L355.192 376.469L355.192 378.215Z" fill="white"/>
<rect x="329.063" y="272.031" width="1" height="123.82" transform="rotate(-40.3145 329.063 272.031)" fill="#DAE1F2"/>
<rect x="384.463" y="340.379" width="60" height="60" rx="30" fill="#D40745"/>
<path d="M409.213 363.449C411.516 363.455 412.969 364.182 412.975 365.441C412.969 366.672 411.516 367.41 409.213 367.41C406.934 367.41 405.463 366.672 405.463 365.441C405.463 364.182 406.934 363.455 409.213 363.449ZM404.467 362.687L404.467 361.633L408.193 361.633L408.193 359.711L409.482 359.711L409.482 361.633L414.076 361.633L414.076 362.687L404.467 362.687ZM405.568 358.363L405.568 357.332L412.904 357.332L412.904 358.211C412.91 359.049 412.91 359.939 412.611 361.023L411.322 360.906C411.586 359.881 411.604 359.131 411.604 358.363L405.568 358.363ZM406.775 365.441C406.764 366.062 407.684 366.402 409.213 366.402C410.748 366.402 411.674 366.062 411.686 365.441C411.674 364.797 410.748 364.434 409.213 364.434C407.684 364.434 406.764 364.797 406.775 365.441ZM423.686 356.828L423.686 363.121L422.385 363.121L422.385 360.531L420.58 360.531L420.58 359.465L422.385 359.465L422.385 356.828L423.686 356.828ZM414.779 362.066C416.484 361.48 417.381 360.057 417.381 358.656L417.381 358.574L415.178 358.574L415.178 357.52L420.896 357.52L420.896 358.574L418.705 358.574L418.705 358.645C418.705 359.934 419.561 361.234 421.201 361.785L420.545 362.816C419.367 362.418 418.535 361.609 418.066 360.613C417.604 361.738 416.719 362.652 415.459 363.098L414.779 362.066ZM416.502 365.406C416.49 364.135 417.867 363.391 420.1 363.391C422.344 363.391 423.715 364.135 423.721 365.406C423.715 366.678 422.344 367.416 420.1 367.422C417.867 367.416 416.49 366.678 416.502 365.406ZM417.791 365.406C417.785 366.062 418.629 366.42 420.1 366.414C421.582 366.42 422.42 366.062 422.42 365.406C422.42 364.744 421.582 364.387 420.1 364.387C418.629 364.387 417.785 364.744 417.791 365.406ZM408.398 372.828L408.398 383.422L407.133 383.422L407.133 372.828L408.398 372.828ZM399.609 380.996L399.609 374.07L403.641 374.07L403.641 375.113L400.887 375.113L400.887 379.906C402.135 379.9 403.037 379.842 404.074 379.625L404.18 380.691C402.984 380.937 401.924 380.99 400.324 380.996L399.609 380.996ZM402.914 377.82L402.914 376.754L404.953 376.754L404.953 373.039L406.172 373.039L406.172 382.906L404.953 382.906L404.953 377.82L402.914 377.82ZM418.441 372.828L418.441 383.434L417.129 383.434L417.129 372.828L418.441 372.828ZM409.969 377.34C409.963 375.055 411.129 373.602 412.734 373.602C414.322 373.602 415.494 375.055 415.5 377.34C415.494 379.643 414.322 381.09 412.734 381.09C411.129 381.09 409.963 379.643 409.969 377.34ZM411.223 377.34C411.223 378.969 411.838 379.912 412.734 379.918C413.625 379.912 414.234 378.969 414.234 377.34C414.234 375.723 413.625 374.773 412.734 374.773C411.838 374.773 411.223 375.723 411.223 377.34ZM428.883 372.828L428.883 383.434L427.594 383.434L427.594 377.715L425.602 377.715L425.602 376.66L427.594 376.66L427.594 372.828L428.883 372.828ZM420.48 380.996L420.48 373.742L425.437 373.742L425.437 374.809L421.793 374.809L421.793 376.707L425.016 376.707L425.016 377.738L421.793 377.738L421.793 379.918C423.404 379.912 424.611 379.854 425.977 379.637L426.105 380.691C424.564 380.926 423.205 380.984 421.312 380.996L420.48 380.996Z" fill="white"/>
<rect x="332.188" y="289.777" width="1" height="114.094" transform="rotate(-79.986 332.188 289.777)" fill="#DAE1F2"/>
<rect x="420.734" y="285.637" width="44" height="44" rx="22" fill="#D40745"/>
<path d="M437.484 300.707C439.787 300.713 441.24 301.439 441.246 302.699C441.24 303.93 439.787 304.668 437.484 304.668C435.205 304.668 433.734 303.93 433.734 302.699C433.734 301.439 435.205 300.713 437.484 300.707ZM432.738 299.945L432.738 298.891L436.465 298.891L436.465 296.969L437.754 296.969L437.754 298.891L442.348 298.891L442.348 299.945L432.738 299.945ZM433.84 295.621L433.84 294.59L441.176 294.59L441.176 295.469C441.182 296.307 441.182 297.197 440.883 298.281L439.594 298.164C439.857 297.139 439.875 296.389 439.875 295.621L433.84 295.621ZM435.047 302.699C435.035 303.32 435.955 303.66 437.484 303.66C439.02 303.66 439.945 303.32 439.957 302.699C439.945 302.055 439.02 301.691 437.484 301.691C435.955 301.691 435.035 302.055 435.047 302.699ZM451.957 294.086L451.957 300.379L450.656 300.379L450.656 297.789L448.852 297.789L448.852 296.723L450.656 296.723L450.656 294.086L451.957 294.086ZM443.051 299.324C444.756 298.738 445.652 297.314 445.652 295.914L445.652 295.832L443.449 295.832L443.449 294.777L449.168 294.777L449.168 295.832L446.977 295.832L446.977 295.902C446.977 297.191 447.832 298.492 449.473 299.043L448.816 300.074C447.639 299.676 446.807 298.867 446.338 297.871C445.875 298.996 444.99 299.91 443.73 300.355L443.051 299.324ZM444.773 302.664C444.762 301.393 446.139 300.648 448.371 300.648C450.615 300.648 451.986 301.393 451.992 302.664C451.986 303.936 450.615 304.674 448.371 304.68C446.139 304.674 444.762 303.936 444.773 302.664ZM446.062 302.664C446.057 303.32 446.9 303.678 448.371 303.672C449.854 303.678 450.691 303.32 450.691 302.664C450.691 302.002 449.854 301.645 448.371 301.645C446.9 301.645 446.057 302.002 446.062 302.664ZM442.371 315.289L442.371 316.344L432.715 316.344L432.715 315.289L436.887 315.289L436.887 313.812L438.176 313.812L438.176 315.289L442.371 315.289ZM433.242 313.402C435.428 313.127 436.863 311.926 436.863 310.66L436.863 310.262L438.187 310.262L438.187 310.66C438.187 311.955 439.611 313.127 441.82 313.402L441.316 314.422C439.582 314.158 438.193 313.373 437.52 312.26C436.84 313.367 435.457 314.158 433.711 314.422L433.242 313.402ZM433.781 318.207L433.781 317.187L441.187 317.187L441.187 320.68L439.887 320.68L439.887 318.207L433.781 318.207ZM446.965 311.609C446.959 313.051 447.803 314.369 449.461 314.891L448.758 315.91C447.604 315.5 446.795 314.727 446.344 313.725C445.875 314.879 444.99 315.787 443.707 316.238L443.016 315.184C444.768 314.609 445.646 313.197 445.652 311.668L445.652 310.66L446.965 310.66L446.965 311.609ZM444.773 318.641C444.762 317.352 446.139 316.596 448.371 316.602C450.615 316.596 451.986 317.352 451.992 318.641C451.986 319.93 450.615 320.668 448.371 320.668C446.139 320.668 444.762 319.93 444.773 318.641ZM446.062 318.641C446.057 319.285 446.9 319.643 448.371 319.648C449.854 319.643 450.691 319.285 450.691 318.641C450.691 317.973 449.854 317.615 448.371 317.609C446.9 317.615 446.057 317.973 446.062 318.641ZM448.547 313.203L448.547 312.137L450.656 312.137L450.656 310.086L451.957 310.086L451.957 316.32L450.656 316.32L450.656 313.203L448.547 313.203Z" fill="white"/>
<rect x="297.951" y="245.285" width="80" height="80" rx="40" fill="#D40745"/>
<path d="M317.123 286.879C320.193 286.887 322.13 287.855 322.138 289.535C322.13 291.176 320.193 292.16 317.123 292.16C314.083 292.16 312.123 291.176 312.123 289.535C312.123 287.855 314.083 286.887 317.123 286.879ZM310.794 285.863V284.457H315.763V281.895H317.482V284.457H323.607V285.863H310.794ZM312.263 280.098V278.723H322.044V279.895C322.052 281.012 322.052 282.199 321.654 283.645L319.935 283.488C320.287 282.121 320.31 281.121 320.31 280.098H312.263ZM313.873 289.535C313.857 290.363 315.083 290.816 317.123 290.816C319.169 290.816 320.404 290.363 320.419 289.535C320.404 288.676 319.169 288.191 317.123 288.191C315.083 288.191 313.857 288.676 313.873 289.535ZM336.419 278.051V286.441H334.685V282.988H332.279V281.566H334.685V278.051H336.419ZM324.544 285.035C326.818 284.254 328.013 282.355 328.013 280.488V280.379H325.076V278.973H332.701V280.379H329.779V280.473C329.779 282.191 330.919 283.926 333.107 284.66L332.232 286.035C330.662 285.504 329.552 284.426 328.927 283.098C328.31 284.598 327.13 285.816 325.451 286.41L324.544 285.035ZM326.841 289.488C326.826 287.793 328.662 286.801 331.638 286.801C334.63 286.801 336.458 287.793 336.466 289.488C336.458 291.184 334.63 292.168 331.638 292.176C328.662 292.168 326.826 291.184 326.841 289.488ZM328.56 289.488C328.552 290.363 329.677 290.84 331.638 290.832C333.615 290.84 334.732 290.363 334.732 289.488C334.732 288.605 333.615 288.129 331.638 288.129C329.677 288.129 328.552 288.605 328.56 289.488ZM346.31 279.098V279.941C346.294 280.902 346.294 282.309 345.966 284.098L344.248 283.941C344.529 282.488 344.583 281.402 344.599 280.535H339.107V279.098H346.31ZM338.263 285.223C339.099 285.215 340.037 285.207 341.029 285.191V282.316H342.748V285.137C344.208 285.074 345.708 284.965 347.076 284.77L347.169 286.02C344.232 286.551 340.896 286.605 338.419 286.613L338.263 285.223ZM340.373 291.895V287.691H342.123V290.488H350.138V291.895H340.373ZM347.904 288.629V278.051H349.685V282.457H351.513V283.91H349.685V288.629H347.904ZM364.013 278.051V292.191H362.294V278.051H364.013ZM353.013 280.691V279.285H359.669V284.582H354.81V287.426C357.037 287.41 358.951 287.293 361.154 286.926L361.31 288.348C358.912 288.762 356.802 288.855 354.263 288.848H353.029V283.207H357.904V280.691H353.013Z" fill="white"/>
<rect x="240.95" y="324.285" width="1" height="120" fill="#DAE1F2"/>
<rect x="220.95" y="400.285" width="44" height="44" rx="22" fill="#156FC2"/>
<path d="M242.586 413.75V414.793H238.391V415.812H241.415V419.199H234.067V415.812H237.102V414.793H232.93V413.75H242.586ZM233.797 410.094V409.051H241.696V410.094H240.243V411.91H241.637V412.965H233.856V411.91H235.25V410.094H233.797ZM235.356 418.145H240.149V416.82H235.356V418.145ZM236.551 411.91H238.93V410.094H236.551V411.91ZM252.102 408.734V414.195H250.813V408.734H252.102ZM243.383 413.246C245.03 412.76 245.938 411.564 246.002 410.316H243.723V409.262H249.547V410.316H247.327C247.385 411.488 248.282 412.602 249.922 413.047L249.29 414.055C248.053 413.697 247.168 412.947 246.688 411.986C246.208 413.047 245.288 413.885 243.981 414.277L243.383 413.246ZM245.094 415.637V414.641H252.125V417.371H246.395V418.227H252.442V419.234H245.118V416.422H250.825V415.637H245.094ZM242.586 429.938V430.992H232.93V429.938H237.102V428.461H238.391V429.938H242.586ZM233.458 428.051C235.643 427.775 237.079 426.574 237.079 425.309V424.91H238.403V425.309C238.403 426.604 239.827 427.775 242.036 428.051L241.532 429.07C239.797 428.807 238.409 428.021 237.735 426.908C237.055 428.016 235.672 428.807 233.926 429.07L233.458 428.051ZM233.997 432.855V431.836H241.403V435.328H240.102V432.855H233.997ZM247.18 426.258C247.174 427.699 248.018 429.018 249.676 429.539L248.973 430.559C247.819 430.148 247.01 429.375 246.559 428.373C246.09 429.527 245.206 430.436 243.922 430.887L243.231 429.832C244.983 429.258 245.862 427.846 245.868 426.316V425.309H247.18V426.258ZM244.989 433.289C244.977 432 246.354 431.244 248.586 431.25C250.831 431.244 252.202 432 252.208 433.289C252.202 434.578 250.831 435.316 248.586 435.316C246.354 435.316 244.977 434.578 244.989 433.289ZM246.278 433.289C246.272 433.934 247.116 434.291 248.586 434.297C250.069 434.291 250.907 433.934 250.907 433.289C250.907 432.621 250.069 432.264 248.586 432.258C247.116 432.264 246.272 432.621 246.278 433.289ZM248.762 427.852V426.785H250.872V424.734H252.172V430.969H250.872V427.852H248.762Z" fill="white"/>
<rect x="237.303" y="324.711" width="1" height="110.987" transform="rotate(-35 237.303 324.711)" fill="#DAE1F2"/>
<rect x="273.982" y="381.289" width="44" height="44" rx="22" fill="#156FC2"/>
<path d="M294.26 389.738L294.26 393.875L295.83 393.875L295.83 394.965L294.26 394.965L294.26 400.309L292.959 400.309L292.959 389.738L294.26 389.738ZM285.904 397.414C288.482 396.125 289.877 394.332 290.135 391.918L286.479 391.918L286.479 390.84L291.459 390.84C291.453 393.951 290.164 396.688 286.643 398.422L285.904 397.414ZM301.104 396.359C303.406 396.365 304.859 397.092 304.865 398.352C304.859 399.582 303.406 400.32 301.104 400.32C298.824 400.32 297.354 399.582 297.354 398.352C297.354 397.092 298.824 396.365 301.104 396.359ZM296.357 395.598L296.357 394.543L300.084 394.543L300.084 392.621L301.373 392.621L301.373 394.543L305.967 394.543L305.967 395.598L296.357 395.598ZM297.459 391.273L297.459 390.242L304.795 390.242L304.795 391.121C304.801 391.959 304.801 392.85 304.502 393.934L303.213 393.816C303.477 392.791 303.494 392.041 303.494 391.273L297.459 391.273ZM298.666 398.352C298.654 398.973 299.574 399.313 301.104 399.313C302.639 399.313 303.564 398.973 303.576 398.352C303.564 397.707 302.639 397.344 301.104 397.344C299.574 397.344 298.654 397.707 298.666 398.352ZM295.643 413.988L295.643 415.055L285.963 415.055L285.963 413.988L290.146 413.988L290.146 411.551L291.447 411.551L291.447 413.988L295.643 413.988ZM286.385 410.965C288.494 410.613 290.064 409.184 290.1 407.66L286.771 407.66L286.771 406.594L294.811 406.594L294.811 407.66L291.471 407.66C291.512 409.184 293.082 410.578 295.256 410.906L294.74 411.938C292.953 411.615 291.482 410.666 290.797 409.342C290.117 410.684 288.664 411.662 286.9 411.996L286.385 410.965ZM305.205 405.75L305.205 413.52L303.904 413.52L303.904 409.957L301.865 409.957L301.865 408.879L303.904 408.879L303.904 405.75L305.205 405.75ZM296.475 411.363C298.754 410.643 300.26 409.289 300.512 407.613L297.025 407.613L297.025 406.547L301.936 406.547C301.936 409.342 300.09 411.428 297.025 412.406L296.475 411.363ZM298.303 416.121L298.303 412.734L299.627 412.734L299.627 415.066L305.475 415.066L305.475 416.121L298.303 416.121Z" fill="white"/>
<rect x="171.173" y="415.062" width="1" height="122.569" transform="rotate(-131.638 171.173 415.062)" fill="#DAE1F2"/>
<rect x="154.95" y="376.285" width="54" height="54" rx="27" fill="#156FC2"/>
<path d="M180.532 402.551V403.582H177.391V406.008H181.61V407.074H171.93V406.008H176.102V403.582H173.102V398.52H180.45V399.562H174.403V402.551H180.532ZM187.739 398.625V399.469H189.872V397.746H191.172V405.457H189.872V402.785H187.739V403.699H182.758V398.625H187.739ZM184.059 402.68H186.45V399.656H184.059V402.68ZM184.188 408.117V404.742H185.512V407.062H191.407V408.117H184.188ZM187.739 401.742H189.872V400.535H187.739V401.742Z" fill="white"/>
<rect x="202.95" y="300.285" width="80" height="80" rx="40" fill="#156FC2"/>
<path d="M227.918 333.051V347.176H226.262V333.051H227.918ZM215.512 343.16C217.551 341.918 218.45 339.371 218.45 336.91V335.973H215.997V334.566H222.403V335.973H220.122V336.91C220.122 339.293 220.973 341.684 222.997 342.848L221.965 344.129C220.661 343.355 219.793 342.012 219.301 340.402C218.801 342.145 217.903 343.629 216.575 344.457L215.512 343.16ZM221.372 339.379V337.973H223.403V333.316H225.043V346.488H223.403V339.379H221.372ZM242.465 339.738V341.129H236.872V342.488H240.903V347.004H231.106V342.488H235.153V341.129H229.59V339.738H242.465ZM230.747 334.863V333.473H241.278V334.863H239.34V337.285H241.2V338.691H230.825V337.285H232.684V334.863H230.747ZM232.825 345.598H239.215V343.832H232.825V345.598ZM234.418 337.285H237.59V334.863H234.418V337.285ZM255.543 333.051V347.176H253.872V339.926H252.356V346.52H250.731V333.426H252.356V338.52H253.872V333.051H255.543ZM243.309 343.02C246.317 341.285 247.59 339.051 247.84 336.223H243.965V334.832H249.528C249.528 338.652 248.325 341.934 244.309 344.223L243.309 343.02ZM259.45 333.676V335.473H262.747V333.676H264.465V339.832H257.731V333.676H259.45ZM259.153 342.207V340.848H268.387V344.551H260.887V345.676H268.825V347.051H259.168V343.285H266.653V342.207H259.153ZM259.45 338.457H262.747V336.785H259.45V338.457ZM266.653 340.285V333.051H268.387V335.91H270.356V337.316H268.387V340.285H266.653Z" fill="white"/>
<rect x="44.5312" y="271.605" width="1" height="113.911" transform="rotate(-86.2996 44.5312 271.605)" fill="#DAE1F2"/>
<rect x="-0.050293" y="242.379" width="54" height="54" rx="27" fill="#641BDF"/>
<path d="M26.6099 264.148L26.6099 265.203L16.9302 265.203L16.9302 264.148L19.438 264.148L19.438 261.969L17.7622 261.969L17.7622 260.914L19.2505 260.914L19.2505 257.773L17.7271 257.773L17.7271 256.73L25.7661 256.73L25.7661 257.773L24.2192 257.773L24.2192 260.914L25.731 260.914L25.731 261.969L24.0552 261.969L24.0552 264.148L26.6099 264.148ZM20.5513 260.914L22.9302 260.914L22.9302 257.773L20.5513 257.773L20.5513 260.914ZM20.7388 264.148L22.7544 264.148L22.7544 261.969L20.7388 261.969L20.7388 264.148ZM36.0903 256.309L36.0903 257.352L33.02 257.352C33.1372 258.354 34.4321 259.303 36.4771 259.543L35.9849 260.574C34.0864 260.346 32.686 259.508 32.1177 258.365C31.5493 259.502 30.1606 260.346 28.2622 260.574L27.7817 259.543C29.8267 259.303 31.104 258.348 31.2271 257.352L28.1802 257.352L28.1802 256.309L36.0903 256.309ZM27.2896 262.215L27.2896 261.16L36.9692 261.16L36.9692 262.215L32.8794 262.215L32.8794 264.148L31.5903 264.148L31.5903 262.215L27.2896 262.215ZM28.4614 266.211L28.4614 263.176L29.7622 263.176L29.7622 265.156L35.9028 265.156L35.9028 266.211L28.4614 266.211ZM25.2856 271.828L25.2856 274.805L26.7739 274.805L26.7739 275.883L25.2856 275.883L25.2856 279.492L23.9849 279.492L23.9849 271.828L25.2856 271.828ZM17.3755 277.699L17.3755 272.707L22.1216 272.707L22.1216 273.75L18.6646 273.75L18.6646 276.633C20.6567 276.633 21.7642 276.568 23.0239 276.305L23.1646 277.359C21.7759 277.635 20.5454 277.699 18.231 277.699L17.3755 277.699ZM18.5005 282.211L18.5005 278.684L19.8013 278.684L19.8013 281.156L25.7075 281.156L25.7075 282.211L18.5005 282.211ZM30.7583 272.297C32.3696 272.291 33.5356 273.193 33.5356 274.523C33.5356 275.83 32.3696 276.744 30.7583 276.738C29.1646 276.744 28.0044 275.83 28.0044 274.523C28.0044 273.193 29.1646 272.291 30.7583 272.297ZM27.313 277.465C29.2231 277.465 31.9009 277.43 34.1802 277.09L34.2739 278.051C33.3599 278.227 32.4106 278.338 31.4849 278.408L31.4849 282.094L30.1724 282.094L30.1724 278.484C29.1938 278.525 28.2739 278.537 27.4771 278.543L27.313 277.465ZM29.27 274.523C29.2642 275.232 29.8911 275.678 30.7583 275.672C31.6606 275.678 32.2935 275.232 32.2935 274.523C32.2935 273.791 31.6606 273.34 30.7583 273.352C29.8911 273.34 29.2642 273.791 29.27 274.523ZM34.8716 282.41L34.8716 271.84L36.1606 271.84L36.1606 282.41L34.8716 282.41Z" fill="white"/>
<rect x="52.2627" y="327.664" width="1" height="118.648" transform="rotate(-114.951 52.2627 327.664)" fill="#DAE1F2"/>
<rect x="34.9497" y="302.297" width="44" height="44" rx="22" fill="#641BDF"/>
<path d="M46.5142 317.367C48.8169 317.373 50.27 318.1 50.2759 319.359C50.27 320.59 48.8169 321.328 46.5142 321.328C44.2349 321.328 42.7642 320.59 42.7642 319.359C42.7642 318.1 44.2349 317.373 46.5142 317.367ZM41.7681 316.605L41.7681 315.551L45.4946 315.551L45.4946 313.629L46.7837 313.629L46.7837 315.551L51.3774 315.551L51.3774 316.605L41.7681 316.605ZM42.8696 312.281L42.8696 311.25L50.2056 311.25L50.2056 312.129C50.2114 312.967 50.2114 313.857 49.9126 314.941L48.6235 314.824C48.8872 313.799 48.9048 313.049 48.9048 312.281L42.8696 312.281ZM44.0767 319.359C44.0649 319.98 44.9849 320.32 46.5142 320.32C48.0493 320.32 48.9751 319.98 48.9868 319.359C48.9751 318.715 48.0493 318.352 46.5142 318.352C44.9849 318.352 44.0649 318.715 44.0767 319.359ZM54.5884 316.781L54.5884 318L59.2876 318L59.2876 316.781L60.5767 316.781L60.5767 321.211L53.311 321.211L53.311 316.781L54.5884 316.781ZM52.1157 315.996L52.1157 314.953L59.0649 314.953C59.2876 313.834 59.311 312.99 59.311 312.246L53.311 312.246L53.311 311.203L60.6118 311.203L60.6118 312.023C60.6177 312.832 60.6177 313.711 60.354 314.953L61.7954 314.953L61.7954 315.996L52.1157 315.996ZM54.5884 320.156L59.2876 320.156L59.2876 319.008L54.5884 319.008L54.5884 320.156ZM66.272 313.289C66.2603 315.182 67.2095 317.092 68.8501 317.883L68.0532 318.926C66.9048 318.346 66.0786 317.227 65.6274 315.879C65.1645 317.32 64.2974 318.516 63.0845 319.125L62.2876 318.082C63.9927 317.273 64.9653 315.246 64.9712 313.289L64.9712 311.602L66.272 311.602L66.272 313.289ZM69.4829 321.34L69.4829 310.746L70.7837 310.746L70.7837 314.895L72.4126 314.895L72.4126 316.008L70.7837 316.008L70.7837 321.34L69.4829 321.34ZM55.8013 326.746L55.8013 333.039L54.5005 333.039L54.5005 330.449L52.6958 330.449L52.6958 329.383L54.5005 329.383L54.5005 326.746L55.8013 326.746ZM46.895 331.984C48.6001 331.398 49.4966 329.975 49.4966 328.574L49.4966 328.492L47.2935 328.492L47.2935 327.437L53.0122 327.437L53.0122 328.492L50.8208 328.492L50.8208 328.562C50.8208 329.852 51.6763 331.152 53.3169 331.703L52.6606 332.734C51.4829 332.336 50.6509 331.527 50.1821 330.531C49.7192 331.656 48.8345 332.57 47.5747 333.016L46.895 331.984ZM48.6177 335.324C48.606 334.053 49.9829 333.309 52.2153 333.309C54.4595 333.309 55.8306 334.053 55.8364 335.324C55.8306 336.596 54.4595 337.334 52.2153 337.34C49.9829 337.334 48.606 336.596 48.6177 335.324ZM49.9067 335.324C49.9009 335.98 50.7446 336.338 52.2153 336.332C53.6978 336.338 54.5356 335.98 54.5356 335.324C54.5356 334.662 53.6978 334.305 52.2153 334.305C50.7446 334.305 49.9009 334.662 49.9067 335.324ZM66.981 334.996L66.981 336.062L57.3013 336.062L57.3013 334.996L61.4731 334.996L61.4731 332.934L58.3677 332.934L58.3677 327.449L59.6685 327.449L59.6685 329.184L64.5786 329.184L64.5786 327.449L65.8794 327.449L65.8794 332.934L62.7622 332.934L62.7622 334.996L66.981 334.996ZM59.6685 331.879L64.5786 331.879L64.5786 330.227L59.6685 330.227L59.6685 331.879Z" fill="white"/>
<rect x="96.146" y="375.73" width="1" height="106.092" transform="rotate(-153.481 96.146 375.73)" fill="#DAE1F2"/>
<rect x="78.417" y="348.289" width="44" height="44" rx="22" fill="#641BDF"/>
<path d="M99.2217 356.738V362.422H97.9092V356.738H99.2217ZM90.585 359.691C90.585 358.221 91.8037 357.201 93.4443 357.207C95.0791 357.201 96.2979 358.221 96.292 359.691C96.2979 361.139 95.0791 362.158 93.4443 362.152C91.8037 362.158 90.585 361.139 90.585 359.691ZM91.8623 359.691C91.8564 360.541 92.5186 361.08 93.4443 361.086C94.3525 361.08 95.0146 360.541 95.0146 359.691C95.0146 358.842 94.3525 358.291 93.4443 358.297C92.5186 358.291 91.8564 358.842 91.8623 359.691ZM92.2139 367.203V362.914H93.5029V364.004H97.9209V362.914H99.2217V367.203H92.2139ZM93.5029 366.148H97.9209V365.023H93.5029V366.148ZM109.417 357.711V358.73C109.405 360.049 109.405 361.52 108.995 363.734L107.683 363.594C108.099 361.531 108.099 360.025 108.104 358.754H101.776V357.711H109.417ZM100.769 365.961V364.895H104.331V361.215H105.62V364.895H110.425V365.961H100.769ZM99.2686 372.738V379.031H97.9678V376.441H96.1631V375.375H97.9678V372.738H99.2686ZM90.3623 377.977C92.0674 377.391 92.9639 375.967 92.9639 374.566V374.484H90.7607V373.43H96.4795V374.484H94.2881V374.555C94.2881 375.844 95.1436 377.145 96.7842 377.695L96.1279 378.727C94.9502 378.328 94.1182 377.52 93.6494 376.523C93.1865 377.648 92.3018 378.562 91.042 379.008L90.3623 377.977ZM92.085 381.316C92.0732 380.045 93.4502 379.301 95.6826 379.301C97.9268 379.301 99.2979 380.045 99.3037 381.316C99.2979 382.588 97.9268 383.326 95.6826 383.332C93.4502 383.326 92.0732 382.588 92.085 381.316ZM93.374 381.316C93.3682 381.973 94.2119 382.33 95.6826 382.324C97.165 382.33 98.0029 381.973 98.0029 381.316C98.0029 380.654 97.165 380.297 95.6826 380.297C94.2119 380.297 93.3682 380.654 93.374 381.316ZM110.448 380.988V382.055H100.769V380.988H104.94V378.926H101.835V373.441H103.136V375.176H108.046V373.441H109.347V378.926H106.229V380.988H110.448ZM103.136 377.871H108.046V376.219H103.136V377.871Z" fill="white"/>
<rect x="108.95" y="245.285" width="80" height="80" rx="40" fill="#641BDF"/>
<path d="M126.825 282.066C126.817 284.246 128.129 286.73 130.356 287.77L129.387 289.145C127.793 288.395 126.614 286.879 125.981 285.113C125.34 287.051 124.106 288.707 122.481 289.488L121.465 288.129C123.715 287.059 125.083 284.418 125.09 282.066V280.879H122.012V279.441H129.778V280.879H126.825V282.066ZM131.09 292.176V278.051H132.825V283.551H134.997V285.004H132.825V292.176H131.09ZM147.84 278.051V292.176H146.184V285.02H144.731V291.488H143.09V278.301H144.731V283.582H146.184V278.051H147.84ZM135.356 288.066C137.45 286.879 138.293 284.418 138.293 281.66V280.988H135.778V279.598H142.293V280.988H139.981V281.66C139.981 284.168 140.825 286.488 142.918 287.566L141.903 288.895C140.559 288.168 139.676 286.926 139.176 285.395C138.7 287.152 137.817 288.566 136.418 289.395L135.356 288.066ZM157.309 279.098V279.941C157.293 280.902 157.293 282.309 156.965 284.098L155.247 283.941C155.528 282.488 155.583 281.402 155.598 280.535H150.106V279.098H157.309ZM149.262 285.223C150.098 285.215 151.036 285.207 152.028 285.191V282.316H153.747V285.137C155.208 285.074 156.708 284.965 158.075 284.77L158.168 286.02C155.231 286.551 151.895 286.605 149.418 286.613L149.262 285.223ZM151.372 291.895V287.691H153.122V290.488H161.137V291.895H151.372ZM158.903 288.629V278.051H160.684V282.457H162.512V283.91H160.684V288.629H158.903ZM175.012 278.051V292.191H173.293V278.051H175.012ZM164.012 280.691V279.285H170.668V284.582H165.809V287.426C168.036 287.41 169.95 287.293 172.153 286.926L172.309 288.348C169.911 288.762 167.801 288.855 165.262 288.848H164.028V283.207H168.903V280.691H164.012Z" fill="white"/>
<rect x="86.6592" y="92.2383" width="1" height="109.089" transform="rotate(-35 86.6592 92.2383)" fill="#DAE1F2"/>
<rect x="51.9497" y="62.2852" width="54" height="54" rx="27" fill="#0057FF"/>
<path d="M74.4146 76.3789C74.4087 79.1094 72.6099 81.0254 69.5278 81.8867L69.0005 80.8672C71.3735 80.2227 72.7798 78.9805 73.02 77.4336L69.5747 77.4336L69.5747 76.3789L74.4146 76.3789ZM70.8286 86.1875L70.8286 82.1328L77.8013 82.1328L77.8013 86.1875L70.8286 86.1875ZM72.106 85.1563L76.5122 85.1563L76.5122 83.1641L72.106 83.1641L72.106 85.1563ZM74.4614 79.4023L74.4614 78.3359L76.5005 78.3359L76.5005 75.7461L77.8013 75.7461L77.8013 81.7109L76.5005 81.7109L76.5005 79.4023L74.4614 79.4023ZM83.0864 78.2773C83.0747 80.1699 84.0239 82.0801 85.6646 82.8711L84.8677 83.9141C83.7192 83.334 82.8931 82.2148 82.4419 80.8672C81.979 82.3086 81.1118 83.5039 79.8989 84.1133L79.1021 83.0703C80.8071 82.2617 81.7798 80.2344 81.7856 78.2773L81.7856 76.5898L83.0864 76.5898L83.0864 78.2773ZM86.2974 86.3281L86.2974 75.7344L87.5981 75.7344L87.5981 79.8828L89.2271 79.8828L89.2271 80.9961L87.5981 80.9961L87.5981 86.3281L86.2974 86.3281ZM69.1411 95.1328C69.0649 94.4004 68.4497 93.9785 67.5356 93.9844C66.5688 93.9785 65.9946 94.4473 65.9888 95.0859C65.9829 95.8008 66.7388 96.0938 67.4419 96.2578L68.2388 96.4688C69.5044 96.7617 70.7231 97.4297 70.7231 98.9063C70.7231 100.395 69.5454 101.414 67.5122 101.414C65.5376 101.414 64.2837 100.465 64.2192 98.7891L65.7192 98.7891C65.7895 99.6738 66.5337 100.107 67.5005 100.113C68.5024 100.107 69.1938 99.6211 69.1997 98.8945C69.1938 98.2266 68.5845 97.9453 67.6645 97.7109L66.7036 97.4648C65.3091 97.1016 64.4419 96.3984 64.4419 95.1797C64.4419 93.6797 65.772 92.6836 67.5591 92.6836C69.3579 92.6836 70.5825 93.6973 70.606 95.1328L69.1411 95.1328ZM71.9888 101.285L71.9888 92.8008L75.1763 92.8008C77.1216 92.8008 78.1587 93.9844 78.1646 95.6133C78.1587 97.2363 77.1099 98.4141 75.1528 98.4141L73.5122 98.4141L73.5122 101.285L71.9888 101.285ZM73.5122 97.1602L74.9419 97.1602C76.0903 97.1543 76.606 96.5098 76.606 95.6133C76.606 94.7051 76.0903 94.0781 74.9419 94.0781L73.5122 94.0781L73.5122 97.1602ZM79.395 101.285L79.395 92.8008L84.9146 92.8008L84.9146 94.0781L80.9185 94.0781L80.9185 96.3984L84.6216 96.3984L84.6216 97.6758L80.9185 97.6758L80.9185 99.9961L84.938 99.9961L84.938 101.285L79.395 101.285ZM92.0981 95.6602C91.9165 94.6406 91.1021 94.0547 90.0708 94.0547C88.6821 94.0547 87.6978 95.1211 87.7036 97.043C87.6978 98.9941 88.688 100.031 90.0708 100.031C91.0786 100.031 91.8931 99.4688 92.0981 98.4727L93.6333 98.4727C93.3989 100.102 92.0571 101.402 90.0474 101.402C87.8091 101.402 86.1626 99.7793 86.1685 97.043C86.1626 94.3008 87.8267 92.6836 90.0474 92.6836C91.9224 92.6836 93.3696 93.7734 93.6333 95.6602L92.0981 95.6602Z" fill="white"/>
<rect x="49.5376" y="142.594" width="1" height="124.397" transform="rotate(-70 49.5376 142.594)" fill="#DAE1F2"/>
<rect x="48.8945" y="126.238" width="44" height="44" rx="22" fill="#0057FF"/>
<path d="M66.3594 135.332C66.3535 138.062 64.5547 139.979 61.4727 140.84L60.9453 139.82C63.3184 139.176 64.7246 137.934 64.9648 136.387H61.5195V135.332H66.3594ZM62.7734 145.141V141.086H69.7461V145.141H62.7734ZM64.0508 144.109H68.457V142.117H64.0508V144.109ZM66.4062 138.355V137.289H68.4453V134.699H69.7461V140.664H68.4453V138.355H66.4062ZM75.0312 137.23C75.0195 139.123 75.9688 141.033 77.6094 141.824L76.8125 142.867C75.6641 142.287 74.8379 141.168 74.3867 139.82C73.9238 141.262 73.0566 142.457 71.8438 143.066L71.0469 142.023C72.752 141.215 73.7246 139.188 73.7305 137.23V135.543H75.0312V137.23ZM78.2422 145.281V134.688H79.543V138.836H81.1719V139.949H79.543V145.281H78.2422ZM69.2305 150.688V153.477H70.707V154.566H69.2305V157.449H67.9297V150.688H69.2305ZM60.8867 152.785V151.766H63.3828V150.617H64.6836V151.766H67.168V152.785H60.8867ZM61.4258 155.105C61.4258 153.969 62.4805 153.213 64.0273 153.207C65.5566 153.213 66.6113 153.969 66.6172 155.105C66.6113 156.242 65.5566 156.992 64.0273 156.992C62.4805 156.992 61.4258 156.242 61.4258 155.105ZM62.2695 159.406C62.2578 158.229 63.6113 157.537 65.8086 157.543C67.9824 157.537 69.3477 158.229 69.3477 159.406C69.3477 160.572 67.9824 161.27 65.8086 161.27C63.6113 161.27 62.2578 160.572 62.2695 159.406ZM62.6914 155.105C62.6855 155.68 63.2246 156.014 64.0273 156.008C64.8301 156.014 65.375 155.68 65.375 155.105C65.375 154.52 64.8301 154.168 64.0273 154.168C63.2246 154.168 62.6855 154.52 62.6914 155.105ZM63.5586 159.406C63.5527 159.969 64.3613 160.285 65.8086 160.285C67.2383 160.285 68.041 159.969 68.0469 159.406C68.041 158.826 67.2383 158.539 65.8086 158.539C64.3613 158.539 63.5527 158.826 63.5586 159.406ZM79.6719 151.121V154.801H76.7188V155.914H80.9023V156.969H71.2461V155.914H75.4062V154.801H72.4648V151.121H79.6719ZM72.3125 158.891V157.859H79.7188V161.281H78.418V158.891H72.3125ZM73.7305 153.77H78.3828V152.141H73.7305V153.77Z" fill="white"/>
<rect x="48.0107" y="205.133" width="1" height="133.634" transform="rotate(-105 48.0107 205.133)" fill="#DAE1F2"/>
<rect x="26.9497" y="183.285" width="44" height="44" rx="22" fill="#0057FF"/>
<path d="M44.4146 192.379C44.4087 195.109 42.6099 197.025 39.5278 197.887L39.0005 196.867C41.3735 196.223 42.7798 194.98 43.02 193.434H39.5747V192.379H44.4146ZM40.8286 202.188V198.133H47.8013V202.188H40.8286ZM42.106 201.156H46.5122V199.164H42.106V201.156ZM44.4614 195.402V194.336H46.5005V191.746H47.8013V197.711H46.5005V195.402H44.4614ZM53.0864 194.277C53.0747 196.17 54.0239 198.08 55.6646 198.871L54.8677 199.914C53.7192 199.334 52.8931 198.215 52.4419 196.867C51.979 198.309 51.1118 199.504 49.8989 200.113L49.1021 199.07C50.8071 198.262 51.7798 196.234 51.7856 194.277V192.59H53.0864V194.277ZM56.2974 202.328V191.734H57.5981V195.883H59.2271V196.996H57.5981V202.328H56.2974ZM47.8013 207.734V213.102H46.5005V212.176H43.9458V211.18H46.5005V210.137H44.0806C43.4243 211.754 41.8716 212.809 39.5278 213.336L39.0708 212.27C41.561 211.748 42.8032 210.652 42.9849 209.246H39.6567V208.191H44.438C44.438 208.525 44.4087 208.842 44.3618 209.141H46.5005V207.734H47.8013ZM40.8286 214.543V213.512H47.8013V216.301H42.1411V217.18H48.0825V218.223H40.8403V215.328H46.5005V214.543H40.8286ZM55.2192 208.836V209.586C55.2192 210.529 55.2192 211.865 54.9263 213.688L53.6372 213.582C53.895 211.977 53.9243 210.787 53.9302 209.879H49.77V208.836H55.2192ZM49.2075 215.059C49.8345 215.053 50.5317 215.047 51.2583 215.029V211.859H52.5474V214.988C53.6255 214.941 54.7329 214.865 55.7466 214.742L55.8169 215.715C53.6313 216.072 51.2056 216.113 49.3364 216.102L49.2075 215.059ZM56.2974 218.328V207.734H57.6099V212.047H59.145V213.148H57.6099V218.328H56.2974Z" fill="white"/>
<rect x="107.95" y="136.285" width="80" height="80" rx="40" fill="#0057FF"/>
<path d="M147.465 165.238V166.629H141.872V167.988H145.903V172.504H136.106V167.988H140.153V166.629H134.59V165.238H147.465ZM135.747 160.363V158.973H146.278V160.363H144.34V162.785H146.2V164.191H135.825V162.785H137.684V160.363H135.747ZM137.825 171.098H144.215V169.332H137.825V171.098ZM139.418 162.785H142.59V160.363H139.418V162.785ZM160.153 158.551V165.832H158.434V158.551H160.153ZM148.528 164.566C150.723 163.918 151.934 162.324 152.02 160.66H148.981V159.254H156.747V160.66H153.786C153.864 162.223 155.059 163.707 157.247 164.301L156.403 165.645C154.754 165.168 153.575 164.168 152.934 162.887C152.293 164.301 151.067 165.418 149.325 165.941L148.528 164.566ZM150.809 167.754V166.426H160.184V170.066H152.543V171.207H160.606V172.551H150.84V168.801H158.45V167.754H150.809ZM142.481 180.598V181.441C142.465 182.402 142.465 183.809 142.137 185.598L140.418 185.441C140.7 183.988 140.754 182.902 140.77 182.035H135.278V180.598H142.481ZM134.434 186.723C135.27 186.715 136.208 186.707 137.2 186.691V183.816H138.918V186.637C140.379 186.574 141.879 186.465 143.247 186.27L143.34 187.52C140.403 188.051 137.067 188.105 134.59 188.113L134.434 186.723ZM136.543 193.395V189.191H138.293V191.988H146.309V193.395H136.543ZM144.075 190.129V179.551H145.856V183.957H147.684V185.41H145.856V190.129H144.075ZM160.184 179.551V193.691H158.465V179.551H160.184ZM149.184 182.191V180.785H155.84V186.082H150.981V188.926C153.208 188.91 155.122 188.793 157.325 188.426L157.481 189.848C155.083 190.262 152.973 190.355 150.434 190.348H149.2V184.707H154.075V182.191H149.184Z" fill="white"/>
<rect x="192.95" y="180.285" width="100" height="100" rx="50" fill="#050505"/>
<path d="M206.67 223.145H209.795L213.995 233.418H214.17L218.37 223.145H221.495V237.285H219.053V227.559H218.917L214.991 237.246H213.174L209.249 227.52H209.131V237.285H206.67V223.145ZM223.506 234.297C223.506 231.914 225.489 231.221 227.452 231.094C228.194 231.035 229.708 230.967 230.176 230.947L230.167 230.098C230.167 229.043 229.493 228.438 228.252 228.438C227.139 228.438 226.456 228.945 226.26 229.707H223.858C224.034 227.9 225.655 226.543 228.311 226.543C230.323 226.543 232.647 227.373 232.647 230.195V237.285H230.264V235.82H230.186C229.717 236.719 228.731 237.5 227.061 237.5C225.04 237.5 223.506 236.396 223.506 234.297ZM225.909 234.277C225.909 235.195 226.661 235.664 227.706 235.664C229.219 235.664 230.186 234.668 230.186 233.477L230.176 232.607C229.727 232.627 228.34 232.715 227.842 232.754C226.661 232.852 225.909 233.35 225.909 234.277ZM240.284 226.68V228.594H238.194V234.102C238.194 235.117 238.702 235.322 239.327 235.332C239.62 235.342 240.108 235.312 240.42 235.293V237.324C240.127 237.373 239.649 237.432 239.014 237.422C237.139 237.432 235.694 236.504 235.713 234.512V228.594H234.19V226.68H235.713V224.141H238.194V226.68H240.284ZM246.788 237.5C243.594 237.5 241.631 235.371 241.631 232.051C241.631 228.77 243.624 226.543 246.651 226.543C249.249 226.543 251.495 228.174 251.495 231.895V232.676H244.092C244.131 234.482 245.196 235.557 246.807 235.547C247.901 235.557 248.633 235.088 248.956 234.453H251.397C250.948 236.289 249.249 237.5 246.788 237.5ZM244.102 230.977H249.112C249.102 229.531 248.125 228.477 246.69 228.477C245.196 228.477 244.19 229.629 244.102 230.977ZM253.428 237.285V226.68H255.85V228.438H255.967C256.348 227.217 257.364 226.523 258.584 226.523C258.858 226.523 259.249 226.553 259.483 226.582V228.887C259.258 228.809 258.741 228.74 258.331 228.73C256.944 228.74 255.928 229.697 255.928 231.035V237.285H253.428ZM260.967 237.285V226.68H263.467V237.285H260.967ZM260.792 223.809C260.792 223.066 261.446 222.461 262.237 222.461C263.028 222.461 263.682 223.066 263.682 223.809C263.682 224.561 263.028 225.166 262.237 225.176C261.446 225.166 260.792 224.561 260.792 223.809ZM265.362 234.297C265.362 231.914 267.344 231.221 269.307 231.094C270.049 231.035 271.563 230.967 272.032 230.947L272.022 230.098C272.022 229.043 271.348 228.438 270.108 228.438C268.995 228.438 268.311 228.945 268.116 229.707H265.713C265.889 227.9 267.51 226.543 270.167 226.543C272.178 226.543 274.502 227.373 274.502 230.195V237.285H272.12V235.82H272.042C271.573 236.719 270.586 237.5 268.917 237.5C266.895 237.5 265.362 236.396 265.362 234.297ZM267.764 234.277C267.764 235.195 268.516 235.664 269.561 235.664C271.075 235.664 272.042 234.668 272.042 233.477L272.032 232.607C271.583 232.627 270.196 232.715 269.698 232.754C268.516 232.852 267.764 233.35 267.764 234.277ZM279.346 223.145V237.285H276.846V223.145H279.346Z" fill="white"/>
</g>
<defs>
<clipPath id="clip0_3438_10365">
<rect width="472" height="444" fill="white"/>
</clipPath>
</defs>
</svg>
