<svg width="74" height="74" viewBox="0 0 74 74" fill="none" xmlns="http://www.w3.org/2000/svg">
<path d="M60.9557 10.543H3.63559C2.91619 10.543 2.33301 11.1323 2.33301 11.8594V56.8074C2.33301 57.5345 2.91619 58.1238 3.63559 58.1238H60.9557C61.6751 58.1238 62.2583 57.5345 62.2583 56.8074V11.8594C62.2583 11.1323 61.6751 10.543 60.9557 10.543Z" stroke="white" stroke-width="1.5" stroke-linecap="round" stroke-linejoin="round"/>
<path d="M36.0093 24.3477H27.5715V29.7109H36.0093V24.3477Z" stroke="white" stroke-width="1.5" stroke-linecap="round" stroke-linejoin="round"/>
<path d="M62.1835 20.3047L58.2497 24.2736H6.18558L2.2583 20.3047" stroke="white" stroke-width="1.5" stroke-linecap="round" stroke-linejoin="round"/>
<path d="M45.5018 9.63348V5.85573C45.5018 3.79541 43.5206 2.125 41.0887 2.125H23.5468C21.1097 2.125 19.1338 3.79984 19.1338 5.85573V9.63348" stroke="white" stroke-width="1.5" stroke-linecap="square" stroke-linejoin="round"/>
<path d="M71.1176 65.7267C70.6641 66.4798 70.1453 67.1867 69.5727 67.8476C66.8209 71.0059 62.7741 73 58.2583 73C49.9762 73 43.2583 66.2838 43.2583 58.0038C43.2583 49.7239 49.9724 43 58.2583 43C66.5442 43 73.2583 49.7162 73.2583 57.9962C73.2583 60.021 72.8586 61.9498 72.1284 63.7134" fill="#80ABFF"/>
<path d="M58.2585 59.7932C59.2697 59.7932 60.0893 58.9738 60.0893 57.963C60.0893 56.9522 59.2697 56.1328 58.2585 56.1328C57.2474 56.1328 56.4277 56.9522 56.4277 57.963C56.4277 58.9738 57.2474 59.7932 58.2585 59.7932Z" fill="white"/>
<path d="M58.2625 52.2031V56.7675" stroke="white" stroke-width="1.54168" stroke-linecap="round" stroke-linejoin="round"/>
<path d="M57.3732 58.8203L52.1821 63.421" stroke="white" stroke-width="1.54168" stroke-linecap="round" stroke-linejoin="round"/>
</svg>
