<svg width="90" height="90" viewBox="0 0 90 90" fill="none" xmlns="http://www.w3.org/2000/svg">
<path d="M56.6494 58.1899C53.4938 61.0863 49.2637 62.8585 44.6098 62.8585C34.8631 62.8585 26.9629 55.085 26.9629 45.4947C26.9629 35.9044 34.8631 28.1309 44.6098 28.1309C54.3565 28.1309 62.2567 35.9044 62.2567 45.4947C62.2567 49.0836 61.1519 52.4119 59.2601 55.1817" stroke="#050505" stroke-width="1.5" stroke-linecap="round" stroke-linejoin="round"/>
<path d="M72.6518 60.2621L64.5059 52.2852" stroke="#050505" stroke-width="1.5" stroke-linecap="round" stroke-linejoin="round"/>
<path d="M71.5059 63.1862C71.5059 60.9673 73.3296 59.1729 75.5846 59.1729C77.8397 59.1729 79.6634 60.9673 79.6634 63.1862C79.6634 65.4051 77.8397 67.1995 75.5846 67.1995C73.3296 67.1995 71.5059 65.4051 71.5059 63.1862Z" stroke="#050505" stroke-width="1.5" stroke-linecap="round" stroke-linejoin="round"/>
<path d="M72.6518 28.1787L64.5059 36.1563" stroke="#050505" stroke-width="1.5" stroke-linecap="round" stroke-linejoin="round"/>
<path d="M71.5059 25.2555C71.5059 27.4744 73.3296 29.2688 75.5846 29.2688C77.8397 29.2688 79.6634 27.4744 79.6634 25.2555C79.6634 23.0366 77.8397 21.2422 75.5846 21.2422C73.3296 21.2422 71.5059 23.0366 71.5059 25.2555Z" stroke="#050505" stroke-width="1.5" stroke-linecap="round" stroke-linejoin="round"/>
<path d="M64.7656 44.6543H70.8997" stroke="#050505" stroke-width="1.5" stroke-linecap="round" stroke-linejoin="round"/>
<path d="M71.5049 44.2204C71.5049 42.0015 73.3286 40.207 75.5837 40.207C77.8387 40.207 79.6624 42.0015 79.6624 44.2204C79.6624 46.4392 77.8387 48.2337 75.5837 48.2337C73.3286 48.2337 71.5049 46.4392 71.5049 44.2204Z" stroke="#050505" stroke-width="1.5" stroke-linecap="round" stroke-linejoin="round"/>
<path d="M16.5699 60.2621L24.7158 52.2852" stroke="#050505" stroke-width="1.5" stroke-linecap="round" stroke-linejoin="round"/>
<path d="M17.7158 63.1862C17.7158 60.9673 15.8921 59.1729 13.6371 59.1729C11.382 59.1729 9.55828 60.9673 9.55828 63.1862C9.55828 65.4051 11.382 67.1995 13.6371 67.1995C15.8921 67.1995 17.7158 65.4051 17.7158 63.1862Z" stroke="#050505" stroke-width="1.5" stroke-linecap="round" stroke-linejoin="round"/>
<path d="M16.5699 28.1787L24.7158 36.1563" stroke="#050505" stroke-width="1.5" stroke-linecap="round" stroke-linejoin="round"/>
<path d="M17.7158 25.2555C17.7158 27.4744 15.8921 29.2688 13.6371 29.2688C11.382 29.2688 9.55828 27.4744 9.55828 25.2555C9.55828 23.0366 11.382 21.2422 13.6371 21.2422C15.8921 21.2422 17.7158 23.0366 17.7158 25.2555Z" stroke="#050505" stroke-width="1.5" stroke-linecap="round" stroke-linejoin="round"/>
<path d="M24.457 44.6543H18.323" stroke="#050505" stroke-width="1.5" stroke-linecap="round" stroke-linejoin="round"/>
<path d="M17.7168 44.2204C17.7168 42.0015 15.8931 40.207 13.638 40.207C11.383 40.207 9.55926 42.0015 9.55926 44.2204C9.55926 46.4392 11.383 48.2337 13.638 48.2337C15.8931 48.2337 17.7168 46.4392 17.7168 44.2204Z" stroke="#050505" stroke-width="1.5" stroke-linecap="round" stroke-linejoin="round"/>
<path fill-rule="evenodd" clip-rule="evenodd" d="M36.9977 50.6572C36.3602 49.7182 35.9038 48.6566 35.6774 47.5135H33.7725V44.1136H35.6774C35.9 42.9705 36.3602 41.9015 36.9977 40.9699L35.6548 39.6412L38.0879 37.2361L39.4383 38.5648C40.3889 37.9413 41.4753 37.4922 42.6371 37.2583V35.3877H46.0962V37.262C47.2581 37.4885 48.3407 37.9413 49.295 38.5685L50.6455 37.2398L53.0786 39.6412L51.7357 40.9699C52.3732 41.909 52.8296 42.9705 53.0559 44.1136H54.9609V47.5135H53.0559C52.8334 48.6566 52.3732 49.7256 51.7357 50.6572L53.0786 51.9859L50.6455 54.3911L49.295 53.0623C48.3444 53.6858 47.2581 54.1349 46.0962 54.3688V56.2394H42.6371V54.3651C41.4753 54.1387 40.3927 53.6858 39.4383 53.0586L38.0879 54.3873L35.6548 51.9859L36.9977 50.6572ZM44.3309 50.9764C47.2475 50.9764 49.6119 48.65 49.6119 45.7802C49.6119 42.9104 47.2475 40.584 44.3309 40.584C41.4142 40.584 39.0498 42.9104 39.0498 45.7802C39.0498 48.65 41.4142 50.9764 44.3309 50.9764Z" fill="#80ABFF"/>
</svg>
