<svg width="74" height="74" viewBox="0 0 74 74" fill="none" xmlns="http://www.w3.org/2000/svg">
<path d="M35.7992 10.7383C35.7992 11.6292 35.5239 12.4509 35.0651 13.1009C34.4366 13.9918 33.4594 14.5626 32.3629 14.5626H17.3834C16.2869 14.5626 15.3096 13.9918 14.6811 13.1009C14.2223 12.4509 13.947 11.6292 13.947 10.7383C13.947 10.0388 14.1168 9.38219 14.415 8.81795C15.0068 7.67958 16.1125 6.91406 17.3834 6.91406H32.3629C33.6337 6.91406 34.7394 7.67958 35.3312 8.81795C35.6295 9.38219 35.7992 10.0388 35.7992 10.7383Z" stroke="white" stroke-width="1.58039" stroke-linecap="round" stroke-linejoin="round"/>
<path d="M22.6212 24.9626C22.6212 25.2632 22.3775 25.507 22.0768 25.507H18.28C17.9793 25.507 17.7356 25.7507 17.7356 26.0514V30.7229C17.7356 31.0236 17.9793 31.2674 18.28 31.2674H22.0768C22.3775 31.2674 22.6212 31.5111 22.6212 31.8118V35.6088C22.6212 35.9095 22.8649 36.1532 23.1656 36.1532H27.8369C28.1375 36.1532 28.3813 35.9095 28.3813 35.6088V31.8118C28.3813 31.5111 28.625 31.2674 28.9257 31.2674H32.7225C33.0231 31.2674 33.2669 31.0236 33.2669 30.7229V26.0514C33.2669 25.7507 33.0231 25.507 32.7224 25.507H28.9257C28.625 25.507 28.3813 25.2632 28.3813 24.9626V21.1655C28.3813 20.8648 28.1375 20.6211 27.8369 20.6211H23.1656C22.8649 20.6211 22.6212 20.8648 22.6212 21.1655V24.9626Z" fill="#80ABFF"/>
<path d="M13.3015 10.5859H5.46875C4.36418 10.5859 3.46875 11.4814 3.46875 12.5859V62.1013C3.46875 63.2059 4.36418 64.1013 5.46875 64.1013H44.0772C45.1818 64.1013 46.0772 63.2059 46.0772 62.1013V12.5859C46.0772 11.4814 45.1818 10.5859 44.0772 10.5859H36.2445" stroke="white" stroke-width="1.58039"/>
<path d="M51.0643 24.7617C49.6405 24.7617 48.4868 25.9153 48.4868 27.3349V37.3615C48.4868 37.3615 48.8042 44.3819 55.9963 46.2818" stroke="white" stroke-width="1.58039" stroke-miterlimit="10"/>
<path d="M69.1105 24.7617C70.5343 24.7617 71.688 25.9153 71.688 27.3349V37.3615C71.688 37.3615 71.3706 44.3819 64.1785 46.2818" stroke="white" stroke-width="1.58039" stroke-miterlimit="10"/>
<path d="M60.2847 50.5005V57.668C60.2847 63.8433 55.2823 68.8485 49.1103 68.8485C42.9384 68.8485 37.936 63.8433 37.936 57.668V41.9297" stroke="white" stroke-width="1.58039" stroke-linecap="round" stroke-linejoin="round"/>
<ellipse cx="37.9364" cy="40.693" rx="4.9664" ry="4.96642" fill="#80ABFF"/>
<ellipse cx="2.4832" cy="2.48321" rx="2.4832" ry="2.48321" transform="matrix(1 0 0 -1 35.4529 43.1719)" fill="white"/>
<path d="M55.9808 45.0078C55.8734 45.0078 55.7864 45.0949 55.7864 45.2023V47.9488C55.7864 48.0562 55.8734 48.1433 55.9808 48.1433H55.9933C56.6473 48.1608 58.6887 48.3882 59.1386 50.5176C59.1583 50.6106 59.239 50.6804 59.3342 50.6804H60.7453C60.8404 50.6804 60.9212 50.6106 60.9408 50.5176C61.3908 48.3882 63.4322 48.1608 64.0862 48.1433H64.0986C64.206 48.1433 64.2931 48.0562 64.2931 47.9488V45.2023C64.2931 45.0949 64.206 45.0078 64.0986 45.0078H55.9808Z" fill="#80ABFF"/>
<path d="M56.1789 24.6995C56.1789 25.2169 55.7812 25.6473 55.2654 25.6882L51.4136 25.9935C50.8367 26.0392 50.3434 25.5835 50.3434 25.0048V22.9056C50.3434 22.3269 50.8367 21.8711 51.4136 21.9169L55.2654 22.2222C55.7812 22.2631 56.1789 22.6935 56.1789 23.2109V24.6995Z" fill="#80ABFF"/>
<path d="M63.999 24.6995C63.999 25.2169 64.3967 25.6473 64.9124 25.6882L68.7643 25.9935C69.3411 26.0392 69.8345 25.5835 69.8345 25.0048V22.9056C69.8345 22.3269 69.3411 21.8711 68.7643 21.9169L64.9124 22.2222C64.3967 22.2631 63.999 22.6935 63.999 23.2109V24.6995Z" fill="#80ABFF"/>
</svg>
