<svg width="121" height="120" viewBox="0 0 121 120" fill="none" xmlns="http://www.w3.org/2000/svg">
<circle cx="60.6665" cy="66" r="50" fill="#F4F4F4"/>
<mask id="mask0_3368_40569" style="mask-type:alpha" maskUnits="userSpaceOnUse" x="4" y="-4" width="107" height="120">
<path d="M110.667 66C110.667 93.6142 88.2807 116 60.6665 116C36.1249 116 15.7129 98.3188 11.4743 75C10.9437 72.0805 4.6665 67.5726 4.6665 64.5C4.6665 60.7271 6.37451 56.1786 7.1665 52C12.1712 25.5949 36.8251 -4 60.6665 -4C88.2807 -4 110.667 38.3858 110.667 66Z" fill="#F4F4F4"/>
</mask>
<g mask="url(#mask0_3368_40569)">
<path d="M42.2254 46C42.2254 46 40.8754 47.89 35.5254 50.49" stroke="#70747D" stroke-linecap="round" stroke-linejoin="round"/>
<path d="M46.2357 46.8496C46.2357 46.8496 41.8057 50.8996 36.3057 52.5596" stroke="#70747D" stroke-linecap="round" stroke-linejoin="round"/>
<path d="M35.5855 49.1299C34.7755 48.4199 33.5655 47.8699 32.4655 48.0999C31.1555 48.3799 30.6355 49.8799 31.4055 50.9399C31.7055 51.3499 32.1555 51.6399 32.6455 51.7399C31.3255 51.4599 30.2355 53.2199 30.8355 54.4399C31.7955 56.3699 33.5455 56.1699 34.6855 55.2899C34.5455 55.3999 35.0455 56.0199 35.1455 56.1199C35.9855 56.9399 37.4155 56.6099 37.9355 55.5999C38.2755 54.9299 38.1955 54.0799 37.7855 53.4599" stroke="#70747D" stroke-linecap="round" stroke-linejoin="round"/>
<path d="M86.3948 106.179L86.3948 106.193L86.3393 128.684H97.8881C97.893 128.153 97.9 127.556 97.9079 126.892C97.9654 122.027 98.0655 113.565 97.6573 101.511M86.3948 106.179L98.157 101.494M86.3948 106.179L86.3941 106.165M86.3948 106.179L86.3941 106.165M97.6573 101.511L98.157 101.494M97.6573 101.511C97.6573 101.511 97.6573 101.511 97.6573 101.511L98.157 101.494M97.6573 101.511C97.3376 92.1124 97.3944 84.8994 97.5312 80.0338C97.5997 77.6011 97.6881 75.7551 97.7596 74.5163C97.7953 73.8968 97.8268 73.4291 97.8494 73.1157C97.8607 72.959 97.8698 72.8409 97.8761 72.7616L97.8818 72.6905M98.157 101.494C97.5183 82.7178 98.3841 72.6838 98.3841 72.6838M97.8818 72.6905C97.8835 72.7061 97.8853 72.7218 97.887 72.7376L98.3841 72.6838M97.8818 72.6905L97.8833 72.672L97.8852 72.6491L97.8857 72.6431L97.8859 72.6415L97.8859 72.6411C97.8859 72.641 97.8859 72.6409 98.3841 72.6838M97.8818 72.6905L98.3841 72.6838M86.3941 106.165L85.6845 92.8388L85.6841 92.8315M86.3941 106.165L85.6841 92.8315M85.6841 92.8315L85.6835 92.8241M85.6841 92.8315L85.6835 92.8241M85.6835 92.8241L85.1852 92.8654L85.6835 92.8241ZM90.7553 62.1069C90.7553 62.1069 90.7553 62.107 90.3512 61.8125L90.094 62.2412C90.2017 62.3059 90.3532 62.3755 90.5179 62.4475C90.5489 62.4019 90.5772 62.3607 90.6026 62.3239C90.6527 62.2514 90.6914 62.1964 90.7174 62.1599L90.7465 62.1192L90.7535 62.1095L90.755 62.1073L90.7553 62.1069L90.7553 62.1069ZM85.8283 72.7544C85.8284 72.7543 85.8284 72.7542 85.8284 72.7541L85.3413 72.6413L85.8283 72.7544ZM85.838 129.184H86.338H85.838Z" fill="#F4F4F4" stroke="#050505"/>
<path d="M63.9306 101.925C52.7471 84.4395 54.5495 55.5723 54.5495 55.5723H73.3118C73.3118 55.5723 75.1142 84.4395 63.9306 101.925Z" fill="#F4F4F4" stroke="#050505" stroke-linecap="round" stroke-linejoin="round"/>
<path d="M55.7559 64.2857C58.424 56.2528 57.8138 44.6719 57.8138 44.6719H70.5159C70.5159 44.6719 69.5792 55.6993 72.4461 64.2857H55.7559Z" fill="#F4F4F4" stroke="#050505" stroke-linecap="round" stroke-linejoin="round"/>
<path d="M62.0857 69.5352H65.719L67.2801 75.0986L68.7136 116.952L63.8456 123.793L59.1621 116.952L60.5955 75.0986L62.0857 69.5352Z" fill="#80ABFF"/>
<path d="M59.6589 64.4391C59.6305 62.5515 62.2419 62.438 64.016 62.4096C65.79 62.3954 68.4582 62.4522 68.4724 64.3398C68.5008 66.2274 66.528 70.2438 64.0727 70.2438C61.6033 70.2438 59.6731 66.3409 59.6589 64.4533V64.4391Z" fill="#80ABFF"/>
<path d="M39.2076 102.944L37.8877 63.0351C37.8877 63.0351 54.4786 55.0448 54.5495 56.237C54.8617 61.5449 51.7252 62.4106 64.1861 86.7221C76.5477 64.2698 73.2267 61.5165 73.5389 56.2086C73.6099 55.0164 90.6407 63.0493 90.6407 63.0493L89.1789 102.93L90.6407 124.814L89.1789 130.619L39.3069 130.676L37.8877 123.395L39.2076 102.93V102.944Z" fill="#F4F4F4"/>
<path d="M39.1182 62.743C39.1182 62.743 54.4787 55.0466 54.5496 56.2388C54.8619 61.5467 51.7254 62.4125 64.1863 86.724C76.5478 64.2717 73.2268 61.5183 73.539 56.2104C73.61 55.0182 90.2804 62.2772 90.2804 62.2772L89.179 102.932L90.6408 124.816L89.179 130.621L39.3071 130.678V104" stroke="#050505"/>
<path d="M64.1862 86.7383C64.1862 86.7383 63.7321 110.553 64.1862 129.557" stroke="#050505" stroke-linecap="round" stroke-linejoin="round"/>
<path d="M53.9107 79.3008H43.1104V81.4296L48.2764 83.0334L53.9107 81.5716V80.5639" stroke="#050505" stroke-linecap="round" stroke-linejoin="round"/>
<path d="M53.9107 81.8677L53.5559 90.0851C53.5275 90.6244 53.0734 91.0501 52.5198 91.0501H44.8844C44.3451 91.0501 43.9051 90.6386 43.8625 90.0993L43.1245 81.4277" stroke="#050505" stroke-linecap="round" stroke-linejoin="round"/>
<path d="M85.1768 79.3008H74.3765V81.4296L79.7696 83.0334L85.1768 81.5716V80.5639" stroke="#050505" stroke-linecap="round" stroke-linejoin="round"/>
<path d="M85.1768 81.8677L84.822 90.0851C84.7936 90.6244 84.3395 91.0501 83.786 91.0501H76.1505C75.6112 91.0501 75.1712 90.6386 75.1286 90.0993L74.3906 81.4277" stroke="#050505" stroke-linecap="round" stroke-linejoin="round"/>
<path d="M73.1273 58.1541C73.1841 57.9838 70.6862 53.8112 70.7146 54.0809C70.9559 56.3233 69.7779 58.367 64.4274 61.9719C64.0158 62.2557 66.1163 63.5188 68.4722 66.187C70.2179 68.1597 71.481 71.5517 71.481 71.5517C74.4472 64.2852 73.1273 58.1541 73.1273 58.1541Z" fill="#F4F4F4" stroke="#050505" stroke-linecap="round" stroke-linejoin="round"/>
<path d="M54.6775 57.1057C54.6207 56.9354 57.6721 53.6711 57.6437 53.955C57.4024 56.1974 58.7507 58.5817 64.1154 62.1866C64.4986 62.442 61.3053 63.7051 59.5313 66.3023C57.9134 68.6583 56.6644 71.5535 56.6644 71.5535C53.7692 64.0883 54.6775 57.1057 54.6775 57.1057Z" fill="#F4F4F4" stroke="#050505" stroke-linecap="round" stroke-linejoin="round"/>
<path d="M57.4448 54.0101C57.4448 54.0101 54.9896 53.0309 52.8749 56.0964C52.8749 56.0964 46.6019 64.0299 46.9141 71.5519C46.9141 71.5519 59.8397 76.8191 61.4435 81.3465C61.4435 81.3465 51.1151 61.8869 57.4448 54.0243V54.0101Z" fill="#F4F4F4" stroke="#050505" stroke-linecap="round" stroke-linejoin="round"/>
<path d="M70.8993 54.0101C70.8993 54.0101 73.3546 53.0309 75.4693 56.0964C75.4693 56.0964 81.7423 64.0299 81.4301 71.5519C81.4301 71.5519 68.6144 76.8191 67.0249 81.3465C67.0249 81.3465 77.2433 61.8869 70.8993 54.0243V54.0101Z" fill="#F4F4F4" stroke="#050505" stroke-linecap="round" stroke-linejoin="round"/>
<path d="M53.1188 35.6856C53.8545 37.8934 55.3977 41.7347 53.3521 42.4168C51.3244 43.0989 49.1172 42.2553 47.1613 37.9652C46.1923 35.8471 47.0178 33.029 49.0455 32.3469C51.0732 31.6648 52.3651 33.4778 53.1009 35.6856H53.1188Z" fill="#F4F4F4" stroke="#050505" stroke-linecap="round" stroke-linejoin="round"/>
<path d="M76.1775 35.6856C75.4418 37.8934 73.8986 41.7347 75.9442 42.4168C77.9719 43.0989 80.1791 42.2553 82.135 37.9652C83.104 35.8471 82.2786 33.029 80.2509 32.3469C78.2232 31.6648 76.9312 33.4778 76.1954 35.6856H76.1775Z" fill="#F4F4F4" stroke="#050505" stroke-linecap="round" stroke-linejoin="round"/>
<path d="M78.2414 28.5066C78.044 40.6587 75.4421 53.6903 64.5499 53.6903C52.9579 53.6903 50.8584 38.9893 50.8584 28.5066C50.8584 18.0239 57.3542 10.6465 64.9267 10.6465C72.4992 10.6465 78.4209 18.0239 78.2594 28.5066H78.2414Z" fill="#F4F4F4"/>
<path d="M71.9334 35.396C71.8938 35.8912 71.5016 36.1941 71.1475 36.1633C70.7895 36.1322 70.4541 35.7682 70.4938 35.2715C70.5334 34.7764 70.9255 34.4735 71.2797 34.5043C71.6377 34.5354 71.9731 34.8993 71.9334 35.396Z" fill="#050505" stroke="#050505"/>
<path d="M60.0569 34.4175C60.0173 34.9127 59.6252 35.2156 59.271 35.1848C58.9131 35.1537 58.5776 34.7897 58.6173 34.293C58.6569 33.7978 59.0491 33.495 59.4032 33.5258C59.7612 33.5569 60.0967 33.9208 60.0569 34.4175Z" fill="#050505" stroke="#050505"/>
<path d="M56.646 29.5496C56.646 29.5496 59.3304 31.986 61.9273 29.7101" stroke="#050505" stroke-linecap="round" stroke-linejoin="round"/>
<path d="M74.5024 32.153C74.5024 32.153 72.2557 29.3081 69.3232 31.1317" stroke="#050505" stroke-linecap="round" stroke-linejoin="round"/>
<path d="M64.7727 40.9336L64.7144 41.6776" stroke="#050505" stroke-linecap="round" stroke-linejoin="round"/>
<path d="M62.8037 46.2254C62.8037 46.2254 64.248 45.1896 66.0425 46.488" stroke="#050505" stroke-linecap="round" stroke-linejoin="round"/>
<path d="M64.6748 50.9258V52.5054" stroke="#050505" stroke-linecap="round" stroke-linejoin="round"/>
<path d="M61.9292 50.6953V52.5083" stroke="#050505" stroke-linecap="round" stroke-linejoin="round"/>
<path d="M59.5435 50.2266V51.6087" stroke="#050505" stroke-linecap="round" stroke-linejoin="round"/>
<path d="M67.4746 50.6953V52.5083" stroke="#050505" stroke-linecap="round" stroke-linejoin="round"/>
<path d="M69.8789 50.0293V51.6089" stroke="#050505" stroke-linecap="round" stroke-linejoin="round"/>
<path d="M64.1374 53.4777C52.5095 52.67 51.397 37.8613 51.397 37.8613" stroke="#050505" stroke-linecap="round" stroke-linejoin="round"/>
<path d="M77.9356 37.7109C77.9356 37.7109 77.0205 52.6811 65.3926 53.4709" stroke="#050505" stroke-linecap="round" stroke-linejoin="round"/>
<path d="M69.6631 43.4375C69.6631 43.4375 70.7936 43.7606 70.5065 44.9273" stroke="#050505" stroke-linecap="round" stroke-linejoin="round"/>
<path d="M78.5657 28.7918C78.5657 30.2817 78.2427 36.3128 78.2427 36.3128C78.2427 36.3128 80.9702 32.7408 81.3111 29.9047C81.4906 28.4328 80.9702 26.207 80.2524 26.207C79.5347 26.207 78.5657 27.302 78.5657 28.7739V28.7918Z" fill="#70747D"/>
<path d="M50.5728 28.6302C50.5728 30.12 51.0753 36.4204 51.0753 36.4204C51.0753 36.4204 48.4196 32.633 48.0786 29.8149C47.8992 28.343 48.4196 26.1172 49.1373 26.1172C49.8551 26.1172 50.5728 27.1583 50.5728 28.6302Z" fill="#70747D"/>
<path d="M79.6224 28.5906H78.492C79.2456 49.1073 67.7074 52.4639 64.621 53.0204C61.5346 52.4639 50.0682 49.1432 50.8218 28.6265L49.5298 28.4291C49.5837 27.3521 48.4173 53.3435 64.5133 53.3435H64.621H64.7287C80.8785 53.3435 79.6224 28.5906 79.6224 28.5906Z" fill="#F4F4F4" stroke="#050505" stroke-linecap="round" stroke-linejoin="round"/>
<path d="M82.2619 24.7734C82.2619 14.8112 77.9374 9.48011 71.4236 6.75173C69.9701 4.4721 67.2605 4.31055 64.6765 4.31055C62.0925 4.31055 59.2394 4.45416 57.8038 6.93124C51.6489 9.85707 47.2167 13.5188 47.2167 24.7375C45.4043 25.0606 45.6914 26.7658 45.6914 27.1607C45.6914 28.3275 53.2819 29.1532 64.4971 29.1532C75.7123 29.1532 83.5539 28.3275 83.5539 27.1607C83.5539 26.7479 84.2358 25.0786 82.244 24.7555L82.2619 24.7734Z" fill="#80ABFF"/>
<path d="M57.9292 6.92383C57.9292 6.92383 55.6323 15.9167 56.6372 23.8326" stroke="white" stroke-linecap="round" stroke-linejoin="round"/>
<path d="M71.4414 6.92383C71.4414 6.92383 73.7383 15.9167 72.7334 23.8326" stroke="white" stroke-linecap="round" stroke-linejoin="round"/>
<path d="M33.1666 103.5C33.4769 96.7706 30.5807 72.177 32.1517 68.7541C33.6451 65.4961 37.1264 63.2853 39.4926 62.752C39.4926 62.752 43.226 65.6706 43.934 73.457C44.3121 77.5586 44.1039 77.6282 44.1039 77.6282" stroke="#050505" stroke-linecap="round" stroke-linejoin="round"/>
<path d="M70.2233 62.8061L72.2597 59.5869C72.4634 58.2681 71.4936 57.89 71.1736 57.8027L71.4742 57.5409C71.7167 55.97 70.2815 55.7276 70.2815 55.7276L69.8257 56.0573L71.6294 54.8937C71.8233 53.6332 70.776 52.935 70.4172 52.8284L73.7046 50.1909C75.3241 47.5534 72.4149 48.3291 72.4149 48.3291L66.0438 52.4405L61.1175 55.2622C60.7102 53.3229 60.8654 51.626 60.8654 51.626C60.5841 50.1521 59.9538 48.814 59.4399 48.3291C58.1986 47.1365 56.8216 48.6103 56.8216 48.6103C58.4023 51.5387 57.4325 55.1458 57.4325 55.1458C57.4325 55.1458 56.6664 56.7264 55.5318 58.7239C54.3972 60.7214 54.2809 63.6691 54.2809 63.6691L51.0808 68.2071C51.0808 68.2071 51.0032 70.8737 53.9609 72.6579C56.9282 74.4517 59.0617 73.8021 59.0617 73.8021C59.0617 73.8021 60.4969 71.5137 61.6896 70.5925C63.0764 69.5162 65.297 68.5368 66.5092 67.3732C68.7493 65.2109 70.2233 62.8158 70.2233 62.8158V62.8061Z" fill="#F4F4F4" stroke="#050505" stroke-linecap="round" stroke-linejoin="round"/>
<path d="M70.4268 52.8086C70.4268 52.8086 66.9745 55.5141 65.3647 56.0572" stroke="#050505" stroke-linecap="round" stroke-linejoin="round"/>
<path d="M69.8065 56.123L67.4985 57.9558" stroke="#050505" stroke-linecap="round" stroke-linejoin="round"/>
<path d="M70.9896 58.0098L69.2344 60.0171" stroke="#050505" stroke-linecap="round" stroke-linejoin="round"/>
<path d="M33.5633 97.514L33.5634 97.5137L33.5634 97.5136L33.5724 97.487L33.5784 97.4591C33.7095 96.8481 34.0571 95.9141 34.5875 94.7216C35.1138 93.5385 35.8062 92.1311 36.6085 90.5848C38.2129 87.4928 40.2474 83.8638 42.2489 80.3963C44.2499 76.9298 46.2156 73.6289 47.6812 71.1943C48.4139 69.9772 49.0215 68.9768 49.4459 68.2808C49.5753 68.0685 49.6876 67.8846 49.7813 67.7314C49.8436 67.7918 49.9117 67.8573 49.9851 67.9273C50.3974 68.3202 50.9806 68.8565 51.6647 69.4307C53.0199 70.5681 54.8191 71.8953 56.4874 72.5164C57.8441 73.0215 59.6468 73.2577 61.0767 73.371C61.7983 73.4282 62.4378 73.455 62.8971 73.4674C62.8977 73.4674 62.8982 73.4674 62.8988 73.4675C58.0573 85.2666 51.2429 98.4728 45.5918 104.875L45.5917 104.875C44.4302 106.192 42.9784 107.419 41.4473 108.128C39.9218 108.834 38.3629 109.01 36.9153 108.32C33.9337 106.892 33.0808 104.256 32.9853 101.889C32.9376 100.705 33.0824 99.6069 33.2408 98.8022C33.3198 98.4009 33.4017 98.0751 33.4633 97.8512C33.494 97.7394 33.5197 97.6531 33.5373 97.5957C33.5462 97.5671 33.553 97.5456 33.5574 97.5319L33.5623 97.517L33.5633 97.514L33.5633 97.514Z" fill="#F4F4F4" stroke="#050505"/>
</g>
</svg>
