<svg width="75" height="74" viewBox="0 0 75 74" fill="none" xmlns="http://www.w3.org/2000/svg">
<path d="M44.6823 52.9576C44.6823 53.2434 44.4506 53.4752 44.1647 53.4752H40.47C40.1841 53.4752 39.9524 53.707 39.9524 53.9928V58.616C39.9524 58.9019 40.1841 59.1337 40.47 59.1337H44.1647C44.4506 59.1337 44.6823 59.3654 44.6823 59.6513V63.4154C44.6823 63.7013 44.9141 63.9331 45.2 63.9331H49.7412C50.0271 63.9331 50.2589 63.7013 50.2589 63.4154V59.6513C50.2589 59.3654 50.4906 59.1337 50.7765 59.1337H54.4712C54.7571 59.1337 54.9888 58.9019 54.9888 58.616V53.9928C54.9888 53.707 54.7571 53.4752 54.4712 53.4752H50.7765C50.4906 53.4752 50.2589 53.2434 50.2589 52.9576V49.1934C50.2589 48.9075 50.0271 48.6758 49.7412 48.6758H45.2C44.9141 48.6758 44.6823 48.9075 44.6823 49.1934V52.9576Z" fill="#80ABFF"/>
<path d="M15.789 22.5H7.92798L10.8759 27.9827H12.8411L15.789 22.5Z" fill="white"/>
<path d="M14.7553 2.00391H15.5162C16.4927 2.00391 17.3734 2.57525 17.7868 3.46874L22.4059 13.449C22.7953 14.2878 22.7055 15.2664 22.1723 16.0201L18.0983 21.77C17.625 22.4386 16.8702 22.8337 16.0614 22.8337H7.62595C6.81715 22.8337 6.05629 22.4386 5.58899 21.77L1.50907 16.014C0.97586 15.2664 0.885994 14.2817 1.27541 13.443L5.88854 3.46874C6.30192 2.57525 7.1886 2.00391 8.15916 2.00391H8.92002H14.3011" stroke="white" stroke-width="1.5" stroke-linecap="round" stroke-linejoin="round"/>
<path d="M7.61914 22.7891L10.1996 28.2572M13.4742 28.2572L16.0546 22.7891" stroke="white" stroke-width="1.5" stroke-linecap="round" stroke-linejoin="round"/>
<path d="M38.8407 21.889V17.6008C38.8407 14.9388 36.7139 12.7812 34.0898 12.7812C31.4657 12.7812 29.3389 14.9388 29.3389 17.6008V19.4683" stroke="white" stroke-width="1.5" stroke-linecap="round" stroke-linejoin="round"/>
<path d="M33.3323 22.6602V24.9139" stroke="white" stroke-width="1.5"/>
<path d="M19.495 39.5795C19.0696 39.6707 18.6263 39.7193 18.171 39.7193C14.6722 39.7193 11.8384 36.8446 11.8384 33.3013V31.0039" stroke="white" stroke-width="1.5" stroke-linecap="round" stroke-linejoin="round"/>
<path d="M11.8373 30.3651C12.5023 30.3651 13.0415 29.8182 13.0415 29.1435C13.0415 28.4688 12.5023 27.9219 11.8373 27.9219C11.1722 27.9219 10.6331 28.4688 10.6331 29.1435C10.6331 29.8182 11.1722 30.3651 11.8373 30.3651Z" fill="white" stroke="white" stroke-width="1.5" stroke-linecap="round" stroke-linejoin="round"/>
<path fill-rule="evenodd" clip-rule="evenodd" d="M2.93092 12.0273H16.9295V12.9638H20.0135C20.2607 12.9638 20.471 13.1219 20.5488 13.3424C20.9158 14.1724 20.819 15.1316 20.2933 15.8724L20.2931 15.8727L17.102 20.3634C16.6266 21.033 15.8641 21.4331 15.0437 21.4331H8.43606C7.61839 21.4331 6.84945 21.0352 6.37695 20.3622L3.18305 15.8694L3.18253 15.8687C2.64546 15.1173 2.55642 14.1308 2.94714 13.2917C3.04028 13.0917 3.24091 12.9638 3.46155 12.9638H3.49287L2.93092 12.0273ZM4.17387 14.0987H3.86875C3.79244 14.4831 3.87536 14.8866 4.10609 15.2092L4.10706 15.2105L4.10705 15.2105L7.30294 19.7061L7.30512 19.7092L7.30511 19.7092C7.5648 20.0797 7.98729 20.2982 8.43606 20.2982H15.0437C15.4904 20.2982 15.9105 20.0812 16.1766 19.7064L16.1768 19.7062L19.3677 15.2157C19.6009 14.8871 19.6832 14.483 19.6055 14.0987H16.227L13.5244 17.7018H6.33597L4.17387 14.0987Z" fill="#80ABFF"/>
<path d="M72.8704 29.5938H21.657C21.0142 29.5938 20.4932 30.1191 20.4932 30.7671V70.832C20.4932 71.48 21.0142 72.0053 21.657 72.0053H72.8704C73.5132 72.0053 74.0342 71.48 74.0342 70.832V30.7671C74.0342 30.1191 73.5132 29.5938 72.8704 29.5938Z" stroke="white" stroke-width="1.5" stroke-linecap="round" stroke-linejoin="round"/>
<path d="M36.0772 41.7656H33.2183C32.666 41.7656 32.2183 42.2133 32.2183 42.7656V46.7029C32.2183 47.2552 32.666 47.7029 33.2183 47.7029H36.0772C36.6295 47.7029 37.0772 47.2552 37.0772 46.7029V42.7656C37.0772 42.2133 36.6295 41.7656 36.0772 41.7656Z" stroke="white" stroke-width="1.5" stroke-linecap="round" stroke-linejoin="round"/>
<path d="M61.3028 41.7656H58.4438C57.8916 41.7656 57.4438 42.2133 57.4438 42.7656V46.7029C57.4438 47.2552 57.8916 47.7029 58.4438 47.7029H61.3028C61.855 47.7029 62.3028 47.2552 62.3028 46.7029V42.7656C62.3028 42.2133 61.855 41.7656 61.3028 41.7656Z" stroke="white" stroke-width="1.5" stroke-linecap="round" stroke-linejoin="round"/>
<path d="M74.0342 38.2656L70.7399 41.5816C70.5988 41.7235 70.407 41.8033 70.2069 41.8033H24.315C24.1147 41.8033 23.9227 41.7234 23.7817 41.5811L20.4932 38.2656" stroke="white" stroke-width="1.5" stroke-linecap="round" stroke-linejoin="round"/>
<path d="M36.6758 29.5665V26.7797C36.6758 26.3104 37.054 25.9232 37.5254 25.9232H56.9959C57.4615 25.9232 57.8455 26.3045 57.8455 26.7797V29.5665H61.9014V26.7797C61.9014 24.0517 59.7018 21.8398 57.0017 21.8398H37.5254C34.8195 21.8398 32.6257 24.0575 32.6257 26.7797V29.5665H36.6816H36.6758Z" stroke="white" stroke-width="1.5" stroke-linecap="round" stroke-linejoin="round"/>
<path d="M27.3233 19.2745C27.3233 20.5198 26.3138 21.5294 25.0685 21.5294C23.8232 21.5294 22.8136 20.5198 22.8136 19.2745C22.8136 18.0291 23.8232 17.0195 25.0685 17.0195C26.3138 17.0195 27.3233 18.0291 27.3233 19.2745Z" stroke="white" stroke-width="1.5"/>
</svg>
