<svg width="80" height="74" viewBox="0 0 80 74" fill="none" xmlns="http://www.w3.org/2000/svg">
<path d="M70.6437 12.8364L78.8519 32.5007C78.8524 32.5019 78.8516 32.5032 78.8502 32.5032C78.8489 32.5032 78.848 32.5046 78.8485 32.5058C79.2452 33.4606 78.8355 34.6459 77.939 35.14L71.3794 38.7574C70.4793 39.2548 69.3395 38.9157 68.8463 38.0085L65.4327 31.7402C64.9367 30.833 64.5327 30.9376 64.5327 31.9747V55.0194C64.5327 55.0206 64.5317 55.0216 64.5304 55.0216L64.5294 55.0219C62.434 56.1721 60.1074 57.9412 57.8894 60.1849C54.808 63.3023 52.6259 66.6308 51.7476 69.2518C51.6018 69.6868 51.2058 70 50.7471 70H43.2666C42.8074 70 42.4111 69.6862 42.2655 69.2507C41.3888 66.6276 39.2045 63.2996 36.1233 60.1849C33.9109 57.9468 31.5932 56.181 29.4992 55.0306C29.4884 55.0247 29.4764 55.0216 29.4641 55.0216C29.4236 55.0216 29.3908 54.9889 29.3908 54.9484V31.9408C29.3908 30.9037 28.9868 30.7991 28.4936 31.7063L26.2766 35.6568C25.9779 36.1891 25.2762 36.3319 24.7932 35.9588L17.5593 30.3701C17.2241 30.1111 17.0884 29.669 17.2206 29.2666L18.8091 24.4326L23.277 12.8364C23.6755 11.8811 24.7707 10.7676 25.7097 10.3579L34.0166 6.74327C34.9557 6.33348 36.5608 6 37.5835 6H56.3484C57.3711 6 58.9762 6.33348 59.9153 6.74327L68.211 10.355C69.1501 10.7648 70.2452 11.8811 70.6437 12.8364Z" stroke="white" stroke-width="1.5" stroke-linecap="round" stroke-linejoin="round"/>
<path d="M36.0244 6.22266C36.0244 12.2937 40.9204 17.2144 46.9561 17.2144C52.9919 17.2144 57.8879 12.2937 57.8879 6.22266" stroke="white" stroke-width="1.5" stroke-linecap="round" stroke-linejoin="round"/>
<path d="M46.076 28.2538C46.4362 27.5137 47.4909 27.5139 47.8508 28.2542L49.4277 31.4976C49.5703 31.791 49.8486 31.9949 50.1713 32.0424L53.7213 32.5656C54.5265 32.6843 54.85 33.6717 54.2711 34.2438L51.6842 36.8004C51.4554 37.0266 51.3512 37.35 51.4049 37.6672L52.0144 41.2645C52.1514 42.0728 51.3002 42.6859 50.5769 42.2999L47.4283 40.6198C47.138 40.4648 46.7895 40.4648 46.4992 40.6198L43.3496 42.3005C42.6265 42.6863 41.7754 42.0736 41.912 41.2654L42.5201 37.6669C42.5736 37.3499 42.4694 37.0266 42.2407 36.8006L39.6536 34.2438C39.0748 33.6717 39.3983 32.6843 40.2034 32.5656L43.7537 32.0424C44.0762 31.9949 44.3545 31.7911 44.4971 31.498L46.076 28.2538Z" fill="#80ABFF"/>
<g clip-path="url(#clip0_507_40824)">
<rect width="13.8158" height="19.1007" rx="2.96044" transform="matrix(0.864029 -0.503446 0.496564 0.868003 8.8855 18.8516)" fill="#80ABFF"/>
<path d="M8.32589 3.88733C8.32589 3.88733 7.13323 4.68649 7.71806 5.70879C8.30288 6.7311 8.31508 6.21101 8.82203 7.63859C9.47539 9.47756 8.64433 10.1181 9.44227 11.513L10.0257 12.5328L12.4602 11.1143M10.023 12.5279L9.76198 12.68C8.98229 13.1343 8.64062 14.0809 8.95723 14.9078L9.80969 17.1323L14.3797 14.4694M9.81162 17.1357L9.77252 17.1585C9.51263 17.31 9.41981 17.6409 9.56654 17.8974C9.71327 18.1539 10.0437 18.2382 10.3035 18.0868L14.9127 15.4011M8.34525 3.87604C8.34525 3.87604 9.62734 3.23322 10.2122 4.25552C10.797 5.27782 10.3446 5.02844 11.3161 6.18532C12.5675 7.67585 13.5327 7.26978 14.3306 8.66461L14.9141 9.68447L12.4796 11.103M14.9113 9.67963L15.1723 9.52753C15.952 9.07322 16.9351 9.24788 17.4863 9.93801L18.969 11.7954L14.399 14.4582M18.9709 11.7988L19.01 11.776C19.2699 11.6246 19.6003 11.7089 19.747 11.9654C19.8938 12.2219 19.8009 12.5528 19.5411 12.7043L14.9319 15.3899" stroke="white" stroke-width="1.5" stroke-linecap="round" stroke-linejoin="round"/>
</g>
<defs>
<clipPath id="clip0_507_40824">
<rect width="24" height="35" fill="white" transform="translate(6)"/>
</clipPath>
</defs>
</svg>
