<svg width="74" height="74" viewBox="0 0 74 74" fill="none" xmlns="http://www.w3.org/2000/svg">
<path d="M71.9997 33.2676V40.2473C71.9997 41.5319 71.3443 42.7266 70.2049 43.7417C68.1421 45.5742 64.493 46.7959 60.3301 46.7959C56.1672 46.7959 52.5256 45.5742 50.4627 43.7417C49.3233 42.7266 48.668 41.5319 48.668 40.2473V33.2676" stroke="white" stroke-width="1.5" stroke-linecap="round" stroke-linejoin="round"/>
<path d="M71.9997 41.4531V48.4329C71.9997 49.7174 71.3443 50.9121 70.2049 51.9272C68.1421 53.7597 64.493 54.9814 60.3301 54.9814C56.1672 54.9814 52.5256 53.7597 50.4627 51.9272C49.3233 50.9121 48.668 49.7174 48.668 48.4329V41.4531" stroke="white" stroke-width="1.5" stroke-linecap="round" stroke-linejoin="round"/>
<path d="M71.9997 50.2598V57.2395C71.9997 58.5241 71.3443 59.7188 70.2049 60.7339C68.1421 62.5664 64.493 63.788 60.3301 63.788C56.1672 63.788 52.5256 62.5664 50.4627 60.7339C49.3233 59.7188 48.668 58.5241 48.668 57.2395V50.2598" stroke="white" stroke-width="1.5" stroke-linecap="round" stroke-linejoin="round"/>
<path d="M71.9997 58.4453V65.425C71.9997 66.7096 71.3443 67.9043 70.2049 68.9194C68.1421 70.7519 64.493 71.9736 60.3301 71.9736C56.1672 71.9736 52.5256 70.7519 50.4627 68.9194C49.3233 67.9043 48.668 66.7096 48.668 65.425V58.4453" stroke="white" stroke-width="1.5" stroke-linecap="round" stroke-linejoin="round"/>
<path d="M71.9999 36.5452V29.5654C71.9999 30.85 71.3446 32.0447 70.2052 33.0598C68.1423 34.8923 64.4858 36.114 60.3304 36.114C56.1749 36.114 52.5258 34.8923 50.463 33.0598C49.3236 32.0447 48.6682 30.85 48.6682 29.5654V36.5452" stroke="white" stroke-width="1.5" stroke-linecap="round" stroke-linejoin="round"/>
<path d="M71.9999 29.5485C71.9999 30.8331 71.3446 32.0278 70.2052 33.0429C68.1423 34.8754 64.4933 36.0971 60.3304 36.0971C56.1674 36.0971 52.5258 34.8754 50.463 33.0429C49.3236 32.0278 48.6682 30.8331 48.6682 29.5485C48.6682 29.2521 48.7055 28.9647 48.7725 28.6772C49.4502 25.8117 53.4418 23.521 58.5133 23.0719C59.109 23.0269 59.7122 23 60.3304 23C66.7795 23 71.9999 25.9374 71.9999 29.5485Z" stroke="white" stroke-width="1.5" stroke-linecap="round" stroke-linejoin="round"/>
<path d="M48.6657 59.4707V66.4504C48.6657 67.735 48.0104 68.9297 46.871 69.9448C44.8081 71.7773 41.159 72.999 36.9961 72.999C32.8332 72.999 29.1916 71.7773 27.1287 69.9448C25.9893 68.9297 25.334 67.735 25.334 66.4504V59.4707" stroke="white" stroke-width="1.5" stroke-linecap="round" stroke-linejoin="round"/>
<path d="M48.6657 51.2695V58.2493C48.6657 59.5338 48.0104 60.7285 46.871 61.7436C44.8081 63.5761 41.159 64.7978 36.9961 64.7978C32.8332 64.7978 29.1916 63.5761 27.1287 61.7436C25.9893 60.7285 25.334 59.5338 25.334 58.2493V51.2695" stroke="white" stroke-width="1.5" stroke-linecap="round" stroke-linejoin="round"/>
<path d="M48.6657 54.5588V47.5791C48.6657 48.8637 48.0104 50.0584 46.871 51.0735C44.8081 52.906 41.1516 54.1276 36.9961 54.1276C32.8406 54.1276 29.1916 52.906 27.1287 51.0735C25.9893 50.0584 25.334 48.8637 25.334 47.5791V54.5588" stroke="white" stroke-width="1.5" stroke-linecap="round" stroke-linejoin="round"/>
<path d="M48.6657 47.5622C48.6657 48.8468 48.0104 50.0415 46.871 51.0566C44.8081 52.8891 41.159 54.1108 36.9961 54.1108C32.8332 54.1108 29.1916 52.8891 27.1287 51.0566C25.9893 50.0415 25.334 48.8468 25.334 47.5622C25.334 47.2658 25.3712 46.9783 25.4382 46.6909C26.1159 43.8253 30.1076 41.5347 35.179 41.0855C35.7748 41.0406 36.378 41.0137 36.9961 41.0137C43.4453 41.0137 48.6657 43.9511 48.6657 47.5622Z" stroke="white" stroke-width="1.5" stroke-linecap="round" stroke-linejoin="round"/>
<path d="M25.3317 59.4678V66.4475C25.3317 67.7321 24.6764 68.9268 23.537 69.9419C21.4741 71.7744 17.8251 72.9961 13.6621 72.9961C9.49922 72.9961 5.85759 71.7744 3.79475 69.9419C2.65535 68.9268 2 67.7321 2 66.4475V59.4678" stroke="white" stroke-width="1.5" stroke-linecap="round" stroke-linejoin="round"/>
<path d="M25.3317 62.7659V55.7861C25.3317 57.0707 24.6764 58.2654 23.537 59.2805C21.4741 61.113 17.8176 62.3347 13.6621 62.3347C9.50666 62.3347 5.85759 61.113 3.79475 59.2805C2.65535 58.2654 2 57.0707 2 55.7861V62.7659" stroke="white" stroke-width="1.5" stroke-linecap="round" stroke-linejoin="round"/>
<path d="M25.3317 55.7653C25.3317 57.0499 24.6764 58.2446 23.537 59.2597C21.4741 61.0922 17.8251 62.3139 13.6621 62.3139C9.49922 62.3139 5.85759 61.0922 3.79475 59.2597C2.65535 58.2446 2 57.0499 2 55.7653C2 55.4689 2.03724 55.1815 2.10426 54.894C2.78195 52.0285 6.77358 49.7378 11.845 49.2887C12.4408 49.2437 13.044 49.2168 13.6621 49.2168C20.1113 49.2168 25.3317 52.1542 25.3317 55.7653Z" stroke="white" stroke-width="1.5" stroke-linecap="round" stroke-linejoin="round"/>
<path d="M14.0007 29C21.7323 29 27.9997 22.732 27.9993 15C27.999 7.26801 21.731 1 13.9993 1C6.26772 1 0.000295782 7.26801 0.000660648 15C0.00102551 22.732 6.26904 29 14.0007 29Z" fill="#80ABFF"/>
<path d="M10.1742 21.9586V8.09863H15.284C18.4025 8.09863 20.0651 10.0321 20.0745 12.6931C20.0651 15.3445 18.3837 17.2684 15.2465 17.2684H12.6164V21.9586H10.1742ZM12.6164 15.2201H14.9083C16.7493 15.2105 17.5759 14.1576 17.5759 12.6931C17.5759 11.2095 16.7493 10.1853 14.9083 10.1853H12.6164V15.2201Z" fill="white"/>
</svg>
