<svg width="76" height="74" viewBox="0 0 76 74" fill="none" xmlns="http://www.w3.org/2000/svg">
<path d="M75 34.966C75 30.854 71.6768 27.5224 67.5797 27.5224C67.3517 27.5224 67.128 27.535 66.9042 27.5539C62.9577 15.6143 51.7374 7 38.5113 7C25.2853 7 13.9667 15.6877 10.0683 27.7091C9.53709 27.5874 8.98706 27.5224 8.42029 27.5224C4.32114 27.5224 1 30.8561 1 34.966C1 39.0759 4.32324 42.4096 8.42029 42.4096C8.64407 42.4096 8.86575 42.397 9.08535 42.3782C11.6118 56.38 23.8255 67 38.5113 67C53.1972 67 65.3984 56.3905 67.9332 42.3991C71.8671 42.2124 75 38.9564 75 34.9639V34.966Z" stroke="white" stroke-width="1.5" stroke-miterlimit="10"/>
<path d="M26.5914 37.5993C28.093 37.5993 29.3103 36.3782 29.3103 34.8719C29.3103 33.3656 28.093 32.1445 26.5914 32.1445C25.0899 32.1445 23.8726 33.3656 23.8726 34.8719C23.8726 36.3782 25.0899 37.5993 26.5914 37.5993Z" fill="#80ABFF"/>
<path d="M51.2904 38.1696C52.7919 38.1696 54.0092 36.9485 54.0092 35.4422C54.0092 33.9359 52.7919 32.7148 51.2904 32.7148C49.7888 32.7148 48.5715 33.9359 48.5715 35.4422C48.5715 36.9485 49.7888 38.1696 51.2904 38.1696Z" fill="#80ABFF"/>
<path d="M50.4312 47.3477C50.4312 51.5184 45.5624 54.9004 39.5559 54.9004C33.5494 54.9004 28.6807 51.5184 28.6807 47.3477" stroke="white" stroke-width="1.5" stroke-miterlimit="10" stroke-linecap="round"/>
<path d="M40.9365 7.38321C40.9365 7.38321 27.9401 7.21356 28.6303 13.8683C29.3205 20.5231 39.2504 21.4294 41.6137 21.2155C46.5362 20.7697 48.7161 17.0698 45.6188 14.0718" stroke="white" stroke-width="1.5" stroke-miterlimit="10" stroke-linecap="round"/>
</svg>
