<svg width="51" height="46" viewBox="0 0 51 46" fill="none" xmlns="http://www.w3.org/2000/svg">
<path d="M21.5427 28.5852H9.75939L6.08636 32.2545V28.5852H4.28683C2.47085 28.5852 1 27.1158 1 25.3016V11.2835C1 9.46937 2.47085 8 4.28683 8H24.2425C26.0585 8 27.5294 9.46937 27.5294 11.2835V13.3357" stroke="white" stroke-width="1.5" stroke-linecap="round" stroke-linejoin="round"/>
<ellipse cx="29.3382" cy="23.9828" rx="1.34994" ry="1.34999" fill="white"/>
<ellipse cx="36.088" cy="23.9789" rx="1.34994" ry="1.34999" fill="white"/>
<ellipse cx="42.8372" cy="23.9789" rx="1.34994" ry="1.34999" fill="white"/>
<ellipse cx="7.73959" cy="18.1898" rx="1.34994" ry="1.34999" fill="white"/>
<ellipse cx="14.4896" cy="18.1859" rx="1.34994" ry="1.34999" fill="white"/>
<ellipse cx="21.2391" cy="18.1859" rx="1.34994" ry="1.34999" fill="white"/>
<path d="M26.6374 13.707H45.9286C47.9587 13.707 49.6031 15.1764 49.6031 16.9905V31.0087C49.6031 32.8228 47.9587 34.2922 45.9286 34.2922H43.9168V37.9615L39.8105 34.2922H26.6374C24.6072 34.2922 22.9629 32.8228 22.9629 31.0087V16.9905C22.9629 15.1764 24.6072 13.707 26.6374 13.707Z" stroke="white" stroke-width="1.5" stroke-linecap="round" stroke-linejoin="round"/>
</svg>
