<svg width="90" height="90" viewBox="0 0 90 90" fill="none" xmlns="http://www.w3.org/2000/svg">
<g clip-path="url(#clip0_2014_23232)">
<path d="M20.83 62.663C24.6398 62.663 27.7283 59.4304 27.7283 55.4428C27.7283 51.4552 24.6398 48.2227 20.83 48.2227C17.0201 48.2227 13.9316 51.4552 13.9316 55.4428C13.9316 59.4304 17.0201 62.663 20.83 62.663Z" stroke="#050505" stroke-width="1.5" stroke-linecap="round" stroke-linejoin="round"/>
<path d="M14.0157 65.375H27.6465C29.3126 65.375 30.6621 66.7875 30.6621 68.5314V82.806H11V68.5314C11 66.7875 12.3495 65.375 14.0157 65.375Z" stroke="#050505" stroke-width="1.5" stroke-linecap="round" stroke-linejoin="round"/>
<path d="M16.1943 65.375L20.8309 73.2107L25.4675 65.375H16.1943Z" stroke="#050505" stroke-width="1.5" stroke-linecap="round" stroke-linejoin="round"/>
<path d="M20.833 73.2148V82.8102" stroke="#050505" stroke-width="1.5" stroke-linecap="round" stroke-linejoin="round"/>
<path d="M44.8446 62.663C48.6545 62.663 51.743 59.4304 51.743 55.4428C51.743 51.4552 48.6545 48.2227 44.8446 48.2227C41.0348 48.2227 37.9463 51.4552 37.9463 55.4428C37.9463 59.4304 41.0348 62.663 44.8446 62.663Z" stroke="#050505" stroke-width="1.5" stroke-linecap="round" stroke-linejoin="round"/>
<path d="M38.0303 65.375H51.6611C53.3273 65.375 54.6768 66.7875 54.6768 68.5314V82.806H35.0146V68.5314C35.0146 66.7875 36.3642 65.375 38.0303 65.375Z" stroke="#050505" stroke-width="1.5" stroke-linecap="round" stroke-linejoin="round"/>
<path d="M40.209 65.375L44.8456 73.2107L49.4822 65.375H40.209Z" stroke="#050505" stroke-width="1.5" stroke-linecap="round" stroke-linejoin="round"/>
<path d="M44.8477 73.2148V82.8102" stroke="#050505" stroke-width="1.5" stroke-linecap="round" stroke-linejoin="round"/>
<path d="M68.8583 62.663C72.6681 62.663 75.7566 59.4304 75.7566 55.4428C75.7566 51.4552 72.6681 48.2227 68.8583 48.2227C65.0485 48.2227 61.96 51.4552 61.96 55.4428C61.96 59.4304 65.0485 62.663 68.8583 62.663Z" stroke="#050505" stroke-width="1.5" stroke-linecap="round" stroke-linejoin="round"/>
<path d="M62.043 65.375H75.6738C77.34 65.375 78.6895 66.7875 78.6895 68.5314V82.806H59.0273V68.5314C59.0273 66.7875 60.3769 65.375 62.043 65.375Z" stroke="#050505" stroke-width="1.5" stroke-linecap="round" stroke-linejoin="round"/>
<path d="M64.2217 65.375L68.8583 73.2107L73.4949 65.375H64.2217Z" stroke="#050505" stroke-width="1.5" stroke-linecap="round" stroke-linejoin="round"/>
<path d="M68.8604 73.2148V82.8102" stroke="#050505" stroke-width="1.5" stroke-linecap="round" stroke-linejoin="round"/>
<path d="M17.582 43.5981V29.8777L29.5952 25.9277V16.7656" stroke="#80ABFF" stroke-width="1.5" stroke-linecap="round" stroke-linejoin="round"/>
<path d="M26.7052 16.7614C26.0579 16.7614 25.6266 16.0929 25.8934 15.5031L28.9284 8.79319C29.2442 8.09502 30.2355 8.09467 30.5518 8.79261L33.5926 15.5025C33.86 16.0924 33.4287 16.7614 32.781 16.7614H26.7052Z" fill="#80ABFF"/>
<path d="M71.3579 43.5981V29.8777L59.3447 25.9277V16.7656" stroke="#80ABFF" stroke-width="1.5" stroke-linecap="round" stroke-linejoin="round"/>
<path d="M62.2353 16.7614C62.8826 16.7614 63.3139 16.0929 63.0471 15.5031L60.0121 8.79319C59.6963 8.09502 58.7049 8.09467 58.3886 8.79261L55.3478 15.5025C55.0805 16.0924 55.5118 16.7614 56.1594 16.7614H62.2353Z" fill="#80ABFF"/>
<path d="M47.7987 16.7614C48.4461 16.7614 48.8774 16.0929 48.6106 15.5031L45.5756 8.79319C45.2598 8.09502 44.2684 8.09467 43.9521 8.79261L40.9113 15.5025C40.644 16.0924 41.0753 16.7614 41.7229 16.7614H47.7987Z" fill="#80ABFF"/>
<path d="M44.4668 42.47V18.3867" stroke="#80ABFF" stroke-width="1.5" stroke-linecap="round" stroke-linejoin="round"/>
</g>
<defs>
<clipPath id="clip0_2014_23232">
<rect width="70" height="77" fill="white" transform="translate(10 7)"/>
</clipPath>
</defs>
</svg>
