<svg width="46" height="46" viewBox="0 0 46 46" fill="none" xmlns="http://www.w3.org/2000/svg">
<path d="M30.4567 10.28L30.2075 16.0471L35.9735 15.7978L41.2525 10.5179L35.611 10.6425L35.7357 5L30.4567 10.28Z" stroke="white" stroke-width="1.5" stroke-linejoin="round"/>
<path d="M30.7942 9.94109C28.2114 8.35486 25.1641 7.42578 21.9129 7.42578C12.5785 7.42578 5 14.9944 5 24.3418C5 33.6892 12.5785 41.2578 21.9129 41.2578C31.2473 41.2578 38.8258 33.6779 38.8258 24.3418C38.8258 21.0787 37.8969 18.0535 36.311 15.4702" stroke="white" stroke-width="1.5" stroke-linejoin="round"/>
<path d="M24.0923 16.2454C23.3944 16.055 22.6542 15.9492 21.9141 15.9492C17.2615 15.9492 13.4971 19.7143 13.4971 24.3679C13.4971 29.0214 17.2615 32.7865 21.9141 32.7865C26.5667 32.7865 30.331 29.0214 30.331 24.3679C30.331 23.6064 30.2253 22.8872 30.035 22.2103" stroke="white" stroke-width="1.5" stroke-linejoin="round"/>
<path d="M21.3851 23.869C21.0923 24.1619 21.0923 24.6368 21.3852 24.9297C21.6782 25.2225 22.153 25.2225 22.4459 24.9296L21.3851 23.869ZM22.4459 24.9296L30.7381 16.6357L29.6774 15.5752L21.3851 23.869L22.4459 24.9296Z" fill="white"/>
</svg>
