<svg width="90" height="90" viewBox="0 0 90 90" fill="none" xmlns="http://www.w3.org/2000/svg">
<g clip-path="url(#clip0_2019_53686)">
<path d="M13.373 26.1571H18.475" stroke="#050505" stroke-width="1.5" stroke-linecap="round" stroke-linejoin="round"/>
<path d="M52.4575 26.1571L76.4037 26.0739" stroke="#050505" stroke-width="1.5" stroke-linecap="round" stroke-linejoin="round"/>
<path d="M52.6739 21.5226H76.7946L75.1963 65.9807H14.8038L13.2056 21.5226H18.475" stroke="#050505" stroke-width="1.5" stroke-linecap="round" stroke-linejoin="round"/>
<path d="M21.1481 71.531H11.698V65.9807H78.3021V71.531H24.9867H21.1481Z" stroke="#050505" stroke-width="1.5" stroke-linecap="round" stroke-linejoin="round"/>
<path d="M38.1917 74.3062H59.8277" stroke="#050505" stroke-width="1.5" stroke-linecap="round" stroke-linejoin="round"/>
<path d="M35.4417 60.3264H26.0475L18.5447 52.8681V16.6938H52.3458V60.3264H38.9384H35.4417Z" stroke="#050505" stroke-width="1.5" stroke-linecap="round" stroke-linejoin="round"/>
<path d="M26.4871 32.8143H45.0638" stroke="#050505" stroke-width="1.5" stroke-linecap="round" stroke-linejoin="round"/>
<path d="M30.4367 23.9082H25.6565V29.3164H30.4367V23.9082Z" stroke="#050505" stroke-width="1.5" stroke-linecap="round" stroke-linejoin="round"/>
<path d="M38.1657 20.8566H33.3855V29.3165H38.1657V20.8566Z" stroke="#050505" stroke-width="1.5" stroke-linecap="round" stroke-linejoin="round"/>
<path d="M45.8947 26.6147H41.1145V29.3217H45.8947V26.6147Z" stroke="#050505" stroke-width="1.5" stroke-linecap="round" stroke-linejoin="round"/>
<path d="M35.505 50.823C38.5397 50.823 40.9998 48.4065 40.9998 45.4256C40.9998 42.4447 38.5397 40.0282 35.505 40.0282C32.4703 40.0282 30.0103 42.4447 30.0103 45.4256C30.0103 48.4065 32.4703 50.823 35.505 50.823Z" stroke="#050505" stroke-width="1.5" stroke-linecap="round" stroke-linejoin="round"/>
<path d="M35.5051 40.028V45.4183L39.1374 49.4629" stroke="#050505" stroke-width="1.5" stroke-linecap="round" stroke-linejoin="round"/>
<path d="M26.0475 52.8682V60.3264L18.5447 52.8682H26.0475Z" stroke="#050505" stroke-width="1.5" stroke-linecap="round" stroke-linejoin="round"/>
<path d="M69.9394 54.7371L71.7204 50.3711L69.8792 49.6257C70.0198 48.6606 70.0064 47.7022 69.8591 46.7638L71.6869 45.9984L69.8457 41.659L68.0179 42.4244C67.4488 41.6656 66.7592 40.9868 65.9691 40.4144L66.719 38.5841L62.3269 36.8137L61.577 38.644C60.6062 38.5042 59.642 38.5175 58.698 38.664L57.928 36.847L53.5627 38.6773L54.3326 40.4942C53.5694 41.06 52.8864 41.7455 52.3106 42.5308L50.4694 41.7854L48.6885 46.1515L50.5297 46.8969C50.3891 47.8619 50.4025 48.8203 50.5498 49.7588L48.722 50.5242L50.5632 54.8636L52.391 54.0982C52.9601 54.8569 53.6497 55.5358 54.4398 56.1082L53.6899 57.9384L58.082 59.7088L58.8319 57.8785C59.8027 58.0183 60.7668 58.005 61.7109 57.8586L62.4808 59.6755L66.8462 57.8453L66.0762 56.0283C66.8395 55.4626 67.5224 54.7771 68.0982 53.9917L69.9394 54.7371ZM58.0352 53.5857C55.0825 52.3944 53.6564 49.0466 54.8616 46.1049C56.0667 43.1631 59.4278 41.7521 62.3871 42.9501C65.3398 44.1415 66.7659 47.4892 65.5607 50.431C64.3555 53.3727 60.9945 54.7837 58.0352 53.5857Z" fill="#80ABFF"/>
</g>
<defs>
<clipPath id="clip0_2019_53686">
<rect width="68" height="59" fill="white" transform="translate(11 16)"/>
</clipPath>
</defs>
</svg>
