<svg width="76" height="75" viewBox="0 0 76 75" fill="none" xmlns="http://www.w3.org/2000/svg">
<g id="_&#235;&#160;&#136;&#236;&#157;&#180;&#236;&#150;&#180;_1">
<path id="Vector" d="M65.0527 2.96343L74.9983 1.55859L73.5997 11.5486" stroke="#050505" stroke-width="1.5" stroke-linecap="round" stroke-linejoin="round"/>
<path id="Vector_2" d="M75 1.55859L63.3006 13.3102L51.9268 1.87821L26.4634 27.4552L16.6066 17.547L1 33.2232V74.0007H63.4782V22.3413" stroke="#050505" stroke-width="1.5" stroke-linecap="round" stroke-linejoin="round"/>
<path id="Vector_3" d="M5.14453 32.4643L13.3807 24.1914" stroke="#050505" stroke-width="1.5" stroke-linecap="round" stroke-linejoin="round"/>
<path id="Vector_4" d="M33.4707 23.8313L47.2717 9.96875" stroke="#050505" stroke-width="1.5" stroke-linecap="round" stroke-linejoin="round"/>
<path id="Vector_5" d="M66.8735 29.0586V50.8893" stroke="#050505" stroke-width="1.5" stroke-linecap="round" stroke-linejoin="round"/>
<path id="Vector_6" d="M39.4113 61.2542L41.7001 55.5844L39.3338 54.6164C39.5145 53.3631 39.4973 52.1185 39.308 50.8999L41.6571 49.9059L39.2908 44.2706L36.9417 45.2646C36.2103 44.2793 35.324 43.3977 34.3087 42.6544L35.2724 40.2776L29.6278 37.9785L28.6641 40.3554C27.4164 40.1738 26.1773 40.1911 24.964 40.3813L23.9745 38.0217L18.3643 40.3986L19.3538 42.7581C18.3729 43.4928 17.4952 44.383 16.7552 45.4029L14.3889 44.4349L12.1001 50.1047L14.4664 51.0727C14.2857 52.326 14.3029 53.5705 14.4922 54.7892L12.1431 55.7832L14.5094 61.4184L16.8585 60.4245C17.5899 61.4098 18.4761 62.2914 19.4915 63.0347L18.5278 65.4115L24.1724 67.7106L25.1361 65.3337C26.3838 65.5152 27.6229 65.4979 28.8361 65.3078L29.8257 67.6673L35.4359 65.2905L34.4464 62.931C35.4273 62.1963 36.305 61.3061 37.045 60.2862L39.4113 61.2542ZM24.1122 59.759C20.3175 58.2119 18.4847 53.8644 20.0336 50.0442C21.5824 46.224 25.902 44.3916 29.7052 45.9474C33.4999 47.4945 35.3327 51.8419 33.7838 55.6622C32.235 59.4824 27.9154 61.3147 24.1122 59.759Z" fill="#80ABFF"/>
<path id="Vector_7" d="M52.3963 40.6964L53.5407 37.8615L52.3576 37.3775C52.4479 36.7509 52.4393 36.1286 52.3447 35.5193L53.5192 35.0223L52.3361 32.2047L51.1615 32.7016C50.7958 32.209 50.3527 31.7682 49.845 31.3965L50.3269 30.2081L47.5046 29.0586L47.0227 30.247C46.3989 30.1563 45.7793 30.1649 45.1727 30.26L44.6779 29.0802L41.8728 30.2686L42.3676 31.4484C41.8771 31.8157 41.4383 32.2608 41.0683 32.7708L39.8851 32.2868L38.7407 35.1217L39.9239 35.6057C39.8335 36.2323 39.8421 36.8546 39.9368 37.4639L38.7622 37.9609L39.9454 40.7785L41.1199 40.2816C41.4856 40.7742 41.9287 41.215 42.4364 41.5867L41.9546 42.7751L44.7769 43.9246L45.2587 42.7362C45.8826 42.8269 46.5021 42.8183 47.1087 42.7232L47.6035 43.903L50.4086 42.7146L49.9139 41.5348C50.4043 41.1675 50.8432 40.7224 51.2132 40.2124L52.3963 40.6964ZM44.7468 39.9488C42.8494 39.1753 41.933 37.0015 42.7075 35.0914C43.4819 33.1813 45.6417 32.2652 47.5433 33.043C49.4406 33.8166 50.357 35.9903 49.5826 37.9004C48.8082 39.8105 46.6484 40.7267 44.7468 39.9488Z" fill="#80ABFF"/>
</g>
</svg>
