<svg width="90" height="90" viewBox="0 0 90 90" fill="none" xmlns="http://www.w3.org/2000/svg">
<path d="M56.6489 58.1899C53.4933 61.0863 49.2632 62.8585 44.6093 62.8585C34.8627 62.8585 26.9624 55.085 26.9624 45.4947C26.9624 35.9044 34.8627 28.1309 44.6093 28.1309C54.356 28.1309 62.2562 35.9044 62.2562 45.4947C62.2562 49.0836 61.1514 52.4119 59.2596 55.1817" stroke="#050505" stroke-width="1.5" stroke-linecap="round" stroke-linejoin="round"/>
<path d="M72.6518 60.2621L64.5059 52.2852" stroke="#050505" stroke-width="1.5" stroke-linecap="round" stroke-linejoin="round"/>
<path d="M71.5054 63.1862C71.5054 60.9673 73.3291 59.1729 75.5841 59.1729C77.8392 59.1729 79.6629 60.9673 79.6629 63.1862C79.6629 65.4051 77.8392 67.1995 75.5841 67.1995C73.3291 67.1995 71.5054 65.4051 71.5054 63.1862Z" stroke="#050505" stroke-width="1.5" stroke-linecap="round" stroke-linejoin="round"/>
<path d="M72.6523 28.1787L64.5063 36.1563" stroke="#050505" stroke-width="1.5" stroke-linecap="round" stroke-linejoin="round"/>
<path d="M71.5059 25.2555C71.5059 27.4744 73.3296 29.2688 75.5846 29.2688C77.8397 29.2688 79.6634 27.4744 79.6634 25.2555C79.6634 23.0366 77.8397 21.2422 75.5846 21.2422C73.3296 21.2422 71.5059 23.0366 71.5059 25.2555Z" stroke="#050505" stroke-width="1.5" stroke-linecap="round" stroke-linejoin="round"/>
<path d="M64.7651 44.6543H70.8992" stroke="#050505" stroke-width="1.5" stroke-linecap="round" stroke-linejoin="round"/>
<path d="M71.5054 44.2204C71.5054 42.0015 73.3291 40.207 75.5841 40.207C77.8392 40.207 79.6629 42.0015 79.6629 44.2204C79.6629 46.4392 77.8392 48.2337 75.5841 48.2337C73.3291 48.2337 71.5054 46.4392 71.5054 44.2204Z" stroke="#050505" stroke-width="1.5" stroke-linecap="round" stroke-linejoin="round"/>
<path d="M16.5694 60.2621L24.7153 52.2852" stroke="#050505" stroke-width="1.5" stroke-linecap="round" stroke-linejoin="round"/>
<path d="M17.7158 63.1862C17.7158 60.9673 15.8921 59.1729 13.6371 59.1729C11.382 59.1729 9.55828 60.9673 9.55828 63.1862C9.55828 65.4051 11.382 67.1995 13.6371 67.1995C15.8921 67.1995 17.7158 65.4051 17.7158 63.1862Z" stroke="#050505" stroke-width="1.5" stroke-linecap="round" stroke-linejoin="round"/>
<path d="M16.5689 28.1787L24.7148 36.1563" stroke="#050505" stroke-width="1.5" stroke-linecap="round" stroke-linejoin="round"/>
<path d="M17.7153 25.2555C17.7153 27.4744 15.8916 29.2688 13.6366 29.2688C11.3815 29.2688 9.55779 27.4744 9.55779 25.2555C9.55779 23.0366 11.3815 21.2422 13.6366 21.2422C15.8916 21.2422 17.7153 23.0366 17.7153 25.2555Z" stroke="#050505" stroke-width="1.5" stroke-linecap="round" stroke-linejoin="round"/>
<path d="M24.4561 44.6543H18.322" stroke="#050505" stroke-width="1.5" stroke-linecap="round" stroke-linejoin="round"/>
<path d="M17.7158 44.2204C17.7158 42.0015 15.8921 40.207 13.6371 40.207C11.382 40.207 9.55828 42.0015 9.55828 44.2204C9.55828 46.4392 11.382 48.2337 13.6371 48.2337C15.8921 48.2337 17.7158 46.4392 17.7158 44.2204Z" stroke="#050505" stroke-width="1.5" stroke-linecap="round" stroke-linejoin="round"/>
<path fill-rule="evenodd" clip-rule="evenodd" d="M36.9972 50.6572C36.3597 49.7182 35.9033 48.6566 35.6769 47.5135H33.772V44.1136H35.6769C35.8995 42.9705 36.3597 41.9015 36.9972 40.9699L35.6543 39.6412L38.0874 37.2361L39.4378 38.5648C40.3884 37.9413 41.4748 37.4922 42.6366 37.2583V35.3877H46.0957V37.262C47.2576 37.4885 48.3402 37.9413 49.2946 38.5685L50.645 37.2398L53.0781 39.6412L51.7352 40.9699C52.3727 41.909 52.8291 42.9705 53.0554 44.1136H54.9604V47.5135H53.0554C52.8329 48.6566 52.3727 49.7256 51.7352 50.6572L53.0781 51.9859L50.645 54.3911L49.2946 53.0623C48.344 53.6858 47.2576 54.1349 46.0957 54.3688V56.2394H42.6366V54.3651C41.4748 54.1387 40.3922 53.6858 39.4378 53.0586L38.0874 54.3873L35.6543 51.9859L36.9972 50.6572ZM44.3304 50.9764C47.247 50.9764 49.6115 48.65 49.6115 45.7802C49.6115 42.9104 47.247 40.584 44.3304 40.584C41.4137 40.584 39.0493 42.9104 39.0493 45.7802C39.0493 48.65 41.4137 50.9764 44.3304 50.9764Z" fill="#80ABFF"/>
</svg>
