<svg width="90" height="90" viewBox="0 0 90 90" fill="none" xmlns="http://www.w3.org/2000/svg">
<path d="M37.991 18.8727C36.7321 18.3061 35.3898 17.8887 33.9944 17.6278V16.2561L34.5707 13.811C33.2891 13.5724 31.9544 13.4531 30.5893 13.4531C29.2243 13.4531 27.8896 13.5799 26.6079 13.811L27.1843 16.2561V17.6278C24.7727 18.0899 22.5279 19.0069 20.5638 20.3189L19.5855 19.3423L18.2356 17.2103C16.0439 18.6938 14.1404 20.5724 12.6085 22.7268L14.7926 24.0462L15.7709 25.0228C14.4438 26.9536 13.5034 29.1602 13.0484 31.5382H11.6378L9.15041 30.9716C8.90773 32.2315 8.77881 33.5361 8.77881 34.8779C8.77881 36.2197 8.90773 37.5094 9.15041 38.7693L11.6378 38.1952H13.0484C13.511 40.5882 14.4438 42.7948 15.7709 44.7106L14.7926 45.6872L12.6085 47.0141C14.1329 49.1835 16.0439 51.0546 18.2356 52.5306L19.5855 50.3986L20.5638 49.422C22.5279 50.7415 24.7727 51.6659 27.1843 52.1206V53.4923L26.6079 55.9374C27.8896 56.176 29.2243 56.2952 30.5893 56.2952C31.9544 56.2952 33.2891 56.1685 34.5707 55.9374L33.9944 53.4923V52.1206C36.406 51.6584 38.6507 50.7415 40.6149 49.4295L41.5932 50.406L42.9431 52.5381C45.1347 51.0546 47.0382 49.176 48.5701 47.0216L46.386 45.7021L45.4077 44.7255C46.7349 42.7948 47.6753 40.5882 48.1303 38.2102H49.5408L52.0283 38.7767C52.2709 37.5169 52.3999 36.2123 52.3999 34.8704C52.3999 33.5286 52.2709 32.2389 52.0283 30.9791L49.5408 31.5531H48.1303C47.6677 29.1602 46.7349 26.9536 45.4077 25.0377L46.386 24.0611L48.5701 22.7342C47.0458 20.5649 45.1423 18.6938 42.9431 17.2177L41.5932 19.3498L40.6149 20.3263" stroke="#050505" stroke-width="1.5" stroke-linecap="round" stroke-linejoin="round"/>
<path d="M30.5896 43.8318C35.752 43.8318 39.9369 39.8212 39.9369 34.8739C39.9369 29.9266 35.752 25.916 30.5896 25.916C25.4271 25.916 21.2422 29.9266 21.2422 34.8739C21.2422 39.8212 25.4271 43.8318 30.5896 43.8318Z" stroke="#050505" stroke-width="1.5" stroke-linecap="round" stroke-linejoin="round"/>
<path d="M79.4702 69.4435L82 63.2047L79.3846 62.1396C79.5843 60.7606 79.5653 59.3911 79.3561 58.0501L81.9524 56.9564L79.3371 50.7556L76.7407 51.8493C75.9323 50.7651 74.9528 49.7951 73.8305 48.9772L74.8957 46.3618L68.6569 43.832L67.5917 46.4474C66.2127 46.2477 64.8432 46.2667 63.5022 46.4759L62.4085 43.8796L56.2078 46.4949L57.3015 49.0913C56.2173 49.8997 55.2472 50.8792 54.4293 52.0015L51.8139 50.9363L49.2842 57.1751L51.8995 58.2403C51.6998 59.6193 51.7188 60.9888 51.9281 62.3298L49.3317 63.4235L51.9471 69.6242L54.5434 68.5306C55.3518 69.6147 56.3314 70.5848 57.4536 71.4027L56.3885 74.0181L62.6273 76.5478L63.6924 73.9325C65.0715 74.1322 66.4409 74.1132 67.7819 73.9039L68.8756 76.5003L75.0764 73.8849L73.9827 71.2886C75.0669 70.4802 76.0369 69.5006 76.8548 68.3784L79.4702 69.4435ZM62.5607 67.7982C58.3666 66.0959 56.3409 61.3122 58.0528 57.1086C59.7646 52.905 64.5389 50.8888 68.7425 52.6006C72.9366 54.303 74.9623 59.0867 73.2504 63.2903C71.5385 67.4939 66.7643 69.5101 62.5607 67.7982Z" fill="#80ABFF"/>
<path d="M55.5156 33.1209C58.1268 31.9922 61.0117 31.3691 64.0446 31.3691C71.0793 31.3691 77.3226 34.7408 81.2209 39.9376" stroke="#050505" stroke-width="1.5" stroke-linecap="round" stroke-linejoin="round"/>
<path d="M15.7892 65.6424C13.4938 64.3149 11.3955 62.7479 9.55762 60.9688" stroke="#050505" stroke-width="1.5" stroke-linecap="round" stroke-linejoin="round"/>
<path d="M54.7368 21.2422C55.6048 22.4683 56.386 23.7666 57.0737 25.1369" stroke="#050505" stroke-width="1.5" stroke-linecap="round" stroke-linejoin="round"/>
</svg>
