<svg width="90" height="90" viewBox="0 0 90 90" fill="none" xmlns="http://www.w3.org/2000/svg">
<path d="M60.0437 50.9678H42.9668V65.2904H60.0437V50.9678Z" fill="#80ABFF" stroke="#80ABFF" stroke-width="1.5" stroke-linecap="round" stroke-linejoin="round"/>
<path d="M62.76 40.5329L59.6957 37.4404H42.5019L32.3955 47.618L38.7897 54.0573L39.7874 58.9243H42.7805V52.3937L38.0382 47.618L44.1539 41.4658H58.0437L64.1529 47.618L59.4171 52.3937V58.9243H62.4102L63.4079 54.0573L69.8021 47.618L64.6064 42.3922" stroke="#050505" stroke-width="1.5" stroke-linecap="round" stroke-linejoin="round"/>
<path d="M46.2197 33.4619V37.4404H56.7912V33.4619" stroke="#050505" stroke-width="1.5" stroke-linecap="round" stroke-linejoin="round"/>
<path d="M44.5938 22.3223L27.5168 22.3223M44.5938 31.8707H27.5168" stroke="#050505" stroke-width="1.5" stroke-linecap="round" stroke-linejoin="round"/>
<path d="M56.7851 32.3094C59.7545 29.4456 59.7545 24.8024 56.7851 21.9386C53.8157 19.0748 49.0013 19.0748 46.0319 21.9386C43.0625 24.8024 43.0625 29.4456 46.0319 32.3094C49.0013 35.1732 53.8157 35.1732 56.7851 32.3094Z" stroke="#050505" stroke-width="1.5" stroke-linecap="round" stroke-linejoin="round"/>
<path d="M54.5008 27.1249C54.5008 28.7699 53.1142 30.1072 51.4086 30.1072C49.703 30.1072 48.3164 28.7699 48.3164 27.1249C48.3164 25.4799 49.703 24.1426 51.4086 24.1426C53.1142 24.1426 54.5008 25.4799 54.5008 27.1249Z" stroke="#050505" stroke-width="1.5" stroke-linecap="round" stroke-linejoin="round"/>
<path d="M34.0215 72.4519H68.3435C69.1465 72.4519 69.8017 71.7641 69.8017 70.9059V69.2305C69.8017 68.3792 69.1529 67.6845 68.3435 67.6845H34.0215V67.6777" stroke="#050505" stroke-width="1.5" stroke-linecap="round" stroke-linejoin="round"/>
<path d="M25.8896 54.9463L25.8896 33.4624M16.9446 54.9463L16.9446 33.4624" stroke="#050505" stroke-width="1.5" stroke-linecap="round" stroke-linejoin="round"/>
<path d="M16.9825 20.8979C18.1543 20.1884 19.5344 19.7803 21.0186 19.7803C25.2176 19.7803 28.6222 23.0639 28.6222 27.1136C28.6222 31.1632 25.2176 34.4469 21.0186 34.4469C16.8197 34.4469 13.415 31.1632 13.415 27.1136C13.415 25.4247 14.0074 23.8613 15.0035 22.6244" stroke="#050505" stroke-width="1.5" stroke-linecap="round" stroke-linejoin="round"/>
<path d="M24.12 27.0907C24.12 28.7357 22.7334 30.073 21.0278 30.073C19.3222 30.073 17.9355 28.7357 17.9355 27.0907C17.9355 25.4457 19.3222 24.1084 21.0278 24.1084C22.7334 24.1084 24.12 25.4457 24.12 27.0907Z" stroke="#050505" stroke-width="1.5" stroke-linecap="round" stroke-linejoin="round"/>
<path d="M27.3562 65.2139C29.4388 61.6969 28.1708 57.2177 24.5242 55.2092C20.8776 53.2007 16.2332 54.4236 14.1507 57.9406C12.0681 61.4575 13.3361 65.9368 16.9827 67.9452C20.6293 69.9537 25.2737 68.7308 27.3562 65.2139Z" stroke="#050505" stroke-width="1.5" stroke-linecap="round" stroke-linejoin="round"/>
<path d="M12.7177 61.3115L10.6493 61.3115L8.00009 63.7788L8 81.9997H34.0219L34.022 63.7788L31.3728 61.3115H28.9767" stroke="#050505" stroke-width="1.5" stroke-linecap="round" stroke-linejoin="round"/>
<path d="M8.8125 82.0003H69.8015V71.6562" stroke="#050505" stroke-width="1.5" stroke-linecap="round" stroke-linejoin="round"/>
<path d="M46.1006 58.6357H47.9364" stroke="#80ABFF" stroke-width="1.5" stroke-linecap="round" stroke-linejoin="round"/>
<path d="M54.8779 58.6357H56.7137" stroke="#80ABFF" stroke-width="1.5" stroke-linecap="round" stroke-linejoin="round"/>
<path d="M61.1711 38.1654C61.1711 38.6495 61.5771 39.042 62.078 39.042L72.9611 39.042C73.4619 39.042 73.868 38.6495 73.868 38.1654L73.868 23.0178C73.868 22.5337 74.274 22.1412 74.7749 22.1412L80.3452 22.1412C81.1398 22.1412 81.5502 21.2237 81.0059 20.6643L68.1806 7.48088C67.8225 7.11274 67.2173 7.11274 66.8592 7.48088L54.0339 20.6642C53.4896 21.2237 53.9 22.1412 54.6946 22.1412L60.2642 22.1412C60.7651 22.1412 61.1711 22.5337 61.1711 23.0178L61.1711 38.1654Z" fill="#80ABFF"/>
</svg>
