<svg width="75" height="74" viewBox="0 0 75 74" fill="none" xmlns="http://www.w3.org/2000/svg">
<g id="icon">
<path id="Vector" d="M38.1883 57.2545C37.8054 57.2702 37.4205 57.278 37.034 57.278C21.8145 57.278 9.48438 44.7989 9.48438 29.4123C9.48438 14.0257 21.8145 1.53906 37.034 1.53906C52.2535 1.53906 64.5836 14.0182 64.5836 29.4048C64.5836 37.6967 61.0013 45.1412 55.3222 50.2474C55.2106 50.3478 55.0981 50.4473 54.9848 50.5459" stroke="#050505" stroke-width="1.5" stroke-linecap="round" stroke-linejoin="round"/>
<g id="Group">
<path id="Vector_2" d="M74.0652 30.3283C74.0681 30.3312 74.0683 30.3359 74.0657 30.3391L67.1374 38.9736C66.689 39.5325 65.8383 39.5325 65.3898 38.9736L59.9185 32.1549C59.3302 31.4216 59.8522 30.3334 60.7923 30.3334H62.2344C62.7391 30.3334 63.1588 29.9442 63.1588 29.4394V29.4394C63.1588 20.5194 58.7818 12.6295 52.0777 7.85625C51.5426 7.47528 51.4118 6.72466 51.8135 6.20505L53.7477 3.70353C54.1014 3.24612 54.7464 3.13127 55.2247 3.45612C63.4861 9.06694 69.0113 18.4688 69.3719 29.2056C69.3927 29.824 69.8923 30.3259 70.511 30.3259H74.0594C74.0616 30.3259 74.0637 30.3268 74.0652 30.3283V30.3283Z" fill="#80ABFF"/>
<path id="Vector_3" d="M2.33529 28.7721C1.39515 28.7721 0.873127 27.684 1.4615 26.9507L6.9328 20.132C7.38127 19.573 8.23192 19.573 8.68038 20.1319L14.1517 26.9507C14.7401 27.684 14.218 28.7721 13.2779 28.7721H12.0104C11.406 28.7721 10.908 29.2523 10.9122 29.8567C10.9729 38.6975 15.3361 46.5075 21.9917 51.2419C22.5271 51.6228 22.6582 52.3737 22.2563 52.8935L20.3225 55.3945C19.9688 55.8519 19.3238 55.9668 18.8455 55.6419C10.5841 50.0311 5.05893 40.6292 4.69829 29.8924C4.67751 29.274 4.17792 28.7721 3.5592 28.7721H2.33529Z" fill="#80ABFF"/>
</g>
<path id="Vector_4" d="M55.9894 25.8337L53.7685 26.3596H52.5132C52.1046 24.1733 51.2653 22.1449 50.0843 20.3869L50.9533 19.4928L52.8994 18.2757C51.5401 16.2923 49.8466 14.5719 47.8857 13.2196L46.6824 15.1729L45.8133 16.067C44.0604 14.8724 42.0549 14.0084 39.9008 13.5952V12.3406L40.4208 10.0942C39.3214 9.88388 38.185 9.77118 37.0263 9.76367C35.8601 9.77118 34.7311 9.89139 33.6318 10.0867L34.1517 12.3331V13.5877C31.9977 14.0159 29.9996 14.8574 28.2392 16.0594L27.3702 15.1654L26.1669 13.2121C24.2059 14.5719 22.5124 16.2923 21.1531 18.2682L23.0992 19.4853L23.9682 20.3793C22.7872 22.1449 21.9479 24.1808 21.5394 26.3521H20.2841L18.0632 25.8262C17.8477 26.9831 17.7363 28.1777 17.7363 29.4023C17.7363 30.6269 17.8477 31.8214 18.0632 32.9709L20.2841 32.445H21.5394C21.9479 34.6312 22.7872 36.6597 23.9682 38.4177L23.0992 39.3117L21.1531 40.5288C22.5124 42.5122 24.2059 44.2327 26.1669 45.585L27.3702 43.6316L28.2392 42.7376C29.9922 43.9321 31.9977 44.7961 34.1517 45.2093V46.464L33.6318 48.7103C34.7311 48.9207 35.8675 49.0334 37.0263 49.0409C38.1924 49.0334 39.3214 48.9132 40.4208 48.7178L39.9008 46.4715V45.2168C42.0549 44.7886 44.0529 43.9472 45.8133 42.7451L46.6824 43.6391L47.8857 45.5925C49.8466 44.2327 51.5401 42.5122 52.8994 40.5363L50.9533 39.3193L50.0843 38.4252C51.2653 36.6597 52.1046 34.6237 52.5132 32.4525H53.7685L55.9894 32.9784C56.2048 31.8214 56.3162 30.6269 56.3162 29.4023C56.3162 28.1777 56.2048 26.9831 55.9894 25.8337ZM37.0337 40.3861C31.0469 40.3861 26.1817 35.4727 26.1817 29.4098C26.1817 23.3469 31.0395 18.4335 37.0337 18.4335C43.0279 18.4335 47.8857 23.3469 47.8857 29.4098C47.8857 35.4727 43.0279 40.3861 37.0337 40.3861Z" stroke="#050505" stroke-width="1.5" stroke-linecap="round" stroke-linejoin="round"/>
<path id="Vector_5" d="M62.6646 60.7772L61.1939 60.7246L60.414 60.5142C60.518 59.0792 60.3323 57.6742 59.8867 56.3744L60.5774 55.9612L61.9961 55.5329C61.4836 54.0603 60.7111 52.7004 59.7084 51.5209L58.6314 52.5351L57.9406 52.9409C57.0418 51.8965 55.9351 51.0175 54.6649 50.3939L54.8729 49.6125L55.5711 48.2977C54.9175 47.9821 54.2341 47.7116 53.5062 47.5163C52.7783 47.3285 52.0504 47.2007 51.3299 47.1406L51.2853 48.6358L51.0773 49.4171C49.666 49.3195 48.2696 49.4998 46.9772 49.9581L46.5835 49.2519L46.1601 47.8243C44.7117 48.3427 43.3673 49.1241 42.1937 50.1309L43.2113 51.2203L43.605 51.9266C42.5725 52.8282 41.7109 53.9551 41.0944 55.2399L40.3145 55.0295L39.0146 54.3233C38.6878 55.007 38.4204 55.7358 38.2124 56.5021C38.0119 57.2685 37.8782 58.0273 37.8262 58.7862L39.2969 58.8388L40.0768 59.0491C39.9728 60.4842 40.1585 61.8891 40.6042 63.1889L39.9134 63.6022L38.4947 64.0304C39.0072 65.503 39.7797 66.8629 40.7824 68.0425L41.8595 67.0282L42.5502 66.6225C43.449 67.6668 44.5557 68.5459 45.8259 69.1695L45.6179 69.9509L44.9197 71.2657C45.5733 71.5888 46.2567 71.8517 46.9846 72.0471C47.7125 72.2349 48.4405 72.3626 49.161 72.4227L49.2055 70.9276L49.4135 70.1462C50.8248 70.2439 52.2212 70.0636 53.5136 69.6053L53.9073 70.3115L54.3307 71.739C55.7791 71.2206 57.1235 70.4392 58.2971 69.4324L57.2795 68.343L56.8858 67.6368C57.9183 66.7352 58.7799 65.6082 59.3964 64.3234L60.1763 64.5338L61.4762 65.2401C61.803 64.5563 62.0704 63.8276 62.2784 63.0612C62.479 62.2949 62.6127 61.536 62.6646 60.7772ZM48.4108 66.6375C44.6746 65.6157 42.4537 61.7239 43.4639 57.9447C44.474 54.158 48.3216 51.9191 52.0652 52.9333C55.8014 53.9551 58.0223 57.847 57.0121 61.6262C56.0019 65.4129 52.1543 67.6518 48.4108 66.6375Z" stroke="#050505" stroke-width="1.5" stroke-linecap="round" stroke-linejoin="round"/>
</g>
</svg>
