<svg width="75" height="74" viewBox="0 0 75 74" fill="none" xmlns="http://www.w3.org/2000/svg">
<path d="M18 40.5547V60.8766C18 65.3623 26.9502 68.9991 38 68.9991C49.0498 68.9991 58 65.3623 58 60.8766V40.5547" stroke="white" stroke-width="1.5" stroke-linecap="round" stroke-linejoin="round"/>
<path d="M18.2433 38.9342L37.2458 50.4955C37.7203 50.7872 38.2683 50.7872 38.7428 50.4955L57.3608 39.1676M18.2542 38.9446L2.89165 29.591C2.29449 29.2313 2 28.5506 2 27.8603C2 27.17 2.29449 26.4991 2.89165 26.1296L19.1049 16.3384M18.2433 16.7825L37.2468 5.21149C37.7213 4.9295 38.2693 4.9295 38.7438 5.21149L73.1104 26.1268C74.2965 26.856 74.2965 28.8688 73.1104 29.5883L57.3628 39.1757" stroke="white" stroke-width="1.5" stroke-linecap="round" stroke-linejoin="round"/>
<path d="M44.5969 27.7183C44.6535 28.2677 44.2006 28.7166 43.6483 28.7166H31.8811C31.3288 28.7166 30.8759 28.2677 30.9325 27.7183C30.9673 27.3808 31.0191 27.0495 31.0856 26.7232C31.8382 23.1741 34.5458 20.5391 37.7688 20.5391C40.9918 20.5391 43.6912 23.1741 44.4438 26.7232C44.5103 27.0495 44.5621 27.3808 44.5969 27.7183Z" fill="#80ABFF"/>
<path d="M7.75724 45.3594C7.75724 45.3594 5.92333 49.7016 5.36133 54.3466L8.54848 56.239V54.0025L11.0849 58.9984L14.9672 58.3034C14.9672 58.3034 13.1111 48.05 10.1606 45.3594" fill="#80ABFF"/>
<path d="M8.01773 46.341C8.01773 46.6593 7.96887 46.9625 7.87928 47.2505C7.45581 48.6148 6.10394 49.6077 4.50777 49.6077C4.10058 49.6077 3.70968 49.5395 3.34321 49.4182C1.97505 48.9786 0.997803 47.7659 0.997803 46.341C0.997803 44.537 2.56955 43.0742 4.50777 43.0742C4.78465 43.0742 5.06154 43.1045 5.32214 43.1652C6.86946 43.5062 8.01773 44.7947 8.01773 46.341Z" fill="#80ABFF"/>
<path d="M8.54419 45.3496V30.3762C8.54419 29.6193 9.20234 29 10.0232 29H24.9978" stroke="#80ABFF" stroke-width="1.5" stroke-linecap="round" stroke-linejoin="round"/>
</svg>
