<svg width="90" height="90" viewBox="0 0 90 90" fill="none" xmlns="http://www.w3.org/2000/svg">
<path d="M43.7977 39.1855C56.1378 41.3661 65.5043 52.0801 65.5043 64.9731H12.7998C12.7998 52.0801 22.1663 41.3661 34.5064 39.1855" stroke="#050505" stroke-width="1.5" stroke-linecap="round" stroke-linejoin="round"/>
<path d="M58.7619 79.663H13.011C11.1398 79.663 9.61719 78.1491 9.61719 76.2887V68.3547C9.61719 66.4943 11.1398 64.9805 13.011 64.9805H65.2936C67.1647 64.9805 68.6873 66.4943 68.6873 68.3547V76.2887C68.6873 78.1491 67.1647 79.663 65.2936 79.663H58.0565" stroke="#050505" stroke-width="1.5" stroke-linecap="round" stroke-linejoin="round"/>
<path d="M35.9049 56.8992L34.5749 39.0431C34.3731 36.3984 36.4827 34.1367 39.1519 34.1367C41.8211 34.1367 43.9307 36.3893 43.7289 39.0431L42.3989 56.8992" stroke="#050505" stroke-width="1.5" stroke-linecap="round" stroke-linejoin="round"/>
<path d="M24.6065 43.2109L28.3947 55.7595L19.791 47.3603" stroke="#050505" stroke-width="1.5" stroke-linecap="round" stroke-linejoin="round"/>
<path d="M53.7013 43.2109L49.9131 55.7595L58.5168 47.3603" stroke="#050505" stroke-width="1.5" stroke-linecap="round" stroke-linejoin="round"/>
<path d="M18.916 47.2601V38.9941M27.1155 38.9941V41.2725" stroke="#050505" stroke-width="1.5" stroke-linecap="round" stroke-linejoin="round"/>
<path d="M33.8767 20.8659C32.607 18.6616 30.6729 16.8795 28.3412 15.7891V27.6838L23.0192 30.6677L17.6973 27.6838V15.7891C13.467 17.7647 10.542 22.009 10.542 26.9393C10.542 33.7455 16.125 39.262 23.0192 39.262C29.9134 39.262 35.4905 33.7455 35.4905 26.9393C35.4905 26.1244 35.4134 25.333 35.2591 24.565" stroke="#050505" stroke-width="1.5" stroke-linecap="round" stroke-linejoin="round"/>
<path fill-rule="evenodd" clip-rule="evenodd" d="M53.6473 31.098C48.6747 25.9999 48.7155 17.6896 53.7382 12.54C58.7609 7.39047 66.8665 7.34873 71.839 12.4468C76.3531 17.0748 76.7357 24.35 73.0103 29.5047L80.7226 37.4117C81.4355 38.1427 81.4355 39.3278 80.7226 40.0587C80.0096 40.7897 78.8537 40.7897 78.1408 40.0587L70.4487 32.1724C65.4123 36.1264 58.2105 35.7764 53.6473 31.098ZM56.0817 28.5946C59.7221 32.327 65.6536 32.2965 69.3308 28.5264C73.008 24.7563 73.0378 18.6751 69.3974 14.9427C65.7569 11.2103 59.8254 11.2408 56.1482 15.0109C52.471 18.781 52.4412 24.8623 56.0817 28.5946Z" fill="#80ABFF"/>
</svg>
