<svg width="74" height="74" viewBox="0 0 74 74" fill="none" xmlns="http://www.w3.org/2000/svg">
<path d="M59.4746 11.5283H68.0337C70.7739 11.5283 72.9999 13.7538 72.9999 16.4933V23.8009C72.9999 30.3276 67.6952 35.631 61.1669 35.631H59.4746V11.5283Z" stroke="white" stroke-width="1.5" stroke-miterlimit="10"/>
<path d="M14.5253 36.8457H12.833C6.30469 36.8457 1 31.5423 1 25.0156V17.708C1 14.9685 3.22602 12.7431 5.96623 12.7431H14.5253L14.5253 36.8457Z" stroke="white" stroke-width="1.5" stroke-miterlimit="10"/>
<path d="M40.1149 57.5234H35.3737V65.8205H40.1149V57.5234Z" stroke="white" stroke-width="1.5" stroke-miterlimit="10"/>
<path d="M51.5085 71.6776C51.5085 68.4431 48.8855 65.8203 45.6506 65.8203H29.3786C26.1437 65.8203 23.5207 68.4431 23.5207 71.6776H51.5085Z" stroke="white" stroke-width="1.5" stroke-miterlimit="10"/>
<path d="M37.5466 17.6077V3L45.4121 3.21187L53.2776 3V23.4715L45.4121 21.5154L37.5466 23.4715V18.0296" fill="#80ABFF"/>
<path d="M37.5466 17.6077V3L45.4121 3.21187L53.2776 3V23.4715L45.4121 21.5154L37.5466 23.4715V18.0296" stroke="#80ABFF" stroke-width="1.5" stroke-linecap="round" stroke-linejoin="round"/>
<path d="M15.6186 5.43645C15.6186 4.09083 16.7094 3 18.055 3H56.7913C58.1369 3 59.2278 4.09083 59.2278 5.43645V35.1951C59.2278 47.221 49.458 56.9836 37.4232 56.9836C25.3884 56.9836 15.6186 47.221 15.6186 35.1951V5.43645Z" stroke="white" stroke-width="1.5" stroke-miterlimit="10"/>
</svg>
