<svg width="74" height="74" viewBox="0 0 74 74" fill="none" xmlns="http://www.w3.org/2000/svg">
<path d="M65.9991 64V30.3307C65.9991 29.5023 65.6105 28.722 64.9493 28.2231L38.4279 8.20752C37.4821 7.4937 36.1765 7.49742 35.2348 8.2166L9.03703 28.2228C8.38292 28.7223 7.99915 29.4983 7.99915 30.3213V64.3596C7.99915 65.8178 9.1813 67 10.6396 67H49.5658" stroke="white" stroke-width="1.5" stroke-linecap="round" stroke-linejoin="round"/>
<path d="M47.9991 62.4945V43.6404C47.9991 42.1822 46.817 41 45.3587 41H29.6396C28.1813 41 26.9991 42.1822 26.9991 43.6404V67" stroke="white" stroke-width="1.5" stroke-linecap="round" stroke-linejoin="round"/>
<circle cx="59.9991" cy="60" r="14" fill="#80ABFF"/>
<path d="M56.8245 64.053C58.2375 66.7767 64.7007 66.4679 64.0584 62.6809C63.8962 61.6998 63.2201 61.0618 62.3953 60.6433C60.8471 59.8612 59.7113 60.314 58.1767 59.3192C57.5344 58.9076 57.0476 58.3244 56.9056 57.508C56.2634 53.7279 62.7333 53.4191 64.1396 56.1359" stroke="white" stroke-width="1.5" stroke-linecap="round" stroke-linejoin="round"/>
<path d="M60.4869 54.3373V52.0664" stroke="white" stroke-width="1.5" stroke-linecap="round" stroke-linejoin="round"/>
<path d="M60.4841 68.1146V65.8438" stroke="white" stroke-width="1.5" stroke-linecap="round" stroke-linejoin="round"/>
</svg>
