<svg width="90" height="90" viewBox="0 0 90 90" fill="none" xmlns="http://www.w3.org/2000/svg">
<path d="M24.5508 81.2212V72.7988H39.4915V81.2212" stroke="#050505" stroke-width="1.5" stroke-linecap="round" stroke-linejoin="round"/>
<path d="M28.314 72.785H38.2745C37.4195 69.852 38.1746 67.0301 39.0171 64.2515C40.3215 59.9785 38.5927 57.2246 38.2745 52.0007L38.2807 52.0069V40.9787C38.2807 40.0092 37.5006 39.2189 36.5333 39.2189C35.5659 39.2189 34.7858 40.0031 34.7858 40.9787V37.9469C34.7858 36.8354 33.8871 35.9339 32.7825 35.9339C31.6778 35.9339 30.7792 36.8354 30.7792 37.9469V34.9397C30.7792 33.8283 29.8805 32.9268 28.7758 32.9268C27.6712 32.9268 26.7725 33.8283 26.7725 34.9397V36.8231C26.7725 35.7116 25.8738 34.8101 24.7692 34.8101C23.6645 34.8101 22.7658 35.7116 22.7658 36.8231V53.6679C22.7658 54.6002 22.4247 55.4856 21.8262 56.1703" stroke="#050505" stroke-width="1.5" stroke-linecap="round" stroke-linejoin="round"/>
<path d="M28.6079 59.1174C25.3189 57.654 22.3545 58.4691 22.3545 58.4691C21.874 56.6846 21.2374 54.8754 20.3325 53.2576C19.7708 52.2572 19.0281 50.9667 17.9297 50.4542C15.6705 49.4107 14.0978 51.3125 15.6081 53.2576C15.6081 53.2576 18.4664 58.7964 18.6849 62.3777C18.9033 65.9591 23.2407 66.4901 24.5575 68.2808C25.8744 70.0715 25.9368 72.8008 25.9368 72.8008H36.6711" stroke="#050505" stroke-width="1.5" stroke-linecap="round" stroke-linejoin="round"/>
<path d="M26.7734 36.8311V51.3171" stroke="#050505" stroke-width="1.5" stroke-linecap="round" stroke-linejoin="round"/>
<path d="M30.7793 37.9502V51.3186" stroke="#050505" stroke-width="1.5" stroke-linecap="round" stroke-linejoin="round"/>
<path d="M34.7852 40.9775V52.8578" stroke="#050505" stroke-width="1.5" stroke-linecap="round" stroke-linejoin="round"/>
<path d="M64.6719 81.2212V72.7988H49.7312V81.2212" stroke="#050505" stroke-width="1.5" stroke-linecap="round" stroke-linejoin="round"/>
<path d="M60.9087 72.785H50.9482C51.8032 69.852 51.048 67.0301 50.2055 64.2515C48.9012 59.9785 50.6299 57.2246 50.9482 52.0007L50.9419 52.0069V40.9787C50.9419 40.0092 51.7221 39.2189 52.6894 39.2189C53.6567 39.2189 54.4369 40.0031 54.4369 40.9787V37.9469C54.4369 36.8354 55.3355 35.9339 56.4402 35.9339C57.5448 35.9339 58.4435 36.8354 58.4435 37.9469V34.9397C58.4435 33.8283 59.3422 32.9268 60.4468 32.9268C61.5515 32.9268 62.4502 33.8283 62.4502 34.9397V36.8231C62.4502 35.7116 63.3488 34.8101 64.4535 34.8101C65.5581 34.8101 66.4568 35.7116 66.4568 36.8231V53.6679C66.4568 54.6002 66.798 55.4856 67.3965 56.1703" stroke="#050505" stroke-width="1.5" stroke-linecap="round" stroke-linejoin="round"/>
<path d="M60.6148 59.1174C63.9037 57.654 66.8682 58.4691 66.8682 58.4691C67.3487 56.6846 67.9853 54.8754 68.8902 53.2576C69.4519 52.2572 70.1945 50.9667 71.2929 50.4542C73.5521 49.4107 75.1248 51.3125 73.6146 53.2576C73.6146 53.2576 70.7562 58.7964 70.5378 62.3777C70.3194 65.9591 65.9819 66.4901 64.6651 68.2808C63.3483 70.0715 63.2859 72.8008 63.2859 72.8008H52.5515" stroke="#050505" stroke-width="1.5" stroke-linecap="round" stroke-linejoin="round"/>
<path d="M62.4492 36.8311V51.3171" stroke="#050505" stroke-width="1.5" stroke-linecap="round" stroke-linejoin="round"/>
<path d="M58.4434 37.9502V51.3186" stroke="#050505" stroke-width="1.5" stroke-linecap="round" stroke-linejoin="round"/>
<path d="M54.4375 40.9775V52.8578" stroke="#050505" stroke-width="1.5" stroke-linecap="round" stroke-linejoin="round"/>
<path d="M62.5683 25.9294C62.5739 25.9294 62.578 25.9243 62.577 25.9189C62.1703 23.8441 61.3984 21.9023 60.3418 20.152C60.0955 19.7441 60.1451 19.2177 60.482 18.8807L61.9153 17.4467C62.3056 17.0562 62.3055 16.4233 61.9153 16.0329L58.3954 12.5113C58.0043 12.12 57.3698 12.1206 56.9795 12.5127L55.5475 13.951C55.2105 14.2895 54.6828 14.3398 54.274 14.0928C52.7502 13.1723 51.0813 12.4679 49.3058 12.0328C48.8413 11.919 48.5017 11.5107 48.5017 11.0324V9C48.5017 8.44772 48.054 8 47.5017 8H42.5219C41.9697 8 41.5219 8.44772 41.5219 9V11.0324C41.5219 11.5107 41.1824 11.919 40.7178 12.0328C38.9418 12.468 37.2724 13.1727 35.7483 14.0937C35.3402 14.3403 34.8133 14.2906 34.4762 13.9533L33.0335 12.5099C32.6429 12.1191 32.0095 12.1191 31.6189 12.5099L28.0977 16.0329C27.7074 16.4233 27.7074 17.0562 28.0977 17.4467L29.531 18.8807C29.8678 19.2177 29.9175 19.7441 29.6712 20.152C28.7504 21.6772 28.0459 23.3478 27.6108 25.1251C27.4971 25.5898 27.0888 25.9294 26.6104 25.9294H24.5801C24.0278 25.9294 23.5801 26.3771 23.5801 26.9294V31.9127C23.5801 32.465 24.0278 32.9127 24.5801 32.9127H26.6104C27.0888 32.9127 27.4971 33.2523 27.6108 33.717C28.0459 35.4943 28.7504 37.1649 29.6712 38.6901C29.9175 39.098 29.8678 39.6244 29.531 39.9614L28.0977 41.3954C27.7074 41.7859 27.7074 42.4188 28.0977 42.8092L31.6175 46.3308C32.0086 46.7221 32.6431 46.7215 33.0335 46.3294L34.4655 44.8911C34.8024 44.5526 35.3302 44.5023 35.739 44.7493C37.2627 45.6698 38.9316 46.3742 40.7071 46.8093C41.1717 46.9231 41.5112 47.3314 41.5112 47.8097V49.8421C41.5112 50.3944 41.959 50.8421 42.5112 50.8421H47.491C48.0433 50.8421 48.491 50.3944 48.491 49.8421V47.8097C48.491 47.3314 48.8306 46.9231 49.2951 46.8093C51.0706 46.3742 52.7395 45.6698 54.2633 44.7493C54.6721 44.5023 55.1998 44.5526 55.5368 44.8911L56.9688 46.3294C57.3591 46.7215 57.9936 46.7221 58.3847 46.3308L61.9046 42.8092C62.2948 42.4188 62.2949 41.7859 61.9046 41.3954L60.4713 39.9614C60.1344 39.6244 60.0848 39.098 60.331 38.6901C61.2518 37.1649 61.9564 35.4943 62.3914 33.717C62.5051 33.2523 62.9135 32.9127 63.3919 32.9127H65.4222C65.9745 32.9127 66.4222 32.465 66.4222 31.9127V26.9294C66.4222 26.3771 65.9745 25.9294 65.4222 25.9294H62.5683V25.9294ZM54.4085 24.1908C54.4529 24.243 54.4919 24.2995 54.5241 24.36C55.3286 25.8701 55.7812 27.5941 55.7812 29.4211C55.7812 35.3761 50.9532 40.1958 45.0118 40.1958C39.0705 40.1958 34.2424 35.3654 34.2424 29.4211C34.2424 23.4767 39.0705 18.6463 45.0118 18.6463C47.4579 18.6463 49.7171 19.467 51.5337 20.8426" fill="#80ABFF"/>
</svg>
