<svg width="520" height="646" viewBox="0 0 520 646" fill="none" xmlns="http://www.w3.org/2000/svg">
<path d="M276.187 213.102H277.663L280.999 221.25H281.122L284.458 213.102H285.935V223H284.772V215.521H284.677L281.601 223H280.507L277.431 215.521H277.349V223H276.187V213.102ZM291.704 219.896H293.044L294.09 221.264C294.828 220.614 295.293 219.527 295.3 218.051C295.293 215.494 293.905 214.113 292.114 214.113C290.323 214.113 288.936 215.494 288.929 218.051C288.936 220.601 290.323 221.981 292.114 221.988C292.483 221.988 292.839 221.927 293.167 221.811L291.704 219.896ZM287.739 218.051C287.732 214.92 289.571 212.965 292.114 212.965C294.65 212.965 296.496 214.92 296.489 218.051C296.496 219.903 295.854 221.339 294.801 222.207L296.093 223.93H294.753L293.892 222.774C293.358 223.014 292.757 223.137 292.114 223.137C289.571 223.137 287.732 221.182 287.739 218.051ZM297.337 214.195V213.102H304.802V214.195H301.698V223H300.454V214.195H297.337ZM305.896 214.195V213.102H313.36V214.195H310.257V223H309.013V214.195H305.896Z" fill="#050505"/>
<path d="M470.948 349V339.102H477.388V340.592H472.726V343.299H477.046V344.789H472.726V347.496H477.415V349H470.948ZM481.776 349.137C480.033 349.13 478.714 347.735 478.714 345.295C478.714 342.82 480.067 341.48 481.79 341.48C483.096 341.48 483.643 342.267 483.909 342.793H483.978V339.102H485.714V349H484.005V347.824H483.909C483.629 348.371 483.062 349.13 481.776 349.137ZM480.491 345.281C480.491 346.683 481.106 347.701 482.255 347.701C483.383 347.701 484.019 346.73 484.019 345.281C484.019 343.839 483.39 342.909 482.255 342.902C481.093 342.909 480.491 343.9 480.491 345.281ZM490.718 351.939C488.749 351.939 487.498 351.064 487.382 349.67H489.118C489.241 350.319 489.85 350.62 490.745 350.627C491.791 350.62 492.468 350.169 492.468 349.082V347.66H492.386C492.112 348.207 491.518 348.891 490.239 348.891C488.523 348.891 487.177 347.646 487.177 345.227C487.177 342.786 488.53 341.48 490.253 341.48C491.559 341.48 492.112 342.267 492.386 342.793H492.468V341.576H494.19V349.123C494.19 351.023 492.721 351.939 490.718 351.939ZM488.954 345.254C488.954 346.621 489.569 347.523 490.718 347.523C491.846 347.523 492.481 346.676 492.481 345.254C492.481 343.839 491.853 342.909 490.718 342.902C489.556 342.909 488.954 343.9 488.954 345.254ZM499.153 349.15C496.918 349.15 495.544 347.66 495.544 345.336C495.544 343.039 496.938 341.48 499.058 341.48C500.876 341.48 502.448 342.622 502.448 345.227V345.773H497.267C497.294 347.038 498.039 347.79 499.167 347.783C499.933 347.79 500.445 347.462 500.671 347.018H502.38C502.065 348.303 500.876 349.15 499.153 349.15ZM497.273 344.584H500.78C500.773 343.572 500.09 342.834 499.085 342.834C498.039 342.834 497.335 343.641 497.273 344.584ZM468.638 369H465.274V359.102H468.692C471.646 359.102 473.43 360.954 473.437 364.037C473.43 367.134 471.646 369 468.638 369ZM467.052 367.455H468.542C470.613 367.462 471.659 366.32 471.659 364.037C471.659 361.768 470.613 360.64 468.597 360.646H467.052V367.455ZM478.222 369.15C475.986 369.15 474.612 367.66 474.612 365.336C474.612 363.039 476.007 361.48 478.126 361.48C479.944 361.48 481.517 362.622 481.517 365.227V365.773H476.335C476.362 367.038 477.107 367.79 478.235 367.783C479.001 367.79 479.514 367.462 479.739 367.018H481.448C481.134 368.303 479.944 369.15 478.222 369.15ZM476.342 364.584H479.849C479.842 363.572 479.158 362.834 478.153 362.834C477.107 362.834 476.403 363.641 476.342 364.584ZM489.282 361.576L486.63 369H484.716L482.063 361.576H483.923L485.632 367.1H485.714L487.437 361.576H489.282ZM490.376 369V361.576H492.126V369H490.376ZM490.253 359.566C490.253 359.047 490.711 358.623 491.265 358.623C491.818 358.623 492.276 359.047 492.276 359.566C492.276 360.093 491.818 360.517 491.265 360.523C490.711 360.517 490.253 360.093 490.253 359.566ZM497.034 369.15C494.819 369.15 493.479 367.564 493.479 365.322C493.479 363.046 494.86 361.48 497.034 361.48C498.832 361.48 500.097 362.533 500.22 364.133H498.552C498.415 363.422 497.896 362.882 497.048 362.875C495.968 362.882 495.243 363.784 495.243 365.281C495.243 366.812 495.954 367.722 497.048 367.729C497.82 367.722 498.395 367.271 498.552 366.471H500.22C500.09 368.036 498.9 369.15 497.034 369.15ZM504.827 369.15C502.592 369.15 501.218 367.66 501.218 365.336C501.218 363.039 502.612 361.48 504.731 361.48C506.55 361.48 508.122 362.622 508.122 365.227V365.773H502.94C502.968 367.038 503.713 367.79 504.841 367.783C505.606 367.79 506.119 367.462 506.345 367.018H508.054C507.739 368.303 506.55 369.15 504.827 369.15ZM502.947 364.584H506.454C506.447 363.572 505.764 362.834 504.759 362.834C503.713 362.834 503.009 363.641 502.947 364.584Z" fill="#050505"/>
<rect x="68" y="268" width="283" height="52" rx="6" fill="#E5EBF4"/>
<path d="M169.811 289.102H171.998L174.938 296.293H175.061L178 289.102H180.188V299H178.479V292.191H178.383L175.635 298.973H174.363L171.615 292.164H171.533V299H169.811V289.102ZM185.697 295.678H187.324L188.165 296.785C188.732 296.197 189.067 295.281 189.061 294.051C189.067 291.788 187.933 290.564 186.312 290.564C184.699 290.564 183.558 291.788 183.564 294.051C183.558 296.313 184.699 297.537 186.312 297.537C186.572 297.537 186.818 297.503 187.051 297.441L185.697 295.678ZM181.773 294.051C181.767 290.852 183.708 288.965 186.312 288.965C188.903 288.965 190.858 290.852 190.852 294.051C190.858 295.849 190.243 297.229 189.245 298.098L190.619 299.861H188.883L188.056 298.815C187.522 299.027 186.935 299.137 186.312 299.137C183.708 299.137 181.767 297.243 181.773 294.051ZM191.576 290.592V289.102H199.465V290.592H196.416V299H194.639V290.592H191.576ZM200.422 290.592V289.102H208.311V290.592H205.262V299H203.484V290.592H200.422ZM219.699 292.438C219.487 291.248 218.537 290.564 217.334 290.564C215.714 290.564 214.565 291.809 214.572 294.051C214.565 296.327 215.721 297.537 217.334 297.537C218.51 297.537 219.46 296.881 219.699 295.719H221.49C221.217 297.619 219.651 299.137 217.307 299.137C214.695 299.137 212.774 297.243 212.781 294.051C212.774 290.852 214.716 288.965 217.307 288.965C219.494 288.965 221.183 290.236 221.49 292.438H219.699ZM224.689 289.102V299H222.939V289.102H224.689ZM226.357 299V291.576H228.107V299H226.357ZM226.234 289.566C226.234 289.047 226.692 288.623 227.246 288.623C227.8 288.623 228.258 289.047 228.258 289.566C228.258 290.093 227.8 290.517 227.246 290.523C226.692 290.517 226.234 290.093 226.234 289.566ZM233.07 299.15C230.835 299.15 229.461 297.66 229.461 295.336C229.461 293.039 230.855 291.48 232.975 291.48C234.793 291.48 236.365 292.622 236.365 295.227V295.773H231.184C231.211 297.038 231.956 297.79 233.084 297.783C233.85 297.79 234.362 297.462 234.588 297.018H236.297C235.982 298.303 234.793 299.15 233.07 299.15ZM231.19 294.584H234.697C234.69 293.572 234.007 292.834 233.002 292.834C231.956 292.834 231.252 293.641 231.19 294.584ZM239.469 294.652V299H237.719V291.576H239.387V292.834H239.482C239.817 292.007 240.576 291.48 241.684 291.48C243.222 291.48 244.233 292.492 244.227 294.27V299H242.49V294.543C242.49 293.545 241.95 292.95 241.041 292.957C240.118 292.95 239.469 293.572 239.469 294.652ZM249.6 291.576V292.916H248.137V296.771C248.137 297.482 248.492 297.626 248.93 297.633C249.135 297.64 249.477 297.619 249.695 297.605V299.027C249.49 299.062 249.155 299.103 248.711 299.096C247.398 299.103 246.387 298.453 246.4 297.059V292.916H245.334V291.576H246.4V289.799H248.137V291.576H249.6Z" fill="#003CAF"/>
<rect x="68" y="328" width="137.5" height="52" rx="6" fill="#E5EBF4"/>
<path d="M119.455 351.822C119.366 350.968 118.648 350.476 117.582 350.482C116.454 350.476 115.784 351.022 115.777 351.768C115.771 352.602 116.652 352.943 117.473 353.135L118.402 353.381C119.879 353.723 121.301 354.502 121.301 356.225C121.301 357.961 119.927 359.15 117.555 359.15C115.251 359.15 113.788 358.043 113.713 356.088H115.463C115.545 357.12 116.413 357.626 117.541 357.633C118.71 357.626 119.517 357.059 119.523 356.211C119.517 355.432 118.806 355.104 117.732 354.83L116.611 354.543C114.984 354.119 113.973 353.299 113.973 351.877C113.973 350.127 115.524 348.965 117.609 348.965C119.708 348.965 121.137 350.147 121.164 351.822H119.455ZM129.449 352.438C129.237 351.248 128.287 350.564 127.084 350.564C125.464 350.564 124.315 351.809 124.322 354.051C124.315 356.327 125.471 357.537 127.084 357.537C128.26 357.537 129.21 356.881 129.449 355.719H131.24C130.967 357.619 129.401 359.137 127.057 359.137C124.445 359.137 122.524 357.243 122.531 354.051C122.524 350.852 124.466 348.965 127.057 348.965C129.244 348.965 130.933 350.236 131.24 352.438H129.449ZM133.906 359H132.006L135.492 349.102H137.68L141.18 359H139.279L138.452 356.553H134.727L133.906 359ZM135.205 355.117H137.974L136.627 351.125H136.545L135.205 355.117ZM145.719 359H142.355V349.102H145.773C148.727 349.102 150.511 350.954 150.518 354.037C150.511 357.134 148.727 359 145.719 359ZM144.133 357.455H145.623C147.694 357.462 148.74 356.32 148.74 354.037C148.74 351.768 147.694 350.64 145.678 350.646H144.133V357.455ZM152.814 359H150.914L154.4 349.102H156.588L160.088 359H158.188L157.36 356.553H153.635L152.814 359ZM154.113 355.117H156.882L155.535 351.125H155.453L154.113 355.117Z" fill="#003CAF"/>
<rect x="213.5" y="328" width="137.5" height="52" rx="6" fill="#E5EBF4"/>
<path d="M277.246 359H273.883V349.102H277.301C280.254 349.102 282.038 350.954 282.045 354.037C282.038 357.134 280.254 359 277.246 359ZM275.66 357.455H277.15C279.222 357.462 280.268 356.32 280.268 354.037C280.268 351.768 279.222 350.64 277.205 350.646H275.66V357.455ZM283.617 359V349.102H287.404C289.551 349.102 290.61 350.195 290.617 351.672C290.61 352.875 289.852 353.545 288.881 353.777V353.873C289.934 353.928 291 354.803 291 356.307C291 357.845 289.886 359 287.623 359H283.617ZM285.395 357.51H287.35C288.648 357.51 289.188 356.956 289.195 356.17C289.188 355.281 288.498 354.604 287.391 354.598H285.395V357.51ZM285.395 353.312H287.186C288.122 353.312 288.833 352.772 288.84 351.891C288.833 351.132 288.286 350.578 287.227 350.578H285.395V353.312Z" fill="#003CAF"/>
<rect x="68" y="388" width="283" height="52" rx="6" fill="#E5EBF4"/>
<path d="M193.271 414.051C193.278 417.25 191.323 419.137 188.732 419.137C186.128 419.137 184.187 417.243 184.193 414.051C184.187 410.852 186.128 408.965 188.732 408.965C191.323 408.965 193.278 410.852 193.271 414.051ZM185.984 414.051C185.978 416.313 187.119 417.537 188.732 417.537C190.353 417.537 191.487 416.313 191.48 414.051C191.487 411.788 190.353 410.564 188.732 410.564C187.119 410.564 185.978 411.788 185.984 414.051ZM194.857 419V409.102H198.576C200.846 409.102 202.056 410.482 202.062 412.383C202.056 414.276 200.832 415.65 198.549 415.65H196.635V419H194.857ZM196.635 414.188H198.303C199.643 414.181 200.244 413.429 200.244 412.383C200.244 411.323 199.643 410.592 198.303 410.592H196.635V414.188ZM210.17 412.438C209.958 411.248 209.008 410.564 207.805 410.564C206.185 410.564 205.036 411.809 205.043 414.051C205.036 416.327 206.191 417.537 207.805 417.537C208.98 417.537 209.931 416.881 210.17 415.719H211.961C211.688 417.619 210.122 419.137 207.777 419.137C205.166 419.137 203.245 417.243 203.252 414.051C203.245 410.852 205.187 408.965 207.777 408.965C209.965 408.965 211.653 410.236 211.961 412.438H210.17ZM223.062 409.102H224.854V415.568C224.847 417.694 223.247 419.15 220.834 419.15C218.407 419.15 216.821 417.694 216.814 415.568V409.102H218.592V415.418C218.599 416.669 219.467 417.558 220.834 417.564C222.201 417.558 223.062 416.669 223.062 415.418V409.102ZM227.943 419H226.043L229.529 409.102H231.717L235.217 419H233.316L232.489 416.553H228.764L227.943 419ZM229.242 415.117H232.011L230.664 411.125H230.582L229.242 415.117Z" fill="#003CAF"/>
<rect x="391" y="268" width="62" height="172" rx="6" fill="#E5EBF4"/>
<rect x="403" y="309" width="38" height="90" rx="2" fill="white" stroke="#050505" stroke-width="1.5" stroke-linecap="round" stroke-linejoin="round"/>
<circle cx="422" cy="321" r="4" stroke="#050505" stroke-width="1.5" stroke-linecap="round" stroke-linejoin="round"/>
<circle cx="422" cy="333" r="4" stroke="#050505" stroke-width="1.5" stroke-linecap="round" stroke-linejoin="round"/>
<circle cx="422" cy="381" r="10" stroke="#050505" stroke-width="1.5" stroke-linecap="round" stroke-linejoin="round"/>
<rect x="415" y="347" width="14" height="14" stroke="#050505" stroke-width="1.5" stroke-linecap="round" stroke-linejoin="round"/>
<rect x="418" y="350" width="8" height="8" rx="2" fill="#80ABFF"/>
<path d="M419 347V343" stroke="black"/>
<path d="M421 347V343" stroke="black"/>
<path d="M423 347V343" stroke="black"/>
<path d="M425 347V343" stroke="black"/>
<path d="M419 365V361" stroke="black"/>
<path d="M421 365V361" stroke="black"/>
<path d="M423 365V361" stroke="black"/>
<path d="M425 365V361" stroke="black"/>
<path d="M433 357L429 357" stroke="black"/>
<path d="M433 355L429 355" stroke="black"/>
<path d="M433 353L429 353" stroke="black"/>
<path d="M433 351L429 351" stroke="black"/>
<path d="M415 357L411 357" stroke="black"/>
<path d="M415 355L411 355" stroke="black"/>
<path d="M415 353L411 353" stroke="black"/>
<path d="M415 351L411 351" stroke="black"/>
<rect x="0.5" y="248.5" width="519" height="211" rx="9.5" stroke="#C9CDD6" stroke-dasharray="2 2"/>
<path d="M211.794 54.5807H156.621C154.073 54.5807 151.976 52.556 151.878 49.9964L150.419 11.1491C150.321 8.44953 152.468 6.20264 155.163 6.20264H213.252C215.94 6.20264 218.094 8.44953 217.996 11.1491L216.538 49.9964C216.439 52.556 214.35 54.5807 211.794 54.5807Z" stroke="#050505" stroke-width="1.5" stroke-linecap="round" stroke-linejoin="round"/>
<path d="M201.566 62.8735H167.266V67.7977H201.566V62.8735Z" stroke="#050505" stroke-width="1.5" stroke-linecap="round" stroke-linejoin="round"/>
<path d="M181.967 62.874V54.667" stroke="#050505" stroke-width="1.5"/>
<path d="M187.684 62.874V54.667" stroke="#050505" stroke-width="1.5"/>
<path d="M190.967 41.9285H210.627" stroke="#050505" stroke-width="1.5" stroke-linecap="round" stroke-linejoin="round"/>
<path d="M190.967 45.6243H200.797" stroke="#050505" stroke-width="1.5" stroke-linecap="round" stroke-linejoin="round"/>
<path d="M190.967 16.0581V37.0004H209.399" stroke="#050505" stroke-width="1.5" stroke-linecap="round" stroke-linejoin="round"/>
<path d="M194.653 36.3845V27.1453" stroke="#050505" stroke-width="1.5" stroke-linecap="round" stroke-linejoin="round"/>
<path d="M198.339 37.0003L198.339 20.9856" stroke="#050505" stroke-width="1.5" stroke-linecap="round" stroke-linejoin="round"/>
<path d="M202.026 37.0003L202.026 30.8408" stroke="#050505" stroke-width="1.5" stroke-linecap="round" stroke-linejoin="round"/>
<path d="M205.712 37.0009L205.712 24.6819" stroke="#050505" stroke-width="1.5" stroke-linecap="round" stroke-linejoin="round"/>
<mask id="mask0_598_188089" style="mask-type:alpha" maskUnits="userSpaceOnUse" x="159" y="16" width="23" height="23">
<ellipse cx="170.076" cy="27.1454" rx="11.0591" ry="11.0871" fill="#80ABFF"/>
</mask>
<g mask="url(#mask0_598_188089)">
<path d="M170.091 27.5903V15.1858L158.542 15.6135V22.0297V31.8678L161.964 35.7174L170.091 27.5903Z" fill="#80ABFF"/>
</g>
<ellipse cx="170.076" cy="27.1452" rx="11.0591" ry="11.0871" stroke="#050505" stroke-width="1.5" stroke-linecap="round" stroke-linejoin="round"/>
<path d="M170.092 16.4688C170.092 20.9789 170.092 27.5901 170.092 27.5901L162.393 34.8617" stroke="#050505" stroke-width="1.5" stroke-linecap="square" stroke-linejoin="round"/>
<path d="M159.017 41.9285H178.677" stroke="#050505" stroke-width="1.5" stroke-linecap="round" stroke-linejoin="round"/>
<path d="M159.017 45.6243H168.847" stroke="#050505" stroke-width="1.5" stroke-linecap="round" stroke-linejoin="round"/>
<path d="M158.789 91.3125V92.1562C158.773 93.1172 158.773 94.5234 158.445 96.3125L156.727 96.1562C157.008 94.7031 157.062 93.6172 157.078 92.75H151.586V91.3125H158.789ZM150.742 97.4375C151.578 97.4297 152.516 97.4219 153.508 97.4062V94.5312H155.227V97.3516C156.688 97.2891 158.188 97.1797 159.555 96.9844L159.648 98.2344C156.711 98.7656 153.375 98.8203 150.898 98.8281L150.742 97.4375ZM152.852 104.109V99.9062H154.602V102.703H162.617V104.109H152.852ZM160.383 100.844V90.2656H162.164V94.6719H163.992V96.125H162.164V100.844H160.383ZM176.883 90.2656V104.391H175.227V90.2656H176.883ZM164.477 100.375C166.516 99.1328 167.414 96.5859 167.414 94.125V93.1875H164.961V91.7812H171.367V93.1875H169.086V94.125C169.086 96.5078 169.938 98.8984 171.961 100.062L170.93 101.344C169.625 100.57 168.758 99.2266 168.266 97.6172C167.766 99.3594 166.867 100.844 165.539 101.672L164.477 100.375ZM170.336 96.5938V95.1875H172.367V90.5312H174.008V103.703H172.367V96.5938H170.336ZM183.898 93.6562C183.883 96.25 185.25 98.8438 187.539 99.8281L186.508 101.219C184.883 100.469 183.695 98.9766 183.039 97.1328C182.391 99.1172 181.172 100.742 179.461 101.547L178.398 100.094C180.75 99.0781 182.125 96.3828 182.133 93.6562V91.4062H183.898V93.6562ZM188.555 104.406V90.2656H190.305V104.406H188.555ZM199.68 92.2031C199.68 94.3828 201.812 96.5781 204.773 97.0938L203.992 98.5469C201.625 98.0547 199.688 96.6172 198.766 94.7188C197.836 96.6016 195.898 98.0469 193.539 98.5469L192.773 97.0938C195.688 96.5625 197.828 94.375 197.836 92.2031V91.1562H199.68V92.2031ZM192.383 102.594V101.156H205.289V102.594H192.383ZM212.18 91.1406V92.5469H208.477V93.875H211.648V95.2188H208.477V96.6719C210.164 96.6562 211.336 96.5859 212.711 96.3438L212.898 97.7031C211.266 98 209.922 98.0625 207.742 98.0625H206.805V91.1406H212.18ZM208.758 104.219V99.3125H218.289V104.219H208.758ZM210.492 102.812H216.57V100.688H210.492V102.812ZM212.258 95.125V93.7188H213.852V90.5H215.508V98.6094H213.852V95.125H212.258ZM216.633 98.7188V90.2656H218.289V98.7188H216.633Z" fill="#050505"/>
<path d="M293.133 90.8438V92.0156C293.141 93.1172 293.141 94.3203 292.836 95.8281H294.648V97.2188H281.836V95.8281H291.109C291.203 95.3281 291.266 94.8672 291.312 94.4297L283.242 94.7656L283.039 93.4219L291.383 93.2188C291.398 92.875 291.398 92.5469 291.398 92.2188H283.398V90.8438H293.133ZM283.258 99.5625V98.2344H293.211V101.797H285.008V102.859H293.711V104.219H283.289V100.531H291.477V99.5625H283.258ZM306.695 90.2656V95.6875H308.867V97.1406H306.695V104.406H304.977V90.2656H306.695ZM296.195 92.9062V91.5H302.695V96.8281H297.945V99.6406C300.188 99.625 301.93 99.5312 303.898 99.1875L304.055 100.594C301.875 100.984 299.953 101.078 297.383 101.078H296.227V95.4375H300.961V92.9062H296.195ZM322.352 98.2188V99.6562H316.727V104.391H315.008V99.6562H309.445V98.2188H322.352ZM310.805 93.9375C310.797 92 312.859 90.7734 315.867 90.7656C318.875 90.7734 320.953 92 320.961 93.9375C320.953 95.8516 318.875 97.0703 315.867 97.0625C312.859 97.0703 310.797 95.8516 310.805 93.9375ZM312.586 93.9375C312.578 95.0391 313.875 95.6875 315.867 95.6875C317.867 95.6875 319.164 95.0391 319.164 93.9375C319.164 92.8281 317.867 92.1719 315.867 92.1719C313.875 92.1719 312.578 92.8281 312.586 93.9375ZM334.758 96.8906V98.2812H324.852V91.5H334.648V92.9062H326.57V96.8906H334.758ZM323.289 102.594V101.156H336.195V102.594H323.289ZM341.492 91.6875H343.992L347.352 99.9062H347.492L350.852 91.6875H353.352V103H351.398V95.2188H351.289L348.148 102.969H346.695L343.555 95.1875H343.461V103H341.492V91.6875ZM355.445 103V91.6875H362.805V93.3906H357.477V96.4844H362.414V98.1875H357.477V101.281H362.836V103H355.445ZM370.914 94.7969C370.812 93.8203 369.992 93.2578 368.773 93.2656C367.484 93.2578 366.719 93.8828 366.711 94.7344C366.703 95.6875 367.711 96.0781 368.648 96.2969L369.711 96.5781C371.398 96.9688 373.023 97.8594 373.023 99.8281C373.023 101.812 371.453 103.172 368.742 103.172C366.109 103.172 364.438 101.906 364.352 99.6719H366.352C366.445 100.852 367.438 101.43 368.727 101.438C370.062 101.43 370.984 100.781 370.992 99.8125C370.984 98.9219 370.172 98.5469 368.945 98.2344L367.664 97.9062C365.805 97.4219 364.648 96.4844 364.648 94.8594C364.648 92.8594 366.422 91.5312 368.805 91.5312C371.203 91.5312 372.836 92.8828 372.867 94.7969H370.914Z" fill="#050505"/>
<path d="M323.354 12.1537C322.157 11.6149 320.881 11.2179 319.554 10.9698V9.66544L320.102 7.34027C318.883 7.11342 317.614 7 316.316 7C315.018 7 313.748 7.12051 312.53 7.34027L313.078 9.66544V10.9698C310.784 11.4093 308.65 12.2813 306.782 13.5289L305.852 12.6003L304.568 10.5728C302.484 11.9835 300.674 13.7699 299.217 15.8186L301.294 17.0734L302.224 18.002C300.962 19.8381 300.068 21.9364 299.635 24.1977H298.294L295.929 23.659C295.698 24.857 295.575 26.0976 295.575 27.3736C295.575 28.6496 295.698 29.876 295.929 31.074L298.294 30.5282H299.635C300.075 32.8037 300.962 34.902 302.224 36.7239L301.294 37.6525L299.217 38.9144C300.667 40.9772 302.484 42.7566 304.568 44.1602L305.852 42.1327L306.782 41.2041C308.65 42.4588 310.784 43.3379 313.078 43.7703V45.0746L312.53 47.3998C313.748 47.6267 315.018 47.7401 316.316 47.7401C317.614 47.7401 318.883 47.6196 320.102 47.3998L319.554 45.0746V43.7703C321.847 43.3308 323.981 42.4588 325.849 41.2112L326.78 42.1398L328.063 44.1673C330.147 42.7566 331.957 40.9702 333.414 38.9215L331.337 37.6667L330.407 36.7381C331.669 34.902 332.563 32.8037 332.996 30.5423H334.337L336.703 31.0811C336.933 29.8831 337.056 28.6425 337.056 27.3665C337.056 26.0905 336.933 24.8641 336.703 23.6661L334.337 24.2119H332.996C332.556 21.9364 331.669 19.8381 330.407 18.0162L331.337 17.0875L333.414 15.8257C331.965 13.7628 330.155 11.9835 328.063 10.5799L326.78 12.6073L325.849 13.536" stroke="#050505" stroke-width="1.5" stroke-linecap="round" stroke-linejoin="round"/>
<path d="M316.316 35.8881C321.225 35.8881 325.204 32.0743 325.204 27.3697C325.204 22.6651 321.225 18.8513 316.316 18.8513C311.406 18.8513 307.427 22.6651 307.427 27.3697C307.427 32.0743 311.406 35.8881 316.316 35.8881Z" stroke="#050505" stroke-width="1.5" stroke-linecap="round" stroke-linejoin="round"/>
<path d="M362.798 60.2433L365.203 54.3106L362.716 53.2977C362.906 51.9864 362.888 50.6841 362.689 49.4089L365.158 48.3688L362.671 42.4723L360.202 43.5123C359.433 42.4813 358.502 41.5589 357.435 40.7811L358.448 38.2941L352.515 35.8884L351.502 38.3755C350.191 38.1855 348.888 38.2036 347.613 38.4026L346.573 35.9336L340.677 38.4207L341.717 40.8896C340.686 41.6584 339.763 42.5899 338.985 43.657L336.498 42.6441L334.093 48.5769L336.58 49.5898C336.39 50.9011 336.408 52.2034 336.607 53.4786L334.138 54.5186L336.625 60.4152L339.094 59.3751C339.863 60.4061 340.794 61.3286 341.861 62.1063L340.848 64.5934L346.781 66.999L347.794 64.512C349.105 64.7019 350.408 64.6838 351.683 64.4849L352.723 66.9538L358.62 64.4668L357.579 61.9978C358.61 61.2291 359.533 60.2976 360.311 59.2304L362.798 60.2433ZM346.718 58.6788C342.73 57.0599 340.803 52.5109 342.431 48.5135C344.059 44.5162 348.599 42.5989 352.596 44.2268C356.585 45.8456 358.511 50.3947 356.883 54.392C355.255 58.3894 350.715 60.3066 346.718 58.6788Z" fill="#80ABFF"/>
<rect x="68" y="128" width="384" height="60" rx="6" fill="#0057FF"/>
<path d="M200.059 150.859H203.184L207.383 161.133H207.559L211.758 150.859H214.883V165H212.441V155.273H212.305L208.379 164.961H206.562L202.637 155.234H202.52V165H200.059V150.859ZM222.754 160.254H225.078L226.279 161.836C227.09 160.996 227.568 159.688 227.559 157.93C227.568 154.697 225.947 152.949 223.633 152.949C221.328 152.949 219.697 154.697 219.707 157.93C219.697 161.162 221.328 162.91 223.633 162.91C224.004 162.91 224.355 162.861 224.688 162.773L222.754 160.254ZM217.148 157.93C217.139 153.359 219.912 150.664 223.633 150.664C227.334 150.664 230.127 153.359 230.117 157.93C230.127 160.498 229.248 162.471 227.822 163.711L229.785 166.23H227.305L226.123 164.736C225.361 165.039 224.521 165.195 223.633 165.195C219.912 165.195 217.139 162.49 217.148 157.93ZM231.152 152.988V150.859H242.422V152.988H238.066V165H235.527V152.988H231.152ZM243.789 152.988V150.859H255.059V152.988H250.703V165H248.164V152.988H243.789ZM261.797 165V150.859H267.207C270.273 150.859 271.787 152.422 271.797 154.531C271.787 156.25 270.703 157.207 269.316 157.539V157.676C270.82 157.754 272.344 159.004 272.344 161.152C272.344 163.35 270.752 165 267.52 165H261.797ZM264.336 162.871H267.129C268.984 162.871 269.756 162.08 269.766 160.957C269.756 159.688 268.77 158.721 267.188 158.711H264.336V162.871ZM264.336 156.875H266.895C268.232 156.875 269.248 156.104 269.258 154.844C269.248 153.76 268.467 152.969 266.953 152.969H264.336V156.875ZM274.297 165V154.395H276.719V156.152H276.836C277.217 154.932 278.232 154.238 279.453 154.238C279.727 154.238 280.117 154.268 280.352 154.297V156.602C280.127 156.523 279.609 156.455 279.199 156.445C277.812 156.455 276.797 157.412 276.797 158.75V165H274.297ZM286.113 165.215C283.018 165.215 281.035 163.018 281.035 159.746C281.035 156.445 283.018 154.258 286.113 154.258C289.219 154.258 291.201 156.445 291.191 159.746C291.201 163.018 289.219 165.215 286.113 165.215ZM283.555 159.727C283.555 161.67 284.404 163.223 286.133 163.223C287.832 163.223 288.682 161.67 288.672 159.727C288.682 157.783 287.832 156.221 286.133 156.23C284.404 156.221 283.555 157.783 283.555 159.727ZM293.125 165V150.859H295.625V158.652H295.801L299.609 154.395H302.52L298.408 158.965L302.773 165H299.805L296.543 160.449L295.625 161.426V165H293.125ZM308.262 165.215C305.068 165.215 303.105 163.086 303.105 159.766C303.105 156.484 305.098 154.258 308.125 154.258C310.723 154.258 312.969 155.889 312.969 159.609V160.391H305.566C305.605 162.197 306.67 163.271 308.281 163.262C309.375 163.271 310.107 162.803 310.43 162.168H312.871C312.422 164.004 310.723 165.215 308.262 165.215ZM305.576 158.691H310.586C310.576 157.246 309.6 156.191 308.164 156.191C306.67 156.191 305.664 157.344 305.576 158.691ZM314.902 165V154.395H317.324V156.152H317.441C317.822 154.932 318.838 154.238 320.059 154.238C320.332 154.238 320.723 154.268 320.957 154.297V156.602C320.732 156.523 320.215 156.455 319.805 156.445C318.418 156.455 317.402 157.412 317.402 158.75V165H314.902Z" fill="white"/>
<rect x="143.75" y="43.25" width="0.500003" height="143.5" transform="rotate(90 143.75 43.25)" stroke="#70747D" stroke-width="0.500003" stroke-dasharray="2 2"/>
<rect x="60.75" y="163.25" width="0.500001" height="60.5" transform="rotate(90 60.75 163.25)" stroke="#70747D" stroke-width="0.500001" stroke-dasharray="2 2"/>
<rect x="0.749999" y="162.75" width="0.500002" height="119.5" transform="rotate(-180 0.749999 162.75)" stroke="#70747D" stroke-width="0.500002" stroke-dasharray="2 2"/>
<g clip-path="url(#clip0_598_188089)">
<path d="M151 43.5L143.5 48.2631L143.5 38.7369L151 43.5Z" fill="#70747D"/>
</g>
<g clip-path="url(#clip1_598_188089)">
<path d="M68 163.5L60.5 168.263L60.5 158.737L68 163.5Z" fill="#70747D"/>
</g>
<rect x="0.250002" y="0.250002" width="0.500003" height="143.5" transform="matrix(9.10145e-08 1 1 -4.37114e-08 376 43)" stroke="#70747D" stroke-width="0.500003" stroke-dasharray="2 2"/>
<rect x="0.250001" y="0.250001" width="0.500001" height="60.5" transform="matrix(9.10145e-08 1 1 -4.37114e-08 459 163)" stroke="#70747D" stroke-width="0.500001" stroke-dasharray="2 2"/>
<rect x="0.250001" y="-0.250001" width="0.500002" height="119.5" transform="matrix(1 -8.74228e-08 -4.01197e-08 -1 519 162.5)" stroke="#70747D" stroke-width="0.500002" stroke-dasharray="2 2"/>
<g clip-path="url(#clip2_598_188089)">
<path d="M369 43.5L376.5 48.2631L376.5 38.7369L369 43.5Z" fill="#70747D"/>
</g>
<g clip-path="url(#clip3_598_188089)">
<path d="M452 163.5L459.5 168.263L459.5 158.737L452 163.5Z" fill="#70747D"/>
</g>
<g clip-path="url(#clip4_598_188089)">
<rect x="260.25" y="193.25" width="0.5" height="47.5" stroke="#70747D" stroke-width="0.5" stroke-dasharray="2 2"/>
<g clip-path="url(#clip5_598_188089)">
<path d="M260.5 248L265.263 240.5L255.737 240.5L260.5 248Z" fill="#70747D"/>
</g>
<path d="M260.5 188L255.737 195.5L265.263 195.5L260.5 188Z" fill="#70747D"/>
</g>
<rect x="0.5" y="500.5" width="519" height="145" rx="9.5" stroke="#E5EBF4"/>
<path d="M166.95 589.844H155.685C155.183 589.844 154.776 590.251 154.776 590.753V599.905C154.776 600.407 155.183 600.814 155.685 600.814H166.95C167.452 600.814 167.858 600.407 167.858 599.905V590.753C167.858 590.251 167.452 589.844 166.95 589.844Z" fill="#80ABFF"/>
<path d="M170.389 581.219L168.042 578.85H154.87L147.128 586.646L152.026 591.578L152.791 595.305H155.084V590.303L151.451 586.646L156.136 581.933H166.776L171.456 586.646L167.828 590.303V595.305H170.121L170.886 591.578L175.784 586.646L171.804 582.643" stroke="#050505" stroke-width="1.5" stroke-linecap="round" stroke-linejoin="round"/>
<path d="M157.723 575.256V578.845H165.821V577.321V575.256" stroke="#050505" stroke-width="1.5" stroke-linecap="round" stroke-linejoin="round"/>
<path d="M156.526 567.67H134.935M157.109 574.672H134.935" stroke="#050505" stroke-width="1.5" stroke-linecap="round" stroke-linejoin="round"/>
<path d="M165.815 574.916C168.09 572.722 168.09 569.166 165.815 566.972C163.54 564.778 159.852 564.778 157.578 566.972C155.303 569.166 155.303 572.722 157.578 574.916C159.852 577.109 163.54 577.109 165.815 574.916Z" stroke="#050505" stroke-width="1.5" stroke-linecap="round" stroke-linejoin="round"/>
<path d="M164.065 570.95C164.065 572.21 163.003 573.234 161.696 573.234C160.389 573.234 159.327 572.21 159.327 570.95C159.327 569.69 160.389 568.665 161.696 568.665C163.003 568.665 164.065 569.69 164.065 570.95Z" stroke="#050505" stroke-width="1.5" stroke-linecap="round" stroke-linejoin="round"/>
<path d="M133.975 593.422V575.8M127.122 593.422V575.8" stroke="#050505" stroke-width="1.5" stroke-linecap="round" stroke-linejoin="round"/>
<path d="M127.154 566.18C128.051 565.637 129.109 565.324 130.246 565.324C133.462 565.324 136.071 567.839 136.071 570.941C136.071 574.043 133.462 576.558 130.246 576.558C127.029 576.558 124.421 574.043 124.421 570.941C124.421 569.647 124.875 568.45 125.638 567.503" stroke="#050505" stroke-width="1.5" stroke-linecap="round" stroke-linejoin="round"/>
<path d="M132.622 570.924C132.622 572.184 131.56 573.208 130.254 573.208C128.947 573.208 127.885 572.184 127.885 570.924C127.885 569.664 128.947 568.64 130.254 568.64C131.56 568.64 132.622 569.664 132.622 570.924Z" stroke="#050505" stroke-width="1.5" stroke-linecap="round" stroke-linejoin="round"/>
<path d="M124.433 603.789H136.104L136.104 595.619L134.915 594.512H133.841H126.549H125.621L124.433 595.619L124.433 603.789Z" stroke="#050505" stroke-width="1.5" stroke-linecap="round" stroke-linejoin="round"/>
<path d="M129.273 615.194C131.278 615.194 132.903 613.561 132.903 611.546C132.903 609.531 131.278 607.897 129.273 607.897C127.268 607.897 125.643 609.531 125.643 611.546C125.643 613.561 127.268 615.194 129.273 615.194Z" stroke="#050505" stroke-width="1.5" stroke-linecap="round" stroke-linejoin="round"/>
<path d="M168.364 615.194C170.369 615.194 171.994 613.561 171.994 611.546C171.994 609.531 170.369 607.897 168.364 607.897C166.359 607.897 164.733 609.531 164.733 611.546C164.733 613.561 166.359 615.194 168.364 615.194Z" stroke="#050505" stroke-width="1.5" stroke-linecap="round" stroke-linejoin="round"/>
<path d="M148.82 615.195C150.825 615.195 152.45 613.561 152.45 611.546C152.45 609.532 150.825 607.898 148.82 607.898C146.815 607.898 145.189 609.532 145.189 611.546C145.189 613.561 146.815 615.195 148.82 615.195Z" stroke="#050505" stroke-width="1.5" stroke-linecap="round" stroke-linejoin="round"/>
<path d="M173.5 604.09H125.418C121.321 604.09 118 607.427 118 611.545C118 615.663 121.321 619 125.418 619H173.5C177.598 619 180.919 615.663 180.919 611.545C180.919 607.427 177.598 604.09 173.5 604.09Z" stroke="#050505" stroke-width="1.5" stroke-linecap="round" stroke-linejoin="round"/>
<path d="M167.06 520.993H133.94C133.145 520.993 132.5 521.539 132.5 522.211V545.635C132.5 546.307 133.145 546.852 133.94 546.852H167.06C167.855 546.852 168.5 546.307 168.5 545.635V522.211C168.5 521.539 167.855 520.993 167.06 520.993Z" stroke="#050505" stroke-width="1.5" stroke-linecap="round" stroke-linejoin="round"/>
<mask id="path-88-inside-1_598_188089" fill="white">
<rect x="135.5" y="536.514" width="9.12676" height="7.48941" rx="1.01408"/>
</mask>
<rect x="135.5" y="536.514" width="9.12676" height="7.48941" rx="1.01408" stroke="#050505" stroke-width="3" mask="url(#path-88-inside-1_598_188089)"/>
<mask id="path-89-inside-2_598_188089" fill="white">
<rect x="156.796" y="536.521" width="9.12676" height="7.48941" rx="1.01408"/>
</mask>
<rect x="156.796" y="536.521" width="9.12676" height="7.48941" rx="1.01408" stroke="#050505" stroke-width="3" mask="url(#path-89-inside-2_598_188089)"/>
<mask id="path-90-inside-3_598_188089" fill="white">
<rect x="146.149" y="536.514" width="9.12676" height="7.48941" rx="1.01408"/>
</mask>
<rect x="146.149" y="536.514" width="9.12676" height="7.48941" rx="1.01408" stroke="#050505" stroke-width="3" mask="url(#path-90-inside-3_598_188089)"/>
<path d="M142.987 526.264H145.427C145.849 526.264 146.221 526.349 146.54 526.518C146.862 526.684 147.11 526.919 147.285 527.223C147.462 527.526 147.55 527.878 147.55 528.276C147.55 528.68 147.46 529.034 147.281 529.338C147.101 529.639 146.848 529.87 146.52 530.031C146.193 530.192 145.813 530.273 145.379 530.273H144.492V532H142.987V526.264ZM145.078 529.1C145.361 529.098 145.581 529.024 145.74 528.879C145.898 528.731 145.976 528.53 145.974 528.276C145.976 528.026 145.898 527.829 145.74 527.686C145.581 527.544 145.361 527.471 145.078 527.468H144.492V529.1H145.078ZM148.631 526.264H150.136V530.78H152.474V532H148.631V526.264ZM157.159 528.395C157.133 528.121 157.03 527.903 156.85 527.742C156.673 527.581 156.436 527.5 156.137 527.5C155.741 527.5 155.435 527.644 155.218 527.932C155.002 528.217 154.893 528.617 154.893 529.132C154.893 529.663 155 530.067 155.214 530.344C155.431 530.621 155.736 530.761 156.129 530.764C156.417 530.761 156.65 530.689 156.826 530.546C157.006 530.401 157.117 530.199 157.159 529.94L158.688 529.956C158.659 530.302 158.54 530.639 158.332 530.966C158.126 531.291 157.831 531.558 157.448 531.766C157.068 531.975 156.618 532.079 156.098 532.079C155.567 532.079 155.093 531.964 154.675 531.735C154.261 531.505 153.935 531.168 153.697 530.724C153.459 530.281 153.341 529.75 153.341 529.132C153.341 528.514 153.461 527.983 153.701 527.54C153.944 527.096 154.274 526.759 154.691 526.53C155.109 526.3 155.577 526.185 156.098 526.185C156.576 526.185 157.002 526.272 157.377 526.446C157.752 526.618 158.053 526.87 158.28 527.203C158.51 527.536 158.646 527.933 158.688 528.395H157.159Z" fill="#050505"/>
<path d="M293.609 617.014V599.103C293.609 597.296 294.02 595.514 294.817 593.888L298.578 586.218H304.154C304.154 586.218 307.801 587.844 307.801 593.921V617.014" stroke="#050505" stroke-width="1.5" stroke-linecap="round" stroke-linejoin="round"/>
<path d="M297.259 584.156C295.978 584.156 294.861 583.277 294.59 582.029C293.489 576.871 294.286 568.355 300.141 567.829C300.141 567.829 307.557 566.622 307.976 573.455C308.354 579.688 304.157 583.704 304.157 583.704V586.217H298.581V584.164H297.259V584.156Z" stroke="#050505" stroke-width="1.5" stroke-linecap="round" stroke-linejoin="round"/>
<path d="M290.327 573.085H307.984" stroke="#050505" stroke-width="1.5" stroke-linecap="round" stroke-linejoin="round"/>
<path d="M302.358 590.774C302.358 590.774 299.064 591.234 299.064 595.644V617.013" stroke="#050505" stroke-width="1.5" stroke-linecap="round" stroke-linejoin="round"/>
<path d="M249.536 603.257C251.054 603.257 252.285 602.02 252.285 600.495C252.285 598.97 251.054 597.733 249.536 597.733C248.019 597.733 246.788 598.97 246.788 600.495C246.788 602.02 248.019 603.257 249.536 603.257Z" stroke="#050505" stroke-width="1.5" stroke-linecap="round" stroke-linejoin="round"/>
<path d="M279.131 603.256C280.649 603.256 281.879 602.02 281.879 600.494C281.879 598.969 280.649 597.732 279.131 597.732C277.613 597.732 276.383 598.969 276.383 600.494C276.383 602.02 277.613 603.256 279.131 603.256Z" stroke="#050505" stroke-width="1.5" stroke-linecap="round" stroke-linejoin="round"/>
<path d="M264.335 603.256C265.853 603.256 267.084 602.019 267.084 600.494C267.084 598.968 265.853 597.732 264.335 597.732C262.817 597.732 261.587 598.968 261.587 600.494C261.587 602.019 262.817 603.256 264.335 603.256Z" stroke="#050505" stroke-width="1.5" stroke-linecap="round" stroke-linejoin="round"/>
<path d="M246.616 606.137C243.514 606.137 241 603.611 241 600.493C241 597.376 243.514 594.85 246.616 594.85H283.017C286.119 594.85 288.633 597.376 288.633 600.493C288.633 603.611 286.119 606.137 283.017 606.137M246.616 606.137H283.017M246.616 606.137V617.107M283.017 606.137V617.107" stroke="#050505" stroke-width="1.5" stroke-linecap="round" stroke-linejoin="round"/>
<path d="M270.251 578H260.246C259.834 578 259.5 578.334 259.5 578.746V587.108C259.5 587.521 259.834 587.855 260.246 587.855H270.251C270.663 587.855 270.998 587.521 270.998 587.108V578.746C270.998 578.334 270.663 578 270.251 578Z" fill="#80ABFF"/>
<path d="M273.333 570.579L271.18 568.569H259.1L252 575.183L256.492 579.368L257.193 582.53H259.296V578.286L255.964 575.183L260.261 571.185H270.019L274.311 575.183L270.984 578.286V582.53H273.087L273.788 579.368L278.28 575.183L274.63 571.787" stroke="#050505" stroke-width="1.5" stroke-linecap="round" stroke-linejoin="round"/>
<path d="M261 560V568M269 560V564.603V568" stroke="#050505" stroke-width="1.5" stroke-linecap="round" stroke-linejoin="round"/>
<path d="M288.56 520.993H255.44C254.645 520.993 254 521.539 254 522.211V545.635C254 546.307 254.645 546.852 255.44 546.852H288.56C289.355 546.852 290 546.307 290 545.635V522.211C290 521.539 289.355 520.993 288.56 520.993Z" stroke="#050505" stroke-width="1.5" stroke-linecap="round" stroke-linejoin="round"/>
<mask id="path-104-inside-4_598_188089" fill="white">
<rect x="257" y="536.514" width="9.12676" height="7.48941" rx="1.01408"/>
</mask>
<rect x="257" y="536.514" width="9.12676" height="7.48941" rx="1.01408" stroke="#050505" stroke-width="3" mask="url(#path-104-inside-4_598_188089)"/>
<mask id="path-105-inside-5_598_188089" fill="white">
<rect x="278.296" y="536.521" width="9.12676" height="7.48941" rx="1.01408"/>
</mask>
<rect x="278.296" y="536.521" width="9.12676" height="7.48941" rx="1.01408" stroke="#050505" stroke-width="3" mask="url(#path-105-inside-5_598_188089)"/>
<mask id="path-106-inside-6_598_188089" fill="white">
<rect x="267.649" y="536.514" width="9.12676" height="7.48941" rx="1.01408"/>
</mask>
<rect x="267.649" y="536.514" width="9.12676" height="7.48941" rx="1.01408" stroke="#050505" stroke-width="3" mask="url(#path-106-inside-6_598_188089)"/>
<path d="M264.487 526.264H266.927C267.349 526.264 267.721 526.349 268.04 526.518C268.362 526.684 268.61 526.919 268.785 527.223C268.962 527.526 269.05 527.878 269.05 528.276C269.05 528.68 268.96 529.034 268.781 529.338C268.601 529.639 268.348 529.87 268.02 530.031C267.693 530.192 267.313 530.273 266.879 530.273H265.992V532H264.487V526.264ZM266.578 529.1C266.861 529.098 267.081 529.024 267.24 528.879C267.398 528.731 267.476 528.53 267.474 528.276C267.476 528.026 267.398 527.829 267.24 527.686C267.081 527.544 266.861 527.471 266.578 527.468H265.992V529.1H266.578ZM270.131 526.264H271.636V530.78H273.974V532H270.131V526.264ZM278.659 528.395C278.633 528.121 278.53 527.903 278.35 527.742C278.173 527.581 277.936 527.5 277.637 527.5C277.241 527.5 276.935 527.644 276.718 527.932C276.502 528.217 276.393 528.617 276.393 529.132C276.393 529.663 276.5 530.067 276.714 530.344C276.931 530.621 277.236 530.761 277.629 530.764C277.917 530.761 278.15 530.689 278.326 530.546C278.506 530.401 278.617 530.199 278.659 529.94L280.188 529.956C280.159 530.302 280.04 530.639 279.832 530.966C279.626 531.291 279.331 531.558 278.948 531.766C278.568 531.975 278.118 532.079 277.598 532.079C277.067 532.079 276.593 531.964 276.175 531.735C275.761 531.505 275.435 531.168 275.197 530.724C274.959 530.281 274.841 529.75 274.841 529.132C274.841 528.514 274.961 527.983 275.201 527.54C275.444 527.096 275.774 526.759 276.191 526.53C276.609 526.3 277.077 526.185 277.598 526.185C278.076 526.185 278.502 526.272 278.877 526.446C279.252 526.618 279.553 526.87 279.78 527.203C280.01 527.536 280.146 527.933 280.188 528.395H278.659Z" fill="#050505"/>
<path d="M407.007 600.603L408.992 592.562C409.336 591.178 410.596 590.191 412.028 590.191H430.565C431.997 590.191 433.257 591.159 433.6 592.562L435.586 600.603" fill="#80ABFF"/>
<path fill-rule="evenodd" clip-rule="evenodd" d="M390 578C390 559.935 403.67 547 421.5 547C439.33 547 453 559.935 453 578H446.395C446.395 562.952 435.67 553 421.5 553C407.33 553 396.605 562.952 396.605 578H390Z" fill="#80ABFF"/>
<path d="M441.01 601C441.857 601 442.703 600.691 443.314 600.113C449.279 594.501 453 586.594 453 577.857C453 560.828 438.904 547 421.5 547C404.096 547 390 560.828 390 577.857C390 586.594 393.721 594.501 399.686 600.113C400.297 600.691 401.143 601 401.99 601H441.01Z" stroke="#050505" stroke-width="1.5" stroke-linejoin="round"/>
<path d="M422 551.564V546.5" stroke="#050505" stroke-width="1.5" stroke-linejoin="round"/>
<path d="M395.552 576.845H390.474" stroke="#050505" stroke-width="1.5" stroke-linejoin="round"/>
<path d="M452.792 578.267H447.714" stroke="#050505" stroke-width="1.5" stroke-linejoin="round"/>
<path d="M448.688 563.095L444.278 565.617" stroke="#050505" stroke-width="1.5" stroke-linejoin="round"/>
<path d="M408.266 554.978L405.727 550.578" stroke="#050505" stroke-width="1.5" stroke-linejoin="round"/>
<path d="M437.539 552L435 556.4" stroke="#050505" stroke-width="1.5" stroke-linejoin="round"/>
<path d="M398.988 564.195L394.578 561.672" stroke="#050505" stroke-width="1.5" stroke-linejoin="round"/>
<path d="M426.67 575.404C426.67 578.514 424.131 581.055 421 581.055C417.869 581.055 415.311 578.533 415.311 575.404C415.311 573.166 418.231 564.916 419.892 560.44C420.274 559.416 421.706 559.416 422.088 560.44C423.73 564.916 426.67 573.166 426.67 575.404Z" fill="#80ABFF"/>
<rect x="0.25" y="-0.25" width="0.5" height="31.5" transform="matrix(1 -4.79886e-08 0 -1 141 512.5)" stroke="#70747D" stroke-width="0.5" stroke-dasharray="2 2"/>
<rect x="0.25" y="-0.25" width="0.5" height="31.5" transform="matrix(1 -6.5813e-08 0 -1 277 512.5)" stroke="#70747D" stroke-width="0.5" stroke-dasharray="2 2"/>
<rect x="-0.25" y="-0.25" width="0.5" height="136.5" transform="matrix(-4.37114e-08 -1 -1 -3.59169e-09 277.5 480.5)" stroke="#70747D" stroke-width="0.5" stroke-dasharray="2 2"/>
<g clip-path="url(#clip6_598_188089)">
<path d="M141.5 520L146.263 512.5L136.737 512.5L141.5 520Z" fill="#70747D"/>
</g>
<g clip-path="url(#clip7_598_188089)">
<path d="M277.5 520L282.263 512.5L272.737 512.5L277.5 520Z" fill="#70747D"/>
</g>
<rect x="-0.249999" y="0.249999" width="0.499997" height="32.5" transform="matrix(-1 -4.01197e-08 -8.74228e-08 1 209.5 447)" stroke="#70747D" stroke-width="0.499997" stroke-dasharray="2 2"/>
<g clip-path="url(#clip8_598_188089)">
<path d="M209.5 440L204.737 447.5L214.263 447.5L209.5 440Z" fill="#70747D"/>
</g>
<g clip-path="url(#clip9_598_188089)">
<g clip-path="url(#clip10_598_188089)">
<path d="M422.5 440L427.263 447.5L417.737 447.5L422.5 440Z" fill="#70747D"/>
</g>
<rect x="422.25" y="447.25" width="0.499999" height="90.5" stroke="#70747D" stroke-width="0.499999" stroke-dasharray="2 2"/>
<g clip-path="url(#clip11_598_188089)">
<path d="M422.5 546L427.263 538.5L417.737 538.5L422.5 546Z" fill="#70747D"/>
</g>
</g>
<defs>
<clipPath id="clip0_598_188089">
<rect width="7" height="11" fill="white" transform="translate(151 49) rotate(180)"/>
</clipPath>
<clipPath id="clip1_598_188089">
<rect width="7" height="11" fill="white" transform="translate(68 169) rotate(180)"/>
</clipPath>
<clipPath id="clip2_598_188089">
<rect width="7" height="11" fill="white" transform="matrix(1 8.74228e-08 1.34726e-07 -1 369 49)"/>
</clipPath>
<clipPath id="clip3_598_188089">
<rect width="7" height="11" fill="white" transform="matrix(1 8.74228e-08 1.34726e-07 -1 452 169)"/>
</clipPath>
<clipPath id="clip4_598_188089">
<rect width="60" height="11" fill="white" transform="translate(266 188) rotate(90)"/>
</clipPath>
<clipPath id="clip5_598_188089">
<rect width="7" height="11" fill="white" transform="matrix(2.60484e-08 -1 -1 -7.33514e-08 266 248)"/>
</clipPath>
<clipPath id="clip6_598_188089">
<rect width="7" height="11" fill="white" transform="matrix(1.31134e-07 -1 -1 -1.78437e-07 147 520)"/>
</clipPath>
<clipPath id="clip7_598_188089">
<rect width="7" height="11" fill="white" transform="matrix(1.31134e-07 -1 -1 -1.78437e-07 283 520)"/>
</clipPath>
<clipPath id="clip8_598_188089">
<rect width="7" height="11" fill="white" transform="matrix(-2.18557e-07 1 1 2.6586e-07 204 440)"/>
</clipPath>
<clipPath id="clip9_598_188089">
<rect width="106" height="11" fill="white" transform="translate(428 440) rotate(90)"/>
</clipPath>
<clipPath id="clip10_598_188089">
<rect width="7" height="11" fill="white" transform="translate(428 440) rotate(90)"/>
</clipPath>
<clipPath id="clip11_598_188089">
<rect width="7" height="11" fill="white" transform="matrix(2.60484e-08 -1 -1 -7.33514e-08 428 546)"/>
</clipPath>
</defs>
</svg>
