<svg width="30" height="30" viewBox="0 0 30 30" fill="none" xmlns="http://www.w3.org/2000/svg">
<g clip-path="url(#clip0_27_4224)">
<path d="M5.05478 10.8909C5.05478 10.8909 4.07723 10.8909 3.19084 11.7746V8.21094H1V17.5764H3.21284V16.8411C3.21284 16.8411 3.73462 17.8086 5.05164 17.8086C5.05164 17.8086 8.1383 17.6925 8.1383 14.3126C8.1383 14.3126 8.02515 10.8877 5.05164 10.8877L5.05478 10.8909ZM4.57072 15.8349C3.79434 15.8349 3.16255 15.1866 3.16255 14.39C3.16255 13.5935 3.79434 12.9452 4.57072 12.9452C5.3471 12.9452 5.9789 13.5935 5.9789 14.39C5.9789 15.1866 5.3471 15.8349 4.57072 15.8349Z" fill="white"/>
<path d="M8.84375 8V10.1672C8.84375 10.1672 9.8433 10.1221 9.8433 12.0313V17.575H11.9556V11.5185C11.9556 11.5185 12.0467 8 8.84375 8Z" fill="white"/>
<path d="M17.1214 10.918C17.1214 10.918 13.5004 10.918 13.5004 14.3881C13.5004 14.3881 13.3841 17.8098 17.1214 17.8098C17.1214 17.8098 20.8242 17.8034 20.8242 14.3881C20.8242 14.3881 20.9436 10.918 17.1214 10.918ZM17.1214 15.8329C16.345 15.8329 15.7132 15.1847 15.7132 14.3881C15.7132 13.5915 16.345 12.9433 17.1214 12.9433C17.8978 12.9433 18.5296 13.5915 18.5296 14.3881C18.5296 15.1847 17.8978 15.8329 17.1214 15.8329Z" fill="white"/>
<path d="M26.8755 11.1444V11.7733C26.8755 11.7733 26.2469 10.9186 25.0368 10.9186C25.0368 10.9186 21.9375 10.7832 21.9375 14.3629C21.9375 14.3629 21.9029 17.6976 24.9519 17.6976C24.9519 17.6976 26.1966 17.7492 26.8755 16.8398V17.3654C26.8755 17.3654 27.0296 19.007 25.48 19.007H24.9519V21H25.8037C25.8037 21 29.0067 21.0355 29.0067 17.488V11.1444H26.8787H26.8755ZM25.5648 15.8303C24.7884 15.8303 24.1566 15.1821 24.1566 14.3855C24.1566 13.5889 24.7853 12.9407 25.5648 12.9407C26.3443 12.9407 26.973 13.5889 26.973 14.3855C26.973 15.1821 26.3412 15.8303 25.5648 15.8303Z" fill="white"/>
</g>
<defs>
<clipPath id="clip0_27_4224">
<rect width="28" height="13" fill="white" transform="translate(1 8)"/>
</clipPath>
</defs>
</svg>
