<svg width="810" height="553" viewBox="0 0 810 553" fill="none" xmlns="http://www.w3.org/2000/svg">
<g style="mix-blend-mode:luminosity">
<g style="mix-blend-mode:luminosity">
<path fill-rule="evenodd" clip-rule="evenodd" d="M771.033 248.743C771.033 384.987 601.588 495.437 392.593 495.437C183.599 495.437 14.1543 384.987 14.1543 248.743C14.1543 112.5 183.599 2.05029 392.593 2.05029C601.588 2.05029 771.033 112.5 771.033 248.743Z" fill="white"/>
</g>
<path d="M771.033 248.743C771.033 384.987 601.588 495.437 392.593 495.437C183.599 495.437 14.1543 384.987 14.1543 248.743C14.1543 112.5 183.599 2.05029 392.593 2.05029C601.588 2.05029 771.033 112.5 771.033 248.743Z" stroke="#B8B8B8" stroke-width="4"/>
<path fill-rule="evenodd" clip-rule="evenodd" d="M524.803 196.164C534.393 196.164 542.065 188.624 542.065 179.299C542.065 169.974 534.327 162.434 524.803 162.434C515.279 162.434 507.541 170.04 507.541 179.299C507.541 188.558 515.345 196.164 524.803 196.164Z" fill="#CECECE"/>
<path fill-rule="evenodd" clip-rule="evenodd" d="M579.697 229.762C583.334 235.185 586.839 240.344 589.683 244.643C604.829 251.918 615.411 267.328 615.411 285.251C615.411 310.119 595.173 330.291 570.371 330.291C545.57 330.291 525.331 310.053 525.331 285.251C525.331 284.325 525.331 283.4 525.464 282.474H523.083C522.62 283.201 519.247 288.691 515.08 295.503C519.908 321.693 542.858 341.534 570.437 341.534C601.522 341.534 626.72 316.27 626.72 285.185C626.72 257.275 606.35 234.127 579.763 229.696" fill="#CECECE"/>
<path fill-rule="evenodd" clip-rule="evenodd" d="M495.04 323.413L521.693 280.093H579.431C586.111 280.093 602.447 268.717 594.114 255.622C594.114 255.622 557.738 201.191 554.696 198.148C551.653 195.106 542.196 192.328 533.862 197.884C527.315 202.249 513.624 233.135 513.624 233.135C513.624 233.135 498.082 233.4 493.32 233.135C488.624 232.87 487.235 248.942 493.056 248.942H521.362L531.944 230.622L553.902 264.22H509.193L474.206 323.413C472.222 327.05 472.553 332.209 479.431 332.209C486.309 332.209 490.41 329.233 495.04 323.413Z" fill="#CECECE"/>
<path d="M524.471 240.344H474.141V254.299H524.471V240.344Z" fill="#CECECE"/>
<path fill-rule="evenodd" clip-rule="evenodd" d="M479.763 241.071L474.34 244.907L444.975 203.042L450.464 199.206L479.763 241.071Z" fill="#CECECE"/>
<path fill-rule="evenodd" clip-rule="evenodd" d="M238.823 378.77C283.135 395.436 337.698 405.225 395.833 405.225C549.206 405.225 673.743 337.698 673.743 253.902C673.743 211.177 634.325 155.423 533.796 155.423C460.979 155.423 397.487 187.566 397.487 227.05C397.487 233.929 401.521 241.667 406.878 246.958C415.013 256.349 417.46 267.725 417.46 278.307C417.46 326.72 345.436 365.807 256.746 365.807C198.148 365.807 144.444 349.537 117.989 323.082C96.8253 301.918 89.8809 277.91 89.8809 253.902C89.8809 161.574 226.984 86.7063 395.833 86.7063C564.682 86.7063 702.183 161.574 702.183 253.902C702.183 346.23 565.079 421.164 395.833 421.164C329.1 421.164 267.262 409.325 217.196 389.815L238.757 378.836L238.823 378.77Z" fill="#B8B8B8"/>
<path fill-rule="evenodd" clip-rule="evenodd" d="M236.774 365.079C281.152 381.746 335.65 391.534 393.785 391.534C547.158 391.534 671.695 324.008 671.695 240.145C671.695 197.421 632.211 141.733 531.748 141.733C458.93 141.733 395.438 173.876 395.438 213.36C395.438 220.238 399.539 227.976 404.83 233.267C412.965 242.659 415.412 254.034 415.412 264.616C415.412 313.029 343.388 352.116 254.697 352.116C196.099 352.116 142.396 335.847 115.941 309.392C94.7767 288.227 87.8984 264.22 87.8984 240.212C87.8984 147.884 225.002 73.0159 393.851 73.0159C562.7 73.0159 700.2 147.884 700.2 240.212C700.2 332.54 563.097 407.474 393.851 407.474C327.118 407.474 265.279 395.701 215.213 376.19L236.774 365.212V365.079Z" fill="#858585"/>
</g>
<g style="mix-blend-mode:luminosity">
<path d="M150.067 103.042C147.223 96.0317 144.512 91.1375 142.131 87.1031L125.398 97.156L122.355 91.9973L145.437 78.1745L147.62 81.8121C150.199 86.1772 153.506 91.6005 156.681 99.8015L150.067 103.042ZM149.935 110.78C154.168 108.069 158.4 105.159 162.17 102.182L165.279 106.614C157.144 113.624 147.223 119.841 139.419 124.537L135.649 119.577C138.096 118.122 140.874 116.468 143.652 114.749L135.715 101.455L142.064 97.6851L149.869 110.78H149.935ZM173.083 87.4338L167.064 91.0714L179.895 112.566L173.48 116.402L146.562 71.4285L152.977 67.5925L163.824 85.7142L169.842 82.0767L173.083 87.4338Z" fill="#878787"/>
</g>
<g style="mix-blend-mode:luminosity">
<path d="M209.392 54.4312L180.689 65.4762L178.572 59.9868L189.353 55.8201L187.567 51.2566L194.644 48.545L196.429 53.1084L207.276 48.9418L209.392 54.4312ZM202.58 79.4973C195.57 82.209 189.22 80.4233 187.17 75.0661C185.12 69.7751 188.691 64.1534 195.702 61.5079C202.712 58.7963 209.062 60.582 211.112 65.873C213.162 71.2301 209.657 76.7857 202.58 79.4973ZM200.53 74.1402C203.638 72.9497 205.358 70.8995 204.366 68.3862C203.44 65.9391 200.794 65.5423 197.686 66.7328C194.511 67.9894 192.858 69.9735 193.784 72.4206C194.71 74.9338 197.355 75.3307 200.53 74.0741M195.371 85.9127L227.911 73.4127L234.194 89.7487L227.183 92.4603L223.083 81.8122L197.554 91.6005L195.371 85.9788V85.9127ZM228.903 56.6137L222.421 59.0608L227.117 71.3624L220.107 74.0741L208.334 43.4524L215.345 40.7407L220.173 53.3069L226.654 50.8598L228.903 56.6799V56.6137Z" fill="#878787"/>
</g>
<g style="mix-blend-mode:luminosity">
<path d="M267.858 32.0106C271.495 47.6191 269.313 61.5741 253.308 74.6032L248.149 69.709C259.657 60.3836 263.427 51.0582 261.773 39.5503L244.842 43.5185L243.453 37.6984L267.858 31.9445V32.0106ZM281.747 23.082L293.784 74.1402L286.443 75.8598L274.472 24.8016L281.813 23.082H281.747Z" fill="#878787"/>
</g>
<g style="mix-blend-mode:luminosity">
<path d="M333.73 42.3942L334.127 45.701L348.214 44.1137L349.735 57.6058L321.296 60.8465L321.627 63.7566L351.389 60.3836L352.05 66.0053L314.881 70.2381L313.294 56.5476L341.733 53.3069L341.402 50.4629L312.897 53.7037L312.235 48.1481L326.521 46.4947L326.124 43.1878L306.415 45.4365L305.754 39.5502L352.645 34.1931L353.307 40.0793L333.532 42.328L333.73 42.3942ZM347.817 32.6719C338.757 32.6719 331.944 30.0926 328.108 25.6614C325.397 30.754 319.246 34.9206 310.45 36.9047L307.407 31.6137C318.915 29.1667 324.008 23.2143 323.413 18.1878L323.28 17.2619L330.952 16.4021L331.085 17.3942C331.68 22.4206 337.897 27.0502 349.669 26.8518L347.817 32.7381V32.6719Z" fill="#878787"/>
</g>
<g style="mix-blend-mode:luminosity">
<path d="M396.628 42.3942C390.94 40.5423 386.972 36.9048 384.657 32.3413C382.408 37.6323 378.308 41.9974 372.289 44.0476L368.453 38.1614C376.72 35.1852 380.424 28.5053 380.622 21.9577H370.305V16.0053L398.413 15.7407V21.7593L388.294 21.8254C388.559 27.8439 392.263 33.9286 400.199 36.4418L396.628 42.328V42.3942ZM412.831 54.8942C412.831 61.2434 406.085 65.0132 395.04 65.1455C383.929 65.2778 377.051 61.5741 377.051 55.2249C377.051 48.8757 383.797 45.1058 394.908 44.9735C405.953 44.8413 412.831 48.545 412.898 54.8942M405.424 54.8942C405.424 51.918 401.853 50.5291 395.04 50.5952C388.162 50.5952 384.591 52.1164 384.657 55.0926C384.657 58.0688 388.294 59.4577 395.107 59.3915C401.919 59.3254 405.49 57.8704 405.424 54.8942ZM404.961 25.1323L404.829 12.5H412.302L412.567 43.6508H405.093L404.961 31.2831H397.091V25.2645H404.895L404.961 25.1323Z" fill="#878787"/>
</g>
<g style="mix-blend-mode:luminosity">
<path d="M476.918 58.1349L476.322 64.1534L429.232 59.3915L429.828 53.3068L449.537 55.291L450.529 45.701L435.78 44.246L438.558 16.9973L445.965 17.7248L445.172 25.8597L467.394 28.1084L468.187 19.9735L475.529 20.701L472.751 47.9497L458.002 46.4947L457.01 56.0846L476.918 58.0687V58.1349ZM443.783 39.0873L466.005 41.3359L466.732 34.0608L444.51 31.8121L443.783 39.0873Z" fill="#878787"/>
</g>
<g style="mix-blend-mode:luminosity">
<path d="M539.352 57.4735L538.096 63.2275L491.932 53.0423L493.188 47.2883L512.567 51.5873L513.228 48.4126L499.604 45.4365L504.432 23.5449L539.551 31.283L538.294 36.8386L510.45 30.6878L509.855 33.3333L536.574 39.2195L535.384 44.5767L508.664 38.6904L508.069 41.4682L536.31 47.6851L535.053 53.2407L520.437 50.0661L519.709 53.2407L539.154 57.5396L539.352 57.4735ZM530.291 72.6851C529.101 78.1084 521.958 79.6296 510.715 77.1825C499.537 74.7354 493.651 70.3703 494.908 64.8809C496.164 59.3915 503.241 57.9365 514.418 60.3835C525.662 62.8306 531.548 67.1957 530.291 72.6851ZM522.95 71.0317C523.413 68.9153 520.305 67.328 513.228 65.7407C506.217 64.2195 502.712 64.3518 502.249 66.4682C501.786 68.5846 504.828 70.238 511.905 71.7592C518.982 73.3465 522.487 73.082 522.95 70.9656" fill="#878787"/>
</g>
<g style="mix-blend-mode:luminosity">
<path d="M590.014 94.4444L587.964 100.066L554.035 87.6984L559.855 71.8254L566.866 74.4047L563.096 84.6561L589.948 94.4444H590.014ZM579.763 74.537C575.001 70.701 572.62 65.6746 572.157 60.3174C568.122 64.4841 562.831 67.0635 556.35 66.9973L554.829 60.119C563.956 60.3174 570.04 54.6958 572.421 48.2143L574.207 43.3862L581.35 46.0317L579.564 50.8598C577.183 57.3413 578.308 64.8809 585.384 70.3704L579.763 74.6693V74.537ZM591.337 87.1693L584.26 84.5899L597.355 48.7434L604.432 51.3227L591.337 87.1693Z" fill="#878787"/>
</g>
<g style="mix-blend-mode:luminosity">
<path d="M649.934 115.675L632.474 105.754L624.405 119.974L617.924 116.27L625.993 102.05L608.797 92.3281L611.773 87.1033L652.911 110.45L649.934 115.675ZM650.464 103.439L618.85 85.516L630.292 65.344L636.773 68.9816L633.797 74.2064L652.514 84.8546L655.49 79.6297L661.905 83.2673L650.464 103.439ZM649.67 89.881L630.953 79.2329L628.307 83.9286L647.024 94.5768L649.67 89.881Z" fill="#878787"/>
</g>
<path fill-rule="evenodd" clip-rule="evenodd" d="M248.743 296.495H223.875L220.37 214.881L167.724 296.495H142.857L142.658 162.037H173.677L171.759 246.825L225.132 162.037H247.42L249.735 246.825L299.074 162.037H330.158L248.743 296.495Z" fill="white"/>
<path fill-rule="evenodd" clip-rule="evenodd" d="M350.462 297.553L350.925 273.677H313.359L300.198 297.553H264.219L345.303 162.698H380.819L386.507 297.553H350.462ZM352.777 202.447L325.131 251.521H352.248L352.843 202.447H352.777Z" fill="white"/>
<path d="M17.2622 407.011L2.31515 388.36C1.91833 387.897 1.65378 387.434 1.5215 387.103C1.38923 386.706 1.32309 386.376 1.38923 386.045C1.38923 385.714 1.58764 385.384 1.91833 385.053C2.18288 384.722 2.5797 384.325 3.1088 383.929L9.2596 379.034C9.72256 378.638 10.1855 378.704 10.5162 379.167L13.2279 382.54C13.6247 383.003 13.5585 383.466 13.0956 383.862L8.92891 387.169C8.59822 387.434 8.53208 387.765 8.79663 388.095L21.4289 403.836C21.4289 403.836 21.6935 404.233 21.6935 404.431C21.6935 404.63 21.6273 404.894 21.3628 405.093L18.6511 407.275C18.3204 407.54 18.0559 407.606 17.9236 407.54C17.7913 407.474 17.5929 407.275 17.4607 407.077L17.2622 407.011ZM15.2781 381.548C14.4845 380.489 13.8231 379.431 13.4263 378.241C13.0294 377.05 12.831 375.926 12.831 374.802C12.831 373.677 13.0294 372.619 13.4924 371.561C13.9554 370.569 14.6167 369.643 15.5427 368.915C16.4025 368.188 17.3945 367.725 18.5189 367.526C19.5771 367.328 20.7014 367.328 21.8257 367.526C22.9501 367.791 24.0083 368.254 25.0665 368.915C26.1247 369.577 27.0506 370.436 27.9104 371.495C28.7702 372.553 29.3654 373.611 29.7622 374.802C30.1591 375.992 30.4236 377.116 30.4236 378.241C30.4236 379.365 30.2252 380.423 29.7622 381.481C29.2993 382.54 28.6379 383.333 27.7781 384.061C26.8522 384.788 25.8601 385.251 24.8019 385.45C23.7437 385.648 22.6194 385.648 21.495 385.45C20.3707 385.185 19.3125 384.722 18.2543 384.061C17.1961 383.399 16.2702 382.54 15.4104 381.481L15.2781 381.548ZM24.2067 374.471C23.413 373.479 22.5532 372.95 21.5612 372.817C20.5691 372.685 19.7755 372.884 19.048 373.479C18.3204 374.074 17.9236 374.868 17.7913 375.86C17.7252 376.852 18.0559 377.844 18.7834 378.836C19.5771 379.762 20.4368 380.357 21.4289 380.489C22.421 380.622 23.2808 380.423 24.0083 379.828C24.7358 379.299 25.0665 378.505 25.1987 377.513C25.2649 376.521 24.9342 375.529 24.1405 374.537L24.2067 374.471ZM38.1617 396.098L34.8548 391.931L25.1987 399.669C25.1987 399.669 24.7358 400 24.5374 400C24.4051 400 24.2067 399.868 24.0083 399.603L21.2305 396.164C21.2305 396.164 20.9659 395.701 20.9659 395.503C20.9659 395.304 21.0982 395.106 21.3628 394.907L46.3628 374.868C46.8257 374.471 47.2226 374.537 47.6194 375L50.3972 378.439C50.7278 378.836 50.6617 379.233 50.1987 379.63L38.9554 388.624L42.2622 392.791C42.2622 392.791 42.5268 393.122 42.5929 393.32C42.5929 393.519 42.5268 393.717 42.1961 393.981L39.3522 396.23C39.3522 396.23 38.8892 396.495 38.6908 396.495C38.4924 396.495 38.3601 396.296 38.1617 396.098ZM35.8469 379.431L21.495 361.508C21.0982 361.045 21.1644 360.582 21.6935 360.119L23.9421 358.333C24.4712 357.936 24.9342 358.003 25.331 358.466L39.6829 376.389C40.0797 376.918 40.0136 377.315 39.5506 377.778L37.3019 379.63C36.7728 380.026 36.3099 379.96 35.913 379.497L35.8469 379.431ZM37.5003 370.899L30.3575 361.971C30.3575 361.971 30.0929 361.574 30.0929 361.376C30.0929 361.177 30.2252 360.913 30.5559 360.648L32.8707 358.796C33.2014 358.532 33.4659 358.399 33.6644 358.532C33.8628 358.664 34.0612 358.73 34.1935 358.929L41.3363 367.857C41.7331 368.386 41.667 368.849 41.1379 369.246L38.8892 371.032C38.8892 371.032 38.3601 371.362 38.1617 371.362C37.9633 371.362 37.6987 371.23 37.5003 370.899Z" fill="white" stroke="#231F20" stroke-width="3"/>
<path d="M66.733 424.273L55.2251 413.426L51.1907 417.725L56.7463 422.95C57.2092 423.413 57.5399 423.81 57.7383 424.14C57.9367 424.471 58.069 424.868 58.0029 425.199C58.0029 425.529 57.8045 425.926 57.6061 426.323C57.3415 426.72 57.0108 427.117 56.5479 427.579L47.95 436.706C47.5532 437.169 47.0902 437.169 46.6934 436.839L43.5849 433.863C43.1219 433.4 43.1219 433.003 43.5188 432.54L50.3971 425.199C50.7278 424.868 50.7278 424.537 50.3971 424.273L35.3838 410.119C35.3838 410.119 35.1193 409.788 35.0532 409.59C34.987 409.392 35.0532 409.193 35.3177 408.929L37.8309 406.283C37.8309 406.283 38.36 405.886 38.4923 405.952C38.6246 406.019 38.823 406.151 39.0214 406.283L46.7595 413.492L50.7939 409.193L39.286 398.347C39.286 398.347 38.8891 397.884 38.8891 397.685C38.8891 397.487 39.0214 397.288 39.2198 397.024L41.4685 394.577C41.4685 394.577 41.9315 394.18 42.1299 394.114C42.3283 394.114 42.5267 394.114 42.8574 394.445L61.9711 412.434C62.5002 412.037 63.1616 411.508 63.823 410.913C64.4844 410.318 65.2119 409.788 65.8071 409.193C66.4685 408.598 67.0637 408.069 67.5267 407.606C68.0558 407.143 68.3865 406.812 68.5849 406.614C68.9156 406.283 69.114 406.019 69.114 405.754C69.114 405.49 68.9817 405.225 68.5849 404.828L54.1008 391.27C54.1008 391.27 53.7701 390.873 53.7039 390.741C53.7039 390.609 53.7039 390.344 54.0346 390.079L56.4817 387.434C56.4817 387.434 56.9447 387.103 57.077 387.103C57.2092 387.103 57.4738 387.236 57.6722 387.434L75.1325 403.836C75.9262 404.564 76.323 405.291 76.323 405.952C76.323 406.614 75.9923 407.408 75.1987 408.267C74.0743 409.458 72.7516 410.781 71.1643 412.236C69.577 413.691 67.9235 415.079 66.1378 416.336L70.2383 420.238C70.7013 420.635 70.7013 421.098 70.2383 421.627L67.9897 424.074C67.9897 424.074 67.5267 424.471 67.2621 424.405C66.9976 424.339 66.8653 424.273 66.6669 424.074L66.733 424.273Z" fill="white" stroke="#231F20" stroke-width="3"/>
<path d="M82.3423 463.955L64.6175 450.926C64.0222 450.529 63.6254 450.132 63.2947 449.802C62.964 449.471 62.8318 449.14 62.7656 448.809C62.7656 448.479 62.7656 448.082 62.8979 447.685C63.0963 447.288 63.3609 446.759 63.7577 446.23L70.2392 437.434C70.5699 436.971 70.9667 436.905 71.4296 437.235L74.9349 439.815C74.9349 439.815 75.3318 440.212 75.3979 440.344C75.3979 440.542 75.3979 440.741 75.1334 441.005L73.7445 442.857L87.1043 452.712L88.5593 450.727C88.9561 450.198 89.3529 450.132 89.7498 450.463L93.3873 453.108C93.7841 453.439 93.8503 453.836 93.4535 454.299L86.7736 463.36C86.0461 464.352 85.3847 464.881 84.7894 465.013C84.1942 465.145 83.2683 464.749 82.1439 463.955H82.3423ZM75.927 437.765L72.6201 435.317C72.1572 434.987 72.091 434.524 72.4878 433.995L75.5963 429.762C73.6122 428.373 71.5619 426.918 69.5778 425.331C69.3132 425.132 69.181 424.934 69.181 424.735C69.181 424.537 69.3132 424.339 69.5117 424.074L70.9667 422.09C70.9667 422.09 71.4296 421.561 71.5619 421.561C71.7603 421.561 71.9587 421.561 72.2233 421.825C75.2656 424.14 78.0434 426.19 80.755 427.91C83.4005 429.63 86.1122 431.217 88.7577 432.672C89.1545 432.87 89.2868 433.069 89.2868 433.201C89.2868 433.333 89.2868 433.598 89.0884 433.929L87.8979 436.243C87.8979 436.243 87.5011 436.64 87.3688 436.64C87.2365 436.64 86.972 436.574 86.7074 436.442C85.6492 435.979 84.6572 435.45 83.6651 434.854C82.673 434.325 81.681 433.73 80.6228 433.069L77.3159 437.632C76.9191 438.161 76.4561 438.294 75.9931 437.897L75.927 437.765ZM84.3926 456.481L71.0328 446.627L69.8423 448.214C69.8423 448.214 69.7101 448.611 69.9746 448.809L82.6069 458.135C82.6069 458.135 83.0699 458.267 83.2021 458.069L84.3926 456.481ZM81.2841 426.719C80.2921 425.992 79.4323 425.132 78.7709 424.206C78.0434 423.28 77.5143 422.288 77.1836 421.296C76.8529 420.304 76.7207 419.312 76.8529 418.254C76.9852 417.262 77.3159 416.336 77.9111 415.476C78.5725 414.616 79.3662 413.955 80.2921 413.558C81.218 413.161 82.2101 412.963 83.2683 412.963C84.3265 412.963 85.3847 413.161 86.509 413.558C87.6334 413.955 88.6916 414.55 89.6836 415.278C90.6757 416.005 91.5355 416.865 92.263 417.791C92.9905 418.717 93.4535 419.709 93.7841 420.701C94.1148 421.693 94.181 422.685 94.1148 423.677C94.0487 424.669 93.5857 425.595 92.9905 426.455C92.3953 427.315 91.6016 427.91 90.6757 428.307C89.7498 428.704 88.7577 428.902 87.7656 428.902C86.7736 428.902 85.6492 428.704 84.5249 428.307C83.4005 427.91 82.3423 427.315 81.3503 426.587L81.2841 426.719ZM87.8318 446.429L84.591 444.048C84.591 444.048 84.2603 443.717 84.1281 443.585C83.9958 443.452 84.1281 443.188 84.3926 442.857L84.8556 442.262L81.0196 439.418C81.0196 439.418 80.6228 439.021 80.5566 438.889C80.5566 438.757 80.5566 438.492 80.8212 438.227L82.3423 436.111C82.6069 435.78 82.8053 435.582 82.9376 435.648C83.0699 435.714 83.2683 435.78 83.4667 435.913L87.3027 438.757L98.7445 423.214C99.0752 422.751 99.472 422.685 100.001 423.016L103.242 425.397C103.242 425.397 103.639 425.794 103.639 425.926C103.639 426.124 103.573 426.323 103.374 426.587L88.9561 446.164C88.6916 446.495 88.4931 446.693 88.3609 446.693C88.2286 446.693 88.0302 446.561 87.7656 446.429H87.8318ZM87.0381 418.915C86.0461 418.188 85.1201 417.857 84.2603 417.923C83.4005 417.989 82.8053 418.32 82.3423 418.849C82.1439 419.114 82.0117 419.378 82.0117 419.775C82.0117 420.172 82.0117 420.503 82.0778 420.966C82.1439 421.362 82.3423 421.759 82.6069 422.222C82.8714 422.619 83.2683 423.016 83.7312 423.347C84.1942 423.743 84.7233 423.942 85.1863 424.074C85.6492 424.206 86.1122 424.272 86.5752 424.272C87.0381 424.272 87.3688 424.14 87.6995 424.008C88.0302 423.809 88.2947 423.611 88.427 423.413C88.8238 422.884 88.9561 422.156 88.7577 421.362C88.5593 420.569 87.964 419.709 86.972 418.981L87.0381 418.915ZM94.4455 451.72L91.0064 449.14C91.0064 449.14 90.6095 448.809 90.5434 448.611C90.5434 448.479 90.6095 448.214 90.8741 447.884L105.821 427.579C105.821 427.579 106.218 427.182 106.35 427.116C106.483 427.116 106.747 427.116 107.012 427.381L110.451 429.96C110.451 429.96 110.848 430.357 110.848 430.489C110.848 430.622 110.781 430.886 110.583 431.151L95.636 451.455C95.3714 451.786 95.173 451.984 95.0408 451.984C94.9085 451.984 94.7101 451.918 94.4455 451.72Z" fill="white" stroke="#231F20" stroke-width="3"/>
<path d="M117.924 484.921L101.125 475.066C100.529 474.735 100.066 474.405 99.7358 474.074C99.4051 473.743 99.2067 473.479 99.0744 473.148C98.9421 472.817 99.0083 472.421 99.0744 472.024C99.1406 471.627 99.4712 471.098 99.8019 470.503L106.746 458.664C107.011 458.201 107.408 458.069 107.871 458.399L111.641 460.582C111.641 460.582 112.104 460.913 112.17 461.045C112.236 461.177 112.17 461.442 111.971 461.706L110.252 464.616L122.421 471.759L124.207 468.717C124.207 468.717 124.537 468.254 124.736 468.254C124.934 468.254 125.133 468.254 125.331 468.386L129.167 470.635C129.167 470.635 129.564 470.899 129.564 471.098C129.564 471.296 129.564 471.495 129.365 471.825L122.289 483.928C121.693 484.987 121.098 485.582 120.503 485.78C119.908 485.979 118.982 485.714 117.791 484.987L117.924 484.921ZM103.77 454.696C103.241 454.696 102.91 454.563 102.778 454.365C102.646 454.167 102.58 453.968 102.646 453.637L102.778 450C102.778 449.405 103.175 449.14 103.969 449.14C105.622 449.206 107.275 449.14 108.929 449.008C110.582 448.876 112.104 448.611 113.625 448.28C115.08 447.95 116.402 447.553 117.659 447.09C118.916 446.627 119.908 446.098 120.768 445.503C121.231 445.172 121.561 444.907 121.627 444.709C121.693 444.51 121.561 444.246 121.098 444.047L112.699 439.153C112.368 438.955 112.17 438.756 112.17 438.558C112.17 438.36 112.302 438.161 112.434 437.897L114.022 435.119C114.352 434.59 114.749 434.458 115.278 434.722L127.712 441.997C129.233 442.857 129.895 443.783 129.828 444.775C129.696 445.767 129.035 446.759 127.778 447.883C126.918 448.611 125.992 449.339 124.934 450C123.942 450.661 122.818 451.256 121.627 451.786C122.024 453.373 122.619 454.894 123.347 456.349C124.074 457.804 124.736 459.061 125.331 460.119C125.596 460.648 125.463 461.045 124.934 461.309L121.429 463.095C121.429 463.095 120.966 463.294 120.834 463.227C120.701 463.227 120.503 463.029 120.305 462.698C120.04 462.235 119.775 461.64 119.445 460.979C119.114 460.317 118.783 459.59 118.453 458.796C118.122 458.003 117.791 457.143 117.461 456.283C117.13 455.423 116.865 454.563 116.667 453.637C114.617 454.167 112.5 454.497 110.318 454.696C108.135 454.894 105.953 454.894 103.704 454.696H103.77ZM119.908 476.19L107.738 469.047L106.283 471.495C106.283 471.495 106.217 471.958 106.482 472.09L117.857 478.77C117.857 478.77 118.32 478.902 118.453 478.637L119.908 476.19ZM125.397 455.291C124.868 455.026 124.802 454.563 125.133 454.034L126.786 451.19C126.984 450.794 127.183 450.661 127.381 450.661C127.58 450.661 127.778 450.727 127.977 450.86L133.003 453.836L137.17 446.759C137.368 446.428 137.566 446.23 137.765 446.23C137.963 446.23 138.162 446.296 138.426 446.428L142.196 448.611C142.196 448.611 142.659 449.008 142.659 449.206C142.659 449.405 142.593 449.603 142.461 449.801L131.68 468.188C131.416 468.717 131.019 468.783 130.49 468.518L126.72 466.336C126.257 466.071 126.125 465.674 126.389 465.211L130.424 458.333L125.397 455.357V455.291Z" fill="white" stroke="#231F20" stroke-width="3"/>
<path d="M157.871 504.034L135.516 493.585C134.987 493.32 134.524 493.056 134.194 492.791C133.863 492.526 133.665 492.262 133.598 491.931C133.532 491.6 133.532 491.27 133.598 490.807C133.665 490.344 133.863 489.881 134.194 489.286L138.757 479.497C139.022 478.902 139.419 478.77 139.948 478.968L143.85 480.82C144.379 481.085 144.577 481.481 144.247 482.077L140.807 489.484C140.609 489.881 140.741 490.212 141.138 490.41L160.12 499.272C160.12 499.272 160.516 499.537 160.649 499.669C160.781 499.868 160.781 500.066 160.649 500.397L159.128 503.638C158.929 504.034 158.731 504.233 158.532 504.167C158.334 504.167 158.135 504.1 157.937 503.968L157.871 504.034ZM170.04 489.153L135.913 473.214C135.516 473.016 135.318 472.884 135.318 472.685C135.318 472.487 135.318 472.288 135.516 471.958L136.905 468.915C136.905 468.915 137.17 468.386 137.368 468.32C137.567 468.254 137.765 468.32 138.096 468.452L161.839 479.563C162.236 479.034 162.699 478.241 163.294 477.315C163.889 476.389 164.419 475.397 165.014 474.405C165.609 473.413 166.072 472.553 166.469 471.759C166.866 470.966 167.13 470.436 167.262 470.172C167.461 469.775 167.527 469.444 167.527 469.18C167.527 468.981 167.262 468.717 166.733 468.452L148.744 460.053C148.744 460.053 148.281 459.788 148.149 459.656C148.016 459.524 148.083 459.259 148.215 458.929L149.736 455.688C149.736 455.688 150.067 455.225 150.199 455.225C150.397 455.225 150.596 455.225 150.86 455.357L172.553 465.476C173.479 465.939 174.075 466.468 174.339 467.13C174.604 467.791 174.471 468.651 173.942 469.709C173.612 470.436 173.149 471.362 172.62 472.354C172.09 473.413 171.495 474.471 170.9 475.595C170.305 476.72 169.643 477.844 168.982 478.968C168.321 480.093 167.659 481.151 166.998 482.011L172.157 484.391C172.157 484.391 172.553 484.656 172.686 484.854C172.818 485.053 172.752 485.317 172.62 485.648L171.231 488.69C170.966 489.286 170.569 489.418 169.974 489.153H170.04Z" fill="white" stroke="#231F20" stroke-width="3"/>
<path d="M177.051 492.923C176.39 493.056 175.993 493.056 175.795 493.056C175.596 493.056 175.464 492.791 175.398 492.394L174.406 488.955C174.274 488.36 174.274 488.029 174.406 487.897C174.538 487.765 174.869 487.632 175.266 487.5C177.117 487.037 178.837 486.31 180.424 485.318C182.012 484.325 183.401 483.201 184.723 481.945C185.98 480.688 187.104 479.233 188.03 477.646C188.956 476.058 189.75 474.471 190.411 472.751C190.61 472.288 190.742 471.958 190.94 471.958C191.073 471.958 191.337 471.958 191.734 472.156L195.57 473.81C195.57 473.81 196.033 474.074 196.099 474.206C196.165 474.339 196.099 474.603 196.033 474.868C195.107 477.447 193.916 479.828 192.461 482.011C192.461 483.135 192.726 484.259 192.991 485.384C193.321 486.508 193.718 487.566 194.181 488.624C194.644 489.683 195.173 490.609 195.702 491.534C196.231 492.46 196.826 493.188 197.289 493.783C197.554 494.18 197.686 494.511 197.554 494.709C197.488 494.908 197.223 495.106 196.893 495.437L194.313 497.553C193.983 497.818 193.718 497.95 193.52 497.884C193.321 497.884 193.123 497.685 192.792 497.288C192.329 496.759 191.866 496.164 191.337 495.437C190.808 494.709 190.345 493.915 189.882 493.056C189.419 492.196 189.022 491.27 188.625 490.278C188.295 489.286 187.964 488.36 187.766 487.302C186.244 488.691 184.525 489.881 182.739 490.873C180.953 491.865 178.969 492.593 176.919 493.056L177.051 492.923ZM186.112 516.733C184.326 516.071 182.739 515.278 181.416 514.286C180.094 513.294 178.969 512.236 178.176 511.045C177.382 509.855 176.787 508.664 176.588 507.341C176.39 506.019 176.456 504.828 176.919 503.572C177.382 502.381 178.11 501.389 179.102 500.595C180.094 499.802 181.284 499.206 182.739 498.876C184.194 498.545 185.649 498.413 187.369 498.545C189.022 498.677 190.742 499.074 192.528 499.736C194.247 500.331 195.768 501.191 197.157 502.183C198.546 503.175 199.67 504.233 200.53 505.423C201.39 506.614 201.985 507.87 202.316 509.127C202.647 510.384 202.58 511.64 202.117 512.897C201.655 514.154 200.861 515.146 199.803 515.939C198.744 516.733 197.488 517.328 196.033 517.659C194.578 517.989 193.057 518.122 191.337 517.99C189.684 517.857 187.964 517.46 186.244 516.865L186.112 516.733ZM190.676 504.431C188.625 503.704 186.84 503.439 185.385 503.836C183.93 504.167 183.004 504.894 182.673 505.886C182.342 506.878 182.607 507.937 183.467 509.127C184.393 510.318 185.848 511.243 187.898 512.037C188.89 512.368 189.816 512.632 190.676 512.698C191.535 512.765 192.395 512.765 193.123 512.698C193.85 512.632 194.446 512.368 194.975 512.037C195.504 511.706 195.834 511.31 196.033 510.847C196.231 510.384 196.231 509.788 196.033 509.193C195.834 508.598 195.57 508.003 195.041 507.408C194.578 506.812 193.983 506.283 193.189 505.754C192.461 505.225 191.602 504.762 190.61 504.431H190.676ZM197.157 487.566C197.157 487.566 196.76 487.368 196.628 487.169C196.562 487.037 196.562 486.773 196.628 486.442L197.819 483.201C197.951 482.804 198.149 482.606 198.282 482.54C198.48 482.54 198.678 482.54 198.877 482.606L205.358 484.987L207.938 477.976C208.07 477.579 208.268 477.381 208.467 477.381C208.665 477.381 208.864 477.381 209.128 477.447L213.229 478.968C213.559 479.101 213.758 479.233 213.758 479.431C213.758 479.63 213.758 479.828 213.625 480.027L205.424 502.183C205.226 502.712 204.829 502.91 204.366 502.712L200.266 501.191C199.737 500.992 199.604 500.661 199.803 500.132L203.639 489.749L197.157 487.368V487.566Z" fill="white" stroke="#231F20" stroke-width="3"/>
<path d="M239.351 532.143L217.195 525.86C216.6 525.661 216.071 525.463 215.74 525.265C215.41 525.066 215.145 524.802 215.013 524.471C214.881 524.14 214.814 523.743 214.814 523.347C214.814 522.884 214.947 522.355 215.145 521.759L217.989 511.706C218.187 511.111 218.518 510.847 219.113 511.045L223.28 512.236C223.809 512.368 224.008 512.765 223.875 513.426L221.759 520.966C221.627 521.429 221.759 521.693 222.222 521.826L240.873 527.116C240.873 527.116 241.269 527.315 241.402 527.447C241.534 527.579 241.534 527.844 241.468 528.175L240.476 531.68C240.344 532.077 240.211 532.275 240.013 532.341C239.814 532.341 239.616 532.341 239.418 532.275L239.351 532.143ZM222.883 507.408C221.362 506.945 220.039 506.283 218.915 505.423C217.791 504.564 216.931 503.505 216.269 502.249C215.608 500.992 215.211 499.669 215.079 498.281C214.947 496.825 215.079 495.37 215.476 493.849C215.873 492.46 216.534 491.138 217.394 490.013C218.254 488.889 219.312 487.963 220.502 487.236C221.693 486.508 223.016 486.045 224.471 485.847C225.926 485.648 227.381 485.714 228.902 486.177C230.423 486.64 231.812 487.302 232.936 488.228C234.06 489.154 234.986 490.278 235.648 491.535C236.309 492.791 236.706 494.114 236.904 495.569C237.037 497.024 236.904 498.413 236.508 499.868C236.111 501.389 235.449 502.712 234.523 503.836C233.664 504.96 232.605 505.886 231.349 506.614C230.158 507.341 228.769 507.738 227.381 507.937C225.926 508.135 224.404 507.937 222.883 507.54V507.408ZM227.381 491.468C226.719 491.27 226.058 491.204 225.396 491.336C224.735 491.468 224.14 491.667 223.545 492.064C222.949 492.46 222.486 492.923 222.023 493.519C221.56 494.114 221.296 494.775 221.031 495.569C220.833 496.363 220.701 497.09 220.767 497.818C220.767 498.545 220.965 499.206 221.296 499.868C221.56 500.463 222.023 500.992 222.486 501.455C223.016 501.852 223.611 502.183 224.272 502.381C225.661 502.778 226.984 502.579 228.174 501.852C229.365 501.124 230.225 499.934 230.621 498.347C231.018 496.759 230.952 495.37 230.357 494.048C229.762 492.791 228.703 491.931 227.314 491.535L227.381 491.468ZM241.534 519.974L237.301 518.783C237.301 518.783 236.772 518.585 236.706 518.386C236.64 518.188 236.706 517.99 236.706 517.659L244.775 489.286C244.907 488.757 245.304 488.492 245.833 488.691L250.132 489.881C250.661 490.013 250.793 490.41 250.661 490.939L242.592 519.378C242.592 519.378 242.394 519.908 242.262 519.974C242.129 520.04 241.931 520.04 241.6 519.974H241.534Z" fill="white" stroke="#231F20" stroke-width="3"/>
<path d="M287.302 523.744L250.398 516.138C250.001 516.072 249.736 515.939 249.736 515.807C249.736 515.675 249.736 515.41 249.736 515.013L250.398 511.773C250.464 511.442 250.596 511.243 250.728 511.111C250.861 510.979 251.125 510.979 251.456 511.111L288.361 518.717C288.361 518.717 288.824 518.849 288.956 519.048C289.088 519.18 289.154 519.445 289.088 519.841L288.427 523.082C288.295 523.743 287.898 523.942 287.302 523.876V523.744ZM264.948 538.823C262.765 538.36 260.847 537.765 259.26 536.971C257.673 536.177 256.284 535.318 255.292 534.326C254.234 533.333 253.506 532.275 253.109 531.151C252.713 530.027 252.58 528.902 252.845 527.778C253.109 526.654 253.638 525.595 254.432 524.736C255.226 523.876 256.35 523.148 257.673 522.685C258.996 522.222 260.583 521.892 262.369 521.826C264.154 521.759 266.138 521.958 268.321 522.421C270.504 522.884 272.422 523.479 274.009 524.273C275.596 525.066 276.919 525.926 277.977 526.918C278.969 527.91 279.697 528.968 280.16 530.093C280.556 531.217 280.689 532.408 280.424 533.532C280.16 534.656 279.631 535.714 278.837 536.574C278.043 537.434 276.919 538.095 275.596 538.624C274.273 539.154 272.686 539.418 270.9 539.484C269.115 539.55 267.131 539.352 264.948 538.889V538.823ZM279.631 506.085C279.631 506.085 279.3 506.283 279.101 506.349C278.903 506.415 278.705 506.482 278.572 506.548C279.234 506.945 279.961 507.341 280.755 507.738C281.549 508.135 282.276 508.532 283.07 508.929C283.863 509.325 284.591 509.656 285.318 510.053C286.046 510.45 286.773 510.714 287.435 510.979C287.832 511.111 288.03 511.31 288.162 511.508C288.228 511.706 288.162 511.971 287.964 512.368L286.443 514.881C286.178 515.278 285.98 515.476 285.781 515.542C285.583 515.542 285.318 515.542 284.988 515.41C283.004 514.617 280.887 513.558 278.572 512.368C276.257 511.177 274.009 509.921 271.892 508.598C269.445 509.127 266.866 509.524 264.22 509.855C261.575 510.119 258.929 510.251 256.35 510.185C255.887 510.185 255.623 510.185 255.49 510.053C255.358 509.921 255.226 509.722 255.16 509.326L254.763 506.151C254.697 505.423 254.961 505.027 255.623 505.027C259.525 504.96 263.096 504.696 266.271 504.167C269.445 503.638 272.157 503.042 274.406 502.249C274.736 502.183 274.869 502.05 274.935 501.852C274.935 501.72 274.802 501.587 274.472 501.521L260.384 498.611C260.384 498.611 259.855 498.413 259.789 498.281C259.723 498.148 259.657 497.884 259.789 497.553L260.451 494.18C260.451 494.18 260.649 493.651 260.781 493.585C260.914 493.519 261.112 493.519 261.443 493.585L281.747 497.751C283.136 498.016 284.128 498.545 284.723 499.206C285.318 499.868 285.517 500.595 285.384 501.257C285.186 502.249 284.591 503.175 283.533 503.968C282.474 504.762 281.218 505.49 279.763 506.085H279.631ZM267.329 527.183C264.948 526.72 263.03 526.654 261.509 527.05C259.988 527.447 259.128 528.109 258.929 529.035C258.863 529.431 258.929 529.894 259.194 530.423C259.459 530.952 259.922 531.415 260.517 531.878C261.112 532.341 261.906 532.738 262.765 533.135C263.691 533.532 264.683 533.863 265.874 534.061C267.064 534.326 268.123 534.392 269.115 534.392C270.107 534.392 270.967 534.326 271.694 534.127C272.422 533.929 273.017 533.664 273.48 533.333C273.943 533.003 274.207 532.606 274.273 532.209C274.472 531.283 273.943 530.291 272.686 529.365C271.429 528.373 269.644 527.712 267.263 527.183H267.329Z" fill="white" stroke="#231F20" stroke-width="3"/>
<path d="M315.345 526.72C313.625 526.72 311.707 526.72 309.789 526.653C307.805 526.587 305.821 526.389 303.705 526.19C301.588 525.992 299.472 525.727 297.289 525.463C295.107 525.198 292.991 524.868 290.874 524.471C290.477 524.471 290.213 524.339 290.147 524.14C290.147 524.008 290.08 523.743 290.147 523.413L290.543 520.37C290.543 520.04 290.676 519.841 290.808 519.709C290.94 519.577 291.205 519.577 291.535 519.709C292.131 519.841 292.726 519.907 293.321 519.974C293.916 520.04 294.512 520.106 295.107 520.238L296.893 506.944L293.916 506.548C293.255 506.481 292.991 506.085 293.123 505.423L293.52 502.381C293.586 501.72 293.983 501.455 294.578 501.587L315.742 504.431C316.337 504.497 316.535 504.894 316.469 505.489L316.073 508.532C316.006 509.193 315.676 509.458 315.08 509.392L312.567 509.061L310.848 521.958C311.641 521.958 312.369 522.024 313.096 522.09C313.824 522.09 314.551 522.09 315.279 522.09C315.742 522.09 315.94 522.222 316.006 522.619V525.794C316.006 526.257 316.006 526.521 315.94 526.587C315.874 526.653 315.676 526.786 315.411 526.786L315.345 526.72ZM309.062 546.495C307.144 546.23 305.491 545.767 303.903 545.172C302.382 544.511 301.059 543.717 300.001 542.791C298.943 541.865 298.149 540.807 297.62 539.683C297.091 538.558 296.893 537.302 297.091 536.045C297.223 534.855 297.752 533.73 298.546 532.804C299.34 531.878 300.398 531.085 301.655 530.489C302.911 529.894 304.366 529.497 306.086 529.233C307.739 528.968 309.525 529.034 311.377 529.233C313.162 529.497 314.816 529.894 316.403 530.556C317.924 531.217 319.313 532.011 320.371 532.937C321.496 533.862 322.356 534.921 322.951 536.045C323.546 537.169 323.744 538.36 323.546 539.616C323.348 540.873 322.885 541.997 321.959 542.923C321.099 543.849 319.975 544.643 318.652 545.304C317.329 545.966 315.808 546.362 314.155 546.561C312.501 546.759 310.782 546.759 308.93 546.561L309.062 546.495ZM304.961 521.429L306.747 508.135L302.845 507.606L301.059 520.899C301.721 520.966 302.382 521.098 303.043 521.164C303.705 521.23 304.366 521.296 305.028 521.362L304.961 521.429ZM310.715 534.127C309.591 533.995 308.599 533.929 307.739 534.061C306.879 534.193 306.086 534.325 305.424 534.59C304.763 534.854 304.3 535.185 303.903 535.648C303.506 536.045 303.308 536.508 303.242 536.971C303.11 537.897 303.639 538.823 304.763 539.749C305.887 540.675 307.541 541.27 309.723 541.534C310.715 541.667 311.707 541.733 312.567 541.601C313.493 541.534 314.221 541.336 314.948 541.071C315.61 540.807 316.205 540.476 316.602 540.079C316.998 539.683 317.263 539.286 317.329 538.823C317.329 538.36 317.329 537.831 316.998 537.302C316.668 536.772 316.271 536.31 315.676 535.913C315.08 535.516 314.353 535.119 313.559 534.788C312.699 534.458 311.774 534.259 310.782 534.061L310.715 534.127ZM315.345 520.701C315.345 520.701 314.816 520.569 314.684 520.437C314.551 520.304 314.485 520.106 314.551 519.775L314.948 516.997C314.948 516.667 315.08 516.468 315.279 516.336C315.477 516.204 315.676 516.204 315.94 516.27L320.239 516.865L320.504 514.881L316.205 514.286C316.205 514.286 315.676 514.153 315.543 514.021C315.411 513.889 315.345 513.69 315.411 513.294L315.808 510.516C315.808 510.119 315.94 509.921 316.139 509.854C316.271 509.788 316.535 509.722 316.8 509.788L321.099 510.384L321.959 503.968C321.959 503.571 322.157 503.373 322.289 503.241C322.422 503.108 322.686 503.175 322.951 503.241L327.25 503.836C327.647 503.836 327.845 504.034 327.911 504.167C327.911 504.365 327.911 504.563 327.911 504.828L324.67 528.968C324.604 529.564 324.274 529.828 323.744 529.762L319.379 529.167C318.85 529.101 318.586 528.77 318.652 528.175L319.578 521.362L315.279 520.767L315.345 520.701Z" fill="white" stroke="#231F20" stroke-width="3"/>
<path d="M333.862 539.352C333.465 539.55 333.134 539.682 332.87 539.682C332.672 539.682 332.407 539.484 332.209 539.153L330.357 535.78C330.357 535.78 330.158 535.185 330.224 534.921C330.291 534.656 330.489 534.458 330.754 534.325C335.317 532.011 339.021 529.233 341.799 525.992C344.576 522.751 346.362 519.114 347.156 515.145C347.288 514.484 347.09 514.153 346.56 514.153L334.325 513.36C333.928 513.36 333.73 513.227 333.664 513.095C333.597 512.963 333.531 512.698 333.597 512.368L333.862 508.928C333.862 508.532 333.994 508.333 334.06 508.201C334.193 508.135 334.391 508.069 334.722 508.069L350.661 509.127C352.116 509.259 353.042 509.59 353.505 510.251C353.902 510.913 354.034 511.905 353.902 513.294C353.571 516.071 352.843 518.717 351.785 521.23C350.727 523.809 349.338 526.19 347.619 528.373C345.899 530.622 343.915 532.672 341.6 534.524C339.285 536.376 336.772 538.029 333.928 539.418L333.862 539.352ZM369.246 528.836L363.822 528.439L362.367 549.934C362.367 550.331 362.301 550.529 362.169 550.661C362.037 550.794 361.838 550.794 361.507 550.794L357.076 550.529C357.076 550.529 356.547 550.463 356.415 550.331C356.283 550.198 356.216 550 356.283 549.603L359.127 507.143C359.127 506.812 359.259 506.614 359.391 506.481C359.523 506.349 359.788 506.349 360.052 506.349L364.484 506.614C364.484 506.614 365.013 506.746 365.079 506.878C365.145 507.011 365.211 507.209 365.211 507.606L364.153 523.346L369.576 523.743C369.576 523.743 370.039 523.809 370.172 523.876C370.304 523.942 370.37 524.206 370.37 524.669L370.105 528.175C370.105 528.571 369.973 528.77 369.841 528.902C369.709 529.034 369.444 529.034 369.179 529.034L369.246 528.836Z" fill="white" stroke="#231F20" stroke-width="3"/>
<path d="M386.309 537.764H382.142C381.547 537.764 381.216 537.368 381.216 536.772V531.151C379.629 531.151 378.042 531.151 376.455 531.151C374.867 531.151 373.346 531.151 371.825 531.018C371.494 531.018 371.23 530.952 371.164 530.754C371.097 530.556 371.031 530.357 371.031 530.026V526.918C371.031 526.587 371.164 526.323 371.23 526.19C371.362 525.992 371.56 525.926 371.891 525.992C376.058 526.124 380.224 526.124 384.523 525.992C388.822 525.86 392.923 525.595 397.023 525.066C397.486 525.066 397.751 525.066 397.883 525.066C398.015 525.132 398.082 525.397 398.148 525.727L398.478 528.836C398.478 529.233 398.478 529.431 398.346 529.563C398.214 529.696 397.949 529.762 397.685 529.828C396.031 530.093 394.378 530.225 392.592 530.357C390.806 530.489 389.087 530.622 387.301 530.754V536.64C387.235 537.235 386.904 537.566 386.309 537.566V537.764ZM384.722 524.603C383.201 524.603 381.878 524.339 380.621 523.942C379.365 523.545 378.306 522.884 377.38 522.156C376.455 521.362 375.793 520.503 375.264 519.444C374.735 518.386 374.537 517.262 374.537 515.939C374.537 514.749 374.801 513.69 375.33 512.632C375.859 511.64 376.587 510.78 377.513 510.053C378.439 509.325 379.563 508.73 380.753 508.333C382.01 507.936 383.399 507.738 384.854 507.738C386.375 507.738 387.698 508.003 388.955 508.399C390.211 508.862 391.269 509.458 392.195 510.185C393.055 510.913 393.783 511.839 394.312 512.831C394.841 513.823 395.039 514.947 395.039 516.138C395.039 517.394 394.775 518.585 394.246 519.577C393.716 520.569 392.989 521.495 392.063 522.288C391.137 523.016 390.079 523.611 388.822 524.008C387.566 524.405 386.177 524.603 384.722 524.603ZM405.82 550.926L380.357 550.661C379.761 550.661 379.232 550.595 378.835 550.463C378.439 550.331 378.108 550.198 377.91 549.934C377.711 549.669 377.513 549.339 377.447 548.942C377.38 548.545 377.314 547.95 377.314 547.288V540.476C377.38 539.881 377.711 539.55 378.306 539.55H382.605C383.201 539.55 383.531 539.947 383.531 540.542V544.775C383.531 545.238 383.73 545.503 384.193 545.503L405.886 545.767C405.886 545.767 406.349 545.767 406.481 545.966C406.679 546.098 406.746 546.296 406.746 546.627V550.198C406.746 550.595 406.613 550.86 406.415 550.926C406.216 550.926 406.018 550.992 405.82 550.992V550.926ZM384.854 512.765C383.531 512.765 382.473 513.095 381.613 513.757C380.753 514.418 380.357 515.212 380.291 516.138C380.291 517.196 380.687 518.056 381.547 518.717C382.407 519.378 383.465 519.709 384.788 519.775C386.111 519.775 387.169 519.444 388.029 518.783C388.888 518.122 389.285 517.262 389.285 516.204C389.285 515.278 388.888 514.418 388.029 513.757C387.169 513.095 386.111 512.764 384.788 512.698L384.854 512.765ZM405.026 541.667H400.529C400.529 541.667 400 541.534 399.867 541.468C399.735 541.402 399.669 541.138 399.669 540.741V537.302L393.121 537.235C392.857 537.235 392.658 537.235 392.46 537.037C392.328 536.905 392.195 536.706 392.195 536.376V533.201C392.195 532.804 392.328 532.54 392.526 532.474C392.724 532.407 392.923 532.341 393.121 532.341H399.735L400 508.003C400 507.672 400 507.407 400.198 507.341C400.396 507.275 400.529 507.143 400.859 507.143H405.357C405.357 507.143 405.886 507.275 406.018 507.407C406.15 507.54 406.216 507.738 406.216 508.069L405.886 540.741C405.886 541.138 405.886 541.336 405.687 541.468C405.555 541.601 405.357 541.6 405.026 541.6V541.667Z" fill="white" stroke="#231F20" stroke-width="3"/>
<path d="M427.117 545.701C426.721 545.701 426.39 545.701 426.258 545.635C426.059 545.569 425.993 545.304 425.927 544.841L425.728 541.534C425.728 541.204 425.728 540.939 425.861 540.675C425.993 540.41 426.125 540.212 426.324 539.947L432.144 531.415C434.326 528.241 435.848 525.661 436.773 523.677C437.699 521.693 438.096 520.172 438.03 518.982C437.964 517.725 437.567 516.733 436.906 516.071C436.244 515.41 435.318 515.013 434.128 514.947C433.004 514.947 431.879 515.079 430.755 515.542C429.631 516.005 428.44 516.667 427.051 517.593C426.654 517.857 426.39 517.989 426.191 517.923C425.993 517.857 425.927 517.659 425.795 517.394L424.736 513.36C424.736 513.36 424.67 512.897 424.736 512.765C424.736 512.632 425.001 512.368 425.332 512.103C425.861 511.64 426.456 511.243 427.117 510.913C427.779 510.516 428.506 510.185 429.234 509.921C429.961 509.656 430.689 509.392 431.416 509.259C432.144 509.127 432.805 508.995 433.4 508.929C434.789 508.862 436.112 508.929 437.435 509.325C438.691 509.656 439.816 510.251 440.808 510.979C441.8 511.773 442.527 512.765 443.189 514.021C443.784 515.212 444.181 516.667 444.313 518.32C444.445 519.775 444.247 521.23 443.718 522.751C443.189 524.273 442.594 525.661 441.866 527.116C441.139 528.571 440.279 529.894 439.419 531.217C438.559 532.54 437.699 533.73 436.972 534.788C436.509 535.516 435.98 536.31 435.385 537.103C434.723 537.963 434.194 538.757 433.665 539.418L445.239 538.624C445.702 538.624 445.967 538.624 446.033 538.823C446.165 538.955 446.231 539.286 446.231 539.683L446.496 543.122C446.496 543.585 446.496 543.915 446.363 544.048C446.231 544.18 445.967 544.312 445.57 544.312L427.117 545.569V545.701Z" fill="white" stroke="#231F20" stroke-width="3"/>
<path d="M461.574 543.32C459.656 543.519 457.87 543.32 456.349 542.526C454.828 541.733 453.505 540.675 452.447 539.22C451.389 537.698 450.463 535.913 449.802 533.664C449.14 531.482 448.611 528.968 448.347 526.257C448.214 525 448.148 523.743 448.082 522.355C448.082 520.966 448.082 519.577 448.28 518.188C448.413 516.799 448.743 515.476 449.14 514.153C449.537 512.831 450.132 511.706 450.86 510.648C451.587 509.59 452.513 508.73 453.638 508.069C454.762 507.407 456.085 506.944 457.672 506.746C459.259 506.548 460.648 506.746 461.839 507.143C463.029 507.606 464.153 508.267 465.079 509.061C466.005 509.921 466.799 510.913 467.46 512.103C468.122 513.294 468.651 514.55 469.114 515.873C469.577 517.196 469.907 518.585 470.172 519.907C470.437 521.296 470.635 522.553 470.767 523.743C471.032 526.521 471.098 529.034 470.899 531.283C470.701 533.598 470.238 535.582 469.511 537.302C468.783 539.021 467.725 540.344 466.468 541.402C465.146 542.46 463.558 543.056 461.574 543.254V543.32ZM458.267 512.698C457.54 512.765 456.878 513.029 456.283 513.492C455.688 513.955 455.225 514.683 454.828 515.741C454.431 516.733 454.233 518.056 454.101 519.709C453.968 521.362 454.101 523.28 454.299 525.595C454.564 527.976 454.894 529.894 455.357 531.481C455.82 533.003 456.349 534.259 456.878 535.119C457.474 536.045 458.069 536.64 458.796 536.971C459.524 537.302 460.185 537.434 460.913 537.368C461.64 537.302 462.302 537.037 462.897 536.574C463.492 536.111 463.955 535.384 464.352 534.392C464.749 533.399 464.947 532.077 465.079 530.489C465.212 528.902 465.079 526.918 464.881 524.537C464.616 522.222 464.286 520.238 463.823 518.717C463.36 517.196 462.831 515.939 462.302 515.013C461.706 514.087 461.111 513.492 460.384 513.161C459.656 512.831 458.995 512.698 458.267 512.765V512.698Z" fill="white" stroke="#231F20" stroke-width="3"/>
<path d="M475.265 541.204C474.869 541.204 474.538 541.204 474.406 541.204C474.207 541.138 474.075 540.873 474.009 540.476L473.546 537.235C473.546 536.905 473.546 536.64 473.612 536.376C473.744 536.111 473.877 535.847 474.009 535.582L479.168 526.587C481.086 523.28 482.408 520.569 483.136 518.519C483.929 516.468 484.194 514.881 483.996 513.757C483.797 512.5 483.334 511.574 482.607 510.913C481.879 510.251 480.953 509.987 479.763 510.053C478.638 510.053 477.58 510.384 476.456 510.913C475.398 511.442 474.207 512.235 472.951 513.228C472.554 513.558 472.289 513.691 472.157 513.624C471.959 513.624 471.826 513.426 471.76 513.161L470.371 509.259C470.371 509.259 470.239 508.796 470.371 508.664C470.371 508.466 470.636 508.267 470.9 508.003C471.363 507.54 471.959 507.077 472.62 506.68C473.281 506.283 473.943 505.886 474.67 505.556C475.398 505.225 476.059 504.96 476.787 504.762C477.514 504.564 478.109 504.431 478.705 504.299C480.093 504.101 481.416 504.101 482.739 504.299C484.062 504.497 485.186 505.026 486.244 505.688C487.236 506.415 488.096 507.341 488.824 508.532C489.551 509.722 490.014 511.111 490.213 512.765C490.411 514.22 490.345 515.675 489.948 517.196C489.617 518.717 489.088 520.238 488.427 521.693C487.765 523.148 487.104 524.603 486.31 525.992C485.517 527.381 484.789 528.638 484.194 529.762C483.797 530.489 483.334 531.349 482.739 532.209C482.21 533.135 481.681 533.929 481.218 534.656L492.66 532.937C493.123 532.937 493.387 532.937 493.519 533.069C493.652 533.201 493.718 533.466 493.784 533.929L494.313 537.368C494.379 537.831 494.313 538.161 494.313 538.294C494.247 538.426 493.982 538.558 493.586 538.624L475.332 541.336L475.265 541.204Z" fill="white" stroke="#231F20" stroke-width="3"/>
<path d="M516.999 523.677C517.263 525.198 517.263 526.72 516.999 528.108C516.734 529.563 516.139 530.82 515.279 532.011C514.419 533.201 513.295 534.193 511.84 535.053C510.385 535.913 508.665 536.508 506.681 536.905C505.491 537.103 504.168 537.235 502.713 537.302C501.324 537.302 500.001 537.302 498.877 537.037C498.414 536.971 498.149 536.839 498.017 536.64C497.885 536.442 497.819 536.177 497.819 535.847L497.554 532.143C497.554 531.68 497.554 531.415 497.753 531.283C497.885 531.151 498.216 531.151 498.679 531.217C499.406 531.349 500.266 531.415 501.192 531.481C502.118 531.548 502.977 531.548 503.639 531.481C504.631 531.415 505.623 531.217 506.549 530.886C507.475 530.556 508.335 530.159 509.062 529.563C509.79 528.968 510.253 528.307 510.649 527.513C510.98 526.72 511.046 525.728 510.848 524.669C510.716 524.008 510.451 523.413 510.054 522.884C509.657 522.288 509.128 521.825 508.401 521.495C507.739 521.098 506.88 520.899 505.954 520.701C505.028 520.569 503.969 520.635 502.779 520.833L500.464 521.296C500.067 521.362 499.869 521.296 499.737 521.296C499.604 521.296 499.538 520.966 499.472 520.569L498.745 516.865C498.679 516.468 498.679 516.138 498.745 516.071C498.811 515.939 499.075 515.873 499.406 515.807L501.655 515.41C502.25 515.278 502.911 515.079 503.573 514.749C504.3 514.418 504.895 514.021 505.491 513.492C506.086 512.963 506.549 512.368 506.88 511.706C507.21 511.045 507.276 510.317 507.144 509.458C506.946 508.333 506.35 507.407 505.425 506.746C504.499 506.085 503.308 505.952 501.721 506.217C500.729 506.415 499.671 506.746 498.546 507.275C497.422 507.804 496.496 508.333 495.636 508.929C495.239 509.193 494.975 509.325 494.71 509.325C494.446 509.325 494.313 509.127 494.181 508.73L493.057 505.026C493.057 505.026 492.925 504.497 493.057 504.365C493.123 504.167 493.388 503.968 493.784 503.704C494.909 502.976 496.033 502.315 497.29 501.72C498.546 501.124 499.737 500.727 500.993 500.463C502.25 500.198 503.573 500.198 504.895 500.265C506.218 500.397 507.475 500.728 508.599 501.257C509.723 501.786 510.716 502.579 511.575 503.638C512.435 504.696 512.964 506.018 513.295 507.54C513.493 508.399 513.493 509.325 513.295 510.185C513.097 511.045 512.898 511.905 512.501 512.698C512.104 513.492 511.575 514.286 510.98 514.947C510.385 515.675 509.657 516.27 508.864 516.799C511.245 517.262 513.097 518.122 514.485 519.444C515.874 520.767 516.734 522.156 516.999 523.743V523.677Z" fill="white" stroke="#231F20" stroke-width="3"/>
<path d="M526.985 535.582C525.86 535.847 524.868 535.582 524.008 534.987C523.149 534.391 522.487 533.466 522.289 532.341C522.09 531.217 522.223 530.159 522.752 529.233C523.347 528.307 524.141 527.712 525.265 527.447C526.389 527.182 527.381 527.447 528.241 528.042C529.167 528.637 529.762 529.563 529.961 530.688C530.159 531.812 530.027 532.87 529.498 533.796C528.902 534.722 528.109 535.317 526.985 535.582Z" fill="white" stroke="#231F20" stroke-width="3"/>
<path d="M543.386 528.704C541.468 529.167 539.748 529.167 538.161 528.704C536.574 528.175 535.119 527.315 533.796 525.926C532.539 524.603 531.349 522.884 530.423 520.833C529.431 518.717 528.637 516.336 527.91 513.691C527.645 512.5 527.381 511.177 527.116 509.855C526.918 508.466 526.785 507.077 526.719 505.688C526.653 504.299 526.719 502.91 526.984 501.587C527.248 500.265 527.579 499.008 528.174 497.884C528.769 496.759 529.563 495.767 530.555 494.908C531.547 494.048 532.804 493.452 534.391 493.056C535.912 492.659 537.301 492.593 538.624 492.857C539.947 493.122 541.071 493.651 542.129 494.312C543.187 495.04 544.113 495.966 544.907 497.024C545.701 498.082 546.428 499.273 547.09 500.529C547.751 501.786 548.28 503.042 548.743 504.365C549.206 505.688 549.537 506.945 549.867 508.069C550.529 510.781 550.926 513.228 551.058 515.542C551.19 517.857 551.058 519.841 550.529 521.693C550 523.479 549.206 525 548.082 526.191C546.957 527.381 545.436 528.241 543.518 528.704H543.386ZM535.912 498.876C535.185 499.074 534.59 499.405 534.06 499.934C533.531 500.463 533.135 501.257 532.936 502.315C532.738 503.373 532.672 504.696 532.738 506.283C532.804 507.87 533.201 509.855 533.796 512.103C534.391 514.418 534.986 516.27 535.648 517.791C536.309 519.246 536.971 520.37 537.698 521.23C538.426 522.024 539.087 522.553 539.814 522.818C540.542 523.082 541.269 523.082 541.931 522.884C542.658 522.685 543.254 522.355 543.783 521.825C544.312 521.296 544.709 520.503 544.907 519.445C545.172 518.386 545.172 517.064 545.105 515.476C544.973 513.889 544.642 511.905 544.047 509.59C543.452 507.341 542.857 505.423 542.195 503.968C541.534 502.513 540.873 501.323 540.145 500.529C539.418 499.736 538.756 499.14 538.029 498.942C537.301 498.677 536.574 498.677 535.846 498.876H535.912Z" fill="white" stroke="#231F20" stroke-width="3"/>
<path d="M555.953 487.169C559.393 486.111 562.435 486.773 565.014 488.955C567.594 491.204 569.71 495.04 571.364 500.463C572.091 502.976 572.554 505.357 572.752 507.804C572.951 510.185 572.752 512.434 572.157 514.418C571.562 516.468 570.504 518.254 568.983 519.775C567.461 521.296 565.411 522.487 562.766 523.28C562.369 523.413 561.906 523.545 561.443 523.611C560.98 523.677 560.451 523.81 559.922 523.876C559.393 523.876 558.93 524.008 558.467 524.074C558.004 524.074 557.541 524.074 557.21 524.074C556.879 524.074 556.681 523.942 556.615 523.81C556.549 523.677 556.483 523.479 556.35 523.28L555.292 519.048C555.226 518.717 555.292 518.519 555.424 518.452C555.557 518.386 555.887 518.32 556.284 518.32C556.813 518.32 557.276 518.32 557.673 518.32C558.07 518.32 558.467 518.32 558.797 518.188C559.128 518.056 559.525 518.056 559.922 517.989C560.319 517.923 560.715 517.791 561.245 517.593C563.625 516.865 565.213 515.542 566.006 513.558C566.866 511.574 566.998 509.259 566.469 506.548C566.073 507.474 565.477 508.267 564.618 509.061C563.758 509.788 562.898 510.317 562.038 510.582C560.715 510.979 559.327 511.111 558.004 510.979C556.615 510.847 555.358 510.384 554.234 509.656C553.043 508.929 551.985 508.003 551.059 506.746C550.133 505.489 549.406 504.034 548.877 502.315C548.348 500.661 548.149 499.008 548.215 497.355C548.215 495.767 548.612 494.246 549.207 492.923C549.803 491.601 550.662 490.41 551.787 489.418C552.911 488.426 554.3 487.632 555.953 487.169ZM560.715 504.96C562.303 504.497 563.427 503.638 564.022 502.315C564.618 501.058 564.684 499.537 564.155 497.817C563.89 496.892 563.493 496.098 563.03 495.37C562.567 494.643 561.972 494.048 561.377 493.585C560.782 493.122 560.12 492.791 559.459 492.659C558.797 492.46 558.136 492.526 557.475 492.659C556.02 493.056 555.028 493.982 554.432 495.37C553.837 496.759 553.837 498.413 554.432 500.397C554.961 502.315 555.821 503.638 556.946 504.431C558.07 505.225 559.327 505.423 560.782 504.96H560.715Z" fill="white" stroke="#231F20" stroke-width="3"/>
<path d="M584.127 519.841C583.069 520.172 582.077 520.106 581.085 519.577C580.093 519.048 579.431 518.254 579.101 517.13C578.77 516.005 578.77 514.947 579.233 513.955C579.696 512.963 580.49 512.302 581.548 511.905C582.606 511.574 583.598 511.64 584.59 512.169C585.582 512.698 586.244 513.492 586.574 514.616C586.971 515.741 586.905 516.799 586.442 517.791C585.979 518.783 585.185 519.444 584.193 519.841H584.127Z" fill="white" stroke="#231F20" stroke-width="3"/>
<path d="M597.884 511.376C597.884 511.376 597.355 511.508 597.222 511.376C597.09 511.309 596.958 511.045 596.826 510.714L587.699 485.979L586.111 489.418C585.847 490.013 585.516 490.212 585.119 489.947L581.614 487.963C581.614 487.963 581.283 487.632 581.283 487.5C581.283 487.301 581.349 487.037 581.548 486.706L585.582 478.108C585.781 477.712 586.045 477.513 586.442 477.381L589.154 476.389C589.749 476.19 590.146 476.124 590.278 476.19C590.41 476.256 590.675 476.719 590.939 477.447L602.447 508.664C602.447 508.664 602.579 509.259 602.513 509.391C602.513 509.59 602.249 509.722 601.984 509.854L597.884 511.376Z" fill="white" stroke="#231F20" stroke-width="3"/>
<path d="M627.513 496.495C626.918 497.884 626.058 499.074 624.801 500.132C623.545 501.191 622.222 502.05 620.701 502.712C620.238 502.91 619.643 503.109 619.048 503.307C618.386 503.505 617.791 503.638 617.13 503.77C616.468 503.902 615.807 503.968 615.212 504.034C614.616 504.101 614.021 504.101 613.558 504.034C613.294 504.034 613.095 504.034 613.029 503.902C612.897 503.902 612.831 503.638 612.698 503.373L610.979 499.405C610.846 499.074 610.78 498.81 610.913 498.677C611.045 498.545 611.177 498.479 611.508 498.479C611.971 498.479 612.5 498.479 613.161 498.347C613.757 498.28 614.418 498.148 615.079 498.082C615.741 497.95 616.402 497.817 617.063 497.619C617.725 497.421 618.32 497.222 618.849 497.024C620.436 496.362 621.495 495.304 622.09 493.849C622.685 492.394 622.619 490.873 621.891 489.153C621.23 487.566 620.238 486.442 618.981 485.78C617.725 485.119 616.137 485.185 614.153 486.045C613.36 486.376 612.566 486.839 611.64 487.434C610.78 488.029 609.987 488.624 609.325 489.286C609.127 489.484 608.928 489.683 608.73 489.881C608.532 490.079 608.333 490.146 608.135 490.212C607.936 490.212 607.738 490.212 607.54 490.013C607.341 489.815 607.143 489.55 606.944 489.087L600.463 473.214C600.264 472.818 600.264 472.487 600.331 472.288C600.463 472.09 600.727 471.892 601.19 471.693L615.873 465.476C615.873 465.476 616.402 465.344 616.6 465.41C616.733 465.476 616.865 465.675 616.997 466.005L618.518 469.511C618.518 469.511 618.717 470.04 618.717 470.238C618.717 470.437 618.518 470.569 618.188 470.701L607.672 475.198L610.45 482.209C610.846 481.878 611.309 481.614 611.772 481.349C612.235 481.085 612.698 480.886 613.161 480.688C614.55 480.093 615.939 479.762 617.262 479.696C618.651 479.63 619.973 479.828 621.23 480.291C622.487 480.754 623.611 481.482 624.669 482.474C625.727 483.466 626.587 484.788 627.249 486.376C628.77 490.013 628.968 493.32 627.712 496.363L627.513 496.495Z" fill="white" stroke="#231F20" stroke-width="3"/>
<path d="M647.487 470.503C647.354 471.958 646.958 473.214 646.296 474.339C645.635 475.463 644.643 476.323 643.452 476.918C642.725 477.249 641.931 477.513 641.071 477.646C640.212 477.778 639.286 477.844 638.426 477.91C637.5 477.91 636.706 478.042 635.913 478.108C635.119 478.175 634.524 478.373 633.995 478.571C633.466 478.836 632.936 479.365 632.606 480.225C632.275 481.085 631.944 481.944 631.746 482.87C631.68 483.267 631.548 483.466 631.349 483.466C631.151 483.466 630.886 483.333 630.489 483.135L627.844 481.349C627.844 481.349 627.513 481.085 627.447 480.952C627.447 480.82 627.381 480.622 627.381 480.489C627.447 479.034 627.91 477.712 628.637 476.587C629.431 475.463 630.423 474.603 631.812 473.942C632.473 473.611 633.267 473.347 634.193 473.214C635.119 473.082 635.979 472.95 636.839 472.817C637.698 472.685 638.492 472.619 639.219 472.553C639.947 472.487 640.542 472.355 640.939 472.156C641.27 472.024 641.534 471.759 641.733 471.429C641.997 471.098 642.196 470.767 642.328 470.37C642.526 469.974 642.659 469.577 642.791 469.18C642.923 468.783 642.989 468.452 643.122 468.188C643.254 467.857 643.32 467.659 643.452 467.593C643.585 467.526 643.783 467.593 644.114 467.725L647.156 469.444C647.156 469.444 647.487 469.709 647.553 469.841C647.553 469.974 647.553 470.172 647.553 470.437L647.487 470.503Z" fill="white" stroke="#231F20" stroke-width="3"/>
<path d="M659.193 484.193C658.862 484.392 658.531 484.524 658.333 484.524C658.134 484.524 657.936 484.325 657.737 483.995L656.15 481.151C656.15 481.151 655.886 480.556 655.952 480.291C655.952 480.027 655.952 479.762 656.084 479.431L657.737 469.18C658.333 465.41 658.597 462.434 658.597 460.251C658.597 458.069 658.267 456.482 657.737 455.49C657.142 454.365 656.349 453.638 655.423 453.307C654.497 452.976 653.505 453.042 652.447 453.505C651.388 453.968 650.529 454.63 649.669 455.49C648.875 456.349 648.015 457.54 647.222 458.929C646.957 459.325 646.759 459.524 646.626 459.59C646.428 459.59 646.296 459.524 646.097 459.259L643.386 456.085C643.386 456.085 643.121 455.688 643.121 455.556C643.121 455.423 643.187 455.093 643.386 454.696C643.65 454.101 644.047 453.439 644.51 452.844C644.973 452.249 645.436 451.654 646.031 451.058C646.56 450.529 647.156 450 647.685 449.537C648.28 449.074 648.809 448.743 649.338 448.413C650.595 447.751 651.851 447.288 653.108 447.024C654.431 446.759 655.621 446.825 656.878 447.09C658.068 447.355 659.193 447.95 660.317 448.81C661.375 449.669 662.367 450.794 663.161 452.249C663.888 453.505 664.285 454.894 664.55 456.482C664.748 458.003 664.814 459.59 664.748 461.243C664.682 462.831 664.55 464.418 664.285 466.005C664.021 467.593 663.822 468.982 663.624 470.238C663.491 471.098 663.359 472.024 663.161 473.016C662.962 474.074 662.764 475 662.632 475.86L672.751 470.172C673.148 469.974 673.412 469.907 673.544 469.974C673.677 470.04 673.875 470.304 674.073 470.635L675.793 473.677C675.991 474.074 676.124 474.405 676.058 474.537C676.058 474.736 675.793 474.934 675.462 475.132L659.325 484.193H659.193Z" fill="white" stroke="#231F20" stroke-width="3"/>
<path d="M689.75 466.799C688.097 467.857 686.443 468.386 684.723 468.452C683.07 468.452 681.417 468.055 679.763 467.196C678.11 466.336 676.522 465.079 674.935 463.426C673.348 461.772 671.827 459.722 670.306 457.407C669.644 456.349 668.983 455.225 668.321 454.034C667.66 452.844 667.131 451.521 666.668 450.198C666.205 448.876 665.874 447.553 665.61 446.23C665.411 444.907 665.411 443.585 665.61 442.328C665.808 441.071 666.271 439.881 666.932 438.756C667.594 437.632 668.652 436.64 669.975 435.78C671.298 434.921 672.62 434.458 673.943 434.259C675.266 434.127 676.456 434.259 677.713 434.59C678.903 434.921 680.094 435.516 681.218 436.309C682.343 437.103 683.401 437.963 684.393 438.955C685.385 439.947 686.311 441.005 687.171 442.13C688.03 443.254 688.758 444.312 689.419 445.304C690.94 447.619 692.065 449.868 692.925 451.984C693.784 454.1 694.247 456.085 694.313 458.003C694.38 459.921 694.115 461.574 693.388 463.029C692.66 464.55 691.47 465.807 689.816 466.865L689.75 466.799ZM673.216 440.873C672.62 441.27 672.091 441.799 671.827 442.46C671.496 443.122 671.364 444.048 671.496 445.106C671.628 446.164 671.959 447.487 672.62 448.942C673.216 450.397 674.208 452.182 675.464 454.1C676.721 456.085 677.911 457.672 679.036 458.862C680.16 460.053 681.152 460.913 682.078 461.442C683.004 461.971 683.864 462.235 684.591 462.235C685.319 462.235 686.046 462.037 686.641 461.64C687.237 461.243 687.766 460.714 688.03 459.987C688.361 459.325 688.493 458.399 688.361 457.341C688.229 456.283 687.898 455.026 687.303 453.505C686.708 451.984 685.716 450.264 684.459 448.28C683.202 446.296 682.012 444.709 680.954 443.518C679.895 442.328 678.837 441.468 677.911 440.873C676.985 440.344 676.126 440.013 675.398 440.079C674.604 440.079 673.943 440.278 673.348 440.674L673.216 440.873Z" fill="white" stroke="#231F20" stroke-width="3"/>
<path d="M701.454 458.598C701.454 458.598 700.859 458.995 700.661 458.995C700.462 458.995 700.264 458.862 699.999 458.532L698.082 455.886C698.082 455.886 697.751 455.357 697.751 455.093C697.751 454.828 697.751 454.497 697.751 454.233L698.148 443.915C698.28 440.079 698.148 437.103 697.949 434.921C697.685 432.738 697.222 431.217 696.56 430.291C695.833 429.299 694.973 428.638 694.047 428.439C693.121 428.241 692.129 428.439 691.137 428.968C690.145 429.497 689.351 430.291 688.624 431.283C687.896 432.275 687.235 433.466 686.574 434.987C686.375 435.45 686.177 435.648 686.044 435.714C685.912 435.78 685.648 435.714 685.449 435.45L682.407 432.606C682.407 432.606 682.076 432.275 682.076 432.077C682.076 431.878 682.076 431.614 682.208 431.217C682.407 430.556 682.738 429.894 683.068 429.233C683.465 428.571 683.862 427.91 684.325 427.315C684.788 426.72 685.317 426.124 685.846 425.595C686.375 425.066 686.904 424.669 687.367 424.272C688.492 423.413 689.682 422.817 690.939 422.421C692.195 422.024 693.452 421.892 694.642 422.09C695.899 422.222 697.089 422.685 698.214 423.413C699.338 424.14 700.462 425.132 701.454 426.521C702.314 427.712 702.909 429.034 703.306 430.556C703.703 432.077 703.902 433.598 704.034 435.251C704.166 436.905 704.166 438.426 704.1 440.013C704.1 441.601 703.968 443.056 703.968 444.312C703.968 445.172 703.968 446.098 703.835 447.156C703.703 448.214 703.703 449.14 703.637 450.066L713.029 443.254C713.359 442.989 713.624 442.923 713.822 442.989C714.021 443.056 714.219 443.254 714.484 443.585L716.534 446.362C716.798 446.759 716.931 447.024 716.931 447.222C716.931 447.421 716.732 447.619 716.402 447.884L701.454 458.796V458.598Z" fill="white" stroke="#231F20" stroke-width="3"/>
<path d="M729.961 426.587L734.326 431.746C734.656 432.143 734.855 432.407 734.855 432.606C734.855 432.804 734.656 433.003 734.326 433.333L731.548 435.648C731.151 435.979 730.886 436.111 730.688 436.045C730.49 435.979 730.291 435.78 729.961 435.45L725.662 430.291L715.41 438.889C715.41 438.889 714.881 439.286 714.683 439.286C714.484 439.286 714.286 439.153 714.021 438.823L711.905 436.309C711.905 436.309 711.574 435.78 711.508 435.516C711.508 435.251 711.442 434.987 711.376 434.722C710.781 430.556 710.119 426.323 709.458 422.09C708.796 417.857 708.201 413.624 707.738 409.458C707.738 409.193 707.738 408.929 707.738 408.796C707.804 408.664 707.937 408.466 708.201 408.267L711.31 405.688C711.707 405.357 711.971 405.225 712.169 405.357C712.368 405.489 712.5 405.688 712.699 405.886L726.389 422.288L729.167 419.973C729.498 419.709 729.762 419.577 729.894 419.577C730.027 419.577 730.291 419.775 730.622 420.172L732.937 422.95C733.267 423.347 733.4 423.611 733.333 423.743C733.267 423.876 733.135 424.074 732.804 424.339L730.027 426.653L729.961 426.587ZM715.939 430.952L721.958 425.926L713.823 416.204L716.005 430.952H715.939Z" fill="white" stroke="#231F20" stroke-width="3"/>
<path d="M744.908 428.042C744.114 428.836 743.122 429.167 742.064 429.101C741.005 429.034 740.013 428.571 739.22 427.712C738.426 426.852 738.029 425.86 738.029 424.735C738.029 423.611 738.426 422.685 739.286 421.958C740.08 421.23 741.072 420.833 742.13 420.899C743.254 420.966 744.18 421.429 744.974 422.288C745.767 423.148 746.164 424.14 746.164 425.265C746.164 426.389 745.767 427.315 744.908 428.042Z" fill="white" stroke="#231F20" stroke-width="3"/>
<path d="M755.954 413.095C754.565 414.484 753.11 415.41 751.456 415.873C749.803 416.27 748.149 416.27 746.297 415.873C744.512 415.41 742.66 414.55 740.742 413.294C738.824 412.037 736.84 410.45 734.856 408.532C733.996 407.672 733.07 406.746 732.144 405.688C731.218 404.63 730.358 403.505 729.631 402.381C728.903 401.256 728.242 400 727.713 398.743C727.184 397.487 726.853 396.23 726.787 394.973C726.655 393.717 726.787 392.46 727.25 391.204C727.647 389.947 728.44 388.756 729.499 387.632C730.557 386.508 731.747 385.714 733.004 385.251C734.194 384.788 735.451 384.59 736.708 384.656C737.964 384.656 739.221 384.987 740.477 385.45C741.734 385.913 742.991 386.574 744.181 387.301C745.372 388.029 746.496 388.823 747.62 389.682C748.678 390.542 749.671 391.402 750.53 392.262C752.514 394.18 754.168 396.098 755.491 397.95C756.813 399.801 757.739 401.653 758.268 403.439C758.797 405.225 758.864 406.944 758.533 408.532C758.202 410.185 757.342 411.64 755.954 413.095ZM733.797 391.733C733.268 392.262 732.938 392.923 732.805 393.651C732.673 394.378 732.805 395.304 733.136 396.296C733.467 397.288 734.128 398.479 735.12 399.801C736.046 401.124 737.369 402.579 739.088 404.167C740.808 405.82 742.329 407.077 743.652 408.003C744.975 408.928 746.165 409.524 747.223 409.854C748.282 410.185 749.141 410.251 749.869 410.053C750.596 409.854 751.258 409.524 751.721 408.995C752.25 408.465 752.581 407.804 752.713 407.077C752.845 406.349 752.713 405.489 752.448 404.431C752.118 403.439 751.456 402.249 750.53 400.992C749.604 399.669 748.282 398.214 746.562 396.561C744.909 394.907 743.387 393.651 742.065 392.791C740.742 391.865 739.551 391.27 738.493 390.939C737.435 390.608 736.575 390.542 735.848 390.741C735.12 390.939 734.459 391.27 733.996 391.799L733.797 391.733Z" fill="white" stroke="#231F20" stroke-width="3"/>
<path d="M743.915 371.363C746.164 368.585 749.008 367.328 752.381 367.725C755.754 368.122 759.656 370.106 764.087 373.677C766.071 375.331 767.857 377.05 769.378 378.902C770.899 380.754 771.957 382.738 772.619 384.722C773.28 386.706 773.412 388.823 773.016 390.939C772.619 393.056 771.561 395.172 769.841 397.355C769.576 397.685 769.312 398.016 768.915 398.413C768.584 398.81 768.187 399.14 767.857 399.471C767.46 399.802 767.129 400.132 766.732 400.463C766.402 400.794 766.005 400.992 765.74 401.191C765.476 401.323 765.211 401.389 765.079 401.323C764.947 401.257 764.748 401.124 764.55 400.992L761.243 398.082C761.243 398.082 760.912 397.685 760.978 397.487C761.045 397.288 761.243 397.156 761.64 396.892C762.103 396.627 762.434 396.363 762.764 396.098C763.095 395.833 763.359 395.569 763.69 395.37C763.955 395.106 764.219 394.841 764.484 394.577C764.748 394.312 765.013 393.915 765.344 393.519C766.865 391.601 767.46 389.617 767.063 387.5C766.666 385.384 765.476 383.4 763.492 381.482C763.69 382.474 763.69 383.466 763.359 384.59C763.029 385.714 762.632 386.574 762.037 387.302C761.177 388.426 760.119 389.286 758.862 389.881C757.672 390.542 756.349 390.873 754.96 390.939C753.571 391.005 752.182 390.807 750.727 390.344C749.272 389.815 747.817 389.021 746.428 387.897C745.039 386.773 743.981 385.582 743.121 384.193C742.262 382.804 741.732 381.415 741.468 379.96C741.203 378.505 741.27 377.05 741.6 375.595C741.931 374.14 742.658 372.751 743.783 371.363H743.915ZM757.936 383.333C758.994 382.011 759.391 380.688 759.193 379.299C758.994 377.91 758.135 376.654 756.746 375.463C756.018 374.868 755.225 374.405 754.431 374.074C753.637 373.744 752.844 373.545 752.05 373.545C751.256 373.545 750.595 373.545 749.934 373.876C749.272 374.14 748.743 374.471 748.28 375C747.354 376.124 747.023 377.447 747.288 378.968C747.553 380.423 748.479 381.812 750.066 383.135C751.587 384.392 753.042 384.987 754.431 385.053C755.82 385.053 756.944 384.524 757.87 383.333H757.936Z" fill="white" stroke="#231F20" stroke-width="3"/>
<path d="M785.846 381.614C785.185 382.54 784.325 383.069 783.267 383.201C782.143 383.333 781.151 383.069 780.225 382.407C779.299 381.746 778.703 380.82 778.505 379.762C778.307 378.704 778.505 377.712 779.166 376.786C779.828 375.86 780.688 375.331 781.746 375.198C782.87 375.066 783.862 375.331 784.788 375.992C785.714 376.653 786.309 377.579 786.508 378.638C786.706 379.696 786.508 380.688 785.846 381.614Z" fill="white" stroke="#231F20" stroke-width="3"/>
<path d="M792.197 365.741C792.197 365.741 791.866 366.138 791.668 366.204C791.469 366.27 791.271 366.204 790.94 365.939L768.453 352.183L769.379 355.886C769.512 356.548 769.379 356.878 768.916 356.878L764.948 357.474C764.948 357.474 764.485 357.474 764.353 357.275C764.22 357.143 764.154 356.878 764.088 356.548L761.906 347.288C761.84 346.892 761.906 346.495 762.104 346.164L763.625 343.717C763.956 343.188 764.221 342.857 764.419 342.857C764.617 342.857 765.014 343.056 765.675 343.452L794.049 360.78C794.049 360.78 794.511 361.111 794.578 361.31C794.644 361.508 794.578 361.706 794.445 361.971L792.197 365.675V365.741Z" fill="white" stroke="#231F20" stroke-width="3"/>
<path d="M801.456 331.548L807.54 334.392C808.003 334.59 808.268 334.788 808.4 334.921C808.466 335.053 808.4 335.384 808.202 335.847L806.615 339.153C806.416 339.616 806.218 339.815 806.019 339.881C805.821 339.881 805.49 339.881 805.093 339.616L799.009 336.772L793.321 348.876C793.122 349.272 792.99 349.471 792.858 349.537C792.726 349.603 792.461 349.537 792.064 349.405L789.088 348.016C789.088 348.016 788.559 347.685 788.427 347.487C788.294 347.288 788.162 347.024 787.964 346.759C785.649 343.188 783.268 339.683 780.887 336.111C778.506 332.54 776.191 328.968 774.009 325.331C773.876 325.066 773.744 324.868 773.744 324.735C773.744 324.603 773.744 324.339 773.943 324.074L775.662 320.436C775.861 319.974 776.125 319.775 776.257 319.841C776.39 319.907 776.72 319.974 776.985 320.106L796.297 329.233L797.818 325.992C798.017 325.595 798.149 325.397 798.281 325.331C798.413 325.331 798.744 325.331 799.207 325.595L802.448 327.116C802.911 327.315 803.175 327.513 803.175 327.645C803.175 327.778 803.175 328.042 802.977 328.373L801.456 331.614V331.548ZM790.543 341.402L793.85 334.325L782.342 328.902L790.477 341.402H790.543Z" fill="white" stroke="#231F20" stroke-width="3"/>
<path d="M262.037 422.95L240.344 459.855L234.193 458.069L235.781 407.407L241.27 408.995L239.551 452.116L261.442 414.815L267.13 416.468L265.675 460.053L287.302 422.288L292.527 423.81L266.998 467.527L260.715 465.675L262.17 422.95H262.037Z" fill="#231F20"/>
<path d="M260.649 465.675L266.932 467.527L292.461 423.81L287.236 422.288L265.609 460.053L267.064 416.468L261.442 414.815L239.551 452.116L241.27 408.995L235.781 407.407L234.26 458.069L240.411 459.855L262.038 422.95L260.649 465.675Z" stroke="#231F20" stroke-width="0.31" stroke-linecap="round" stroke-linejoin="round"/>
<path d="M319.378 477.646L289.418 472.487L297.751 424.008L327.712 429.167L326.918 433.995L302.579 429.828L300 444.643L322.619 448.545L321.825 453.307L299.206 449.405L295.899 468.585L320.238 472.751L319.378 477.712V477.646Z" fill="#231F20"/>
<path d="M320.238 472.751L295.899 468.585L299.206 449.405L321.825 453.307L322.619 448.545L300 444.643L302.579 429.828L326.918 433.995L327.712 429.233L297.751 424.074L289.418 472.553L319.378 477.646L320.238 472.751Z" stroke="#231F20" stroke-width="0.31" stroke-linecap="round" stroke-linejoin="round"/>
<path d="M346.495 480.159L329.961 478.704L334.326 429.828L350.662 431.283C352.977 431.482 354.961 431.945 356.614 432.672C358.334 433.4 359.723 434.325 360.847 435.45C361.972 436.574 362.765 437.765 363.228 439.154C363.691 440.542 363.89 441.997 363.757 443.519C363.493 446.23 362.567 448.479 360.781 450.331C359.061 452.183 356.813 453.307 354.035 453.836V453.968C355.688 454.299 357.143 454.894 358.466 455.754C359.789 456.548 360.847 457.54 361.707 458.664C362.567 459.788 363.228 461.111 363.625 462.566C364.022 464.021 364.154 465.609 364.022 467.262C363.89 469.048 363.36 470.767 362.567 472.421C361.773 474.074 360.649 475.529 359.128 476.786C357.673 478.042 355.887 478.968 353.704 479.564C351.588 480.225 349.141 480.423 346.363 480.159H346.495ZM346.76 455.886L337.765 455.093L336.046 474.339L346.165 475.265C349.67 475.595 352.382 474.934 354.366 473.413C356.35 471.826 357.474 469.577 357.739 466.667C358.003 463.558 357.276 461.111 355.49 459.259C353.704 457.408 350.794 456.283 346.76 455.952V455.886ZM348.744 435.847L339.551 435.053L338.162 450.397L346.694 451.124C349.802 451.389 352.382 451.058 354.3 450C356.218 448.942 357.342 446.958 357.606 443.982C357.871 441.402 357.21 439.484 355.688 438.228C354.167 436.971 351.852 436.177 348.678 435.913L348.744 435.847Z" fill="#231F20"/>
<path d="M353.837 479.762C355.954 479.101 357.739 478.175 359.26 476.984C360.715 475.728 361.906 474.273 362.7 472.619C363.493 470.966 363.956 469.246 364.155 467.461C364.287 465.807 364.155 464.22 363.758 462.765C363.361 461.31 362.7 459.987 361.84 458.863C360.98 457.738 359.856 456.746 358.599 455.953C357.276 455.159 355.821 454.564 354.168 454.167V454.035C356.946 453.505 359.194 452.315 360.914 450.529C362.633 448.677 363.626 446.429 363.89 443.717C364.022 442.196 363.89 440.741 363.361 439.352C362.898 437.963 362.104 436.707 360.98 435.648C359.856 434.524 358.467 433.664 356.747 432.871C355.028 432.143 353.043 431.68 350.795 431.482L334.459 430.027L330.094 478.968L346.628 480.423C349.406 480.688 351.787 480.423 353.903 479.828L353.837 479.762ZM355.557 459.392C357.342 461.244 358.136 463.691 357.805 466.799C357.541 469.709 356.417 471.958 354.432 473.545C352.448 475.066 349.737 475.728 346.231 475.397L336.112 474.471L337.832 455.225L346.827 456.019C350.861 456.416 353.771 457.474 355.557 459.326V459.392ZM355.821 438.36C357.342 439.617 357.938 441.535 357.739 444.114C357.475 447.09 356.35 449.074 354.432 450.132C352.514 451.191 349.935 451.521 346.827 451.257L338.295 450.463L339.684 435.185L348.877 435.979C352.051 436.244 354.432 437.037 355.887 438.294L355.821 438.36Z" stroke="#231F20" stroke-width="0.31" stroke-linecap="round" stroke-linejoin="round"/>
<path d="M405.423 450.132C406.216 450.992 407.076 451.852 408.134 452.712C409.193 453.572 410.251 454.299 411.375 455.093C412.499 455.82 413.624 456.482 414.748 457.077C415.873 457.672 416.997 458.201 418.055 458.664L415.079 462.434C412.83 461.376 410.648 460.053 408.531 458.598C406.415 457.077 404.431 455.423 402.645 453.572C400.264 456.151 397.619 458.4 394.841 460.251C391.997 462.103 389.351 463.558 386.97 464.484L383.531 460.979C386.111 459.987 388.558 458.796 390.872 457.275C393.187 455.754 395.304 454.167 397.222 452.315C399.14 450.529 400.727 448.611 402.05 446.627C403.373 444.643 404.232 442.659 404.761 440.609C402.711 440.741 400.661 440.873 398.544 440.939C396.428 441.005 394.312 441.072 392.195 441.138L386.838 441.27L386.706 436.905L395.701 436.64C398.148 436.574 400.661 436.508 403.174 436.442C405.687 436.376 408.333 436.244 411.044 436.111C410.846 438.691 410.251 441.138 409.259 443.453C408.267 445.767 407.076 447.95 405.555 450.066L405.423 450.132ZM428.835 486.177L395.238 487.17L394.642 466.667L399.669 466.535L399.801 471.164L423.412 470.437L423.28 465.476L428.24 465.344L428.835 486.177ZM423.743 481.945L423.544 474.669L399.933 475.397L400.132 482.672L423.743 482.011V481.945ZM413.293 450.265L413.161 445.767L422.619 445.503L422.288 433.532L427.314 433.4L428.174 462.434L423.148 462.566L422.751 450.066L413.293 450.331V450.265Z" fill="#231F20"/>
<path d="M400.133 482.606L399.935 475.331L423.546 474.603L423.744 481.878L400.133 482.54V482.606ZM428.242 465.344L423.281 465.476L423.414 470.437L399.803 471.164L399.67 466.535L394.71 466.667L395.305 487.169L428.903 486.177L428.308 465.41L428.242 465.344ZM422.752 449.934L423.149 462.434L428.176 462.302L427.316 433.267L422.289 433.4L422.62 445.37L413.162 445.635L413.295 450.132L422.752 449.868V449.934ZM409.194 443.453C410.186 441.138 410.715 438.691 410.914 436.111C408.136 436.244 405.556 436.376 403.043 436.442C400.53 436.508 398.017 436.574 395.57 436.706L386.575 436.971L386.707 441.336L392.064 441.204C394.181 441.204 396.297 441.072 398.414 441.005C400.53 440.939 402.58 440.807 404.631 440.675C404.168 442.725 403.242 444.709 401.919 446.693C400.596 448.677 399.009 450.595 397.091 452.381C395.173 454.167 393.056 455.82 390.742 457.341C388.361 458.863 385.914 460.119 383.4 461.045L386.84 464.55C389.287 463.558 391.932 462.169 394.71 460.318C397.554 458.466 400.133 456.217 402.514 453.638C404.3 455.49 406.284 457.143 408.4 458.664C410.517 460.185 412.699 461.442 414.948 462.5L417.924 458.73C416.866 458.267 415.742 457.738 414.617 457.143C413.493 456.548 412.369 455.886 411.244 455.093C410.12 454.365 409.062 453.572 408.004 452.778C406.945 451.984 406.086 451.124 405.292 450.199C406.813 448.148 408.004 445.9 408.996 443.585L409.194 443.453Z" stroke="#231F20" stroke-width="0.31" stroke-linecap="round" stroke-linejoin="round"/>
<path d="M471.759 452.447C471.759 449.471 471.626 446.429 471.494 443.386C471.362 440.278 471.097 437.302 470.7 434.392L441.137 438.36L440.542 433.995L475.264 429.299C475.528 431.349 475.727 433.4 475.859 435.516C476.058 437.566 476.19 439.617 476.322 441.535C476.454 443.453 476.587 445.304 476.587 447.024C476.653 448.81 476.719 450.331 476.785 451.786L486.64 450.463L487.235 454.762L436.507 461.64L435.912 457.341L471.759 452.513V452.447ZM483.2 479.696L447.949 484.458L445.568 466.733L450.595 466.072L452.38 479.431L482.605 475.331L483.2 479.696Z" fill="#231F20"/>
<path d="M482.671 475.397L452.447 479.497L450.661 466.138L445.634 466.799L448.015 484.524L483.267 479.762L482.671 475.397ZM435.912 457.341L436.507 461.64L487.235 454.762L486.64 450.463L476.785 451.786C476.785 450.397 476.719 448.81 476.587 447.024C476.587 445.304 476.388 443.453 476.322 441.535C476.19 439.617 476.058 437.566 475.859 435.516C475.661 433.466 475.462 431.349 475.264 429.299L440.542 433.995L441.137 438.36L470.7 434.392C471.097 437.302 471.362 440.344 471.494 443.386C471.626 446.495 471.759 449.537 471.759 452.447L435.912 457.275V457.341Z" stroke="#231F20" stroke-width="0.31" stroke-linecap="round" stroke-linejoin="round"/>
<path d="M503.109 422.818C503.572 424.537 503.903 426.191 504.102 427.844C504.3 429.498 504.432 431.019 504.366 432.606C506.681 435.185 509.26 437.302 512.038 438.955C514.816 440.609 517.99 441.799 521.628 442.593L519.445 446.826C516.337 446.098 513.493 445.04 510.848 443.519C508.202 442.064 505.887 440.278 503.771 438.162C503.109 441.402 502.051 444.378 500.398 447.156C498.744 449.934 496.76 452.447 494.313 454.762L490.146 452.381C494.379 448.347 497.157 444.048 498.546 439.484C499.935 434.921 499.803 429.762 498.017 424.14L503.043 422.884L503.109 422.818ZM537.699 457.804C538.096 459.259 538.03 460.648 537.633 462.103C537.236 463.492 536.443 464.881 535.186 466.138C533.93 467.394 532.342 468.585 530.292 469.577C528.242 470.635 525.795 471.495 523.017 472.222C520.173 472.95 517.594 473.281 515.345 473.347C513.096 473.347 511.112 473.082 509.392 472.553C507.739 472.024 506.35 471.23 505.358 470.172C504.3 469.114 503.639 467.857 503.242 466.468C502.911 465.013 502.911 463.558 503.242 462.169C503.639 460.781 504.498 459.392 505.689 458.135C506.879 456.878 508.533 455.688 510.517 454.63C512.501 453.572 514.948 452.712 517.792 451.984C520.636 451.257 523.215 450.926 525.464 450.86C527.779 450.86 529.763 451.058 531.416 451.654C533.07 452.183 534.459 453.042 535.451 454.101C536.509 455.159 537.17 456.415 537.567 457.871L537.699 457.804ZM532.607 459.061C532.408 458.267 531.945 457.54 531.284 456.945C530.623 456.349 529.697 455.886 528.572 455.556C527.448 455.225 526.059 455.093 524.406 455.159C522.752 455.159 520.9 455.49 518.85 456.019C516.8 456.548 515.08 457.143 513.625 457.871C512.17 458.598 511.046 459.392 510.186 460.185C509.326 461.045 508.731 461.839 508.467 462.699C508.202 463.558 508.136 464.352 508.334 465.146C508.533 465.873 508.93 466.601 509.591 467.196C510.252 467.791 511.178 468.254 512.303 468.519C513.427 468.783 514.816 468.915 516.403 468.849C517.99 468.849 519.842 468.519 521.893 467.99C524.009 467.46 525.728 466.865 527.184 466.138C528.639 465.41 529.829 464.683 530.689 463.889C531.549 463.095 532.144 462.236 532.408 461.442C532.673 460.582 532.739 459.789 532.541 458.995L532.607 459.061ZM515.014 434.855L513.89 430.49L524.406 427.844L521.628 416.733L526.522 415.476L534.393 446.693L529.498 447.95L525.53 432.209L515.014 434.855Z" fill="#231F20"/>
<path d="M532.407 461.508C532.142 462.368 531.547 463.162 530.687 463.955C529.827 464.749 528.637 465.476 527.182 466.204C525.727 466.931 523.941 467.527 521.891 468.056C519.841 468.585 517.989 468.849 516.401 468.915C514.814 468.915 513.425 468.915 512.301 468.585C511.177 468.32 510.251 467.857 509.589 467.262C508.928 466.667 508.465 466.005 508.333 465.212C508.134 464.418 508.2 463.558 508.465 462.765C508.796 461.905 509.325 461.111 510.184 460.251C511.044 459.458 512.169 458.664 513.624 457.937C515.013 457.209 516.798 456.614 518.848 456.085C520.965 455.556 522.817 455.291 524.404 455.225C526.057 455.225 527.446 455.291 528.571 455.622C529.695 455.953 530.621 456.415 531.282 457.011C531.944 457.606 532.341 458.333 532.605 459.127C532.804 459.921 532.737 460.714 532.473 461.574L532.407 461.508ZM535.581 454.035C534.523 452.976 533.2 452.183 531.547 451.587C529.893 451.058 527.909 450.794 525.595 450.794C523.28 450.794 520.766 451.191 517.923 451.918C515.079 452.646 512.632 453.505 510.647 454.564C508.663 455.622 507.01 456.746 505.819 458.069C504.629 459.326 503.769 460.714 503.372 462.103C502.975 463.492 502.975 464.947 503.372 466.402C503.769 467.857 504.43 469.114 505.489 470.106C506.547 471.164 507.87 471.958 509.523 472.487C511.177 473.016 513.161 473.281 515.475 473.281C517.724 473.281 520.304 472.884 523.147 472.156C525.991 471.429 528.438 470.569 530.423 469.511C532.473 468.452 534.06 467.328 535.317 466.005C536.507 464.749 537.367 463.426 537.764 461.971C538.161 460.582 538.227 459.127 537.83 457.672C537.499 456.217 536.772 454.96 535.714 453.902L535.581 454.035ZM525.528 432.209L529.497 447.95L534.391 446.693L526.52 415.476L521.626 416.733L524.404 427.844L513.888 430.49L515.013 434.855L525.528 432.209ZM498.081 424.074C499.801 429.696 499.999 434.789 498.61 439.418C497.221 444.048 494.378 448.347 490.211 452.315L494.378 454.696C496.825 452.381 498.875 449.868 500.462 447.09C502.116 444.312 503.174 441.336 503.835 438.095C505.886 440.212 508.266 441.998 510.912 443.453C513.557 444.908 516.401 446.032 519.51 446.759L521.692 442.527C518.055 441.733 514.88 440.542 512.102 438.889C509.325 437.236 506.745 435.119 504.43 432.54C504.43 431.019 504.364 429.431 504.166 427.778C503.968 426.124 503.637 424.471 503.174 422.751L498.147 424.008L498.081 424.074Z" stroke="#231F20" stroke-width="0.31" stroke-linecap="round" stroke-linejoin="round"/>
</svg>
