<svg width="20" height="20" viewBox="0 0 20 20" fill="none" xmlns="http://www.w3.org/2000/svg">
<path d="M4.11743 12.3549V15.2938H7.80295V12.2945C7.80295 11.1404 7.95906 10.0668 8.27128 9.07372C8.59707 8.08065 9.07897 7.10771 9.71698 6.15491L7.66042 4.70557C7.09028 5.18868 6.58802 5.73889 6.15363 6.3562C5.71924 6.97352 5.35273 7.61767 5.05408 8.28866C4.74187 8.97307 4.50431 9.66419 4.34141 10.362C4.19209 11.0598 4.11743 11.7241 4.11743 12.3549ZM10.7351 12.3549V15.2938H14.4206V12.2945C14.4206 11.1404 14.5767 10.0668 14.8889 9.07372C15.2147 8.08065 15.6966 7.10771 16.3346 6.15491L14.2781 4.70557C13.7079 5.18868 13.2057 5.73889 12.7713 6.3562C12.3369 6.97352 11.9704 7.61767 11.6717 8.28866C11.3595 8.97307 11.122 9.66419 10.9591 10.362C10.8097 11.0598 10.7351 11.7241 10.7351 12.3549Z" fill="white"/>
</svg>
