<svg width="74" height="74" viewBox="0 0 74 74" fill="none" xmlns="http://www.w3.org/2000/svg">
<path d="M6.75841 42.6445C6.78864 42.5365 6.88704 42.4619 6.99915 42.4619H65.5876C65.695 42.4619 65.7904 42.5305 65.8246 42.6323L66.5356 42.3934L65.8246 42.6323L72.64 62.9183C72.6944 63.0803 72.5739 63.2479 72.403 63.2479H1.3185C1.15295 63.2479 1.03312 63.0899 1.07776 62.9305L6.75841 42.6445Z" stroke="white" stroke-width="1.5"/>
<rect x="6" y="20" width="61" height="4" fill="#80ABFF"/>
<path d="M66.917 42.8914V11C66.917 10.4477 66.4693 10 65.917 10H7.80524C7.25295 10 6.80524 10.4477 6.80524 11V42.8914" stroke="white" stroke-width="1.5"/>
<circle cx="62" cy="38" r="12" fill="#80ABFF"/>
<path d="M59.2788 41.4737C60.4899 43.8083 66.0298 43.5437 65.4793 40.2976C65.3402 39.4567 64.7607 38.9098 64.0538 38.5511C62.7267 37.8808 61.7532 38.2689 60.4378 37.4162C59.8873 37.0634 59.47 36.5635 59.3483 35.8638C58.7978 32.6236 64.3435 32.359 65.5488 34.6877" stroke="white" stroke-width="1.5" stroke-linecap="round" stroke-linejoin="round"/>
<path d="M62.4181 33.1457V31.1992" stroke="white" stroke-width="1.5" stroke-linecap="round" stroke-linejoin="round"/>
<path d="M62.4156 44.9543V43.0078" stroke="white" stroke-width="1.5" stroke-linecap="round" stroke-linejoin="round"/>
</svg>
