<svg width="46" height="46" viewBox="0 0 46 46" fill="none" xmlns="http://www.w3.org/2000/svg">
<path d="M16.506 5.17888L15.5874 3" stroke="white" stroke-width="1.5" stroke-linecap="round" stroke-linejoin="round"/>
<path d="M40.8036 28.1765L38.5542 27.2461" stroke="white" stroke-width="1.5" stroke-linecap="round" stroke-linejoin="round"/>
<path d="M7.34135 14.3446L5.06836 13.4023" stroke="white" stroke-width="1.5" stroke-linecap="round" stroke-linejoin="round"/>
<path d="M40.7324 13.4023L38.5771 14.2857" stroke="white" stroke-width="1.5" stroke-linecap="round" stroke-linejoin="round"/>
<path d="M7.34365 27.2461L5 28.2236" stroke="white" stroke-width="1.5" stroke-linecap="round" stroke-linejoin="round"/>
<path d="M30.3103 3.07812L29.4153 5.20989" stroke="white" stroke-width="1.5" stroke-linecap="round" stroke-linejoin="round"/>
<path d="M27.3526 35.9854V35.9398C27.3526 33.7731 28.3333 31.7205 30.0439 30.3748C33.1912 27.9117 35.1526 23.9204 34.6281 19.587C33.8982 13.6343 28.6298 9.02729 22.6316 9.11852C16.2 9.25536 11 14.5238 11 21.0011C11 24.7187 12.8702 28.1625 15.6298 30.3748C17.3404 31.7433 18.3667 33.7959 18.3667 35.9854" stroke="white" stroke-width="1.5" stroke-linejoin="round"/>
<path d="M27.3633 36.0065V39.8142C27.3633 41.5784 25.346 43 22.8633 43C20.3714 43 18.3633 41.5719 18.3633 39.8142V36" stroke="white" stroke-width="1.5" stroke-linejoin="round"/>
</svg>
