<svg width="121" height="120" viewBox="0 0 121 120" fill="none" xmlns="http://www.w3.org/2000/svg">
<g clip-path="url(#clip0_3368_34202)">
<circle cx="60.333" cy="66" r="50" fill="#F4F4F4"/>
<mask id="mask0_3368_34202" style="mask-type:alpha" maskUnits="userSpaceOnUse" x="4" y="-4" width="107" height="120">
<path d="M110.333 66C110.333 93.6142 87.9472 116 60.333 116C35.7914 116 15.3794 98.3188 11.1408 75C10.6102 72.0805 4.33301 67.5726 4.33301 64.5C4.33301 60.7271 6.04102 56.1786 6.83301 52C11.8377 25.5949 36.4916 -4 60.333 -4C87.9472 -4 110.333 38.3858 110.333 66Z" fill="#F4F4F4"/>
</mask>
<g mask="url(#mask0_3368_34202)">
<path d="M85.6146 101.724L85.6146 101.71L85.6139 101.696L84.9578 89.4167L84.9574 89.4094L84.9568 89.402L84.4586 89.4434L84.9568 89.4019L84.9568 89.4015L84.9566 89.3999L84.9561 89.3929L84.9538 89.3648L84.9449 89.2537C84.9372 89.1559 84.926 89.0115 84.9122 88.8256C84.8846 88.4538 84.8466 87.9162 84.8048 87.2541C84.7212 85.9298 84.6227 84.1087 84.563 82.1214C84.443 78.1231 84.4837 73.5289 85.0899 70.9214C85.6989 68.3081 86.8342 65.8582 87.8245 64.0539C88.3185 63.1537 88.774 62.4187 89.1052 61.9097C89.2204 61.7327 89.3206 61.5831 89.402 61.4635C89.4392 61.4796 89.4769 61.4959 89.5147 61.5121C89.5314 61.5193 89.5481 61.5265 89.5648 61.5336C89.8029 61.6361 90.0885 61.76 90.4098 61.9186C91.0512 62.2353 91.8311 62.6892 92.6097 63.3667C94.1495 64.7064 95.7254 66.9554 96.1588 70.8541L96.1538 70.9158C96.1479 70.9889 96.1395 71.0979 96.1291 71.2424C96.1082 71.5313 96.0791 71.9625 96.046 72.5335C95.9799 73.6754 95.8981 75.3767 95.8348 77.6188C95.7083 82.1029 95.6558 88.7501 95.9514 97.4115C96.3287 108.517 96.2362 116.314 96.183 120.796C96.176 121.392 96.1696 121.93 96.1651 122.408H85.5633L85.6146 101.724Z" fill="#F4F4F4" stroke="#050505"/>
<path d="M65.1271 101.724L65.1271 101.71L65.1278 101.696L65.7839 89.4167L65.7843 89.4094L65.7849 89.402L66.2831 89.4434L65.7849 89.4019L65.7849 89.4015L65.7851 89.3999L65.7856 89.3929L65.7879 89.3648L65.7968 89.2537C65.8045 89.1559 65.8157 89.0115 65.8295 88.8256C65.8571 88.4538 65.8951 87.9162 65.9369 87.2541C66.0205 85.9298 66.119 84.1087 66.1787 82.1214C66.2987 78.1231 66.258 73.5289 65.6518 70.9214C65.0428 68.3081 63.9075 65.8582 62.9172 64.0539C62.4232 63.1537 61.9677 62.4187 61.6365 61.9097C61.5213 61.7327 61.4211 61.5831 61.3397 61.4635C61.3025 61.4796 61.2648 61.4959 61.227 61.5121C61.2103 61.5193 61.1936 61.5265 61.1769 61.5336C60.9388 61.6361 60.6532 61.76 60.3319 61.9186C59.6905 62.2353 58.9106 62.6892 58.132 63.3667C56.5922 64.7064 55.0163 66.9554 54.5829 70.8541L54.5879 70.9158C54.5938 70.9889 54.6022 71.0979 54.6126 71.2424C54.6335 71.5313 54.6626 71.9625 54.6957 72.5335C54.7618 73.6754 54.8436 75.3767 54.9069 77.6188C55.0334 82.1029 55.0859 88.7501 54.7903 97.4115C54.413 108.517 54.5055 116.314 54.5587 120.796C54.5657 121.392 54.5721 121.93 54.5766 122.408H65.1784L65.1271 101.724Z" fill="#F4F4F4" stroke="#050505"/>
<path d="M63.3392 98.931C54.1395 82.3026 52.0338 65.4577 51.8174 58.0684H77.1831C76.9667 65.4577 74.8709 82.3026 65.6613 98.931H63.3392Z" fill="#F4F4F4"/>
<path d="M71.3714 55.1555C70.4796 48.4913 70.7526 42 70.7526 42H58.9407C58.9407 42 59.2228 48.4275 58.3128 55.2465C54.0357 56.3755 51.333 58.5331 51.333 61.1278C51.333 64.8605 57.3391 67 64.7921 67C72.245 67 78.333 64.8605 78.333 61.1278C78.333 58.5696 75.5575 56.3026 71.3714 55.1555Z" fill="#F4F4F4" stroke="#050505" stroke-linecap="round" stroke-linejoin="round"/>
<path d="M54.333 60L60.3317 60.3538L61.333 61" stroke="#050505" stroke-linecap="round" stroke-linejoin="round"/>
<path d="M75.333 60L68.4681 60.3538L67.333 61" stroke="#050505" stroke-linecap="round" stroke-linejoin="round"/>
<path d="M39.7132 98.0063L39.8281 97.8718L39.8328 97.6949L40.8243 60.7676C40.9259 60.723 41.0527 60.6675 41.2019 60.6022C41.6268 60.4166 42.234 60.1526 42.9629 59.8391C44.4211 59.2121 46.3648 58.388 48.3097 57.5985C50.257 56.8081 52.1963 56.0561 53.6487 55.5709C54.3788 55.327 54.966 55.1573 55.3636 55.0809C55.4049 55.073 55.4425 55.0664 55.4767 55.0609C55.4957 55.7422 55.4549 56.3412 55.4118 56.976C55.3909 57.2832 55.3694 57.5988 55.3539 57.9361C55.3011 59.083 55.3272 60.384 55.7128 62.2374C56.4786 65.9188 58.6611 71.7694 64.4241 82.9758L64.8529 83.8097L65.3064 82.9889C71.0291 72.6292 73.1497 66.7663 73.8614 62.8544C74.2187 60.8902 74.2192 59.4272 74.149 58.1505C74.1293 57.7931 74.1049 57.4571 74.0813 57.1328C74.0293 56.4159 73.9814 55.7566 73.9984 55.052C74.0309 55.0583 74.0664 55.0656 74.105 55.0742C74.5087 55.1641 75.1039 55.3538 75.8429 55.6222C77.3131 56.1561 79.2759 56.9733 81.2462 57.8291C83.2143 58.6838 85.1813 59.5732 86.6567 60.2492C87.3943 60.5872 88.0088 60.8716 88.4387 61.0715C88.5866 61.1403 88.7127 61.1991 88.8144 61.2465L87.4751 97.6631L87.4741 97.6891L87.4759 97.7149L88.822 117.801L87.5853 122.696L42.2792 122.747L41.0479 116.452L38.3631 99.5868L39.7132 98.0063ZM55.7387 55.04C55.7386 55.04 55.737 55.0398 55.734 55.0393C55.7373 55.0396 55.7387 55.0399 55.7387 55.04ZM73.7263 55.02C73.7231 55.0205 73.7214 55.0207 73.7213 55.0206C73.7212 55.0205 73.7228 55.0203 73.7263 55.02Z" fill="#F4F4F4" stroke="#050505"/>
<path d="M64.8687 82.7617C64.8687 82.7617 64.4489 104.706 64.8687 122.216" stroke="#050505" stroke-linecap="round" stroke-linejoin="round"/>
<path d="M55.3693 75.9082H45.3843V77.8698L50.1603 79.3476L55.3693 78.0006V77.0721" stroke="#050505" stroke-linecap="round" stroke-linejoin="round"/>
<path d="M55.3694 78.2745L55.0414 85.8464C55.0151 86.3433 54.5953 86.7356 54.0835 86.7356H47.0245C46.5259 86.7356 46.1191 86.3564 46.0798 85.8594L45.3975 77.8691" stroke="#050505" stroke-linecap="round" stroke-linejoin="round"/>
<path d="M84.2746 75.9082H74.2896V77.8698L79.2755 79.3476L84.2746 78.0006V77.0721" stroke="#050505" stroke-linecap="round" stroke-linejoin="round"/>
<path d="M84.2747 78.2745L83.9467 85.8464C83.9204 86.3433 83.5005 86.7356 82.9888 86.7356H75.9297C75.4311 86.7356 75.0244 86.3564 74.985 85.8594L74.3027 77.8691" stroke="#050505" stroke-linecap="round" stroke-linejoin="round"/>
<path d="M58.2544 54.4617C58.2544 54.4617 55.7878 53.6761 53.8328 56.5008C53.8328 56.5008 48.0333 63.8111 48.322 70.7421C48.322 70.7421 60.4203 73.6217 61.903 77.7934C61.903 77.7934 52.4024 61.7196 58.2544 54.4747V54.4617Z" fill="#F4F4F4" stroke="#050505" stroke-linecap="round" stroke-linejoin="round"/>
<path d="M71.333 54.5004C71.333 54.5004 73.6029 53.5981 75.558 56.4228C75.558 56.4228 81.0992 61.8372 80.8106 68.7682C80.8106 68.7682 69.3924 73.6217 67.9229 77.7934C67.9229 77.7934 77.1981 61.7584 71.333 54.5135V54.5004Z" fill="#F4F4F4" stroke="#050505" stroke-linecap="round" stroke-linejoin="round"/>
<path d="M41.1391 60.5938C36.2588 61.1743 33.9073 65.1494 33.3169 73.0306C33.2283 74.172 32.3625 83.2635 32.1755 84.5033C29.9912 99.6755 26.2031 104.595 33.8581 106.75C35.088 107.094 39.6633 107.33 41.2375 101.476C42.1132 98.2193 43.1169 85.6545 43.0185 75.4019C42.9397 67.2254 41.1293 60.5938 41.1293 60.5938H41.1391Z" fill="#F4F4F4" stroke="#050505" stroke-linecap="round" stroke-linejoin="round"/>
<path d="M28.0824 70.7378C32.3921 69.9014 34.8716 70.9542 35.0979 72.4105C35.4521 74.644 32.3921 79.8785 28.0234 80.3016C23.6548 80.7148 22.0018 78.3928 21.6967 76.2281C21.5688 75.3623 24.6288 71.4069 28.0824 70.7378Z" fill="#F4F4F4" stroke="#050505" stroke-linecap="round" stroke-linejoin="round"/>
<path d="M32.6773 69.7833C32.5986 68.6616 32.5592 66.064 29.4205 63.496C29.4205 63.496 24.8452 62.1972 22.2575 58.6944C22.2575 58.6944 18.4398 56.3625 19.2269 59.8849C19.2269 59.8849 22.3755 62.9154 23.1233 63.4861L22.6707 63.6239L16.9639 61.9315C16.9639 61.9315 10.9324 58.3303 8.94487 59.0879C8.94487 59.0879 8.34467 59.2159 8.64968 59.8751C8.64968 59.8751 6.95733 60.1703 7.40994 61.5183L8.6792 61.9118C8.6792 61.9118 11.4637 63.5452 12.3394 64.6275L14.2975 67.9335C14.2975 67.9335 18.0462 70.1375 20.0633 70.7967C20.0633 70.7967 22.0902 72.3218 24.2844 73.0499L26.6851 75.3425L27.7084 79.6718C27.7084 79.6718 29.4106 79.7702 31.3883 78.4419C33.5038 77.025 34.163 74.821 34.163 74.821L32.6576 69.7833H32.6773Z" fill="#F4F4F4" stroke="#050505" stroke-linecap="round" stroke-linejoin="round"/>
<path d="M16.521 68.2273L15.478 66.2103C15.478 66.2103 16.3636 62.8551 16.0782 62.0089C16.0782 62.0089 17.377 61.6645 17.7312 62.9928C17.7312 62.9928 18.1838 64.7541 17.6328 65.6593C17.6328 65.6593 18.7152 66.9384 18.666 67.4107L19.6696 67.6862" stroke="#050505" stroke-linecap="round" stroke-linejoin="round"/>
<path d="M14.0417 62.2272C13.7662 61.5975 12.8905 59.2754 12.8905 59.2754C11.9557 57.8684 11.021 59.1081 11.021 59.1081C11.6606 59.8756 12.2214 63.8802 12.2214 63.8802L15.5766 65.0117C15.5766 65.0117 14.2778 62.7585 14.0318 62.2173L14.0417 62.2272Z" fill="#F4F4F4"/>
<path d="M12.2115 64.3029C12.2115 64.3029 11.6015 59.9834 10.9619 59.216C10.9619 59.216 11.8868 57.9664 12.8314 59.3832C12.8314 59.3832 13.7563 62.0792 14.2089 62.581C14.9173 63.378 15.5274 65.1196 15.5274 65.1196" stroke="#050505" stroke-linecap="round" stroke-linejoin="round"/>
<path d="M29.0858 68.2966C29.0858 68.2966 25.2288 66.8699 24.3433 65.207" stroke="#050505" stroke-linecap="round" stroke-linejoin="round"/>
<path d="M8.78711 59.8945C8.78711 59.8945 10.6763 60.1012 11.6504 61.5672" stroke="#050505" stroke-linecap="round" stroke-linejoin="round"/>
<path d="M40.1849 98.5639C40.1357 90.0824 38.7385 83.0178 35.1078 72.293C35.1078 72.293 32.1855 79.2198 28.1121 79.21C24.2157 79.21 21.5591 76.4255 21.5591 76.4255C21.5591 76.4255 22.5922 81.3648 23.7926 87.1995C24.934 92.7292 26.2327 99.2527 28.0038 102.352C28.0038 102.352 29.6765 108.315 36.0721 106.416C38.6598 105.648 40.1947 102.037 40.1751 98.5639H40.1849Z" fill="#F4F4F4"/>
<path d="M40.5192 96.3508C39.5648 89.965 38.1873 85.3012 35.1371 72.2051C35.1371 72.2051 32.2739 78.4038 27.856 79.1812C25.4651 79.6042 22.3657 78.0103 21.7852 76.2294C21.7852 76.2294 22.7691 82.0149 23.999 87.9283C25.2388 93.9008 26.6458 100.109 28.2889 102.894C28.2889 102.894 30.0502 107.479 36.2391 106.889" stroke="#050505" stroke-linecap="round" stroke-linejoin="round"/>
<path d="M39.7124 74.9395C39.7124 74.9395 41.326 79.4459 42.428 88.7735" stroke="#050505" stroke-linecap="round" stroke-linejoin="round"/>
<path d="M77.911 47.6315C77.3084 49.5605 75.225 54.6932 72.5733 55.1755C73.1071 53.7287 73.8992 53.3842 73.176 52.1613C67.5972 42.895 74.3468 34.7826 75.3455 35.661C75.862 36.1088 79.9772 41.0865 77.911 47.6315Z" fill="#70747D"/>
<path d="M75.6893 32.772C74.9489 35.0283 73.382 38.9209 75.4482 39.6098C77.5144 40.2988 79.7528 39.4376 81.7501 35.08C82.7316 32.927 81.8879 30.0679 79.8217 29.3789C77.7555 28.69 76.4297 30.5329 75.6893 32.772Z" fill="#F4F4F4" stroke="#050505" stroke-linecap="round" stroke-linejoin="round"/>
<path d="M54.4763 33.0135C55.2339 35.2526 56.8008 39.1624 54.7346 39.8513C52.6684 40.5403 50.43 39.6791 48.4155 35.3387C47.4168 33.1858 48.2605 30.3266 50.3439 29.6377C52.4273 28.9487 53.7359 30.7744 54.4763 33.0307V33.0135Z" fill="#F4F4F4" stroke="#050505" stroke-linecap="round" stroke-linejoin="round"/>
<path d="M78.9263 23.9516C78.4614 13.669 72.5211 8.89803 65.3582 8.76024C58.1093 8.63968 51.7729 12.9973 51.3597 23.6588C51.0325 32.2362 53.3226 42.536 58.5398 47.238C63.3265 51.544 69.0257 49.1843 70.5926 48.0648C76.4813 43.8966 79.3395 33.2696 78.9263 23.9516Z" fill="#F4F4F4"/>
<path d="M51.8589 32.2715C51.8589 32.2715 53.3224 48.3757 64.5833 49.7363" stroke="#050505" stroke-linecap="round" stroke-linejoin="round"/>
<path d="M78.1167 31.2539C78.1167 31.2539 78.1339 47.6164 66.3394 49.7177" stroke="#050505" stroke-linecap="round" stroke-linejoin="round"/>
<path d="M71.1494 33.3519C71.1494 33.8382 70.8025 34.1471 70.4749 34.1471C70.1472 34.1471 69.8003 33.8382 69.8003 33.3519C69.8003 32.8655 70.1472 32.5566 70.4749 32.5566C70.8025 32.5566 71.1494 32.8655 71.1494 33.3519Z" fill="#050505" stroke="#050505"/>
<path d="M59.7251 33.3519C59.7251 33.8382 59.3782 34.1471 59.0505 34.1471C58.7229 34.1471 58.376 33.8382 58.376 33.3519C58.376 32.8655 58.7229 32.5566 59.0505 32.5566C59.3782 32.5566 59.7251 32.8655 59.7251 33.3519Z" fill="#050505" stroke="#050505"/>
<path d="M60.9806 28.6797C60.9806 28.6797 58.953 31.5235 56.0586 29.8763" stroke="#050505" stroke-linecap="round" stroke-linejoin="round"/>
<path d="M68.3633 28.6797C68.3633 28.6797 70.3908 31.5235 73.2852 29.8763" stroke="#050505" stroke-linecap="round" stroke-linejoin="round"/>
<path d="M64.7695 39.2656V39.9695" stroke="#050505" stroke-linecap="round" stroke-linejoin="round"/>
<path d="M62.5244 45.0458C62.5244 45.0458 64.2817 43.642 66.8523 45.0458" stroke="#050505" stroke-linecap="round" stroke-linejoin="round"/>
<path d="M58.0759 10.0822C47.3317 15.9038 51.6879 30.5612 51.6879 30.5612C55.0627 26.4964 56.2164 24.6362 59.66 16.6616C60.9342 21.7771 67.5805 26.9959 78.6519 29.8206C78.6519 29.8206 82.5088 16.2999 72.0745 10.0822C67.8043 7.53307 62.4494 7.70531 58.0759 10.0822Z" fill="#70747D"/>
<path d="M79.1673 25.9277H78.0997C79.0812 45.5628 68.3197 49.197 65.3582 49.7653C62.3966 49.2659 51.0841 45.9589 51.549 26.3239H50.4126C50.4126 26.3239 50.4643 50.4543 65.3065 50.2476L65.4098 50.2132H65.5131C80.4931 50.0409 79.1673 25.9277 79.1673 25.9277Z" fill="#F4F4F4" stroke="#050505" stroke-linecap="round" stroke-linejoin="round"/>
<path d="M81.6815 22.691C81.5609 13.1663 77.3424 8.10249 71.0577 5.58783C69.6458 3.41764 67.0459 3.31429 64.5492 3.33151C61.9492 3.36596 59.332 3.5382 57.989 5.9323C52.1175 8.80866 47.9163 12.374 48.054 23.1043C46.3149 23.4316 45.3335 25.0851 45.3335 25.464C45.3335 26.5835 54.0804 26.3941 64.8419 26.2563C75.6034 26.1185 84.3503 26.0668 84.3331 24.9473C84.3331 24.5511 83.5755 22.9666 81.6815 22.6738V22.691Z" fill="#80ABFF"/>
<path d="M58.1091 5.91797C58.1091 5.91797 56.0084 14.5471 57.076 22.1083" stroke="#F4F4F4" stroke-linecap="round" stroke-linejoin="round"/>
<path d="M71.0742 5.76172C71.0742 5.76172 73.3987 14.3391 72.5378 21.9176" stroke="#F4F4F4" stroke-linecap="round" stroke-linejoin="round"/>
</g>
<path d="M99.672 15.0497C94.9532 16.422 91.353 18.7786 91.353 18.7786C91.353 18.7786 91.9922 12.835 94.7652 10.2513C97.5382 7.66751 99.954 7.27001 101.533 8.99251C103.112 10.715 103.3 13.9897 99.672 15.0497Z" fill="#80ABFF"/>
<path d="M100.537 23.5397C98.1681 22.915 96.0249 22.9908 96.0249 22.9908C96.0249 22.9908 97.8673 20.3975 99.7097 20C101.552 19.612 102.633 20.2745 102.877 21.4197C103.122 22.5649 102.361 24.0129 100.537 23.5302V23.5397Z" fill="#80ABFF"/>
</g>
<defs>
<clipPath id="clip0_3368_34202">
<rect x="0.333008" width="120" height="120" fill="white"/>
</clipPath>
</defs>
</svg>
