<svg width="75" height="74" viewBox="0 0 75 74" fill="none" xmlns="http://www.w3.org/2000/svg">
<path d="M47.8976 71H70.9976V57.9691C70.9859 54.7964 69.8952 51.7195 67.9006 49.2318C65.906 46.744 63.1229 44.9896 59.9976 44.2497V42.0063C60.2176 41.9042 60.4211 41.7891 60.6268 41.6685H60.6367C63.2558 42.7425 68.6216 41.7087 70.8887 39.6053C70.9009 39.5934 70.9102 39.5789 70.9157 39.5629C70.9212 39.5469 70.9229 39.5298 70.9205 39.513C70.9182 39.4962 70.9119 39.4802 70.9021 39.4663C70.8924 39.4523 70.8795 39.4408 70.8645 39.4327C69.2994 38.5693 67.9844 37.3245 67.0449 35.8171C66.1054 34.3097 65.5727 32.5898 65.4976 30.8214C65.4976 26.5625 63.3823 21.26 57.0782 21.0548C55.7493 21.0328 54.4291 21.2696 53.1931 21.7516C51.957 22.2337 50.8293 22.9516 49.8745 23.8642C48.9197 24.7768 48.1565 25.8663 47.6285 27.0703C47.1006 28.2743 46.8182 29.5693 46.7976 30.8811C46.7822 36.0881 44.7329 38.2794 42.6176 39.3968C42.6009 39.4078 42.5876 39.423 42.579 39.4409C42.5705 39.4588 42.567 39.4786 42.5691 39.4983C42.5711 39.5179 42.5785 39.5367 42.5906 39.5525C42.6026 39.5683 42.6188 39.5806 42.6374 39.5879C45.7174 40.6434 47.8206 42.1941 53.3998 42.2256V44.2541C49.7759 45.1117 46.6308 47.3246 44.6273 50.4264M29.7894 47.3164C27.8618 45.2587 25.3587 43.8124 22.5976 43.1606V41.7359C24.5958 40.7014 26.1665 39.0119 27.0394 36.9579C27.3545 36.3683 27.6376 35.7626 27.8875 35.1433C27.9579 35.1498 28.0261 35.164 28.0987 35.164C28.5855 35.1649 29.0589 35.0059 29.4442 34.712C29.8294 34.4181 30.1047 34.006 30.2265 33.5407C30.3484 33.0753 30.31 32.5832 30.1173 32.1418C29.9247 31.7004 29.5887 31.3348 29.1624 31.1027C30.071 27.1749 30.1821 22.7043 28.0987 19.9612C26.2287 17.5038 18.8026 17.1933 15.9987 19.9612C14.8987 21.0472 9.39866 18.8753 9.39866 25.3908C9.39955 27.2507 9.52301 29.1087 9.76826 30.9528C9.2843 31.1269 8.87756 31.4631 8.61893 31.9029C8.3603 32.3426 8.26617 32.858 8.35296 33.3593C8.43974 33.8605 8.70192 34.3158 9.09383 34.6457C9.48573 34.9757 9.98249 35.1595 10.4976 35.165C10.5658 35.165 10.6307 35.1509 10.6978 35.1455C10.8673 35.6586 11.1043 36.1474 11.4029 36.5995L11.4194 36.618C12.2674 38.8127 13.8944 40.6285 15.9976 41.7272V43.1628C12.8721 43.9026 10.0888 45.6572 8.09418 48.1452C6.09952 50.6331 5.00902 53.7103 4.99756 56.8832V71H25.8976" stroke="white" stroke-width="1.5" stroke-miterlimit="10" stroke-linecap="round" stroke-linejoin="round"/>
<path d="M43.4976 0.000351156C42.3273 -0.00892687 41.1805 0.336291 40.2017 0.992497C39.2229 1.6487 38.456 2.58653 37.9976 3.68779C37.5391 2.58653 36.7722 1.6487 35.7934 0.992497C34.8146 0.336291 33.6679 -0.00892687 32.4976 0.000351156C31.7782 -0.00791574 31.0644 0.129857 30.3974 0.40569C29.7305 0.681524 29.1237 1.08994 28.6121 1.60728C28.1006 2.12462 27.6945 2.74061 27.4173 3.41958C27.1402 4.09855 26.9975 4.827 26.9976 5.56275C26.9976 10.7502 31.0309 15.5626 37.9976 20C44.9642 15.5626 48.9976 10.7502 48.9976 5.56275C48.9976 4.827 48.8549 4.09855 48.5778 3.41958C48.3006 2.74061 47.8945 2.12462 47.383 1.60728C46.8715 1.08994 46.2646 0.681524 45.5977 0.40569C44.9308 0.129857 44.2169 -0.00791574 43.4976 0.000351156Z" fill="#80ABFF"/>
<path d="M41.7078 58.3892C42.858 57.4244 43.7261 56.178 44.2235 54.7772C44.6838 54.648 45.0876 54.3736 45.3723 53.9966C45.6569 53.6195 45.8064 53.1611 45.7976 52.6923C45.8008 52.3182 45.7052 51.9497 45.52 51.6225C45.3347 51.2952 45.0662 51.0205 44.7405 50.8249C44.5161 46.4375 42.3722 43 36.9976 43C31.623 43 29.4791 46.4375 29.2547 50.8249C28.9289 51.0205 28.6604 51.2952 28.4752 51.6225C28.2899 51.9497 28.1943 52.3182 28.1976 52.6923C28.1887 53.1611 28.3382 53.6195 28.6228 53.9966C28.9075 54.3736 29.3113 54.648 29.7717 54.7772C30.269 56.178 31.1371 57.4244 32.2874 58.3892C30.4105 59.263 28.8242 60.6384 27.7113 62.3567C26.5984 64.075 26.0044 66.0663 25.9976 68.1009V71H47.9976V68.1009C47.9908 66.0663 47.3967 64.075 46.2838 62.3567C45.1709 60.6384 43.5846 59.263 41.7078 58.3892Z" stroke="white" stroke-width="2" stroke-miterlimit="10" stroke-linecap="round" stroke-linejoin="round"/>
</svg>
