<svg width="90" height="90" viewBox="0 0 90 90" fill="none" xmlns="http://www.w3.org/2000/svg">
<path d="M54.1512 31.8901C53.05 31.383 49.5821 29.6878 48.3594 29.456V28.2172L48.8671 26.0076C47.7445 25.7903 46.579 25.6816 45.3849 25.6816C44.1908 25.6816 43.0253 25.7903 41.9027 26.0076L42.4104 28.2172V29.456C40.301 29.8689 38.3347 30.702 36.6187 31.8828L35.7606 31.0063L34.5808 29.0865C32.6645 30.4195 30.9985 32.1147 29.6614 34.0562L31.5705 35.2442L32.4214 36.1281C31.2559 37.874 30.4408 39.8589 30.0404 42.0033H28.8034L26.6297 41.4889C26.4152 42.6263 26.3008 43.7999 26.3008 45.0097C26.3008 46.2195 26.4152 47.3858 26.6297 48.516L28.8034 47.9944H30.0404C30.4408 50.146 31.2631 52.1382 32.4214 53.8696L31.5705 54.7461L29.6614 55.9415C30.9985 57.8974 32.6645 59.5854 34.5808 60.9111L35.7606 58.9913L36.6187 58.1075C38.3347 59.2956 40.301 60.136 42.4104 60.5417V61.7804L41.9027 63.99C43.0253 64.2073 44.1908 64.316 45.3849 64.316C46.579 64.316 47.7445 64.2073 48.8671 63.99L48.3594 61.7804V60.5417C50.4688 60.1287 52.4351 59.2956 54.1512 58.1148L55.0092 58.9913L56.189 60.9111C58.1053 59.5781 59.7713 57.883 61.1084 55.9415L59.1993 54.7534L58.3484 53.8696C59.5139 52.1237 60.329 50.1387 60.7294 47.9944H61.9664L64.1401 48.5087C64.3546 47.3713 64.469 46.1978 64.469 44.9879C64.469 43.7781 64.3546 42.6118 64.1401 41.4817L61.9664 42.0033H60.7294C60.329 39.8517 59.5067 37.8595 58.3484 36.1281L59.1993 35.2515L61.1084 34.0562C59.7713 32.1002 58.1053 30.4122 56.189 29.0865L55.0092 31.0063L54.1512 31.8901ZM45.3849 56.9774C38.8567 56.9774 33.5655 51.6166 33.5655 45.0024C33.5655 38.3883 38.8567 33.0347 45.3849 33.0347C51.9131 33.0347 57.2043 38.3955 57.2043 45.0097C57.2043 51.6238 51.9131 56.9774 45.3849 56.9774Z" stroke="#050505" stroke-width="1.5" stroke-linecap="round" stroke-linejoin="round"/>
<path d="M33.903 69.5887C24.8292 65.2276 18.5513 55.8606 18.5513 45.0013C18.5513 29.9836 30.5709 17.7986 45.4006 17.7986V21.6598L53.2373 15.2196L45.3935 8.7793V12.6406C27.7466 12.6406 13.4531 27.1366 13.4531 45.0013C13.4531 58.7728 21.9334 70.5305 33.903 75.1886V70.0241" stroke="#050505" stroke-width="1.5" stroke-linecap="round" stroke-linejoin="round"/>
<path d="M56.8842 20.4095C65.9579 24.7706 72.2359 34.1376 72.2359 44.997C72.2359 60.0146 60.2162 72.1996 45.3865 72.1996V68.3384L37.5498 74.7786L45.3865 81.2189V77.3576C63.0334 77.3576 77.3269 62.8616 77.3269 44.997C77.3269 31.2254 68.8466 19.4677 56.877 14.8096V17.758" fill="#80ABFF"/>
<path d="M45.3928 48.0203C47.0395 48.0203 48.3745 46.6678 48.3745 44.9994C48.3745 43.331 47.0395 41.9785 45.3928 41.9785C43.7461 41.9785 42.4111 43.331 42.4111 44.9994C42.4111 46.6678 43.7461 48.0203 45.3928 48.0203Z" stroke="#050505" stroke-width="1.5" stroke-linecap="round" stroke-linejoin="round"/>
</svg>
