<svg width="74" height="74" viewBox="0 0 74 74" fill="none" xmlns="http://www.w3.org/2000/svg">
<path d="M6 44.7724V59.4649C6 60.9049 7.24186 62.0677 8.76968 62.0677H66.2303C67.7581 62.0677 69 60.9049 69 59.4649V21.2013C69 19.7613 67.7581 18.5908 66.2303 18.5908H60.2743" stroke="white" stroke-width="1.5" stroke-linecap="round" stroke-linejoin="round"/>
<path d="M6 45.2488V21.2013C6 19.7613 7.24186 18.5908 8.76968 18.5908H14.7257" stroke="white" stroke-width="1.5" stroke-linecap="round" stroke-linejoin="round"/>
<path d="M55.9926 70.0558H67.2741C73.6868 70.0558 73.0425 62.0781 73.0425 62.0781H49.5595M24.553 62.0781H1.07004C1.07004 62.0781 0.425737 70.0558 6.83845 70.0558H57.1396" stroke="white" stroke-width="1.5" stroke-linecap="round" stroke-linejoin="round"/>
<path d="M15 43.2554V7.25715C15 6.57148 15.5559 6.01562 16.2415 6.01562H57.7585C58.4441 6.01562 59 6.57148 59 7.25715V38.1358C59 38.8215 58.4441 39.3773 57.7585 39.3773H57.3978H42.3392H24.3638C24.1098 39.3773 23.8619 39.4552 23.6536 39.6004L16.9517 44.2738C16.1286 44.8477 15 44.2588 15 43.2554Z" stroke="white" stroke-width="1.5" stroke-linecap="round" stroke-linejoin="round"/>
<path d="M42.3564 22.4005C42.6447 22.5696 42.6447 22.9864 42.3564 23.1555L33.909 28.11C33.6173 28.2811 33.25 28.0707 33.25 27.7325L33.25 17.8235C33.25 17.4853 33.6173 17.2749 33.909 17.446L42.3564 22.4005Z" fill="#80ABFF"/>
</svg>
