<svg width="74" height="74" viewBox="0 0 74 74" fill="none" xmlns="http://www.w3.org/2000/svg">
<path d="M63.1645 16.607C51.9037 2.1593 31.0632 -0.424085 16.6071 10.8358C2.15952 22.0967 -0.42384 42.9375 10.8359 57.3937C22.0968 71.8415 42.9373 74.4248 57.3934 63.165C71.841 51.904 74.4243 31.0632 63.1645 16.607ZM23.7447 47.3322C18.0366 40.0086 19.345 29.4529 26.6686 23.7447C33.9921 18.0365 44.5476 19.345 50.2557 26.6686C55.9639 33.9922 54.6555 44.5478 47.3319 50.256C40.0084 55.9642 29.4529 54.6558 23.7447 47.3322Z" stroke="white" stroke-width="1.5" stroke-linecap="round" stroke-linejoin="round"/>
<path d="M63.79 49.7299C66.9909 43.013 67.5734 35.2678 65.3384 28.1001M10.3705 23.8606C8.7968 27.0723 7.82753 30.5304 7.48575 34.0492" stroke="white" stroke-width="1.5" stroke-linecap="round" stroke-linejoin="round"/>
<path d="M65.1588 15.4459L64.7871 14.969C63.4196 13.2144 60.8885 12.9006 59.1339 14.2682L48.7702 22.3461C47.0156 23.7137 46.7019 26.2447 48.0694 27.9993L48.4411 28.4762C49.8087 30.2308 52.3397 30.5445 54.0943 29.177L64.4581 21.0991C66.2126 19.7315 66.5264 17.2005 65.1588 15.4459Z" fill="#80ABFF"/>
<path d="M25.5625 45.4934L25.9342 45.9703C27.3006 47.7233 26.9865 50.2571 25.2334 51.6235L14.8764 59.6962C13.1234 61.0625 10.5896 60.7484 9.22322 58.9954L8.85153 58.5185C7.48517 56.7654 7.79925 54.2316 9.55229 52.8653L19.9093 44.7926C21.6624 43.4263 24.1961 43.7403 25.5625 45.4934Z" fill="#80ABFF"/>
<path d="M58.5594 65.136L59.0363 64.7643C60.7909 63.3967 61.1046 60.8657 59.7371 59.1111L51.6593 48.7472C50.2917 46.9926 47.7607 46.6789 46.0061 48.0465L45.5292 48.4182C43.7746 49.7858 43.4609 52.3168 44.8285 54.0714L52.9062 64.4353C54.2738 66.1899 56.8048 66.5036 58.5594 65.136Z" fill="#80ABFF"/>
<path d="M27.9918 25.9007L28.4687 25.529C30.2233 24.1614 30.537 21.6303 29.1694 19.8757L21.0917 9.51188C19.7241 7.75727 17.1931 7.44353 15.4385 8.81112L14.9616 9.18281C13.207 10.5504 12.8933 13.0814 14.2608 14.836L22.3386 25.1999C23.7062 26.9545 26.2372 27.2683 27.9918 25.9007Z" fill="#80ABFF"/>
</svg>
