<svg width="74" height="74" viewBox="0 0 74 74" fill="none" xmlns="http://www.w3.org/2000/svg">
<g id="icon">
<path id="Vector" d="M40.2495 30.7569C40.2532 30.7569 40.256 30.7535 40.2553 30.7498C39.9995 29.4447 39.5289 28.2178 38.8877 27.1014C38.6504 26.6882 38.6986 26.1624 39.0355 25.8254L39.5789 25.2817C39.9692 24.8913 39.9692 24.2584 39.5789 23.8679L37.6742 21.9622C37.2831 21.5709 36.6486 21.5715 36.2582 21.9636L35.7161 22.5081C35.3792 22.8466 34.852 22.8955 34.4379 22.6576C33.5522 22.1486 32.597 21.7472 31.5884 21.4754C31.1266 21.351 30.7865 20.9441 30.7865 20.4658V19.6953C30.7865 19.143 30.3387 18.6953 29.7865 18.6953H27.091C26.5387 18.6953 26.091 19.143 26.091 19.6953V20.4658C26.091 20.9441 25.7509 21.351 25.2891 21.4754C24.2799 21.7474 23.3242 22.1491 22.4381 22.6584C22.0247 22.896 21.4985 22.8477 21.1614 22.5104L20.612 21.9608C20.2215 21.5701 19.588 21.5701 19.1975 21.9608L17.2914 23.8679C16.9011 24.2584 16.9011 24.8913 17.2914 25.2817L17.8348 25.8254C18.1716 26.1624 18.2199 26.6882 17.9826 27.1014C17.4733 27.9882 17.0716 28.9447 16.7997 29.9548C16.6753 30.4167 16.2684 30.7569 15.79 30.7569H15.021C14.4687 30.7569 14.021 31.2046 14.021 31.7569V34.4548C14.021 35.007 14.4687 35.4548 15.021 35.4548H15.79C16.2684 35.4548 16.6753 35.7949 16.7997 36.2569C17.0716 37.2669 17.4733 38.2235 17.9826 39.1103C18.2199 39.5235 18.1716 40.0493 17.8348 40.3863L17.2914 40.9299C16.9011 41.3204 16.9011 41.9533 17.2914 42.3438L19.1961 44.2495C19.5872 44.6408 20.2217 44.6401 20.612 44.2481L21.1541 43.7036C21.4911 43.3651 22.0182 43.3162 22.4324 43.5541C23.318 44.063 24.2732 44.4644 25.2819 44.7362C25.7437 44.8607 26.0838 45.2676 26.0838 45.7459V46.5164C26.0838 47.0686 26.5315 47.5164 27.0838 47.5164H29.7793C30.3315 47.5164 30.7793 47.0687 30.7793 46.5164V45.7459C30.7793 45.2676 31.1194 44.8607 31.5812 44.7362C32.5898 44.4644 33.545 44.063 34.4307 43.5541C34.8448 43.3162 35.372 43.3651 35.7089 43.7036L36.251 44.2481C36.6413 44.6401 37.2759 44.6408 37.667 44.2495L39.5717 42.3438C39.962 41.9533 39.962 41.3204 39.5717 40.9299L39.0283 40.3863C38.6914 40.0493 38.6432 39.5235 38.8805 39.1103C39.3898 38.2235 39.7915 37.2669 40.0634 36.2569C40.1877 35.7949 40.5946 35.4548 41.073 35.4548H41.842C42.3943 35.4548 42.842 35.007 42.842 34.4548V31.7569C42.842 31.2046 42.3943 30.7569 41.842 30.7569H40.2495ZM34.805 29.6401C35.3667 30.6705 35.6836 31.8521 35.6836 33.1058C35.6836 37.112 32.4356 40.3543 28.4387 40.3543C24.4418 40.3543 21.1939 37.1048 21.1939 33.1058C21.1939 29.1069 24.4418 25.8573 28.4387 25.8573C30.1095 25.8573 31.6507 26.4266 32.8821 27.3777" fill="#80ABFF"/>
<path id="Vector_2" d="M59.9253 14.5075C59.9276 14.5075 59.9293 14.5054 59.9289 14.5031C59.7841 13.7645 59.5287 13.0662 59.1833 12.4233C58.9839 12.0521 59.0249 11.5878 59.3228 11.2897C59.668 10.9444 59.668 10.3847 59.3228 10.0394L58.51 9.22617C58.1644 8.88048 57.6039 8.88103 57.2591 9.2274C56.9614 9.5264 56.4963 9.568 56.1246 9.36825C55.69 9.13462 55.23 8.94217 54.7493 8.7973C54.3444 8.67525 54.0429 8.31702 54.0429 7.89406C54.0429 7.40568 53.647 7.00977 53.1586 7.00977H52.0084C51.52 7.00977 51.1241 7.40568 51.1241 7.89406C51.1241 8.31702 50.8226 8.67525 50.4176 8.7973C49.9374 8.94203 49.4778 9.13426 49.0436 9.36758C48.671 9.56774 48.2049 9.52654 47.9059 9.22741C47.5595 8.88084 46.9977 8.88084 46.6513 9.22741L45.8396 10.0394C45.4945 10.3847 45.4945 10.9444 45.8396 11.2897C46.1375 11.5878 46.1786 12.0521 45.9792 12.4233C45.7452 12.8588 45.5525 13.3197 45.4076 13.8013C45.2857 14.2061 44.9276 14.5075 44.5049 14.5075C44.0168 14.5075 43.6211 14.9032 43.6211 15.3913V16.544C43.6211 17.0321 44.0168 17.4278 44.5049 17.4278C44.9276 17.4278 45.2857 17.7292 45.4076 18.134C45.5525 18.6156 45.7452 19.0765 45.9792 19.512C46.1786 19.8832 46.1375 20.3476 45.8396 20.6456C45.4945 20.9909 45.4945 21.5506 45.8396 21.8959L46.6525 22.7092C46.998 23.0548 47.5586 23.0543 47.9034 22.7079C48.2011 22.4089 48.6662 22.3673 49.0378 22.5671C49.4725 22.8007 49.9325 22.9932 50.4131 23.138C50.8181 23.2601 51.1196 23.6183 51.1196 24.0413C51.1196 24.5296 51.5155 24.9256 52.0039 24.9256H53.1541C53.6425 24.9256 54.0384 24.5296 54.0384 24.0413C54.0384 23.6183 54.3399 23.2601 54.7449 23.138C55.2255 22.9932 55.6855 22.8007 56.1201 22.5671C56.4918 22.3673 56.9569 22.4089 57.2546 22.7079C57.5994 23.0543 58.16 23.0548 58.5055 22.7092L59.3183 21.8959C59.6635 21.5506 59.6635 20.9909 59.3183 20.6456C59.0205 20.3476 58.9794 19.8832 59.1788 19.512C59.4128 19.0765 59.6054 18.6156 59.7504 18.134C59.8723 17.7292 60.2303 17.4278 60.6531 17.4278C61.1412 17.4278 61.5369 17.0321 61.5369 16.544V15.5075C61.5369 14.9552 61.0892 14.5075 60.5369 14.5075H59.9253ZM56.5409 13.8133C56.8901 14.4538 57.087 15.1883 57.087 15.9677C57.087 18.458 55.068 20.4735 52.5835 20.4735C50.0989 20.4735 48.0799 18.4535 48.0799 15.9677C48.0799 13.4818 50.0989 11.4618 52.5835 11.4618C53.6221 11.4618 54.5801 11.8157 55.3456 12.4069" fill="#80ABFF"/>
<g id="Group">
<g id="Group_2">
<g id="Group_3">
<path id="Vector_3" d="M10.6619 66.2007C13.3329 66.2007 15.4982 64.0248 15.4982 61.3406C15.4982 58.6564 13.3329 56.4805 10.6619 56.4805C7.99094 56.4805 5.82568 58.6564 5.82568 61.3406C5.82568 64.0248 7.99094 66.2007 10.6619 66.2007Z" stroke="#050505" stroke-width="1.5" stroke-linecap="round" stroke-linejoin="round"/>
<path id="Vector_4" d="M62.7416 66.2007C65.4126 66.2007 67.5779 64.0248 67.5779 61.3406C67.5779 58.6564 65.4126 56.4805 62.7416 56.4805C60.0707 56.4805 57.9054 58.6564 57.9054 61.3406C57.9054 64.0248 60.0707 66.2007 62.7416 66.2007Z" stroke="#050505" stroke-width="1.5" stroke-linecap="round" stroke-linejoin="round"/>
</g>
<path id="Vector_5" d="M36.7016 66.2027C39.3726 66.2027 41.5378 64.0267 41.5378 61.3426C41.5378 58.6584 39.3726 56.4824 36.7016 56.4824C34.0306 56.4824 31.8654 58.6584 31.8654 61.3426C31.8654 64.0267 34.0306 66.2027 36.7016 66.2027Z" stroke="#050505" stroke-width="1.5" stroke-linecap="round" stroke-linejoin="round"/>
<path id="Vector_6" d="M62.7415 51.4102H10.6616C5.20291 51.4102 0.778809 55.8561 0.778809 61.3417C0.778809 66.8273 5.20291 71.2733 10.6616 71.2733H62.7415C68.2002 71.2733 72.6243 66.8273 72.6243 61.3417C72.6243 55.8561 68.2002 51.4102 62.7415 51.4102Z" stroke="#050505" stroke-width="1.5" stroke-linecap="round" stroke-linejoin="round"/>
</g>
<g id="Group_4">
<path id="Vector_7" d="M15.355 53.9473H58.04" stroke="#050505" stroke-width="1.5" stroke-linecap="round" stroke-linejoin="round"/>
<path id="Vector_8" d="M15.355 68.7383H58.04" stroke="#050505" stroke-width="1.5" stroke-linecap="round" stroke-linejoin="round"/>
</g>
</g>
</g>
</svg>
