<?xml version="1.0" encoding="utf-8"?>
<!-- Generator: Adobe Illustrator 27.7.0, SVG Export Plug-In . SVG Version: 6.00 Build 0)  -->
<svg version="1.1" id="레이어_1" xmlns="http://www.w3.org/2000/svg" xmlns:xlink="http://www.w3.org/1999/xlink" x="0px"
	 y="0px" viewBox="0 0 120 120" style="enable-background:new 0 0 120 120;" xml:space="preserve">
<style type="text/css">
	.st0{clip-path:url(#SVGID_00000002367187717526528230000006121000139777134266_);}
	.st1{fill:#F4F4F4;}
	.st2{clip-path:url(#SVGID_00000090278169471865730180000005092765965163916170_);fill:#F4F4F4;}
	.st3{clip-path:url(#SVGID_00000175288113222570384950000000239410786357864111_);}
	.st4{clip-path:url(#SVGID_00000084489239179803753840000002088732634382394002_);fill:#050505;}
	.st5{clip-path:url(#SVGID_00000149343433813220466570000012556318181926511242_);fill:#F4F4F4;}
	.st6{clip-path:url(#SVGID_00000100359155103105824910000006471679554462481559_);fill:#050505;}
	.st7{clip-path:url(#SVGID_00000090974646349431026530000004768177555266128788_);fill:#F4F4F4;}
	.st8{clip-path:url(#SVGID_00000104696863250107011140000004977642931377803925_);fill:#050505;}
	.st9{clip-path:url(#SVGID_00000057113623586654981410000016312328907742309000_);fill:#80ABFF;}
	.st10{clip-path:url(#SVGID_00000153707637463628868580000017516374240177237409_);fill:#80ABFF;}
	.st11{clip-path:url(#SVGID_00000057869362685535674810000018371997477884510101_);fill:#F4F4F4;}
	.st12{clip-path:url(#SVGID_00000022538681242083041160000017987382486316909696_);fill:#050505;}
	.st13{clip-path:url(#SVGID_00000101064591768668501100000007635708210794175636_);fill:#050505;}
	.st14{clip-path:url(#SVGID_00000071528394940983371300000000464193028861052325_);fill:#050505;}
	.st15{clip-path:url(#SVGID_00000010994053973014717380000001618574290795896203_);fill:#050505;}
	.st16{clip-path:url(#SVGID_00000170269122472508691870000017935076171540593043_);fill:#050505;}
	.st17{clip-path:url(#SVGID_00000136409136285002405480000011077073728709268372_);fill:#050505;}
	.st18{clip-path:url(#SVGID_00000171697792681539141690000006982844329007690904_);fill:#F4F4F4;}
	.st19{clip-path:url(#SVGID_00000026144924008925667710000010468675430133853374_);fill:#050505;}
	.st20{clip-path:url(#SVGID_00000044147942773469649210000015367213750577890466_);fill:#F4F4F4;}
	.st21{clip-path:url(#SVGID_00000006680239527699091140000004643770827140455594_);fill:#050505;}
	.st22{clip-path:url(#SVGID_00000028288750573327948470000001494443080678008712_);fill:#F4F4F4;}
	.st23{clip-path:url(#SVGID_00000181065506384944933520000009902713890319747210_);fill:#050505;}
	.st24{clip-path:url(#SVGID_00000012445591279709514280000003429085048504930955_);fill:#F4F4F4;}
	.st25{clip-path:url(#SVGID_00000178167548623635817260000001786683644593680793_);fill:#050505;}
	.st26{clip-path:url(#SVGID_00000086683906445882375970000006329324238272669073_);fill:#F4F4F4;}
	.st27{clip-path:url(#SVGID_00000150074546397054735560000002878256211194032319_);fill:#050505;}
	.st28{clip-path:url(#SVGID_00000081636063087690894110000004408067798365956277_);fill:#F4F4F4;}
	.st29{clip-path:url(#SVGID_00000159453391800299392430000014591061403099074230_);fill:#050505;}
	.st30{clip-path:url(#SVGID_00000154388931392806281080000004823715150248618890_);fill:#F4F4F4;}
	.st31{clip-path:url(#SVGID_00000135681002429825170470000016135996642891568050_);}
	.st32{clip-path:url(#SVGID_00000079488137675126619080000012326427519660375681_);fill:#050505;}
	.st33{clip-path:url(#SVGID_00000095308987385146244800000001372286077387205556_);fill:#050505;}
	.st34{clip-path:url(#SVGID_00000084519715725787561700000018196460556003717561_);fill:#050505;}
	.st35{clip-path:url(#SVGID_00000093158647877272073740000010882641147131495307_);fill:#050505;}
	.st36{clip-path:url(#SVGID_00000124140992143861697960000005816940519000336061_);}
	.st37{clip-path:url(#SVGID_00000168819941458020488760000003721072151616799616_);fill:#050505;}
	.st38{clip-path:url(#SVGID_00000021836767604739711540000017345553667809580416_);fill:#050505;}
	.st39{clip-path:url(#SVGID_00000083772510030260553520000011170137246246877097_);}
	.st40{clip-path:url(#SVGID_00000008847863356763434140000000954944090277397435_);fill:#050505;}
	.st41{clip-path:url(#SVGID_00000089534196625931558460000009424598684822507692_);fill:#050505;}
	.st42{clip-path:url(#SVGID_00000090288345284717448600000005045226293610540991_);fill:#050505;}
	.st43{clip-path:url(#SVGID_00000129165459485180439880000016420270381095349937_);fill:#050505;}
	.st44{clip-path:url(#SVGID_00000079456644543158433540000016271964420941297847_);fill:#050505;}
	.st45{clip-path:url(#SVGID_00000169539995516138562440000008802867938044684938_);fill:#F4F4F4;}
	.st46{clip-path:url(#SVGID_00000082342602793049141290000002064167491577808054_);fill:#050505;}
	.st47{clip-path:url(#SVGID_00000115491607301202048130000017879787235434294968_);fill:#F4F4F4;}
	.st48{clip-path:url(#SVGID_00000026841725261503423340000015261905009803997625_);fill:#050505;}
	.st49{clip-path:url(#SVGID_00000059990512498991747910000015891125777487857331_);fill:#80ABFF;}
	.st50{clip-path:url(#SVGID_00000088101022351326475540000003674254036274734776_);fill:#F4F4F4;}
	.st51{clip-path:url(#SVGID_00000140699641883767762460000015245228258532047548_);fill:#F4F4F4;}
	.st52{clip-path:url(#SVGID_00000183223857530134555510000000588423447318868122_);fill:#F4F4F4;}
	.st53{clip-path:url(#SVGID_00000130615537810402347130000010482811733901011854_);fill:#050505;}
	.st54{clip-path:url(#SVGID_00000173140727315575443150000011357106404076513450_);fill:#050505;}
	.st55{clip-path:url(#SVGID_00000042727788555198719040000004564075246009240736_);fill:#F4F4F4;}
	.st56{clip-path:url(#SVGID_00000094616726811005676360000006191018875634023346_);fill:#050505;}
	.st57{clip-path:url(#SVGID_00000103984642249979437930000011137994774943752836_);fill:#050505;}
	.st58{clip-path:url(#SVGID_00000015330780700465760500000013116499039938925465_);fill:#050505;}
	.st59{clip-path:url(#SVGID_00000062170643920391761360000008541614619807776131_);fill:#050505;}
	.st60{clip-path:url(#SVGID_00000049217989122140481580000012222239382792826261_);fill:#F4F4F4;}
	.st61{clip-path:url(#SVGID_00000134937541181411731740000007683300158653282476_);}
	.st62{clip-path:url(#SVGID_00000096770982109067895360000015454053586393499042_);fill:#050505;}
	.st63{clip-path:url(#SVGID_00000015346385580950885580000006475756613375616932_);fill:#70747D;}
	.st64{fill:#70747D;}
	.st65{clip-path:url(#SVGID_00000070105905369752719080000017269881948392568489_);fill:#70747D;}
</style>
<g>
	<defs>
		<path id="SVGID_1_" d="M57.85-17.27C85.47-17.27,110,38.39,110,66s-22.39,50-50,50S10,93.61,10,66S30.24-17.27,57.85-17.27z"/>
	</defs>
	<clipPath id="SVGID_00000041986462584920541430000009173582998873446556_">
		<use xlink:href="#SVGID_1_"  style="overflow:visible;"/>
	</clipPath>
	<g style="clip-path:url(#SVGID_00000041986462584920541430000009173582998873446556_);">
		<circle class="st1" cx="60" cy="66" r="50"/>
		<g>
			<g>
				<g>
					<defs>
						<rect id="SVGID_00000064323659740292828110000016496878965258053031_" y="0" width="120" height="120"/>
					</defs>
					<clipPath id="SVGID_00000158713010852236259270000015607871375408043703_">
						<use xlink:href="#SVGID_00000064323659740292828110000016496878965258053031_"  style="overflow:visible;"/>
					</clipPath>
					<path style="clip-path:url(#SVGID_00000158713010852236259270000015607871375408043703_);fill:#F4F4F4;" d="M85.23,106.19
						l-0.06,22.99h12.55c0.03-4.2,0.26-13.44-0.23-27.69c-0.64-18.78,0.23-28.81,0.23-28.81c-0.95-8.8-7.11-10.32-8.03-10.87
						c0,0-3.66,5.02-5.01,10.83c-1.35,5.82-0.16,20.22-0.16,20.22L85.23,106.19z"/>
				</g>
				<g>
					<defs>
						<rect id="SVGID_00000032608629011951149750000017103767031407713168_" y="0" width="120" height="120"/>
					</defs>
					<clipPath id="SVGID_00000140702641006084939490000003320514982071556279_">
						<use xlink:href="#SVGID_00000032608629011951149750000017103767031407713168_"  style="overflow:visible;"/>
					</clipPath>
					<g style="clip-path:url(#SVGID_00000140702641006084939490000003320514982071556279_);">
						<g>
							<defs>
								<path id="SVGID_00000047763863714597441720000014632066722305641602_" d="M85.23,106.19l-0.06,22.99h12.55
									c0.03-4.2,0.26-13.44-0.23-27.69c-0.64-18.78,0.23-28.81,0.23-28.81c-0.95-8.8-7.11-10.32-8.03-10.87
									c0,0-3.66,5.02-5.01,10.83c-1.35,5.82-0.16,20.22-0.16,20.22L85.23,106.19z"/>
							</defs>
							<clipPath id="SVGID_00000082360207779699597220000004622612604565695157_">
								<use xlink:href="#SVGID_00000047763863714597441720000014632066722305641602_"  style="overflow:visible;"/>
							</clipPath>
							<path style="clip-path:url(#SVGID_00000082360207779699597220000004622612604565695157_);fill:#050505;" d="M83.52,92.92
								l0.71,13.33l2-0.11l-0.71-13.33L83.52,92.92z M83.7,72.42c-0.71,3.06-0.74,8.24-0.61,12.55c0.07,2.18,0.17,4.17,0.26,5.62
								c0.05,0.72,0.09,1.31,0.12,1.72c0.02,0.2,0.03,0.36,0.04,0.47c0,0.05,0.01,0.1,0.01,0.12c0,0.01,0,0.02,0,0.03v0.01l0,0l0,0
								c0,0,0,0,1-0.08s1-0.08,1-0.08l0,0l0,0c0,0,0,0,0-0.01s0-0.02,0-0.03c0-0.03-0.01-0.07-0.01-0.12
								c-0.01-0.11-0.02-0.26-0.04-0.46c-0.03-0.4-0.07-0.98-0.12-1.7c-0.09-1.43-0.2-3.4-0.26-5.56
								c-0.13-4.35-0.08-9.28,0.56-12.04L83.7,72.42z M89.68,61.81c-0.81-0.59-0.81-0.59-0.81-0.59l0,0l0,0l0,0l-0.01,0.01
								c-0.01,0.01-0.02,0.03-0.03,0.05c-0.03,0.04-0.07,0.1-0.13,0.18c-0.11,0.16-0.26,0.38-0.45,0.67
								c-0.38,0.58-0.89,1.41-1.44,2.43c-1.11,2.02-2.4,4.82-3.11,7.84l1.95,0.45c0.65-2.78,1.85-5.4,2.91-7.34
								c0.53-0.97,1.01-1.75,1.37-2.3c0.18-0.27,0.32-0.48,0.42-0.62c0.05-0.07,0.09-0.12,0.11-0.16c0.01-0.02,0.02-0.03,0.03-0.04
								c0,0,0-0.01,0.01-0.01l0,0l0,0l0,0C90.49,62.4,90.49,62.4,89.68,61.81z M98.71,72.58c-0.5-4.65-2.4-7.46-4.36-9.17
								c-0.97-0.85-1.93-1.41-2.71-1.79c-0.39-0.19-0.73-0.34-0.99-0.45c-0.13-0.06-0.24-0.1-0.32-0.14
								c-0.04-0.02-0.07-0.03-0.1-0.05c-0.02-0.01-0.03-0.02-0.03-0.02l-1.03,1.71c0.19,0.11,0.47,0.23,0.69,0.33
								c0.26,0.11,0.56,0.24,0.89,0.41c0.67,0.33,1.48,0.8,2.28,1.51c1.59,1.38,3.24,3.73,3.69,7.88L98.71,72.58z M98.49,101.46
								c-0.32-9.37-0.26-16.55-0.13-21.38c0.07-2.42,0.16-4.25,0.23-5.47c0.04-0.61,0.07-1.07,0.09-1.38
								c0.01-0.15,0.02-0.27,0.03-0.34c0-0.04,0.01-0.07,0.01-0.08s0-0.02,0-0.02l0,0l0,0l0,0c0,0,0,0-1-0.09s-1-0.09-1-0.09l0,0
								l0,0c0,0,0,0,0,0.01s0,0.01,0,0.02c0,0.02,0,0.05-0.01,0.09c-0.01,0.08-0.02,0.2-0.03,0.36c-0.02,0.32-0.05,0.79-0.09,1.41
								c-0.07,1.24-0.16,3.09-0.23,5.53c-0.14,4.88-0.19,12.1,0.13,21.51L98.49,101.46z M98.72,129.19
								c0.03-4.19,0.26-13.46-0.23-27.73l-2,0.07c0.48,14.22,0.25,23.44,0.23,27.65L98.72,129.19z M85.17,130.18h12.55v-2H85.17
								V130.18z M84.23,106.19l-0.06,22.99h2l0.06-22.99L84.23,106.19z M84.52,92.87l1-0.05v-0.01V92.8L84.52,92.87z M84.67,72.64
								l-0.97-0.23l0,0L84.67,72.64z M89.68,61.81l0.51-0.86l-0.78-0.47l-0.54,0.74L89.68,61.81z M97.72,72.68l1,0.09l0.01-0.1
								l-0.01-0.1L97.72,72.68z M97.49,101.49l1-0.03l0,0L97.49,101.49z M97.72,129.18v1h0.99l0.01-0.99L97.72,129.18z
								 M85.17,129.18h-1v1h1V129.18z M85.23,106.19h1v-0.03v-0.03L85.23,106.19z"/>
						</g>
					</g>
				</g>
				<g>
					<defs>
						<rect id="SVGID_00000158015456193471628270000012406207880307270533_" y="0" width="120" height="120"/>
					</defs>
					<clipPath id="SVGID_00000028320043611412801800000002709401482968116361_">
						<use xlink:href="#SVGID_00000158015456193471628270000012406207880307270533_"  style="overflow:visible;"/>
					</clipPath>
					<path style="clip-path:url(#SVGID_00000028320043611412801800000002709401482968116361_);fill:#F4F4F4;" d="M63.26,101.92
						c-11.18-17.48-9.38-46.35-9.38-46.35h18.76C72.65,55.57,74.45,84.44,63.26,101.92z"/>
				</g>
				<g>
					<defs>
						<rect id="SVGID_00000030463403027594305880000006314014314778055562_" y="0" width="120" height="120"/>
					</defs>
					<clipPath id="SVGID_00000008147457209588261260000013427392263107266703_">
						<use xlink:href="#SVGID_00000030463403027594305880000006314014314778055562_"  style="overflow:visible;"/>
					</clipPath>
					<path style="clip-path:url(#SVGID_00000008147457209588261260000013427392263107266703_);fill:#050505;" d="M72.65,55.57
						c-0.5,0.03-0.5,0.03-0.5,0.03l0,0l0,0v0.01c0,0.01,0,0.03,0,0.06c0,0.05,0.01,0.13,0.01,0.24c0.01,0.21,0.02,0.53,0.04,0.94
						c0.03,0.82,0.05,2.01,0.05,3.49c-0.01,2.97-0.13,7.11-0.6,11.79c-0.94,9.38-3.28,20.87-8.81,29.51l0.84,0.54
						c5.66-8.84,8.01-20.53,8.96-29.95c0.48-4.72,0.6-8.89,0.61-11.88c0-1.5-0.02-2.7-0.05-3.53c-0.01-0.41-0.03-0.74-0.04-0.95
						c-0.01-0.11-0.01-0.19-0.01-0.25c0-0.03,0-0.05,0-0.06c0-0.01,0-0.01,0-0.02l0,0l0,0C73.14,55.54,73.14,55.54,72.65,55.57z
						 M53.88,56.07h18.76v-1H53.88V56.07z M63.69,101.66c-5.53-8.64-7.86-20.14-8.81-29.51c-0.47-4.68-0.6-8.82-0.6-11.79
						c0-1.48,0.02-2.67,0.05-3.49c0.01-0.41,0.03-0.73,0.04-0.94c0.01-0.11,0.01-0.19,0.01-0.24c0-0.03,0-0.05,0-0.06
						c0-0.01,0-0.01,0-0.01l0,0l0,0c0,0,0,0-0.5-0.03s-0.5-0.03-0.5-0.03l0,0l0,0c0,0,0,0.01,0,0.02c0,0.01,0,0.04,0,0.06
						c0,0.06-0.01,0.14-0.01,0.25c-0.01,0.22-0.02,0.54-0.04,0.95c-0.03,0.83-0.05,2.03-0.05,3.53c0.01,2.99,0.13,7.16,0.61,11.88
						c0.95,9.43,3.3,21.11,8.96,29.95L63.69,101.66z M72.65,55.57l0.5-0.03c-0.02-0.26-0.23-0.47-0.5-0.47V55.57z M53.88,55.57v-0.5
						c-0.26,0-0.48,0.21-0.5,0.47L53.88,55.57z M63.26,101.92l-0.42,0.27c0.09,0.14,0.25,0.23,0.42,0.23s0.33-0.09,0.42-0.23
						L63.26,101.92z"/>
				</g>
				<g>
					<defs>
						<rect id="SVGID_00000016051199408111679230000012098604240100189089_" y="0" width="120" height="120"/>
					</defs>
					<clipPath id="SVGID_00000081634208056498295700000002683879183831250604_">
						<use xlink:href="#SVGID_00000016051199408111679230000012098604240100189089_"  style="overflow:visible;"/>
					</clipPath>
					<path style="clip-path:url(#SVGID_00000081634208056498295700000002683879183831250604_);fill:#F4F4F4;" d="M55.09,64.29
						c2.67-8.03,2.06-19.61,2.06-19.61h12.7c0,0-0.94,11.03,1.93,19.61H55.09z"/>
				</g>
				<g>
					<defs>
						<rect id="SVGID_00000028302574987887496810000005336115038461085368_" y="0" width="120" height="120"/>
					</defs>
					<clipPath id="SVGID_00000173159063111550052860000002399752683789258150_">
						<use xlink:href="#SVGID_00000028302574987887496810000005336115038461085368_"  style="overflow:visible;"/>
					</clipPath>
					<path style="clip-path:url(#SVGID_00000173159063111550052860000002399752683789258150_);fill:#050505;" d="M71.78,63.79H55.09
						v1h16.69V63.79z M69.85,44.67c-0.5-0.04-0.5-0.04-0.5-0.04l0,0l0,0c0,0,0,0,0,0.01s0,0.01,0,0.03s0,0.05-0.01,0.1
						c-0.01,0.08-0.02,0.21-0.03,0.37c-0.02,0.32-0.05,0.79-0.07,1.38c-0.04,1.18-0.07,2.84-0.01,4.76
						c0.12,3.85,0.61,8.81,2.07,13.17l0.95-0.32c-1.41-4.23-1.89-9.07-2.01-12.88c-0.06-1.9-0.03-3.54,0.01-4.7
						c0.02-0.58,0.05-1.04,0.07-1.35c0.01-0.16,0.02-0.28,0.02-0.36c0-0.04,0.01-0.07,0.01-0.09c0-0.01,0-0.02,0-0.02s0,0,0-0.01
						l0,0l0,0C70.35,44.71,70.35,44.71,69.85,44.67z M57.15,45.17h12.7v-1h-12.7C57.15,44.17,57.15,45.17,57.15,45.17z M55.56,64.44
						c1.36-4.08,1.87-9.04,2.05-12.95c0.09-1.96,0.1-3.67,0.08-4.89c-0.01-0.61-0.02-1.1-0.03-1.43c-0.01-0.17-0.01-0.3-0.01-0.39
						c0-0.04,0-0.08,0-0.1c0-0.01,0-0.02,0-0.03v-0.01l0,0l0,0c0,0,0,0-0.5,0.03s-0.5,0.03-0.5,0.03l0,0l0,0c0,0,0,0,0,0.01
						s0,0.01,0,0.02c0,0.02,0,0.05,0,0.1c0,0.09,0.01,0.21,0.01,0.38c0.01,0.33,0.02,0.81,0.03,1.41c0.02,1.2,0.01,2.89-0.08,4.83
						c-0.18,3.89-0.69,8.73-2,12.68L55.56,64.44z M71.78,64.29v0.5c0.16,0,0.31-0.08,0.41-0.21s0.12-0.3,0.07-0.45L71.78,64.29z
						 M69.85,44.67l0.5,0.04c0.01-0.14-0.04-0.28-0.13-0.38s-0.23-0.16-0.37-0.16V44.67z M57.15,44.67v-0.5
						c-0.14,0-0.27,0.06-0.36,0.16s-0.14,0.23-0.14,0.37L57.15,44.67z M55.09,64.29l-0.47-0.16c-0.05,0.15-0.02,0.32,0.07,0.45
						s0.24,0.21,0.41,0.21L55.09,64.29L55.09,64.29z"/>
				</g>
				<g>
					<defs>
						<rect id="SVGID_00000047020421598805235480000010168559332610986918_" y="0" width="120" height="120"/>
					</defs>
					<clipPath id="SVGID_00000132806205404209615390000018216592176292598453_">
						<use xlink:href="#SVGID_00000047020421598805235480000010168559332610986918_"  style="overflow:visible;"/>
					</clipPath>
					<polygon style="clip-path:url(#SVGID_00000132806205404209615390000018216592176292598453_);fill:#80ABFF;" points="
						61.42,69.54 65.05,69.54 66.61,75.1 68.05,116.95 63.18,123.79 58.5,116.95 59.93,75.1 					"/>
				</g>
				<g>
					<defs>
						<rect id="SVGID_00000026162304391559266160000016596172579587381392_" y="0" width="120" height="120"/>
					</defs>
					<clipPath id="SVGID_00000001656043462892029600000017808662490127230347_">
						<use xlink:href="#SVGID_00000026162304391559266160000016596172579587381392_"  style="overflow:visible;"/>
					</clipPath>
					<path style="clip-path:url(#SVGID_00000001656043462892029600000017808662490127230347_);fill:#80ABFF;" d="M58.99,64.44
						c-0.03-1.89,2.58-2,4.36-2.03c1.77-0.01,4.44,0.04,4.46,1.93c0.03,1.89-1.94,5.9-4.4,5.9c-2.47,0-4.4-3.9-4.41-5.79v-0.01
						H58.99z"/>
				</g>
				<g>
					<defs>
						<rect id="SVGID_00000014603316212667405210000005059808609554693274_" y="0" width="120" height="120"/>
					</defs>
					<clipPath id="SVGID_00000170997514842739386040000000857862352655318689_">
						<use xlink:href="#SVGID_00000014603316212667405210000005059808609554693274_"  style="overflow:visible;"/>
					</clipPath>
					<path style="clip-path:url(#SVGID_00000170997514842739386040000000857862352655318689_);fill:#F4F4F4;" d="M38.54,102.94
						l-1.32-39.91c0,0,16.59-7.99,16.66-6.8c0.31,5.31-2.82,6.17,9.64,30.49c12.36-22.45,9.04-25.21,9.35-30.51
						c0.07-1.19,17.1,6.84,17.1,6.84l-1.46,39.88l1.46,21.88l-1.46,5.8l-49.87,0.06l-1.42-7.28l1.32-20.47
						C38.54,102.92,38.54,102.94,38.54,102.94z"/>
				</g>
				<g>
					<defs>
						<rect id="SVGID_00000099622763926602083860000009385940125531769232_" y="0" width="120" height="120"/>
					</defs>
					<clipPath id="SVGID_00000138566353482799086520000016337749447509672373_">
						<use xlink:href="#SVGID_00000099622763926602083860000009385940125531769232_"  style="overflow:visible;"/>
					</clipPath>
					<path style="clip-path:url(#SVGID_00000138566353482799086520000016337749447509672373_);fill:#050505;" d="M39.14,130.68V104
						h-1v26.68H39.14z M88.51,130.12l-49.87,0.06v1l49.87-0.06V130.12z M89.49,124.69l-1.46,5.8l0.97,0.24l1.46-5.8L89.49,124.69z
						 M88.01,102.96l1.46,21.88l1-0.07l-1.46-21.88L88.01,102.96z M89.11,62.26l-1.1,40.65l1,0.03l1.1-40.65L89.11,62.26z
						 M73.37,56.24c-0.01,0.14-0.09,0.25-0.18,0.31c-0.06,0.04-0.1,0.04-0.07,0.03c0.05-0.01,0.18,0,0.4,0.04
						c0.43,0.08,1.06,0.25,1.84,0.51c1.56,0.51,3.64,1.3,5.72,2.13s4.17,1.7,5.73,2.36c0.78,0.33,1.43,0.61,1.89,0.8
						c0.23,0.1,0.41,0.18,0.53,0.23c0.06,0.03,0.11,0.05,0.14,0.06c0.02,0.01,0.03,0.01,0.04,0.02h0.01l0,0l0,0c0,0,0,0,0.2-0.46
						s0.2-0.46,0.2-0.46l0,0l0,0h-0.01c-0.01,0-0.02-0.01-0.04-0.02c-0.03-0.01-0.08-0.03-0.14-0.06c-0.12-0.05-0.3-0.13-0.53-0.23
						c-0.46-0.2-1.11-0.48-1.89-0.81c-1.57-0.66-3.66-1.53-5.75-2.37c-2.09-0.83-4.19-1.63-5.78-2.15
						c-0.79-0.26-1.47-0.45-1.97-0.54c-0.24-0.04-0.48-0.07-0.68-0.05c-0.1,0.01-0.23,0.03-0.36,0.12c-0.15,0.1-0.27,0.26-0.29,0.48
						L73.37,56.24z M63.96,86.97c6.19-11.24,8.48-17.6,9.25-21.84c0.39-2.13,0.39-3.71,0.31-5.09c-0.08-1.4-0.22-2.5-0.15-3.79
						l-1-0.06c-0.08,1.36,0.07,2.59,0.15,3.91c0.07,1.33,0.07,2.83-0.3,4.86c-0.74,4.08-2.97,10.32-9.14,21.53L63.96,86.97z
						 M53.38,56.27c0.08,1.29-0.06,2.28-0.12,3.53c-0.06,1.24-0.03,2.65,0.39,4.66c0.83,3.99,3.19,10.33,9.42,22.5l0.89-0.46
						c-6.23-12.15-8.53-18.39-9.33-22.24c-0.4-1.91-0.42-3.23-0.37-4.41c0.05-1.16,0.19-2.27,0.11-3.64L53.38,56.27z M38.45,62.74
						c0.22,0.45,0.22,0.45,0.22,0.45l0,0l0,0c0,0,0,0,0.01,0s0.02-0.01,0.03-0.02c0.03-0.01,0.07-0.04,0.13-0.06
						c0.11-0.06,0.28-0.14,0.49-0.24c0.42-0.21,1.02-0.5,1.74-0.85c1.44-0.7,3.36-1.63,5.28-2.51c1.92-0.89,3.84-1.73,5.27-2.28
						c0.72-0.28,1.3-0.47,1.69-0.56c0.2-0.05,0.31-0.05,0.35-0.05c0.02,0-0.03,0-0.1-0.04c-0.1-0.06-0.17-0.18-0.17-0.3l1-0.06
						c-0.01-0.2-0.12-0.37-0.28-0.47c-0.13-0.09-0.27-0.11-0.37-0.12c-0.19-0.02-0.42,0.02-0.65,0.07c-0.46,0.1-1.1,0.32-1.83,0.6
						c-1.47,0.56-3.41,1.42-5.33,2.3c-1.93,0.89-3.85,1.82-5.3,2.52c-0.72,0.35-1.32,0.65-1.74,0.86c-0.21,0.1-0.38,0.19-0.49,0.24
						c-0.06,0.03-0.1,0.05-0.13,0.06c-0.01,0.01-0.03,0.01-0.03,0.02h-0.01l0,0l0,0C38.23,62.3,38.23,62.3,38.45,62.74z
						 M38.64,130.68h-0.5v0.5h0.5V130.68z M88.51,130.62v0.5h0.39l0.1-0.38L88.51,130.62z M89.97,124.82l0.48,0.12l0.02-0.08
						l-0.01-0.08L89.97,124.82z M88.51,102.93l-0.5-0.01v0.02v0.02L88.51,102.93z M89.61,62.28l0.5,0.01l0.01-0.34l-0.31-0.13
						L89.61,62.28z M72.87,56.21l-0.5-0.03l0,0L72.87,56.21z M63.52,86.72l-0.44,0.23l0.43,0.84l0.45-0.82L63.52,86.72z
						 M53.88,56.24l0.5-0.03l0,0L53.88,56.24z"/>
				</g>
				<g>
					<defs>
						<rect id="SVGID_00000160184716587214769410000013214894444794941590_" y="0" width="120" height="120"/>
					</defs>
					<clipPath id="SVGID_00000132049724813044612350000013859181400679982504_">
						<use xlink:href="#SVGID_00000160184716587214769410000013214894444794941590_"  style="overflow:visible;"/>
					</clipPath>
					<path style="clip-path:url(#SVGID_00000132049724813044612350000013859181400679982504_);fill:#050505;" d="M63.52,86.74
						c-0.5-0.01-0.5-0.01-0.5-0.01l0,0l0,0v0.01c0,0.01,0,0.03,0,0.05c0,0.05,0,0.11,0,0.2c0,0.18-0.01,0.44-0.01,0.79
						c-0.01,0.69-0.03,1.69-0.05,2.96c-0.04,2.53-0.08,6.1-0.11,10.27c-0.06,8.33-0.06,19.04,0.17,28.55l1-0.02
						c-0.23-9.49-0.23-20.19-0.17-28.52c0.03-4.16,0.07-7.73,0.11-10.26c0.02-1.26,0.03-2.27,0.05-2.96
						c0.01-0.34,0.01-0.61,0.01-0.79c0-0.09,0-0.16,0-0.2c0-0.02,0-0.04,0-0.05s0-0.01,0-0.01l0,0l0,0
						C64.02,86.75,64.02,86.75,63.52,86.74z M63.02,129.57c0.01,0.28,0.24,0.49,0.51,0.49c0.28-0.01,0.49-0.24,0.49-0.51
						L63.02,129.57z M64.02,86.75c0.01-0.28-0.21-0.5-0.49-0.51c-0.28-0.01-0.5,0.21-0.51,0.49L64.02,86.75z"/>
				</g>
				<g>
					<defs>
						<rect id="SVGID_00000033370237602478884190000000394703340639076232_" y="0" width="120" height="120"/>
					</defs>
					<clipPath id="SVGID_00000085217017649462336790000016299649525356212922_">
						<use xlink:href="#SVGID_00000033370237602478884190000000394703340639076232_"  style="overflow:visible;"/>
					</clipPath>
					<path style="clip-path:url(#SVGID_00000085217017649462336790000016299649525356212922_);fill:#050505;" d="M53.74,81.57v-1.01
						h-1v1.01H53.74z M47.74,83.52l5.63-1.46l-0.25-0.97l-5.63,1.46L47.74,83.52z M42.3,81.91l5.17,1.6l0.3-0.96l-5.17-1.6
						L42.3,81.91z M41.94,79.3v2.13h1V79.3H41.94z M53.24,78.8h-10.8v1h10.8V78.8z M53.74,80.56c0-0.28-0.22-0.5-0.5-0.5
						s-0.5,0.22-0.5,0.5H53.74z M53.24,81.57l0.13,0.48c0.22-0.06,0.37-0.26,0.37-0.48H53.24z M47.61,83.03l-0.15,0.48
						c0.09,0.03,0.18,0.03,0.27,0.01L47.61,83.03z M42.44,81.43h-0.5c0,0.22,0.14,0.41,0.35,0.48L42.44,81.43z M42.44,79.3v-0.5
						c-0.28,0-0.5,0.22-0.5,0.5H42.44z M53.24,79.8c0.28,0,0.5-0.22,0.5-0.5s-0.22-0.5-0.5-0.5V79.8z"/>
				</g>
				<g>
					<defs>
						<rect id="SVGID_00000037675307739101721010000014724419734496386478_" y="0" width="120" height="120"/>
					</defs>
					<clipPath id="SVGID_00000003805749826455809910000015450768262483555768_">
						<use xlink:href="#SVGID_00000037675307739101721010000014724419734496386478_"  style="overflow:visible;"/>
					</clipPath>
					<path style="clip-path:url(#SVGID_00000003805749826455809910000015450768262483555768_);fill:#050505;" d="M43.69,90.06
						l-0.74-8.67l-1,0.08l0.74,8.67L43.69,90.06z M44.22,90.55c-0.27,0-0.5-0.21-0.52-0.49l-1,0.08c0.06,0.8,0.72,1.41,1.52,1.41
						V90.55z M51.85,90.55h-7.64v1h7.64V90.55z M52.39,90.06c-0.01,0.27-0.24,0.49-0.54,0.49v1c0.81,0,1.49-0.63,1.54-1.44
						L52.39,90.06z M52.74,81.85l-0.35,8.22l1,0.04l0.35-8.22L52.74,81.85z M42.96,81.39c-0.02-0.28-0.27-0.48-0.54-0.46
						c-0.28,0.02-0.48,0.27-0.46,0.54L42.96,81.39z M43.2,90.1l0.5-0.04l0,0L43.2,90.1z M52.89,90.09l0.5,0.03l0,0L52.89,90.09z
						 M53.74,81.89c0.01-0.28-0.2-0.51-0.48-0.52c-0.28-0.01-0.51,0.2-0.52,0.48L53.74,81.89z"/>
				</g>
				<g>
					<defs>
						<rect id="SVGID_00000065033372703122944280000011667167699555624343_" y="0" width="120" height="120"/>
					</defs>
					<clipPath id="SVGID_00000010997609747799191390000011351746027252687504_">
						<use xlink:href="#SVGID_00000065033372703122944280000011667167699555624343_"  style="overflow:visible;"/>
					</clipPath>
					<path style="clip-path:url(#SVGID_00000010997609747799191390000011351746027252687504_);fill:#050505;" d="M85.01,81.57v-1.01
						h-1v1.01H85.01z M79.23,83.52l5.41-1.46l-0.26-0.97l-5.41,1.46L79.23,83.52z M73.57,81.91l5.39,1.6l0.29-0.96l-5.39-1.6
						L73.57,81.91z M73.21,79.3v2.13h1V79.3H73.21z M84.51,78.8h-10.8v1h10.8V78.8z M85.01,80.56c0-0.28-0.22-0.5-0.5-0.5
						s-0.5,0.22-0.5,0.5H85.01z M84.51,81.57l0.13,0.48c0.22-0.06,0.37-0.26,0.37-0.48H84.51z M79.1,83.03l-0.14,0.48
						c0.09,0.03,0.18,0.03,0.27,0L79.1,83.03z M73.71,81.43h-0.5c0,0.22,0.15,0.42,0.36,0.48L73.71,81.43z M73.71,79.3v-0.5
						c-0.28,0-0.5,0.22-0.5,0.5H73.71z M84.51,79.8c0.28,0,0.5-0.22,0.5-0.5s-0.22-0.5-0.5-0.5V79.8z"/>
				</g>
				<g>
					<defs>
						<rect id="SVGID_00000003789303924225900310000005207569143251640239_" y="0" width="120" height="120"/>
					</defs>
					<clipPath id="SVGID_00000181769345996221454910000000101835324099573391_">
						<use xlink:href="#SVGID_00000003789303924225900310000005207569143251640239_"  style="overflow:visible;"/>
					</clipPath>
					<path style="clip-path:url(#SVGID_00000181769345996221454910000000101835324099573391_);fill:#050505;" d="M74.96,90.06
						l-0.74-8.67l-1,0.08l0.74,8.67L74.96,90.06z M75.48,90.55c-0.27,0-0.5-0.21-0.52-0.49l-1,0.08c0.06,0.8,0.72,1.41,1.52,1.41
						V90.55z M83.12,90.55h-7.64v1h7.64V90.55z M83.66,90.06c-0.01,0.27-0.24,0.49-0.54,0.49v1c0.81,0,1.49-0.63,1.54-1.44
						L83.66,90.06z M84.01,81.85l-0.35,8.22l1,0.04l0.35-8.22L84.01,81.85z M74.22,81.39c-0.02-0.28-0.27-0.48-0.54-0.46
						c-0.28,0.02-0.48,0.27-0.46,0.54L74.22,81.39z M74.46,90.1l0.5-0.04l0,0L74.46,90.1z M84.16,90.09l0.5,0.03l0,0L84.16,90.09z
						 M85.01,81.89c0.01-0.28-0.2-0.51-0.48-0.52c-0.28-0.01-0.51,0.2-0.52,0.48L85.01,81.89z"/>
				</g>
				<g>
					<defs>
						<rect id="SVGID_00000140715727567057866150000005345562824875149208_" y="0" width="120" height="120"/>
					</defs>
					<clipPath id="SVGID_00000181067998327268602860000014369452674211418787_">
						<use xlink:href="#SVGID_00000140715727567057866150000005345562824875149208_"  style="overflow:visible;"/>
					</clipPath>
					<path style="clip-path:url(#SVGID_00000181067998327268602860000014369452674211418787_);fill:#F4F4F4;" d="M72.46,58.15
						c0.06-0.17-2.44-4.34-2.41-4.07c0.24,2.24-0.94,4.29-6.29,7.89c-0.41,0.28,1.69,1.55,4.04,4.22c1.75,1.97,3.01,5.36,3.01,5.36
						C73.78,64.29,72.46,58.15,72.46,58.15z"/>
				</g>
				<g>
					<defs>
						<rect id="SVGID_00000134958468601735918620000018380435586002490245_" y="0" width="120" height="120"/>
					</defs>
					<clipPath id="SVGID_00000118382733137782677390000011511907701933956994_">
						<use xlink:href="#SVGID_00000134958468601735918620000018380435586002490245_"  style="overflow:visible;"/>
					</clipPath>
					<path style="clip-path:url(#SVGID_00000118382733137782677390000011511907701933956994_);fill:#050505;" d="M71.28,71.74
						c1.51-3.7,1.93-7.12,1.97-9.6c0.02-1.24-0.05-2.26-0.13-2.97c-0.04-0.35-0.08-0.63-0.11-0.82c-0.02-0.1-0.03-0.17-0.04-0.22
						c0-0.03-0.01-0.04-0.01-0.06c0-0.01,0-0.01,0-0.02l0,0l0,0l0,0c0,0,0,0-0.49,0.1s-0.49,0.11-0.49,0.1l0,0l0,0l0,0v0.01
						c0,0.01,0.01,0.03,0.01,0.05c0.01,0.04,0.02,0.11,0.03,0.2c0.03,0.17,0.07,0.43,0.11,0.77c0.08,0.67,0.15,1.64,0.13,2.84
						c-0.04,2.39-0.44,5.68-1.9,9.24L71.28,71.74z M67.43,66.52c0.83,0.94,1.56,2.23,2.08,3.31c0.26,0.54,0.47,1.01,0.61,1.36
						c0.07,0.17,0.13,0.31,0.16,0.4c0.02,0.05,0.03,0.08,0.04,0.11c0,0.01,0.01,0.02,0.01,0.03v0.01l0,0l0,0l0,0c0,0,0,0,0.47-0.17
						s0.47-0.17,0.47-0.17l0,0l0,0l0,0c0,0,0,0,0-0.01s-0.01-0.02-0.01-0.03c-0.01-0.03-0.03-0.07-0.04-0.12
						c-0.04-0.1-0.1-0.24-0.17-0.42c-0.15-0.36-0.37-0.85-0.64-1.41c-0.54-1.11-1.32-2.5-2.23-3.53L67.43,66.52z M63.48,61.56
						c-0.11,0.07-0.21,0.19-0.25,0.35c-0.04,0.15-0.01,0.28,0.02,0.37c0.06,0.17,0.17,0.31,0.27,0.42c0.2,0.23,0.53,0.52,0.9,0.85
						c0.77,0.69,1.86,1.65,3.02,2.96l0.75-0.66c-1.2-1.36-2.33-2.36-3.1-3.04c-0.39-0.35-0.66-0.6-0.81-0.77
						c-0.08-0.09-0.08-0.11-0.07-0.08c0.01,0.02,0.03,0.1,0,0.2c-0.03,0.11-0.1,0.18-0.15,0.22L63.48,61.56z M69.55,54.13
						c0.11,0.99-0.09,1.94-0.95,3.08c-0.88,1.17-2.46,2.55-5.12,4.34l0.56,0.83c2.69-1.81,4.38-3.26,5.36-4.57
						c1.01-1.34,1.28-2.54,1.14-3.79L69.55,54.13z M72.94,58.31c0.03-0.09,0.03-0.17,0.03-0.21s-0.01-0.07-0.01-0.1
						c-0.01-0.04-0.02-0.08-0.04-0.11c-0.02-0.06-0.05-0.13-0.09-0.2c-0.07-0.14-0.17-0.33-0.28-0.53
						c-0.23-0.42-0.54-0.95-0.85-1.47s-0.62-1.03-0.85-1.39c-0.12-0.18-0.22-0.33-0.29-0.43c-0.03-0.04-0.08-0.11-0.13-0.16
						c-0.01-0.01-0.04-0.04-0.08-0.06c-0.02-0.01-0.13-0.08-0.28-0.08c-0.09,0-0.2,0.03-0.3,0.1c-0.1,0.07-0.14,0.16-0.17,0.23
						c-0.04,0.11-0.03,0.21-0.03,0.24l0.99-0.1c0,0.02,0.01,0.11-0.03,0.22c-0.02,0.06-0.07,0.15-0.17,0.22s-0.21,0.1-0.3,0.1
						c-0.15,0-0.25-0.07-0.27-0.08c-0.03-0.02-0.05-0.04-0.06-0.05c-0.02-0.02-0.02-0.02,0.02,0.02c0.06,0.07,0.14,0.21,0.26,0.38
						c0.22,0.35,0.53,0.85,0.83,1.36c0.31,0.51,0.61,1.04,0.83,1.44c0.11,0.2,0.2,0.37,0.26,0.49c0.03,0.06,0.05,0.1,0.05,0.12
						c0,0.01,0,0,0-0.01s-0.01-0.03-0.01-0.06c0-0.02-0.01-0.1,0.02-0.18L72.94,58.31z M70.81,71.55l-0.47,0.17
						c0.07,0.19,0.25,0.32,0.46,0.33s0.39-0.12,0.47-0.31L70.81,71.55z M67.81,66.19l-0.37,0.33l0,0L67.81,66.19z M63.76,61.97
						l-0.28-0.41l0,0L63.76,61.97z M70.05,54.08l-0.5,0.05l0,0L70.05,54.08z M72.46,58.15L71.99,58c-0.03,0.08-0.03,0.18-0.01,0.26
						L72.46,58.15z"/>
				</g>
				<g>
					<defs>
						<rect id="SVGID_00000132785145577706050900000017100872090610481306_" y="0" width="120" height="120"/>
					</defs>
					<clipPath id="SVGID_00000035492804586263712900000018250017531124351659_">
						<use xlink:href="#SVGID_00000132785145577706050900000017100872090610481306_"  style="overflow:visible;"/>
					</clipPath>
					<path style="clip-path:url(#SVGID_00000035492804586263712900000018250017531124351659_);fill:#F4F4F4;" d="M54.01,57.11
						c-0.06-0.17,2.99-3.43,2.97-3.15c-0.24,2.24,1.11,4.63,6.47,8.23c0.38,0.26-2.81,1.52-4.58,4.12C57.25,68.66,56,71.55,56,71.55
						C53.1,64.09,54.01,57.11,54.01,57.11z"/>
				</g>
				<g>
					<defs>
						<rect id="SVGID_00000170274833230253407020000010137870153373319580_" y="0" width="120" height="120"/>
					</defs>
					<clipPath id="SVGID_00000176001786324051347830000014608530611915493549_">
						<use xlink:href="#SVGID_00000170274833230253407020000010137870153373319580_"  style="overflow:visible;"/>
					</clipPath>
					<path style="clip-path:url(#SVGID_00000176001786324051347830000014608530611915493549_);fill:#050505;" d="M56.46,71.37
						c-1.42-3.67-1.91-7.23-2.05-9.87c-0.07-1.32-0.04-2.41,0-3.17c0.02-0.38,0.04-0.67,0.06-0.87c0.01-0.1,0.02-0.18,0.02-0.23
						c0-0.02,0.01-0.04,0.01-0.06c0-0.01,0-0.01,0-0.01l0,0l0,0l0,0c0,0,0,0-0.5-0.06s-0.5-0.06-0.5-0.06l0,0l0,0l0,0
						c0,0,0,0.01,0,0.02c0,0.01,0,0.04-0.01,0.06c-0.01,0.06-0.01,0.14-0.02,0.24c-0.02,0.21-0.04,0.52-0.06,0.91
						c-0.04,0.79-0.06,1.91,0,3.27c0.14,2.72,0.64,6.38,2.11,10.18L56.46,71.37z M58.45,66.02c-0.83,1.2-1.55,2.54-2.07,3.57
						c-0.26,0.52-0.47,0.96-0.61,1.27c-0.07,0.16-0.13,0.28-0.17,0.37c-0.02,0.04-0.03,0.08-0.04,0.1c0,0.01-0.01,0.02-0.01,0.03
						v0.01l0,0l0,0l0,0c0,0,0,0,0.46,0.2s0.46,0.2,0.46,0.2l0,0l0,0l0,0c0,0,0,0,0-0.01s0.01-0.01,0.01-0.02
						c0.01-0.02,0.02-0.05,0.04-0.09c0.04-0.08,0.09-0.2,0.16-0.35c0.14-0.3,0.34-0.73,0.6-1.24c0.51-1.01,1.21-2.3,2.01-3.45
						L58.45,66.02z M63.17,62.6c-0.04-0.03-0.1-0.08-0.14-0.16c-0.04-0.09-0.06-0.18-0.05-0.25c0.01-0.07,0.03-0.12,0.04-0.14
						c0.01-0.02,0.02-0.04,0.03-0.04c0,0-0.01,0.01-0.05,0.05c-0.04,0.03-0.09,0.07-0.15,0.11c-0.13,0.09-0.29,0.2-0.49,0.33
						s-0.43,0.28-0.68,0.46c-0.99,0.68-2.29,1.69-3.23,3.07l0.83,0.56c0.83-1.22,2.01-2.14,2.97-2.81c0.24-0.16,0.46-0.31,0.66-0.44
						c0.2-0.13,0.38-0.25,0.52-0.35c0.13-0.1,0.28-0.21,0.38-0.33c0.04-0.05,0.14-0.17,0.16-0.35c0.01-0.1,0-0.21-0.06-0.32
						c-0.05-0.1-0.13-0.17-0.19-0.21L63.17,62.6z M56.48,53.9c-0.27,2.55,1.32,5.09,6.69,8.7l0.56-0.83
						c-5.36-3.6-6.46-5.83-6.25-7.76L56.48,53.9z M54.49,56.95c0.03,0.1,0.03,0.18,0.02,0.22s-0.02,0.07-0.02,0.09
						c-0.01,0.03-0.02,0.04-0.02,0.04c0.01-0.01,0.02-0.03,0.06-0.08c0.07-0.09,0.17-0.22,0.31-0.38c0.27-0.32,0.64-0.73,1.01-1.12
						c0.37-0.4,0.74-0.78,1.02-1.04c0.14-0.13,0.24-0.22,0.3-0.27c0.04-0.03,0.02-0.01-0.03,0.01c-0.02,0.01-0.05,0.02-0.1,0.03
						s-0.15,0.01-0.26-0.04c-0.31-0.13-0.3-0.44-0.29-0.49l1,0.1c0.01-0.07,0.01-0.39-0.3-0.52c-0.12-0.05-0.22-0.04-0.28-0.04
						c-0.06,0.01-0.1,0.02-0.13,0.04c-0.09,0.04-0.17,0.1-0.21,0.13c-0.1,0.08-0.23,0.2-0.38,0.34c-0.29,0.28-0.67,0.67-1.05,1.08
						c-0.38,0.4-0.76,0.83-1.04,1.16c-0.14,0.17-0.26,0.32-0.35,0.43c-0.04,0.06-0.09,0.12-0.12,0.18
						c-0.02,0.03-0.04,0.07-0.06,0.12c-0.01,0.03-0.02,0.07-0.03,0.11s-0.01,0.14,0.02,0.24L54.49,56.95z M56,71.55l-0.47,0.18
						c0.07,0.19,0.25,0.32,0.46,0.32c0.2,0,0.39-0.12,0.47-0.3L56,71.55z M58.86,66.3l0.41,0.28l0,0L58.86,66.3z M63.45,62.19
						l-0.28,0.42l0,0L63.45,62.19z M56.98,53.95l0.5,0.05l0,0L56.98,53.95z M54.01,57.11l0.5,0.06c0.01-0.07,0-0.15-0.02-0.22
						L54.01,57.11z"/>
				</g>
				<g>
					<defs>
						<rect id="SVGID_00000065766069459438488820000016855950148576569748_" y="0" width="120" height="120"/>
					</defs>
					<clipPath id="SVGID_00000162313322976813333450000012094923077215426196_">
						<use xlink:href="#SVGID_00000065766069459438488820000016855950148576569748_"  style="overflow:visible;"/>
					</clipPath>
					<path style="clip-path:url(#SVGID_00000162313322976813333450000012094923077215426196_);fill:#F4F4F4;" d="M56.78,54.01
						c0,0-2.46-0.98-4.57,2.09c0,0-6.27,7.93-5.96,15.46c0,0,12.93,5.27,14.53,9.79c0,0-10.33-19.46-4-27.32V54.01z"/>
				</g>
				<g>
					<defs>
						<rect id="SVGID_00000110440830386194134200000013694523951889180060_" y="0" width="120" height="120"/>
					</defs>
					<clipPath id="SVGID_00000066495905285917350340000012693872989750100096_">
						<use xlink:href="#SVGID_00000110440830386194134200000013694523951889180060_"  style="overflow:visible;"/>
					</clipPath>
					<path style="clip-path:url(#SVGID_00000066495905285917350340000012693872989750100096_);fill:#050505;" d="M57.28,54.02
						L57.28,54.02l-1-0.01v0.01H57.28z M60.78,81.35c0.44-0.23,0.44-0.23,0.44-0.23l0,0l0,0c0,0,0-0.01-0.01-0.01
						c0-0.01-0.01-0.02-0.02-0.04c-0.02-0.04-0.05-0.09-0.08-0.16c-0.07-0.14-0.18-0.35-0.31-0.62c-0.27-0.54-0.64-1.33-1.08-2.29
						c-0.86-1.94-1.95-4.59-2.84-7.49s-1.57-6.02-1.65-8.89c-0.08-2.87,0.46-5.42,1.94-7.26l-0.78-0.63
						c-1.69,2.1-2.24,4.93-2.16,7.91c0.08,2.99,0.79,6.21,1.69,9.16c0.9,2.95,2,5.65,2.88,7.61c0.44,0.98,0.82,1.78,1.09,2.33
						c0.14,0.28,0.25,0.49,0.32,0.64c0.04,0.07,0.07,0.13,0.09,0.17c0.01,0.02,0.02,0.03,0.02,0.04c0,0,0,0.01,0.01,0.01l0,0l0,0
						C60.34,81.58,60.34,81.58,60.78,81.35z M46.25,71.55c-0.19,0.46-0.19,0.46-0.19,0.46l0,0l0,0c0,0,0,0,0.01,0
						s0.01,0.01,0.03,0.01c0.02,0.01,0.06,0.02,0.11,0.04c0.09,0.04,0.23,0.1,0.41,0.17c0.35,0.15,0.86,0.37,1.48,0.65
						c1.23,0.56,2.88,1.36,4.59,2.29c1.7,0.94,3.44,2,4.85,3.11c1.43,1.12,2.43,2.22,2.78,3.21l0.94-0.33
						c-0.45-1.27-1.66-2.53-3.11-3.67c-1.47-1.15-3.26-2.25-4.99-3.2s-3.41-1.75-4.65-2.32c-0.62-0.28-1.14-0.51-1.5-0.66
						c-0.18-0.08-0.32-0.14-0.42-0.18c-0.05-0.02-0.09-0.04-0.11-0.05c-0.01-0.01-0.02-0.01-0.03-0.01h-0.01l0,0l0,0
						C46.44,71.09,46.44,71.09,46.25,71.55z M52.21,56.1c-0.39-0.31-0.39-0.31-0.39-0.31l0,0l0,0c0,0,0,0,0,0.01
						c0,0-0.01,0.01-0.01,0.02c-0.01,0.02-0.03,0.04-0.05,0.07c-0.05,0.06-0.12,0.15-0.2,0.27c-0.17,0.24-0.42,0.58-0.72,1.02
						c-0.59,0.87-1.38,2.12-2.15,3.6c-1.54,2.95-3.08,6.91-2.92,10.8l1-0.04c-0.15-3.63,1.29-7.4,2.81-10.3
						c0.75-1.44,1.52-2.65,2.09-3.5c0.29-0.42,0.53-0.76,0.69-0.99c0.08-0.11,0.15-0.2,0.19-0.26c0.02-0.03,0.04-0.05,0.05-0.06
						c0.01-0.01,0.01-0.01,0.01-0.02l0,0l0,0l0,0C52.6,56.41,52.6,56.41,52.21,56.1z M56.78,54.01c0.19-0.46,0.18-0.46,0.18-0.46
						l0,0l0,0l0,0h-0.01c-0.01,0-0.02-0.01-0.03-0.01c-0.03-0.01-0.06-0.02-0.11-0.03c-0.09-0.03-0.21-0.06-0.36-0.08
						c-0.31-0.05-0.73-0.08-1.24,0c-1.02,0.16-2.28,0.76-3.41,2.4l0.82,0.57c0.98-1.43,2.01-1.87,2.74-1.98
						c0.38-0.06,0.69-0.04,0.92,0c0.11,0.02,0.19,0.04,0.25,0.06c0.03,0.01,0.05,0.01,0.06,0.02c0.01,0,0.01,0,0.01,0l0,0l0,0l0,0
						l0,0C56.59,54.47,56.59,54.47,56.78,54.01z M56.78,54.02l0.39,0.31c0.07-0.09,0.11-0.2,0.11-0.31H56.78z M60.78,81.35
						l-0.44,0.23c0.12,0.23,0.4,0.33,0.64,0.22c0.24-0.11,0.36-0.38,0.27-0.62L60.78,81.35z M46.25,71.55l-0.5,0.02
						c0.01,0.2,0.13,0.37,0.31,0.44L46.25,71.55z M52.21,56.1l0.39,0.31c0.01-0.01,0.01-0.02,0.02-0.03L52.21,56.1z M56.78,54.01
						h0.5c0-0.2-0.12-0.39-0.31-0.46L56.78,54.01z"/>
				</g>
				<g>
					<defs>
						<rect id="SVGID_00000104675791222541985280000005339310188269840807_" y="0" width="120" height="120"/>
					</defs>
					<clipPath id="SVGID_00000130636935420128072060000015952723574808797612_">
						<use xlink:href="#SVGID_00000104675791222541985280000005339310188269840807_"  style="overflow:visible;"/>
					</clipPath>
					<path style="clip-path:url(#SVGID_00000130636935420128072060000015952723574808797612_);fill:#F4F4F4;" d="M70.23,54.01
						c0,0,2.46-0.98,4.57,2.09c0,0,6.27,7.93,5.96,15.46c0,0-12.82,5.27-14.41,9.79c0,0,10.22-19.46,3.87-27.32L70.23,54.01
						L70.23,54.01z"/>
				</g>
				<g>
					<defs>
						<rect id="SVGID_00000123431517008961845930000001058281176272841392_" y="0" width="120" height="120"/>
					</defs>
					<clipPath id="SVGID_00000143601596083848384370000012371330063488689807_">
						<use xlink:href="#SVGID_00000123431517008961845930000001058281176272841392_"  style="overflow:visible;"/>
					</clipPath>
					<path style="clip-path:url(#SVGID_00000143601596083848384370000012371330063488689807_);fill:#050505;" d="M70.73,54.02
						L70.73,54.02l-1-0.01v0.01H70.73z M66.36,81.35c0.44,0.23,0.44,0.23,0.44,0.23l0,0l0,0c0,0,0-0.01,0.01-0.01
						c0.01-0.01,0.01-0.02,0.02-0.04c0.02-0.04,0.05-0.09,0.09-0.17c0.07-0.15,0.18-0.36,0.32-0.64c0.27-0.55,0.65-1.35,1.08-2.33
						c0.86-1.96,1.95-4.66,2.84-7.61s1.58-6.16,1.65-9.16c0.07-2.99-0.49-5.82-2.18-7.91l-0.78,0.63c1.48,1.84,2.02,4.39,1.96,7.26
						c-0.06,2.87-0.73,5.99-1.61,8.89c-0.87,2.9-1.94,5.56-2.8,7.49c-0.43,0.97-0.8,1.75-1.06,2.29c-0.13,0.27-0.24,0.48-0.31,0.62
						c-0.04,0.07-0.06,0.13-0.08,0.16c-0.01,0.02-0.02,0.03-0.02,0.04c0,0,0,0.01-0.01,0.01l0,0l0,0
						C65.92,81.11,65.92,81.11,66.36,81.35z M80.76,71.55c-0.19-0.46-0.19-0.46-0.19-0.46l0,0l0,0c0,0,0,0-0.01,0
						s-0.02,0.01-0.03,0.01c-0.02,0.01-0.06,0.03-0.11,0.05c-0.1,0.04-0.24,0.1-0.41,0.18c-0.36,0.15-0.87,0.38-1.48,0.66
						c-1.23,0.57-2.9,1.37-4.61,2.32s-3.49,2.05-4.95,3.2c-1.44,1.14-2.64,2.39-3.08,3.67l0.94,0.33c0.35-0.99,1.35-2.09,2.76-3.21
						c1.39-1.11,3.12-2.17,4.81-3.11c1.69-0.93,3.33-1.73,4.55-2.29c0.61-0.28,1.11-0.5,1.46-0.65c0.18-0.08,0.31-0.13,0.41-0.17
						c0.05-0.02,0.08-0.03,0.11-0.04c0.01,0,0.02-0.01,0.03-0.01h0.01l0,0l0,0C80.95,72.01,80.95,72.01,80.76,71.55z M74.8,56.1
						c-0.39,0.31-0.39,0.31-0.39,0.31l0,0l0,0l0,0c0,0,0.01,0.01,0.01,0.02c0.01,0.01,0.03,0.04,0.05,0.06
						c0.04,0.06,0.11,0.14,0.19,0.26c0.17,0.23,0.41,0.56,0.69,0.99c0.58,0.85,1.34,2.06,2.09,3.5c1.52,2.9,2.96,6.67,2.81,10.3
						l1,0.04c0.16-3.89-1.38-7.85-2.92-10.8c-0.78-1.48-1.56-2.73-2.15-3.6c-0.3-0.44-0.54-0.78-0.72-1.02
						c-0.09-0.12-0.16-0.21-0.2-0.27c-0.02-0.03-0.04-0.05-0.05-0.07c-0.01-0.01-0.01-0.01-0.01-0.02c0,0,0,0,0-0.01l0,0l0,0
						C75.2,55.79,75.19,55.79,74.8,56.1z M70.23,54.01c0.19,0.46,0.18,0.46,0.18,0.46l0,0l0,0l0,0l0,0c0,0,0,0,0.01,0
						s0.03-0.01,0.06-0.02c0.05-0.02,0.14-0.04,0.25-0.06c0.22-0.04,0.54-0.06,0.92,0c0.74,0.12,1.76,0.56,2.74,1.98l0.82-0.57
						c-1.13-1.64-2.39-2.24-3.41-2.4c-0.5-0.08-0.93-0.05-1.24,0c-0.15,0.03-0.28,0.06-0.36,0.08c-0.04,0.01-0.08,0.02-0.11,0.03
						c-0.01,0-0.02,0.01-0.03,0.01h-0.01l0,0l0,0l0,0C70.05,53.55,70.05,53.55,70.23,54.01z M70.23,54.02h-0.5
						c0,0.11,0.04,0.23,0.11,0.31L70.23,54.02z M66.36,81.35l-0.47-0.17c-0.09,0.25,0.03,0.52,0.27,0.62
						c0.24,0.1,0.52,0.01,0.64-0.23L66.36,81.35z M80.76,71.55l0.19,0.46c0.18-0.07,0.3-0.25,0.31-0.44L80.76,71.55z M74.8,56.1
						l-0.41,0.28c0.01,0.01,0.01,0.02,0.02,0.03L74.8,56.1z M70.23,54.01l-0.19-0.46c-0.19,0.08-0.31,0.26-0.31,0.46H70.23z"/>
				</g>
				<g>
					<defs>
						<rect id="SVGID_00000091000784004626550010000014784764194385285269_" y="0" width="120" height="120"/>
					</defs>
					<clipPath id="SVGID_00000090270470868428843810000003758779945595061419_">
						<use xlink:href="#SVGID_00000091000784004626550010000014784764194385285269_"  style="overflow:visible;"/>
					</clipPath>
					<path style="clip-path:url(#SVGID_00000090270470868428843810000003758779945595061419_);fill:#F4F4F4;" d="M52.59,35.86
						c0.71,2.13,2.2,5.82,0.23,6.47c-1.96,0.65-4.09-0.16-5.97-4.29c-0.94-2.04-0.14-4.74,1.83-5.39S51.88,33.73,52.59,35.86z"/>
				</g>
				<g>
					<defs>
						<rect id="SVGID_00000170258273567622739000000015555695770996924072_" y="0" width="120" height="120"/>
					</defs>
					<clipPath id="SVGID_00000049183614994674883050000017404111148149391003_">
						<use xlink:href="#SVGID_00000170258273567622739000000015555695770996924072_"  style="overflow:visible;"/>
					</clipPath>
					<path style="clip-path:url(#SVGID_00000049183614994674883050000017404111148149391003_);fill:#050505;" d="M48.83,33.13
						c0.41-0.14,0.76-0.14,1.06-0.06c0.3,0.08,0.59,0.25,0.87,0.51c0.56,0.53,1.01,1.41,1.36,2.44l0.95-0.32
						c-0.36-1.09-0.88-2.15-1.61-2.85c-0.37-0.36-0.81-0.63-1.31-0.76c-0.51-0.13-1.05-0.11-1.63,0.08L48.83,33.13z M47.3,37.84
						c-0.41-0.9-0.45-1.96-0.15-2.86c0.29-0.9,0.89-1.59,1.69-1.85l-0.31-0.95c-1.17,0.39-1.96,1.37-2.32,2.5
						c-0.36,1.12-0.33,2.44,0.2,3.58L47.3,37.84z M52.66,41.86c-0.85,0.28-1.72,0.25-2.59-0.3c-0.9-0.56-1.85-1.7-2.77-3.72
						l-0.91,0.42c0.96,2.11,2.02,3.44,3.15,4.15c1.15,0.73,2.33,0.77,3.44,0.4L52.66,41.86z M52.12,36.02
						c0.37,1.1,0.89,2.49,1.1,3.71c0.1,0.61,0.11,1.11,0.01,1.48c-0.09,0.34-0.26,0.54-0.57,0.64l0.31,0.95
						c0.68-0.22,1.06-0.73,1.22-1.33c0.15-0.57,0.12-1.25,0.01-1.91c-0.22-1.32-0.79-2.83-1.14-3.86L52.12,36.02z M46.84,38.05
						l0.45-0.21l0,0L46.84,38.05z M52.82,42.33l-0.16-0.47l0,0L52.82,42.33z"/>
				</g>
				<g>
					<defs>
						<rect id="SVGID_00000055707487342622004410000004283744317558601381_" y="0" width="120" height="120"/>
					</defs>
					<clipPath id="SVGID_00000008829271763293976530000001221703053321742212_">
						<use xlink:href="#SVGID_00000055707487342622004410000004283744317558601381_"  style="overflow:visible;"/>
					</clipPath>
					<path style="clip-path:url(#SVGID_00000008829271763293976530000001221703053321742212_);fill:#F4F4F4;" d="M74.86,35.86
						c-0.71,2.13-2.2,5.82-0.23,6.47c1.96,0.65,4.09-0.16,5.97-4.29c0.94-2.04,0.14-4.74-1.83-5.39S75.57,33.73,74.86,35.86z"/>
				</g>
				<g>
					<defs>
						<rect id="SVGID_00000093898116242508645270000001310643119676196258_" y="0" width="120" height="120"/>
					</defs>
					<clipPath id="SVGID_00000078025108444600938100000003606489496633211040_">
						<use xlink:href="#SVGID_00000093898116242508645270000001310643119676196258_"  style="overflow:visible;"/>
					</clipPath>
					<path style="clip-path:url(#SVGID_00000078025108444600938100000003606489496633211040_);fill:#050505;" d="M78.93,32.18
						c-0.57-0.19-1.12-0.21-1.63-0.08c-0.5,0.13-0.94,0.4-1.31,0.76c-0.73,0.7-1.25,1.76-1.61,2.85l0.95,0.32
						c0.34-1.03,0.8-1.91,1.36-2.44c0.27-0.26,0.56-0.43,0.87-0.51c0.3-0.08,0.65-0.07,1.06,0.06L78.93,32.18z M81.06,38.26
						c0.52-1.14,0.56-2.46,0.2-3.58s-1.15-2.11-2.32-2.5l-0.31,0.95c0.8,0.26,1.4,0.96,1.69,1.85c0.29,0.9,0.26,1.95-0.15,2.86
						L81.06,38.26z M74.47,42.81c1.1,0.37,2.28,0.33,3.44-0.4c1.13-0.71,2.19-2.04,3.15-4.15l-0.91-0.42
						c-0.92,2.02-1.88,3.16-2.77,3.72c-0.87,0.55-1.74,0.58-2.59,0.3L74.47,42.81z M74.39,35.7c-0.34,1.03-0.91,2.54-1.14,3.86
						c-0.11,0.66-0.15,1.33,0.01,1.91c0.16,0.6,0.54,1.11,1.22,1.33l0.31-0.95c-0.31-0.1-0.48-0.31-0.57-0.64
						c-0.1-0.37-0.09-0.87,0.01-1.48c0.21-1.22,0.74-2.62,1.1-3.71L74.39,35.7z M80.61,38.05l-0.45-0.21l0,0L80.61,38.05z
						 M74.63,42.33l0.16-0.47l0,0L74.63,42.33z"/>
				</g>
				<g>
					<defs>
						<rect id="SVGID_00000029736297460006676980000011429384556744887231_" y="0" width="120" height="120"/>
					</defs>
					<clipPath id="SVGID_00000163783136355033108180000001139794000940984757_">
						<use xlink:href="#SVGID_00000029736297460006676980000011429384556744887231_"  style="overflow:visible;"/>
					</clipPath>
					<path style="clip-path:url(#SVGID_00000163783136355033108180000001139794000940984757_);fill:#F4F4F4;" d="M77.78,28.95
						c-0.2,11.69-3.63,24.23-14.14,24.23c-11.2,0-14.14-14.15-14.14-24.23S56.69,11.78,64,11.78s13.96,7.1,13.79,17.17H77.78z"/>
				</g>
				<g>
					<defs>
						<rect id="SVGID_00000171716752854228482560000005684563337517978249_" y="0" width="120" height="120"/>
					</defs>
					<clipPath id="SVGID_00000084508900013879887560000000616547352412432310_">
						<use xlink:href="#SVGID_00000171716752854228482560000005684563337517978249_"  style="overflow:visible;"/>
					</clipPath>
					<g style="clip-path:url(#SVGID_00000084508900013879887560000000616547352412432310_);">
						<g>
							<defs>
								<path id="SVGID_00000109718482635597829620000011325571499741927059_" d="M77.78,28.95c-0.2,11.69-3.63,24.23-14.14,24.23
									c-11.2,0-14.14-14.15-14.14-24.23S56.69,11.78,64,11.78s13.96,7.1,13.79,17.17H77.78z"/>
							</defs>
							<clipPath id="SVGID_00000117667232717829262270000014332617464800656768_">
								<use xlink:href="#SVGID_00000109718482635597829620000011325571499741927059_"  style="overflow:visible;"/>
							</clipPath>
							<path style="clip-path:url(#SVGID_00000117667232717829262270000014332617464800656768_);fill:#050505;" d="M77.79,27.95
								h-0.01v2h0.01V27.95z M64,12.78c6.61,0,12.95,6.49,12.79,16.16l2,0.03C78.97,18.48,72.01,10.78,64,10.78V12.78z M50.49,28.95
								c0-9.63,6.86-16.17,13.51-16.17v-2c-7.96,0-15.51,7.65-15.51,18.17H50.49z M63.63,52.18c-5.06,0-8.31-3.15-10.36-7.74
								c-2.06-4.62-2.79-10.52-2.79-15.49h-2c0,5.11,0.74,11.32,2.96,16.3c2.23,5,6.04,8.93,12.18,8.93v-2H63.63z M76.78,28.93
								c-0.1,5.78-1,11.67-3.1,16.08c-2.09,4.37-5.29,7.16-10.04,7.16v2c5.77,0,9.54-3.48,11.84-8.3c2.28-4.78,3.2-11,3.3-16.91
								L76.78,28.93z M77.79,28.95v1h0.98l0.02-0.98L77.79,28.95z M77.78,28.95v-1H76.8l-0.02,0.98L77.78,28.95z"/>
						</g>
					</g>
				</g>
				<g>
					<defs>
						<rect id="SVGID_00000083811380557882321910000017477897907760721541_" y="0" width="120" height="120"/>
					</defs>
					<clipPath id="SVGID_00000013872447946759035820000002113299202642315143_">
						<use xlink:href="#SVGID_00000083811380557882321910000017477897907760721541_"  style="overflow:visible;"/>
					</clipPath>
					<path style="clip-path:url(#SVGID_00000013872447946759035820000002113299202642315143_);fill:#050505;" d="M63.27,52.48
						c-5.36-0.37-8.3-3.93-9.93-7.5c-0.81-1.78-1.29-3.55-1.56-4.87c-0.13-0.66-0.22-1.21-0.27-1.59c-0.02-0.19-0.04-0.34-0.05-0.44
						c-0.01-0.05-0.01-0.09-0.01-0.11c0-0.01,0-0.02,0-0.03c0,0,0,0,0-0.01l0,0l0,0c0,0,0,0-0.5,0.04C50.45,38,50.45,38,50.45,38
						l0,0l0,0v0.01c0,0.01,0,0.02,0,0.03c0,0.03,0.01,0.07,0.01,0.13c0.01,0.11,0.03,0.27,0.05,0.47c0.05,0.4,0.14,0.97,0.28,1.66
						c0.28,1.37,0.77,3.22,1.63,5.09c1.71,3.74,4.91,7.69,10.78,8.09L63.27,52.48z M51.44,37.92c-0.02-0.28-0.26-0.48-0.54-0.46
						c-0.28,0.02-0.48,0.26-0.46,0.54L51.44,37.92z M63.2,53.48c0.28,0.02,0.51-0.19,0.53-0.46c0.02-0.28-0.19-0.51-0.46-0.53
						L63.2,53.48z"/>
				</g>
				<g>
					<defs>
						<rect id="SVGID_00000172416510033721444660000014939525245419872904_" y="0" width="120" height="120"/>
					</defs>
					<clipPath id="SVGID_00000020362434578230658050000008531476799268419752_">
						<use xlink:href="#SVGID_00000172416510033721444660000014939525245419872904_"  style="overflow:visible;"/>
					</clipPath>
					<path style="clip-path:url(#SVGID_00000020362434578230658050000008531476799268419752_);fill:#050505;" d="M76.55,37.82
						c-0.5-0.03-0.5-0.03-0.5-0.03l0,0l0,0c0,0,0,0,0,0.01s0,0.02,0,0.03c0,0.03,0,0.06-0.01,0.11c-0.01,0.1-0.02,0.25-0.05,0.44
						c-0.04,0.38-0.12,0.94-0.25,1.61c-0.25,1.34-0.7,3.12-1.5,4.92c-1.59,3.61-4.49,7.21-9.84,7.58l0.07,1
						c5.87-0.41,9.02-4.39,10.69-8.18c0.83-1.89,1.3-3.75,1.56-5.14c0.13-0.69,0.21-1.27,0.26-1.68c0.02-0.2,0.04-0.36,0.05-0.47
						c0-0.06,0.01-0.1,0.01-0.13c0-0.01,0-0.03,0-0.03v-0.01l0,0l0,0C77.05,37.85,77.05,37.85,76.55,37.82z M64.41,52.49
						c-0.28,0.02-0.48,0.26-0.46,0.53c0.02,0.28,0.26,0.48,0.53,0.46L64.41,52.49z M77.05,37.85c0.02-0.28-0.19-0.51-0.47-0.53
						s-0.51,0.19-0.53,0.47L77.05,37.85z"/>
				</g>
				<g>
					<defs>
						<rect id="SVGID_00000081618526645641335290000013058130966535614125_" y="0" width="120" height="120"/>
					</defs>
					<clipPath id="SVGID_00000166670477093953728800000001803879942673070472_">
						<use xlink:href="#SVGID_00000081618526645641335290000013058130966535614125_"  style="overflow:visible;"/>
					</clipPath>
					<path style="clip-path:url(#SVGID_00000166670477093953728800000001803879942673070472_);fill:#050505;" d="M71.44,36.25
						c-0.06,0.75-0.68,1.32-1.37,1.26s-1.2-0.72-1.14-1.47s0.68-1.32,1.37-1.26C70.99,34.84,71.5,35.5,71.44,36.25z"/>
				</g>
				<g>
					<defs>
						<rect id="SVGID_00000005224759683469516880000012842838001929515400_" y="0" width="120" height="120"/>
					</defs>
					<clipPath id="SVGID_00000129910916706709083180000015811689904293120395_">
						<use xlink:href="#SVGID_00000005224759683469516880000012842838001929515400_"  style="overflow:visible;"/>
					</clipPath>
					<g style="clip-path:url(#SVGID_00000129910916706709083180000015811689904293120395_);">
						<g>
							<defs>
								<path id="SVGID_00000089541467674207064740000016214808306408671908_" d="M71.44,36.25c-0.06,0.75-0.68,1.32-1.37,1.26
									s-1.2-0.72-1.14-1.47s0.68-1.32,1.37-1.26S71.5,35.5,71.44,36.25z"/>
							</defs>
							<clipPath id="SVGID_00000016797736197869729010000000696107513882052489_">
								<use xlink:href="#SVGID_00000089541467674207064740000016214808306408671908_"  style="overflow:visible;"/>
							</clipPath>
							<path style="clip-path:url(#SVGID_00000016797736197869729010000000696107513882052489_);fill:#050505;" d="M70.22,35.77
								c0.04,0,0.1,0.02,0.15,0.09s0.09,0.18,0.08,0.3l1.99,0.16c0.1-1.22-0.73-2.43-2.05-2.55L70.22,35.77z M69.93,36.12
								c0.01-0.12,0.06-0.22,0.13-0.28c0.06-0.06,0.12-0.07,0.15-0.06l0.17-1.99c-1.32-0.12-2.35,0.96-2.45,2.18L69.93,36.12z
								 M70.16,36.51c-0.04,0-0.1-0.02-0.15-0.09s-0.09-0.18-0.08-0.3l-1.99-0.16c-0.1,1.22,0.73,2.43,2.05,2.55L70.16,36.51z
								 M70.45,36.17c-0.01,0.12-0.06,0.22-0.13,0.28c-0.06,0.06-0.12,0.07-0.15,0.06L70,38.5c1.32,0.12,2.35-0.96,2.45-2.18
								L70.45,36.17z"/>
						</g>
					</g>
				</g>
				<g>
					<defs>
						<rect id="SVGID_00000027563296180291763750000006407913369971795106_" y="0" width="120" height="120"/>
					</defs>
					<clipPath id="SVGID_00000116206670157915972210000004539966247131876526_">
						<use xlink:href="#SVGID_00000027563296180291763750000006407913369971795106_"  style="overflow:visible;"/>
					</clipPath>
					<path style="clip-path:url(#SVGID_00000116206670157915972210000004539966247131876526_);fill:#050505;" d="M59.22,35.24
						c-0.06,0.75-0.68,1.32-1.37,1.26s-1.2-0.72-1.14-1.47s0.68-1.32,1.37-1.26S59.28,34.49,59.22,35.24z"/>
				</g>
				<g>
					<defs>
						<rect id="SVGID_00000101812055821490155620000007835928167914702748_" y="0" width="120" height="120"/>
					</defs>
					<clipPath id="SVGID_00000052066836907807547040000008069602856221383062_">
						<use xlink:href="#SVGID_00000101812055821490155620000007835928167914702748_"  style="overflow:visible;"/>
					</clipPath>
					<g style="clip-path:url(#SVGID_00000052066836907807547040000008069602856221383062_);">
						<g>
							<defs>
								<path id="SVGID_00000011752733447934079850000012000874880793940402_" d="M59.22,35.24c-0.06,0.75-0.68,1.32-1.37,1.26
									s-1.2-0.72-1.14-1.47s0.68-1.32,1.37-1.26S59.28,34.49,59.22,35.24z"/>
							</defs>
							<clipPath id="SVGID_00000041296796196669329630000017901863681589290675_">
								<use xlink:href="#SVGID_00000011752733447934079850000012000874880793940402_"  style="overflow:visible;"/>
							</clipPath>
							<path style="clip-path:url(#SVGID_00000041296796196669329630000017901863681589290675_);fill:#050505;" d="M57.99,34.77
								c0.04,0,0.1,0.02,0.15,0.09c0.05,0.07,0.09,0.18,0.08,0.3l1.99,0.16c0.1-1.22-0.73-2.43-2.05-2.55L57.99,34.77z M57.71,35.11
								c0.01-0.12,0.06-0.22,0.13-0.28c0.06-0.06,0.12-0.07,0.15-0.06l0.17-1.99c-1.32-0.12-2.35,0.96-2.45,2.18L57.71,35.11z
								 M57.94,35.51c-0.04,0-0.1-0.02-0.15-0.09c-0.05-0.07-0.09-0.18-0.08-0.3l-1.99-0.16c-0.1,1.22,0.73,2.43,2.05,2.55
								L57.94,35.51z M58.22,35.16c-0.01,0.12-0.06,0.22-0.13,0.28c-0.06,0.06-0.12,0.07-0.15,0.06l-0.17,1.99
								c1.32,0.12,2.35-0.96,2.45-2.18L58.22,35.16z"/>
						</g>
					</g>
				</g>
				<g>
					<defs>
						<rect id="SVGID_00000059292382117824360230000000901478207196791950_" y="0" width="120" height="120"/>
					</defs>
					<clipPath id="SVGID_00000057839674625008727770000001947520090324807826_">
						<use xlink:href="#SVGID_00000059292382117824360230000000901478207196791950_"  style="overflow:visible;"/>
					</clipPath>
					<path style="clip-path:url(#SVGID_00000057839674625008727770000001947520090324807826_);fill:#050505;" d="M55.2,30.19
						c0.34-0.37,0.34-0.37,0.34-0.37l0,0l0,0l0,0l0,0c0,0,0.01,0.01,0.02,0.02c0.02,0.01,0.04,0.04,0.08,0.06
						c0.07,0.06,0.18,0.14,0.31,0.23c0.28,0.18,0.66,0.4,1.12,0.55c0.9,0.29,2.06,0.33,3.24-0.7l0.66,0.75
						c-1.5,1.31-3.05,1.27-4.21,0.9c-0.57-0.18-1.04-0.45-1.36-0.66c-0.16-0.11-0.29-0.21-0.38-0.28c-0.05-0.04-0.08-0.07-0.11-0.09
						c-0.01-0.01-0.02-0.02-0.03-0.03l-0.01-0.01l0,0l0,0l0,0C54.86,30.56,54.86,30.56,55.2,30.19z M60.3,29.98
						c0.21-0.18,0.52-0.16,0.71,0.05c0.18,0.21,0.16,0.52-0.05,0.71L60.3,29.98z M54.86,30.56c-0.2-0.19-0.22-0.5-0.03-0.71
						c0.19-0.2,0.5-0.22,0.71-0.03L54.86,30.56z"/>
				</g>
				<g>
					<defs>
						<rect id="SVGID_00000183963554506610132210000002101831741767767448_" y="0" width="120" height="120"/>
					</defs>
					<clipPath id="SVGID_00000116226437936134606590000013337785039262101388_">
						<use xlink:href="#SVGID_00000183963554506610132210000002101831741767767448_"  style="overflow:visible;"/>
					</clipPath>
					<path style="clip-path:url(#SVGID_00000116226437936134606590000013337785039262101388_);fill:#050505;" d="M73.58,32.87
						c0.39-0.31,0.39-0.31,0.39-0.31l0,0l0,0l0,0c0,0,0-0.01-0.01-0.01c-0.01-0.01-0.01-0.02-0.03-0.03
						c-0.02-0.03-0.05-0.06-0.09-0.1c-0.08-0.09-0.19-0.2-0.33-0.34c-0.29-0.27-0.71-0.6-1.23-0.88c-1.07-0.56-2.6-0.86-4.29,0.2
						l0.53,0.85c1.33-0.82,2.46-0.6,3.3-0.16c0.43,0.22,0.77,0.5,1.02,0.72c0.12,0.11,0.21,0.21,0.27,0.28
						c0.03,0.03,0.05,0.06,0.07,0.08c0.01,0.01,0.01,0.01,0.01,0.02l0,0l0,0l0,0l0,0C73.18,33.18,73.18,33.18,73.58,32.87z
						 M67.98,31.39c-0.23,0.15-0.31,0.45-0.16,0.69c0.15,0.23,0.45,0.31,0.69,0.16L67.98,31.39z M73.18,33.18
						c0.17,0.22,0.49,0.25,0.7,0.08c0.22-0.17,0.25-0.49,0.08-0.7L73.18,33.18z"/>
				</g>
				<g>
					<defs>
						<rect id="SVGID_00000016774003990831486040000018223222309214434749_" y="0" width="120" height="120"/>
					</defs>
					<clipPath id="SVGID_00000083790984387267267130000012160281451527269022_">
						<use xlink:href="#SVGID_00000016774003990831486040000018223222309214434749_"  style="overflow:visible;"/>
					</clipPath>
					<path style="clip-path:url(#SVGID_00000083790984387267267130000012160281451527269022_);fill:#050505;" d="M63.06,41.87
						L63,42.64l1,0.08l0.06-0.77L63.06,41.87z M63,42.64c-0.02,0.28,0.18,0.52,0.46,0.54S63.98,43,64,42.72L63,42.64z M64.06,41.95
						c0.02-0.28-0.18-0.52-0.46-0.54s-0.52,0.18-0.54,0.46L64.06,41.95z"/>
				</g>
				<g>
					<defs>
						<rect id="SVGID_00000117659913974340465870000014748210663715689609_" y="0" width="120" height="120"/>
					</defs>
					<clipPath id="SVGID_00000097499918305120994570000001840335229069223611_">
						<use xlink:href="#SVGID_00000117659913974340465870000014748210663715689609_"  style="overflow:visible;"/>
					</clipPath>
					<path style="clip-path:url(#SVGID_00000097499918305120994570000001840335229069223611_);fill:#050505;" d="M61.53,47.36
						c0.29,0.41,0.29,0.41,0.29,0.41l0,0l0,0l0,0l0,0l0,0c0.01,0,0.02-0.01,0.03-0.02c0.03-0.02,0.08-0.05,0.15-0.08
						c0.14-0.06,0.33-0.14,0.58-0.18c0.48-0.08,1.18-0.04,1.99,0.55l0.59-0.81c-1.04-0.75-2.01-0.84-2.73-0.72
						c-0.36,0.06-0.64,0.17-0.84,0.26c-0.1,0.05-0.18,0.09-0.24,0.13c-0.03,0.02-0.05,0.03-0.07,0.04
						c-0.01,0.01-0.02,0.01-0.02,0.01h-0.01l0,0l0,0l0,0C61.24,46.96,61.24,46.96,61.53,47.36z M64.57,48.04
						c0.22,0.16,0.54,0.11,0.7-0.11c0.16-0.22,0.11-0.54-0.11-0.7L64.57,48.04z M61.24,46.96c-0.22,0.16-0.28,0.47-0.11,0.7
						c0.16,0.22,0.47,0.28,0.7,0.11L61.24,46.96z"/>
				</g>
				<g>
					<defs>
						<rect id="SVGID_00000102538807728392788010000001293943938645785766_" y="0" width="120" height="120"/>
					</defs>
					<clipPath id="SVGID_00000000942352399863118070000004609423338153706427_">
						<use xlink:href="#SVGID_00000102538807728392788010000001293943938645785766_"  style="overflow:visible;"/>
					</clipPath>
					<path style="clip-path:url(#SVGID_00000000942352399863118070000004609423338153706427_);fill:#F4F4F4;" d="M77.53,29.33
						c0,1.42-0.68,7.12-0.68,7.12s2.63-3.43,2.95-6.16c0.17-1.42-0.33-3.55-1.01-3.55S77.54,27.89,77.53,29.33L77.53,29.33
						L77.53,29.33z"/>
				</g>
				<g>
					<defs>
						<rect id="SVGID_00000097478240275569575000000005863432814791357605_" y="0" width="120" height="120"/>
					</defs>
					<clipPath id="SVGID_00000157285720811389905210000004538364426164268223_">
						<use xlink:href="#SVGID_00000097478240275569575000000005863432814791357605_"  style="overflow:visible;"/>
					</clipPath>
					<path style="clip-path:url(#SVGID_00000157285720811389905210000004538364426164268223_);fill:#050505;" d="M77.54,28.83h-0.01
						v1h0.01V28.83z M78.79,26.25c-0.64,0-1.08,0.52-1.33,1.04c-0.27,0.55-0.42,1.27-0.42,2.05h1c0-0.66,0.13-1.23,0.32-1.61
						c0.2-0.42,0.39-0.47,0.43-0.47V26.25z M80.29,30.36c0.09-0.78,0-1.73-0.2-2.49c-0.1-0.38-0.24-0.74-0.41-1.03
						c-0.16-0.25-0.45-0.59-0.89-0.59v1c-0.1,0-0.07-0.07,0.05,0.12c0.1,0.16,0.21,0.42,0.29,0.75c0.17,0.66,0.25,1.48,0.17,2.12
						L80.29,30.36z M76.85,36.46c0.4,0.3,0.4,0.3,0.4,0.3l0,0l0,0l0,0c0,0,0,0,0.01-0.01s0.01-0.02,0.02-0.03
						c0.02-0.03,0.05-0.07,0.09-0.12c0.07-0.1,0.18-0.25,0.31-0.44c0.26-0.37,0.6-0.9,0.96-1.51c0.7-1.21,1.49-2.82,1.66-4.29
						l-0.99-0.12c-0.15,1.26-0.84,2.72-1.53,3.91c-0.34,0.59-0.67,1.09-0.92,1.45c-0.12,0.18-0.22,0.32-0.29,0.42
						c-0.04,0.05-0.06,0.08-0.08,0.11c-0.01,0.01-0.02,0.02-0.02,0.03v0.01l0,0l0,0l0,0C76.45,36.15,76.45,36.15,76.85,36.46z
						 M77.03,29.33c0,0.68-0.17,2.43-0.34,4.04c-0.08,0.8-0.17,1.56-0.23,2.11c-0.03,0.28-0.06,0.51-0.08,0.66
						c-0.01,0.08-0.02,0.14-0.02,0.18c0,0.02,0,0.04-0.01,0.05c0,0.01,0,0.01,0,0.01l0,0l0,0l0,0c0,0,0,0,0.5,0.06
						s0.5,0.06,0.5,0.06l0,0l0,0l0,0v-0.01c0-0.01,0-0.03,0.01-0.05c0.01-0.04,0.01-0.1,0.02-0.18c0.02-0.16,0.05-0.39,0.08-0.67
						c0.06-0.56,0.15-1.32,0.23-2.12c0.17-1.59,0.34-3.4,0.34-4.15L77.03,29.33L77.03,29.33z M77.54,29.33v0.5
						c0.28,0,0.5-0.22,0.5-0.5H77.54z M79.8,30.3l-0.5-0.06l0,0L79.8,30.3z M76.85,36.46l-0.5-0.06c-0.03,0.22,0.1,0.44,0.31,0.52
						s0.45,0.02,0.59-0.16L76.85,36.46z M77.53,29.33v-0.5c-0.28,0-0.5,0.22-0.5,0.5H77.53z"/>
				</g>
				<g>
					<defs>
						<rect id="SVGID_00000054228810128475344400000011827485702609802427_" y="0" width="120" height="120"/>
					</defs>
					<clipPath id="SVGID_00000155831616619838767380000002785106538860829337_">
						<use xlink:href="#SVGID_00000054228810128475344400000011827485702609802427_"  style="overflow:visible;"/>
					</clipPath>
					<path style="clip-path:url(#SVGID_00000155831616619838767380000002785106538860829337_);fill:#F4F4F4;" d="M50.05,29.23
						c0,1.42,0.61,7.34,0.61,7.34s-2.55-3.63-2.88-6.36c-0.17-1.42,0.33-3.55,1.01-3.55s1.25,1.15,1.25,2.58L50.05,29.23z"/>
				</g>
				<g>
					<defs>
						<rect id="SVGID_00000147918437962335656250000012737223027793101454_" y="0" width="120" height="120"/>
					</defs>
					<clipPath id="SVGID_00000083792243698506240310000008011008456298972349_">
						<use xlink:href="#SVGID_00000147918437962335656250000012737223027793101454_"  style="overflow:visible;"/>
					</clipPath>
					<path style="clip-path:url(#SVGID_00000083792243698506240310000008011008456298972349_);fill:#050505;" d="M50.39,29.6
						l0.01-0.01l-0.71-0.71l-0.01,0.01L50.39,29.6z M48.79,27.17c0.04,0,0.23,0.05,0.43,0.47c0.19,0.39,0.32,0.95,0.32,1.61h1
						c0-0.78-0.15-1.5-0.42-2.05c-0.25-0.51-0.69-1.04-1.33-1.04V27.17z M48.28,30.15c-0.08-0.64,0-1.46,0.17-2.12
						c0.09-0.33,0.19-0.59,0.29-0.75c0.12-0.19,0.15-0.12,0.05-0.12v-1c-0.44,0-0.73,0.34-0.89,0.59c-0.18,0.28-0.31,0.65-0.41,1.03
						c-0.2,0.76-0.29,1.71-0.2,2.49L48.28,30.15z M50.66,36.57c0.41-0.29,0.41-0.29,0.41-0.29l0,0l0,0l0,0c0,0,0,0,0-0.01
						s-0.01-0.02-0.02-0.03c-0.02-0.03-0.04-0.06-0.08-0.12c-0.07-0.1-0.17-0.25-0.29-0.44c-0.24-0.38-0.56-0.91-0.9-1.52
						c-0.67-1.24-1.35-2.76-1.51-4.02l-0.99,0.12c0.18,1.46,0.94,3.12,1.62,4.38c0.35,0.64,0.68,1.19,0.93,1.58
						c0.12,0.2,0.23,0.35,0.3,0.46c0.04,0.05,0.06,0.1,0.08,0.12c0.01,0.01,0.02,0.03,0.02,0.03s0,0.01,0.01,0.01l0,0l0,0l0,0
						C50.25,36.86,50.25,36.86,50.66,36.57z M49.55,29.23c0,0.74,0.16,2.6,0.31,4.25c0.08,0.83,0.15,1.62,0.21,2.19
						c0.03,0.29,0.05,0.53,0.07,0.69c0.01,0.08,0.01,0.15,0.02,0.19c0,0.02,0,0.04,0.01,0.05c0,0.01,0,0.01,0,0.01l0,0l0,0l0,0
						c0,0,0,0,0.5-0.05s0.5-0.05,0.5-0.05l0,0l0,0l0,0V36.5c0-0.01,0-0.03-0.01-0.05c0-0.04-0.01-0.11-0.02-0.19
						c-0.02-0.16-0.04-0.4-0.07-0.69c-0.06-0.58-0.13-1.36-0.21-2.19c-0.15-1.67-0.3-3.47-0.3-4.16L49.55,29.23L49.55,29.23z
						 M50.04,29.25h-0.5c0,0.2,0.12,0.38,0.31,0.46s0.4,0.03,0.54-0.11L50.04,29.25z M47.78,30.21l0.5-0.06l0,0L47.78,30.21z
						 M50.66,36.57l-0.41,0.29c0.13,0.19,0.37,0.26,0.58,0.18c0.21-0.08,0.35-0.29,0.32-0.52L50.66,36.57z M50.05,29.23h0.5
						c0-0.2-0.12-0.38-0.31-0.46c-0.19-0.08-0.4-0.03-0.54,0.11L50.05,29.23z"/>
				</g>
				<g>
					<defs>
						<rect id="SVGID_00000094584041911066124300000005566003377482407325_" y="0" width="120" height="120"/>
					</defs>
					<clipPath id="SVGID_00000003099845092887400620000006287611734045265830_">
						<use xlink:href="#SVGID_00000094584041911066124300000005566003377482407325_"  style="overflow:visible;"/>
					</clipPath>
					<path style="clip-path:url(#SVGID_00000003099845092887400620000006287611734045265830_);fill:#80ABFF;" d="M80.76,25.68
						c0-9.58-4.17-14.72-10.46-17.34C68.9,6.14,66.29,6,63.79,6s-5.25,0.14-6.64,2.53c-5.95,2.81-10.22,6.34-10.22,17.14
						c-1.76,0.3-2.77,1.96-2.77,2.34c0,1.12,8.79,1.06,19.61,1.06s19.61,0.06,19.61-1.06c0-0.4-0.72-2-2.64-2.31L80.76,25.68z"/>
				</g>
				<g>
					<defs>
						<rect id="SVGID_00000079477416397806537110000003740027678949294245_" y="0" width="120" height="120"/>
					</defs>
					<clipPath id="SVGID_00000174578513067613918330000015269729875306891905_">
						<use xlink:href="#SVGID_00000079477416397806537110000003740027678949294245_"  style="overflow:visible;"/>
					</clipPath>
					<path style="clip-path:url(#SVGID_00000174578513067613918330000015269729875306891905_);fill:#F4F4F4;" d="M57.28,8.52
						C56.8,8.4,56.8,8.4,56.8,8.4l0,0l0,0c0,0,0,0,0,0.01c0,0,0,0.01-0.01,0.02c0,0.02-0.01,0.04-0.02,0.08
						c-0.02,0.07-0.04,0.17-0.07,0.29c-0.06,0.25-0.14,0.63-0.24,1.1c-0.2,0.94-0.45,2.27-0.66,3.84
						c-0.44,3.13-0.76,7.25-0.26,11.12l0.99-0.13c-0.48-3.75-0.18-7.76,0.26-10.86c0.22-1.54,0.46-2.85,0.65-3.77
						c0.1-0.46,0.18-0.82,0.24-1.07c0.03-0.12,0.05-0.22,0.07-0.28c0.01-0.03,0.01-0.06,0.02-0.07c0-0.01,0-0.01,0-0.02l0,0l0,0l0,0
						C57.76,8.64,57.76,8.64,57.28,8.52z M55.53,24.85c0.04,0.27,0.29,0.47,0.56,0.43s0.47-0.29,0.43-0.56L55.53,24.85z M57.76,8.64
						c0.07-0.27-0.09-0.54-0.36-0.61c-0.27-0.07-0.54,0.09-0.61,0.36L57.76,8.64z"/>
				</g>
				<g>
					<defs>
						<rect id="SVGID_00000132769636806937200220000018058053252547400381_" y="0" width="120" height="120"/>
					</defs>
					<clipPath id="SVGID_00000155835233712219515190000009516260572362334906_">
						<use xlink:href="#SVGID_00000132769636806937200220000018058053252547400381_"  style="overflow:visible;"/>
					</clipPath>
					<path style="clip-path:url(#SVGID_00000155835233712219515190000009516260572362334906_);fill:#F4F4F4;" d="M70.3,8.52
						c-0.48,0.12-0.48,0.12-0.48,0.12l0,0l0,0l0,0c0,0,0,0.01,0,0.02c0,0.02,0.01,0.04,0.02,0.07c0.02,0.06,0.04,0.16,0.07,0.28
						c0.06,0.25,0.14,0.61,0.24,1.07c0.19,0.92,0.44,2.23,0.65,3.77c0.43,3.09,0.74,7.11,0.26,10.86l0.99,0.13
						c0.5-3.87,0.18-7.99-0.26-11.12c-0.22-1.57-0.47-2.9-0.66-3.84c-0.1-0.47-0.18-0.84-0.24-1.1c-0.03-0.13-0.05-0.23-0.07-0.29
						c-0.01-0.03-0.01-0.06-0.02-0.08c0-0.01,0-0.02-0.01-0.02c0,0,0,0,0-0.01l0,0l0,0C70.79,8.39,70.79,8.39,70.3,8.52z
						 M71.06,24.72c-0.04,0.27,0.16,0.52,0.43,0.56c0.27,0.04,0.52-0.16,0.56-0.43L71.06,24.72z M70.79,8.39
						c-0.07-0.27-0.34-0.43-0.61-0.36c-0.27,0.07-0.43,0.34-0.36,0.61L70.79,8.39z"/>
				</g>
				<g>
					<defs>
						<rect id="SVGID_00000070083575287500155970000006483506527482415275_" y="0" width="120" height="120"/>
					</defs>
					<clipPath id="SVGID_00000054971403294018051080000006665363057967221131_">
						<use xlink:href="#SVGID_00000070083575287500155970000006483506527482415275_"  style="overflow:visible;"/>
					</clipPath>
					<path style="clip-path:url(#SVGID_00000054971403294018051080000006665363057967221131_);fill:#F4F4F4;" d="M78.18,28.94H77.1
						c0.72,19.74-10.4,23.4-13.38,23.96c-2.98-0.54-14.04-4.17-13.31-23.93l-1.15-0.03c0,0-1.55,24.94,14.36,24.25l0.1-0.03
						l0.1,0.03C79.73,53.87,78.18,28.94,78.18,28.94z"/>
				</g>
				<g>
					<defs>
						<rect id="SVGID_00000127743924905670919700000004915400299301164688_" y="0" width="120" height="120"/>
					</defs>
					<clipPath id="SVGID_00000044150551396199343420000014774567190652735405_">
						<use xlink:href="#SVGID_00000127743924905670919700000004915400299301164688_"  style="overflow:visible;"/>
					</clipPath>
					<path style="clip-path:url(#SVGID_00000044150551396199343420000014774567190652735405_);fill:#050505;" d="M63.8,53.69
						c4.13,0.18,7.15-1.32,9.34-3.66c2.17-2.33,3.5-5.47,4.31-8.58c0.81-3.12,1.12-6.25,1.22-8.6c0.05-1.18,0.05-2.16,0.04-2.85
						c-0.01-0.34-0.01-0.62-0.02-0.8c0-0.09-0.01-0.16-0.01-0.21c0-0.02,0-0.04,0-0.06c0-0.01,0-0.01,0-0.01l0,0l0,0
						c0,0,0,0-0.5,0.03s-0.5,0.03-0.5,0.03l0,0l0,0v0.01c0,0.01,0,0.03,0,0.05c0,0.05,0.01,0.11,0.01,0.2
						c0.01,0.18,0.02,0.44,0.02,0.78c0.01,0.67,0.01,1.63-0.04,2.78c-0.1,2.31-0.4,5.36-1.19,8.39s-2.06,6-4.07,8.15
						c-2,2.14-4.74,3.51-8.57,3.34L63.8,53.69z M63.58,53.64l0.1,0.03l0.27-0.96l-0.1-0.03L63.58,53.64z M63.76,53.67l0.1-0.03
						l-0.27-0.96l-0.1,0.03L63.76,53.67z M49.26,28.94c-0.5-0.03-0.5-0.03-0.5-0.03l0,0l0,0v0.01c0,0.01,0,0.03,0,0.06
						c0,0.05-0.01,0.12-0.01,0.21c-0.01,0.19-0.02,0.46-0.02,0.8c-0.01,0.69-0.01,1.67,0.04,2.85c0.1,2.35,0.41,5.48,1.22,8.6
						c0.81,3.11,2.14,6.26,4.31,8.58c2.19,2.35,5.22,3.84,9.34,3.66l-0.04-1c-3.83,0.16-6.57-1.21-8.57-3.34
						c-2.01-2.16-3.28-5.12-4.07-8.15c-0.79-3.03-1.09-6.09-1.19-8.39c-0.05-1.15-0.05-2.11-0.04-2.78c0.01-0.34,0.01-0.6,0.02-0.78
						c0-0.09,0.01-0.16,0.01-0.2c0-0.02,0-0.04,0-0.05c0-0.01,0-0.01,0-0.01l0,0l0,0C49.76,28.97,49.76,28.97,49.26,28.94z
						 M50.42,28.46l-1.15-0.03l-0.02,1l1.15,0.03L50.42,28.46z M63.81,52.4c-1.41-0.26-4.81-1.26-7.76-4.6
						c-2.94-3.33-5.5-9.04-5.14-18.82l-1-0.04c-0.37,9.98,2.24,15.96,5.39,19.52c3.14,3.55,6.77,4.64,8.33,4.92L63.81,52.4z
						 M76.6,28.95c0.36,9.77-2.22,15.49-5.18,18.82c-2.97,3.35-6.38,4.36-7.8,4.62l0.18,0.98c1.56-0.29,5.2-1.38,8.36-4.94
						c3.17-3.57,5.79-9.55,5.43-19.52L76.6,28.95z M78.18,28.44H77.1v1h1.08V28.44z M63.82,53.19l-0.14,0.48
						c0.04,0.01,0.08,0.02,0.12,0.02L63.82,53.19z M63.72,53.16l0.14-0.48c-0.09-0.03-0.18-0.03-0.27,0L63.72,53.16z M63.62,53.19
						l0.02,0.5c0.04,0,0.08-0.01,0.12-0.02L63.62,53.19z M49.26,28.94l0.01-0.5c-0.27-0.01-0.49,0.2-0.51,0.47L49.26,28.94z
						 M50.41,28.96l0.5,0.02c0-0.13-0.04-0.26-0.14-0.36c-0.09-0.1-0.22-0.15-0.35-0.16L50.41,28.96z M63.72,52.89l-0.09,0.49
						c0.06,0.01,0.12,0.01,0.18,0L63.72,52.89z M77.1,28.94v-0.5c-0.14,0-0.27,0.06-0.36,0.15c-0.09,0.1-0.14,0.23-0.14,0.37
						L77.1,28.94z M78.18,28.94l0.5-0.03c-0.02-0.26-0.23-0.47-0.5-0.47V28.94z"/>
				</g>
				<g>
					<defs>
						<rect id="SVGID_00000076570651716833893290000005173784087550942106_" y="0" width="120" height="120"/>
					</defs>
					<clipPath id="SVGID_00000044158309728884214270000008176527857206252462_">
						<use xlink:href="#SVGID_00000076570651716833893290000005173784087550942106_"  style="overflow:visible;"/>
					</clipPath>
					<path style="clip-path:url(#SVGID_00000044158309728884214270000008176527857206252462_);fill:#050505;" d="M43.77,73.41
						c-0.36-3.97-1.5-6.72-2.56-8.48c-0.53-0.88-1.04-1.52-1.42-1.93c-0.19-0.21-0.35-0.36-0.46-0.47c-0.06-0.05-0.1-0.09-0.13-0.12
						c-0.02-0.01-0.03-0.02-0.04-0.03l-0.01-0.01l0,0l0,0l0,0c0,0,0,0-0.31,0.39s-0.31,0.39-0.31,0.39l0,0l0,0l0,0l0,0
						c0,0,0.01,0.01,0.02,0.02c0.02,0.02,0.06,0.05,0.1,0.09c0.09,0.09,0.23,0.22,0.4,0.41c0.34,0.37,0.81,0.95,1.3,1.77
						c0.98,1.64,2.07,4.24,2.42,8.06L43.77,73.41z M43.44,77.63c0.16,0.47,0.16,0.47,0.17,0.47h0.01c0.01,0,0.01,0,0.02-0.01
						c0.01,0,0.02-0.01,0.03-0.01c0.02-0.01,0.04-0.02,0.06-0.03c0.03-0.02,0.06-0.05,0.09-0.07c0.04-0.05,0.07-0.09,0.09-0.13
						c0.03-0.07,0.05-0.14,0.06-0.19c0.02-0.12,0.04-0.29,0.04-0.56c0.01-0.56-0.04-1.62-0.23-3.67l-1,0.09
						c0.19,2.05,0.23,3.07,0.22,3.57c0,0.26-0.02,0.36-0.02,0.38c0,0.01,0-0.02,0.03-0.06c0.01-0.03,0.04-0.07,0.08-0.11
						c0.02-0.02,0.05-0.05,0.08-0.07c0.02-0.01,0.04-0.02,0.06-0.03c0.01,0,0.02-0.01,0.03-0.01s0.01,0,0.02-0.01h0.01
						C43.27,77.16,43.28,77.15,43.44,77.63z M31.03,68.55c-0.24,0.52-0.37,1.36-0.44,2.37c-0.07,1.03-0.09,2.32-0.07,3.77
						c0.05,2.91,0.25,6.52,0.5,10.23c0.49,7.45,1.13,15.23,0.98,18.56l1,0.05c0.16-3.4-0.49-11.28-0.98-18.67
						c-0.24-3.71-0.45-7.3-0.49-10.18c-0.02-1.44-0.01-2.69,0.06-3.68c0.07-1.02,0.2-1.69,0.35-2.03L31.03,68.55z M38.72,62.26
						c-1.26,0.29-2.79,1.01-4.19,2.07c-1.4,1.06-2.71,2.49-3.5,4.21l0.91,0.42c0.7-1.54,1.89-2.84,3.19-3.83
						c1.31-0.99,2.7-1.64,3.81-1.89L38.72,62.26z M43.27,73.46l-0.5,0.05l0,0L43.27,73.46z M43.28,77.15
						c-0.26,0.09-0.4,0.37-0.32,0.63c0.09,0.26,0.37,0.4,0.63,0.32L43.28,77.15z M32,103.48c-0.01,0.28,0.2,0.51,0.48,0.52
						c0.28,0.01,0.51-0.2,0.52-0.48L32,103.48z M31.49,68.75l0.45,0.21l0,0L31.49,68.75z M38.83,62.75l0.31-0.39
						c-0.12-0.09-0.27-0.13-0.42-0.09L38.83,62.75z"/>
				</g>
				<g>
					<defs>
						<rect id="SVGID_00000058569750179854811790000013298622513412394416_" y="0" width="120" height="120"/>
					</defs>
					<clipPath id="SVGID_00000045576820905018534860000014757449718060290472_">
						<use xlink:href="#SVGID_00000058569750179854811790000013298622513412394416_"  style="overflow:visible;"/>
					</clipPath>
					<path style="clip-path:url(#SVGID_00000045576820905018534860000014757449718060290472_);fill:#F4F4F4;" d="M69.56,62.81
						l2.04-3.22c0.2-1.32-0.77-1.7-1.09-1.78l0.3-0.26c0.24-1.57-1.19-1.81-1.19-1.81l-0.46,0.33l1.8-1.16
						c0.19-1.26-0.85-1.96-1.21-2.07l3.29-2.64c1.62-2.64-1.29-1.86-1.29-1.86l-6.37,4.11l-4.93,2.82
						c-0.41-1.94-0.25-3.64-0.25-3.64c-0.28-1.47-0.91-2.81-1.43-3.3c-1.24-1.19-2.62,0.28-2.62,0.28c1.58,2.93,0.61,6.54,0.61,6.54
						s-0.77,1.58-1.9,3.58c-1.13,2-1.25,4.95-1.25,4.95l-3.2,4.54c0,0-0.08,2.67,2.88,4.45c2.97,1.79,5.1,1.14,5.1,1.14
						s1.44-2.29,2.63-3.21c1.39-1.08,3.61-2.06,4.82-3.22C68.08,65.21,69.56,62.82,69.56,62.81L69.56,62.81z"/>
				</g>
				<g>
					<defs>
						<rect id="SVGID_00000117637561454101047370000007313827773012407230_" y="0" width="120" height="120"/>
					</defs>
					<clipPath id="SVGID_00000178917508829622745440000004296120390874348435_">
						<use xlink:href="#SVGID_00000117637561454101047370000007313827773012407230_"  style="overflow:visible;"/>
					</clipPath>
					<path style="clip-path:url(#SVGID_00000178917508829622745440000004296120390874348435_);fill:#050505;" d="M70.06,62.82
						L70.06,62.82l-1-0.01v0.01H70.06z M66.19,67.73c1.15-1.11,2.09-2.27,2.75-3.15c0.33-0.44,0.59-0.82,0.77-1.08
						c0.09-0.13,0.16-0.24,0.2-0.31c0.02-0.04,0.04-0.06,0.05-0.08c0.01-0.01,0.01-0.02,0.01-0.02s0,0,0-0.01l0,0l0,0l0,0
						c0,0,0,0-0.43-0.26s-0.43-0.26-0.43-0.26l0,0l0,0l0,0l0,0c0,0-0.01,0.01-0.01,0.02c-0.01,0.02-0.03,0.04-0.05,0.08
						c-0.04,0.07-0.11,0.17-0.19,0.29c-0.17,0.25-0.42,0.61-0.74,1.04c-0.64,0.86-1.55,1.97-2.64,3.03L66.19,67.73z M61.33,70.99
						c0.66-0.51,1.53-1.01,2.42-1.54c0.87-0.52,1.78-1.08,2.43-1.71l-0.69-0.72c-0.56,0.54-1.37,1.05-2.25,1.57
						c-0.86,0.51-1.8,1.05-2.53,1.61L61.33,70.99z M58.4,73.8c0.42,0.27,0.42,0.27,0.42,0.27l0,0l0,0l0,0l0,0
						c0,0,0.01-0.01,0.01-0.02c0.01-0.02,0.03-0.04,0.05-0.07c0.04-0.06,0.1-0.15,0.17-0.27c0.15-0.22,0.36-0.53,0.61-0.87
						c0.51-0.68,1.13-1.44,1.66-1.85l-0.61-0.79c-0.66,0.51-1.35,1.36-1.86,2.05c-0.26,0.35-0.48,0.67-0.64,0.91
						c-0.08,0.12-0.14,0.21-0.18,0.28c-0.02,0.03-0.04,0.06-0.05,0.08c-0.01,0.01-0.01,0.02-0.01,0.02s0,0,0,0.01l0,0l0,0l0,0
						C57.97,73.54,57.97,73.54,58.4,73.8z M53.04,73.09c1.55,0.94,2.91,1.25,3.89,1.32c0.49,0.03,0.88,0.01,1.16-0.03
						c0.14-0.02,0.25-0.04,0.32-0.06c0.04-0.01,0.07-0.02,0.09-0.02c0.01,0,0.02-0.01,0.03-0.01h0.01l0,0l0,0l0,0c0,0,0,0-0.15-0.48
						s-0.15-0.48-0.15-0.48l0,0l0,0l0,0l0,0c0,0,0,0-0.01,0s-0.03,0.01-0.05,0.01c-0.05,0.01-0.13,0.03-0.24,0.04
						c-0.22,0.03-0.54,0.05-0.96,0.02c-0.83-0.06-2.03-0.32-3.44-1.17L53.04,73.09z M50.41,68.21c-0.5-0.01-0.5-0.01-0.5-0.01l0,0
						l0,0l0,0v0.01c0,0.01,0,0.02,0,0.03c0,0.03,0,0.06,0,0.11c0,0.09,0.01,0.22,0.04,0.37c0.04,0.31,0.13,0.74,0.33,1.23
						c0.39,0.98,1.17,2.18,2.76,3.14l0.52-0.86c-1.37-0.83-2.03-1.85-2.34-2.65c-0.16-0.4-0.23-0.75-0.27-1
						c-0.02-0.12-0.02-0.22-0.03-0.28c0-0.03,0-0.05,0-0.07c0-0.01,0-0.01,0-0.01l0,0l0,0l0,0l0,0
						C50.91,68.22,50.91,68.22,50.41,68.21z M53.21,63.38l-3.2,4.54l0.82,0.58l3.2-4.54L53.21,63.38z M54.43,58.48
						c-0.61,1.07-0.93,2.38-1.11,3.38c-0.09,0.51-0.14,0.95-0.17,1.27c-0.01,0.16-0.02,0.29-0.03,0.38c0,0.04,0,0.08-0.01,0.1
						c0,0.01,0,0.02,0,0.03v0.01l0,0l0,0l0,0c0,0,0,0,0.5,0.02s0.5,0.02,0.5,0.02l0,0l0,0l0,0l0,0c0,0,0-0.01,0-0.02
						c0-0.02,0-0.05,0.01-0.09c0.01-0.08,0.01-0.2,0.03-0.35c0.03-0.3,0.08-0.71,0.16-1.19c0.17-0.97,0.47-2.14,0.99-3.06
						L54.43,58.48z M56.77,55.15c-0.45-0.22-0.45-0.22-0.45-0.22l0,0l0,0l0,0l0,0c0,0,0,0.01-0.01,0.01
						c-0.01,0.01-0.01,0.03-0.03,0.05c-0.02,0.05-0.06,0.11-0.1,0.2c-0.09,0.18-0.22,0.44-0.38,0.76c-0.33,0.64-0.8,1.53-1.37,2.52
						l0.87,0.49c0.57-1.01,1.05-1.91,1.39-2.56c0.17-0.32,0.3-0.59,0.39-0.77c0.05-0.09,0.08-0.16,0.1-0.21
						c0.01-0.02,0.02-0.04,0.03-0.05c0-0.01,0.01-0.01,0.01-0.01l0,0l0,0l0,0l0,0C57.22,55.36,57.22,55.36,56.77,55.15z
						 M55.72,48.85c0.73,1.36,0.88,2.89,0.84,4.11c-0.02,0.61-0.09,1.13-0.15,1.49c-0.03,0.18-0.06,0.33-0.08,0.42
						c-0.01,0.05-0.02,0.09-0.03,0.11c0,0.01-0.01,0.02-0.01,0.03c0,0,0,0,0,0.01l0,0l0,0l0,0c0,0,0,0,0.48,0.13
						s0.48,0.13,0.48,0.13l0,0l0,0l0,0v-0.01c0-0.01,0.01-0.02,0.01-0.04c0.01-0.03,0.02-0.07,0.03-0.13
						c0.03-0.11,0.06-0.27,0.09-0.47c0.07-0.4,0.14-0.97,0.17-1.63c0.05-1.31-0.11-3.05-0.96-4.62L55.72,48.85z M59.12,47.97
						c-0.39-0.37-0.81-0.56-1.23-0.6c-0.41-0.04-0.79,0.06-1.09,0.19c-0.3,0.13-0.55,0.31-0.72,0.44c-0.09,0.07-0.15,0.13-0.2,0.18
						c-0.02,0.02-0.04,0.04-0.06,0.06c-0.01,0.01-0.01,0.01-0.02,0.02c0,0,0,0-0.01,0.01l0,0l0,0l0,0c0,0,0,0,0.37,0.34
						s0.37,0.34,0.37,0.34l0,0l0,0l0,0l0,0c0,0,0,0,0.01-0.01s0.02-0.02,0.03-0.03c0.03-0.03,0.08-0.07,0.14-0.12
						c0.13-0.1,0.3-0.22,0.5-0.31s0.4-0.13,0.59-0.11c0.18,0.02,0.4,0.1,0.63,0.32L59.12,47.97z M60.69,51.53
						c-0.15-0.77-0.39-1.51-0.66-2.13c-0.27-0.6-0.58-1.13-0.91-1.44l-0.69,0.73c0.18,0.17,0.44,0.56,0.69,1.12
						c0.24,0.54,0.46,1.21,0.59,1.91L60.69,51.53z M60.94,55.16c-0.2-0.93-0.26-1.81-0.27-2.45c-0.01-0.32,0-0.58,0.01-0.76
						c0-0.09,0.01-0.16,0.01-0.21c0-0.02,0-0.04,0-0.05s0-0.01,0-0.01l0,0l0,0l0,0l0,0c0,0,0,0-0.5-0.05s-0.5-0.05-0.5-0.05l0,0l0,0
						l0,0c0,0,0,0,0,0.01c0,0,0,0.01,0,0.02c0,0.01,0,0.04,0,0.06c0,0.05-0.01,0.13-0.01,0.23c-0.01,0.2-0.02,0.48-0.01,0.83
						c0.01,0.69,0.08,1.63,0.29,2.64L60.94,55.16z M65.13,52.01l-4.93,2.82l0.5,0.87l4.93-2.82L65.13,52.01z M71.48,47.91
						l-6.37,4.11l0.54,0.84l6.37-4.11L71.48,47.91z M73.46,50.45c0.42-0.68,0.62-1.26,0.55-1.74c-0.04-0.26-0.16-0.48-0.34-0.64
						c-0.17-0.15-0.37-0.24-0.55-0.29c-0.36-0.09-0.74-0.07-1.01-0.03c-0.14,0.02-0.26,0.04-0.35,0.06
						c-0.04,0.01-0.08,0.02-0.1,0.02c-0.01,0-0.02,0.01-0.03,0.01h-0.01l0,0l0,0l0,0c0,0,0,0,0.13,0.48s0.13,0.48,0.13,0.48l0,0l0,0
						l0,0l0,0c0,0,0.01,0,0.02,0c0.02,0,0.04-0.01,0.08-0.02c0.07-0.01,0.16-0.03,0.27-0.05c0.23-0.03,0.47-0.03,0.63,0.01
						c0.08,0.02,0.12,0.05,0.13,0.06c0.01,0,0.01,0.01,0.02,0.05c0.02,0.11-0.02,0.43-0.41,1.07L73.46,50.45z M70.06,53.22
						l3.29-2.64l-0.63-0.78l-3.29,2.64L70.06,53.22z M71.46,54.97c0.12-0.8-0.15-1.42-0.51-1.86c-0.34-0.41-0.77-0.68-1.06-0.76
						l-0.28,0.96c0.07,0.02,0.34,0.16,0.57,0.44c0.21,0.26,0.36,0.61,0.29,1.07L71.46,54.97z M69.43,56.48l1.8-1.16l-0.54-0.84
						l-1.8,1.16L69.43,56.48z M69.32,55.32l-0.46,0.33l0.59,0.81l0.46-0.33L69.32,55.32z M71.3,57.62c0.15-0.97-0.23-1.6-0.69-1.97
						c-0.22-0.17-0.44-0.27-0.6-0.33c-0.08-0.03-0.16-0.05-0.21-0.06c-0.03-0.01-0.05-0.01-0.07-0.01c-0.01,0-0.02,0-0.02,0H69.7
						l0,0l0,0l0,0c0,0,0,0-0.08,0.49s-0.08,0.49-0.08,0.49l0,0l0,0l0,0l0,0l0,0c0,0,0.01,0,0.02,0.01c0.02,0.01,0.06,0.02,0.11,0.03
						c0.1,0.03,0.22,0.09,0.33,0.18c0.19,0.15,0.41,0.43,0.32,1.03L71.3,57.62z M70.84,58.18l0.3-0.26l-0.66-0.75l-0.3,0.26
						L70.84,58.18z M72.09,59.66c0.12-0.81-0.11-1.39-0.48-1.77c-0.35-0.36-0.77-0.51-0.97-0.57l-0.26,0.96
						c0.12,0.03,0.34,0.12,0.51,0.29c0.15,0.15,0.29,0.42,0.21,0.93L72.09,59.66z M69.98,63.07l2.04-3.22l-0.85-0.53l-2.04,3.22
						L69.98,63.07z M69.56,62.82l0.43,0.26c0.05-0.08,0.07-0.17,0.07-0.26H69.56z M65.84,67.37l0.35,0.36l0,0L65.84,67.37z
						 M61.02,70.59l0.31,0.4l0,0L61.02,70.59z M58.4,73.8l0.15,0.48c0.12-0.04,0.21-0.11,0.28-0.21L58.4,73.8z M53.29,72.66
						l0.26-0.43l0,0L53.29,72.66z M50.41,68.21L50,67.92c-0.06,0.08-0.09,0.18-0.09,0.27L50.41,68.21z M53.61,63.67l0.41,0.29
						c0.06-0.08,0.09-0.17,0.09-0.27L53.61,63.67z M56.77,55.15l0.45,0.22c0.01-0.03,0.02-0.06,0.03-0.09L56.77,55.15z M56.16,48.61
						l-0.37-0.34c-0.15,0.16-0.18,0.39-0.07,0.58L56.16,48.61z M58.77,48.33l-0.35,0.36l0,0L58.77,48.33z M60.2,51.63l0.5,0.05
						c0-0.05,0-0.09-0.01-0.14L60.2,51.63z M60.45,55.26l-0.49,0.1c0.03,0.16,0.14,0.29,0.28,0.35s0.31,0.06,0.45-0.02L60.45,55.26z
						 M65.38,52.44l0.25,0.43c0.01,0,0.02-0.01,0.02-0.01L65.38,52.44z M71.75,48.33l-0.13-0.48c-0.05,0.01-0.1,0.03-0.14,0.06
						L71.75,48.33z M73.04,50.19l0.31,0.39c0.04-0.04,0.08-0.08,0.11-0.13L73.04,50.19z M69.75,52.83l-0.31-0.39
						c-0.15,0.12-0.21,0.3-0.18,0.49c0.04,0.18,0.17,0.33,0.35,0.38L69.75,52.83z M70.96,54.89l0.27,0.42
						c0.12-0.08,0.2-0.2,0.22-0.34L70.96,54.89z M69.16,56.06l-0.29-0.41c-0.22,0.16-0.27,0.46-0.12,0.69
						c0.15,0.22,0.46,0.28,0.68,0.14L69.16,56.06z M69.61,55.73l0.08-0.49c-0.13-0.02-0.27,0.01-0.38,0.09L69.61,55.73z
						 M70.81,57.54l0.33,0.38c0.09-0.08,0.15-0.18,0.17-0.3L70.81,57.54z M70.51,57.8l-0.33-0.38c-0.14,0.12-0.2,0.31-0.16,0.49
						c0.04,0.18,0.18,0.32,0.36,0.37L70.51,57.8z M71.59,59.59l0.42,0.27c0.04-0.06,0.06-0.12,0.07-0.19L71.59,59.59z M69.56,62.81
						l-0.42-0.27c-0.05,0.08-0.08,0.17-0.08,0.27H69.56z"/>
				</g>
				<g>
					<defs>
						<rect id="SVGID_00000163783635726413891950000009396423296246211752_" y="0" width="120" height="120"/>
					</defs>
					<clipPath id="SVGID_00000147215988608442358820000012837324925260008863_">
						<use xlink:href="#SVGID_00000163783635726413891950000009396423296246211752_"  style="overflow:visible;"/>
					</clipPath>
					<path style="clip-path:url(#SVGID_00000147215988608442358820000012837324925260008863_);fill:#050505;" d="M69.76,52.81
						c-0.31-0.39-0.31-0.39-0.31-0.39l0,0l0,0l0,0c0,0,0,0-0.01,0.01c-0.01,0-0.02,0.01-0.03,0.02c-0.03,0.02-0.06,0.05-0.11,0.09
						c-0.1,0.07-0.24,0.18-0.41,0.31c-0.35,0.26-0.82,0.61-1.35,0.98c-1.08,0.75-2.28,1.52-3.01,1.76l0.32,0.95
						c0.88-0.3,2.21-1.16,3.26-1.89c0.54-0.38,1.02-0.73,1.38-1c0.18-0.13,0.32-0.24,0.42-0.32c0.05-0.04,0.09-0.07,0.11-0.09
						c0.01-0.01,0.02-0.02,0.03-0.02c0,0,0.01,0,0.01-0.01l0,0l0,0l0,0C70.07,53.2,70.07,53.2,69.76,52.81z M64.54,55.58
						c-0.26,0.09-0.4,0.37-0.31,0.63c0.09,0.26,0.37,0.4,0.63,0.31L64.54,55.58z M70.07,53.2c0.22-0.17,0.26-0.48,0.09-0.7
						c-0.17-0.22-0.48-0.26-0.7-0.09L70.07,53.2z"/>
				</g>
				<g>
					<defs>
						<rect id="SVGID_00000120539316998444435960000009704863058965763216_" y="0" width="120" height="120"/>
					</defs>
					<clipPath id="SVGID_00000166673694007432661780000009019686038522865802_">
						<use xlink:href="#SVGID_00000120539316998444435960000009704863058965763216_"  style="overflow:visible;"/>
					</clipPath>
					<path style="clip-path:url(#SVGID_00000166673694007432661780000009019686038522865802_);fill:#050505;" d="M68.83,55.73
						l-2.31,1.83l0.62,0.78l2.31-1.83L68.83,55.73z M66.52,57.56c-0.22,0.17-0.25,0.49-0.08,0.7c0.17,0.22,0.49,0.25,0.7,0.08
						L66.52,57.56z M69.45,56.51c0.22-0.17,0.25-0.49,0.08-0.7c-0.17-0.22-0.49-0.25-0.7-0.08L69.45,56.51z"/>
				</g>
				<g>
					<defs>
						<rect id="SVGID_00000103945714112878884280000009621775160464494269_" y="0" width="120" height="120"/>
					</defs>
					<clipPath id="SVGID_00000010281245359892072170000001405893264966365083_">
						<use xlink:href="#SVGID_00000103945714112878884280000009621775160464494269_"  style="overflow:visible;"/>
					</clipPath>
					<path style="clip-path:url(#SVGID_00000010281245359892072170000001405893264966365083_);fill:#050505;" d="M69.95,57.68
						l-1.76,2.01l0.75,0.66l1.76-2.01L69.95,57.68z M68.19,59.69c-0.18,0.21-0.16,0.52,0.05,0.71c0.21,0.18,0.52,0.16,0.71-0.05
						L68.19,59.69z M70.7,58.34c0.18-0.21,0.16-0.52-0.05-0.71c-0.21-0.18-0.52-0.16-0.71,0.05L70.7,58.34z"/>
				</g>
				<g>
					<defs>
						<rect id="SVGID_00000103945914968774852510000008434913521905329048_" y="0" width="120" height="120"/>
					</defs>
					<clipPath id="SVGID_00000177485267896576491140000009642696065104373915_">
						<use xlink:href="#SVGID_00000103945914968774852510000008434913521905329048_"  style="overflow:visible;"/>
					</clipPath>
					<path style="clip-path:url(#SVGID_00000177485267896576491140000009642696065104373915_);fill:#F4F4F4;" d="M49.02,66.93
						c0,0-15.45,25.1-16.6,30.42c0,0-2.81,8.34,3.61,11.42c3.25,1.55,6.89-0.86,9.27-3.57c5.82-6.59,12.81-20.25,17.67-32.23
						c0,0-4.4,0.03-6.98-0.93C52.83,70.87,49.02,66.93,49.02,66.93z"/>
				</g>
				<g>
					<defs>
						<rect id="SVGID_00000072243362737701904380000009691642208363798178_" y="0" width="120" height="120"/>
					</defs>
					<clipPath id="SVGID_00000176746478565292736210000014902077330524528512_">
						<use xlink:href="#SVGID_00000072243362737701904380000009691642208363798178_"  style="overflow:visible;"/>
					</clipPath>
					<g style="clip-path:url(#SVGID_00000176746478565292736210000014902077330524528512_);">
						<g>
							<defs>
								<path id="SVGID_00000107554351362040699710000011747309990764117642_" d="M49.02,66.93c0,0-15.45,25.1-16.6,30.42
									c0,0-2.81,8.34,3.61,11.42c3.25,1.55,6.89-0.86,9.27-3.57c5.82-6.59,12.81-20.25,17.67-32.23c0,0-4.4,0.03-6.98-0.93
									C52.83,70.87,49.02,66.93,49.02,66.93z"/>
							</defs>
							<clipPath id="SVGID_00000110471928228352889690000005557557717914571191_">
								<use xlink:href="#SVGID_00000107554351362040699710000011747309990764117642_"  style="overflow:visible;"/>
							</clipPath>
							<path style="clip-path:url(#SVGID_00000110471928228352889690000005557557717914571191_);fill:#050505;" d="M56.34,71.11
								c-1.41-0.53-3.05-1.71-4.38-2.83c-0.65-0.55-1.21-1.06-1.61-1.44c-0.2-0.19-0.35-0.34-0.46-0.45
								c-0.05-0.05-0.09-0.09-0.12-0.12c-0.01-0.01-0.02-0.02-0.03-0.03l-0.01-0.01l0,0l0,0l0,0c0,0,0,0-0.72,0.7
								s-0.72,0.7-0.72,0.7l0,0l0,0l0,0l0.01,0.01c0.01,0.01,0.02,0.02,0.04,0.04c0.03,0.03,0.08,0.08,0.13,0.13
								c0.12,0.11,0.28,0.28,0.49,0.48c0.42,0.4,1.01,0.94,1.7,1.52c1.36,1.14,3.22,2.52,4.97,3.17L56.34,71.11z M62.97,72.98
								c-0.01-1-0.01-1-0.01-1l0,0l0,0l0,0c0,0,0,0-0.01,0s-0.02,0-0.03,0c-0.03,0-0.08,0-0.14,0c-0.12,0-0.3,0-0.52-0.01
								c-0.44-0.01-1.05-0.04-1.74-0.09c-1.41-0.11-3.03-0.34-4.18-0.77l-0.7,1.87c1.43,0.53,3.29,0.77,4.72,0.88
								c0.73,0.06,1.38,0.09,1.85,0.1c0.23,0.01,0.42,0.01,0.55,0.01c0.07,0,0.12,0,0.15,0c0.02,0,0.03,0,0.04,0h0.01l0,0l0,0l0,0
								C62.98,73.98,62.98,73.98,62.97,72.98z M46.05,105.87c5.94-6.73,12.98-20.52,17.85-32.51l-1.85-0.75
								c-4.85,11.96-11.8,25.48-17.49,31.94L46.05,105.87z M35.6,109.67c1.97,0.94,4.02,0.64,5.81-0.19
								c1.78-0.82,3.39-2.21,4.64-3.62l-1.5-1.32c-1.13,1.28-2.53,2.46-3.98,3.13c-1.44,0.67-2.83,0.8-4.11,0.19L35.6,109.67z
								 M32.42,97.35c-0.95-0.32-0.95-0.32-0.95-0.32l0,0l0,0c0,0,0,0,0,0.01s0,0.01-0.01,0.02c-0.01,0.02-0.02,0.05-0.03,0.08
								c-0.02,0.07-0.05,0.17-0.09,0.3c-0.07,0.25-0.16,0.62-0.25,1.06c-0.17,0.88-0.34,2.1-0.28,3.44
								c0.11,2.68,1.11,5.97,4.78,7.72l0.86-1.8c-2.75-1.32-3.56-3.74-3.65-6c-0.05-1.13,0.09-2.19,0.25-2.97
								c0.08-0.39,0.16-0.7,0.21-0.91c0.03-0.11,0.05-0.19,0.07-0.24c0.01-0.03,0.01-0.05,0.02-0.06c0-0.01,0-0.01,0-0.01l0,0l0,0
								l0,0C33.37,97.67,33.37,97.67,32.42,97.35z M49.02,66.93c-0.85-0.52-0.85-0.52-0.85-0.52l0,0l0,0c0,0,0,0.01-0.01,0.01
								c-0.01,0.01-0.02,0.03-0.03,0.05c-0.03,0.05-0.07,0.12-0.13,0.21c-0.11,0.19-0.28,0.46-0.49,0.81
								c-0.43,0.7-1.03,1.7-1.77,2.92c-1.47,2.44-3.44,5.75-5.45,9.23c-2.01,3.48-4.05,7.13-5.67,10.25c-0.81,1.56-1.52,3-2.06,4.22
								c-0.53,1.2-0.94,2.26-1.11,3.03l1.96,0.42c0.12-0.56,0.45-1.45,0.98-2.64c0.52-1.17,1.21-2.57,2.01-4.11
								c1.6-3.08,3.63-6.7,5.63-10.17c2-3.46,3.96-6.76,5.43-9.19c0.73-1.22,1.34-2.22,1.76-2.91c0.21-0.35,0.38-0.62,0.49-0.8
								c0.06-0.09,0.1-0.16,0.13-0.21c0.01-0.02,0.03-0.04,0.03-0.05s0.01-0.01,0.01-0.01l0,0l0,0
								C49.87,67.46,49.87,67.46,49.02,66.93z M56,72.05l0.35-0.94L56,72.05z M62.97,72.98l0.93,0.38l0.56-1.39l-1.5,0.01
								L62.97,72.98z M45.3,105.21l-0.75-0.66l0,0L45.3,105.21z M36.03,108.77l-0.43,0.9l0,0L36.03,108.77z M32.42,97.35l0.95,0.32
								l0.02-0.05l0.01-0.06L32.42,97.35z M49.02,66.93l0.72-0.7l-0.9-0.93l-0.67,1.1L49.02,66.93z"/>
						</g>
					</g>
				</g>
			</g>
		</g>
		<g>
			<g>
				<defs>
					<path id="SVGID_00000163770884182863759680000010778650128122985345_" d="M89.58,37.28c-0.54-0.27-1.14-0.04-1.45,0.55
						c-0.25,0.5-0.17,1.16,0.46,1.47c0.55,0.27,1.15,0.05,1.44-0.53C90.33,38.17,90.14,37.56,89.58,37.28z"/>
				</defs>
				<clipPath id="SVGID_00000161633349127535849450000006899295182334396087_">
					<use xlink:href="#SVGID_00000163770884182863759680000010778650128122985345_"  style="overflow:visible;"/>
				</clipPath>
				<path style="clip-path:url(#SVGID_00000161633349127535849450000006899295182334396087_);fill:#70747D;" d="M90.93,39.22
					c0.25-0.5,0.32-1.07,0.16-1.6c-0.17-0.54-0.55-0.97-1.06-1.23l-0.89,1.79c0.03,0.01,0.04,0.03,0.04,0.03s0,0,0-0.01
					c0,0,0,0,0,0.02s-0.01,0.05-0.04,0.11L90.93,39.22z M88.15,40.2c1.09,0.53,2.26,0.05,2.78-0.98l-1.79-0.89
					c-0.02,0.04-0.04,0.07-0.06,0.08c-0.01,0.01-0.02,0.01-0.02,0.01l0,0c0,0-0.01,0-0.04-0.01L88.15,40.2z M87.24,37.38
					c-0.22,0.44-0.31,0.97-0.17,1.5c0.14,0.55,0.51,1.03,1.09,1.32l0.88-1.79C89,38.39,89,38.38,89,38.39c0,0,0,0,0,0.01l0,0
					c0,0,0-0.01,0-0.03s0.01-0.05,0.02-0.08L87.24,37.38z M90.03,36.39c-1.11-0.56-2.27,0-2.78,0.98l1.77,0.93
					c0.06-0.11,0.11-0.13,0.11-0.13s0,0-0.01,0s0,0,0.02,0.01L90.03,36.39z M88.59,39.3l-0.44,0.9l0,0L88.59,39.3z M88.13,37.83
					l-0.89-0.47v0.01v0.01L88.13,37.83z"/>
			</g>
		</g>
		<path class="st64" d="M95.07,32.35c-0.3,0.17-0.7,0.31-1.18,0.44c-0.46,0.13-1.01,0.26-1.51,0.42c-1,0.32-2.1,0.84-2.46,2.06
			l0.96,0.28c0.2-0.7,0.84-1.08,1.8-1.39c0.48-0.15,0.96-0.27,1.47-0.41c0.49-0.14,0.99-0.3,1.41-0.54L95.07,32.35z M92.24,28.41
			c0.12-0.34,0.3-0.56,0.52-0.7c0.23-0.14,0.52-0.22,0.86-0.21c0.7,0,1.53,0.33,2.18,0.85c0.65,0.53,1.04,1.19,1.02,1.84
			c-0.02,0.62-0.42,1.39-1.75,2.16l0.5,0.87c1.5-0.86,2.22-1.9,2.25-2.99c0.03-1.07-0.6-2-1.39-2.64c-0.8-0.64-1.84-1.07-2.8-1.08
			c-0.49,0-0.97,0.1-1.4,0.37s-0.75,0.68-0.94,1.22L92.24,28.41z M89.92,35.28c-0.08,0.27,0.07,0.54,0.34,0.62
			c0.27,0.08,0.54-0.07,0.62-0.34L89.92,35.28z M95.32,32.78l-0.25-0.43l0,0L95.32,32.78z M91.29,28.09
			c-0.09,0.26,0.05,0.55,0.31,0.63s0.55-0.05,0.63-0.31L91.29,28.09z"/>
		<g>
			<g>
				<defs>
					<path id="SVGID_00000059277091479034115650000017755996382220982691_" d="M35.59,24.11c-0.56,0.23-0.78,0.82-0.55,1.45
						c0.21,0.51,0.76,0.89,1.4,0.63c0.57-0.23,0.8-0.83,0.55-1.43C36.74,24.14,36.16,23.87,35.59,24.11L35.59,24.11z"/>
				</defs>
				<clipPath id="SVGID_00000011732589154620683720000006679456859393896601_">
					<use xlink:href="#SVGID_00000059277091479034115650000017755996382220982691_"  style="overflow:visible;"/>
				</clipPath>
				<path style="clip-path:url(#SVGID_00000011732589154620683720000006679456859393896601_);fill:#70747D;" d="M35.58,25.11
					L35.58,25.11l0.01-2h-0.01V25.11z M37.92,24.39c-0.21-0.51-0.58-0.95-1.09-1.18c-0.52-0.24-1.1-0.24-1.63-0.02l0.76,1.85
					c0.03-0.01,0.04-0.01,0.04-0.01h-0.01c-0.01-0.01,0.03,0.01,0.07,0.11L37.92,24.39z M36.81,27.12c1.14-0.46,1.54-1.68,1.1-2.74
					l-1.85,0.77c0.02,0.04,0.02,0.08,0.02,0.09c0,0.02,0,0.02,0,0.02v-0.01c0,0-0.01,0.01-0.03,0.02L36.81,27.12z M34.11,25.95
					c0.36,0.87,1.42,1.7,2.7,1.18l-0.75-1.85c-0.03,0.01-0.04,0.01-0.03,0.01c0.01,0,0.01,0,0.01,0s-0.02-0.01-0.03-0.03
					c-0.02-0.02-0.03-0.04-0.04-0.07L34.11,25.95z M35.21,23.19c-0.53,0.22-0.93,0.63-1.13,1.15c-0.19,0.51-0.17,1.07,0.02,1.57
					l1.88-0.69c-0.02-0.06-0.03-0.11-0.03-0.14c0-0.03,0-0.04,0-0.04l0,0c0,0,0,0,0,0.01c0,0,0,0,0.02-0.01L35.21,23.19z
					 M35.58,24.11l-0.38-0.92l0.38,1.92V24.11z M36.99,24.76l-0.93,0.37v0.01L36.99,24.76z M36.44,26.19l-0.37-0.93l0,0L36.44,26.19
					z M35.04,25.56L34.1,25.9l0.01,0.02l0.01,0.02L35.04,25.56z M35.59,24.11l0.38,0.93l-0.38-1.93V24.11z"/>
			</g>
		</g>
		<path class="st64" d="M35.53,16.73c-0.07,0.34-0.23,0.73-0.45,1.18c-0.21,0.43-0.47,0.93-0.68,1.41
			c-0.42,0.96-0.76,2.13-0.08,3.21L35.17,22c-0.39-0.62-0.26-1.35,0.15-2.28c0.2-0.46,0.44-0.9,0.67-1.38
			c0.22-0.46,0.43-0.94,0.53-1.42L35.53,16.73z M30.69,16.25c-0.18-0.31-0.22-0.59-0.18-0.85c0.04-0.26,0.18-0.53,0.41-0.79
			c0.47-0.52,1.26-0.93,2.08-1.07c0.83-0.14,1.59,0.01,2.06,0.45c0.45,0.42,0.77,1.24,0.47,2.73l0.98,0.2
			c0.34-1.69,0.04-2.92-0.76-3.67c-0.78-0.73-1.9-0.87-2.9-0.7c-1.01,0.17-2.02,0.67-2.66,1.39c-0.32,0.36-0.57,0.8-0.65,1.29
			c-0.08,0.5,0.01,1.01,0.3,1.51L30.69,16.25z M34.32,22.54c0.15,0.23,0.46,0.3,0.69,0.16s0.3-0.46,0.16-0.69L34.32,22.54z
			 M36.02,16.83l-0.49-0.1l0,0L36.02,16.83z M29.83,16.75c0.14,0.24,0.44,0.32,0.68,0.18s0.32-0.44,0.18-0.68L29.83,16.75z"/>
	</g>
</g>
</svg>
