<?xml version="1.0" encoding="utf-8"?>
<!-- Generator: Adobe Illustrator 27.7.0, SVG Export Plug-In . SVG Version: 6.00 Build 0)  -->
<svg version="1.1" id="레이어_1" xmlns="http://www.w3.org/2000/svg" xmlns:xlink="http://www.w3.org/1999/xlink" x="0px"
	 y="0px" viewBox="0 0 120 120" style="enable-background:new 0 0 120 120;" xml:space="preserve">
<style type="text/css">
	.st0{clip-path:url(#SVGID_00000034768927332664908860000012970388514257217955_);fill:#F4F4F4;}
	.st1{clip-path:url(#SVGID_00000034768927332664908860000012970388514257217955_);}
	.st2{clip-path:url(#SVGID_00000017487510597559835290000014509273511610351509_);fill:#F4F4F4;}
	.st3{clip-path:url(#SVGID_00000080905361293933062100000011252727803186362809_);fill:#80ABFF;}
	.st4{clip-path:url(#SVGID_00000047761161804203076640000010664226821327614592_);fill:#80ABFF;}
	.st5{clip-path:url(#SVGID_00000087404615825492334590000000507376686594933634_);fill:#F4F4F4;}
	.st6{clip-path:url(#SVGID_00000025434800632502556830000016317256268394727358_);fill:#050505;}
	.st7{clip-path:url(#SVGID_00000075851929859368395120000017196378636395932603_);fill:#F4F4F4;}
	.st8{clip-path:url(#SVGID_00000068677095174635690950000010709141273816180354_);fill:#050505;}
	.st9{clip-path:url(#SVGID_00000129916260576879253730000012362134710662459583_);fill:#F4F4F4;}
	.st10{clip-path:url(#SVGID_00000096747639484724203110000008828087017687534468_);fill:#050505;}
	.st11{clip-path:url(#SVGID_00000068655107660966479650000011934983767297353640_);fill:#F4F4F4;}
	.st12{clip-path:url(#SVGID_00000127036198860420824440000006705381523461999494_);fill:#050505;}
	.st13{clip-path:url(#SVGID_00000007403052927628771420000008410021589092658587_);fill:#F4F4F4;}
	.st14{clip-path:url(#SVGID_00000013883193662076752900000004748219794866060987_);fill:#050505;}
	.st15{clip-path:url(#SVGID_00000080186517717400928420000005475950465804792472_);fill:#F4F4F4;}
	.st16{clip-path:url(#SVGID_00000005972296935829516850000009312847605491681178_);fill:#050505;}
	.st17{clip-path:url(#SVGID_00000182504450068339039110000012600391801386896059_);fill:#80ABFF;}
	.st18{clip-path:url(#SVGID_00000139292271352080367520000000497304400125091742_);fill:#050505;}
	.st19{clip-path:url(#SVGID_00000042735475273523161210000017540151285262655625_);fill:#F4F4F4;}
	.st20{clip-path:url(#SVGID_00000070824784215370121550000008694251334951485826_);fill:#050505;}
	.st21{clip-path:url(#SVGID_00000098203360869772634440000013761472294001590914_);fill:#F4F4F4;}
	.st22{clip-path:url(#SVGID_00000099621071102630144610000008412708272022675628_);fill:#050505;}
	.st23{clip-path:url(#SVGID_00000052816444194801968230000008417846105733588927_);fill:#F4F4F4;}
	.st24{clip-path:url(#SVGID_00000091727577932975109220000004502619764535791500_);}
	.st25{clip-path:url(#SVGID_00000081609055918904729980000011324708177149375914_);fill:#050505;}
	.st26{clip-path:url(#SVGID_00000140012070357454021390000007081813806720794534_);fill:#050505;}
	.st27{clip-path:url(#SVGID_00000180350133630278500050000008167185365298728326_);}
	.st28{clip-path:url(#SVGID_00000081614003669646079170000016774354501223061157_);fill:#050505;}
	.st29{clip-path:url(#SVGID_00000179628397781973537240000010290279784490669961_);fill:#050505;}
	.st30{clip-path:url(#SVGID_00000156573645901022076390000011685735008805807774_);}
	.st31{clip-path:url(#SVGID_00000010279030618527690550000015391299814880265381_);fill:#050505;}
	.st32{clip-path:url(#SVGID_00000133504663361594036740000018431205091075770029_);fill:#050505;}
	.st33{clip-path:url(#SVGID_00000034078244421511630590000008055541061726732930_);fill:#050505;}
	.st34{clip-path:url(#SVGID_00000154425624338586700400000010270597104134103990_);fill:#050505;}
	.st35{clip-path:url(#SVGID_00000169550367672554490860000004735106597696118715_);fill:#050505;}
	.st36{clip-path:url(#SVGID_00000075857961404491631640000001821554437538648974_);fill:#80ABFF;}
	.st37{clip-path:url(#SVGID_00000135665985292434108590000012733931023503074974_);fill:#F4F4F4;}
	.st38{clip-path:url(#SVGID_00000008150697033960352980000011033895522758458244_);fill:#050505;}
	.st39{clip-path:url(#SVGID_00000119093347880371896280000001669957627628851627_);fill:#050505;}
	.st40{clip-path:url(#SVGID_00000052825505663897989330000018076118600645554614_);fill:#F4F4F4;}
	.st41{clip-path:url(#SVGID_00000073686810977704343990000003752991178808713351_);fill:#050505;}
	.st42{clip-path:url(#SVGID_00000049184695022200832790000015745213502612561815_);fill:#F4F4F4;}
	.st43{clip-path:url(#SVGID_00000132778588343915001980000014414562765221440432_);fill:#050505;}
	.st44{clip-path:url(#SVGID_00000038406692783364979610000016213775360706007454_);fill:#F4F4F4;}
	.st45{clip-path:url(#SVGID_00000018225846679359382250000005401842979043937718_);fill:#050505;}
	.st46{clip-path:url(#SVGID_00000165918458683808168500000012953060189865235611_);fill:#050505;}
	.st47{clip-path:url(#SVGID_00000027586038222889462980000009223906807497457298_);fill:#F4F4F4;}
	.st48{clip-path:url(#SVGID_00000038377595733008447250000018440029840088858005_);fill:#050505;}
	.st49{clip-path:url(#SVGID_00000005268083185106520040000017663058351497612942_);fill:#70747D;}
	.st50{fill:#70747D;}
	.st51{clip-path:url(#SVGID_00000178182807594384346540000013742724056632801168_);fill:#70747D;}
</style>
<g>
	<defs>
		<path id="SVGID_1_" d="M60,5.14c27.61,0,50,33.25,50,60.86s-22.39,50-50,50S10,93.61,10,66S32.39,5.14,60,5.14z"/>
	</defs>
	<clipPath id="SVGID_00000096029613154621386440000001048653097645365906_">
		<use xlink:href="#SVGID_1_"  style="overflow:visible;"/>
	</clipPath>
	
		<circle style="clip-path:url(#SVGID_00000096029613154621386440000001048653097645365906_);fill:#F4F4F4;" cx="60" cy="66" r="50"/>
	<g style="clip-path:url(#SVGID_00000096029613154621386440000001048653097645365906_);">
		<g>
			<g>
				<defs>
					<rect id="SVGID_00000132066712613364719660000007354579928061346494_" y="0" width="120" height="120"/>
				</defs>
				<clipPath id="SVGID_00000137824290125675793570000002601862843501945477_">
					<use xlink:href="#SVGID_00000132066712613364719660000007354579928061346494_"  style="overflow:visible;"/>
				</clipPath>
				<path style="clip-path:url(#SVGID_00000137824290125675793570000002601862843501945477_);fill:#F4F4F4;" d="M60.96,99.7
					c9.78-17.66,12.01-35.55,12.24-43.4H46.26c0.23,7.85,2.46,25.74,12.24,43.4H60.96z"/>
			</g>
			<g>
				<defs>
					<rect id="SVGID_00000178179178638071575760000001771026281188588955_" y="0" width="120" height="120"/>
				</defs>
				<clipPath id="SVGID_00000021814808166161850870000011688077482516104837_">
					<use xlink:href="#SVGID_00000178179178638071575760000001771026281188588955_"  style="overflow:visible;"/>
				</clipPath>
				<polygon style="clip-path:url(#SVGID_00000021814808166161850870000011688077482516104837_);fill:#80ABFF;" points="
					64.11,103.04 63.12,76.56 61.14,65.36 58.25,65.36 56.25,76.56 55.25,103.04 				"/>
			</g>
			<g>
				<defs>
					<rect id="SVGID_00000007414457851021338990000008245814709021626274_" y="0" width="120" height="120"/>
				</defs>
				<clipPath id="SVGID_00000077292854695211869430000015920352306680173445_">
					<use xlink:href="#SVGID_00000007414457851021338990000008245814709021626274_"  style="overflow:visible;"/>
				</clipPath>
				<path style="clip-path:url(#SVGID_00000077292854695211869430000015920352306680173445_);fill:#80ABFF;" d="M55.12,61.82
					c-0.02-1.87,2.81-2.39,4.63-2.41s4.38,0.44,4.4,2.3c0.01,0.86-0.78,2.17-1.48,3.33c-0.4,0.66-1.77,2.22-1.77,2.22h-2.45
					c0,0-1.27-1.51-1.67-2.14C56.07,63.98,55.12,62.68,55.12,61.82L55.12,61.82z"/>
			</g>
			<g>
				<defs>
					<rect id="SVGID_00000062904380309391966590000016117461908659285439_" y="0" width="120" height="120"/>
				</defs>
				<clipPath id="SVGID_00000086686103862152352760000005069181363172275088_">
					<use xlink:href="#SVGID_00000062904380309391966590000016117461908659285439_"  style="overflow:visible;"/>
				</clipPath>
				<path style="clip-path:url(#SVGID_00000086686103862152352760000005069181363172275088_);fill:#F4F4F4;" d="M36.47,114.5H83.5
					l-0.35-5.2l4.26-47.71c0,0-18.44-7.31-18.51-6.13c-0.32,5.06,3.32,18.44-8.91,41.64C47.8,73.22,51.4,60.52,51.07,55.47
					c-0.08-1.19-18.51,6.13-18.51,6.13l4.26,47.71L36.47,114.5z"/>
			</g>
			<g>
				<defs>
					<rect id="SVGID_00000147203324934759442110000005804103903977140869_" y="0" width="120" height="120"/>
				</defs>
				<clipPath id="SVGID_00000116949352564806332370000007252947548489163943_">
					<use xlink:href="#SVGID_00000147203324934759442110000005804103903977140869_"  style="overflow:visible;"/>
				</clipPath>
				<path style="clip-path:url(#SVGID_00000116949352564806332370000007252947548489163943_);fill:#050505;" d="M36.69,107.23
					l-0.35,5.74l1,0.06l0.35-5.74L36.69,107.23z M32.5,61.96l4.19,45.35l1-0.09L33.5,61.86L32.5,61.96z M51.73,55.12
					c-0.01-0.22-0.13-0.39-0.29-0.49c-0.13-0.08-0.28-0.11-0.38-0.12c-0.21-0.02-0.47,0.01-0.73,0.06c-0.54,0.1-1.28,0.32-2.14,0.61
					c-1.73,0.58-4.02,1.47-6.29,2.4c-2.28,0.93-4.55,1.9-6.26,2.64c-0.85,0.37-1.56,0.68-2.06,0.9c-0.25,0.11-0.44,0.2-0.58,0.25
					c-0.07,0.03-0.12,0.05-0.15,0.07c-0.02,0.01-0.03,0.01-0.04,0.02H32.8l0,0l0,0c0,0,0,0,0.2,0.46s0.2,0.46,0.2,0.46l0,0l0,0h0.01
					c0.01,0,0.02-0.01,0.04-0.02c0.03-0.02,0.09-0.04,0.15-0.07c0.13-0.06,0.33-0.14,0.58-0.25c0.5-0.22,1.2-0.53,2.06-0.9
					c1.7-0.74,3.97-1.7,6.24-2.63c2.27-0.93,4.54-1.81,6.23-2.38c0.85-0.29,1.54-0.48,2.01-0.57c0.24-0.05,0.38-0.05,0.45-0.05
					c0.03,0,0,0.01-0.06-0.03c-0.09-0.05-0.17-0.16-0.17-0.3L51.73,55.12z M60.46,100.92c-5.97-13.14-8.07-23.18-8.72-30.62
					c-0.32-3.72-0.29-6.8-0.19-9.3c0.1-2.47,0.26-4.45,0.18-5.88l-1,0.06c0.08,1.36-0.08,3.23-0.18,5.78
					c-0.1,2.52-0.14,5.65,0.19,9.43c0.66,7.56,2.78,17.71,8.8,30.95L60.46,100.92z M68.27,55.12c-0.08,1.43,0.09,3.45,0.19,5.99
					c0.1,2.56,0.14,5.71-0.18,9.48c-0.64,7.54-2.74,17.58-8.73,30.33l0.91,0.43c6.04-12.86,8.17-23.02,8.83-30.67
					c0.33-3.83,0.28-7.02,0.18-9.6c-0.11-2.61-0.27-4.52-0.19-5.89L68.27,55.12z M87,61.91c0.2-0.46,0.2-0.46,0.2-0.46l0,0l0,0
					h-0.01c-0.01,0-0.02-0.01-0.04-0.02c-0.03-0.02-0.09-0.04-0.15-0.07c-0.13-0.06-0.33-0.15-0.58-0.25
					c-0.5-0.22-1.21-0.53-2.06-0.9c-1.71-0.74-3.98-1.71-6.26-2.64s-4.56-1.82-6.29-2.4c-0.86-0.29-1.6-0.5-2.14-0.61
					c-0.26-0.05-0.52-0.08-0.73-0.06c-0.1,0.01-0.25,0.04-0.38,0.12c-0.16,0.1-0.28,0.27-0.29,0.49l1,0.06
					c-0.01,0.14-0.09,0.24-0.17,0.3c-0.06,0.04-0.1,0.03-0.06,0.03c0.06-0.01,0.21,0,0.45,0.05c0.47,0.09,1.16,0.29,2.01,0.57
					c1.7,0.57,3.96,1.45,6.23,2.38c2.27,0.93,4.54,1.89,6.24,2.63c0.85,0.37,1.56,0.68,2.06,0.9c0.25,0.11,0.44,0.19,0.58,0.25
					c0.07,0.03,0.12,0.05,0.15,0.07c0.02,0.01,0.03,0.01,0.04,0.02h0.01l0,0l0,0C86.8,62.37,86.8,62.37,87,61.91z M83.3,107.31
					l4.19-45.35l-1-0.09l-4.19,45.35L83.3,107.31z M83.64,112.72l-0.34-5.49l-1,0.06l0.34,5.49L83.64,112.72z M36.35,112.97
					c-0.02,0.28,0.19,0.51,0.47,0.53c0.28,0.02,0.51-0.19,0.53-0.47L36.35,112.97z M37.19,107.26l0.5,0.03c0-0.03,0-0.05,0-0.08
					L37.19,107.26z M33,61.91l-0.2-0.46c-0.2,0.09-0.31,0.29-0.29,0.5L33,61.91z M51.23,55.14l-0.5,0.03l0,0L51.23,55.14z
					 M60,101.12l-0.46,0.21c0.08,0.18,0.26,0.29,0.45,0.29c0.19,0,0.37-0.11,0.46-0.29L60,101.12z M68.77,55.14l-0.5-0.03l0,0
					L68.77,55.14z M87,61.91l0.5,0.05c0.02-0.21-0.1-0.42-0.29-0.5L87,61.91z M82.81,107.26l-0.5-0.05c0,0.03,0,0.05,0,0.08
					L82.81,107.26z M82.64,112.78c0.02,0.28,0.25,0.49,0.53,0.47s0.49-0.25,0.47-0.53L82.64,112.78z"/>
			</g>
			<g>
				<defs>
					<rect id="SVGID_00000000938478440307301540000010112315359660964757_" y="0" width="120" height="120"/>
				</defs>
				<clipPath id="SVGID_00000065055367877463711580000015222155098639777196_">
					<use xlink:href="#SVGID_00000000938478440307301540000010112315359660964757_"  style="overflow:visible;"/>
				</clipPath>
				<polygon style="clip-path:url(#SVGID_00000065055367877463711580000015222155098639777196_);fill:#F4F4F4;" points="
					66.97,59.19 59.8,59.22 52.4,59.19 52.4,46.39 66.97,46.39 				"/>
			</g>
			<g>
				<defs>
					<rect id="SVGID_00000014625502858659794760000012852923664437906844_" y="0" width="120" height="120"/>
				</defs>
				<clipPath id="SVGID_00000028288220685437950810000009544171752394594216_">
					<use xlink:href="#SVGID_00000014625502858659794760000012852923664437906844_"  style="overflow:visible;"/>
				</clipPath>
				<path style="clip-path:url(#SVGID_00000028288220685437950810000009544171752394594216_);fill:#050505;" d="M66.47,46.39v12.8h1
					v-12.8H66.47z M52.4,46.89h14.57v-1H52.4V46.89z M52.9,59.19v-12.8h-1v12.8H52.9z M59.8,58.72l-7.4-0.03v1l7.4,0.03V58.72z
					 M66.97,58.69l-7.17,0.03v1l7.17-0.03V58.69z M66.97,46.39h0.5c0-0.28-0.22-0.5-0.5-0.5V46.39z M52.4,46.39v-0.5
					c-0.28,0-0.5,0.22-0.5,0.5H52.4z M52.4,59.19h-0.5c0,0.28,0.22,0.5,0.5,0.5V59.19z M59.8,59.22v0.5l0,0V59.22z M66.97,59.19v0.5
					c0.28,0,0.5-0.22,0.5-0.5H66.97z"/>
			</g>
			<g>
				<defs>
					<rect id="SVGID_00000077283115113336634100000013853645057839439241_" y="0" width="120" height="120"/>
				</defs>
				<clipPath id="SVGID_00000019645181708980606680000007056615676316142734_">
					<use xlink:href="#SVGID_00000077283115113336634100000013853645057839439241_"  style="overflow:visible;"/>
				</clipPath>
				<path style="clip-path:url(#SVGID_00000019645181708980606680000007056615676316142734_);fill:#F4F4F4;" d="M50.91,53.51
					c-0.07-0.17,1.38-2.71,1.36-2.43c-0.26,2.3,1.79,4.59,7.48,8.29c0.41,0.27-3.13,1.57-5.01,4.22c-1.72,2.42-4.05,4.71-4.05,4.71
					C47.62,60.64,50.92,53.52,50.91,53.51L50.91,53.51z"/>
			</g>
			<g>
				<defs>
					<rect id="SVGID_00000176002707237189916370000004132254842234826629_" y="0" width="120" height="120"/>
				</defs>
				<clipPath id="SVGID_00000058573552081785456850000007787846974304581000_">
					<use xlink:href="#SVGID_00000176002707237189916370000004132254842234826629_"  style="overflow:visible;"/>
				</clipPath>
				<path style="clip-path:url(#SVGID_00000058573552081785456850000007787846974304581000_);fill:#050505;" d="M51.27,53.17
					L51.27,53.17l-0.72,0.7l0.01,0.01L51.27,53.17z M51.16,68.12c-1.49-3.72-1.44-7.32-1.01-10c0.22-1.34,0.52-2.44,0.78-3.21
					c0.13-0.38,0.24-0.68,0.32-0.88c0.04-0.1,0.07-0.18,0.09-0.23c0.01-0.03,0.02-0.04,0.02-0.06c0-0.01,0-0.01,0.01-0.01l0,0l0,0
					l0,0c0,0,0,0-0.45-0.21s-0.45-0.21-0.45-0.21l0,0l0,0c0,0,0,0,0,0.01c0,0,0,0.01-0.01,0.02c-0.01,0.02-0.02,0.04-0.03,0.07
					c-0.03,0.06-0.06,0.14-0.1,0.25c-0.09,0.22-0.21,0.54-0.34,0.94c-0.27,0.81-0.59,1.96-0.82,3.36c-0.45,2.8-0.51,6.59,1.07,10.53
					L51.16,68.12z M54.34,63.3c-0.84,1.19-1.84,2.35-2.63,3.22c-0.39,0.43-0.74,0.79-0.98,1.04c-0.12,0.12-0.22,0.22-0.28,0.29
					c-0.03,0.03-0.06,0.06-0.08,0.08c-0.01,0.01-0.01,0.01-0.02,0.02l0,0l0,0l0,0l0,0c0,0,0,0,0.35,0.36s0.35,0.36,0.35,0.36l0,0
					l0,0l0,0c0,0,0,0,0.01-0.01c0,0,0.01-0.01,0.02-0.02c0.02-0.02,0.04-0.04,0.08-0.08c0.07-0.07,0.17-0.17,0.29-0.3
					c0.25-0.26,0.6-0.62,1-1.07c0.8-0.88,1.83-2.08,2.71-3.31L54.34,63.3z M59.48,59.79c-0.04-0.03-0.1-0.08-0.15-0.17
					c-0.05-0.09-0.06-0.19-0.04-0.27c0.01-0.07,0.04-0.12,0.05-0.14c0.01-0.01,0.01-0.02,0.02-0.03l0.01-0.01c0,0,0,0-0.02,0.02
					c-0.01,0.01-0.03,0.02-0.05,0.04c-0.04,0.03-0.1,0.07-0.17,0.12c-0.14,0.09-0.33,0.21-0.55,0.35c-0.22,0.14-0.47,0.29-0.75,0.47
					c-1.08,0.7-2.5,1.73-3.5,3.14l0.82,0.58c0.88-1.25,2.17-2.19,3.22-2.88c0.26-0.17,0.51-0.32,0.73-0.46
					c0.22-0.13,0.42-0.26,0.58-0.36c0.15-0.1,0.31-0.21,0.42-0.33c0.05-0.05,0.15-0.17,0.18-0.35c0.02-0.1,0.01-0.22-0.05-0.34
					c-0.05-0.11-0.13-0.18-0.2-0.22L59.48,59.79z M51.77,51.03c-0.15,1.34,0.39,2.63,1.64,4.01c1.24,1.37,3.22,2.9,6.07,4.76
					l0.54-0.84c-2.84-1.84-4.73-3.31-5.87-4.59c-1.14-1.26-1.49-2.28-1.39-3.23L51.77,51.03z M51.38,53.33
					c0.04,0.1,0.03,0.18,0.03,0.2c0,0.03-0.01,0.04-0.01,0.04s0-0.01,0.02-0.05c0.03-0.07,0.07-0.16,0.13-0.29
					c0.12-0.25,0.29-0.56,0.46-0.87c0.17-0.31,0.34-0.59,0.47-0.78c0.07-0.1,0.1-0.15,0.12-0.17c0,0-0.01,0.01-0.02,0.02
					c0,0-0.06,0.06-0.16,0.09c-0.05,0.02-0.16,0.04-0.3,0c-0.15-0.04-0.24-0.14-0.29-0.24c-0.04-0.08-0.05-0.15-0.06-0.19
					c0-0.04,0-0.07,0-0.08l1,0.1c0-0.02,0.02-0.16-0.06-0.31c-0.05-0.1-0.15-0.2-0.3-0.24c-0.13-0.04-0.25-0.01-0.31,0.01
					c-0.11,0.04-0.18,0.1-0.19,0.11c-0.03,0.03-0.05,0.05-0.07,0.07c-0.06,0.07-0.13,0.17-0.2,0.27c-0.14,0.21-0.32,0.52-0.5,0.84
					s-0.36,0.65-0.49,0.92c-0.07,0.13-0.12,0.26-0.16,0.36c-0.02,0.05-0.04,0.11-0.06,0.17c-0.01,0.03-0.02,0.07-0.02,0.12
					c0,0.04-0.01,0.13,0.03,0.24L51.38,53.33z M50.92,53.52l0.45,0.21c0.09-0.19,0.05-0.42-0.1-0.56L50.92,53.52z M50.69,68.31
					l-0.46,0.19c0.06,0.16,0.2,0.27,0.36,0.3c0.16,0.03,0.33-0.02,0.45-0.13L50.69,68.31z M54.74,63.59l0.41,0.29l0,0L54.74,63.59z
					 M59.75,59.37l0.27-0.42l0,0L59.75,59.37z M52.27,51.08l0.5,0.06v-0.01L52.27,51.08z M50.91,53.51l-0.47,0.18
					c0.03,0.06,0.06,0.12,0.11,0.17L50.91,53.51z"/>
			</g>
			<g>
				<defs>
					<rect id="SVGID_00000005986675081480982110000009923508765320144022_" y="0" width="120" height="120"/>
				</defs>
				<clipPath id="SVGID_00000115512083417876439380000016744130472656359338_">
					<use xlink:href="#SVGID_00000005986675081480982110000009923508765320144022_"  style="overflow:visible;"/>
				</clipPath>
				<path style="clip-path:url(#SVGID_00000115512083417876439380000016744130472656359338_);fill:#F4F4F4;" d="M68.31,53.51
					c0.07-0.17-1.38-2.71-1.36-2.43c0.26,2.3-1.79,4.59-7.48,8.29c-0.41,0.27,3.13,1.57,5.01,4.22c1.72,2.42,4.05,4.71,4.05,4.71
					C71.6,60.64,68.3,53.52,68.31,53.51L68.31,53.51z"/>
			</g>
			<g>
				<defs>
					<rect id="SVGID_00000119077712417552441480000015917394148571915661_" y="0" width="120" height="120"/>
				</defs>
				<clipPath id="SVGID_00000004524568111911765030000010338458408383818634_">
					<use xlink:href="#SVGID_00000119077712417552441480000015917394148571915661_"  style="overflow:visible;"/>
				</clipPath>
				<path style="clip-path:url(#SVGID_00000004524568111911765030000010338458408383818634_);fill:#050505;" d="M68.65,53.87
					L68.65,53.87l-0.7-0.72l-0.01,0.01L68.65,53.87z M68.99,68.49c1.58-3.94,1.52-7.73,1.07-10.53c-0.23-1.4-0.55-2.56-0.82-3.36
					c-0.13-0.4-0.25-0.72-0.34-0.94c-0.04-0.11-0.08-0.19-0.1-0.25c-0.01-0.03-0.02-0.05-0.03-0.07c0-0.01-0.01-0.01-0.01-0.02
					c0,0,0,0,0-0.01l0,0l0,0c0,0,0,0-0.45,0.21s-0.45,0.21-0.45,0.21l0,0l0,0l0,0c0,0,0,0.01,0.01,0.01
					c0.01,0.01,0.01,0.03,0.02,0.06c0.02,0.05,0.05,0.13,0.09,0.23c0.08,0.2,0.19,0.5,0.32,0.88c0.25,0.77,0.56,1.87,0.78,3.21
					c0.43,2.68,0.48,6.28-1.01,10L68.99,68.49z M64.07,63.88c0.87,1.23,1.9,2.43,2.71,3.31c0.4,0.44,0.75,0.81,1,1.07
					c0.12,0.13,0.22,0.23,0.29,0.3c0.03,0.03,0.06,0.06,0.08,0.08c0.01,0.01,0.02,0.02,0.02,0.02s0,0,0.01,0.01l0,0l0,0l0,0
					c0,0,0,0,0.35-0.36s0.35-0.36,0.35-0.36l0,0l0,0l0,0l0,0c0,0-0.01-0.01-0.02-0.02c-0.02-0.02-0.04-0.04-0.08-0.08
					c-0.07-0.07-0.16-0.16-0.28-0.29c-0.24-0.25-0.58-0.61-0.98-1.04c-0.79-0.87-1.79-2.03-2.63-3.22L64.07,63.88z M59.19,58.95
					c-0.07,0.04-0.15,0.11-0.2,0.22c-0.06,0.11-0.07,0.23-0.05,0.34c0.03,0.18,0.13,0.3,0.18,0.35c0.11,0.12,0.27,0.23,0.42,0.33
					c0.16,0.11,0.36,0.23,0.58,0.36c0.22,0.14,0.47,0.29,0.73,0.46c1.06,0.68,2.34,1.63,3.22,2.88l0.82-0.58
					c-1-1.41-2.42-2.44-3.5-3.14c-0.27-0.18-0.53-0.33-0.75-0.47s-0.41-0.25-0.55-0.35c-0.07-0.05-0.13-0.09-0.17-0.12
					c-0.02-0.02-0.04-0.03-0.05-0.04c-0.01-0.01-0.02-0.02-0.02-0.02s0,0,0.01,0.01c0,0,0.01,0.01,0.02,0.03
					c0.01,0.02,0.04,0.07,0.05,0.14c0.01,0.08,0,0.18-0.04,0.27s-0.11,0.14-0.15,0.17L59.19,58.95z M66.45,51.14
					c0.11,0.95-0.25,1.96-1.39,3.23c-1.15,1.27-3.03,2.74-5.87,4.59l0.54,0.84c2.85-1.85,4.83-3.38,6.07-4.76
					c1.25-1.38,1.79-2.67,1.64-4.01L66.45,51.14z M68.77,53.69c0.04-0.11,0.04-0.21,0.03-0.24c0-0.05-0.01-0.09-0.02-0.12
					c-0.01-0.06-0.04-0.12-0.06-0.17c-0.04-0.1-0.1-0.23-0.16-0.36c-0.13-0.27-0.31-0.6-0.49-0.92s-0.36-0.62-0.5-0.84
					c-0.07-0.1-0.14-0.2-0.2-0.27c-0.02-0.02-0.04-0.04-0.07-0.07c-0.02-0.01-0.09-0.08-0.19-0.11c-0.06-0.02-0.17-0.05-0.31-0.01
					c-0.15,0.04-0.25,0.15-0.3,0.24c-0.08,0.15-0.06,0.29-0.06,0.31l1-0.1c0,0.01,0,0.04,0,0.08c0,0.03-0.01,0.11-0.06,0.19
					c-0.05,0.09-0.15,0.19-0.29,0.24c-0.13,0.04-0.24,0.01-0.3,0c-0.1-0.03-0.16-0.09-0.16-0.09c-0.01-0.01-0.02-0.02-0.02-0.02
					c0.01,0.01,0.05,0.07,0.12,0.17c0.12,0.19,0.29,0.47,0.47,0.78c0.17,0.31,0.34,0.62,0.46,0.87c0.06,0.12,0.1,0.22,0.13,0.29
					c0.01,0.03,0.02,0.05,0.02,0.05s0-0.02-0.01-0.04c0-0.02-0.01-0.1,0.03-0.2L68.77,53.69z M68.3,53.52l-0.35-0.35
					c-0.15,0.15-0.19,0.37-0.1,0.56L68.3,53.52z M68.52,68.31l-0.35,0.36c0.12,0.12,0.29,0.17,0.45,0.13s0.3-0.15,0.36-0.3
					L68.52,68.31z M64.47,63.59l-0.41,0.29l0,0L64.47,63.59z M59.47,59.37l-0.27-0.42l0,0L59.47,59.37z M66.95,51.08l-0.5,0.05v0.01
					L66.95,51.08z M68.31,53.51l0.35,0.35c0.05-0.05,0.09-0.11,0.11-0.17L68.31,53.51z"/>
			</g>
			<g>
				<defs>
					<rect id="SVGID_00000132787412680146712400000009073786052994248083_" y="0" width="120" height="120"/>
				</defs>
				<clipPath id="SVGID_00000024708725612004648840000006798425550782280874_">
					<use xlink:href="#SVGID_00000132787412680146712400000009073786052994248083_"  style="overflow:visible;"/>
				</clipPath>
				<path style="clip-path:url(#SVGID_00000024708725612004648840000006798425550782280874_);fill:#F4F4F4;" d="M42.82,58.24
					l1.87,3.31l-3.29,2.03c0,0,5.98,16.11,9.98,22.63c3.99,6.52,8.39,12.02,8.39,12.02s-12.55-29.79-9.5-41.45l1.23-3.88
					L42.82,58.24L42.82,58.24z"/>
			</g>
			<g>
				<defs>
					<rect id="SVGID_00000159434063902923515660000003346366026769013388_" y="0" width="120" height="120"/>
				</defs>
				<clipPath id="SVGID_00000039854809914830429550000001215684674834463378_">
					<use xlink:href="#SVGID_00000159434063902923515660000003346366026769013388_"  style="overflow:visible;"/>
				</clipPath>
				<path style="clip-path:url(#SVGID_00000039854809914830429550000001215684674834463378_);fill:#050505;" d="M42.83,57.74
					L42.83,57.74l-0.01,1h0.01V57.74z M51.24,52.48l-8.67,5.34l0.52,0.85l8.67-5.34L51.24,52.48z M50.74,56.94l1.23-3.88l-0.95-0.3
					l-1.23,3.88L50.74,56.94z M59.77,98.23c0.46-0.19,0.46-0.19,0.46-0.19l0,0l0,0c0,0,0-0.01-0.01-0.02
					c-0.01-0.01-0.01-0.04-0.03-0.06c-0.02-0.06-0.06-0.14-0.1-0.25c-0.09-0.22-0.22-0.54-0.39-0.96c-0.34-0.83-0.81-2.04-1.38-3.52
					c-1.13-2.97-2.6-7.05-3.97-11.49c-1.37-4.44-2.65-9.24-3.39-13.64c-0.75-4.42-0.94-8.38-0.21-11.18l-0.97-0.25
					c-0.79,3.02-0.56,7.16,0.19,11.6c0.75,4.46,2.04,9.3,3.43,13.77c1.38,4.47,2.86,8.56,3.99,11.55c0.57,1.49,1.05,2.7,1.38,3.54
					c0.17,0.42,0.3,0.75,0.39,0.97c0.05,0.11,0.08,0.2,0.11,0.25c0.01,0.03,0.02,0.05,0.03,0.07c0,0.01,0.01,0.01,0.01,0.02l0,0l0,0
					C59.31,98.43,59.31,98.43,59.77,98.23z M50.95,86.48c2.01,3.27,4.11,6.29,5.72,8.49c0.8,1.1,1.48,1.99,1.96,2.61
					c0.24,0.31,0.43,0.55,0.56,0.72c0.06,0.08,0.11,0.15,0.15,0.19c0.02,0.02,0.03,0.04,0.04,0.05c0,0.01,0.01,0.01,0.01,0.01l0,0
					l0,0l0,0c0,0,0,0,0.39-0.31s0.39-0.31,0.39-0.31l0,0l0,0l0,0l-0.01-0.01c-0.01-0.01-0.02-0.03-0.04-0.05
					c-0.03-0.04-0.08-0.1-0.15-0.18c-0.13-0.16-0.31-0.4-0.55-0.71c-0.47-0.61-1.15-1.5-1.94-2.59c-1.59-2.18-3.68-5.18-5.67-8.42
					L50.95,86.48z M41.4,63.58c-0.47,0.17-0.47,0.17-0.47,0.17l0,0l0,0c0,0,0,0,0,0.01s0.01,0.02,0.01,0.04
					c0.01,0.03,0.03,0.08,0.05,0.14c0.04,0.12,0.11,0.3,0.2,0.52c0.17,0.45,0.42,1.11,0.73,1.92c0.62,1.61,1.5,3.84,2.5,6.26
					c1.99,4.84,4.5,10.53,6.52,13.83l0.85-0.52c-1.97-3.22-4.45-8.84-6.45-13.69c-1-2.42-1.87-4.63-2.49-6.24
					c-0.31-0.81-0.56-1.46-0.73-1.91c-0.09-0.23-0.15-0.4-0.2-0.52c-0.02-0.06-0.04-0.1-0.05-0.14c-0.01-0.02-0.01-0.03-0.01-0.03
					v-0.01l0,0l0,0C41.87,63.41,41.87,63.41,41.4,63.58z M44.43,61.13l-3.29,2.03l0.52,0.85l3.29-2.03L44.43,61.13z M42.38,58.49
					l1.87,3.31l0.87-0.49L43.26,58L42.38,58.49z M42.83,58.24v0.5c0.09,0,0.18-0.03,0.26-0.07L42.83,58.24z M51.5,52.9l0.48,0.15
					c0.06-0.2,0-0.42-0.17-0.55c-0.16-0.13-0.39-0.14-0.57-0.03L51.5,52.9z M50.27,56.78l-0.48-0.15c0,0.01-0.01,0.02-0.01,0.03
					L50.27,56.78z M59.77,98.23l-0.39,0.31c0.16,0.19,0.43,0.24,0.65,0.12c0.21-0.13,0.3-0.39,0.21-0.62L59.77,98.23z M41.4,63.58
					l-0.26-0.43c-0.2,0.13-0.29,0.38-0.21,0.6L41.4,63.58z M44.69,61.55l0.26,0.43c0.23-0.14,0.31-0.44,0.17-0.67L44.69,61.55z
					 M42.82,58.24v-0.5c-0.18,0-0.34,0.09-0.43,0.25c-0.09,0.15-0.09,0.34,0,0.5L42.82,58.24z"/>
			</g>
			<g>
				<defs>
					<rect id="SVGID_00000062173169357080200170000010166395077340320428_" y="0" width="120" height="120"/>
				</defs>
				<clipPath id="SVGID_00000133527071507975581950000013764748741679850892_">
					<use xlink:href="#SVGID_00000062173169357080200170000010166395077340320428_"  style="overflow:visible;"/>
				</clipPath>
				<path style="clip-path:url(#SVGID_00000133527071507975581950000013764748741679850892_);fill:#F4F4F4;" d="M76.71,58.25
					l-1.87,3.31l3.29,2.03c0,0-5.98,16.11-9.98,22.63c-3.99,6.52-8.39,12.02-8.39,12.02s12.55-29.79,9.5-41.45l-1.18-3.98
					L76.71,58.25L76.71,58.25z"/>
			</g>
			<g>
				<defs>
					<rect id="SVGID_00000078729170994266583560000010877016243592696456_" y="0" width="120" height="120"/>
				</defs>
				<clipPath id="SVGID_00000037655458340920681710000013301533224796982669_">
					<use xlink:href="#SVGID_00000078729170994266583560000010877016243592696456_"  style="overflow:visible;"/>
				</clipPath>
				<path style="clip-path:url(#SVGID_00000037655458340920681710000013301533224796982669_);fill:#050505;" d="M76.35,58.59
					L76.35,58.59l0.72-0.7l-0.01-0.01L76.35,58.59z M67.82,53.22l8.61,5.43l0.53-0.85l-8.61-5.43L67.82,53.22z M69.74,56.64
					l-1.18-3.98l-0.96,0.28l1.18,3.98L69.74,56.64z M59.76,98.23c0.46,0.19,0.46,0.19,0.46,0.19l0,0l0,0c0,0,0-0.01,0.01-0.02
					c0.01-0.01,0.02-0.04,0.03-0.07c0.02-0.06,0.06-0.14,0.11-0.25c0.09-0.22,0.23-0.55,0.39-0.97c0.34-0.84,0.82-2.05,1.38-3.54
					c1.13-2.98,2.61-7.08,3.99-11.55c1.38-4.46,2.67-9.3,3.43-13.77c0.75-4.45,0.98-8.58,0.19-11.6l-0.97,0.25
					c0.73,2.81,0.54,6.77-0.21,11.18c-0.74,4.4-2.02,9.2-3.39,13.64c-1.37,4.44-2.84,8.52-3.97,11.49
					c-0.56,1.48-1.04,2.69-1.38,3.52c-0.17,0.42-0.3,0.74-0.39,0.96c-0.05,0.11-0.08,0.19-0.1,0.25c-0.01,0.03-0.02,0.05-0.03,0.06
					c0,0.01-0.01,0.01-0.01,0.02l0,0l0,0C59.3,98.04,59.3,98.04,59.76,98.23z M67.73,85.95c-1.99,3.24-4.08,6.24-5.67,8.42
					c-0.8,1.09-1.47,1.98-1.94,2.59c-0.24,0.31-0.42,0.55-0.55,0.71c-0.06,0.08-0.11,0.14-0.15,0.18c-0.02,0.02-0.03,0.04-0.04,0.05
					c0,0.01-0.01,0.01-0.01,0.01l0,0l0,0l0,0c0,0,0,0,0.39,0.31s0.39,0.31,0.39,0.31l0,0l0,0l0,0l0.01-0.01
					c0.01-0.01,0.02-0.03,0.04-0.05c0.03-0.04,0.08-0.11,0.15-0.19c0.13-0.16,0.32-0.41,0.56-0.72c0.48-0.62,1.15-1.51,1.96-2.61
					c1.6-2.2,3.71-5.21,5.72-8.49L67.73,85.95z M78.13,63.59c-0.47-0.17-0.47-0.17-0.47-0.17l0,0l0,0c0,0,0,0,0,0.01
					s-0.01,0.02-0.01,0.03c-0.01,0.03-0.03,0.08-0.05,0.14c-0.04,0.12-0.11,0.29-0.2,0.52c-0.17,0.45-0.42,1.11-0.73,1.91
					c-0.62,1.61-1.49,3.82-2.49,6.24c-2,4.85-4.48,10.47-6.45,13.69l0.85,0.52c2.02-3.3,4.53-8.99,6.52-13.83
					c1-2.43,1.87-4.65,2.5-6.26c0.31-0.81,0.56-1.46,0.73-1.92c0.09-0.23,0.15-0.4,0.2-0.52c0.02-0.06,0.04-0.11,0.05-0.14
					c0.01-0.02,0.01-0.03,0.01-0.04v-0.01l0,0l0,0C78.6,63.76,78.6,63.76,78.13,63.59z M74.58,61.98l3.29,2.03l0.52-0.85l-3.29-2.03
					L74.58,61.98z M76.27,58l-1.87,3.31l0.87,0.49l1.87-3.31L76.27,58z M76.7,58.24l0.35-0.35c-0.03-0.03-0.06-0.05-0.09-0.07
					L76.7,58.24z M68.09,52.8l0.27-0.42c-0.18-0.11-0.4-0.1-0.57,0.02c-0.17,0.13-0.24,0.34-0.18,0.54L68.09,52.8z M69.26,56.78
					l0.48-0.13c0-0.01,0-0.01,0-0.02L69.26,56.78z M59.76,98.23l-0.46-0.19c-0.1,0.23-0.01,0.5,0.21,0.62
					c0.21,0.13,0.49,0.08,0.65-0.12L59.76,98.23z M78.13,63.59l0.47,0.17c0.08-0.22,0-0.47-0.21-0.6L78.13,63.59z M74.84,61.56
					l-0.44-0.25c-0.13,0.23-0.06,0.53,0.17,0.67L74.84,61.56z M76.71,58.25l0.44,0.25c0.11-0.2,0.08-0.44-0.08-0.6L76.71,58.25z"/>
			</g>
			<g>
				<defs>
					<rect id="SVGID_00000065797356330938845960000006144642902013637279_" y="0" width="120" height="120"/>
				</defs>
				<clipPath id="SVGID_00000011724539797539667370000013236225703981431719_">
					<use xlink:href="#SVGID_00000065797356330938845960000006144642902013637279_"  style="overflow:visible;"/>
				</clipPath>
				
					<ellipse style="clip-path:url(#SVGID_00000011724539797539667370000013236225703981431719_);fill:#80ABFF;" cx="59.77" cy="100.94" rx="2.04" ry="1.97"/>
			</g>
			<g>
				<defs>
					<rect id="SVGID_00000116219437012092584940000014958876723056256913_" y="0" width="120" height="120"/>
				</defs>
				<clipPath id="SVGID_00000093879922081312778800000009602330890547182246_">
					<use xlink:href="#SVGID_00000116219437012092584940000014958876723056256913_"  style="overflow:visible;"/>
				</clipPath>
				<path style="clip-path:url(#SVGID_00000093879922081312778800000009602330890547182246_);fill:#050505;" d="M59.77,99.46
					c0.87,0,1.54,0.67,1.54,1.47h1c0-1.38-1.15-2.47-2.54-2.47V99.46z M58.23,100.94c0-0.8,0.67-1.47,1.54-1.47v-1
					c-1.39,0-2.54,1.09-2.54,2.47H58.23z M59.77,102.41c-0.87,0-1.54-0.67-1.54-1.47h-1c0,1.38,1.15,2.47,2.54,2.47V102.41z
					 M61.31,100.94c0,0.8-0.67,1.47-1.54,1.47v1c1.39,0,2.54-1.09,2.54-2.47H61.31z"/>
			</g>
			<g>
				<defs>
					<rect id="SVGID_00000052792445646637132940000014454846876363336857_" y="0" width="120" height="120"/>
				</defs>
				<clipPath id="SVGID_00000045580029493471634410000012547686106077889938_">
					<use xlink:href="#SVGID_00000052792445646637132940000014454846876363336857_"  style="overflow:visible;"/>
				</clipPath>
				<path style="clip-path:url(#SVGID_00000045580029493471634410000012547686106077889938_);fill:#F4F4F4;" d="M48.18,34.67
					c0.73,2.18,2.25,5.97,0.24,6.63s-4.18-0.17-6.12-4.39c-0.96-2.09-0.14-4.86,1.87-5.53C46.18,30.7,47.45,32.48,48.18,34.67
					L48.18,34.67z"/>
			</g>
			<g>
				<defs>
					<rect id="SVGID_00000009573754932480191870000006174716894897660345_" y="0" width="120" height="120"/>
				</defs>
				<clipPath id="SVGID_00000079487038927394132940000003112275254318830524_">
					<use xlink:href="#SVGID_00000009573754932480191870000006174716894897660345_"  style="overflow:visible;"/>
				</clipPath>
				<path style="clip-path:url(#SVGID_00000079487038927394132940000003112275254318830524_);fill:#050505;" d="M47.68,34.66
					L47.68,34.66l1,0.01v-0.01H47.68z M44.33,31.85c0.42-0.14,0.78-0.15,1.09-0.07s0.61,0.26,0.89,0.53
					c0.57,0.55,1.04,1.45,1.4,2.51l0.95-0.32c-0.38-1.12-0.91-2.19-1.65-2.91c-0.38-0.36-0.82-0.64-1.34-0.77
					c-0.52-0.13-1.07-0.11-1.66,0.09L44.33,31.85z M42.75,36.7c-0.42-0.92-0.46-2.01-0.16-2.93c0.3-0.93,0.91-1.64,1.73-1.91
					L44,30.91c-1.19,0.4-1.99,1.41-2.36,2.56s-0.33,2.49,0.2,3.66L42.75,36.7z M48.26,40.82c-0.88,0.29-1.77,0.25-2.66-0.31
					c-0.92-0.58-1.89-1.75-2.84-3.81l-0.91,0.42c0.99,2.15,2.07,3.52,3.22,4.24c1.18,0.74,2.38,0.79,3.51,0.42L48.26,40.82z
					 M47.71,34.82c0.38,1.12,0.92,2.56,1.13,3.81c0.11,0.63,0.12,1.15,0.01,1.52c-0.09,0.35-0.27,0.56-0.59,0.66l0.31,0.95
					c0.69-0.23,1.08-0.74,1.24-1.35c0.16-0.59,0.12-1.27,0.01-1.95c-0.23-1.35-0.81-2.9-1.17-3.96L47.71,34.82z M48.18,34.66h0.5
					c0-0.05-0.01-0.11-0.03-0.16L48.18,34.66z M42.3,36.9l0.45-0.21l0,0L42.3,36.9z M48.18,34.67h-0.5c0,0.05,0.01,0.11,0.03,0.16
					L48.18,34.67z"/>
			</g>
			<g>
				<defs>
					<rect id="SVGID_00000129886234312859224490000012655178174906494390_" y="0" width="120" height="120"/>
				</defs>
				<clipPath id="SVGID_00000067214617530453420490000015563506445809148053_">
					<use xlink:href="#SVGID_00000129886234312859224490000012655178174906494390_"  style="overflow:visible;"/>
				</clipPath>
				<path style="clip-path:url(#SVGID_00000067214617530453420490000015563506445809148053_);fill:#F4F4F4;" d="M70.83,34.67
					c-0.73,2.18-2.25,5.97-0.24,6.63s4.18-0.17,6.12-4.39c0.96-2.09,0.14-4.86-1.87-5.53C72.83,30.7,71.56,32.48,70.83,34.67
					L70.83,34.67z"/>
			</g>
			<g>
				<defs>
					<rect id="SVGID_00000147188751610970721000000001573299288566269084_" y="0" width="120" height="120"/>
				</defs>
				<clipPath id="SVGID_00000114790212563693539530000003790192833001814414_">
					<use xlink:href="#SVGID_00000147188751610970721000000001573299288566269084_"  style="overflow:visible;"/>
				</clipPath>
				<path style="clip-path:url(#SVGID_00000114790212563693539530000003790192833001814414_);fill:#050505;" d="M70.33,34.66
					L70.33,34.66l1,0.01v-0.01H70.33z M75,30.9c-0.58-0.2-1.14-0.22-1.66-0.09c-0.51,0.13-0.96,0.41-1.34,0.77
					c-0.75,0.72-1.28,1.79-1.65,2.91l0.95,0.32c0.36-1.06,0.82-1.96,1.4-2.51c0.28-0.27,0.58-0.45,0.89-0.53s0.67-0.07,1.09,0.07
					L75,30.9z M77.16,37.11c0.53-1.16,0.57-2.51,0.2-3.66s-1.17-2.16-2.36-2.56l-0.32,0.95c0.82,0.27,1.43,0.99,1.73,1.91
					c0.3,0.93,0.27,2.01-0.16,2.93L77.16,37.11z M70.44,41.77c1.13,0.37,2.33,0.33,3.51-0.42c1.15-0.73,2.23-2.09,3.22-4.24
					l-0.91-0.42c-0.95,2.07-1.92,3.23-2.84,3.81c-0.9,0.56-1.78,0.6-2.66,0.31L70.44,41.77z M70.36,34.51
					c-0.35,1.06-0.94,2.61-1.17,3.96c-0.11,0.68-0.15,1.36,0.01,1.95c0.16,0.62,0.55,1.13,1.24,1.35l0.31-0.95
					c-0.32-0.1-0.49-0.31-0.59-0.66c-0.1-0.38-0.09-0.9,0.01-1.52c0.21-1.25,0.75-2.69,1.13-3.81L70.36,34.51z M70.83,34.66
					l-0.47-0.16c-0.02,0.05-0.03,0.11-0.03,0.16H70.83z M76.71,36.9l-0.45-0.21l0,0L76.71,36.9z M70.83,34.67l0.47,0.16
					c0.02-0.05,0.03-0.1,0.03-0.16H70.83z"/>
			</g>
			<g>
				<defs>
					<rect id="SVGID_00000147904165081183003400000002385510788307613082_" y="0" width="120" height="120"/>
				</defs>
				<clipPath id="SVGID_00000093865568178656593450000005200202936863441281_">
					<use xlink:href="#SVGID_00000147904165081183003400000002385510788307613082_"  style="overflow:visible;"/>
				</clipPath>
				<path style="clip-path:url(#SVGID_00000093865568178656593450000005200202936863441281_);fill:#F4F4F4;" d="M72.87,27.59
					c-0.2,11.97-2.36,24.37-13.13,24.37c-11.46,0-13.94-14.05-13.94-24.37S52.23,10,59.7,10C67.18,10.01,73.05,17.28,72.87,27.59
					L72.87,27.59z"/>
			</g>
			<g>
				<defs>
					<rect id="SVGID_00000120560309119585487430000009323858284907355290_" y="0" width="120" height="120"/>
				</defs>
				<clipPath id="SVGID_00000001650209941587517960000004889346272553046705_">
					<use xlink:href="#SVGID_00000120560309119585487430000009323858284907355290_"  style="overflow:visible;"/>
				</clipPath>
				<g style="clip-path:url(#SVGID_00000001650209941587517960000004889346272553046705_);">
					<g>
						<defs>
							<path id="SVGID_00000061451127613967516230000013141702348380608901_" d="M72.87,27.59c-0.2,11.97-2.36,24.37-13.13,24.37
								c-11.46,0-13.94-14.05-13.94-24.37S52.23,10,59.7,10S73.05,17.28,72.87,27.59L72.87,27.59z"/>
						</defs>
						<clipPath id="SVGID_00000107589096782482740090000006748516123891142034_">
							<use xlink:href="#SVGID_00000061451127613967516230000013141702348380608901_"  style="overflow:visible;"/>
						</clipPath>
						<path style="clip-path:url(#SVGID_00000107589096782482740090000006748516123891142034_);fill:#050505;" d="M72.88,26.59
							L72.88,26.59l-0.01,2h0.01V26.59z M59.7,11.01c6.7,0,12.34,6.57,12.17,16.57l2,0.03c0.18-10.62-5.92-18.6-14.17-18.6
							C59.7,9.01,59.7,11.01,59.7,11.01z M46.8,27.59C46.8,17.63,52.96,11,59.7,11V9c-8.2,0-14.9,7.91-14.9,18.59H46.8z
							 M59.74,50.96c-2.64,0-4.72-0.8-6.39-2.14c-1.68-1.35-2.98-3.27-3.96-5.57c-1.98-4.62-2.59-10.55-2.59-15.66h-2
							c0,5.21,0.62,11.46,2.76,16.45c1.07,2.5,2.54,4.73,4.55,6.34c2.03,1.62,4.55,2.58,7.64,2.58L59.74,50.96L59.74,50.96z
							 M71.87,27.57c-0.1,5.96-0.69,11.89-2.52,16.3c-0.91,2.19-2.11,3.96-3.66,5.17c-1.53,1.2-3.46,1.91-5.95,1.91v2
							c2.9,0,5.27-0.84,7.18-2.34c1.89-1.49,3.27-3.57,4.27-5.97c1.99-4.78,2.58-11.03,2.68-17.04L71.87,27.57z M72.88,27.59v1h0.98
							l0.02-0.98L72.88,27.59z M72.87,27.59v-1h-0.98l-0.02,0.98L72.87,27.59z"/>
					</g>
				</g>
			</g>
			<g>
				<defs>
					<rect id="SVGID_00000043439804667840760370000010002129759845311925_" y="0" width="120" height="120"/>
				</defs>
				<clipPath id="SVGID_00000044143788869444045820000010432100957155225535_">
					<use xlink:href="#SVGID_00000043439804667840760370000010002129759845311925_"  style="overflow:visible;"/>
				</clipPath>
				<path style="clip-path:url(#SVGID_00000044143788869444045820000010432100957155225535_);fill:#050505;" d="M66.91,33.93
					c-0.06,0.74-0.66,1.29-1.34,1.24s-1.18-0.71-1.12-1.44s0.66-1.29,1.34-1.24S66.97,33.2,66.91,33.93z"/>
			</g>
			<g>
				<defs>
					<rect id="SVGID_00000026134602828694211510000002167396638366065308_" y="0" width="120" height="120"/>
				</defs>
				<clipPath id="SVGID_00000175303445934583209350000003783950273074644919_">
					<use xlink:href="#SVGID_00000026134602828694211510000002167396638366065308_"  style="overflow:visible;"/>
				</clipPath>
				<g style="clip-path:url(#SVGID_00000175303445934583209350000003783950273074644919_);">
					<g>
						<defs>
							<path id="SVGID_00000025440019021103582030000007783743738935584416_" d="M66.91,33.93c-0.06,0.74-0.66,1.29-1.34,1.24
								c-0.68-0.06-1.18-0.71-1.12-1.44c0.06-0.74,0.66-1.29,1.34-1.24S66.97,33.2,66.91,33.93z"/>
						</defs>
						<clipPath id="SVGID_00000026842918368345411120000015992359706629198981_">
							<use xlink:href="#SVGID_00000025440019021103582030000007783743738935584416_"  style="overflow:visible;"/>
						</clipPath>
						<path style="clip-path:url(#SVGID_00000026842918368345411120000015992359706629198981_);fill:#050505;" d="M65.71,33.49
							c0.03,0,0.08,0.02,0.13,0.08c0.05,0.06,0.09,0.16,0.08,0.28l1.99,0.16c0.1-1.2-0.73-2.4-2.03-2.52L65.71,33.49z M65.45,33.81
							c0.01-0.12,0.06-0.21,0.12-0.26c0.06-0.05,0.11-0.06,0.14-0.06l0.17-1.99c-1.31-0.11-2.33,0.95-2.42,2.15L65.45,33.81z
							 M65.66,34.17c-0.03,0-0.08-0.02-0.13-0.08c-0.05-0.06-0.09-0.16-0.08-0.28l-1.99-0.16c-0.1,1.2,0.73,2.4,2.03,2.52
							L65.66,34.17z M65.91,33.85c-0.01,0.12-0.06,0.21-0.12,0.26c-0.06,0.05-0.11,0.06-0.14,0.06l-0.17,1.99
							c1.31,0.11,2.33-0.95,2.42-2.15L65.91,33.85z"/>
					</g>
				</g>
			</g>
			<g>
				<defs>
					<rect id="SVGID_00000003819727580889344300000009008031913098991504_" y="0" width="120" height="120"/>
				</defs>
				<clipPath id="SVGID_00000047040182386874295900000003226962092404404885_">
					<use xlink:href="#SVGID_00000003819727580889344300000009008031913098991504_"  style="overflow:visible;"/>
				</clipPath>
				<path style="clip-path:url(#SVGID_00000047040182386874295900000003226962092404404885_);fill:#050505;" d="M54.94,32.95
					c-0.06,0.74-0.66,1.29-1.34,1.24c-0.68-0.06-1.18-0.71-1.12-1.44s0.66-1.29,1.34-1.24S55,32.22,54.94,32.95z"/>
			</g>
			<g>
				<defs>
					<rect id="SVGID_00000008114687250902348640000017267983973571374764_" y="0" width="120" height="120"/>
				</defs>
				<clipPath id="SVGID_00000078759419790747573570000014654746445257618621_">
					<use xlink:href="#SVGID_00000008114687250902348640000017267983973571374764_"  style="overflow:visible;"/>
				</clipPath>
				<g style="clip-path:url(#SVGID_00000078759419790747573570000014654746445257618621_);">
					<g>
						<defs>
							<path id="SVGID_00000017477222283127312710000018049630739198499479_" d="M54.94,32.95c-0.06,0.74-0.66,1.29-1.34,1.24
								s-1.18-0.71-1.12-1.44c0.06-0.74,0.66-1.29,1.34-1.24C54.5,31.57,55,32.22,54.94,32.95z"/>
						</defs>
						<clipPath id="SVGID_00000156555855397059962860000016220813746706787248_">
							<use xlink:href="#SVGID_00000017477222283127312710000018049630739198499479_"  style="overflow:visible;"/>
						</clipPath>
						<path style="clip-path:url(#SVGID_00000156555855397059962860000016220813746706787248_);fill:#050505;" d="M53.74,32.51
							c0.03,0,0.08,0.02,0.13,0.08s0.09,0.16,0.08,0.28l1.99,0.16c0.1-1.2-0.73-2.4-2.03-2.52L53.74,32.51z M53.48,32.83
							c0.01-0.12,0.06-0.21,0.12-0.26c0.06-0.05,0.11-0.06,0.14-0.06l0.17-1.99c-1.31-0.11-2.33,0.95-2.42,2.15L53.48,32.83z
							 M53.69,33.19c-0.03,0-0.08-0.02-0.13-0.08s-0.09-0.16-0.08-0.28l-1.99-0.16c-0.1,1.2,0.73,2.4,2.03,2.52L53.69,33.19z
							 M53.94,32.87c-0.01,0.12-0.06,0.21-0.12,0.26c-0.06,0.05-0.11,0.06-0.14,0.06l-0.17,1.99c1.31,0.11,2.33-0.95,2.42-2.15
							L53.94,32.87z"/>
					</g>
				</g>
			</g>
			<g>
				<defs>
					<rect id="SVGID_00000130621686913061495980000007000323471520129193_" y="0" width="120" height="120"/>
				</defs>
				<clipPath id="SVGID_00000119085066786279962580000010966164068893713832_">
					<use xlink:href="#SVGID_00000130621686913061495980000007000323471520129193_"  style="overflow:visible;"/>
				</clipPath>
				<path style="clip-path:url(#SVGID_00000119085066786279962580000010966164068893713832_);fill:#050505;" d="M51,29.14
					c0.34,0.37,0.34,0.37,0.34,0.37l0,0l0,0l0,0l0,0c0,0,0.01-0.01,0.02-0.01c0.02-0.01,0.04-0.04,0.08-0.06
					c0.07-0.05,0.17-0.13,0.31-0.22c0.27-0.18,0.65-0.39,1.1-0.54c0.88-0.29,2.01-0.32,3.16,0.68l0.66-0.75
					c-1.47-1.29-3-1.25-4.13-0.88c-0.56,0.18-1.02,0.44-1.34,0.65c-0.16,0.11-0.29,0.2-0.38,0.27c-0.04,0.04-0.08,0.06-0.1,0.09
					c-0.01,0.01-0.02,0.02-0.03,0.03l-0.01,0.01l0,0l0,0l0,0C50.66,28.77,50.66,28.77,51,29.14z M55.99,29.36
					c0.21,0.18,0.52,0.16,0.71-0.05c0.18-0.21,0.16-0.52-0.05-0.71L55.99,29.36z M50.66,28.77c-0.2,0.19-0.22,0.5-0.03,0.71
					c0.19,0.2,0.5,0.22,0.71,0.03L50.66,28.77z"/>
			</g>
			<g>
				<defs>
					<rect id="SVGID_00000117674546486640689480000001608241596385739157_" y="0" width="120" height="120"/>
				</defs>
				<clipPath id="SVGID_00000094577622838423069820000010756882639424330886_">
					<use xlink:href="#SVGID_00000117674546486640689480000001608241596385739157_"  style="overflow:visible;"/>
				</clipPath>
				<path style="clip-path:url(#SVGID_00000094577622838423069820000010756882639424330886_);fill:#050505;" d="M69,27.98
					c0.39,0.31,0.39,0.31,0.39,0.31l0,0l0,0l0,0c0,0,0,0.01-0.01,0.01c-0.01,0.01-0.01,0.02-0.02,0.03
					c-0.02,0.02-0.05,0.06-0.09,0.1c-0.08,0.08-0.19,0.2-0.33,0.33c-0.28,0.26-0.69,0.59-1.21,0.86c-1.05,0.55-2.55,0.84-4.21-0.19
					l0.53-0.85c1.29,0.8,2.41,0.58,3.22,0.16c0.42-0.22,0.76-0.49,0.99-0.71c0.12-0.11,0.21-0.2,0.27-0.27
					c0.03-0.03,0.05-0.06,0.07-0.07c0.01-0.01,0.01-0.01,0.01-0.02l0,0l0,0l0,0l0,0C68.61,27.67,68.61,27.67,69,27.98z M63.52,29.44
					c-0.23-0.15-0.31-0.45-0.16-0.69c0.15-0.23,0.45-0.31,0.69-0.16L63.52,29.44z M68.61,27.67c0.17-0.22,0.49-0.25,0.7-0.08
					c0.22,0.17,0.25,0.49,0.08,0.7L68.61,27.67z"/>
			</g>
			<g>
				<defs>
					<rect id="SVGID_00000098925807606864302350000011927623170084798364_" y="0" width="120" height="120"/>
				</defs>
				<clipPath id="SVGID_00000111904957838093806280000007061416916223316664_">
					<use xlink:href="#SVGID_00000098925807606864302350000011927623170084798364_"  style="overflow:visible;"/>
				</clipPath>
				<path style="clip-path:url(#SVGID_00000111904957838093806280000007061416916223316664_);fill:#050505;" d="M58.69,39.44
					l-0.06,0.75l1,0.08l0.06-0.75L58.69,39.44z M58.63,40.19c-0.02,0.28,0.18,0.52,0.46,0.54s0.52-0.18,0.54-0.46L58.63,40.19z
					 M59.69,39.52c0.02-0.28-0.18-0.52-0.46-0.54s-0.52,0.18-0.54,0.46L59.69,39.52z"/>
			</g>
			<g>
				<defs>
					<rect id="SVGID_00000142157146377378996180000010485919868624914852_" y="0" width="120" height="120"/>
				</defs>
				<clipPath id="SVGID_00000075857114068970560890000018441059185787917187_">
					<use xlink:href="#SVGID_00000142157146377378996180000010485919868624914852_"  style="overflow:visible;"/>
				</clipPath>
				<path style="clip-path:url(#SVGID_00000075857114068970560890000018441059185787917187_);fill:#050505;" d="M57.21,44.82
					c0.29,0.41,0.29,0.41,0.29,0.41l0,0l0,0l0,0l0,0l0,0c0.01,0,0.02-0.01,0.03-0.02c0.03-0.02,0.08-0.05,0.15-0.08
					c0.13-0.06,0.33-0.14,0.57-0.17c0.47-0.08,1.15-0.04,1.94,0.53l0.59-0.81c-1.02-0.74-1.97-0.83-2.69-0.71
					c-0.35,0.06-0.63,0.16-0.83,0.26c-0.1,0.05-0.18,0.09-0.23,0.12c-0.03,0.02-0.05,0.03-0.07,0.04c-0.01,0.01-0.02,0.01-0.02,0.01
					h-0.01l0,0l0,0l0,0C56.91,44.41,56.91,44.41,57.21,44.82z M60.18,45.49c0.22,0.16,0.54,0.11,0.7-0.11s0.11-0.54-0.11-0.7
					L60.18,45.49z M56.91,44.41c-0.22,0.16-0.28,0.47-0.11,0.7c0.16,0.22,0.47,0.28,0.7,0.11L56.91,44.41z"/>
			</g>
			<g>
				<defs>
					<rect id="SVGID_00000129180678846561550070000003742139491266938793_" y="0" width="120" height="120"/>
				</defs>
				<clipPath id="SVGID_00000156558283736325313870000014129974114472693642_">
					<use xlink:href="#SVGID_00000129180678846561550070000003742139491266938793_"  style="overflow:visible;"/>
				</clipPath>
				<path style="clip-path:url(#SVGID_00000156558283736325313870000014129974114472693642_);fill:#80ABFF;" d="M76.53,23.23
					c0-4.41-2.59-8.92-4.82-9.51c-0.28-2.59-3.95-6.17-8.91-4.94c-1.7-1.42-4.13-1.93-6.52-1.93c-5.14,0-9.38,3.92-10.02,7.31
					c-2.04,1.38-3.71,5.25-3.71,9.07c0,4.74,2.01,6.87,3.53,8.54c0.17,0.19,2.15-6.73,2.49-12.16c1.95,2.34,7.03,2.35,12.34,0.85
					c2.85,1.75,8.22,1.41,9.9,0.41c-0.33,5.5,1.85,11.05,1.99,10.89c1.53-1.66,3.7-3.79,3.7-8.54L76.53,23.23z"/>
			</g>
			<g>
				<defs>
					<rect id="SVGID_00000031921124784461357720000015177064292145527182_" y="0" width="120" height="120"/>
				</defs>
				<clipPath id="SVGID_00000168085582933196501260000000597703463482006685_">
					<use xlink:href="#SVGID_00000031921124784461357720000015177064292145527182_"  style="overflow:visible;"/>
				</clipPath>
				<path style="clip-path:url(#SVGID_00000168085582933196501260000000597703463482006685_);fill:#F4F4F4;" d="M86.46,61.22
					c-0.86-0.29-5.27,15.49-7.64,30.49c-0.55,3.5-15.21-1.28-27.95-3.07l-4.65,5.32l-0.17,7.18c0,0,21.76,7.63,38.84,6.66
					c0,0,3.85-0.26,5.01-5.67c1.95-6.39,2.2-11.98,2.73-19.89c0.08-1.17,0.41-11.98,0.36-12.36C92.09,62.78,90.25,62.49,86.46,61.22
					L86.46,61.22z"/>
			</g>
			<g>
				<defs>
					<rect id="SVGID_00000104673675498598857770000002527749018949973915_" y="0" width="120" height="120"/>
				</defs>
				<clipPath id="SVGID_00000061470141020559350330000001355859828802447540_">
					<use xlink:href="#SVGID_00000104673675498598857770000002527749018949973915_"  style="overflow:visible;"/>
				</clipPath>
				<path style="clip-path:url(#SVGID_00000061470141020559350330000001355859828802447540_);fill:#050505;" d="M85.96,61.21
					L85.96,61.21l1,0.01v-0.01H85.96z M93.49,69.82c-0.45-3.57-1.15-5.55-2.31-6.8c-1.15-1.23-2.72-1.66-4.56-2.28l-0.32,0.95
					c1.95,0.66,3.21,1.01,4.15,2.02c0.93,1,1.6,2.7,2.05,6.24L93.49,69.82z M93.13,82.27c0.04-0.59,0.14-3.6,0.23-6.49
					c0.04-1.45,0.08-2.87,0.11-3.96c0.01-0.54,0.02-1,0.03-1.34c0-0.17,0-0.31,0-0.41c0-0.09,0-0.19-0.01-0.25l-0.99,0.12
					c0-0.01,0,0.01,0,0.13c0,0.1,0,0.23,0,0.4c0,0.33-0.01,0.79-0.03,1.33c-0.03,1.08-0.06,2.51-0.11,3.95
					c-0.09,2.9-0.19,5.89-0.23,6.46L93.13,82.27z M90.38,102.28c1.97-6.46,2.22-12.11,2.75-20l-1-0.07
					c-0.53,7.93-0.78,13.45-2.71,19.78L90.38,102.28z M84.9,107.8c0.03,0.5,0.03,0.5,0.03,0.5l0,0l0,0l0,0h0.01
					c0.01,0,0.03,0,0.04,0c0.04,0,0.09-0.01,0.15-0.02c0.12-0.02,0.3-0.06,0.51-0.12c0.42-0.12,0.99-0.34,1.59-0.75
					c1.22-0.82,2.54-2.35,3.15-5.18l-0.98-0.21c-0.55,2.59-1.73,3.89-2.73,4.56c-0.5,0.34-0.97,0.52-1.31,0.62
					c-0.17,0.05-0.3,0.08-0.39,0.09c-0.05,0.01-0.08,0.01-0.1,0.01c-0.01,0-0.02,0-0.02,0l0,0l0,0l0,0l0,0
					C84.86,107.3,84.86,107.3,84.9,107.8z M46.05,101.14c-0.17,0.47-0.17,0.47-0.16,0.47l0,0l0,0h0.01c0.01,0,0.03,0.01,0.05,0.02
					c0.04,0.01,0.11,0.04,0.19,0.06c0.17,0.06,0.41,0.14,0.72,0.24c0.63,0.21,1.55,0.5,2.71,0.85c2.31,0.7,5.58,1.63,9.38,2.52
					c7.59,1.79,17.36,3.47,25.97,2.98l-0.06-1c-8.47,0.48-18.12-1.17-25.68-2.95c-3.78-0.89-7.02-1.81-9.32-2.51
					c-1.15-0.35-2.06-0.64-2.69-0.85c-0.31-0.1-0.55-0.18-0.71-0.24c-0.08-0.03-0.14-0.05-0.18-0.06c-0.02-0.01-0.04-0.01-0.05-0.02
					c-0.01,0-0.01,0-0.01,0l0,0l0,0C46.22,100.67,46.22,100.67,46.05,101.14z M45.73,93.95l-0.17,7.18l1,0.02l0.17-7.18L45.73,93.95
					z M50.5,88.31l-4.65,5.32l0.75,0.66l4.65-5.32L50.5,88.31z M78.33,91.64c-0.03,0.22-0.17,0.41-0.54,0.56
					c-0.39,0.16-0.98,0.26-1.78,0.26c-1.6,0.02-3.84-0.3-6.5-0.79c-5.28-0.97-12.19-2.63-18.57-3.52l-0.14,0.99
					c6.36,0.9,13.16,2.53,18.53,3.52c2.66,0.49,4.99,0.83,6.69,0.81c0.85-0.01,1.59-0.1,2.16-0.34c0.59-0.25,1.03-0.67,1.14-1.33
					L78.33,91.64z M86.62,60.75c-0.23-0.08-0.42,0-0.52,0.07s-0.18,0.15-0.23,0.22c-0.11,0.15-0.22,0.35-0.33,0.57
					c-0.22,0.46-0.48,1.13-0.77,1.97c-0.58,1.69-1.29,4.12-2.04,7.02c-1.51,5.8-3.21,13.51-4.39,21.03l0.99,0.16
					c1.18-7.48,2.87-15.17,4.37-20.94c0.75-2.89,1.45-5.29,2.02-6.94c0.28-0.83,0.53-1.46,0.72-1.87c0.1-0.21,0.17-0.33,0.22-0.39
					c0.03-0.03,0.02-0.02-0.01,0c-0.04,0.02-0.17,0.09-0.34,0.03L86.62,60.75z M86.46,61.21l0.16-0.47
					c-0.15-0.05-0.32-0.03-0.45,0.07c-0.13,0.09-0.21,0.25-0.21,0.41L86.46,61.21L86.46,61.21z M93,69.88l0.5-0.06l0,0L93,69.88z
					 M92.64,82.24l0.5,0.03l0,0L92.64,82.24z M89.9,102.13l-0.48-0.15c0,0.01-0.01,0.03-0.01,0.04L89.9,102.13z M84.9,107.8
					l0.03,0.5l0,0L84.9,107.8z M46.05,101.14l-0.5-0.01c-0.01,0.22,0.13,0.41,0.33,0.48L46.05,101.14z M46.23,93.96l-0.38-0.33
					c-0.08,0.09-0.12,0.2-0.12,0.32L46.23,93.96z M50.87,88.64l0.07-0.5c-0.17-0.02-0.34,0.04-0.45,0.17L50.87,88.64z M78.83,91.72
					l-0.49-0.08l0,0L78.83,91.72z M86.46,61.22L86.3,61.7c0.15,0.05,0.32,0.03,0.45-0.07c0.13-0.09,0.21-0.25,0.21-0.41H86.46z"/>
			</g>
			<g>
				<defs>
					<rect id="SVGID_00000168804117631473483490000000782388001612694712_" y="0" width="120" height="120"/>
				</defs>
				<clipPath id="SVGID_00000080165532789619707030000016781755729760459195_">
					<use xlink:href="#SVGID_00000168804117631473483490000000782388001612694712_"  style="overflow:visible;"/>
				</clipPath>
				<path style="clip-path:url(#SVGID_00000080165532789619707030000016781755729760459195_);fill:#050505;" d="M78.68,93.2
					c-0.14,0.48-0.14,0.48-0.14,0.48l0,0l0,0l0,0c0,0,0,0,0.01,0s0.02,0.01,0.04,0.01c0.03,0.01,0.08,0.03,0.15,0.05
					c0.13,0.04,0.32,0.11,0.56,0.19c0.47,0.17,1.11,0.42,1.79,0.75c1.39,0.67,2.83,1.6,3.45,2.7l0.87-0.49
					c-0.78-1.39-2.49-2.44-3.89-3.11c-0.72-0.35-1.39-0.61-1.88-0.79c-0.25-0.09-0.45-0.16-0.59-0.2c-0.07-0.02-0.13-0.04-0.16-0.05
					c-0.02-0.01-0.03-0.01-0.04-0.01s-0.01,0-0.01,0l0,0l0,0l0,0C78.83,92.72,78.83,92.72,78.68,93.2z M86.16,94.17
					c0.28-0.41,0.28-0.41,0.28-0.41l0,0l0,0l0,0c0,0-0.01,0-0.01-0.01c-0.01-0.01-0.02-0.01-0.03-0.02
					c-0.03-0.02-0.07-0.04-0.12-0.08c-0.11-0.06-0.26-0.15-0.46-0.25c-0.39-0.2-0.96-0.45-1.66-0.66c-1.41-0.42-3.38-0.68-5.6-0.03
					l0.28,0.96c2-0.58,3.76-0.35,5.04,0.03c0.64,0.19,1.15,0.41,1.5,0.59c0.17,0.09,0.31,0.16,0.4,0.22
					c0.04,0.03,0.08,0.05,0.1,0.06c0.01,0.01,0.02,0.01,0.02,0.01l0,0l0,0l0,0l0,0C85.88,94.59,85.88,94.59,86.16,94.17z
					 M84.54,97.39c0.14,0.24,0.44,0.33,0.68,0.19s0.33-0.44,0.19-0.68L84.54,97.39z M78.68,93.2l-0.14-0.48
					c-0.21,0.06-0.36,0.26-0.36,0.48s0.15,0.42,0.36,0.48L78.68,93.2z M85.88,94.59c0.23,0.16,0.54,0.1,0.69-0.13
					s0.1-0.54-0.13-0.69L85.88,94.59z"/>
			</g>
			<g>
				<defs>
					<rect id="SVGID_00000008838528302777575490000002098317844707889338_" y="0" width="120" height="120"/>
				</defs>
				<clipPath id="SVGID_00000145754553773027959240000015151866486940304819_">
					<use xlink:href="#SVGID_00000008838528302777575490000002098317844707889338_"  style="overflow:visible;"/>
				</clipPath>
				<path style="clip-path:url(#SVGID_00000145754553773027959240000015151866486940304819_);fill:#F4F4F4;" d="M69.34,86.55
					c0,0,8.05-3.14,10.4-0.38l-0.52,5.43c0,0-1.31,3.32-7.32,1.39C71.89,93,69.02,89.3,69.34,86.55z"/>
			</g>
			<g>
				<defs>
					<rect id="SVGID_00000039131807974083943770000005967024998758569384_" y="0" width="120" height="120"/>
				</defs>
				<clipPath id="SVGID_00000076570416117545050070000014635976492082348727_">
					<use xlink:href="#SVGID_00000039131807974083943770000005967024998758569384_"  style="overflow:visible;"/>
				</clipPath>
				<path style="clip-path:url(#SVGID_00000076570416117545050070000014635976492082348727_);fill:#050505;" d="M71.89,93
					c0.39-0.31,0.39-0.31,0.39-0.31l0,0l0,0l0,0c0,0,0,0-0.01-0.01c0-0.01-0.01-0.02-0.02-0.03c-0.02-0.03-0.05-0.06-0.09-0.12
					c-0.07-0.1-0.18-0.25-0.31-0.44c-0.26-0.38-0.6-0.91-0.93-1.53c-0.67-1.26-1.24-2.75-1.1-3.96l-0.99-0.12
					c-0.18,1.54,0.53,3.27,1.21,4.55c0.35,0.65,0.71,1.22,0.98,1.62c0.14,0.2,0.25,0.36,0.33,0.47c0.04,0.06,0.07,0.1,0.1,0.13
					c0.01,0.01,0.02,0.03,0.03,0.03l0.01,0.01l0,0l0,0l0,0C71.5,93.3,71.5,93.3,71.89,93z M79.21,91.6
					c-0.47-0.18-0.46-0.18-0.46-0.18l0,0l0,0l0,0l0,0c0,0,0,0.01-0.01,0.01c-0.01,0.01-0.02,0.04-0.04,0.07
					c-0.04,0.07-0.1,0.17-0.19,0.28c-0.18,0.23-0.48,0.54-0.95,0.8c-0.93,0.51-2.61,0.87-5.52-0.06l-0.3,0.95
					c3.1,0.99,5.08,0.66,6.31-0.01c0.61-0.33,1.01-0.74,1.26-1.06c0.13-0.16,0.21-0.31,0.27-0.42c0.03-0.05,0.05-0.1,0.07-0.13
					c0.01-0.02,0.01-0.03,0.02-0.04c0-0.01,0-0.01,0.01-0.01c0,0,0,0,0-0.01l0,0l0,0C79.68,91.79,79.68,91.79,79.21,91.6z
					 M79.24,86.12l-0.52,5.43l1,0.1l0.52-5.43L79.24,86.12z M69.34,86.55c0.18,0.47,0.18,0.47,0.18,0.47l0,0l0,0l0,0
					c0,0,0.01,0,0.02-0.01C69.55,87,69.58,87,69.6,86.99c0.06-0.02,0.14-0.05,0.25-0.09c0.22-0.08,0.54-0.19,0.93-0.31
					c0.78-0.25,1.84-0.55,2.97-0.76c1.13-0.22,2.31-0.34,3.33-0.25c1.03,0.09,1.81,0.39,2.27,0.93l0.76-0.65
					c-0.71-0.84-1.81-1.18-2.95-1.28c-1.15-0.1-2.43,0.04-3.6,0.27c-1.18,0.22-2.28,0.54-3.08,0.79c-0.4,0.13-0.73,0.24-0.96,0.32
					c-0.11,0.04-0.2,0.07-0.27,0.1c-0.03,0.01-0.05,0.02-0.07,0.03c-0.01,0-0.01,0.01-0.02,0.01c0,0,0,0-0.01,0l0,0l0,0
					C69.16,86.08,69.16,86.08,69.34,86.55z M71.89,93l-0.39,0.3c0.06,0.08,0.15,0.14,0.24,0.17L71.89,93z M79.21,91.6l0.47,0.18
					c0.02-0.04,0.03-0.09,0.03-0.14L79.21,91.6z M79.74,86.17l0.5,0.05c0.01-0.13-0.03-0.27-0.12-0.37L79.74,86.17z M69.34,86.55
					l-0.18-0.47c-0.17,0.07-0.29,0.22-0.31,0.41L69.34,86.55z"/>
			</g>
			<g>
				<defs>
					<rect id="SVGID_00000080916323584745055950000003130837210129775248_" y="0" width="120" height="120"/>
				</defs>
				<clipPath id="SVGID_00000088124137741700356030000010997516163800824751_">
					<use xlink:href="#SVGID_00000080916323584745055950000003130837210129775248_"  style="overflow:visible;"/>
				</clipPath>
				<path style="clip-path:url(#SVGID_00000088124137741700356030000010997516163800824751_);fill:#F4F4F4;" d="M70.35,85.99
					c0,0,3.3,2.75,2.19,9.35l-3.22,0.94c0,0,0.28-7.68-1.83-9.84L70.35,85.99L70.35,85.99z"/>
			</g>
			<g>
				<defs>
					<rect id="SVGID_00000168801762244421760480000018233401616701538180_" y="0" width="120" height="120"/>
				</defs>
				<clipPath id="SVGID_00000072241808296742641540000012783268416258886585_">
					<use xlink:href="#SVGID_00000168801762244421760480000018233401616701538180_"  style="overflow:visible;"/>
				</clipPath>
				<path style="clip-path:url(#SVGID_00000072241808296742641540000012783268416258886585_);fill:#050505;" d="M70.36,85.49
					L70.36,85.49l-0.01,1h0.01V85.49z M67.58,86.94l2.86-0.46l-0.16-0.99l-2.86,0.46L67.58,86.94z M69.33,96.28
					c0.5,0.02,0.5,0.02,0.5,0.02l0,0l0,0l0,0c0,0,0-0.01,0-0.02c0-0.02,0-0.04,0-0.07c0-0.06,0-0.14,0.01-0.25
					c0-0.22,0.01-0.53,0-0.91c-0.01-0.76-0.04-1.8-0.14-2.92c-0.1-1.11-0.26-2.3-0.55-3.36c-0.28-1.05-0.68-2.03-1.3-2.67l-0.71,0.7
					c0.43,0.44,0.78,1.22,1.05,2.22c0.26,0.98,0.42,2.12,0.52,3.2c0.1,1.08,0.13,2.09,0.13,2.84c0,0.37,0,0.68,0,0.89
					c0,0.11,0,0.19-0.01,0.24c0,0.03,0,0.05,0,0.06c0,0.01,0,0.01,0,0.02l0,0l0,0l0,0C68.83,96.26,68.83,96.26,69.33,96.28z
					 M72.41,94.86l-3.22,0.94l0.28,0.96l3.22-0.94L72.41,94.86z M70.35,85.99c-0.32,0.38-0.32,0.38-0.32,0.38l0,0l0,0l0,0l0,0
					c0,0,0.01,0.01,0.02,0.02c0.02,0.02,0.05,0.04,0.09,0.08c0.08,0.08,0.19,0.2,0.32,0.36c0.27,0.33,0.62,0.85,0.95,1.56
					c0.65,1.42,1.18,3.66,0.64,6.86l0.99,0.17c0.57-3.4,0.01-5.84-0.72-7.44c-0.36-0.8-0.76-1.39-1.08-1.78
					c-0.16-0.2-0.29-0.34-0.39-0.44c-0.05-0.05-0.09-0.09-0.12-0.11c-0.01-0.01-0.03-0.02-0.04-0.03l-0.01-0.01l0,0l0,0l0,0
					C70.68,85.6,70.68,85.6,70.35,85.99z M70.36,85.99l0.08,0.49c0.26-0.04,0.44-0.27,0.42-0.53c-0.02-0.26-0.24-0.46-0.5-0.46
					V85.99z M67.5,86.44l-0.08-0.49c-0.18,0.03-0.34,0.16-0.4,0.34s-0.01,0.37,0.12,0.51L67.5,86.44z M69.33,96.28l-0.5-0.02
					c-0.01,0.16,0.07,0.31,0.19,0.41c0.13,0.1,0.29,0.13,0.45,0.09L69.33,96.28z M72.55,95.34l0.14,0.48
					c0.18-0.05,0.32-0.21,0.35-0.4L72.55,95.34z M70.35,85.99v-0.5c-0.21,0-0.4,0.13-0.47,0.33s-0.01,0.42,0.15,0.55L70.35,85.99z"
					/>
			</g>
			<g>
				<defs>
					<rect id="SVGID_00000082333104500896208690000012469772555953737917_" y="0" width="120" height="120"/>
				</defs>
				<clipPath id="SVGID_00000053534527354833446080000018145261738402401165_">
					<use xlink:href="#SVGID_00000082333104500896208690000012469772555953737917_"  style="overflow:visible;"/>
				</clipPath>
				<path style="clip-path:url(#SVGID_00000053534527354833446080000018145261738402401165_);fill:#F4F4F4;" d="M69.32,88.02
					c-1.04-1.8-1.7-1.97-1.7-1.97s-5.71,1.45-12.25,2.46c-6.32,0.98-13.51,1.82-17.92,2.76c0.02-3.78-0.09-8.22-0.47-13.17
					c-0.54-6.98-3.53-16.87-3.53-16.87c-2.39,0.54-4.44,1.61-5.89,5.06c-0.64,1.51-1.17,4.93-1.27,7.06c-0.12,2.45,0,4.54-0.16,7.81
					c-0.49,10.61,0.31,17.81,3.08,21.67c2.09,2.71,3.57,2.64,6.9,2.72c3.73,0.09,9.33-0.82,15.19-2.38
					c7.5-2.01,12.28-1.98,19.6-4.44C70.91,98.73,71.28,91.4,69.32,88.02L69.32,88.02z"/>
			</g>
			<g>
				<defs>
					<rect id="SVGID_00000100371089003891229160000001441481036804984740_" y="0" width="120" height="120"/>
				</defs>
				<clipPath id="SVGID_00000068655607642323946700000013021785632054499512_">
					<use xlink:href="#SVGID_00000100371089003891229160000001441481036804984740_"  style="overflow:visible;"/>
				</clipPath>
				<path style="clip-path:url(#SVGID_00000068655607642323946700000013021785632054499512_);fill:#050505;" d="M68.96,88.36
					L68.96,88.36l0.72-0.7l-0.01-0.01L68.96,88.36z M70.91,98.73c0.5,0.03,0.5,0.03,0.5,0.03l0,0l0,0l0,0c0,0,0-0.01,0-0.02
					c0-0.01,0-0.04,0-0.06c0-0.06,0.01-0.14,0.01-0.24c0.01-0.21,0.01-0.51,0.02-0.89c0-0.75-0.01-1.78-0.09-2.93
					c-0.15-2.26-0.55-5.04-1.6-6.85l-0.86,0.5c0.92,1.59,1.32,4.16,1.47,6.41c0.07,1.11,0.09,2.12,0.08,2.85
					c0,0.37-0.01,0.66-0.02,0.86c0,0.1-0.01,0.18-0.01,0.23c0,0.03,0,0.05,0,0.06c0,0.01,0,0.01,0,0.01l0,0l0,0l0,0
					C70.41,98.7,70.41,98.7,70.91,98.73z M51.44,103.65c3.73-1,6.77-1.49,9.83-2.04s6.11-1.16,9.8-2.4l-0.32-0.95
					c-3.62,1.22-6.62,1.82-9.66,2.37c-3.04,0.55-6.13,1.05-9.91,2.06L51.44,103.65z M36.1,106.05c3.8,0.1,9.46-0.83,15.34-2.4
					l-0.26-0.97c-5.84,1.56-11.4,2.46-15.05,2.36L36.1,106.05z M28.82,103.13c1.08,1.41,2.05,2.15,3.23,2.52
					c1.13,0.36,2.42,0.36,4.05,0.4l0.03-1c-1.7-0.04-2.81-0.05-3.78-0.35c-0.92-0.29-1.73-0.87-2.74-2.17L28.82,103.13z
					 M25.64,81.13c-0.25,5.32-0.17,9.81,0.32,13.46s1.4,6.5,2.85,8.53l0.81-0.58c-1.32-1.83-2.19-4.51-2.68-8.08
					c-0.48-3.57-0.56-7.99-0.31-13.28L25.64,81.13z M25.8,73.32c-0.06,1.24-0.06,2.39-0.07,3.62c0,1.24-0.01,2.57-0.09,4.19l1,0.05
					c0.08-1.64,0.09-2.99,0.1-4.23c0-1.24,0-2.36,0.07-3.57L25.8,73.32z M27.11,66.09c-0.34,0.81-0.64,2.09-0.87,3.41
					c-0.23,1.33-0.39,2.73-0.44,3.82l1,0.05c0.05-1.04,0.21-2.41,0.43-3.7c0.22-1.3,0.51-2.49,0.8-3.19L27.11,66.09z M33.35,60.73
					c-1.23,0.28-2.42,0.7-3.49,1.53c-1.07,0.83-2,2.04-2.75,3.83l0.92,0.39c0.7-1.66,1.53-2.72,2.44-3.42
					c0.91-0.71,1.95-1.09,3.1-1.35L33.35,60.73z M37.49,78.06c-0.27-3.53-1.16-7.78-1.98-11.13c-0.41-1.68-0.8-3.14-1.09-4.18
					c-0.14-0.52-0.26-0.94-0.35-1.22c-0.04-0.14-0.07-0.25-0.1-0.33c-0.01-0.04-0.02-0.07-0.03-0.09c0-0.01-0.01-0.02-0.01-0.02
					s0,0,0-0.01l0,0l0,0c0,0,0,0-0.48,0.14s-0.48,0.14-0.48,0.14l0,0l0,0c0,0,0,0,0,0.01c0,0,0,0.01,0.01,0.02
					c0.01,0.02,0.01,0.05,0.02,0.08c0.02,0.07,0.05,0.18,0.1,0.32c0.08,0.28,0.2,0.69,0.34,1.21c0.29,1.03,0.68,2.48,1.08,4.15
					c0.81,3.34,1.69,7.53,1.95,10.98L37.49,78.06z M37.96,91.26c0.02-3.79-0.1-8.25-0.48-13.21l-1,0.08
					c0.38,4.93,0.49,9.36,0.47,13.12L37.96,91.26z M55.3,88.01c-6.28,0.97-13.52,1.82-17.94,2.77l0.21,0.98
					c4.39-0.94,11.54-1.77,17.89-2.76L55.3,88.01z M67.62,86.04c-0.12-0.48-0.12-0.48-0.12-0.48l0,0l0,0l0,0h-0.01
					c-0.01,0-0.03,0.01-0.05,0.01c-0.04,0.01-0.11,0.03-0.19,0.05c-0.17,0.04-0.41,0.1-0.73,0.18c-0.63,0.15-1.55,0.36-2.67,0.61
					c-2.24,0.49-5.29,1.1-8.54,1.6L55.45,89c3.28-0.5,6.35-1.12,8.6-1.61c1.13-0.25,2.05-0.46,2.69-0.61
					c0.32-0.08,0.57-0.14,0.74-0.18c0.09-0.02,0.15-0.04,0.19-0.05c0.02-0.01,0.04-0.01,0.05-0.01s0.01,0,0.01,0l0,0l0,0l0,0
					C67.75,86.53,67.75,86.53,67.62,86.04z M69.75,87.77c-0.54-0.93-0.99-1.47-1.34-1.78c-0.17-0.16-0.32-0.26-0.43-0.32
					c-0.06-0.03-0.11-0.06-0.15-0.07c-0.02-0.01-0.04-0.01-0.05-0.02c-0.01,0-0.02,0-0.02-0.01h-0.01l0,0l0,0l0,0c0,0,0,0-0.13,0.48
					s-0.13,0.48-0.13,0.48l0,0l0,0l0,0c0,0,0,0-0.01,0h-0.01c-0.01,0-0.01,0-0.01,0s0.01,0,0.03,0.02c0.04,0.02,0.13,0.08,0.25,0.19
					c0.25,0.22,0.64,0.67,1.14,1.54L69.75,87.77z M69.31,88.01l0.35-0.35c-0.18-0.18-0.46-0.2-0.66-0.04
					c-0.2,0.15-0.25,0.43-0.13,0.65L69.31,88.01z M70.91,98.73l0.16,0.47c0.19-0.07,0.33-0.24,0.34-0.45L70.91,98.73z M51.31,103.16
					l0.13,0.48l0,0L51.31,103.16z M36.11,105.55l-0.01,0.5l0,0L36.11,105.55z M29.22,102.82l-0.41,0.29l0.01,0.01L29.22,102.82z
					 M26.14,81.15l-0.5-0.02l0,0L26.14,81.15z M26.3,73.34l0.5,0.03l0,0L26.3,73.34z M27.57,66.29l0.46,0.19l0,0L27.57,66.29z
					 M33.46,61.22l0.48-0.14c-0.08-0.25-0.33-0.4-0.59-0.34L33.46,61.22z M36.99,78.1l0.5-0.04l0,0L36.99,78.1z M37.46,91.26h-0.5
					c0,0.15,0.07,0.29,0.18,0.39s0.27,0.13,0.42,0.1L37.46,91.26z M55.38,88.5l-0.08-0.49l0,0L55.38,88.5z M67.62,86.04l0.13-0.48
					c-0.08-0.02-0.17-0.02-0.25,0L67.62,86.04z M69.32,88.02l-0.35,0.35c0.18,0.18,0.46,0.2,0.66,0.04c0.2-0.15,0.25-0.43,0.13-0.65
					L69.32,88.02z"/>
			</g>
			<g>
				<defs>
					<rect id="SVGID_00000114768503760806883290000002419957783526161062_" y="0" width="120" height="120"/>
				</defs>
				<clipPath id="SVGID_00000062879684292643216370000017333498255769741191_">
					<use xlink:href="#SVGID_00000114768503760806883290000002419957783526161062_"  style="overflow:visible;"/>
				</clipPath>
				<path style="clip-path:url(#SVGID_00000062879684292643216370000017333498255769741191_);fill:#050505;" d="M37.11,91.13
					c-0.13-0.48-0.13-0.48-0.13-0.48l0,0l0,0l0,0h-0.01c-0.01,0-0.02,0.01-0.04,0.01c-0.04,0.01-0.09,0.03-0.15,0.05
					c-0.13,0.04-0.31,0.1-0.54,0.19c-0.45,0.17-1.08,0.43-1.77,0.81c-1.37,0.75-3.03,1.98-4.08,3.87l0.87,0.48
					c0.92-1.66,2.4-2.77,3.68-3.48c0.64-0.35,1.22-0.59,1.64-0.75c0.21-0.08,0.38-0.13,0.49-0.17c0.06-0.02,0.1-0.03,0.13-0.04
					c0.01,0,0.02-0.01,0.03-0.01h0.01l0,0l0,0l0,0C37.24,91.61,37.24,91.61,37.11,91.13z M31.81,91.86C32,92.32,32,92.32,32,92.32
					l0,0l0,0l0,0c0,0,0,0,0.01,0s0.02-0.01,0.03-0.01c0.03-0.01,0.07-0.03,0.12-0.05c0.1-0.04,0.25-0.1,0.44-0.16
					c0.37-0.13,0.88-0.29,1.43-0.43s1.14-0.25,1.66-0.28c0.54-0.03,0.94,0.04,1.18,0.17l0.49-0.87c-0.49-0.28-1.13-0.33-1.72-0.3
					c-0.61,0.03-1.26,0.16-1.85,0.3c-0.59,0.15-1.13,0.32-1.52,0.46c-0.2,0.07-0.36,0.13-0.47,0.17c-0.06,0.02-0.1,0.04-0.13,0.05
					c-0.02,0.01-0.03,0.01-0.03,0.01h-0.01l0,0l0,0l0,0C31.62,91.4,31.62,91.4,31.81,91.86z M30.38,95.57
					c-0.13,0.24-0.05,0.55,0.2,0.68c0.24,0.13,0.55,0.05,0.68-0.2L30.38,95.57z M37.11,91.13l0.13,0.48
					c0.2-0.05,0.34-0.22,0.37-0.42s-0.07-0.4-0.25-0.5L37.11,91.13z M31.62,91.4c-0.26,0.1-0.38,0.4-0.27,0.65
					c0.1,0.26,0.4,0.38,0.65,0.27L31.62,91.4z"/>
			</g>
			<g>
				<defs>
					<rect id="SVGID_00000141413484868633504530000014314634293777456269_" y="0" width="120" height="120"/>
				</defs>
				<clipPath id="SVGID_00000083053414197713554450000002547532403183371700_">
					<use xlink:href="#SVGID_00000141413484868633504530000014314634293777456269_"  style="overflow:visible;"/>
				</clipPath>
				<path style="clip-path:url(#SVGID_00000083053414197713554450000002547532403183371700_);fill:#F4F4F4;" d="M51.94,88.81
					c-1.31-0.96-3.3-4.77-4.52-5.56c-0.79-0.5-2.39-1.56-3.21-2.43c-1.68-1.79-4.05-3.68-5.23-3.94c0,0-1.62,0.11-1.01,1.8
					c0,0,2.05,1.8,3.84,3.64c1.05,1.08,2.86,2.71,3.25,3.61c-0.88-0.75-7.69-5.75-7.98-5.82c0,0-2.56-0.28-1.4,1.87
					c0,0,6.04,4.67,7.26,6.05c0.11-0.15-6.74-5.73-6.87-5.73c0,0-1.85-0.21-1.34,1.87c0.04,0.16,3.36,3.18,5.84,5.38
					c0,0-2.6-2.28-3.13-2.82c-2.49-1.91-2.86-0.87-2.68,0.52c0.05,0.39,0.41,0.77,2.45,2.67c0,0,0.76,0.84,1.89,1.01
					c2.11,0.3,4.11-0.72,6.94-1.08c2.09-0.27,6.24-0.82,5.9-1.06L51.94,88.81z"/>
			</g>
			<g>
				<defs>
					<rect id="SVGID_00000085934012260200124910000005589730861561642918_" y="0" width="120" height="120"/>
				</defs>
				<clipPath id="SVGID_00000170265889698456219310000006149527707316581542_">
					<use xlink:href="#SVGID_00000085934012260200124910000005589730861561642918_"  style="overflow:visible;"/>
				</clipPath>
				<path style="clip-path:url(#SVGID_00000170265889698456219310000006149527707316581542_);fill:#050505;" d="M51.5,88.57
					l-0.01,0.02l0.89,0.45l0.01-0.02L51.5,88.57z M46.11,90.35c1.04-0.13,2.61-0.34,3.88-0.54c0.63-0.1,1.2-0.2,1.59-0.3
					c0.19-0.05,0.37-0.1,0.51-0.16c0.04-0.02,0.08-0.04,0.12-0.07c0.04-0.03,0.11-0.08,0.16-0.16c0.06-0.09,0.13-0.25,0.08-0.43
					c-0.04-0.17-0.15-0.26-0.21-0.31l-0.59,0.81c-0.04-0.03-0.13-0.11-0.17-0.26c-0.04-0.17,0.02-0.31,0.07-0.38
					c0.04-0.06,0.09-0.1,0.1-0.1c0.02-0.01,0.02-0.01,0.02-0.01c-0.04,0.02-0.14,0.05-0.32,0.1c-0.35,0.09-0.89,0.18-1.52,0.28
					c-1.25,0.2-2.8,0.4-3.84,0.54L46.11,90.35z M39.03,91.43c1.15,0.17,2.26-0.03,3.38-0.3c1.14-0.27,2.31-0.6,3.69-0.78l-0.13-0.99
					c-1.45,0.18-2.71,0.54-3.8,0.8c-1.11,0.26-2.06,0.42-3.01,0.28L39.03,91.43z M37.21,89.93c-0.37,0.33-0.37,0.33-0.37,0.33l0,0
					l0,0l0,0l0,0l0.01,0.01c0.01,0.01,0.02,0.02,0.03,0.04c0.03,0.03,0.07,0.07,0.12,0.12c0.1,0.09,0.25,0.22,0.44,0.35
					c0.37,0.26,0.92,0.55,1.58,0.65l0.14-0.99c-0.46-0.07-0.86-0.27-1.15-0.48c-0.14-0.1-0.26-0.2-0.33-0.27
					c-0.04-0.03-0.07-0.06-0.08-0.08c-0.01-0.01-0.01-0.02-0.02-0.02l0,0l0,0l0,0l0,0l0,0C37.59,89.6,37.59,89.6,37.21,89.93z
					 M34.27,87.33c0.04,0.36,0.24,0.65,0.61,1.05s0.98,0.98,2,1.93l0.68-0.73c-1.02-0.95-1.61-1.51-1.94-1.87
					c-0.34-0.37-0.34-0.46-0.35-0.49L34.27,87.33z M37.76,86.35c-0.64-0.49-1.17-0.81-1.62-0.99c-0.43-0.17-0.88-0.23-1.26-0.04
					c-0.39,0.2-0.55,0.58-0.61,0.92s-0.04,0.72,0,1.09l0.99-0.13c-0.04-0.33-0.05-0.59-0.01-0.78c0.02-0.09,0.04-0.15,0.06-0.18
					s0.02-0.03,0.02-0.03s0.11-0.05,0.44,0.08c0.32,0.12,0.77,0.39,1.38,0.85L37.76,86.35z M40.58,89.56
					c0.33-0.38,0.33-0.38,0.33-0.38l0,0l0,0l0,0c0,0,0,0-0.01,0c0,0-0.01-0.01-0.02-0.02c-0.02-0.02-0.05-0.04-0.08-0.07
					c-0.07-0.06-0.18-0.15-0.3-0.26c-0.25-0.22-0.59-0.52-0.95-0.84c-0.72-0.64-1.49-1.33-1.74-1.59l-0.71,0.7
					c0.28,0.29,1.08,1,1.79,1.63c0.36,0.32,0.7,0.62,0.95,0.84c0.13,0.11,0.23,0.2,0.3,0.27c0.04,0.03,0.06,0.06,0.08,0.07
					c0.01,0.01,0.02,0.01,0.02,0.02c0,0,0,0,0.01,0l0,0l0,0l0,0C40.25,89.94,40.25,89.94,40.58,89.56z M34.25,84.3
					c0.03,0.11,0.09,0.19,0.09,0.2c0.02,0.03,0.04,0.05,0.06,0.08c0.04,0.04,0.08,0.09,0.14,0.15c0.11,0.11,0.25,0.25,0.43,0.42
					c0.36,0.34,0.86,0.81,1.43,1.33c1.15,1.05,2.6,2.36,3.85,3.46l0.66-0.75c-1.24-1.1-2.69-2.4-3.83-3.45
					c-0.57-0.52-1.06-0.98-1.42-1.32c-0.18-0.17-0.31-0.3-0.41-0.4c-0.05-0.05-0.08-0.08-0.09-0.1c-0.01-0.01-0.01-0.01,0,0
					c0,0,0.01,0.01,0.02,0.03c0.01,0.01,0.03,0.06,0.05,0.12L34.25,84.3z M36.08,82.32c0.06-0.5,0.06-0.5,0.06-0.5l0,0l0,0l0,0
					h-0.01c-0.01,0-0.01,0-0.02,0c-0.02,0-0.05,0-0.08,0c-0.06,0-0.15,0-0.26,0.01c-0.2,0.02-0.49,0.06-0.77,0.21
					c-0.29,0.15-0.57,0.41-0.72,0.81c-0.15,0.4-0.15,0.88-0.01,1.46l0.97-0.24c-0.11-0.46-0.08-0.73-0.02-0.87
					c0.05-0.14,0.14-0.22,0.25-0.28c0.12-0.06,0.26-0.09,0.39-0.1c0.06,0,0.11,0,0.15,0c0.02,0,0.03,0,0.04,0h0.01l0,0l0,0l0,0l0,0
					C36.02,82.81,36.02,82.81,36.08,82.32z M43.34,88.34c0.15-0.21,0.09-0.42,0.08-0.46c-0.02-0.07-0.05-0.12-0.07-0.14
					c-0.03-0.05-0.07-0.09-0.1-0.12c-0.06-0.07-0.14-0.14-0.23-0.23c-0.18-0.17-0.45-0.41-0.77-0.68c-0.63-0.55-1.49-1.26-2.35-1.97
					c-0.86-0.71-1.73-1.41-2.39-1.94c-0.33-0.26-0.61-0.48-0.81-0.64c-0.1-0.08-0.19-0.14-0.25-0.19c-0.03-0.02-0.06-0.04-0.09-0.06
					c-0.01-0.01-0.03-0.02-0.06-0.03c-0.01-0.01-0.03-0.02-0.06-0.03c-0.01-0.01-0.09-0.03-0.18-0.03v1c-0.09,0-0.16-0.03-0.17-0.03
					c-0.02-0.01-0.04-0.02-0.05-0.02c-0.01-0.01-0.02-0.01-0.02-0.01s0.02,0.01,0.04,0.03c0.05,0.04,0.13,0.09,0.22,0.17
					c0.2,0.15,0.47,0.37,0.8,0.63c0.66,0.52,1.52,1.22,2.38,1.93s1.7,1.41,2.33,1.95c0.31,0.27,0.57,0.5,0.73,0.65
					c0.09,0.08,0.14,0.14,0.17,0.17c0.02,0.02,0.01,0.02,0,0c0-0.01-0.03-0.04-0.05-0.1c-0.01-0.03-0.07-0.24,0.08-0.44L43.34,88.34
					z M35.69,81.99c-0.31,0.4-0.31,0.4-0.31,0.4l0,0l0,0l0,0l0.01,0.01c0.01,0.01,0.03,0.02,0.05,0.04
					c0.04,0.03,0.11,0.08,0.19,0.15c0.17,0.13,0.41,0.32,0.7,0.55c0.58,0.46,1.38,1.08,2.2,1.75c0.83,0.67,1.69,1.38,2.43,2.01
					c0.74,0.64,1.32,1.16,1.6,1.48l0.75-0.66c-0.33-0.38-0.96-0.95-1.7-1.58c-0.74-0.64-1.62-1.35-2.45-2.03
					c-0.83-0.67-1.63-1.3-2.21-1.76c-0.29-0.23-0.53-0.42-0.7-0.55c-0.08-0.07-0.15-0.12-0.19-0.15c-0.02-0.02-0.04-0.03-0.05-0.04
					C36,81.61,36,81.6,36,81.6l0,0l0,0l0,0C35.99,81.6,35.99,81.6,35.69,81.99z M37.09,80.12c0.05-0.5,0.05-0.5,0.05-0.5l0,0l0,0
					l0,0h-0.01c-0.01,0-0.02,0-0.03,0c-0.02,0-0.06,0-0.09-0.01c-0.08,0-0.19-0.01-0.32,0c-0.25,0.01-0.6,0.04-0.92,0.18
					c-0.33,0.13-0.7,0.39-0.83,0.87c-0.13,0.46-0.01,0.98,0.31,1.57l0.88-0.48c-0.26-0.49-0.25-0.73-0.23-0.82
					c0.02-0.07,0.08-0.15,0.24-0.21c0.17-0.07,0.39-0.1,0.58-0.1c0.09,0,0.18,0,0.23,0c0.03,0,0.05,0,0.06,0c0.01,0,0.01,0,0.01,0
					l0,0l0,0l0,0l0,0C37.04,80.62,37.04,80.62,37.09,80.12z M45.39,85.57c-0.46-0.39-2.4-1.84-4.24-3.19
					c-0.93-0.68-1.83-1.33-2.53-1.83c-0.35-0.25-0.64-0.45-0.86-0.6c-0.11-0.07-0.2-0.14-0.28-0.18c-0.04-0.02-0.07-0.04-0.1-0.06
					c-0.02-0.01-0.08-0.05-0.16-0.07l-0.26,0.97c-0.06-0.02-0.09-0.04-0.07-0.02c0.01,0.01,0.03,0.02,0.06,0.03
					c0.06,0.04,0.14,0.09,0.25,0.16c0.21,0.14,0.5,0.34,0.84,0.59c0.69,0.49,1.59,1.14,2.52,1.82c1.86,1.36,3.76,2.78,4.18,3.14
					L45.39,85.57z M41.46,82.68c0.27,0.28,0.58,0.58,0.91,0.9c0.32,0.32,0.66,0.65,0.97,0.97s0.6,0.63,0.82,0.91
					c0.23,0.29,0.38,0.52,0.45,0.68l0.92-0.4c-0.13-0.29-0.35-0.6-0.6-0.91c-0.25-0.31-0.56-0.65-0.88-0.98s-0.66-0.67-0.99-0.99
					s-0.63-0.62-0.89-0.89L41.46,82.68z M37.97,78.69c-0.33,0.38-0.33,0.38-0.33,0.38l0,0l0,0l0,0l0,0c0,0,0.01,0.01,0.02,0.02
					c0.02,0.01,0.04,0.03,0.07,0.06c0.06,0.05,0.15,0.13,0.25,0.23c0.22,0.2,0.53,0.48,0.9,0.82c0.73,0.68,1.69,1.58,2.57,2.49
					l0.72-0.7c-0.9-0.93-1.87-1.85-2.61-2.53c-0.37-0.34-0.68-0.63-0.91-0.83c-0.11-0.1-0.2-0.18-0.26-0.23
					c-0.03-0.03-0.05-0.05-0.07-0.06c-0.01-0.01-0.01-0.01-0.02-0.02l0,0l0,0l0,0l0,0C38.3,78.32,38.3,78.32,37.97,78.69z
					 M38.98,76.89c-0.03-0.5-0.04-0.5-0.04-0.5l0,0l0,0l0,0c0,0,0,0-0.01,0s-0.01,0-0.02,0c-0.02,0-0.04,0-0.07,0.01
					c-0.06,0.01-0.14,0.02-0.23,0.05c-0.18,0.05-0.43,0.13-0.66,0.3c-0.24,0.17-0.46,0.44-0.56,0.82c-0.1,0.37-0.06,0.8,0.12,1.29
					l0.94-0.34c-0.13-0.36-0.12-0.57-0.09-0.69s0.1-0.2,0.19-0.26c0.1-0.07,0.21-0.12,0.32-0.14c0.05-0.01,0.09-0.02,0.12-0.03
					c0.01,0,0.02,0,0.03,0l0,0l0,0l0,0l0,0l0,0C39.01,77.39,39.01,77.39,38.98,76.89z M44.57,80.49c-0.86-0.92-1.89-1.85-2.86-2.6
					c-0.49-0.37-0.96-0.7-1.4-0.96c-0.43-0.25-0.85-0.45-1.22-0.53l-0.21,0.98c0.22,0.05,0.53,0.18,0.93,0.41
					c0.39,0.23,0.83,0.53,1.3,0.89c0.93,0.71,1.92,1.61,2.74,2.49L44.57,80.49z M47.68,82.83c-0.8-0.51-2.35-1.53-3.11-2.35
					l-0.73,0.68c0.87,0.93,2.53,2.01,3.3,2.51L47.68,82.83z M52.23,88.41c-0.27-0.19-0.6-0.56-0.99-1.06
					c-0.38-0.49-0.78-1.07-1.19-1.66c-0.41-0.58-0.82-1.18-1.21-1.67c-0.38-0.48-0.78-0.93-1.16-1.18l-0.54,0.84
					c0.23,0.15,0.54,0.47,0.92,0.95c0.37,0.47,0.76,1.04,1.17,1.63c0.41,0.58,0.82,1.18,1.22,1.7c0.39,0.51,0.8,0.98,1.19,1.26
					L52.23,88.41z M51.94,88.79l0.29-0.41c-0.12-0.09-0.27-0.12-0.41-0.08c-0.14,0.03-0.26,0.13-0.33,0.26L51.94,88.79z
					 M46.05,89.86l0.06,0.5l0,0L46.05,89.86z M39.1,90.94l0.07-0.49l0,0L39.1,90.94z M37.21,89.93l0.37-0.33
					c-0.01-0.01-0.02-0.02-0.03-0.03L37.21,89.93z M34.77,87.27l0.5-0.06l0,0L34.77,87.27z M37.45,86.75l0.36-0.35
					c-0.02-0.02-0.03-0.03-0.05-0.05L37.45,86.75z M40.58,89.56l-0.33,0.38c0.21,0.18,0.52,0.16,0.7-0.05s0.16-0.52-0.04-0.7
					L40.58,89.56z M34.74,84.18l0.49-0.11v-0.01L34.74,84.18z M36.08,82.32l-0.06,0.5c0.02,0,0.04,0,0.06,0V82.32z M42.94,88.04
					l-0.38,0.33c0.1,0.11,0.24,0.18,0.4,0.17s0.29-0.08,0.38-0.2L42.94,88.04z M35.69,81.99l-0.44,0.24
					c0.03,0.06,0.08,0.12,0.13,0.16L35.69,81.99z M37.09,80.12l0.13-0.48c-0.02-0.01-0.05-0.01-0.08-0.01L37.09,80.12z M45.07,85.95
					l-0.32,0.38c0.18,0.15,0.43,0.16,0.62,0.02c0.19-0.14,0.25-0.39,0.16-0.6L45.07,85.95z M41.81,82.33l0.36-0.35l0,0L41.81,82.33z
					 M37.97,78.69l-0.47,0.17c0.03,0.08,0.08,0.15,0.14,0.2L37.97,78.69z M38.98,76.89l0.11-0.49c-0.05-0.01-0.09-0.01-0.14-0.01
					L38.98,76.89z M44.21,80.83l0.37-0.34l0,0L44.21,80.83z M47.41,83.26l0.27-0.42l0,0L47.41,83.26z M51.94,88.81l-0.3,0.4
					c0.12,0.09,0.27,0.12,0.41,0.08s0.26-0.13,0.33-0.26L51.94,88.81z"/>
			</g>
		</g>
	</g>
</g>
<g>
	<g>
		<g>
			<defs>
				<path id="SVGID_00000027577225165640263590000009446458452138320276_" d="M89.58,37.28c-0.54-0.27-1.14-0.04-1.45,0.55
					c-0.25,0.5-0.17,1.16,0.46,1.47c0.55,0.27,1.15,0.05,1.44-0.53C90.33,38.17,90.14,37.56,89.58,37.28z"/>
			</defs>
			<clipPath id="SVGID_00000101086293646419709530000013410270179131842969_">
				<use xlink:href="#SVGID_00000027577225165640263590000009446458452138320276_"  style="overflow:visible;"/>
			</clipPath>
			<path style="clip-path:url(#SVGID_00000101086293646419709530000013410270179131842969_);fill:#70747D;" d="M90.93,39.22
				c0.25-0.5,0.32-1.07,0.16-1.6c-0.17-0.54-0.55-0.97-1.06-1.23l-0.89,1.79c0.03,0.01,0.04,0.03,0.04,0.03s0,0,0-0.01
				c0,0,0,0,0,0.02s-0.01,0.05-0.04,0.11L90.93,39.22z M88.15,40.2c1.09,0.53,2.26,0.05,2.78-0.98l-1.79-0.89
				c-0.02,0.04-0.04,0.07-0.06,0.08c-0.01,0.01-0.02,0.01-0.02,0.01l0,0c0,0-0.01,0-0.04-0.01L88.15,40.2z M87.24,37.38
				c-0.22,0.44-0.31,0.97-0.17,1.5c0.14,0.55,0.51,1.03,1.09,1.32l0.88-1.79C89,38.39,89,38.38,89,38.39c0,0,0,0,0,0.01l0,0
				c0,0,0-0.01,0-0.03s0.01-0.05,0.02-0.08L87.24,37.38z M90.03,36.39c-1.11-0.56-2.27,0-2.78,0.98l1.77,0.93
				c0.06-0.11,0.11-0.13,0.11-0.13s0,0-0.01,0s0,0,0.02,0.01L90.03,36.39z M88.59,39.3l-0.44,0.9l0,0L88.59,39.3z M88.13,37.83
				l-0.89-0.47v0.01v0.01L88.13,37.83z"/>
		</g>
	</g>
	<path class="st50" d="M95.07,32.35c-0.3,0.17-0.7,0.31-1.18,0.44c-0.46,0.13-1.01,0.26-1.51,0.42c-1,0.32-2.1,0.84-2.46,2.06
		l0.96,0.28c0.2-0.7,0.84-1.08,1.8-1.39c0.48-0.15,0.96-0.27,1.47-0.41c0.49-0.14,0.99-0.3,1.41-0.54L95.07,32.35z M92.24,28.41
		c0.12-0.34,0.3-0.56,0.52-0.7c0.23-0.14,0.52-0.22,0.86-0.21c0.7,0,1.53,0.33,2.18,0.85c0.65,0.53,1.04,1.19,1.02,1.84
		c-0.02,0.62-0.42,1.39-1.75,2.16l0.5,0.87c1.5-0.86,2.22-1.9,2.25-2.99c0.03-1.07-0.6-2-1.39-2.64c-0.8-0.64-1.84-1.07-2.8-1.08
		c-0.49,0-0.97,0.1-1.4,0.37s-0.75,0.68-0.94,1.22L92.24,28.41z M89.92,35.28c-0.08,0.27,0.07,0.54,0.34,0.62
		c0.27,0.08,0.54-0.07,0.62-0.34L89.92,35.28z M95.32,32.78l-0.25-0.43l0,0L95.32,32.78z M91.29,28.09
		c-0.09,0.26,0.05,0.55,0.31,0.63s0.55-0.05,0.63-0.31L91.29,28.09z"/>
	<g>
		<g>
			<defs>
				<path id="SVGID_00000098928599106014943690000002276267333841066895_" d="M35.59,24.11c-0.56,0.23-0.78,0.82-0.55,1.45
					c0.21,0.51,0.76,0.89,1.4,0.63c0.57-0.23,0.8-0.83,0.55-1.43C36.74,24.14,36.16,23.87,35.59,24.11L35.59,24.11z"/>
			</defs>
			<clipPath id="SVGID_00000000938873822054730940000013630134126659999933_">
				<use xlink:href="#SVGID_00000098928599106014943690000002276267333841066895_"  style="overflow:visible;"/>
			</clipPath>
			<path style="clip-path:url(#SVGID_00000000938873822054730940000013630134126659999933_);fill:#70747D;" d="M35.58,25.11
				L35.58,25.11l0.01-2h-0.01V25.11z M37.92,24.39c-0.21-0.51-0.58-0.95-1.09-1.18c-0.52-0.24-1.1-0.24-1.63-0.02l0.76,1.85
				c0.03-0.01,0.04-0.01,0.04-0.01h-0.01c-0.01-0.01,0.03,0.01,0.07,0.11L37.92,24.39z M36.81,27.12c1.14-0.46,1.54-1.68,1.1-2.74
				l-1.85,0.77c0.02,0.04,0.02,0.08,0.02,0.09c0,0.02,0,0.02,0,0.02v-0.01c0,0-0.01,0.01-0.03,0.02L36.81,27.12z M34.11,25.95
				c0.36,0.87,1.42,1.7,2.7,1.18l-0.75-1.85c-0.03,0.01-0.04,0.01-0.03,0.01c0.01,0,0.01,0,0.01,0s-0.02-0.01-0.03-0.03
				c-0.02-0.02-0.03-0.04-0.04-0.07L34.11,25.95z M35.21,23.19c-0.53,0.22-0.93,0.63-1.13,1.15c-0.19,0.51-0.17,1.07,0.02,1.57
				l1.88-0.69c-0.02-0.06-0.03-0.11-0.03-0.14c0-0.03,0-0.04,0-0.04l0,0c0,0,0,0,0,0.01c0,0,0,0,0.02-0.01L35.21,23.19z
				 M35.58,24.11l-0.38-0.92l0.38,1.92V24.11z M36.99,24.76l-0.93,0.37v0.01L36.99,24.76z M36.44,26.19l-0.37-0.93l0,0L36.44,26.19z
				 M35.04,25.56L34.1,25.9l0.01,0.02l0.01,0.02L35.04,25.56z M35.59,24.11l0.38,0.93l-0.38-1.93V24.11z"/>
		</g>
	</g>
	<path class="st50" d="M35.53,16.73c-0.07,0.34-0.23,0.73-0.45,1.18c-0.21,0.43-0.47,0.93-0.68,1.41c-0.42,0.96-0.76,2.13-0.08,3.21
		L35.17,22c-0.39-0.62-0.26-1.35,0.15-2.28c0.2-0.46,0.44-0.9,0.67-1.38c0.22-0.46,0.43-0.94,0.53-1.42L35.53,16.73z M30.69,16.25
		c-0.18-0.31-0.22-0.59-0.18-0.85c0.04-0.26,0.18-0.53,0.41-0.79c0.47-0.52,1.26-0.93,2.08-1.07c0.83-0.14,1.59,0.01,2.06,0.45
		c0.45,0.42,0.77,1.24,0.47,2.73l0.98,0.2c0.34-1.69,0.04-2.92-0.76-3.67c-0.78-0.73-1.9-0.87-2.9-0.7
		c-1.01,0.17-2.02,0.67-2.66,1.39c-0.32,0.36-0.57,0.8-0.65,1.29c-0.08,0.5,0.01,1.01,0.3,1.51L30.69,16.25z M34.32,22.54
		c0.15,0.23,0.46,0.3,0.69,0.16s0.3-0.46,0.16-0.69L34.32,22.54z M36.02,16.83l-0.49-0.1l0,0L36.02,16.83z M29.83,16.75
		c0.14,0.24,0.44,0.32,0.68,0.18s0.32-0.44,0.18-0.68L29.83,16.75z"/>
</g>
</svg>
