<svg width="90" height="90" viewBox="0 0 90 90" fill="none" xmlns="http://www.w3.org/2000/svg">
<path d="M75.8746 63.3034C77.9725 63.3034 79.6622 61.7184 79.6622 59.7702V20.2051H10.3359V59.7702C10.3359 61.7272 12.0352 63.3034 14.1236 63.3034C29.9726 63.3034 39.2979 63.3034 52.0096 63.3034" stroke="#050505" stroke-width="1.5" stroke-linecap="round" stroke-linejoin="round"/>
<path d="M79.6528 12.2277V20.2136H10.3359V12.2277C10.3359 10.3263 12.0254 8.7793 14.1231 8.7793H75.8751C77.9633 8.7793 79.6622 10.3177 79.6622 12.2277H79.6528Z" stroke="#050505" stroke-width="1.5" stroke-linecap="round" stroke-linejoin="round"/>
<path d="M18.8824 14.4981C18.8824 15.2282 18.244 15.8176 17.4626 15.8176C16.6812 15.8176 16.0332 15.2282 16.0332 14.4981C16.0332 13.7681 16.6717 13.1787 17.4626 13.1787C18.2535 13.1787 18.8824 13.7681 18.8824 14.4981Z" stroke="#050505" stroke-width="1.5" stroke-linecap="round" stroke-linejoin="round"/>
<path d="M24.5836 14.4981C24.5836 15.2282 23.9473 15.8176 23.159 15.8176C22.3707 15.8176 21.7344 15.2282 21.7344 14.4981C21.7344 13.7681 22.3707 13.1787 23.159 13.1787C23.9473 13.1787 24.5836 13.7681 24.5836 14.4981Z" stroke="#050505" stroke-width="1.5" stroke-linecap="round" stroke-linejoin="round"/>
<path d="M31.2281 14.4981C31.2281 15.2282 30.5897 15.8176 29.7987 15.8176C29.0078 15.8176 28.3789 15.2282 28.3789 14.4981C28.3789 13.7681 29.0174 13.1787 29.7987 13.1787C30.5801 13.1787 31.2281 13.7681 31.2281 14.4981Z" stroke="#050505" stroke-width="1.5" stroke-linecap="round" stroke-linejoin="round"/>
<path d="M14.1348 35.6016H20.4439C20.4439 35.6016 21.938 26.4719 24.5739 26.3662C27.2099 26.4719 28.7039 35.6016 28.7039 35.6016C28.7039 35.6016 30.198 44.7313 32.8339 44.8369C35.4699 44.7313 36.9639 35.6016 36.9639 35.6016C36.9639 35.6016 38.4579 26.4719 41.0939 26.3662C43.7299 26.4719 45.2239 35.6016 45.2239 35.6016C45.2239 35.6016 46.7179 44.7313 49.3539 44.8369C51.9899 44.7313 53.4839 35.6016 53.4839 35.6016C53.4839 35.6016 54.9779 26.4719 57.6139 26.3662C60.2498 26.4719 61.7439 35.6016 61.7439 35.6016H70.1656" stroke="#050505" stroke-width="1.5" stroke-linecap="round" stroke-linejoin="round"/>
<path d="M73.9648 35.1631H75.8643" stroke="#050505" stroke-width="1.5" stroke-linecap="round" stroke-linejoin="round"/>
<path fill-rule="evenodd" clip-rule="evenodd" d="M53.1359 71.1538C47.9622 65.8333 48.0046 57.1605 53.2305 51.7864C58.4564 46.4122 66.89 46.3686 72.0636 51.6891C76.7598 56.5185 77.1583 64.1101 73.2834 69.4896L81.3059 77.7396C82.0476 78.5024 82.0476 79.7392 81.3059 80.5021C80.5641 81.2649 79.3614 81.2649 78.6196 80.5021L70.6185 72.274C65.3783 76.4016 57.8842 76.0368 53.1359 71.1538ZM55.6688 68.5413C59.4565 72.4365 65.628 72.4046 69.454 68.4701C73.2799 64.5355 73.3109 58.189 69.5232 54.2938C65.7355 50.3986 59.564 50.4305 55.738 54.365C51.9121 58.2996 51.8811 64.6461 55.6688 68.5413Z" fill="#80ABFF"/>
</svg>
