<svg width="91" height="90" viewBox="0 0 91 90" fill="none" xmlns="http://www.w3.org/2000/svg">
<g clip-path="url(#clip0_2014_132749)">
<path d="M61.434 36.1087C61.3195 36.0744 61.2051 36.063 61.0907 36.0401C62.029 24.6837 55.7644 15.6044 45.0832 15.387C34.4021 15.5986 28.1375 24.6837 29.0758 36.0401C28.9613 36.0572 28.8469 36.0687 28.7325 36.1087C27.1535 36.6236 26.3983 38.6317 27.0391 40.5998C27.6226 42.3848 29.1559 43.5061 30.609 43.3173C30.6662 43.4947 30.7234 43.6663 30.7806 43.8436C32.3711 48.329 34.7682 51.5213 37.3598 53.5695C42.1941 57.3855 47.8465 57.4255 52.7037 53.6439C55.3353 51.5957 57.7725 48.3747 59.3801 43.8436C59.443 43.6663 59.4945 43.4947 59.5517 43.3173C61.0106 43.5061 62.5438 42.3848 63.1217 40.5998C63.7624 38.6317 63.0072 36.6236 61.4282 36.1087H61.434Z" stroke="#050505" stroke-width="1.5" stroke-linecap="round" stroke-linejoin="round"/>
<path d="M45.082 11.6733C36.0028 11.6733 28.6455 19.0307 28.6455 28.11H61.5186C61.5186 19.0307 54.1613 11.6733 45.082 11.6733Z" fill="#80ABFF" stroke="#80ABFF" stroke-width="1.5" stroke-linecap="round" stroke-linejoin="round"/>
<path d="M53.0605 35.0348H28.3262C27.1555 35.0348 26.2029 34.3329 26.2029 33.4703V29.7914C26.2029 28.9288 27.1555 28.2268 28.3262 28.2268H61.0374C62.2081 28.2268 63.1608 28.9288 63.1608 29.7914V33.4703C63.1608 34.3329 62.2081 35.0348 61.0374 35.0348H52.6071" fill="#80ABFF"/>
<path d="M43.0581 23.0545L42.2285 11.8526C42.1027 10.1935 43.4185 8.77466 45.0833 8.77466C46.7482 8.77466 48.064 10.1878 47.9381 11.8526L47.1086 23.0545" fill="#F4F4F4"/>
<path d="M43.0581 23.0545L42.2285 11.8526C42.1027 10.1935 43.4185 8.77466 45.0833 8.77466C46.7482 8.77466 48.064 10.1878 47.9381 11.8526L47.1086 23.0545" stroke="#80ABFF" stroke-width="1.5" stroke-linecap="round" stroke-linejoin="round"/>
<path d="M36.0092 14.4729L36.9749 17.6904C37.346 18.927 35.8255 19.8448 34.9042 18.9402L33.0056 17.076" fill="#F4F4F4"/>
<path d="M36.0092 14.4729L36.9749 17.6904C37.346 18.927 35.8255 19.8448 34.9042 18.9402L33.0056 17.076" stroke="#80ABFF" stroke-width="1.5" stroke-linecap="round" stroke-linejoin="round"/>
<path d="M54.1555 14.4729L53.1898 17.6904C52.8187 18.927 54.3392 19.8448 55.2605 18.9402L57.1591 17.076" fill="#F4F4F4"/>
<path d="M54.1555 14.4729L53.1898 17.6904C52.8187 18.927 54.3392 19.8448 55.2605 18.9402L57.1591 17.076" stroke="#80ABFF" stroke-width="1.5" stroke-linecap="round" stroke-linejoin="round"/>
<path d="M42.5581 49.1594H48.0267" stroke="black" stroke-width="1.5" stroke-linecap="round"/>
<circle cx="39.6977" cy="39.569" r="1.34613" fill="#050505"/>
<circle cx="50.6349" cy="39.569" r="1.34613" fill="#050505"/>
<path d="M45.4995 63.9133V81.8291" stroke="black" stroke-width="1.5"/>
<path d="M38.1174 59.6729L33.6894 63.6547L22.4102 68.2779C19.3158 69.5463 16.7138 71.5871 15.6582 74.7605C14.9453 76.9039 14.2783 79.4341 13.9526 81.5507H45.4976M38.1174 59.6729L45.4976 64.8104M38.1174 59.6729L38.4905 58.2141C38.5999 57.7866 38.6653 57.349 38.6857 56.9083L38.7718 55.0488" stroke="#050505" stroke-width="1.5" stroke-linecap="round" stroke-linejoin="round"/>
<path d="M52.8826 59.6761L57.3106 63.658L68.5898 68.2812C71.6842 69.5496 74.2862 71.5904 75.3418 74.7637C76.0547 76.9072 76.7217 79.4373 77.0474 81.554H45.5024M52.8826 59.6761L45.5024 64.8137M52.8826 59.6761L52.3682 58.2247C52.2146 57.7913 52.1076 57.3429 52.0489 56.8869L51.8124 55.0488" stroke="#050505" stroke-width="1.5" stroke-linecap="round" stroke-linejoin="round"/>
</g>
<defs>
<clipPath id="clip0_2014_132749">
<rect width="90" height="90" fill="white" transform="translate(0.5)"/>
</clipPath>
</defs>
</svg>
