<svg width="90" height="90" viewBox="0 0 90 90" fill="none" xmlns="http://www.w3.org/2000/svg">
<path d="M38.384 13.9347C37.2068 13.3957 35.9517 12.9986 34.6469 12.7504V11.4456L35.1858 9.11968C33.9874 8.89276 32.7393 8.7793 31.4629 8.7793C30.1865 8.7793 28.9384 8.89985 27.74 9.11968L28.2789 11.4456V12.7504C26.0239 13.1901 23.9249 14.0623 22.0882 15.3104L21.1734 14.3814L19.9112 12.3533C17.8618 13.7645 16.0819 15.5515 14.6495 17.6009L16.6917 18.8561L17.6065 19.785C16.3655 21.6217 15.4862 23.7207 15.0608 25.9828H13.7418L11.4158 25.4439C11.1889 26.6423 11.0684 27.8833 11.0684 29.1597C11.0684 30.4362 11.1889 31.663 11.4158 32.8614L13.7418 32.3154H15.0608C15.4933 34.5917 16.3655 36.6907 17.6065 38.5132L16.6917 39.4421L14.6495 40.7044C16.0748 42.768 17.8618 44.5479 19.9112 45.952L21.1734 43.9238L22.0882 42.9949C23.9249 44.25 26.0239 45.1294 28.2789 45.5619V46.8667L27.74 49.1927C28.9384 49.4196 30.1865 49.5331 31.4629 49.5331C32.7393 49.5331 33.9874 49.4125 35.1858 49.1927L34.6469 46.8667V45.5619C36.9019 45.1223 39.0009 44.2501 40.8376 43.002L41.7523 43.9309L43.0146 45.9591C45.064 44.5479 46.8439 42.7609 48.2763 40.7115L46.234 39.4563L45.3193 38.5274C46.5602 36.6907 47.4396 34.5917 47.865 32.3296H49.184L51.51 32.8685C51.7369 31.6701 51.8574 30.4291 51.8574 29.1526C51.8574 27.8762 51.7369 26.6494 51.51 25.451L49.184 25.997H47.865C47.4325 23.7207 46.5602 21.6217 45.3193 19.7992L46.234 18.8702L48.2763 17.608C46.851 15.5444 45.0711 13.7645 43.0146 12.3604L41.7523 14.3885L40.8376 15.3175" stroke="#050505" stroke-width="1.5" stroke-linecap="round" stroke-linejoin="round"/>
<path d="M31.4696 38.0183C36.3651 38.0183 40.3337 34.0492 40.3337 29.1532C40.3337 24.2571 36.3651 20.2881 31.4696 20.2881C26.5741 20.2881 22.6055 24.2571 22.6055 29.1532C22.6055 34.0492 26.5741 38.0183 31.4696 38.0183Z" stroke="#050505" stroke-width="1.5" stroke-linecap="round" stroke-linejoin="round"/>
<path d="M56.3961 80.4342C56.3961 80.4342 56.3961 80.4525 56.4142 80.4342C57.3544 79.195 57.9089 77.1622 57.8486 75.5995C57.6738 70.6915 57.0048 64.4467 57.0048 64.4467V61.0526C57.0048 60.0148 56.1912 59.1785 55.1787 59.1785C54.1662 59.1785 53.3525 60.0209 53.3525 61.0526V59.5692C53.3525 58.3788 52.4183 57.4204 51.2612 57.4204C50.104 57.4204 49.1698 58.3849 49.1698 59.5692V58.916C49.1698 57.7257 48.2296 56.755 47.0725 56.755C45.9153 56.755 44.9811 57.7257 44.9811 58.916V49.8753C44.9811 48.685 44.0469 47.7266 42.8898 47.7266C41.7326 47.7266 40.7984 48.6911 40.7984 49.8753V62.1087C40.7984 62.1087 40.8225 64.4772 39.6654 66.4367C39.2736 65.3074 38.8216 64.1903 38.255 63.1525C37.6644 62.0842 36.7845 60.8817 35.7418 60.1552C33.9699 58.916 32.1015 61.0526 33.313 63.1525C33.313 63.1525 36.2963 69.0799 36.5193 72.9135C36.7483 76.7471 38.7854 78.5174 40.1656 80.4342" stroke="#050505" stroke-width="1.5" stroke-linecap="round" stroke-linejoin="round"/>
<path d="M44.9756 58.9209V63.2917" stroke="#050505" stroke-width="1.5" stroke-linecap="round" stroke-linejoin="round"/>
<path d="M49.1641 59.5664V63.2901" stroke="#050505" stroke-width="1.5" stroke-linecap="round" stroke-linejoin="round"/>
<path d="M53.3467 61.0508V63.2911" stroke="#050505" stroke-width="1.5" stroke-linecap="round" stroke-linejoin="round"/>
<path d="M74.3163 48.2522L76.2026 43.6003L74.2525 42.8061C74.4014 41.7778 74.3872 40.7567 74.2312 39.7568L76.1672 38.9413L74.2171 34.3178L72.2811 35.1333C71.6784 34.3248 70.948 33.6015 70.1112 32.9917L70.9054 31.0416L66.2535 29.1553L65.4593 31.1054C64.4311 30.9565 63.4099 30.9707 62.4101 31.1267L61.5946 29.1907L56.971 31.1408L57.7865 33.0768C56.9781 33.6795 56.2548 34.4099 55.645 35.2467L53.6949 34.4525L51.8086 39.1044L53.7587 39.8986C53.6098 40.9269 53.624 41.948 53.78 42.9479L51.844 43.7634L53.7942 48.3869L55.7301 47.5714C56.3328 48.3798 57.0632 49.1031 57.9 49.713L57.1058 51.6631L61.7577 53.5494L62.5519 51.5993C63.5801 51.7482 64.6013 51.734 65.6011 51.578L66.4166 53.5139L71.0402 51.5638L70.2247 49.6279C71.0331 49.0251 71.7564 48.2947 72.3662 47.458L74.3163 48.2522ZM61.708 47.0254C58.5808 45.756 57.0703 42.1891 58.3468 39.0547C59.6232 35.9204 63.183 34.417 66.3174 35.6935C69.4446 36.9628 70.9551 40.5297 69.6786 43.6641C68.4022 46.7985 64.8424 48.3018 61.708 47.0254Z" fill="#80ABFF"/>
<path d="M55.8281 22.5581C58.3313 21.466 61.0969 20.8633 64.0044 20.8633C70.7482 20.8633 76.7332 24.1253 80.4703 29.153" stroke="#050505" stroke-width="1.5" stroke-linecap="round" stroke-linejoin="round"/>
<path d="M15.1607 53.7076C13.0971 52.3319 11.2109 50.708 9.55859 48.8643" stroke="#050505" stroke-width="1.5" stroke-linecap="round" stroke-linejoin="round"/>
<path d="M54.8936 11.2549C55.8154 12.4604 56.6451 13.7368 57.3755 15.0842" stroke="#050505" stroke-width="1.5" stroke-linecap="round" stroke-linejoin="round"/>
</svg>
