<svg width="90" height="90" viewBox="0 0 90 90" fill="none" xmlns="http://www.w3.org/2000/svg">
<path d="M26 21.5446V16H69V69C69 69 65.5341 69 64.5 69" stroke="#050505" stroke-width="1.5" stroke-linecap="square" stroke-linejoin="round"/>
<path d="M20 32V22H64V75H20V46" stroke="#050505" stroke-width="1.5" stroke-linecap="round" stroke-linejoin="round"/>
<path fill-rule="evenodd" clip-rule="evenodd" d="M31.5557 45.7122C35.2577 41.9167 35.2274 35.7297 31.488 31.8958C27.7486 28.062 21.714 28.0309 18.0119 31.8264C14.6512 35.272 14.3664 40.6885 17.14 44.5262L11.398 50.4132C10.8673 50.9574 10.8673 51.8397 11.398 52.3839C11.9288 52.9281 12.7894 52.9281 13.3202 52.3839L19.0472 46.5123C22.7968 49.4558 28.1584 49.1952 31.5557 45.7122ZM29.7433 43.8485C27.033 46.6272 22.617 46.6045 19.8793 43.7977C17.1416 40.9908 17.1194 36.4634 19.8298 33.6846C22.5401 30.9058 26.956 30.9286 29.6937 33.7354C32.4314 36.5422 32.4536 41.0697 29.7433 43.8485Z" fill="#80ABFF"/>
<path d="M56.1453 62.6409H28.7147" stroke="#050505" stroke-width="1.5" stroke-linecap="round" stroke-linejoin="round"/>
<path d="M56.1453 67.6406H28.7147" stroke="#050505" stroke-width="1.5" stroke-linecap="round" stroke-linejoin="round"/>
<path d="M39.0294 44.8782H45.9077V57.1062H39.0294V44.8782Z" stroke="#050505" stroke-width="1.5" stroke-linecap="round" stroke-linejoin="round"/>
<path d="M50.2575 38H57.1357V57.1063H50.2575V38Z" stroke="#050505" stroke-width="1.5" stroke-linecap="round" stroke-linejoin="round"/>
<path d="M27.5656 50.9916H34.4438V57.1056H27.5656V50.9916Z" stroke="#050505" stroke-width="1.5" stroke-linecap="round" stroke-linejoin="round"/>
</svg>
