<svg width="90" height="90" viewBox="0 0 90 90" fill="none" xmlns="http://www.w3.org/2000/svg">
<path d="M72.0527 10.9625L81.9983 9.55762L80.5997 19.5476" stroke="#050505" stroke-width="1.5" stroke-linecap="round" stroke-linejoin="round"/>
<path d="M82 9.55762L70.3006 21.3092L58.9268 9.87724L33.4634 35.4542L23.6066 25.546L8 41.2222V81.9997H70.4782V30.3403" stroke="#050505" stroke-width="1.5" stroke-linecap="round" stroke-linejoin="round"/>
<path d="M12.1445 40.4634L20.3807 32.1904" stroke="#050505" stroke-width="1.5" stroke-linecap="round" stroke-linejoin="round"/>
<path d="M40.4707 31.8294L54.2717 17.9668" stroke="#050505" stroke-width="1.5" stroke-linecap="round" stroke-linejoin="round"/>
<path d="M73.8735 37.0576V58.8884" stroke="#050505" stroke-width="1.5" stroke-linecap="round" stroke-linejoin="round"/>
<path d="M46.4113 69.254L48.7001 63.5841L46.3338 62.6161C46.5145 61.3629 46.4973 60.1183 46.308 58.8996L48.6571 57.9057L46.2908 52.2704L43.9417 53.2643C43.2103 52.279 42.324 51.3975 41.3087 50.6542L42.2724 48.2773L36.6278 45.9783L35.6641 48.3551C34.4164 48.1736 33.1773 48.1909 31.964 48.381L30.9745 46.0215L25.3643 48.3983L26.3538 50.7579C25.3729 51.4925 24.4952 52.3828 23.7552 53.4026L21.3889 52.4346L19.1001 58.1044L21.4664 59.0725C21.2857 60.3257 21.3029 61.5703 21.4922 62.789L19.1431 63.7829L21.5094 69.4182L23.8585 68.4242C24.5899 69.4095 25.4761 70.2911 26.4915 71.0344L25.5278 73.4113L31.1724 75.7103L32.1361 73.3335C33.3838 73.515 34.6229 73.4977 35.8361 73.3075L36.8257 75.6671L42.4359 73.2903L41.4464 70.9307C42.4273 70.1961 43.305 69.3058 44.045 68.2859L46.4113 69.254ZM31.1122 67.7587C27.3175 66.2116 25.4847 61.8642 27.0336 58.0439C28.5824 54.2237 32.902 52.3914 36.7052 53.9471C40.4999 55.4943 42.3327 59.8417 40.7838 63.6619C39.235 67.4821 34.9154 69.3145 31.1122 67.7587Z" fill="#80ABFF"/>
<path d="M59.3963 48.6955L60.5407 45.8605L59.3576 45.3765C59.4479 44.7499 59.4393 44.1276 59.3447 43.5183L60.5192 43.0213L59.3361 40.2037L58.1615 40.7007C57.7958 40.208 57.3527 39.7672 56.845 39.3956L57.3269 38.2071L54.5046 37.0576L54.0227 38.246C53.3989 38.1553 52.7793 38.1639 52.1727 38.259L51.6779 37.0792L48.8728 38.2676L49.3676 39.4474C48.8771 39.8147 48.4383 40.2599 48.0683 40.7698L46.8851 40.2858L45.7407 43.1207L46.9239 43.6047C46.8335 44.2313 46.8421 44.8536 46.9368 45.463L45.7622 45.9599L46.9454 48.7776L48.1199 48.2806C48.4856 48.7732 48.9287 49.214 49.4364 49.5857L48.9546 50.7741L51.7769 51.9236L52.2587 50.7352C52.8826 50.826 53.5021 50.8173 54.1087 50.7223L54.6035 51.902L57.4086 50.7136L56.9139 49.5338C57.4043 49.1665 57.8432 48.7214 58.2132 48.2115L59.3963 48.6955ZM51.7468 47.9478C49.8494 47.1743 48.933 45.0006 49.7075 43.0905C50.4819 41.1803 52.6417 40.2642 54.5433 41.0421C56.4406 41.8156 57.357 43.9893 56.5826 45.8994C55.8082 47.8096 53.6484 48.7257 51.7468 47.9478Z" fill="#80ABFF"/>
</svg>
