<svg width="90" height="90" viewBox="0 0 90 90" fill="none" xmlns="http://www.w3.org/2000/svg">
<path d="M73.9376 62.8545C72.8896 64.5948 71.6907 66.2285 70.3674 67.7557C64.0085 75.0541 54.6566 79.6622 44.2213 79.6622C25.0824 79.6622 9.55811 64.142 9.55811 45.008C9.55811 25.874 25.0735 10.3359 44.2213 10.3359C63.369 10.3359 78.8844 25.8562 78.8844 44.9902C78.8844 49.6694 77.9608 54.1266 76.2734 58.202" stroke="#050505" stroke-width="1.5" stroke-linecap="round" stroke-linejoin="round"/>
<path d="M69.9865 60.4472C69.0916 61.9528 68.0678 63.3663 66.9378 64.6875C61.5077 71.0019 53.5218 74.9887 44.6107 74.9887C28.2674 74.9887 15.0107 61.561 15.0107 45.0069C15.0107 28.4528 28.2598 15.0098 44.6107 15.0098C60.9617 15.0098 74.2107 28.4374 74.2107 44.9916C74.2107 49.0398 73.422 52.8961 71.9811 56.422" stroke="#050505" stroke-width="1.5" stroke-linecap="round" stroke-linejoin="round"/>
<path d="M44.4688 22.2676V23.6855" stroke="#050505" stroke-width="1.5" stroke-linecap="round" stroke-linejoin="round"/>
<path d="M33.1909 25.3008L33.8961 26.5216" stroke="#050505" stroke-width="1.5" stroke-linecap="round" stroke-linejoin="round"/>
<path d="M24.9336 33.5547L26.1544 34.2599" stroke="#050505" stroke-width="1.5" stroke-linecap="round" stroke-linejoin="round"/>
<path d="M21.9058 44.834H23.3161" stroke="#050505" stroke-width="1.5" stroke-linecap="round" stroke-linejoin="round"/>
<path d="M24.9336 56.1036L26.1544 55.3984" stroke="#050505" stroke-width="1.5" stroke-linecap="round" stroke-linejoin="round"/>
<path d="M33.1909 64.381L33.8961 63.1602" stroke="#050505" stroke-width="1.5" stroke-linecap="round" stroke-linejoin="round"/>
<path d="M44.4673 67.3965V65.9785" stroke="#050505" stroke-width="1.5" stroke-linecap="round" stroke-linejoin="round"/>
<path d="M55.7509 64.381L55.0381 63.1602" stroke="#050505" stroke-width="1.5" stroke-linecap="round" stroke-linejoin="round"/>
<path d="M64.014 56.1036L62.7856 55.3984" stroke="#050505" stroke-width="1.5" stroke-linecap="round" stroke-linejoin="round"/>
<path d="M67.0347 44.834H65.6167" stroke="#050505" stroke-width="1.5" stroke-linecap="round" stroke-linejoin="round"/>
<path d="M64.014 33.5547L62.7856 34.2599" stroke="#050505" stroke-width="1.5" stroke-linecap="round" stroke-linejoin="round"/>
<path d="M55.7509 25.3008L55.0381 26.5216" stroke="#050505" stroke-width="1.5" stroke-linecap="round" stroke-linejoin="round"/>
<path d="M44.6108 47.7261C45.9014 47.7261 46.9476 46.5055 46.9476 44.9998C46.9476 43.494 45.9014 42.2734 44.6108 42.2734C43.3202 42.2734 42.2739 43.494 42.2739 44.9998C42.2739 46.5055 43.3202 47.7261 44.6108 47.7261Z" stroke="#050505" stroke-width="1.5" stroke-linecap="round" stroke-linejoin="round"/>
<path d="M44.6108 32.9258V42.2731" stroke="#050505" stroke-width="1.5" stroke-linecap="round" stroke-linejoin="round"/>
<path d="M43.0529 46.9473L31.3687 56.2946" stroke="#050505" stroke-width="1.5" stroke-linecap="round" stroke-linejoin="round"/>
<path d="M75.1015 48.5055C75.1015 48.0753 74.7528 47.7266 74.3226 47.7266H64.9752C64.545 47.7266 64.1963 48.0753 64.1963 48.5055V66.0318C64.1963 66.462 63.8475 66.8108 63.4173 66.8108L58.633 66.8108C57.9506 66.8108 57.598 67.6261 58.0655 68.1233L69.0811 79.8388C69.3887 80.166 69.9085 80.166 70.2161 79.8388L81.2317 68.1233C81.6992 67.6261 81.3466 66.8108 80.6642 66.8108L75.8805 66.8108C75.4503 66.8108 75.1015 66.462 75.1015 66.0318V48.5055Z" fill="#80ABFF"/>
</svg>
