<svg width="74" height="74" viewBox="0 0 74 74" fill="none" xmlns="http://www.w3.org/2000/svg">
<path d="M38.6963 11.8978C39.233 12.5591 38.7632 13.5623 37.9116 13.5623H16.3969C15.8482 13.5623 15.398 13.1194 15.4406 12.5723C15.8477 7.35161 19.7604 1.63865 25.4375 2.02437C30.0379 2.34763 33.5967 5.79159 36.6222 9.37231C36.7462 9.52151 36.8702 9.65827 36.9942 9.80747C37.5785 10.5145 38.1445 11.2178 38.6963 11.8978Z" stroke="white" stroke-width="1.5" stroke-linecap="round" stroke-linejoin="round"/>
<path d="M58.559 13.5623H33.8955C34.8751 12.406 35.8919 11.1129 36.9707 9.80747C37.0947 9.65828 37.2187 9.52151 37.3427 9.37231C40.3683 5.79159 43.927 2.34763 48.5274 2.02437C54.5662 1.61408 58.6086 8.10414 58.559 13.5623Z" stroke="white" stroke-width="1.5" stroke-linecap="round" stroke-linejoin="round"/>
<rect x="4.75" y="14.4229" width="64.5" height="58.8243" rx="1.25" stroke="white" stroke-width="1.5"/>
<path d="M45.3282 33.359C42.3496 32.4664 38.966 33.8065 37.3247 36.3738C37.0702 36.7718 36.354 36.7697 36.1067 36.3671C34.5196 33.7829 31.3323 32.3736 28.3499 33.2706C23.9547 34.5956 22.8692 40.1933 25.1892 43.8328C26.5301 45.9346 28.7863 47.2063 30.8509 48.4514C32.8851 49.6777 34.8193 51.1039 36.2608 53.0167C36.4799 53.3074 36.9283 53.3074 37.1474 53.0168C38.5889 51.1048 40.5231 49.6825 42.5573 48.4514C44.6219 47.2063 46.8781 45.9346 48.219 43.8328C50.5443 40.1933 49.4588 34.6009 45.0582 33.2706L45.3282 33.359Z" fill="#80ABFF"/>
</svg>
