<?xml version="1.0" encoding="utf-8"?>
<!-- Generator: Adobe Illustrator 27.7.0, SVG Export Plug-In . SVG Version: 6.00 Build 0)  -->
<svg version="1.1" id="레이어_1" xmlns="http://www.w3.org/2000/svg" xmlns:xlink="http://www.w3.org/1999/xlink" x="0px"
	 y="0px" viewBox="0 0 90 90" style="enable-background:new 0 0 90 90;" xml:space="preserve">
<style type="text/css">
	.st0{fill:#050505;}
	.st1{fill-rule:evenodd;clip-rule:evenodd;fill:#80ABFF;}
</style>
<path class="st0" d="M34.38,38.45c-12.69,2.24-22.33,13.26-22.33,26.53h1.5c0-12.52,9.1-22.93,21.09-25.05L34.38,38.45z
	 M66.25,64.97c0-13.27-9.64-24.28-22.33-26.53l-0.26,1.48c11.99,2.12,21.09,12.53,21.09,25.05H66.25z M12.8,65.72h52.7v-1.5H12.8
	V65.72z M34.64,39.92c0.41-0.07,0.68-0.46,0.61-0.87c-0.07-0.41-0.46-0.68-0.87-0.61L34.64,39.92z M43.93,38.45
	c-0.41-0.07-0.8,0.2-0.87,0.61c-0.07,0.41,0.2,0.8,0.61,0.87L43.93,38.45z M65.5,64.97v0.75c0.41,0,0.75-0.34,0.75-0.75H65.5z
	 M12.8,64.97h-0.75c0,0.41,0.34,0.75,0.75,0.75V64.97z"/>
<path class="st0" d="M65.29,78.91h-7.24v1.5h7.24V78.91z M67.94,76.29c0,1.44-1.18,2.62-2.64,2.62v1.5c2.28,0,4.14-1.85,4.14-4.12
	H67.94z M67.94,68.35v7.93h1.5v-7.93H67.94z M65.29,65.73c1.46,0,2.64,1.18,2.64,2.62h1.5c0-2.28-1.86-4.12-4.14-4.12V65.73z
	 M13.01,65.73h52.28v-1.5H13.01V65.73z M10.37,68.35c0-1.44,1.18-2.62,2.64-2.62v-1.5c-2.28,0-4.14,1.85-4.14,4.12H10.37z
	 M10.37,76.29v-7.93h-1.5v7.93H10.37z M13.01,78.91c-1.46,0-2.64-1.18-2.64-2.62h-1.5c0,2.28,1.86,4.12,4.14,4.12V78.91z
	 M58.76,78.91H13.01v1.5h45.75V78.91z M58.06,78.91c-0.41,0-0.75,0.34-0.75,0.75s0.34,0.75,0.75,0.75V78.91z M58.76,80.41
	c0.41,0,0.75-0.34,0.75-0.75s-0.34-0.75-0.75-0.75V80.41z"/>
<path class="st0" d="M42.98,38.99l-1.33,17.86l1.5,0.11l1.33-17.86L42.98,38.99z M39.15,34.89c2.24,0,4,1.89,3.83,4.1l1.5,0.11
	c0.24-3.09-2.22-5.71-5.32-5.71V34.89z M35.32,38.99c-0.17-2.2,1.59-4.1,3.83-4.1v-1.5c-3.1,0-5.56,2.63-5.32,5.71L35.32,38.99z
	 M36.65,56.84l-1.33-17.86l-1.5,0.11l1.33,17.86L36.65,56.84z M41.65,56.84c-0.03,0.41,0.28,0.77,0.69,0.8
	c0.41,0.03,0.77-0.28,0.8-0.69L41.65,56.84z M43.73,39.04l-0.75-0.06l0,0L43.73,39.04z M34.57,39.04l0.75-0.06l0,0L34.57,39.04z
	 M35.16,56.95c0.03,0.41,0.39,0.72,0.8,0.69c0.41-0.03,0.72-0.39,0.69-0.8L35.16,56.95z"/>
<path class="st0" d="M28.92,55.22l-8.6-8.4l-1.05,1.07l8.6,8.4L28.92,55.22z M23.89,43.43l3.79,12.55l1.44-0.43l-3.79-12.55
	L23.89,43.43z M20.31,46.82c-0.3-0.29-0.77-0.28-1.06,0.01c-0.29,0.3-0.28,0.77,0.01,1.06L20.31,46.82z M28.39,55.76l-0.52,0.54
	c0.24,0.24,0.62,0.28,0.91,0.1c0.29-0.18,0.43-0.53,0.33-0.86L28.39,55.76z M25.32,42.99c-0.12-0.4-0.54-0.62-0.93-0.5
	c-0.4,0.12-0.62,0.54-0.5,0.93L25.32,42.99z"/>
<path class="st0" d="M50.44,56.3l8.6-8.4l-1.05-1.07l-8.6,8.4L50.44,56.3z M52.98,42.99l-3.79,12.55l1.44,0.43l3.79-12.55
	L52.98,42.99z M59.04,47.9c0.3-0.29,0.3-0.76,0.01-1.06c-0.29-0.3-0.76-0.3-1.06-0.01L59.04,47.9z M49.91,55.76l-0.72-0.22
	c-0.1,0.33,0.04,0.68,0.33,0.86s0.67,0.13,0.91-0.1L49.91,55.76z M54.42,43.43c0.12-0.4-0.1-0.82-0.5-0.93s-0.82,0.1-0.93,0.5
	L54.42,43.43z"/>
<path class="st0" d="M26.36,38.99v2.28h1.5v-2.28H26.36z M19.67,47.26v-8.27h-1.5v8.27H19.67z M26.36,41.27
	c0,0.41,0.34,0.75,0.75,0.75c0.41,0,0.75-0.34,0.75-0.75H26.36z M27.86,38.99c0-0.41-0.34-0.75-0.75-0.75
	c-0.41,0-0.75,0.34-0.75,0.75H27.86z M19.67,38.99c0-0.41-0.34-0.75-0.75-0.75c-0.41,0-0.75,0.34-0.75,0.75H19.67z M18.17,47.26
	c0,0.41,0.34,0.75,0.75,0.75c0.41,0,0.75-0.34,0.75-0.75H18.17z"/>
<path class="st0" d="M33.23,21.25c0.37,0.63,1.13,2.19,1.28,3.41L36,24.47c-0.19-1.53-1.08-3.3-1.48-3.99L33.23,21.25z M36.24,26.94
	c0-0.86-0.08-1.7-0.25-2.52l-1.47,0.3c0.14,0.72,0.22,1.46,0.22,2.23H36.24z M23.02,40.01c7.3,0,13.22-5.84,13.22-13.07h-1.5
	c0,6.38-5.23,11.57-11.72,11.57V40.01z M9.79,26.94c0,7.23,5.93,13.07,13.23,13.07v-1.5c-6.49,0-11.73-5.19-11.73-11.57H9.79z
	 M17.38,15.11C12.9,17.2,9.79,21.7,9.79,26.94h1.5c0-4.62,2.74-8.61,6.72-10.47L17.38,15.11z M18.45,27.68V15.79h-1.5v11.89H18.45z
	 M23.39,30.01l-5.32-2.98l-0.73,1.31l5.32,2.98L23.39,30.01z M27.97,27.03l-5.32,2.98l0.73,1.31l5.32-2.98L27.97,27.03z
	 M27.59,15.79v11.89h1.5V15.79H27.59z M34.53,20.49c-1.35-2.34-3.4-4.23-5.87-5.38l-0.64,1.36c2.19,1.03,4.01,2.7,5.2,4.77
	L34.53,20.49z M35.26,24.57l-0.74,0.09c0,0.02,0.01,0.04,0.01,0.05L35.26,24.57z M17.7,15.79h0.75c0-0.26-0.13-0.49-0.35-0.63
	c-0.22-0.14-0.49-0.16-0.72-0.05L17.7,15.79z M17.7,27.68h-0.75c0,0.27,0.15,0.52,0.38,0.65L17.7,27.68z M23.02,30.67l-0.37,0.65
	c0.23,0.13,0.51,0.13,0.73,0L23.02,30.67z M28.34,27.68l0.37,0.65c0.24-0.13,0.38-0.38,0.38-0.65H28.34z M28.34,15.79l0.32-0.68
	c-0.23-0.11-0.5-0.09-0.72,0.05s-0.35,0.38-0.35,0.63H28.34z M33.88,20.87l-0.65,0.37l0,0.01L33.88,20.87z"/>
<path class="st1" d="M56.08,28.59c3.64,3.73,9.57,3.7,13.25-0.07c3.68-3.77,3.71-9.85,0.07-13.58c-3.64-3.73-9.57-3.7-13.25,0.07
	C52.47,18.78,52.44,24.86,56.08,28.59z M53.65,31.1c-4.97-5.1-4.93-13.41,0.09-18.56c5.02-5.15,13.13-5.19,18.1-0.09
	c4.51,4.63,4.9,11.9,1.17,17.06l7.71,7.91c0.71,0.73,0.71,1.92,0,2.65c-0.71,0.73-1.87,0.73-2.58,0l-7.69-7.89
	C65.41,36.13,58.21,35.78,53.65,31.1z"/>
</svg>
