<?xml version="1.0" encoding="utf-8"?>
<!-- Generator: Adobe Illustrator 27.7.0, SVG Export Plug-In . SVG Version: 6.00 Build 0)  -->
<svg version="1.1" id="레이어_1" xmlns="http://www.w3.org/2000/svg" xmlns:xlink="http://www.w3.org/1999/xlink" x="0px"
	 y="0px" viewBox="0 0 120 120" style="enable-background:new 0 0 120 120;" xml:space="preserve">
<style type="text/css">
	.st0{clip-path:url(#SVGID_00000083064422478820590900000011085657117162448825_);}
	.st1{clip-path:url(#SVGID_00000121246216213659212710000008639509243034150307_);}
	.st2{fill:#F4F4F4;}
	.st3{fill:#80ABFF;}
	.st4{fill:none;stroke:#050505;stroke-linecap:round;stroke-linejoin:round;}
	.st5{fill:#F4F4F4;stroke:#050505;stroke-linecap:round;stroke-linejoin:round;}
	.st6{fill:#FFFFFF;stroke:#050505;stroke-linecap:round;stroke-linejoin:round;}
	.st7{fill:#F4F4F4;stroke:#050505;}
	.st8{fill:#050505;}
	.st9{fill:#80ABFF;stroke:#80ABFF;}
	.st10{fill:none;stroke:#70747D;stroke-width:1.03;stroke-linecap:round;stroke-linejoin:round;}
</style>
<g>
	<defs>
		<path id="SVGID_1_" d="M60,4.47c27.61,0,50,33.91,50,61.53s-22.39,50-50,50S10,93.61,10,66S32.39,4.47,60,4.47z"/>
	</defs>
	<clipPath id="SVGID_00000054264615759288279490000000314909239617538961_">
		<use xlink:href="#SVGID_1_"  style="overflow:visible;"/>
	</clipPath>
	<g style="clip-path:url(#SVGID_00000054264615759288279490000000314909239617538961_);">
		<g>
			<defs>
				<rect id="SVGID_00000062874622542041299720000009360369306381586083_" y="0" width="120" height="120"/>
			</defs>
			<clipPath id="SVGID_00000044895156659722337810000003072169884243516566_">
				<use xlink:href="#SVGID_00000062874622542041299720000009360369306381586083_"  style="overflow:visible;"/>
			</clipPath>
			<g style="clip-path:url(#SVGID_00000044895156659722337810000003072169884243516566_);">
				<g>
					<g>
						<g>
							<circle class="st2" cx="60" cy="66" r="50"/>
							<g>
								<path class="st2" d="M62.43,108.09c10.75-19.41,13.2-39.07,13.45-47.7H46.27c0.25,8.63,2.7,28.29,13.45,47.7H62.43z"/>
								<path class="st3" d="M66,122l-1.13-36.55L62.65,70h-3.26l-2.26,15.45L56,122H66z"/>
								<path class="st3" d="M56,66.45c-0.02-2.05,3.09-2.63,5.09-2.65s4.82,0.48,4.84,2.53c0.01,0.95-0.85,2.39-1.63,3.66
									c-0.44,0.73-1.95,2.44-1.95,2.44h-2.69c0,0-1.4-1.66-1.83-2.36C57.05,68.82,56.01,67.39,56,66.45L56,66.45L56,66.45z"/>
								<path class="st4" d="M88,66c0,0-20.8-9.13-20.88-7.88 M50.91,59.53C50.83,58.28,31.5,65,31.5,65"/>
								<path class="st5" d="M69.03,63.58l-7.88,0.03l-8.14-0.03V49.51h16.02V63.58z"/>
								<path class="st6" d="M51.38,57.32c-0.07-0.19,1.52-2.98,1.49-2.67c-0.28,2.52,1.97,5.05,8.23,9.11
									c0.45,0.29-3.44,1.72-5.5,4.64c-1.89,2.66-4.45,5.18-4.45,5.18c-3.38-8.42,0.25-16.25,0.25-16.25L51.38,57.32z"/>
								<path class="st5" d="M70.5,60.32c0.07-0.19-1.52-2.98-1.49-2.67c0.28,2.52-1.97,5.05-8.23,9.11
									c-0.45,0.29,3.44,1.72,5.5,4.64c1.89,2.66,4.45,5.18,4.45,5.18c3.38-8.42-0.25-16.25-0.25-16.25L70.5,60.32z"/>
								<path class="st5" d="M48.07,35.63c0.82,2.5,2.55,6.86,0.24,7.62c-2.31,0.76-4.8-0.21-7.01-5.07
									c-1.09-2.4-0.14-5.58,2.18-6.34S47.24,33.13,48.07,35.63C48.07,35.63,48.07,35.63,48.07,35.63z"/>
								<path class="st5" d="M73.42,35.74c-0.84,2.5-2.62,6.84-0.3,7.61c2.3,0.78,4.8-0.17,7.05-5.01c1.12-2.39,0.19-5.58-2.12-6.36
									C75.75,31.2,74.28,33.23,73.42,35.74L73.42,35.74z"/>
								<path class="st7" d="M75.7,27.61c-0.14,6.86-0.93,13.77-3.21,18.95c-1.14,2.59-2.63,4.72-4.58,6.2
									c-1.94,1.48-4.36,2.34-7.38,2.34c-5.97,0-9.7-3.86-11.96-9.3c-2.26-5.46-2.99-12.41-2.97-18.31
									C45.66,15.85,52.9,8.8,61.16,8.83c4.14,0.02,7.82,1.81,10.45,5.03C74.23,17.09,75.82,21.78,75.7,27.61z"/>
								<path class="st4" d="M65.12,45.38c0,0,1.12,0.16,1.12,1.53"/>
								<path class="st4" d="M56.46,29.48c0,0-2.25,1.97-5.41,1.63"/>
								<path class="st4" d="M64.81,29.48c0,0,2.25,1.97,5.41,1.63"/>
								<path class="st4" d="M60.63,41.42v0.84"/>
								<path class="st8" d="M55.6,34.78c0.01,0.87-0.59,1.56-1.36,1.57c-0.76,0-1.39-0.68-1.4-1.54c-0.01-0.87,0.59-1.56,1.36-1.57
									C54.97,33.22,55.59,33.91,55.6,34.78z"/>
								<path class="st8" d="M68.5,34.61c0.01,0.87-0.59,1.56-1.36,1.57c-0.76,0.01-1.39-0.68-1.4-1.54
									c-0.01-0.87,0.59-1.56,1.36-1.57C67.86,33.07,68.49,33.74,68.5,34.61z"/>
								<path class="st4" d="M58.88,47.4c0,0,1.95-0.73,3.59,0"/>
								<g>
									<path class="st9" d="M75.24,30.64c0.09-0.23,0.18-0.5,0.27-0.82c0.06-0.2,0.11-0.4,0.17-0.62l-0.52-0.35
										C75.21,29.57,75.23,30.18,75.24,30.64z"/>
									<path class="st9" d="M75.27,31.59c0,0.02,0.01,0.03,0.02,0.02c0.08-0.09,0.17-0.23,0.26-0.42
										c-0.08-0.06-0.19-0.09-0.3-0.08C75.25,31.37,75.26,31.53,75.27,31.59z"/>
									<path class="st9" d="M64.86,8.08l-0.33,0.38c0.02,0,0.04,0,0.06-0.01L64.86,8.08z"/>
									<g>
										<path class="st9" d="M64.53,8.46c-0.88-0.76-1.84-1.39-3.22-1.72s-3.23-0.36-5.87,0.16l9.08,1.65l0.05-0.06L64.53,8.46z"
											/>
										<path class="st9" d="M64.59,8.45l-0.02,0.03l0.11,0.09l-0.15-0.03l-0.35,0.48L64,8.75l-8.57-1.84
											c-2.88,0.57-5.42,1.66-7.32,3.81c-1.9,2.14-3.22,5.4-3.53,10.39c-0.17,2.61-0.1,4.83,0.21,6.62
											c0.18,1.05,0.45,1.93,0.78,2.65c0.03-0.61,0.08-1.35,0.16-2.09c0.1-0.93,0.26-1.91,0.5-2.67c0.09-0.29,0.21-0.56,0.35-0.8
											c2.09-0.28,7.58-4.23,9.92-6.17c0.78-0.64,1.34-1.1,1.5-1.18l-4.03,2.59c0.82-0.65,1.58-1.28,2.2-1.79l0.01-0.01
											c0.39-0.32,0.72-0.59,0.98-0.8c0.13-0.1,0.24-0.19,0.34-0.26c0.09-0.06,0.19-0.13,0.27-0.17
											c0.32-0.16,0.61-0.34,0.92-0.54c0.02-0.01,0.03-0.02,0.05-0.03L58,17.47l17.15,11.38c0,0,0-0.01,0-0.01l0.53,0.35
											l-0.58-1.02c0-0.04-0.01-0.07-0.01-0.11l0.59,1.13c0,0,0,0.01,0,0.01l0,0c0,0.08,0.01,0.16,0.01,0.24
											c0.03,0.51,0.04,0.95,0.05,1.29C77.49,25.99,79.36,6.26,64.59,8.45z M46.58,24.81c0.04-0.07,0.07-0.15,0.12-0.21
											c0.19-0.28,0.48-0.54,0.88-0.59c0.12-0.02,0.26-0.06,0.41-0.1L46.58,24.81z"/>
									</g>
								</g>
								<path class="st4" d="M94.75,112c0.28-6.66-0.59-14.57,0-23.45c1.06-15.85-1.27-20.7-6.96-22.62
									c-0.49-0.17-2.52,1.86-4.35,7.65c-1.77,5.63-3.32,14.8-4.6,28.99V119"/>
								<path class="st5" d="M32.15,64.76c-2.44,0.55-6.03,2.83-7.57,6.19c-1.62,3.53-1.13,8.31-1.45,15.25
									c-0.7,15.07,1.29,24.31,7.23,26.54c1.13,0.42,4.14-0.86,5.34-1.34c0,0,1.42-31.37,1.03-35.6
									C36,67.77,32.15,64.76,32.15,64.76z"/>
								<path class="st5" d="M51.88,70.06c3.39,2.45,5.27,5.92,4.01,7.66c-1.26,1.74-5.19,1.11-8.58-1.35
									c-3.39-2.46-5.11-5.85-3.85-7.6C44.72,67.03,48.49,67.6,51.88,70.06L51.88,70.06z"/>
								<path class="st5" d="M64.88,64.41l2.1-3.32c0.21-1.36-0.79-1.75-1.12-1.84l0.31-0.27c0.25-1.62-1.23-1.87-1.23-1.87
									l-0.47,0.34l1.86-1.2c0.2-1.3-0.88-2.02-1.25-2.13l3.39-2.72c1.67-2.72-1.33-1.92-1.33-1.92l-6.57,4.24l-5.08,2.91
									c-0.42-2-0.26-3.75-0.26-3.75c-0.29-1.52-0.94-2.9-1.47-3.4c-1.28-1.23-2.7,0.29-2.7,0.29c1.63,3.02,0.63,6.74,0.63,6.74
									s-0.79,1.63-1.96,3.69c-1.17,2.06-1.29,5.1-1.29,5.1l-3.3,4.68c0,0-0.08,2.75,2.97,4.59c3.06,1.85,5.26,1.18,5.26,1.18
									s1.48-2.36,2.71-3.31c1.43-1.11,3.72-2.12,4.97-3.32c2.31-2.23,3.83-4.7,3.83-4.7S64.88,64.41,64.88,64.41z"/>
								<path class="st4" d="M65.09,54.1c0,0-3.56,2.79-5.22,3.35"/>
								<path class="st4" d="M64.45,57.52l-2.38,1.89"/>
								<path class="st4" d="M65.67,59.46l-1.81,2.07"/>
								<path class="st5" d="M43.66,72.34l2.38-4.57c0,0,0.75,3.08,3.82,5.36s5.5,1.87,5.5,1.87l-1.94,4.09c0,0-1.55,1.14-4.36-0.9
									c-2.78-2.02-5.39-5.84-5.39-5.84L43.66,72.34z"/>
								<path class="st2" d="M43.69,68.42c0,0-16.94,26.6-18.13,32.14c0,0-2.93,8.68,3.76,11.88c3.38,1.61,7.17-0.9,9.65-3.71
									c6.06-6.86,11.89-18.59,16.95-31.05c0,0-3.4,1.37-6.33-0.89C44.8,73.11,43.69,68.42,43.69,68.42z"/>
								<path class="st4" d="M24.05,103.42c0,0,0.49,4.88,5.27,9.03c2.83,2.46,7.17-0.9,9.65-3.71
									c6.06-6.86,11.89-18.59,16.95-31.05c0,0-3.4,1.37-6.33-0.89c-4.79-3.68-5.9-8.37-5.9-8.37S33.06,85.54,27.77,95.36"/>
							</g>
						</g>
					</g>
				</g>
			</g>
		</g>
	</g>
</g>
<path class="st10" d="M112.06,12.15c-2.44-2.37-5.22-4.38-8.24-5.94c-1.1-0.57-2.3-1.06-3.55-1.17c-0.88-0.08-2.36-0.13-2.88,0.76
	c-0.2,0.34-0.16,0.76-0.06,1.14c0.18,0.71,0.56,1.35,0.99,1.94c1.69,2.38,4.07,4.13,6.56,5.62c0.9,0.54,2.38,1.67,3.48,1.54
	c0.12-0.01,0.24-0.05,0.32-0.13c0.42-0.44-0.52-1.42-0.82-1.69c-1.66-1.48-3.52-2.77-5.56-3.67c-1.69-0.74-4.68-1.89-6.45-0.87
	c-3.45,1.99,2.73,7.39,4.17,8.48c1.17,0.89,2.74,2.29,4.33,2.12c1.29-0.14-0.21-1.64-0.55-1.97c-1.27-1.25-2.78-2.25-4.38-3.02
	c-1.51-0.73-3.34-1.57-5.05-1.46c-2.52,0.16-0.93,3-0.17,4.14c0.84,1.24,1.85,2.37,3,3.33c0.98,0.82,2.23,1.89,3.54,2.05
	c0.17,0.02,0.34,0.03,0.51-0.03c0.64-0.23,0.33-1,0-1.36c-0.7-0.77-1.59-1.42-2.6-1.63c-1.97-0.41-3.87,1.16-3.13,3.2
	c0.36,1.02,1.09,1.92,1.8,2.68"/>
</svg>
