<svg width="90" height="90" viewBox="0 0 90 90" fill="none" xmlns="http://www.w3.org/2000/svg">
<path d="M46.1883 65.2555C45.8054 65.2712 45.4205 65.279 45.034 65.279C29.8145 65.279 17.4844 52.7999 17.4844 37.4133C17.4844 22.0266 29.8145 9.54004 45.034 9.54004C60.2535 9.54004 72.5836 22.0191 72.5836 37.4058C72.5836 45.6977 69.0013 53.1422 63.3222 58.2484C63.2106 58.3488 63.0981 58.4483 62.9848 58.5469" stroke="#050505" stroke-width="1.5" stroke-linecap="round" stroke-linejoin="round"/>
<path d="M82.0652 38.3293C82.0681 38.3322 82.0683 38.3368 82.0657 38.34L75.1374 46.9746C74.689 47.5335 73.8383 47.5335 73.3898 46.9746L67.9185 40.1558C67.3302 39.4226 67.8522 38.3344 68.7923 38.3344H70.2344C70.7391 38.3344 71.1588 37.9451 71.1588 37.4404C71.1588 28.5204 66.7818 20.6305 60.0777 15.8572C59.5426 15.4763 59.4118 14.7256 59.8135 14.206L61.7477 11.7045C62.1014 11.2471 62.7464 11.1322 63.2247 11.4571C71.4861 17.0679 77.0113 26.4698 77.3719 37.2066C77.3927 37.825 77.8923 38.3269 78.511 38.3269H82.0594C82.0616 38.3269 82.0637 38.3278 82.0652 38.3293Z" fill="#80ABFF"/>
<path d="M10.3353 36.7731C9.39515 36.7731 8.87313 35.6849 9.4615 34.9517L14.9328 28.1329C15.3813 27.574 16.2319 27.574 16.6804 28.1329L22.1517 34.9517C22.7401 35.6849 22.218 36.7731 21.2779 36.7731H20.0104C19.406 36.7731 18.908 37.2532 18.9122 37.8577C18.9729 46.6984 23.3361 54.5084 29.9917 59.2429C30.5271 59.6238 30.6582 60.3747 30.2563 60.8945L28.3225 63.3955C27.9688 63.8529 27.3238 63.9678 26.8455 63.6429C18.5841 58.0321 13.0589 48.6302 12.6983 37.8934C12.6775 37.275 12.1779 36.7731 11.5592 36.7731H10.3353Z" fill="#80ABFF"/>
<path d="M63.9894 33.8347L61.7685 34.3606H60.5132C60.1046 32.1743 59.2653 30.1458 58.0843 28.3878L58.9533 27.4938L60.8994 26.2767C59.5401 24.2933 57.8466 22.5729 55.8857 21.2206L54.6824 23.1739L53.8133 24.0679C52.0604 22.8734 50.0549 22.0094 47.9008 21.5962V20.3416L48.4208 18.0952C47.3214 17.8849 46.185 17.7722 45.0263 17.7646C43.8601 17.7722 42.7311 17.8924 41.6318 18.0877L42.1517 20.334V21.5887C39.9977 22.0169 37.9996 22.8584 36.2392 24.0604L35.3702 23.1664L34.1669 21.2131C32.2059 22.5729 30.5124 24.2933 29.1531 26.2692L31.0992 27.4863L31.9682 28.3803C30.7872 30.1458 29.9479 32.1818 29.5394 34.353H28.2841L26.0632 33.8271C25.8477 34.9841 25.7363 36.1787 25.7363 37.4033C25.7363 38.6279 25.8477 39.8224 26.0632 40.9719L28.2841 40.446H29.5394C29.9479 42.6322 30.7872 44.6607 31.9682 46.4187L31.0992 47.3127L29.1531 48.5298C30.5124 50.5132 32.2059 52.2336 34.1669 53.586L35.3702 51.6326L36.2392 50.7386C37.9922 51.9331 39.9977 52.7971 42.1517 53.2103V54.465L41.6318 56.7113C42.7311 56.9217 43.8675 57.0344 45.0263 57.0419C46.1924 57.0344 47.3214 56.9141 48.4208 56.7188L47.9008 54.4725V53.2178C50.0549 52.7896 52.0529 51.9481 53.8133 50.7461L54.6824 51.6401L55.8857 53.5935C57.8466 52.2336 59.5401 50.5132 60.8994 48.5373L58.9533 47.3202L58.0843 46.4262C59.2653 44.6607 60.1046 42.6247 60.5132 40.4535H61.7685L63.9894 40.9794C64.2048 39.8224 64.3162 38.6279 64.3162 37.4033C64.3162 36.1787 64.2048 34.9841 63.9894 33.8347ZM45.0337 48.3871C39.0469 48.3871 34.1817 43.4736 34.1817 37.4108C34.1817 31.3479 39.0395 26.4345 45.0337 26.4345C51.0279 26.4345 55.8857 31.3479 55.8857 37.4108C55.8857 43.4736 51.0279 48.3871 45.0337 48.3871Z" stroke="#050505" stroke-width="1.5" stroke-linecap="round" stroke-linejoin="round"/>
<path fill-rule="evenodd" clip-rule="evenodd" d="M60 59H56V64H51V68H56V73H60V68H65V64H60V59Z" fill="#80ABFF"/>
</svg>
