<svg width="23" height="20" viewBox="0 0 23 20" fill="none" xmlns="http://www.w3.org/2000/svg">
<g id="icon">
<g id="Group 9451">
<path id="Vector" d="M3.42308 3.42326C3.42308 4.76159 4.50793 5.84652 5.84615 5.84652C7.18438 5.84652 8.26923 4.76159 8.26923 3.42326C8.26923 2.08493 7.18438 1 5.84615 1C4.50793 1 3.42308 2.08493 3.42308 3.42326ZM3.42308 3.42326H1M8.77348 3.42326H22" stroke="#050505" stroke-width="1.5" stroke-linecap="round" stroke-linejoin="round"/>
</g>
<g id="Group 9452">
<path id="Vector_2" d="M19.5769 9.76994C19.5769 11.1083 18.4921 12.1932 17.1538 12.1932C15.8156 12.1932 14.7308 11.1083 14.7308 9.76994C14.7308 8.43161 15.8156 7.34668 17.1538 7.34668C18.4921 7.34668 19.5769 8.43161 19.5769 9.76994ZM19.5769 9.76994H22M14.2265 9.76994H1" stroke="#050505" stroke-width="1.5" stroke-linecap="round" stroke-linejoin="round"/>
</g>
<g id="Group 9453">
<path id="Vector_3" d="M3.42308 16.1166C3.42308 17.4549 4.50793 18.5399 5.84615 18.5399C7.18438 18.5399 8.26923 17.4549 8.26923 16.1166C8.26923 14.7783 7.18438 13.6934 5.84615 13.6934C4.50793 13.6934 3.42308 14.7783 3.42308 16.1166ZM3.42308 16.1166H1M8.77348 16.1166H22" stroke="#050505" stroke-width="1.5" stroke-linecap="round" stroke-linejoin="round"/>
</g>
</g>
</svg>
