<svg width="23" height="16" viewBox="0 0 23 16" fill="none" xmlns="http://www.w3.org/2000/svg">
<g clip-path="url(#clip0_205_55256)">
<path d="M22.5261 2.50346C22.261 1.52466 21.4839 0.752957 20.4992 0.489177C18.6992 0 11.5 0 11.5 0C11.5 0 4.30082 0 2.5008 0.470877C1.53453 0.734211 0.738965 1.52511 0.473926 2.50391C0 4.2919 0 8 0 8C0 8 0 11.7268 0.473477 13.4965C0.738965 14.4753 1.51521 15.247 2.5008 15.5108C4.31924 16 11.5 16 11.5 16C11.5 16 18.6992 16 20.4992 15.5291C21.4843 15.2658 22.261 14.4936 22.5261 13.5148C22.9996 11.7264 22.9995 8.0183 22.9995 8.0183C22.9995 8.0183 23.0184 4.29101 22.5256 2.50301L22.5261 2.50346Z" fill="white"/>
<path d="M9.21094 11.4263L15.1977 8.00024L9.21094 4.57422V11.4263Z" fill="black"/>
</g>
<defs>
<clipPath id="clip0_205_55256">
<rect width="23" height="16" fill="white"/>
</clipPath>
</defs>
</svg>
