<svg width="30" height="30" viewBox="0 0 30 30" fill="none" xmlns="http://www.w3.org/2000/svg">
<path fill-rule="evenodd" clip-rule="evenodd" d="M23.4992 7.48918C24.4839 7.75296 25.261 8.52466 25.5261 9.50346L25.5256 9.50301C26.0184 11.291 25.9995 15.0183 25.9995 15.0183C25.9995 15.0183 25.9996 18.7264 25.5261 20.5148C25.261 21.4936 24.4843 22.2658 23.4992 22.5291C21.6992 23 14.5 23 14.5 23C14.5 23 7.31924 23 5.5008 22.5108C4.51521 22.247 3.73896 21.4753 3.47348 20.4965C3 18.7268 3 15 3 15C3 15 3 11.2919 3.47393 9.50391C3.73896 8.52511 4.53453 7.73421 5.5008 7.47088C7.30082 7 14.5 7 14.5 7C14.5 7 21.6992 7 23.4992 7.48918ZM18.1977 15.0002L12.2109 18.4263V11.5742L18.1977 15.0002Z" fill="white"/>
</svg>
