<svg width="52" height="52" viewBox="0 0 52 52" fill="none" xmlns="http://www.w3.org/2000/svg">
<rect x="0.5" y="0.5" width="51" height="51" rx="25.5" fill="white"/>
<g clip-path="url(#clip0_240_18275)">
<path d="M16.0548 21.8909C16.0548 21.8909 15.0772 21.8909 14.1908 22.7746V19.2109H12V28.5764H14.2128V27.8411C14.2128 27.8411 14.7346 28.8086 16.0516 28.8086C16.0516 28.8086 19.1383 28.6925 19.1383 25.3126C19.1383 25.3126 19.0251 21.8877 16.0516 21.8877L16.0548 21.8909ZM15.5707 26.8349C14.7943 26.8349 14.1626 26.1866 14.1626 25.39C14.1626 24.5935 14.7943 23.9452 15.5707 23.9452C16.3471 23.9452 16.9789 24.5935 16.9789 25.39C16.9789 26.1866 16.3471 26.8349 15.5707 26.8349Z" fill="#050505"/>
<path d="M19.8438 19V21.1672C19.8438 21.1672 20.8433 21.1221 20.8433 23.0313V28.575H22.9556V22.5185C22.9556 22.5185 23.0467 19 19.8438 19Z" fill="#050505"/>
<path d="M28.1214 21.918C28.1214 21.918 24.5004 21.918 24.5004 25.3881C24.5004 25.3881 24.3841 28.8098 28.1214 28.8098C28.1214 28.8098 31.8242 28.8034 31.8242 25.3881C31.8242 25.3881 31.9436 21.918 28.1214 21.918ZM28.1214 26.8329C27.345 26.8329 26.7132 26.1847 26.7132 25.3881C26.7132 24.5915 27.345 23.9433 28.1214 23.9433C28.8978 23.9433 29.5296 24.5915 29.5296 25.3881C29.5296 26.1847 28.8978 26.8329 28.1214 26.8329Z" fill="#050505"/>
<path d="M37.8755 22.1444V22.7733C37.8755 22.7733 37.2469 21.9186 36.0368 21.9186C36.0368 21.9186 32.9375 21.7832 32.9375 25.3629C32.9375 25.3629 32.9029 28.6976 35.9519 28.6976C35.9519 28.6976 37.1966 28.7492 37.8755 27.8398V28.3654C37.8755 28.3654 38.0296 30.007 36.48 30.007H35.9519V32H36.8037C36.8037 32 40.0067 32.0355 40.0067 28.488V22.1444H37.8787H37.8755ZM36.5648 26.8303C35.7884 26.8303 35.1566 26.1821 35.1566 25.3855C35.1566 24.5889 35.7853 23.9407 36.5648 23.9407C37.3443 23.9407 37.973 24.5889 37.973 25.3855C37.973 26.1821 37.3412 26.8303 36.5648 26.8303Z" fill="#050505"/>
</g>
<rect x="0.5" y="0.5" width="51" height="51" rx="25.5" stroke="#E5EBF4"/>
<defs>
<clipPath id="clip0_240_18275">
<rect width="28" height="13" fill="white" transform="translate(12 19)"/>
</clipPath>
</defs>
</svg>
