<svg width="21" height="18" viewBox="0 0 21 18" fill="none" xmlns="http://www.w3.org/2000/svg">
<path d="M-0.000244141 13.0033V17.9995H6.26514V12.9007C6.26514 10.9387 6.53052 9.11358 7.06129 7.42537C7.61514 5.73715 8.43437 4.08316 9.51899 2.46339L6.02283 -0.000488281C5.0536 0.820804 4.19976 1.75617 3.46129 2.8056C2.72283 3.85502 2.09976 4.95008 1.59206 6.09077C1.06129 7.25426 0.657448 8.42917 0.380525 9.61548C0.126679 10.8018 -0.000244141 11.9311 -0.000244141 13.0033ZM11.2498 13.0033V17.9995H17.5151V12.9007C17.5151 10.9387 17.7805 9.11358 18.3113 7.42537C18.8651 5.73715 19.6844 4.08316 20.769 2.46339L17.2728 -0.000488281C16.3036 0.820804 15.4498 1.75617 14.7113 2.8056C13.9728 3.85502 13.3498 4.95008 12.8421 6.09077C12.3113 7.25426 11.9074 8.42917 11.6305 9.61548C11.3767 10.8018 11.2498 11.9311 11.2498 13.0033Z" fill="white"/>
</svg>
