<svg width="52" height="52" viewBox="0 0 52 52" fill="none" xmlns="http://www.w3.org/2000/svg">
<rect x="0.5" y="0.5" width="51" height="51" rx="25.5" fill="white"/>
<g clip-path="url(#clip0_240_18285)">
<path d="M37.5261 20.5035C37.261 19.5247 36.4839 18.753 35.4992 18.4892C33.6992 18 26.5 18 26.5 18C26.5 18 19.3008 18 17.5008 18.4709C16.5345 18.7342 15.739 19.5251 15.4739 20.5039C15 22.2919 15 26 15 26C15 26 15 29.7268 15.4735 31.4965C15.739 32.4753 16.5152 33.247 17.5008 33.5108C19.3192 34 26.5 34 26.5 34C26.5 34 33.6992 34 35.4992 33.5291C36.4843 33.2658 37.261 32.4936 37.5261 31.5148C37.9996 29.7264 37.9995 26.0183 37.9995 26.0183C37.9995 26.0183 38.0184 22.291 37.5256 20.503L37.5261 20.5035Z" fill="#050505"/>
<path d="M24.2109 29.4263L30.1977 26.0002L24.2109 22.5742V29.4263Z" fill="white"/>
</g>
<rect x="0.5" y="0.5" width="51" height="51" rx="25.5" stroke="#E5EBF4"/>
<defs>
<clipPath id="clip0_240_18285">
<rect width="23" height="16" fill="white" transform="translate(15 18)"/>
</clipPath>
</defs>
</svg>
