<svg width="52" height="52" viewBox="0 0 52 52" fill="none" xmlns="http://www.w3.org/2000/svg">
<path d="M0.5 26C0.5 11.9167 11.9167 0.5 26 0.5C40.0833 0.5 51.5 11.9167 51.5 26C51.5 40.0833 40.0833 51.5 26 51.5C11.9167 51.5 0.5 40.0833 0.5 26Z" fill="white"/>
<path d="M22 23.8636C22 20.0454 28 20.0455 28 23.8636C28 26.5909 25.2727 26.0454 25.2727 29.3181" stroke="black" stroke-width="1.5" stroke-linecap="round" stroke-linejoin="round"/>
<path d="M25.2812 31.9112L25.2893 31.9023" stroke="black" stroke-width="1.5" stroke-linecap="round" stroke-linejoin="round"/>
<path d="M25 39C17.8204 39 12 33.1796 12 26C12 18.8203 17.8204 13 25 13C32.1797 13 38 18.8203 38 26C38 28.3678 37.3669 30.5878 36.2608 32.5L37.35 38.35L31.5 37.2609C29.5879 38.3669 27.3678 39 25 39Z" stroke="black" stroke-width="1.5" stroke-linecap="round" stroke-linejoin="round"/>
<path d="M0.5 26C0.5 11.9167 11.9167 0.5 26 0.5C40.0833 0.5 51.5 11.9167 51.5 26C51.5 40.0833 40.0833 51.5 26 51.5C11.9167 51.5 0.5 40.0833 0.5 26Z" stroke="#E9E9E9"/>
</svg>
