<svg width="20" height="20" viewBox="0 0 20 20" fill="none" xmlns="http://www.w3.org/2000/svg">
<g id="icon_34/quotationmarks">
<path id="&#226;&#128;&#156;" d="M4.11749 12.3544V15.2933H7.80301V12.294C7.80301 11.1399 7.95912 10.0663 8.27134 9.07323C8.59713 8.08016 9.07903 7.10723 9.71704 6.15442L7.66048 4.70508C7.09034 5.18819 6.58808 5.7384 6.15369 6.35572C5.7193 6.97303 5.35279 7.61718 5.05414 8.28817C4.74193 8.97258 4.50437 9.6637 4.34147 10.3615C4.19215 11.0594 4.11749 11.7236 4.11749 12.3544ZM10.7351 12.3544V15.2933H14.4207V12.294C14.4207 11.1399 14.5768 10.0663 14.889 9.07323C15.2148 8.08016 15.6967 7.10723 16.3347 6.15442L14.2781 4.70508C13.708 5.18819 13.2057 5.7384 12.7713 6.35572C12.3369 6.97303 11.9704 7.61718 11.6718 8.28817C11.3596 8.97258 11.122 9.6637 10.9591 10.3615C10.8098 11.0594 10.7351 11.7236 10.7351 12.3544Z" fill="#050505"/>
</g>
</svg>
