<svg width="18" height="12" viewBox="0 0 18 12" fill="none" xmlns="http://www.w3.org/2000/svg">
<g clip-path="url(#clip0_138_12226)">
<path d="M17.4223 1.98179C17.2286 1.26652 16.6607 0.702581 15.9411 0.509819C14.6257 0.152344 9.36479 0.152344 9.36479 0.152344C9.36479 0.152344 4.10385 0.152344 2.78845 0.496446C2.08233 0.688883 1.50095 1.26684 1.30727 1.98212C0.960938 3.28873 0.960938 5.9985 0.960938 5.9985C0.960938 5.9985 0.960938 8.72196 1.30694 10.0152C1.50095 10.7305 2.06821 11.2944 2.78845 11.4872C4.1173 11.8447 9.36479 11.8447 9.36479 11.8447C9.36479 11.8447 14.6257 11.8447 15.9411 11.5005C16.661 11.3081 17.2286 10.7438 17.4223 10.0286C17.7683 8.72163 17.7683 6.01187 17.7683 6.01187C17.7683 6.01187 17.7821 3.28808 17.422 1.98147L17.4223 1.98179Z" fill="#050505"/>
<path d="M7.69531 8.50335L12.0702 5.99972L7.69531 3.49609V8.50335Z" fill="white"/>
</g>
<defs>
<clipPath id="clip0_138_12226">
<rect width="16.8077" height="11.6923" fill="white" transform="translate(0.960938 0.152344)"/>
</clipPath>
</defs>
</svg>
